<?xml version="1.0" encoding="utf-8"?>
<!-- Generator: Adobe Illustrator 22.1.0, SVG Export Plug-In . SVG Version: 6.00 Build 0)  -->
<svg version="1.1" id="Layer_1" xmlns="http://www.w3.org/2000/svg" xmlns:xlink="http://www.w3.org/1999/xlink" x="0px" y="0px"
	 viewBox="0 0 250 84.4" style="enable-background:new 0 0 250 84.4;" xml:space="preserve">
<style type="text/css">
	.st0{fill:#00539B;}
	.st1{fill:#00A160;}
</style>
<g>
	<g>
		<path class="st0" d="M69,48.5v7.7h-2.1V39.5H69v7.1h9v-7.1h2.2v16.7H78v-7.7H69z"/>
		<path class="st0" d="M82.6,44.2h2v7.7c0,1.9,0.8,2.9,2.5,2.9c2.1,0,3.3-1.2,3.3-3.1v-7.4h1.9v12h-1.9v-1.6c-1,1.2-2.1,1.8-3.7,1.8
			c-2.6,0-4.1-1.7-4.1-4.4V44.2z"/>
		<path class="st0" d="M95,56.1c1.2,0.3,3,0.4,4.6,0.4c2.5,0,3.2-0.5,3.2-2.4V53c-0.9,1-2.1,1.5-3.6,1.5c-3,0-5-2.2-5-5.3
			c0-3.2,1.9-5.2,5.1-5.2c1.5,0,2.6,0.4,3.5,1.4v-1.2h1.9v10c0,1.8-0.4,2.7-1.6,3.4c-0.9,0.5-2,0.7-3.7,0.7c-1.4,0-2.8-0.1-4.5-0.4
			V56.1z M96.3,49.3c0,2.3,1.2,3.5,3.3,3.5c2.2,0,3.3-1.2,3.3-3.4c0-2.4-1.2-3.7-3.3-3.7c-2.1,0-3.2,1.3-3.2,3.5V49.3z"/>
		<path class="st0" d="M107.4,44.2h2v7.7c0,1.9,0.8,2.9,2.5,2.9c2.1,0,3.3-1.2,3.3-3.1v-7.4h1.9v12h-1.9v-1.6
			c-1,1.2-2.1,1.8-3.7,1.8c-2.6,0-4.1-1.7-4.1-4.4V44.2z"/>
		<path class="st0" d="M119.4,39.5h1.9v16.7h-1.9V39.5z"/>
		<path class="st0" d="M133.4,55.7c-1,0.4-2.4,0.7-3.8,0.7c-1.6,0-3.1-0.6-4.2-1.6c-1.2-1.2-1.8-2.6-1.8-4.6c0-3.8,2.2-6.2,5.5-6.2
			c3,0,5.1,2.2,5.1,5.3v1.6h-8.5c0,0.9,0.1,1.3,0.6,2c0.8,1.2,1.8,1.8,3.6,1.8c1.2,0,2.3-0.3,3.7-0.8V55.7z M125.6,49.3h6.6
			c-0.1-2.3-1.3-3.7-3.3-3.7C126.9,45.6,125.6,47,125.6,49.3z"/>
		<path class="st0" d="M154.9,48.5v7.7h-2.1V39.5h2.1v7.1h9v-7.1h2.2v16.7h-2.2v-7.7H154.9z"/>
		<path class="st0" d="M168,50.2c0-3.9,2.2-6.2,5.9-6.2c3.8,0,5.9,2.3,5.9,6.2c0,3.9-2.2,6.2-5.9,6.2C170.1,56.4,168,54.1,168,50.2z
			 M170,50.2c0,2.9,1.3,4.4,3.8,4.4c2.6,0,3.9-1.4,3.9-4.4c0-3-1.3-4.5-3.8-4.5C171.3,45.8,170,47.2,170,50.2z"/>
		<path class="st0" d="M181.3,53.4c1.4,0.7,2.9,1.2,4.2,1.2c1.3,0,2-0.5,2-1.5c0-0.9-0.2-1.1-1.8-1.8l-1.6-0.7
			c-2.1-0.9-2.8-1.6-2.8-3.2c0-2.3,1.5-3.5,4.3-3.5c1.2,0,2,0.2,3.5,0.6v2c-1.1-0.6-2.3-0.8-3.6-0.8c-1.6,0-2.1,0.4-2.1,1.5
			c0,0.8,0.3,1.1,1.3,1.5l2.2,1c1.9,0.8,2.6,1.7,2.6,3.2c0,2.1-1.7,3.4-4.2,3.4c-1.3,0-2.7-0.4-4-1V53.4z"/>
		<path class="st0" d="M204.7,41.4v-2h1.9v2H204.7z M204.7,44.2h1.9v12h-1.9V44.2z"/>
		<path class="st0" d="M208.4,44.2h1.5v-3.5h2v3.5h2.9v1.8h-2.9v7.4c0,0.8,0.4,1.1,1.3,1.1h1.6v1.8h-2.2c-2,0-2.7-0.7-2.7-2.9v-7.4
			h-1.5V44.2z"/>
		<path class="st0" d="M223.3,49.2v-1.3c0-1.4-0.9-2.1-2.7-2.1c-1.4,0-2.4,0.2-3.6,0.7v-1.8c1.3-0.5,2.4-0.7,3.7-0.7
			c3,0,4.6,1.3,4.6,3.8v4.9c0,1.7,0.1,2.1,0.8,2.9l-1.7,1c-0.4-0.7-0.7-0.8-1.3-0.8c-0.3,0-0.5,0-0.8,0.1l-1.1,0.3
			c-0.5,0.2-1.1,0.3-1.7,0.3c-2.3,0-3.7-1.4-3.7-3.6c0-1.1,0.5-2.1,1.2-2.7c0.7-0.6,1.5-0.8,2.9-0.8H223.3z M223.3,50.8h-2.9
			c-1.9,0-2.6,0.6-2.6,1.8c0,1.3,0.7,1.9,2.3,1.9c2.2,0,3.3-0.8,3.3-2.4V50.8z"/>
		<path class="st0" d="M227.8,39.5h1.9v16.7h-1.9V39.5z"/>
	</g>
	<g>
		<path class="st0" d="M68.2,70.7v4.6h-1.4V64.7h6.4V66h-5v3.5h4.3v1.3H68.2z"/>
		<path class="st0" d="M74.6,70c0-1.7,0.4-2.9,1.4-3.9c1-1.1,2.1-1.6,3.8-1.6c1.7,0,2.8,0.4,3.8,1.5c0.9,1,1.3,2.2,1.3,4
			c0,1.7-0.4,2.9-1.3,4c-1,1.1-2.1,1.6-3.8,1.6C78,75.5,77,75.1,76,74C75,73,74.6,71.8,74.6,70z M76,69.9c0,2.8,1.3,4.4,3.7,4.4
			c2.4,0,3.7-1.6,3.7-4.3c0-2.8-1.3-4.3-3.7-4.3C77.3,65.7,76,67.2,76,69.9z"/>
		<path class="st0" d="M88.4,71v4.3h-1.4V64.7h4.1c1.3,0,2,0.2,2.7,0.8c0.7,0.6,1,1.4,1,2.3c0,1.4-0.8,2.6-2.2,2.9l0.1,0.2
			c0.8,0.9,1.1,1.5,1.6,2.5c0.4,0.8,0.5,1.1,0.8,2h-1.4c-0.3-0.9-0.9-1.9-1.7-3.2c-0.4-0.5-0.5-0.7-0.8-1.1H88.4z M88.4,69.8h2.9
			c1.3,0,2-0.7,2-1.9c0-1.3-0.7-2-2-2h-3V69.8z"/>
		<path class="st0" d="M96,64.7h8.2V66h-3.4v9.4h-1.4l0-9.4H96V64.7z"/>
		<path class="st0" d="M108.4,64.7h1.4l2.7,8.1l2.6-8.1h1.1l2.7,8.1l2.7-8.1h1.3l-3.6,10.7h-1l-2.7-8.3l-2.8,8.3h-0.9L108.4,64.7z"
			/>
		<path class="st0" d="M123.6,70c0-1.7,0.4-2.9,1.4-3.9c1-1.1,2.1-1.6,3.8-1.6c1.7,0,2.8,0.4,3.8,1.5c0.9,1,1.3,2.2,1.3,4
			c0,1.7-0.4,2.9-1.3,4c-1,1.1-2.1,1.6-3.8,1.6c-1.7,0-2.8-0.4-3.7-1.5C124,73,123.6,71.8,123.6,70z M125.1,69.9
			c0,2.8,1.3,4.4,3.7,4.4c2.4,0,3.7-1.6,3.7-4.3c0-2.8-1.3-4.3-3.7-4.3C126.4,65.7,125.1,67.2,125.1,69.9z"/>
		<path class="st0" d="M137.5,71v4.3h-1.4V64.7h4.1c1.3,0,2,0.2,2.7,0.8c0.7,0.6,1,1.4,1,2.3c0,1.4-0.8,2.6-2.2,2.9l0.1,0.2
			c0.8,0.9,1.1,1.5,1.6,2.5c0.4,0.8,0.5,1.1,0.8,2h-1.4c-0.3-0.9-0.9-1.9-1.7-3.2c-0.4-0.5-0.5-0.7-0.8-1.1H137.5z M137.5,69.8h2.9
			c1.3,0,2-0.7,2-1.9c0-1.3-0.7-2-2-2h-3V69.8z"/>
		<path class="st0" d="M145.1,64.7h8.2V66h-3.4v9.4h-1.4l0-9.4h-3.4V64.7z"/>
		<path class="st0" d="M155.9,70.4v4.9h-1.4V64.7h1.4v4.5h5.8v-4.5h1.4v10.7h-1.4v-4.9H155.9z"/>
		<path class="st0" d="M168.4,73.2c0.7,0.4,1.6,0.8,2.3,0.9c0.4,0.1,0.8,0.2,1.2,0.2c1.3,0,2-0.5,2-1.6c0-0.8-0.3-1.2-1.1-1.6
			l-2.5-1.3c-1.1-0.5-1.5-0.9-1.7-1.6c-0.1-0.3-0.2-0.6-0.2-0.9c0-1.8,1.5-2.8,3.9-2.8c1,0,2,0.2,2.8,0.5v1.5
			c-0.9-0.5-1.9-0.7-2.9-0.7c-1.7,0-2.4,0.4-2.4,1.5c0,0.7,0.1,0.9,0.9,1.3l3,1.6c1.1,0.6,1.6,1.3,1.6,2.4c0,1.9-1.3,3.1-3.5,3.1
			c-1.2,0-2.2-0.2-3.4-0.9V73.2z"/>
		<path class="st0" d="M176.6,70c0-1.7,0.4-2.9,1.4-3.9c1-1.1,2.1-1.6,3.8-1.6c1.7,0,2.8,0.4,3.8,1.5c0.9,1,1.3,2.2,1.3,4
			c0,1.7-0.4,2.9-1.3,4c-1,1.1-2.1,1.6-3.8,1.6c-1.7,0-2.8-0.4-3.7-1.5C177,73,176.6,71.8,176.6,70z M178,69.9
			c0,2.8,1.3,4.4,3.7,4.4c2.4,0,3.7-1.6,3.7-4.3c0-2.8-1.3-4.3-3.7-4.3C179.3,65.7,178,67.2,178,69.9z"/>
		<path class="st0" d="M188.3,64.7h1.4v7.2c0,1.5,1.1,2.4,2.9,2.4s2.9-0.9,2.9-2.4v-7.2h1.3v7.1c0,1.3-0.3,2.1-1.1,2.8
			c-0.8,0.7-1.8,1-3.1,1c-1.3,0-2.2-0.3-3-0.9c-1-0.8-1.2-1.4-1.2-2.8V64.7z"/>
		<path class="st0" d="M198,64.7h8.2V66h-3.4v9.4h-1.4l0-9.4H198V64.7z"/>
		<path class="st0" d="M208.9,70.4v4.9h-1.4V64.7h1.4v4.5h5.8v-4.5h1.4v10.7h-1.4v-4.9H208.9z"/>
	</g>
	<g>
		<path class="st1" d="M22.1,52.9l-0.1-0.1l-0.1-0.1c-2.4-1-4.6-2.4-6.4-4.3C11,43.9,9,37.2,10.6,32.9c0.3-0.8,0.8-1.6,1.3-2.1
			c1.1-1.1,2.7-1.7,4.7-1.8c0,0,3.7,0,3.7,0h0.4v-4.2h-4.2c0,0-0.1,0-0.1,0l0,0c-4.8,0.2-8.2,2.6-9.8,6.7c-2.3,6,0.1,14.4,5.8,20.1
			c3.5,3.5,8.3,5.9,13,6.5l1.6,0.2l-1.3-1C24.2,56.1,23,54.6,22.1,52.9z M11.1,24.3l0.1-0.1l0.1-0.2c1-2.4,2.4-4.6,4.3-6.4
			c4.5-4.4,11.1-6.5,15.5-4.8c2.4,0.9,3.8,3,3.9,6.1c0,0,0,3.7,0,3.7V23h4.3v-4.3c-0.2-4.8-2.6-8.2-6.7-9.8
			c-6-2.3-14.4,0.1-20.1,5.8C9,18.2,6.6,23,6,27.7l-0.2,1.6l0.9-1.3C7.9,26.4,9.3,25.2,11.1,24.3z M55,38.2
			c-1.1,1.6-2.6,2.8-4.3,3.6l-0.1,0.1L50.5,42c-1,2.4-2.4,4.6-4.3,6.4C41.7,52.9,35,55,30.6,53.3c-2.4-0.9-3.8-3-4-6.1
			c0,0,0-3.7,0-3.7v-0.4h-4.3v0.4c0,3.9,0,3.9,0,3.9c0.2,4.7,2.6,8.2,6.7,9.8c6,2.3,14.4-0.1,20.1-5.8c3.5-3.5,6-8.3,6.5-13l0.2-1.6
			L55,38.2z M39.6,13.3l0.1,0.1l0.1,0.1c2.4,1,4.6,2.4,6.4,4.3c4.4,4.5,6.5,11.2,4.8,15.5c-0.3,0.8-0.8,1.5-1.3,2.1
			c-1.1,1.1-2.7,1.7-4.7,1.8c0,0-0.2,0-0.2,0l-3.5,0h-0.4v0.4l0,3.4v0.4h0.4l3.8,0c4.8-0.2,8.3-2.6,9.8-6.7c2.3-6-0.1-14.4-5.8-20.1
			c-3.5-3.5-8.3-6-13-6.5L34.7,8L36,9C37.5,10.1,38.8,11.5,39.6,13.3z"/>
		<g>
			<path class="st0" d="M28.2,24.7v4.2H45c1.8,0.1,3.3,0.6,4.4,1.6l0.7,0.6l0-0.9c0-1.4-0.2-2.9-0.7-4.4l-0.1-0.2l-0.2-0.1
				c-1.2-0.4-2.6-0.7-4-0.8c0,0-16.5,0-16.5,0H28.2z"/>
			<path class="st0" d="M34.9,48.6c-0.1,0.8-0.4,1.5-0.7,2.1c-0.2,0.3-0.4,0.6-0.6,0.9L33,52.3l0.9,0c1.4,0,2.9-0.2,4.4-0.7l0.2-0.1
				l0.1-0.2c0.4-1.2,0.7-2.6,0.8-4c0,0,0-16.5,0-16.5l0-0.4h-4.2v0.4l0,6.6V39v0l0,8.2C35.1,47.7,35,48.1,34.9,48.6
				C35,48.5,34.9,48.6,34.9,48.6z"/>
			<path class="st0" d="M26.6,35.3c0-13.1,0-16.1,0-16.3c0.1-1.9,0.6-3.3,1.5-4.4l0.6-0.7l-0.9,0c-1.4,0-2.9,0.2-4.4,0.7l-0.2,0.1
				l-0.1,0.2c-0.4,1.2-0.7,2.6-0.8,4c0,0,0,16.5,0,16.5v0.4h4.2V35.3z"/>
			<path class="st0" d="M12.4,40.7l0.2,0.1c1.2,0.4,2.6,0.7,4,0.8c0,0,16.5,0,16.5,0l0.4,0v-0.4l0-3.3l0-0.4h-0.4l-16.4,0
				c-1.8-0.1-3.3-0.6-4.4-1.6l-0.7-0.6l0,0.9c0,1.4,0.2,2.9,0.7,4.4L12.4,40.7z"/>
		</g>
	</g>
	<path class="st0" d="M193.5,59.4h-1.9V44.2h1.9v1.7c1-1.3,2.1-1.9,3.8-1.9c3.3,0,5.2,2.4,5.2,6.3c0,3.9-1.9,6.1-5.1,6.1
		c-1.6,0-2.7-0.5-3.9-1.7V59.4z M193.5,50.2c0,2.9,1.2,4.3,3.5,4.3c2.4,0,3.5-1.3,3.5-4.4c0-2.9-1.1-4.3-3.4-4.3
		C194.8,45.8,193.5,47.3,193.5,50.2z"/>
	<g>
		<path class="st0" d="M81.5,10.1v4.3h-6.1v18.9h-5.4V14.3h-5.9v-4.3H81.5z"/>
		<path class="st0" d="M93.8,29.1v3.6l-0.4,0.1l-1.3,0.4c-0.8,0.2-2.3,0.4-3.8,0.4c-6,0-9.4-3.2-9.4-8.9c0-5.2,3.1-8.4,8.2-8.4
			c2.4,0,4,0.7,5.4,2.3c1.4,1.6,1.7,2.9,1.7,6.1v1.5H84c0.1,2.4,1.8,3.5,5.2,3.5C91.2,29.7,92.1,29.6,93.8,29.1z M84,23.5h5.6v-0.9
			c0-1.7-1-2.7-2.7-2.7c-1.7,0-2.9,1.1-2.9,2.7V23.5z"/>
		<path class="st0" d="M95,16.6h5.7l3.1,4.9l3-4.9h5.5l-5.8,8.3l5.9,8.4h-5.8l-3.1-5l-3.1,5h-5.5l6-8.4L95,16.6z"/>
		<path class="st0" d="M114.5,17.7c1.7-0.9,4-1.4,6.1-1.4c1.8,0,3.3,0.3,4.6,0.9c1.7,0.8,2.3,1.8,2.3,3.7v7.8c0,1,0.3,1.6,1.2,2.5
			l-3.1,2.5c-0.1-0.1-0.2-0.2-0.3-0.2c-0.9-0.8-1.1-0.9-2.1-0.9c-0.5,0-0.9,0.1-1.6,0.3c-2,0.7-2.3,0.7-3.7,0.7c-3.1,0-5-1.8-5-4.8
			c0-3.2,2.5-5.1,6.6-5.1h1.5c1.2,0,1.8-0.5,1.8-1.6c0-1.4-0.8-1.9-2.7-1.9c-1.8,0-4.5,0.6-5.5,1.2V17.7z M122.8,26.5h-2.4
			c-1.6,0-2.4,0.6-2.4,1.8c0,1,0.7,1.7,1.9,1.7h0.9c1.3,0,1.9-0.7,1.9-2.1V26.5z"/>
		<path class="st0" d="M130.3,28.8c1.8,0.9,3.9,1.5,5.5,1.5c1.4,0,2.1-0.5,2.1-1.6c0-0.8-0.3-1.2-1.5-1.7l-2.3-1
			c-2.9-1.2-3.9-2.5-3.9-4.7c0-3.3,2.5-5,7.1-5c2.1,0,3.4,0.2,4.5,0.7v3.5c-1.3-0.6-2.7-0.9-4.3-0.9c-1.5,0-2.3,0.5-2.3,1.3
			c0,0.7,0.3,1,1.6,1.5l3,1.3c2.2,0.9,3.1,2.3,3.1,4.5c0,3.3-2.5,5.4-6.7,5.4c-2.3,0-4.4-0.4-5.8-1.1V28.8z"/>
		<path class="st0" d="M153.5,10.1h5.4v9.1h9.7v-9.1h5.5L174,33.3h-5.4v-10h-9.7v10h-5.4V10.1z"/>
		<path class="st0" d="M190.7,29.1v3.6l-0.4,0.1l-1.3,0.4c-0.8,0.2-2.3,0.4-3.8,0.4c-6,0-9.4-3.2-9.4-8.9c0-5.2,3.1-8.4,8.2-8.4
			c2.4,0,4,0.7,5.4,2.3c1.4,1.6,1.7,2.9,1.7,6.1v1.5h-10.3c0.1,2.4,1.8,3.5,5.2,3.5C188,29.7,188.9,29.6,190.7,29.1z M180.8,23.5
			h5.6v-0.9c0-1.7-1-2.7-2.7-2.7c-1.7,0-2.9,1.1-2.9,2.7V23.5z"/>
		<path class="st0" d="M194.4,17.7c1.7-0.9,4-1.4,6.1-1.4c1.8,0,3.3,0.3,4.6,0.9c1.7,0.8,2.3,1.8,2.3,3.7v7.8c0,1,0.3,1.6,1.2,2.5
			l-3.1,2.5c-0.1-0.1-0.2-0.2-0.3-0.2c-0.9-0.8-1.1-0.9-2.1-0.9c-0.5,0-0.9,0.1-1.6,0.3c-2,0.7-2.3,0.7-3.7,0.7c-3.1,0-5-1.8-5-4.8
			c0-3.2,2.5-5.1,6.6-5.1h1.5c1.2,0,1.8-0.5,1.8-1.6c0-1.4-0.8-1.9-2.7-1.9c-1.8,0-4.5,0.6-5.5,1.2V17.7z M202.7,26.5h-2.4
			c-1.6,0-2.4,0.6-2.4,1.8c0,1,0.7,1.7,1.9,1.7h0.9c1.3,0,1.9-0.7,1.9-2.1V26.5z"/>
		<path class="st0" d="M215.1,10.1l0,23.2h-4.8l0-23.2H215.1z"/>
		<path class="st0" d="M216.7,16.6h2.3v-5.1h4.8v5.1h3.7v2.9h-3.7v8.1c0,1.5,0.5,2,1.9,2h1.8v3.7h-4.2c-2.9,0-4.4-1.5-4.4-4.3v-9.5
			h-2.3V16.6z"/>
		<path class="st0" d="M234.3,18.5c1.9-1.7,3.1-2.2,5.1-2.2c3.3,0,5.3,1.8,5.3,4.8v12.1h-5V22.6c0-1.4-0.9-2.2-2.4-2.2
			c-1.8,0-3,1.1-3,3.1v9.9h-4.9V10.1h4.9V18.5z"/>
	</g>
	<path class="st0" d="M134.1,44.2h2.1L140,52l3.5-7.8h2.1l-6.9,15.2h-2l2.3-5.2L134.1,44.2z"/>
	<g>
		<path class="st0" d="M234,40.2c-0.4-0.2-0.7-0.3-1.2-0.3c-0.6,0-0.8,0.1-0.8,0.5c0,0.4,0.4,0.5,1.1,0.6c0.8,0.2,1.2,0.4,1.2,1.1
			c0,0.8-0.5,1.2-1.6,1.2c-0.5,0-1-0.1-1.3-0.2c0-0.3,0-0.6-0.1-0.8c0.4,0.3,0.9,0.4,1.4,0.4c0.6,0,0.9-0.2,0.9-0.6
			c0-0.4-0.3-0.4-0.8-0.5c-0.4-0.1-0.8-0.2-1.1-0.4c-0.3-0.2-0.4-0.5-0.4-0.8c0-0.7,0.6-1.1,1.6-1.1c0.4,0,0.7,0.1,1.1,0.2
			C233.9,39.7,234,40,234,40.2z"/>
		<path class="st0" d="M235.8,39.4l1.6,2.9l1.5-2.9h0.8v3.8H239l0-2.7l-1.5,2.7h-0.3l-1.5-2.7l0,2.7H235v-3.8H235.8z"/>
	</g>
</g>
</svg>
