<?xml version="1.0" encoding="UTF-8"?>
<svg width="70px" height="64px" viewBox="0 0 70 64" version="1.1" xmlns="http://www.w3.org/2000/svg" xmlns:xlink="http://www.w3.org/1999/xlink">
    <!-- Generator: Sketch 51.2 (57519) - http://www.bohemiancoding.com/sketch -->
    <title>Icon / 70 x 64 / Avatars</title>
    <desc>Created with Sketch.</desc>
    <defs></defs>
    <g id="Icon-/-70-x-64-/-Avatars" stroke="none" stroke-width="1" fill="none" fill-rule="evenodd">
        <g id="avatarIcon2-33" transform="translate(2.000000, 11.000000)" fill-rule="nonzero">
            <g id="Group" transform="translate(0.000000, 3.000000)">
                <path d="M15.946875,21.3652174 C15.946875,21.3652174 15.946875,23.2304348 15.946875,23.5695652 C20.503125,24.3326087 24.384375,27.4695652 26.071875,31.7086957 C26.6625,33.2347826 25.9875,34.9304348 24.46875,35.6086957 C21.6,36.7956522 17.8875,37.5586957 13.753125,37.5586957 C9.703125,37.5586957 5.90625,36.7956522 3.0375,35.6086957 C1.51875,34.9304348 0.84375,33.2347826 1.434375,31.7086957 C3.121875,27.4695652 6.91875,24.3326087 11.559375,23.5695652 L11.559375,21.3652174 L15.946875,21.3652174 Z" id="Shape" fill="#FFF5E5"></path>
                <path d="M15.946875,21.3652174 C15.946875,21.3652174 15.946875,23.2304348 15.946875,23.5695652 C20.503125,24.3326087 24.384375,27.4695652 26.071875,31.7086957 C26.6625,33.2347826 25.9875,34.9304348 24.46875,35.6086957 C21.6,36.7956522 17.8875,37.5586957 13.753125,37.5586957 C9.703125,37.5586957 5.90625,36.7956522 3.0375,35.6086957 C1.51875,34.9304348 0.84375,33.2347826 1.434375,31.7086957 C3.121875,27.4695652 6.91875,24.3326087 11.559375,23.5695652 L11.559375,21.3652174 L15.946875,21.3652174 Z" id="Shape" fill="#9DDE6E"></path>
                <path d="M13.66875,38.2369565 C9.61875,38.2369565 5.7375,37.5586957 2.7,36.2021739 C0.84375,35.4391304 -5.55111512e-16,33.3195652 0.759375,31.4543478 C2.446875,27.1304348 6.328125,23.9086957 10.8,22.976087 L10.8,21.3652174 C10.8,21.026087 11.053125,20.6869565 11.475,20.6869565 L15.946875,20.6869565 C16.284375,20.6869565 16.621875,20.9413043 16.621875,21.3652174 L16.621875,22.976087 C21.09375,23.9086957 24.975,27.1304348 26.6625,31.4543478 C27.421875,33.3195652 26.49375,35.4391304 24.721875,36.2021739 C21.6,37.5586957 17.71875,38.2369565 13.66875,38.2369565 Z M12.15,22.0434783 L12.15,23.5695652 C12.15,23.9086957 11.896875,24.1630435 11.64375,24.2478261 C7.340625,25.0108696 3.7125,27.9782609 2.025,32.0478261 C1.51875,33.2347826 2.109375,34.5913043 3.290625,35.1 C6.159375,36.3717391 9.871875,37.05 13.753125,37.05 C17.634375,37.05 21.346875,36.3717391 24.215625,35.1 C25.396875,34.5913043 25.9875,33.2347826 25.48125,32.0478261 C23.878125,27.9782609 20.165625,25.0108696 15.8625,24.2478261 C15.525,24.1630435 15.271875,23.9086957 15.35625,23.5695652 L15.35625,22.0434783 L12.15,22.0434783 Z" id="Shape" fill="#333333"></path>
                <path d="M13.66875,38.2369565 C9.61875,38.2369565 5.7375,37.5586957 2.7,36.2021739 C0.84375,35.4391304 -1.38777878e-15,33.3195652 0.759375,31.4543478 C2.86875,26.1130435 7.93125,22.7217391 13.66875,22.7217391 C19.40625,22.7217391 24.46875,26.1978261 26.578125,31.5391304 C27.3375,33.4043478 26.409375,35.523913 24.6375,36.2869565 C21.6,37.5586957 17.71875,38.2369565 13.66875,38.2369565 Z M13.66875,24.0782609 C8.521875,24.0782609 3.88125,27.2152174 1.940625,32.0478261 C1.434375,33.2347826 2.025,34.5913043 3.20625,35.1 C6.075,36.3717391 9.7875,37.05 13.66875,37.05 C17.55,37.05 21.2625,36.3717391 24.13125,35.1 C25.3125,34.5913043 25.903125,33.2347826 25.396875,32.0478261 C23.45625,27.1304348 18.9,24.0782609 13.66875,24.0782609 Z" id="Shape" fill="#333333"></path>
                <path d="M18.646875,37.7282609 C18.309375,37.7282609 17.971875,37.473913 17.971875,37.05 L17.971875,24.6717391 C17.971875,24.3326087 18.225,23.9934783 18.646875,23.9934783 C18.984375,23.9934783 19.321875,24.2478261 19.321875,24.6717391 L19.321875,37.05 C19.321875,37.473913 19.06875,37.7282609 18.646875,37.7282609 Z" id="Shape" fill="#333333"></path>
                <path d="M8.690625,37.7282609 C8.353125,37.7282609 8.015625,37.473913 8.015625,37.05 L8.015625,24.6717391 C8.015625,24.3326087 8.26875,23.9934783 8.690625,23.9934783 C9.1125,23.9934783 9.365625,24.2478261 9.365625,24.6717391 L9.365625,37.05 C9.365625,37.473913 9.028125,37.7282609 8.690625,37.7282609 Z" id="Shape" fill="#333333"></path>
                <path d="M17.55,35.8630435 C17.2125,35.8630435 16.959375,35.6086957 16.875,35.2695652 C16.790625,34.9304348 17.04375,34.5913043 17.38125,34.5065217 L19.490625,34.1673913 C19.828125,34.0826087 20.165625,34.3369565 20.25,34.676087 C20.334375,35.0152174 20.08125,35.3543478 19.74375,35.4391304 L17.71875,35.8630435 C17.634375,35.8630435 17.634375,35.8630435 17.55,35.8630435 Z" id="Shape" fill="#333333"></path>
                <path d="M9.703125,35.8630435 C9.703125,35.8630435 9.61875,35.8630435 9.61875,35.8630435 L7.509375,35.523913 C7.171875,35.4391304 6.91875,35.1 7.003125,34.7608696 C7.0875,34.4217391 7.425,34.1673913 7.7625,34.2521739 L9.871875,34.5913043 C10.209375,34.676087 10.4625,35.0152174 10.378125,35.3543478 C10.29375,35.6086957 10.040625,35.8630435 9.703125,35.8630435 Z" id="Shape" fill="#333333"></path>
                <path d="M15.946875,21.7043478 C15.946875,21.7043478 15.946875,25.0108696 15.946875,25.35 C15.946875,25.6891304 15.778125,25.9434783 15.609375,26.1978261 C14.68125,27.3847826 12.825,27.3847826 11.896875,26.1978261 C11.728125,25.9434783 11.559375,25.6043478 11.559375,25.35 L11.559375,21.7043478" id="Shape" fill="#FFF5E5"></path>
                <path d="M13.66875,27.8086957 C13.66875,27.8086957 13.66875,27.8086957 13.66875,27.8086957 C12.740625,27.8086957 11.896875,27.3847826 11.30625,26.6217391 C10.96875,26.1978261 10.8,25.773913 10.8,25.35 L10.8,21.7043478 C10.8,21.3652174 11.053125,21.026087 11.475,21.026087 C11.8125,21.026087 12.15,21.2804348 12.15,21.7043478 L12.15,25.35 C12.15,25.5195652 12.234375,25.6891304 12.31875,25.773913 C12.65625,26.1978261 13.078125,26.3673913 13.66875,26.4521739 C13.66875,26.4521739 13.66875,26.4521739 13.66875,26.4521739 C14.175,26.4521739 14.68125,26.1978261 15.01875,25.773913 C15.1875,25.6043478 15.271875,25.4347826 15.271875,25.35 L15.271875,21.7043478 C15.271875,21.3652174 15.525,21.026087 15.946875,21.026087 C16.36875,21.026087 16.621875,21.2804348 16.621875,21.7043478 L16.621875,25.35 C16.621875,25.773913 16.453125,26.1978261 16.115625,26.6217391 C15.440625,27.3847826 14.596875,27.8086957 13.66875,27.8086957 Z" id="Shape" fill="#333333"></path>
                <path d="M23.79375,13.7347826 C23.540625,18.3978261 19.74375,22.0434783 15.103125,22.2130435 C14.68125,22.2130435 14.259375,22.2130435 13.753125,22.2130435 C13.246875,22.2130435 12.825,22.2130435 12.31875,22.2130435 C7.59375,22.1282609 3.7125,18.3130435 3.54375,13.4804348 C3.54375,13.226087 3.54375,13.0565217 3.54375,12.8021739 C3.54375,12.2934783 3.54375,12.0391304 3.54375,11.7847826 C3.54375,11.276087 3.54375,10.8521739 3.54375,10.6826087 C3.628125,8.7326087 3.375,5.76521739 3.796875,4.40869565 C5.23125,-1.88737914e-15 18.140625,-0.254347826 19.828125,2.9673913 C20.334375,3.9 20.25,4.40869565 20.25,4.40869565 C20.25,4.40869565 21.2625,3.64565217 21.9375,4.06956522 C24.13125,5.42608696 23.79375,11.276087 23.79375,12.0391304 C23.878125,12.6326087 23.79375,13.226087 23.79375,13.7347826 Z" id="Shape" fill="#EBF2F3"></path>
                <path d="M13.584375,22.8913043 C13.1625,22.8913043 12.740625,22.8913043 12.31875,22.8913043 C7.25625,22.7217391 3.121875,18.6521739 2.86875,13.4804348 C2.86875,13.226087 2.86875,12.9717391 2.86875,12.8021739 C2.86875,12.2934783 2.86875,12.0391304 2.86875,11.7 C2.86875,11.1913043 2.86875,10.7673913 2.86875,10.5978261 C2.86875,9.91956522 2.86875,9.15652174 2.86875,8.39347826 C2.86875,6.7826087 2.86875,5.17173913 3.121875,4.15434783 C4.21875,0.932608696 9.61875,0.254347826 11.221875,0.169565217 C14.85,-0.0847826087 19.2375,0.508695652 20.334375,2.62826087 C20.503125,2.8826087 20.5875,3.13695652 20.671875,3.39130435 C21.178125,3.22173913 21.684375,3.13695652 22.275,3.47608696 C23.878125,4.40869565 24.553125,7.20652174 24.46875,11.7847826 L24.46875,12.0391304 C24.46875,12.6326087 24.46875,13.226087 24.384375,13.7347826 C24.13125,18.7369565 20.08125,22.7217391 15.01875,22.8913043 C14.596875,22.8913043 14.090625,22.8913043 13.66875,22.8913043 C13.66875,22.8913043 13.66875,22.8913043 13.584375,22.8913043 Z M13.078125,1.44130435 C12.571875,1.44130435 11.98125,1.44130435 11.475,1.52608696 C7.7625,1.78043478 4.978125,3.05217391 4.471875,4.66304348 C4.21875,5.34130435 4.21875,6.95217391 4.21875,8.39347826 C4.21875,9.24130435 4.21875,10.0043478 4.21875,10.6826087 C4.21875,10.8521739 4.21875,11.1913043 4.21875,11.7 C4.21875,11.9543478 4.21875,12.2086957 4.21875,12.7173913 C4.21875,12.9717391 4.21875,13.1413043 4.21875,13.3956522 C4.3875,17.8043478 7.93125,21.3652174 12.403125,21.5347826 C12.825,21.5347826 13.33125,21.5347826 13.753125,21.5347826 C14.175,21.5347826 14.68125,21.5347826 15.103125,21.5347826 C19.490625,21.3652174 22.95,17.973913 23.203125,13.65 C23.203125,13.65 23.203125,13.65 23.203125,13.65 C23.203125,13.1413043 23.2875,12.5478261 23.2875,11.9543478 L23.2875,11.7 C23.45625,6.35869565 22.359375,4.9173913 21.76875,4.57826087 C21.515625,4.40869565 21.009375,4.66304348 20.75625,4.8326087 C20.5875,5.00217391 20.25,5.00217391 20.08125,4.8326087 C19.828125,4.66304348 19.74375,4.49347826 19.74375,4.23913043 C19.74375,4.23913043 19.74375,4.23913043 19.74375,4.23913043 C19.74375,4.23913043 19.74375,3.81521739 19.40625,3.13695652 C18.73125,2.11956522 16.115625,1.44130435 13.078125,1.44130435 Z" id="Shape" fill="#333333"></path>
                <path d="M21.684375,12.4630435 C21.684375,12.6326087 21.684375,12.7173913 21.684375,12.8869565 C21.684375,13.4804348 21.515625,15.9391304 19.74375,17.4652174 C19.40625,17.7195652 18.815625,18.1434783 17.8875,18.4826087 C17.803125,17.2956522 16.790625,16.3630435 15.525,16.3630435 L12.234375,16.3630435 C10.96875,16.3630435 9.871875,17.4652174 9.871875,18.7369565 C8.94375,18.7369565 8.353125,18.4826087 8.015625,18.2282609 C5.4,16.7869565 5.653125,12.5478261 5.653125,11.7847826 C5.7375,10.6826087 5.990625,9.75 6.075,9.58043478 C6.24375,9.15652174 6.328125,8.8173913 6.58125,8.47826087 C6.91875,8.05434783 7.425,7.63043478 8.353125,7.37608696 C11.559375,6.44347826 18.309375,7.12173913 18.309375,7.12173913 L19.659375,5.85 L20.165625,7.8 C20.75625,8.22391304 21.009375,8.7326087 21.178125,9.07173913 C21.684375,10.0891304 21.684375,11.1913043 21.684375,12.4630435 Z" id="Shape" fill="#FFF5E5"></path>
                <path d="M9.871875,19.3304348 C9.871875,19.3304348 9.871875,19.3304348 9.871875,19.3304348 C9.028125,19.3304348 8.353125,19.1608696 7.678125,18.8217391 C5.146875,17.3804348 4.89375,13.8195652 4.978125,11.7847826 C5.0625,10.5130435 5.4,9.41086957 5.484375,9.41086957 L5.56875,9.24130435 C5.7375,8.90217391 5.821875,8.47826087 6.075,8.13913043 C6.58125,7.54565217 7.25625,7.03695652 8.184375,6.7826087 C11.1375,5.93478261 16.70625,6.35869565 18.140625,6.44347826 L19.2375,5.34130435 C19.40625,5.17173913 19.659375,5.08695652 19.9125,5.17173913 C20.165625,5.25652174 20.334375,5.42608696 20.334375,5.68043478 L20.75625,7.46086957 C21.178125,7.8 21.515625,8.30869565 21.76875,8.7326087 C22.359375,9.91956522 22.359375,11.1065217 22.359375,12.4630435 L21.684375,12.4630435 L22.359375,12.4630435 C22.359375,12.6326087 22.359375,12.8021739 22.359375,12.9717391 C22.190625,15.7695652 21.09375,17.2108696 20.165625,18.0586957 C19.575,18.5673913 18.9,18.9065217 18.05625,19.1608696 C17.8875,19.2456522 17.634375,19.1608696 17.465625,19.076087 C17.296875,18.9913043 17.2125,18.8217391 17.2125,18.5673913 C17.128125,17.7195652 16.36875,17.0413043 15.525,17.0413043 L12.234375,17.0413043 C11.30625,17.0413043 10.546875,17.8043478 10.546875,18.7369565 C10.546875,18.9065217 10.4625,19.076087 10.378125,19.2456522 C10.209375,19.3304348 10.040625,19.3304348 9.871875,19.3304348 Z M13.246875,7.63043478 C11.559375,7.63043478 9.703125,7.71521739 8.521875,8.13913043 C7.846875,8.30869565 7.425,8.64782609 7.0875,8.98695652 C6.91875,9.15652174 6.834375,9.41086957 6.75,9.75 L6.75,9.83478261 C6.75,9.83478261 6.4125,10.7673913 6.328125,11.8695652 C6.24375,13.226087 6.328125,16.5326087 8.353125,17.7195652 C8.60625,17.8891304 8.94375,17.973913 9.28125,18.0586957 C9.61875,16.7021739 10.8,15.7695652 12.234375,15.7695652 L15.525,15.7695652 C16.790625,15.7695652 17.8875,16.5326087 18.309375,17.7195652 C18.646875,17.55 18.984375,17.3804348 19.321875,17.126087 C20.08125,16.5326087 20.925,15.2608696 21.009375,12.9717391 C21.009375,12.8021739 21.009375,12.7173913 21.009375,12.5478261 C21.009375,12.5478261 21.009375,12.5478261 21.009375,12.5478261 C21.009375,11.276087 21.009375,10.3434783 20.5875,9.49565217 C20.41875,9.15652174 20.08125,8.7326087 19.74375,8.47826087 C19.659375,8.39347826 19.575,8.22391304 19.490625,8.13913043 L19.321875,7.29130435 L18.815625,7.63043478 C18.646875,7.8 18.478125,7.8 18.309375,7.8 C18.225,7.8 15.8625,7.63043478 13.246875,7.63043478 Z" id="Shape" fill="#333333"></path>
                <path d="M15.8625,18.3130435 C15.8625,18.3978261 15.8625,18.3978261 15.8625,18.3130435 C15.8625,19.5847826 14.934375,20.5173913 13.753125,20.5173913 C12.571875,20.5173913 11.64375,19.5847826 11.64375,18.3978261 C11.64375,18.3978261 11.64375,18.3978261 11.64375,18.3130435 C11.64375,18.3130435 11.64375,18.3130435 11.64375,18.3130435 C11.64375,18.2282609 11.728125,18.2282609 11.728125,18.2282609 L15.778125,18.2282609 C15.778125,18.2282609 15.8625,18.2282609 15.8625,18.3130435 Z" id="Shape" fill="#333333"></path>
                <path d="M9.95625,14.1586957 C9.95625,14.6673913 9.534375,15.0913043 9.028125,15.0913043 C8.521875,15.0913043 8.1,14.6673913 8.1,14.1586957 C8.1,13.65 8.521875,13.226087 9.028125,13.226087 C9.534375,13.226087 9.95625,13.65 9.95625,14.1586957 Z" id="Shape" fill="#333333"></path>
                <path d="M19.2375,14.1586957 C19.2375,14.6673913 18.815625,15.0913043 18.309375,15.0913043 C17.803125,15.0913043 17.38125,14.6673913 17.38125,14.1586957 C17.38125,13.65 17.803125,13.226087 18.309375,13.226087 C18.815625,13.226087 19.2375,13.65 19.2375,14.1586957 Z" id="Shape" fill="#333333"></path>
            </g>
            <g id="Group" transform="translate(33.000000, 0.000000)">
                <path d="M26.4,38.808 C24.1153846,39.732 21.2384615,40.404 18.1076923,40.572 C17.8538462,40.572 17.6,40.572 17.3461538,40.572 C17.0076923,40.572 16.7538462,40.572 16.4153846,40.572 C16.0769231,40.572 15.7384615,40.572 15.4,40.572 C15.1461538,40.572 14.8076923,40.572 14.5538462,40.488 C11.4230769,40.32 8.63076923,39.648 6.34615385,38.724 C4.90769231,38.136 4.23076923,36.54 4.82307692,35.112 C6.26153846,31.668 9.13846154,28.98 12.7769231,27.888 C13.8769231,27.552 15.0615385,27.384 16.3307692,27.384 C17.5153846,27.384 18.7,27.552 19.8,27.888 C23.4384615,28.98 26.4,31.668 27.8384615,35.112 C28.5153846,36.624 27.8384615,38.22 26.4,38.808 Z" id="Shape" fill="#EBF2F3"></path>
                <path d="M16.4153846,41.244 C16.0769231,41.244 15.7384615,41.244 15.4,41.244 C15.1461538,41.244 14.8076923,41.244 14.5538462,41.16 C11.4230769,40.992 8.54615385,40.32 6.17692308,39.396 C4.48461538,38.64 3.63846154,36.708 4.31538462,35.028 C5.75384615,31.416 8.88461538,28.56 12.6923077,27.468 C15.0615385,26.796 17.6846154,26.796 20.0538462,27.468 C23.8615385,28.56 26.9923077,31.416 28.4307692,35.028 C29.1076923,36.708 28.2615385,38.724 26.5692308,39.396 C26.5692308,39.396 26.5692308,39.396 26.5692308,39.396 C24.2,40.404 21.2384615,40.992 18.1076923,41.244 C17.8538462,41.244 17.6,41.244 17.3461538,41.244 C17.0923077,41.244 16.7538462,41.244 16.4153846,41.244 Z M16.4153846,28.14 C15.2307692,28.14 14.1307692,28.308 13.0307692,28.644 C9.64615385,29.652 6.76923077,32.172 5.41538462,35.532 C4.99230769,36.624 5.5,37.884 6.6,38.304 C8.88461538,39.228 11.5923077,39.816 14.5538462,39.984 C14.8076923,39.984 15.0615385,39.984 15.4,40.068 C15.9923077,40.068 16.6692308,40.068 17.2615385,40.068 C17.5153846,40.068 17.7692308,40.068 18.0230769,40.068 C21.0692308,39.9 23.8615385,39.312 26.0615385,38.388 C27.1615385,37.968 27.6692308,36.708 27.2461538,35.616 C25.8923077,32.34 23.1,29.736 19.6307692,28.728 C18.7,28.308 17.5153846,28.14 16.4153846,28.14 Z" id="Shape" fill="#333333"></path>
                <path d="M19.8846154,40.404 C19.1230769,40.488 18.2769231,40.572 17.3461538,40.572 C17.0076923,40.572 16.7538462,40.572 16.4153846,40.572 C16.0769231,40.572 15.7384615,40.572 15.4,40.572 C14.4692308,40.572 13.6230769,40.488 12.8615385,40.404 C12.2692308,39.312 10.9153846,36.54 11.2538462,32.928 C11.5076923,30.66 12.2692308,28.98 12.8615385,27.972 C13.9615385,27.636 15.1461538,27.468 16.4153846,27.468 C17.6,27.468 18.7846154,27.636 19.8846154,27.972 C20.4769231,28.98 21.2384615,30.66 21.4923077,32.928 C21.8307692,36.54 20.5615385,39.312 19.8846154,40.404 Z" id="Shape" fill="#00BCD3"></path>
                <path d="M16.4153846,41.244 C16.0769231,41.244 15.7384615,41.244 15.4,41.244 C14.5538462,41.244 13.6230769,41.16 12.7769231,41.076 C12.6076923,41.076 12.4384615,40.908 12.3538462,40.74 C11.4230769,39.06 10.4076923,36.288 10.6615385,32.928 C10.8307692,31.08 11.4230769,29.4 12.2692308,27.72 C12.3538462,27.552 12.4384615,27.468 12.6076923,27.468 C14.9769231,26.796 17.6,26.796 19.9692308,27.468 C20.1384615,27.552 20.2230769,27.636 20.3076923,27.72 C21.2384615,29.316 21.7461538,31.08 21.9153846,32.928 C22.2538462,36.288 21.2384615,39.06 20.2230769,40.74 C20.1384615,40.908 19.9692308,40.992 19.8,41.076 C18.9538462,41.16 18.1076923,41.244 17.1769231,41.244 C17.0923077,41.244 16.7538462,41.244 16.4153846,41.244 Z M13.2846154,39.816 C13.9615385,39.9 14.7230769,39.984 15.4846154,39.984 C16.0769231,39.984 16.7538462,39.984 17.3461538,39.984 C18.1076923,39.984 18.8692308,39.9 19.5461538,39.816 C20.3923077,38.304 21.1538462,35.868 20.9,33.012 C20.7307692,31.416 20.3076923,29.904 19.5461538,28.476 C17.5153846,27.972 15.3153846,27.972 13.3692308,28.476 C12.6076923,29.904 12.1846154,31.416 12.0153846,33.012 C11.6769231,35.952 12.4384615,38.304 13.2846154,39.816 Z" id="Shape" fill="#333333"></path>
                <path d="M18.5307692,24.612 C18.5307692,24.612 18.5307692,27.636 18.5307692,27.972 C18.5307692,29.064 16.4153846,30.072 16.4153846,30.072 C16.4153846,30.072 14.3,29.148 14.3,27.972 L14.3,24.612" id="Shape" fill="#D8AB93"></path>
                <path d="M16.4153846,30.66 C16.3307692,30.66 16.2461538,30.66 16.1615385,30.576 C15.7384615,30.408 13.7076923,29.4 13.7076923,27.972 L13.7076923,24.612 C13.7076923,24.276 13.9615385,24.024 14.3,24.024 C14.6384615,24.024 14.8923077,24.276 14.8923077,24.612 L14.8923077,27.972 C14.8923077,28.392 15.6538462,28.98 16.3307692,29.316 C17.0923077,28.896 17.7692308,28.308 17.7692308,27.972 L17.7692308,24.612 C17.7692308,24.276 18.0230769,24.024 18.3615385,24.024 C18.7,24.024 18.9538462,24.276 18.9538462,24.612 L18.9538462,27.972 C18.9538462,29.4 16.9230769,30.408 16.5,30.576 C16.5846154,30.66 16.5,30.66 16.4153846,30.66 Z" id="Shape" fill="#333333"></path>
                <path d="M25.8923077,15.624 C25.8923077,15.708 25.8923077,15.792 25.8923077,15.96 C25.8923077,16.464 25.8923077,16.968 25.8076923,17.556 C25.6384615,21.84 22.0846154,25.2 17.7692308,25.368 C17.3461538,25.368 16.9230769,25.368 16.5,25.368 C16.0769231,25.368 15.6538462,25.368 15.2307692,25.368 C10.7461538,25.284 7.19230769,21.672 7.02307692,17.304 C7.02307692,17.052 7.02307692,16.884 7.02307692,16.632 C7.02307692,15.708 7.02307692,15.54 7.02307692,14.7 C7.19230769,10.248 10.8307692,6.72 15.3153846,6.636 C15.5692308,6.552 20.4769231,5.712 23.7769231,9.24 C26.0615385,11.76 25.9769231,14.952 25.8923077,15.624 Z" id="Shape" fill="#D8AB93"></path>
                <path d="M16.3307692,26.04 C15.9076923,26.04 15.5692308,26.04 15.2307692,26.04 C10.4923077,25.872 6.6,22.092 6.43076923,17.388 C6.43076923,17.136 6.43076923,16.968 6.43076923,16.716 C6.43076923,16.212 6.43076923,15.96 6.43076923,15.708 C6.43076923,15.372 6.68461538,15.12 7.02307692,15.12 C7.02307692,15.12 7.02307692,15.12 7.02307692,15.12 C7.36153846,15.12 7.61538462,15.372 7.61538462,15.708 C7.61538462,15.96 7.61538462,16.212 7.61538462,16.716 C7.61538462,16.968 7.61538462,17.136 7.61538462,17.388 C7.78461538,21.504 11.0846154,24.78 15.2307692,24.864 C15.6538462,24.864 16.0769231,24.864 16.5,24.864 C16.9230769,24.864 17.3461538,24.864 17.7692308,24.864 C21.8307692,24.696 25.1307692,21.588 25.3,17.556 C25.3,17.052 25.3846154,16.548 25.3846154,16.044 L25.3846154,15.708 C25.3846154,15.372 25.6384615,15.12 25.9769231,15.12 C26.3153846,15.12 26.5692308,15.372 26.5692308,15.708 L26.5692308,16.044 C26.5692308,16.548 26.5692308,17.136 26.4846154,17.64 C26.2307692,22.26 22.5076923,25.872 17.7692308,26.04 C17.3461538,26.04 16.9230769,26.04 16.5,26.04 C16.4153846,26.04 16.3307692,26.04 16.3307692,26.04 Z" id="Shape" fill="#333333"></path>
                <path d="M18.4461538,21.756 C18.4461538,21.756 18.4461538,21.84 18.4461538,21.756 C18.4461538,22.932 17.5153846,23.772 16.5,23.772 C15.4,23.772 14.4692308,22.848 14.4692308,21.756 C14.4692308,21.756 14.4692308,21.756 14.4692308,21.672 C14.4692308,21.672 14.4692308,21.672 14.4692308,21.672 C14.4692308,21.588 14.5538462,21.588 14.5538462,21.588 L18.2769231,21.588 C18.3615385,21.672 18.4461538,21.672 18.4461538,21.756 Z" id="Shape" fill="#333333"></path>
                <path d="M12.5230769,18.732 C12.5230769,19.152 12.1846154,19.572 11.6769231,19.572 C11.1692308,19.572 10.8307692,19.236 10.8307692,18.732 C10.8307692,18.312 11.1692308,17.892 11.6769231,17.892 C12.1846154,17.892 12.5230769,18.228 12.5230769,18.732 Z" id="Shape" fill="#333333"></path>
                <path d="M22,18.732 C22,19.152 21.6615385,19.572 21.1538462,19.572 C20.7307692,19.572 20.3076923,19.236 20.3076923,18.732 C20.3076923,18.312 20.6461538,17.892 21.1538462,17.892 C21.6615385,17.892 22,18.228 22,18.732 Z" id="Shape" fill="#333333"></path>
                <path d="M25.8923077,15.624 C25.4692308,15.624 24.7923077,15.54 24.1153846,15.12 C22.4230769,14.196 22.0846154,12.348 22.0846154,12.012 C22.0846154,12.012 22.0846154,12.012 22.0846154,12.012 C22,11.508 21.4923077,11.256 21.0692308,11.592 C20.2230769,12.18 19.2076923,12.516 18.1923077,12.516 C16.1615385,12.516 14.3846154,11.256 13.4538462,9.492 C13.4538462,11.088 11.7615385,12.432 9.64615385,12.432 C8.96923077,12.432 8.37692308,12.936 8.29230769,13.608 C8.29230769,13.692 8.29230769,13.776 8.29230769,13.86 C8.12307692,14.616 7.61538462,15.372 6.93846154,15.624 C6.85384615,16.296 6.76923077,17.052 6.93846154,18.144 C7.19230769,19.404 7.61538462,20.412 7.95384615,21 C7.95384615,21 7.95384615,21.084 7.95384615,21.084 C7.7,21.672 7.19230769,22.092 6.6,22.26 C5.33076923,22.512 4.14615385,21.672 4.14615385,20.496 C3.80769231,20.58 3.46923077,20.664 3.13076923,20.664 C2.28461538,20.58 1.52307692,19.908 1.35384615,19.068 C1.18461538,17.892 2.03076923,16.884 3.21538462,16.884 C2.96153846,16.38 2.87692308,15.708 3.21538462,15.036 C3.46923077,14.616 3.89230769,14.28 4.4,14.112 C4.4,14.028 4.31538462,13.944 4.31538462,13.776 C4.23076923,13.524 4.31538462,13.356 4.31538462,13.272 C4.48461538,12.348 5.33076923,11.592 6.26153846,11.592 C6.6,11.592 5.83846154,10.416 5.83846154,9.576 C5.83846154,7.98 7.44615385,6.72 9.39230769,6.636 C9.39230769,6.552 9.39230769,6.468 9.39230769,6.384 C9.39230769,4.956 10.5769231,3.864 12.1,3.864 C12.6076923,3.864 13.1153846,4.032 13.5384615,4.284 C14.4692308,2.604 16.1615385,1.512 18.1076923,1.512 C21.0692308,1.512 23.4384615,4.032 23.4384615,7.056 C23.4384615,7.14 23.4384615,7.224 23.4384615,7.224 C23.9461538,6.972 24.4538462,6.888 24.9615385,6.888 C26.9923077,6.888 28.6,8.568 28.6,10.584 C28.6,11.172 28.4307692,11.76 28.1769231,12.264 C30.2923077,12.516 31.8153846,14.112 31.8153846,15.96 C31.8153846,17.388 30.8846154,18.564 29.5307692,19.236 C29.1923077,20.748 28.0076923,21.84 26.6538462,21.84 C25.9769231,21.84 25.3,21.588 24.8769231,21.168 C25.1307692,20.58 25.4692308,19.824 25.7230769,18.816 C25.9769231,17.388 25.9769231,16.38 25.8923077,15.624 Z" id="Shape" fill="#B25828"></path>
                <path d="M6.09230769,22.932 C5.5,22.932 4.90769231,22.764 4.48461538,22.428 C4.06153846,22.092 3.80769231,21.672 3.63846154,21.252 C3.46923077,21.252 3.21538462,21.252 3.04615385,21.252 C1.86153846,21.084 0.930769231,20.244 0.761538462,19.068 C0.676923077,18.312 0.846153846,17.64 1.26923077,17.136 C1.52307692,16.8 1.94615385,16.548 2.36923077,16.38 C2.28461538,15.792 2.36923077,15.204 2.62307692,14.7 C2.87692308,14.28 3.21538462,13.944 3.63846154,13.692 C3.63846154,13.524 3.63846154,13.272 3.63846154,13.104 C3.80769231,12.096 4.56923077,11.256 5.5,11.004 C5.33076923,10.584 5.16153846,9.996 5.16153846,9.492 C5.16153846,7.728 6.68461538,6.3 8.71538462,5.964 C8.88461538,4.368 10.3230769,3.192 12.0153846,3.192 C12.4384615,3.192 12.8615385,3.276 13.2,3.444 C14.3846154,1.68 16.2461538,0.756 18.1076923,0.756 C21.1538462,0.756 23.6923077,3.192 24.0307692,6.3 C24.3692308,6.216 24.7076923,6.216 24.9615385,6.216 C27.3307692,6.216 29.1923077,8.148 29.1923077,10.5 C29.1923077,10.92 29.1076923,11.34 29.0230769,11.76 C31.0538462,12.348 32.4923077,13.944 32.4923077,15.876 C32.4923077,17.388 31.6461538,18.816 30.1230769,19.572 C29.6153846,21.252 28.2615385,22.344 26.7384615,22.344 C25.8923077,22.344 25.1307692,22.008 24.5384615,21.504 C24.3692308,21.336 24.2846154,21 24.3692308,20.748 C24.7076923,20.076 24.9615385,19.32 25.1307692,18.564 C25.3,17.808 25.3846154,17.052 25.3,16.296 C24.7923077,16.212 24.2846154,16.044 23.7769231,15.792 C22,14.784 21.4923077,12.852 21.4076923,12.264 C21.4076923,12.264 21.4076923,12.264 21.4076923,12.264 C21.4076923,12.264 21.4076923,12.264 21.4076923,12.18 C21.4076923,12.18 21.4076923,12.18 21.3230769,12.18 C20.3923077,12.852 19.2076923,13.188 18.1076923,13.188 C16.3307692,13.188 14.7230769,12.348 13.6230769,11.004 C12.9461538,12.264 11.4230769,13.104 9.64615385,13.104 C9.30769231,13.104 8.96923077,13.356 8.96923077,13.692 C8.96923077,13.776 8.96923077,13.944 8.88461538,14.028 C8.71538462,14.784 8.29230769,15.708 7.53076923,16.128 C7.44615385,16.716 7.44615385,17.304 7.61538462,18.144 C7.78461538,19.068 8.12307692,19.992 8.63076923,20.748 C8.71538462,20.916 8.71538462,21.084 8.71538462,21.252 C8.71538462,21.252 8.71538462,21.336 8.71538462,21.336 C8.37692308,22.092 7.7,22.68 6.85384615,22.848 C6.51538462,22.932 6.26153846,22.932 6.09230769,22.932 Z M4.06153846,19.824 C4.14615385,19.824 4.31538462,19.824 4.4,19.908 C4.56923077,19.992 4.65384615,20.16 4.65384615,20.412 C4.65384615,20.832 4.82307692,21.168 5.16153846,21.42 C5.5,21.672 5.92307692,21.756 6.34615385,21.672 C6.68461538,21.588 7.02307692,21.336 7.19230769,21.084 C6.68461538,20.244 6.43076923,19.32 6.17692308,18.312 C5.92307692,17.136 6.09230769,16.296 6.17692308,15.54 C6.17692308,15.288 6.34615385,15.12 6.6,15.036 C7.02307692,14.868 7.44615385,14.364 7.53076923,13.776 C7.53076923,13.692 7.53076923,13.692 7.53076923,13.608 C7.53076923,12.6 8.46153846,11.844 9.47692308,11.844 C11.2538462,11.844 12.6076923,10.836 12.6923077,9.492 C12.6923077,9.24 12.8615385,8.988 13.2,8.904 C13.4538462,8.82 13.7923077,8.988 13.8769231,9.24 C14.7230769,10.92 16.2461538,11.928 18.0230769,11.928 C18.9538462,11.928 19.8,11.676 20.5615385,11.172 C20.9,10.92 21.4076923,10.836 21.8307692,11.088 C22.2538462,11.256 22.5076923,11.676 22.5923077,12.096 C22.5923077,12.096 22.5923077,12.096 22.5923077,12.096 C22.6769231,12.516 23.0153846,14.028 24.3692308,14.784 C24.7923077,15.036 25.3,15.204 25.8923077,15.204 C26.2307692,15.204 26.4846154,15.456 26.4846154,15.792 C26.5692308,16.884 26.4846154,17.892 26.3153846,18.984 C26.1461538,19.656 25.9769231,20.328 25.6384615,21 C25.9769231,21.168 26.3153846,21.336 26.6538462,21.336 C27.7538462,21.336 28.6846154,20.496 28.9384615,19.236 C28.9384615,19.068 29.1076923,18.9 29.2769231,18.816 C30.4615385,18.228 31.1384615,17.22 31.1384615,16.128 C31.1384615,14.616 29.7846154,13.272 28.0076923,13.02 C27.8384615,13.02 27.6692308,12.852 27.5846154,12.684 C27.5,12.516 27.5,12.264 27.5846154,12.096 C27.8384615,11.676 27.9230769,11.172 27.9230769,10.668 C27.9230769,8.988 26.5692308,7.56 24.9615385,7.56 C24.5384615,7.56 24.1153846,7.644 23.6923077,7.812 C23.6076923,7.896 23.5230769,7.896 23.3538462,7.896 C23.1,7.896 22.8461538,7.728 22.7615385,7.392 C22.7615385,7.308 22.7615385,7.224 22.7615385,7.224 C22.7615385,7.14 22.7615385,7.14 22.7615385,7.056 C22.7615385,4.368 20.6461538,2.1 18.1076923,2.1 C16.5,2.1 14.8923077,3.024 14.0461538,4.536 C13.9615385,4.704 13.7923077,4.788 13.7076923,4.788 C13.5384615,4.872 13.3692308,4.788 13.2,4.704 C12.8615385,4.536 12.4384615,4.368 12.1,4.368 C10.9153846,4.368 9.98461538,5.208 9.98461538,6.3 C9.98461538,6.384 9.98461538,6.384 9.98461538,6.468 C9.98461538,6.468 9.98461538,6.552 9.98461538,6.552 C9.98461538,6.888 9.73076923,7.14 9.39230769,7.14 C7.7,7.224 6.43076923,8.232 6.43076923,9.492 C6.43076923,9.828 6.6,10.248 6.68461538,10.668 C6.85384615,11.172 7.02307692,11.508 6.76923077,11.844 C6.68461538,12.012 6.43076923,12.096 6.17692308,12.096 C5.5,12.096 4.90769231,12.6 4.82307692,13.272 C4.82307692,13.356 4.82307692,13.524 4.82307692,13.608 C4.82307692,13.692 4.90769231,13.776 4.90769231,13.776 C4.99230769,13.944 4.99230769,14.112 4.90769231,14.28 C4.82307692,14.448 4.65384615,14.532 4.48461538,14.616 C4.14615385,14.7 3.80769231,14.952 3.72307692,15.204 C3.46923077,15.624 3.46923077,16.128 3.72307692,16.464 C3.80769231,16.632 3.80769231,16.884 3.72307692,17.052 C3.63846154,17.22 3.46923077,17.388 3.21538462,17.388 C2.79230769,17.388 2.45384615,17.556 2.2,17.892 C1.94615385,18.144 1.86153846,18.564 1.94615385,18.9 C2.03076923,19.488 2.53846154,19.908 3.13076923,19.992 C3.38461538,19.992 3.63846154,19.992 3.80769231,19.908 C3.97692308,19.908 4.06153846,19.824 4.06153846,19.824 Z" id="Shape" fill="#333333"></path>
            </g>
        </g>
    </g>
</svg>