<?xml version="1.0" encoding="UTF-8"?>
<svg width="70px" height="64px" viewBox="0 0 70 64" version="1.1" xmlns="http://www.w3.org/2000/svg" xmlns:xlink="http://www.w3.org/1999/xlink">
    <!-- Generator: Sketch 51.2 (57519) - http://www.bohemiancoding.com/sketch -->
    <title>Icon / 70 x 64 / Skip</title>
    <desc>Created with Sketch.</desc>
    <defs></defs>
    <g id="Icon-/-70-x-64-/-Skip" stroke="none" stroke-width="1" fill="none" fill-rule="evenodd">
        <g id="skip-35" transform="translate(18.000000, 16.000000)" fill-rule="nonzero">
            <g id="Group" fill="#FFFFFF">
                <path d="M38.2451613,16.1032258 C38.2451613,16.983871 37.8677419,17.8645161 37.2387097,18.6193548 L25.4129032,30.5709677 C25.0354839,30.9483871 24.4064516,31.2 23.9032258,31.2 C23.4,31.2 22.7709677,30.9483871 22.3935484,30.5709677 C22.016129,30.1935484 21.6387097,29.5645161 21.6387097,28.9354839 L21.6387097,3.27096774 C21.6387097,2.64193548 21.8903226,2.01290323 22.3935484,1.63548387 C22.7709677,1.25806452 23.4,1.00645161 23.9032258,1.00645161 C24.4064516,1.00645161 25.0354839,1.25806452 25.4129032,1.63548387 L37.2387097,13.5870968 C37.8677419,14.3419355 38.2451613,15.2225806 38.2451613,16.1032258 Z" id="Shape"></path>
                <path d="M16.6064516,13.7129032 C17.2354839,14.3419355 17.6129032,15.2225806 17.6129032,16.1032258 C17.6129032,16.983871 17.2354839,17.8645161 16.6064516,18.6193548 L4.78064516,30.5709677 C4.40322581,30.9483871 3.77419355,31.2 3.27096774,31.2 C2.76774194,31.2 2.13870968,30.9483871 1.76129032,30.5709677 C1.38387097,30.1935484 1.00645161,29.5645161 1.00645161,28.9354839 L1.00645161,3.27096774 C1.00645161,2.64193548 1.25806452,2.01290323 1.76129032,1.63548387 C2.13870968,1.25806452 2.76774194,1.00645161 3.27096774,1.00645161 C3.77419355,1.00645161 4.40322581,1.25806452 4.78064516,1.63548387 L11.0709677,7.92580645 L16.6064516,13.7129032 Z" id="Shape"></path>
            </g>
            <g id="Group">
                <path d="M36.6096774,17.8645161 L24.6580645,29.816129 C23.9032258,30.5709677 22.5193548,30.0677419 22.5193548,28.9354839 L22.5193548,28.0548387 C24.5322581,25.4129032 26.4193548,22.7709677 28.0548387,19.8774194 C29.816129,16.8580645 31.3258065,13.5870968 32.4580645,10.316129 L36.483871,14.3419355 C37.4903226,15.3483871 37.4903226,16.8580645 36.6096774,17.8645161 Z" id="Shape" fill="#EBF2F3"></path>
                <path d="M36.6096774,17.8645161 L35.9806452,17.2354839 L24.0290323,29.1870968 L23.7774194,29.3129032 L23.5258065,29.1870968 C23.5258065,29.1870968 23.4,29.0612903 23.4,28.9354839 L23.4,3.27096774 C23.4,3.14516129 23.4,3.14516129 23.5258065,3.01935484 L23.7774194,2.89354839 L24.0290323,3.01935484 L30.3193548,9.30967742 L35.9806452,14.9709677 C36.2322581,15.2225806 36.483871,15.7258065 36.483871,16.1032258 C36.483871,16.4806452 36.3580645,16.8580645 35.9806452,17.2354839 L36.6096774,17.8645161 L37.2387097,18.4935484 C37.8677419,17.8645161 38.2451613,16.983871 38.2451613,16.1032258 C38.2451613,15.2225806 37.8677419,14.3419355 37.2387097,13.7129032 L31.5774194,8.0516129 L25.2870968,1.76129032 C24.9096774,1.38387097 24.2806452,1.13225806 23.7774194,1.13225806 C23.1483871,1.13225806 22.6451613,1.38387097 22.2677419,1.76129032 C21.8903226,2.13870968 21.5129032,2.76774194 21.6387097,3.39677419 L21.6387097,28.9354839 C21.6387097,29.5645161 21.8903226,30.1935484 22.3935484,30.5709677 C22.7709677,30.9483871 23.4,31.2 23.9032258,31.2 C24.4064516,31.2 25.0354839,30.9483871 25.4129032,30.5709677 L37.3645161,18.6193548 L36.6096774,17.8645161 Z" id="Shape" fill="#333333"></path>
                <path d="M15.9774194,17.8645161 L4.02580645,29.816129 C3.27096774,30.5709677 1.88709677,30.0677419 1.88709677,28.9354839 L1.88709677,28.0548387 C3.9,25.4129032 5.78709677,22.7709677 7.42258065,19.8774194 C9.18387097,16.8580645 10.6935484,13.5870968 11.8258065,10.316129 L15.8516129,14.3419355 C16.983871,15.3483871 16.983871,16.8580645 15.9774194,17.8645161 Z" id="Shape" fill="#EBF2F3"></path>
                <path d="M15.9774194,17.8645161 L15.3483871,17.2354839 L3.39677419,29.1870968 L3.14516129,29.3129032 L2.89354839,29.1870968 C2.89354839,29.1870968 2.76774194,29.0612903 2.76774194,28.9354839 L2.76774194,3.27096774 C2.76774194,3.14516129 2.76774194,3.14516129 2.89354839,3.01935484 L3.14516129,2.89354839 L3.39677419,3.01935484 L9.68709677,9.30967742 L15.3483871,14.9709677 C15.6,15.2225806 15.8516129,15.7258065 15.8516129,16.1032258 C15.8516129,16.4806452 15.7258065,16.8580645 15.3483871,17.2354839 L15.9774194,17.8645161 L16.6064516,18.4935484 C17.2354839,17.8645161 17.6129032,16.983871 17.6129032,16.1032258 C17.6129032,15.2225806 17.2354839,14.3419355 16.6064516,13.7129032 L10.9451613,8.0516129 L4.65483871,1.76129032 C4.27741935,1.38387097 3.6483871,1.13225806 3.14516129,1.13225806 C2.51612903,1.13225806 2.01290323,1.38387097 1.63548387,1.76129032 C1.25806452,2.13870968 0.880645161,2.76774194 1.00645161,3.39677419 L1.00645161,28.9354839 C1.00645161,29.5645161 1.25806452,30.1935484 1.76129032,30.5709677 C2.13870968,30.9483871 2.76774194,31.2 3.27096774,31.2 C3.77419355,31.2 4.40322581,30.9483871 4.78064516,30.5709677 L16.7322581,18.6193548 L15.9774194,17.8645161 Z" id="Shape" fill="#333333"></path>
            </g>
        </g>
    </g>
</svg>