<svg xmlns="http://www.w3.org/2000/svg" width="150" height="150" viewBox="0 0 150 150">
    <g fill="none" fill-rule="evenodd">
        <path fill="#E8F6FC" d="M0 0h116.679c17.99 0 32.573 14.581 32.573 32.573v84.104c0 17.99-14.583 32.573-32.573 32.573H32.573C14.583 149.25 0 134.666 0 116.677V0z"/>
        <path fill="#B0DEF3" d="M79.707 52.8l-.007.016c-.03.125-.07.242-.117.367l-.048.133-.007.008-.07.21a8.21 8.21 0 0 1-.695 1.383c-.142.211-.281.414-.43.618l-.008.008a8.801 8.801 0 0 1-.75.858 8.282 8.282 0 0 1-2.914 1.899c-.11.048-.227.086-.336.125-.625.21-1.28.351-1.968.414h-.009l1.188 13.594.07.781.212 2.414-.282.024-13.851 1.21-.828.079-1.814.157a8.45 8.45 0 0 1-.42 3.445l-.055.148c-.024.07-.048.148-.08.218-.178.461-.405.899-.663 1.321-.234.391-.508.757-.805 1.101-.125.156-.265.297-.406.445a8.428 8.428 0 0 1-3.265 2.033 6.484 6.484 0 0 1-.743.21 3.624 3.624 0 0 1-.399.086c-.132.023-.265.046-.398.062-.132.024-.265.032-.406.048l-.016.007h-.016c-.249.024-.5.031-.741.031-.71 0-1.407-.086-6.46-3.031a8.415 8.415 0 0 1-.877-1.266 4.32 4.32 0 0 1-.179-.344 9.666 9.666 0 0 1-.32-.71 8.319 8.319 0 0 1-.352-1.132c-.085-.391-.148-.79-.188-1.204h-.008l-14.054 1.226-2.726.242-4.22-48.226-.186-2.133 2.14-.188.578-.046 5.79-.508 8.178-.719.008.031c.407 4.65 4.517 8.087 9.165 7.672a8.438 8.438 0 0 0 5.734-2.991c.446-.525.82-1.11 1.125-1.727a8.402 8.402 0 0 0 .813-4.437v-.017l2.273-.195 14.554-1.273 1.47 16.782h.008a8.394 8.394 0 0 1 6.671 2.428 8.356 8.356 0 0 1 2.438 5.211v.016a8.47 8.47 0 0 1-.298 3.087"/>
        <path fill="#DAF0FA" d="M109.99 69.98c.038.867-.056 1.71-.25 2.508h-.009l-2.343.203v.007l-.29.025a8.282 8.282 0 0 1-1.171 5.053 8.713 8.713 0 0 1-3.97 1.367h-.007c-4.719.407-8.9-2.983-9.508-7.624l-15.727 1.374.22 2.462-.782.07-.21-2.414-2.337.203-.07-.781 2.265-.195.071-.03-1.211-13.9V58.3a8.282 8.282 0 0 0 2.914-1.898c.266-.266.524-.555.75-.859l.007-.008a8.18 8.18 0 0 0 1.126-2c.031-.07.054-.148.078-.22a8.02 8.02 0 0 0 .711-.741 7.957 7.957 0 0 0 1.852-5.86c-.391-4.422-4.29-7.695-8.704-7.312a.382.382 0 0 1-.421-.352l-1.227-13.976 14.405-1.267-.007-.062a8.454 8.454 0 0 1 8.415-9.195c4.335 0 8.03 3.313 8.421 7.711l.008.071 8.594-.75 6.047-.532 2.133-.187.187 2.14.453 5.126.883 10.116a8.38 8.38 0 0 0-5.484 2.961 8.43 8.43 0 0 0-1.938 6.172c.406 4.554 4.36 7.962 8.899 7.688l1.195 13.695-13.969 1.219z"/>
        <path fill="#DAF0FA" d="M75.801 72.237l-2.265.196-1.188-13.593h.009a8.546 8.546 0 0 0 1.968-.415l.336-.117 1.211 13.899-.07.03zM75.942 73.011l.212 2.414-2.337.203-.21-2.414zM77.567 44.488a8.394 8.394 0 0 0-6.672-2.43h-.007l-1.47-16.781 2.329-.203 1.227 13.976a.382.382 0 0 0 .42.352c4.415-.383 8.314 2.89 8.705 7.312a7.957 7.957 0 0 1-1.852 5.86 8.12 8.12 0 0 1-.711.742l.047-.133c.047-.125.086-.242.116-.367l.008-.015c.29-.97.4-2.016.306-3.087v-.015a8.305 8.305 0 0 0-2.446-5.211M107.388 72.698a8.358 8.358 0 0 1-1 4.767 8.384 8.384 0 0 1-6.641 4.35h-.016l-.156.009c-4.562.32-8.562-3.079-8.968-7.648v-.016l-.29.023-13.382 1.171-.22-2.46 15.727-1.375c.609 4.64 4.79 8.032 9.508 7.625h.008a8.722 8.722 0 0 0 3.969-1.368 8.28 8.28 0 0 0 1.172-5.054l.289-.024zM109.739 72.488c.195-.797.289-1.641.25-2.508l13.969-1.219.218 2.461-14.437 1.266z"/>
        <path fill="#B0DEF3" d="M67.63 101.542a8.424 8.424 0 0 0 9.125 7.657l1.467 16.781-46.46 4.063a3.905 3.905 0 0 1-4.231-3.551l-4.063-46.46 16.782-1.467a8.423 8.423 0 0 0 9.124 7.657l.007-.001a8.423 8.423 0 0 0 7.657-9.124l16.782-1.468 1.468 16.788a8.423 8.423 0 0 0-7.658 9.125"/>
        <path fill="#B0DEF3" d="M127.23 104.636c-.14.016-.28.023-.42.023l.844 9.633.038-.007.399 4.507.241 2.766-1.78.156c-.133.04-.266.062-.398.07l-48.22 4.227v-.007l-.242-2.805-1.226-13.978c-4.625.408-8.71-3.007-9.117-7.64l-.009-.015a8.414 8.414 0 0 1 1.938-6.15 8.798 8.798 0 0 1 1.11-1.1 8.55 8.55 0 0 1 1.366-.906 8.239 8.239 0 0 1 3.243-.969l-.157-1.837-.078-.828-1.226-14.124.282-.024 2.336-.203.78-.07 13.383-1.172.008.015c.406 4.626 4.493 8.056 9.118 7.641h.014l.118-.015a8.34 8.34 0 0 0 6.351-4.048 8.28 8.28 0 0 0 1.172-5.054l.29-.024 2.344-.21h.007l14.149-1.234 1.452 16.593c.133-.024.266-.031.399-.047.25-.023.5-.03.743-.03 4.335 0 8.03 3.312 8.42 7.71.025.25.032.5.032.75 0 4.327-3.304 8.024-7.703 8.406M27.568 28.925v.009l-6.366.555z"/>
        <path fill="#FFF" d="M30.09 25.871v.008l-6.413.56zM128.625 118.745l-5.992.53v-.009zM80.31 122.972l-2.328.203-.29.024-45.21 3.954a2.141 2.141 0 0 1-2.321-1.947l-3.97-45.414-.21-2.414 16.399-1.437c.578 4.39 4.343 7.657 8.734 7.657a8.684 8.684 0 0 0 4.71-1.367 8.85 8.85 0 0 0 3.861-5.369 8.5 8.5 0 0 0 .241-2.452l13.68-1.196 2.336-.203.212 2.414L77.34 89.02c-.813.11-1.578.32-2.297.634a8.825 8.825 0 0 0-4.656 4.662c-.047.125-.102.243-.141.368a8.7 8.7 0 0 0-.531 3.852c.414 4.71 4.485 8.243 9.164 8.03l1.43 16.407z"/>
        <path fill="#FFF" d="M80.247 52.573a8.02 8.02 0 0 1-.711.743l-.008.008a7.987 7.987 0 0 1-4.727 2.086h-.007a.438.438 0 0 0-.265.14.376.376 0 0 0-.087.289l.22 2.46v.009l1.21 13.899-.07.03-2.266.196-14.055 1.226a.423.423 0 0 0-.266.14.384.384 0 0 0-.093.29 7.914 7.914 0 0 1-.266 2.852 7.979 7.979 0 0 1-1.577 3.008c-.228.266-.461.515-.712.742l-.007.007a7.976 7.976 0 0 1-4.735 2.086h-.008c-4.414.39-8.312-2.883-8.703-7.297a.394.394 0 0 0-.421-.359L25.91 76.597 21.778 29.44v-.007l-.055-.665-.186-2.14 2.14-.188 6.413-.563 8.157-.71v.039a8.455 8.455 0 0 0 9.17 7.672 8.37 8.37 0 0 0 4.361-1.68 8.16 8.16 0 0 0 1.375-1.312 8.39 8.39 0 0 0 1.712-3.337 8.564 8.564 0 0 0 .225-2.835v-.024l16.415-1.43v.008l.242 2.805 1.226 13.976a.383.383 0 0 0 .421.352c4.415-.383 8.314 2.89 8.704 7.312a7.954 7.954 0 0 1-1.851 5.86M135.083 99.105a8.355 8.355 0 0 1-5.727 2.992l-.03.008.178 2.008.626 7.172h.039l.64 7.265-2.188.196-.53.046-5.461.477-41.54 3.633-1.468-16.781a.39.39 0 0 0-.14-.266.376.376 0 0 0-.282-.094 8.002 8.002 0 0 1-5.867-1.843 8.006 8.006 0 0 1-2.836-5.461 8.034 8.034 0 0 1 1.117-4.828c.04-.079.085-.149.14-.22a7.97 7.97 0 0 1 3.36-2.938 8.075 8.075 0 0 1 2.68-.718h.008a.392.392 0 0 0 .351-.421l-1.218-13.977-.22-2.462 15.727-1.375c.609 4.642 4.79 8.032 9.508 7.625h.008a8.722 8.722 0 0 0 3.969-1.367c.164-.093.312-.203.46-.312a8.835 8.835 0 0 0 3.344-4.976h.008c.196-.797.29-1.64.25-2.508l13.969-1.219 2.429-.21h.008l1.461 16.71h.016a8.418 8.418 0 0 1 6.164 1.938 8.458 8.458 0 0 1 2.992 5.734 8.419 8.419 0 0 1-1.945 6.172"/>
    </g>
</svg>
