<svg id="Layer_1" data-name="Layer 1" xmlns="http://www.w3.org/2000/svg" xmlns:xlink="http://www.w3.org/1999/xlink" viewBox="0 0 320 570"><defs><style>.cls-1{fill:none;}.cls-2{clip-path:url(#clip-path);}.cls-3{fill:#003c4f;opacity:0.8;}.cls-10,.cls-11,.cls-4{fill:#e2edef;}.cls-4{opacity:0.01;}.cls-5{fill:#8fbbc5;}.cls-6{fill:#91d757;}.cls-7{fill:#8aca4f;}.cls-8{fill:#fff4e2;}.cls-15,.cls-9{opacity:0.2;}.cls-11{opacity:0.7;}.cls-12{clip-path:url(#clip-path-2);}.cls-13{fill:#ff9f6b;}.cls-14,.cls-15,.cls-16{fill:#bc6d00;}.cls-16{opacity:0.15;}</style><clipPath id="clip-path"><rect class="cls-1" x="0.9" width="320" height="570"/></clipPath><clipPath id="clip-path-2"><rect class="cls-1" y="337.35" width="320" height="232.65"/></clipPath></defs><title>404mobile</title><g class="cls-2"><path class="cls-3" d="M320,244.59V589.23H0V144a85.63,85.63,0,0,1,29,18.45c19.58,19.2,16.23,35.88,29.91,49.09a37.88,37.88,0,0,0,3.69,3.17c21.49,16.29,40.08-.86,79.14,2,4.18.32,8.58.86,13.25,1.69,31,5.54,42.56,18.5,58.25,27.36,8.57,4.83,18.36,8.44,33.22,8.95,26.54.9,38.69-9.13,55.53-11.2A51.75,51.75,0,0,1,320,244.59Z"/><path class="cls-3" d="M320,257.87V589.23H0v-425c10.89,16.17,9.72,30.21,24.57,41.46,11.13,8.44,21.49,7.9,34.31,5.83,14.58-2.35,32.35-6.69,58.08-2.09a108.21,108.21,0,0,1,24.75,7.31c25.55,11.16,33.44,27.86,66.72,29,1.65.06,3.24.07,4.78.05,31.15-.48,41.53-16.34,68.79-10.23a68.5,68.5,0,0,1,20,8A89.39,89.39,0,0,1,320,257.87Z"/><polygon class="cls-4" points="-16.36 614.54 -190.1 582.4 40.52 150.36 63.13 180.05 -16.36 614.54"/><polygon class="cls-4" points="453.71 648.57 167.68 602.34 82.26 179.23 116.21 179.23 453.71 648.57"/><polygon class="cls-4" points="656.02 352.55 534.07 403.39 151.25 179.23 656.02 144.93 656.02 352.55"/></g><path class="cls-5" d="M112.54,376.1l-1.93-6.23a6.31,6.31,0,0,0-7.9-4.16l-8.38,2.6-6.71-21.65L79.79,321.4a6.31,6.31,0,0,0-7.9-4.16l-17,5.28a6.31,6.31,0,0,0-4.06,3.86L40.08,355.62l-9.69,26.47a6.3,6.3,0,0,0-.1,4l4.37,14.1a6.31,6.31,0,0,0,7.9,4.16l35.55-11L82,406.06a6.31,6.31,0,0,0,7.9,4.16l9.84-3a6.31,6.31,0,0,0,4.16-7.9L100,386.6l8.38-2.6A6.31,6.31,0,0,0,112.54,376.1Zm-62.7,6L61,351.69l2.28-6.25,1.71,5.5,7.49,24.16Z"/><path class="cls-5" d="M279.81,363l-8.76-.51,1-16.84,1.87-32.18a6.31,6.31,0,0,0-5.94-6.67l-17.81-1a6.31,6.31,0,0,0-5.15,2.19l-30,35-8.61,10a6.27,6.27,0,0,0-1.51,3.74L204,371.44a6.31,6.31,0,0,0,5.94,6.67L247,380.27l-.77,13.25a6.31,6.31,0,0,0,5.94,6.67l10.28.6a6.31,6.31,0,0,0,6.67-5.94l.77-13.25,8.76.51a6.32,6.32,0,0,0,6.67-5.94l.38-6.52A6.32,6.32,0,0,0,279.81,363Zm-31.65-1.84-23.61-1.37L238.07,344,250,330.16l-.84,14.4Z"/><path class="cls-6" d="M127.82,332.47a24.32,24.32,0,0,0,34.4,1,22.64,22.64,0,0,0,2.08-2.26l.08-.1h.11l3.08.28,4,.38-1.68-3.67-1.68-3.65a24.11,24.11,0,0,0,1.54-6.89A24.72,24.72,0,0,0,163.2,299a24.32,24.32,0,0,0-39.46,5.84c-.09.2-.19.39-.27.58l-.14.31a1.2,1.2,0,0,0-.06.14c-.06.14-.12.27-.17.41v0a24.74,24.74,0,0,0-.31,18.14,24.3,24.3,0,0,0,3.53,6.24C126.78,331.32,127.28,331.91,127.82,332.47Z"/><path class="cls-7" d="M140,292.32a26.84,26.84,0,0,1,16.44,44.5c2.35-.47,7.9-5.48,7.9-5.48l7.14.35-3.35-7.28s1.57-4.84,1.64-5.38a24.08,24.08,0,0,0-28-27c-.6.11-1.13.26-1.73.41Z"/><path class="cls-8" d="M141.22,324.09l.15.13,7-6.57c0-.05-.08-.11-.12-.16a4.82,4.82,0,1,0-7,6.59Z"/><path class="cls-8" d="M141,310.57a1.88,1.88,0,1,0,2-3.2,1.84,1.84,0,0,0-1.63,0A1.88,1.88,0,0,0,141,310.57Z"/><path class="cls-8" d="M134.47,318.79a1.88,1.88,0,1,0-3.2-2,1.84,1.84,0,0,0,0,1.63A1.88,1.88,0,0,0,134.47,318.79Z"/><g class="cls-9"><path class="cls-10" d="M124.93,326.43A41.08,41.08,0,0,0,132,348.82a35.61,35.61,0,1,1,30.59-64.24A41.28,41.28,0,0,0,124.93,326.43Z"/></g><path class="cls-10" d="M184.61,330.44a7.28,7.28,0,0,1-.64,2.83q-.72,1.59-1.57,3.12a41.91,41.91,0,0,1-21.52,18.69,7.46,7.46,0,0,1-8.08-1.87l-1.7-1.8a.14.14,0,0,1,.08-.23h0l.64-.1.64-.12.31-.06.36-.07h.05l.59-.13.12,0,.52-.13h.05l.14,0,.12,0,.14,0,.14,0,1-.29.13,0,.49-.15h0l.43-.14.11,0,.22-.08.14,0h0l.15-.05.38-.14c.46-.17.92-.35,1.38-.54l.68-.29.68-.31.67-.32.58-.29.18-.09.57-.31.66-.37.65-.38.48-.29c.64-.4,1.27-.82,1.89-1.27l.92-.69.45-.35.6-.49.59-.5.58-.52.57-.53h0c.26-.24.5-.49.75-.74s.49-.5.73-.75h0l.7-.77.68-.78c.24-.29.47-.57.7-.86l.42-.54.3-.41c.16-.21.31-.42.45-.63s.38-.55.57-.83h0c.17-.26.34-.52.5-.78l.08-.13c.16-.26.32-.53.48-.8h0l.49-.88q.48-.88.9-1.79c.14-.3.28-.6.41-.9h0c.12-.27.24-.54.35-.82l.09-.21c.08-.18.15-.37.21-.55l.16-.42c.09-.25.19-.52.27-.77s.21-.61.3-.93c0,0,0,0,0,0,.09-.26.16-.53.24-.8l.09-.33c.09-.35.18-.69.27-1,0-.2.1-.4.14-.6l.08-.38a.14.14,0,0,1,.24-.07l1.7,1.8A7.5,7.5,0,0,1,184.61,330.44Z"/><circle class="cls-5" cx="158.76" cy="352.28" r="1.28" transform="translate(-198.56 205.22) rotate(-43.37)"/><circle class="cls-5" cx="181.05" cy="332.04" r="1.28" transform="translate(-178.58 215) rotate(-43.37)"/><circle class="cls-5" cx="172.02" cy="344.4" r="1.28" transform="translate(-189.53 212.17) rotate(-43.37)"/><g class="cls-9"><path class="cls-10" d="M166.55,344.92l-.32.23-.51.35-.9.59-.29.18-.72.43h0l-.85.48-.72.39-.4.21-.53.26-.21.1-.81.37h0l-.9.39c-.61.25-1.24.49-1.87.71l-1,.32h0l-.89.27-.15,0-.9.24h0l-1,.23-.76.16-.5.1-.67.12-1.1.17-1,.12-1,.1h0l-1,.06-1.05,0h-1.56l-.77,0-.77,0-.57,0-1.14-.11c-.76-.09-1.51-.2-2.25-.34l-.55-.11-.74-.15-.73-.17-.63-.16-.2-.05-.62-.18-.71-.21-.71-.23-.7-.24c-.46-.17-.92-.34-1.38-.53l-.37-.16h0l-.14-.05h0l-.13-.06-.67-.3-.07,0h0l-.47-.22-.12-.06c-.41-.2-.81-.4-1.2-.61l-.11-.06-.13-.07,0,0-.47-.26-.63-.36,0,0-.31-.19-.27-.16-.55-.34-.54-.36-.07,0-.07,0-.9-.62c-.48-.34-.95-.7-1.4-1.07l-.53-.43c-.5-.41-1-.83-1.45-1.27l-.14-.13c-.31-.28-.61-.58-.9-.87l-.47-.48c-.31-.33-.62-.65-.92-1l-.44-.51h0l-.43-.52c-.27-.32-.52-.64-.78-1l-.11-.13-.36-.48-.4-.56h0l-.44-.64-.32-.49-.12-.18-.33-.52-.39-.65h0l-.39-.68c-.09-.15-.17-.31-.26-.47l-.16-.29-.24-.45-.36-.73a35.85,35.85,0,0,1-1.53-3.69q-.14-.39-.26-.78l-.2-.66-.21-.73c-.07-.25-.13-.49-.2-.73s-.16-.66-.24-1q-.22-1-.39-2c-.06-.34-.1-.68-.15-1-.09-.68-.16-1.37-.22-2.07s-.08-1.4-.1-2.1c0-.52,0-1,0-1.56q0-.39,0-.77c0-.26,0-.51,0-.77,0-.52.08-1,.14-1.53s.12-1,.2-1.51.17-1,.27-1.49c0-.24.1-.49.15-.74s.11-.47.16-.71.13-.5.19-.75q.19-.72.41-1.43c.3-.95.63-1.88,1-2.79s.78-1.8,1.22-2.67q.33-.66.69-1.3l.36-.63q.37-.63.77-1.25a35.57,35.57,0,0,1,29.32-16.33h1.57l.62,0,1,.06.62.05.82.08.74.09.75.11.75.13.58.11.56.11.55.12,1.09.27.37.1c.41.11.81.23,1.21.36l.71.23.39.13.5.18.55.21.47.18.31.13.1,0,.44.19.22.09c.5.22,1,.45,1.47.69l.31.15.43.22.28.15a35.65,35.65,0,0,1,10.94,9.08,35.61,35.61,0,0,1-7,51.25Z"/></g><path class="cls-10" d="M215.39,315.23a24.7,24.7,0,0,1-1.4,4.32,25.28,25.28,0,0,1-2.72,4.82,27.51,27.51,0,0,1-5.93,6,30.3,30.3,0,0,1-5.8,3.39c-.71.32-1.44.61-2.17.87h0a33,33,0,0,1-8.4,1.84l-.32,0a32.34,32.34,0,0,1-6.24-.12c.25-.44.48-.88.71-1.33s.59-1.19.87-1.8a7.28,7.28,0,0,0,.64-2.83,26.12,26.12,0,0,0,3,0,26.8,26.8,0,0,0,9.43-2.27,24.27,24.27,0,0,0,4.42-2.55,21.39,21.39,0,0,0,5.15-5.3,19.38,19.38,0,0,0,1.74-3.19,18.54,18.54,0,0,0,1.2-4.05,20.42,20.42,0,0,0,0-7.33,19.33,19.33,0,0,0-1.86-5.43c-.21-.4-.43-.79-.67-1.18a16.11,16.11,0,0,0-3.09-3.65,14.36,14.36,0,0,0-5.85-3.07,15.51,15.51,0,0,0-3.1-.47c-.95,0-1.94,0-3,0l-.9,0h0a20.4,20.4,0,0,1-5.71-.45,10.58,10.58,0,0,1-1.13-.34,11.71,11.71,0,0,1-5.42-4.1,18.39,18.39,0,0,1-1.16-1.72c-.69-1.13-1.26-2.28-1.78-3.35l0-.08c-.21-.42-.46-.88-.75-1.36h0a11.5,11.5,0,0,0-3.59-3.78,8,8,0,0,0-5.82-1q-.36.06-.72.15a11.63,11.63,0,0,0-3.63,1.62,11.45,11.45,0,0,0-3.23,3.26,10.11,10.11,0,0,0-.79,1.44,35.26,35.26,0,0,0-6-1.47,17.24,17.24,0,0,1,4.31-6.46,17.89,17.89,0,0,1,6-3.78,16.69,16.69,0,0,1,1.8-.57,14.55,14.55,0,0,1,8.69.35h0a16,16,0,0,1,7.8,6.49,22.49,22.49,0,0,1,1.39,2.43l0,.08a34.2,34.2,0,0,0,1.73,3.23,6.69,6.69,0,0,0,3,2.8h0l.19.08a6.61,6.61,0,0,0,.76.22,18.94,18.94,0,0,0,4.69.19h0c1.13,0,2.28-.08,3.48,0a21.75,21.75,0,0,1,5.53,1,20.19,20.19,0,0,1,7.09,4,22.29,22.29,0,0,1,4.33,5.1c.35.56.68,1.13,1,1.72a25.61,25.61,0,0,1,2.7,9A26.05,26.05,0,0,1,215.39,315.23Z"/><path class="cls-5" d="M158,280.83a10.11,10.11,0,0,0-.79,1.44,35.26,35.26,0,0,0-6-1.47,17.24,17.24,0,0,1,4.31-6.46,14,14,0,0,0,.72,3.08A14.17,14.17,0,0,0,158,280.83Z"/><path class="cls-5" d="M172.09,270.35a10.4,10.4,0,0,0-6.47,5.44q-.36.06-.72.15a11.63,11.63,0,0,0-3.63,1.62,12.27,12.27,0,0,1-.35-3.56,11.89,11.89,0,0,1,.68-3.43,16.69,16.69,0,0,1,1.8-.57A14.55,14.55,0,0,1,172.09,270.35Z"/><path class="cls-5" d="M183.05,282.58a32,32,0,0,0-3.39-1.11,31,31,0,0,0-4.62-.85h0a11.5,11.5,0,0,0-3.59-3.78,10.69,10.69,0,0,1,3.29-.83,10.84,10.84,0,0,1,5.16.84,22.49,22.49,0,0,1,1.39,2.43l0,.08A34.2,34.2,0,0,0,183.05,282.58Z"/><path class="cls-5" d="M191.76,285.86a14.31,14.31,0,0,0-4,2.68,14.1,14.1,0,0,0-2.43,3c-.37-.1-.75-.21-1.13-.34a11.71,11.71,0,0,1-5.42-4.1,18.39,18.39,0,0,1-1.16-1.72,17.48,17.48,0,0,0,3,.49c2.55.2,4.54.36,6.46-.23a18.94,18.94,0,0,0,4.69.19Z"/><path class="cls-5" d="M207.85,290.81a16.81,16.81,0,0,0-9.81,1.62,15.51,15.51,0,0,0-3.1-.47c-.95,0-1.94,0-3,0l-.9,0a22.18,22.18,0,0,1,3.32-2.51,22.5,22.5,0,0,1,6.41-2.68A20.19,20.19,0,0,1,207.85,290.81Z"/><path class="cls-5" d="M215.86,306.64a19.8,19.8,0,0,0-4-3.92,20.06,20.06,0,0,0-4.24-2.39c-.21-.4-.43-.79-.67-1.18a16.11,16.11,0,0,0-3.09-3.65,21,21,0,0,1,4.29.42,20.7,20.7,0,0,1,5,1.7A25.61,25.61,0,0,1,215.86,306.64Z"/><path class="cls-5" d="M215.39,315.23a24.7,24.7,0,0,1-1.4,4.32,25.28,25.28,0,0,1-2.72,4.82,26.7,26.7,0,0,0-1.71-11.29,20.42,20.42,0,0,0,0-7.33,37.93,37.93,0,0,1,3.1,4.22A37.49,37.49,0,0,1,215.39,315.23Z"/><path class="cls-5" d="M206.72,324.88a19.12,19.12,0,0,1-1.39,5.51,30.3,30.3,0,0,1-5.8,3.39c-.71.32-1.44.61-2.17.87a22,22,0,0,0,4.11-9,21.39,21.39,0,0,0,5.15-5.3A19.14,19.14,0,0,1,206.72,324.88Z"/><path class="cls-5" d="M193.75,329.39a14.33,14.33,0,0,1-5.12,7.13,32.34,32.34,0,0,1-6.24-.12c.25-.44.48-.88.71-1.33a14.4,14.4,0,0,0,4.51-4.62A26.85,26.85,0,0,0,193.75,329.39Z"/><circle class="cls-10" cx="89.74" cy="291.41" r="2.35"/><circle class="cls-11" cx="80.98" cy="233.97" r="1.27"/><g class="cls-12"><path class="cls-13" d="M293.43,451.61A146.5,146.5,0,0,1,321.61,624q-.8,1.55-1.64,3.08a146.47,146.47,0,1,1-26.54-175.44Z"/><g class="cls-9"><path class="cls-14" d="M132.92,532.1a17.74,17.74,0,0,1-14.23,5.34,17.14,17.14,0,0,1-1.72-.23,17.76,17.76,0,1,1,16-5.11Z"/><path class="cls-14" d="M248,531.88a23.24,23.24,0,0,1-18.12,7,22.79,22.79,0,0,1-3.29-.44,23.29,23.29,0,1,1,21.41-6.6Z"/><path class="cls-14" d="M142.87,481.08a13.42,13.42,0,0,1-11.19,4l-.53-.07h0a13.45,13.45,0,0,1,.11-26.59,13.45,13.45,0,0,1,11.62,22.67Z"/></g><g class="cls-9"><path class="cls-14" d="M132.92,532.1a17.74,17.74,0,0,1-14.23,5.34,17.14,17.14,0,0,1-1.72-.23,17.76,17.76,0,0,1,9.29-34.15,17.52,17.52,0,0,1,6.27,3.93A17.76,17.76,0,0,1,132.92,532.1Z"/><path class="cls-14" d="M248,531.88a23.24,23.24,0,0,1-18.12,7,22.79,22.79,0,0,1-3.29-.44,23.29,23.29,0,0,1,12.23-44.84A23.29,23.29,0,0,1,248,531.88Z"/><path class="cls-14" d="M142.87,481.08a13.42,13.42,0,0,1-11.19,4l-.53-.07h0a13.45,13.45,0,0,1,7-25.78,13.44,13.44,0,0,1,4.7,21.87Z"/></g><path class="cls-15" d="M318.57,484a146.5,146.5,0,0,1-20.67,173.41q-1.2,1.26-2.43,2.51a146.33,146.33,0,0,1-153.57,34.61q1.69-.92,3.36-1.88A198.85,198.85,0,0,0,243,551.53q.12-.75.24-1.49A199.27,199.27,0,0,0,245,505.35a198.29,198.29,0,0,0-23.08-79.6q-1.34-2.53-2.78-5-2.54-4.45-5.28-8.71A146.16,146.16,0,0,1,318.57,484Z"/><ellipse class="cls-16" cx="161.83" cy="427.81" rx="15.94" ry="5.23" transform="translate(-129.19 74.94) rotate(-18.79)"/><ellipse class="cls-16" cx="252.66" cy="446.32" rx="5.23" ry="28.07" transform="translate(-249.67 549.79) rotate(-72.12)"/><ellipse class="cls-16" cx="81.43" cy="503.87" rx="28.07" ry="5.23" transform="translate(-404.54 347.82) rotate(-63.02)"/></g><circle class="cls-10" cx="293.97" cy="330.16" r="3.53" transform="translate(-42.83 43.82) rotate(-7.95)"/><circle class="cls-11" cx="229.5" cy="271.53" r="1.6" transform="translate(-35.34 34.35) rotate(-7.95)"/><circle class="cls-10" cx="49.84" cy="440.54" r="3.23" transform="translate(-60.44 11.12) rotate(-7.95)"/><circle class="cls-11" cx="30" cy="508.27" r="1.27" transform="translate(-70 9.03) rotate(-7.95)"/><circle class="cls-10" cx="136.38" cy="384.16" r="1.76" transform="translate(-270.86 402.51) rotate(-73.03)"/></svg>