<svg id="Layer_1" data-name="Layer 1" xmlns="http://www.w3.org/2000/svg" xmlns:xlink="http://www.w3.org/1999/xlink" viewBox="0 0 1920 1080"><defs><style>.cls-1{fill:none;}.cls-2{clip-path:url(#clip-path);}.cls-3{fill:#003c4f;opacity:0.8;}.cls-10,.cls-16,.cls-4{fill:#e2edef;}.cls-4{opacity:0.01;}.cls-5{fill:#8fbbc5;}.cls-6{fill:#91d757;}.cls-7{fill:#8aca4f;}.cls-8{fill:#fff4e2;}.cls-13,.cls-15,.cls-9{opacity:0.2;}.cls-11{fill:#ff9f6b;}.cls-12,.cls-13,.cls-17{fill:#bc6d00;}.cls-14{fill:#33899b;}.cls-15{fill:#005872;}.cls-16{opacity:0.7;}.cls-17{opacity:0.15;}</style><clipPath id="clip-path"><rect class="cls-1" x="296.94" width="1623.06" height="1080"/></clipPath></defs><title>404Page</title><g class="cls-2"><path class="cls-3" d="M1920,15.5v1049a15.5,15.5,0,0,1-15.5,15.5H817c55.59-82.84,76.48-144.39,78.58-190.83a158.94,158.94,0,0,0-1.26-29.11,132.09,132.09,0,0,0-10-35.53c-37-83.6-150.62-100-194.42-181.44a140.86,140.86,0,0,1-13.63-37.16c-5.35-24.58-3.43-44.83,1.67-62.85,13.19-46.58,47.68-78.28,33-131.63a105.2,105.2,0,0,0-4.07-12,108.22,108.22,0,0,0-20.63-32.37c-22.62-24.84-56.44-41.67-94-56.6C508,277,405,253.17,367.17,170.23A147.18,147.18,0,0,1,360.9,154c-7.17-22.33-10.52-50.76-4.65-87.19,3.18-19.81,9.1-42,18.61-66.81H1904.5A15.5,15.5,0,0,1,1920,15.5Z"/><path class="cls-3" d="M1920,0V1080H909.92c33.39-49.35,39.12-88,33.15-118.28s-23.8-53.09-47.53-72.55c-69.5-57-189.56-84.57-209.62-180a123.06,123.06,0,0,1-2.61-22.27,132.16,132.16,0,0,1,6.55-43.76c8.48-26.72,24.13-51.46,40.75-74.91,36-50.86,76.65-95.7,58.69-141.66a66.83,66.83,0,0,0-15.86-23.73h0c-19.29-18.83-50.42-29-87.23-35.67-55.67-10.1-124.34-12.25-184.7-24.34-55.06-11-103.21-30.35-128.3-71.53-19.52-32-22-72.21-12.3-117.24,5.91-27.5,16.34-56.82,30.16-87.19C401,45,412.66,22.63,425.67,0Z"/><path class="cls-4" d="M1920,459.75V1080H1805.49l-99.19-47.23h0L1550.74,958.7l-7.22-3.44-11.55-5.5-77.35-36.83-145.77-69.41-7.32-3.49-63.65-30.3-115.44-55L730.61,568.18l-52.71-25.1c13.19-46.58,47.68-78.28,33-131.63a105.2,105.2,0,0,0-4.07-12l66.6,3.3h0l234.18,11.63,63.3,3.15,12.1.6,68.76,3.42,93.26,4.63h0l20.59,1,131.86,6.55h0l24.52,1.22,98.79,4.91,69,3.43,33,1.64,68.31,3.39Z"/><path class="cls-4" d="M1465.15,0l-873,310.51L501.5,342.77c-55.06-11-103.21-30.35-128.3-71.53-19.52-32-22-72.21-12.3-117.24-11.07-34.47-13-83.51,14-154Z"/><path class="cls-4" d="M1162.18,1080H817c55.59-82.84,76.48-144.39,78.58-190.83-69.5-57-189.56-84.57-209.62-180a123.06,123.06,0,0,1-2.61-22.27l211,173.21Z"/><path class="cls-5" d="M1203.52,524.4,1202.27,505a18.83,18.83,0,0,0-20-17.58l-26.13,1.68-4.35-67.48-5.08-78.74a18.83,18.83,0,0,0-20-17.58l-53.11,3.42a18.83,18.83,0,0,0-14.47,8.36l-51.49,77.37-46.59,70a18.8,18.8,0,0,0-3.12,11.65l2.84,44a18.83,18.83,0,0,0,20,17.59l110.81-7.15,2.55,39.52a18.83,18.83,0,0,0,20,17.59l30.67-2a18.83,18.83,0,0,0,17.58-20l-2.55-39.52,26.13-1.69A18.83,18.83,0,0,0,1203.52,524.4ZM1017.46,498l53.46-80.45,11-16.54,1.11,17.14,4.86,75.31Z"/><path class="cls-5" d="M1714.23,500.2l-26.14-1.58,3-50.24,5.79-96a18.82,18.82,0,0,0-17.67-19.93l-53.13-3.21a18.84,18.84,0,0,0-15.39,6.5l-89.88,104.2-25.76,29.86a18.72,18.72,0,0,0-4.54,11.16l-2.66,44a18.84,18.84,0,0,0,17.67,19.93l110.83,6.69L1614,591.08A18.82,18.82,0,0,0,1631.67,611l30.67,1.85a18.83,18.83,0,0,0,19.93-17.67l2.38-39.53,26.14,1.58a18.85,18.85,0,0,0,19.94-17.67l1.17-19.44A18.84,18.84,0,0,0,1714.23,500.2Zm-94.41-5.69-70.43-4.25,40.42-46.91L1625.4,402l-2.59,43Z"/><path class="cls-6" d="M1267.34,400.63a72.58,72.58,0,0,0,102,11.63,67.56,67.56,0,0,0,6.75-6.18,2.36,2.36,0,0,0,.28-.27l.22,0,.1,0,9.09,1.62,11.83,2.14-4.08-11.32L1389.48,387a71.93,71.93,0,0,0,6.33-20.09,73.76,73.76,0,0,0-14.81-56.7,72.56,72.56,0,0,0-118.79,7.34c-.32.56-.66,1.1-1,1.66l-.48.88a3.57,3.57,0,0,0-.23.4c-.21.39-.42.78-.62,1.18,0,0,0,0,0,.06a73.83,73.83,0,0,0-5.52,53.86A72.5,72.5,0,0,0,1263.3,395C1264.54,396.94,1265.9,398.82,1267.34,400.63Z"/><path class="cls-7" d="M1313.82,284.38c28.25,6.26,52.2,29,59.88,56.93s-1.24,59.71-22.31,79.55c7.1-.81,24.87-14.28,24.87-14.28l21.12,2.85-8.12-22.51s5.9-14,6.25-15.57A71.85,71.85,0,0,0,1319,283.84c-1.81.16-3.43.48-5.23.78Z"/><path class="cls-8" d="M1309.32,379.13c.13.16.28.28.41.43l22.34-17.76c-.12-.16-.2-.34-.33-.5-5.37-6.75-14.74-8.24-20.93-3.31S1304,372.37,1309.32,379.13Z"/><path class="cls-8" d="M1312.17,338.89a5.6,5.6,0,1,0,6.61-9,5.48,5.48,0,0,0-4.85-.55A5.61,5.61,0,0,0,1312.17,338.89Z"/><path class="cls-8" d="M1290.59,361.67a5.6,5.6,0,1,0-9-6.61,5.48,5.48,0,0,0-.55,4.85A5.61,5.61,0,0,0,1290.59,361.67Z"/><g class="cls-9"><path class="cls-10" d="M1260.29,382a122.59,122.59,0,0,0,15.33,68.37,106.26,106.26,0,1,1,107.26-183.21A123.16,123.16,0,0,0,1260.29,382Z"/></g><path class="cls-10" d="M1436.7,409a21.73,21.73,0,0,1-2.63,8.25q-2.54,4.54-5.47,8.88a125,125,0,0,1-68.72,50.12,22.26,22.26,0,0,1-23.55-7.61l-4.59-5.77a.41.41,0,0,1,.29-.67h0l1.92-.14,1.92-.18.94-.1,1.07-.13.16,0,1.79-.23.37-.06,1.58-.24.16,0,.42-.07.37-.07.42-.07.42-.07c1-.18,2.07-.39,3.1-.61l.39-.08,1.51-.33h0l1.33-.31.33-.08.69-.18.42-.1.09,0,.45-.11,1.17-.31c1.42-.39,2.82-.81,4.23-1.26.71-.22,1.41-.45,2.1-.7s1.39-.48,2.09-.74,1.39-.51,2.08-.79,1.19-.46,1.78-.71l.56-.23c.59-.25,1.19-.5,1.77-.77s1.37-.61,2-.93,1.35-.63,2-1l1.51-.75c2-1,4-2.13,6-3.29,1-.58,1.94-1.18,2.91-1.81l1.44-.94c.64-.41,1.28-.85,1.91-1.29s1.26-.88,1.89-1.34,1.25-.91,1.86-1.39,1.23-.94,1.84-1.43h0c.82-.65,1.62-1.31,2.42-2s1.59-1.35,2.37-2h0c.77-.71,1.53-1.41,2.27-2.11s1.49-1.43,2.22-2.16,1.55-1.59,2.3-2.39c.47-.49.93-1,1.37-1.49s.67-.75,1-1.14c.53-.58,1-1.18,1.51-1.77.65-.77,1.28-1.54,1.91-2.33a0,0,0,0,1,0,0c.58-.73,1.14-1.46,1.69-2.21l.27-.37c.55-.74,1.1-1.49,1.62-2.25a0,0,0,0,1,0,0c.57-.82,1.13-1.65,1.68-2.48q1.66-2.5,3.14-5.08c.5-.85,1-1.7,1.44-2.56,0,0,0,0,0,0,.43-.78.85-1.55,1.23-2.34l.31-.61c.27-.53.53-1.05.78-1.59l.58-1.22c.34-.73.69-1.49,1-2.23s.77-1.77,1.13-2.67c0,0,0,0,0,0,.32-.77.62-1.54.91-2.32.11-.32.24-.64.35-1,.37-1,.72-2,1.06-3,.19-.58.39-1.17.57-1.76l.34-1.12a.42.42,0,0,1,.73-.15l4.59,5.77A22.39,22.39,0,0,1,1436.7,409Z"/><circle class="cls-5" cx="1354.3" cy="467.37" r="3.81" transform="translate(3.39 944.45) rotate(-38.49)"/><circle class="cls-5" cx="1425.72" cy="412.88" r="3.81" transform="translate(52.82 977.06) rotate(-38.49)"/><circle class="cls-5" cx="1395.73" cy="447.32" r="3.81" transform="translate(24.87 965.88) rotate(-38.49)"/><g class="cls-9"><path class="cls-10" d="M1379.34,447.47l-1,.6c-.54.32-1.07.62-1.61.92-.95.53-1.89,1-2.83,1.53l-.91.47c-.74.37-1.49.75-2.24,1.1l0,0q-1.32.63-2.64,1.21l-2.24,1-1.25.51c-.55.23-1.1.44-1.64.65l-.64.24c-.83.31-1.65.61-2.49.9l0,0c-.92.32-1.86.63-2.79.92-1.89.6-3.81,1.15-5.75,1.64-1,.25-1.94.48-2.91.7h0c-.9.2-1.81.39-2.72.57l-.45.09-2.74.49h0c-1,.16-2,.31-3,.44-.76.11-1.54.21-2.31.29l-1.51.17c-.67.07-1.34.13-2,.17-1.09.09-2.2.16-3.31.22s-2.06.09-3.09.1-2.06,0-3.1,0h0c-1,0-2.08,0-3.13-.08s-2.08-.09-3.14-.15h0l-2.32-.18c-.78-.06-1.55-.15-2.32-.23l-2.29-.28-2.28-.33-1.7-.28c-1.14-.19-2.26-.41-3.37-.63-2.24-.46-4.44-1-6.62-1.58l-1.62-.46-2.15-.65c-.71-.22-1.43-.45-2.13-.69s-1.22-.41-1.82-.63l-.57-.21-1.79-.68c-.69-.26-1.38-.53-2.07-.82l-2-.86-2-.9c-1.34-.62-2.66-1.25-4-1.92-.36-.19-.71-.37-1.07-.57h0c-.13-.06-.26-.12-.4-.19l-.08,0-.38-.21c-.65-.34-1.29-.69-1.93-1.06l-.2-.1,0,0-1.34-.77-.34-.2q-1.73-1-3.41-2.11l-.32-.2-.36-.23-.13-.09-1.33-.89-1.79-1.24-.13-.09-.88-.63-.76-.56-1.54-1.16-1.51-1.19-.21-.16-.18-.15c-.85-.68-1.68-1.38-2.51-2.08-1.33-1.14-2.64-2.31-3.9-3.53-.49-.46-1-.93-1.46-1.41-1.37-1.34-2.7-2.72-4-4.14-.14-.15-.27-.29-.39-.43-.84-.92-1.65-1.87-2.46-2.81-.43-.51-.86-1-1.28-1.55-.85-1.05-1.67-2.1-2.48-3.18-.4-.53-.79-1.08-1.18-1.62h0c-.4-.55-.78-1.1-1.16-1.65-.71-1-1.39-2-2.06-3.08-.09-.14-.17-.28-.28-.42-.31-.5-.64-1-.94-1.53s-.71-1.17-1.06-1.77h0c-.39-.67-.78-1.35-1.15-2-.28-.5-.56-1-.83-1.53-.11-.19-.21-.38-.3-.57-.28-.54-.57-1.07-.84-1.62s-.68-1.36-1-2h0c-.33-.7-.66-1.41-1-2.13-.23-.47-.44-1-.65-1.46-.13-.29-.27-.6-.39-.91s-.4-.92-.59-1.39c-.3-.75-.59-1.5-.88-2.26a107,107,0,0,1-3.6-11.37q-.31-1.19-.57-2.38c-.15-.66-.3-1.34-.44-2l-.44-2.21c-.14-.75-.27-1.48-.39-2.23q-.25-1.51-.45-3-.41-3-.65-6.07c-.08-1-.13-2-.19-3.06-.1-2.06-.14-4.12-.12-6.21s.11-4.17.25-6.27c.11-1.56.25-3.1.42-4.65q.12-1.15.28-2.29c.09-.76.21-1.52.32-2.27.23-1.52.5-3,.8-4.52s.62-3,1-4.44.75-2.92,1.17-4.36c.2-.71.41-1.43.65-2.15s.44-1.38.67-2.07.5-1.45.76-2.17q.75-2.1,1.6-4.16c1.12-2.74,2.35-5.42,3.69-8s2.76-5.17,4.31-7.64q1.15-1.87,2.38-3.68c.41-.6.83-1.19,1.24-1.79q1.25-1.78,2.6-3.51a106.14,106.14,0,0,1,91.32-41.12c.76,0,1.53.11,2.28.18s1.59.15,2.4.24l1.85.23c1,.12,2,.27,3,.42l1.84.32,2.42.45,2.17.47c.74.16,1.48.33,2.21.51s1.46.36,2.19.56l1.7.47c.54.15,1.08.31,1.62.48l1.62.5c1.07.34,2.13.7,3.18,1.08l1.07.39c1.18.43,2.36.89,3.52,1.37l2,.86,1.12.5c.49.21,1,.43,1.43.65s1.07.49,1.59.75.9.44,1.34.67.6.3.9.45l.29.16,1.26.67.62.34c1.42.77,2.83,1.58,4.2,2.42l.87.53c.41.25.82.5,1.22.77l.79.51a106.36,106.36,0,0,1,30.22,29.77,106.24,106.24,0,0,1-33.76,150.59Z"/></g><path class="cls-10" d="M1532.05,371.62a73.7,73.7,0,0,1-5.24,12.49,75.42,75.42,0,0,1-9.32,13.64,82.1,82.1,0,0,1-19.16,16.39,90.41,90.41,0,0,1-18.11,8.6c-2.21.77-4.42,1.44-6.67,2h0a98.42,98.42,0,0,1-25.45,3.34h-1a96.49,96.49,0,0,1-18.51-2c.85-1.23,1.66-2.49,2.45-3.76,1.05-1.68,2.06-3.39,3-5.12a21.73,21.73,0,0,0,2.63-8.25,78,78,0,0,0,8.94.79,80,80,0,0,0,28.6-4.35A72.41,72.41,0,0,0,1488,399a63.81,63.81,0,0,0,16.66-14.45,57.83,57.83,0,0,0,6-9,55.31,55.31,0,0,0,4.6-11.74A60.92,60.92,0,0,0,1517,342a57.67,57.67,0,0,0-4.16-16.63c-.53-1.25-1.09-2.47-1.7-3.67a48.06,48.06,0,0,0-8.27-11.63,42.83,42.83,0,0,0-16.61-10.63,46.28,46.28,0,0,0-9.11-2.18c-2.8-.38-5.77-.51-8.91-.66l-2.7-.14h0c-5.38-.3-11.18-.81-16.87-2.79a31.56,31.56,0,0,1-3.28-1.3,34.94,34.94,0,0,1-15.07-13.55,54.87,54.87,0,0,1-3-5.4c-1.76-3.53-3.15-7.1-4.44-10.42l-.1-.25c-.51-1.31-1.13-2.74-1.89-4.23h0a34.32,34.32,0,0,0-9.71-12.16,23.81,23.81,0,0,0-17-4.59q-1.08.09-2.19.27a34.7,34.7,0,0,0-11.2,3.9,34.16,34.16,0,0,0-10.44,8.88,30.18,30.18,0,0,0-2.71,4.09,105.2,105.2,0,0,0-17.48-5.88,51.43,51.43,0,0,1,14.44-18.11,53.39,53.39,0,0,1,18.93-9.69A49.81,49.81,0,0,1,1389,224a43.41,43.41,0,0,1,25.74,3.25h0c8.76,4.08,16.17,11.31,21.55,21.28a67.12,67.12,0,0,1,3.51,7.59l.09.25a102,102,0,0,0,4.32,10c2.09,4,4.57,7.2,8.18,9.07h.08c.19.1.33.21.54.3a19.73,19.73,0,0,0,2.22.85c4,1.28,8.84,1.51,13.89,1.75h.14c3.36.16,6.81.33,10.35.81a64.91,64.91,0,0,1,16.19,4.34,60.26,60.26,0,0,1,20.05,13.63,66.52,66.52,0,0,1,11.58,16.25c.9,1.76,1.73,3.54,2.47,5.37a76.42,76.42,0,0,1,5.74,27.47A77.73,77.73,0,0,1,1532.05,371.62Z"/><path class="cls-5" d="M1370.3,254.77a30.18,30.18,0,0,0-2.71,4.09,105.2,105.2,0,0,0-17.48-5.88,51.43,51.43,0,0,1,14.44-18.11,41.86,41.86,0,0,0,1.36,9.34A42.29,42.29,0,0,0,1370.3,254.77Z"/><path class="cls-5" d="M1414.74,227.2a31,31,0,0,0-20.6,14.52q-1.08.09-2.19.27a34.7,34.7,0,0,0-11.2,3.9,36.62,36.62,0,0,1-.15-10.68,35.47,35.47,0,0,1,2.89-10A49.81,49.81,0,0,1,1389,224,43.41,43.41,0,0,1,1414.74,227.2Z"/><path class="cls-5" d="M1444.22,266.35a95.55,95.55,0,0,0-9.8-4.15,92.37,92.37,0,0,0-13.53-3.71h0a34.32,34.32,0,0,0-9.71-12.16,31.9,31.9,0,0,1,10-1.63,32.35,32.35,0,0,1,15.14,3.79,67.12,67.12,0,0,1,3.51,7.59l.09.25A102,102,0,0,0,1444.22,266.35Z"/><path class="cls-5" d="M1469.26,278.31a42.69,42.69,0,0,0-12.59,6.94,42.08,42.08,0,0,0-8,8.4c-1.09-.39-2.18-.81-3.28-1.3a34.94,34.94,0,0,1-15.07-13.55,54.87,54.87,0,0,1-3-5.4,52.17,52.17,0,0,0,8.66,2.22c7.54,1.25,13.39,2.22,19.25,1,4,1.28,8.84,1.51,13.89,1.75Z"/><path class="cls-5" d="M1515.86,297.09a50.15,50.15,0,0,0-29.58,2.32,46.28,46.28,0,0,0-9.11-2.18c-2.8-.38-5.77-.51-8.91-.66l-2.7-.14a66.19,66.19,0,0,1,10.51-6.62,67.13,67.13,0,0,1,19.73-6.35A60.26,60.26,0,0,1,1515.86,297.09Z"/><path class="cls-5" d="M1535.64,346.18a59.07,59.07,0,0,0-10.79-12.65,59.86,59.86,0,0,0-12-8.19c-.53-1.25-1.09-2.47-1.7-3.67a48.06,48.06,0,0,0-8.27-11.63,62.53,62.53,0,0,1,12.65,2.34,61.76,61.76,0,0,1,14.36,6.33A76.42,76.42,0,0,1,1535.64,346.18Z"/><path class="cls-5" d="M1532.05,371.62a73.7,73.7,0,0,1-5.24,12.49,75.42,75.42,0,0,1-9.32,13.64,79.67,79.67,0,0,0-2.21-34A60.92,60.92,0,0,0,1517,342a113.16,113.16,0,0,1,8.14,13.35A111.87,111.87,0,0,1,1532.05,371.62Z"/><path class="cls-5" d="M1503.85,398.09a57.06,57.06,0,0,1-5.53,16,90.41,90.41,0,0,1-18.11,8.6c-2.21.77-4.42,1.44-6.67,2A65.69,65.69,0,0,0,1488,399a63.81,63.81,0,0,0,16.66-14.45A57.12,57.12,0,0,1,1503.85,398.09Z"/><path class="cls-5" d="M1464.15,408.23a42.76,42.76,0,0,1-17,19.88,96.49,96.49,0,0,1-18.51-2c.85-1.23,1.66-2.49,2.45-3.76a43,43,0,0,0,14.59-12.58A80.1,80.1,0,0,0,1464.15,408.23Z"/><path class="cls-11" d="M1698.73,879.1c41.89,145.26-19,295.81-139.81,373.82q-3.35,2.16-6.76,4.25a334.73,334.73,0,0,1-496.51-192.63c-51.21-177.58,51.24-363.06,228.82-414.26A334.63,334.63,0,0,1,1698.73,879.1Z"/><g class="cls-9"><path class="cls-12" d="M1289,856.47a40.53,40.53,0,0,1-34.29-5.58,39.18,39.18,0,0,1-3.15-2.4,40.59,40.59,0,1,1,37.44,8Z"/><path class="cls-12" d="M1517.53,986.74a53.11,53.11,0,0,1-43.92-6.62,52.09,52.09,0,0,1-6-4.6,53.22,53.22,0,1,1,49.95,11.22Z"/><path class="cls-12" d="M1366.67,766.59a30.67,30.67,0,0,1-26.72-4.79l-1-.74,0,0a30.73,30.73,0,0,1,30.41-52.6,30.73,30.73,0,0,1-2.7,58.15Z"/></g><g class="cls-9"><path class="cls-12" d="M1289,856.47a40.53,40.53,0,0,1-34.29-5.58,39.18,39.18,0,0,1-3.15-2.4,40.58,40.58,0,0,1,57.2-57.19,40,40,0,0,1,8,14.91A40.6,40.6,0,0,1,1289,856.47Z"/><path class="cls-12" d="M1517.53,986.74a53.11,53.11,0,0,1-43.92-6.62,52.09,52.09,0,0,1-6-4.6,53.22,53.22,0,1,1,49.95,11.22Z"/><path class="cls-12" d="M1366.67,766.59a30.67,30.67,0,0,1-26.72-4.79l-1-.74,0,0a30.73,30.73,0,1,1,27.72,5.55Z"/></g><path class="cls-13" d="M1711.83,971.82c0,151.18-100.25,278.95-237.91,320.45q-3.82,1.14-7.67,2.21a334.42,334.42,0,0,1-343.87-105.73q4.39.09,8.8.09c142.94,0,270.5-65.86,354-168.9q1.09-1.34,2.17-2.69a453.43,453.43,0,0,0,99-270.62c.14-4.36.19-8.73.19-13.12q0-11.71-.59-23.27A334,334,0,0,1,1711.83,971.82Z"/><path class="cls-5" d="M1869.61,706.32c0,.62,0,1.26,0,1.88s0,1.24-.06,1.84c-.06,1.16-.14,2.31-.26,3.46a2.36,2.36,0,0,1,0,.47q-.07.79-.19,1.58-.16,1.3-.37,2.6c-.12.76-.26,1.53-.42,2.29,0,.15-.08.31-.09.47-.19.88-.39,1.78-.6,2.67-.4,1.66-.87,3.29-1.39,4.9,0,.12-.08.23-.11.36-.42,1.27-.88,2.54-1.38,3.78-.57,1.55-1.24,3.07-2,4.57a.06.06,0,0,0,0,0,70.86,70.86,0,0,1-4.31,7.81s0,0,0,0c-1.07,1.69-2.2,3.32-3.39,4.9-.54.71-1.1,1.41-1.66,2.11-1.13,1.4-2.31,2.73-3.55,4s-2.51,2.57-3.84,3.78a.15.15,0,0,0-.08.06c-.7.64-1.41,1.26-2.14,1.88a4,4,0,0,0-.42.34l-1.89,1.5c-.79.62-1.61,1.21-2.43,1.77s-1.69,1.19-2.56,1.74c-.34.22-.68.43-1,.64-.73.47-1.47.9-2.22,1.33-.5.28-1,.56-1.49.82s-.78.43-1.18.62-.67.36-1,.51c-.64.31-1.26.62-1.91.91-1.27.6-2.57,1.16-3.89,1.66-1.11.43-2.24.84-3.38,1.22-.71.24-1.42.46-2.14.68l-.57.18c-.59.17-1.16.34-1.75.48-.34.11-.67.19-1,.26-.74.2-1.47.36-2.2.53l-1.47.29c-.34.08-.67.14-1,.19-1,.19-2,.36-3,.5h0c-.48.06-.95.14-1.43.19l-1,.11c-.22,0-.43.06-.64.08l-.2,0-.37,0c-.54.06-1.1.09-1.66.12s-1.12.08-1.67.09-1.24,0-1.84,0-1,0-1.46,0c-.25,0-.5,0-.74,0s-.48,0-.73,0l-.73,0c-.25,0-.48,0-.73,0a.75.75,0,0,1-.19,0l-1.61-.08-1.5-.12-.33,0c-.23,0-.46,0-.7-.08l-.82-.09c-.39,0-.78-.09-1.16-.16l-.95-.12h-.08l-.12,0c-.76-.12-1.53-.25-2.28-.39l-.53-.09a6.43,6.43,0,0,1-.71-.14c-.54-.09-1.09-.22-1.63-.34l-.29-.08c-1.05-.22-2.09-.5-3.12-.78-.48-.12-.95-.26-1.41-.4s-.95-.28-1.41-.43-.93-.29-1.38-.47c-1-.34-2-.71-3-1.1-.6-.23-1.22-.48-1.81-.74-1.43-.6-2.84-1.26-4.2-2-.4-.19-.79-.4-1.18-.62a2.68,2.68,0,0,1-.42-.22,9.05,9.05,0,0,1-.85-.47,8.18,8.18,0,0,1-.81-.45c-.29-.15-.57-.33-.85-.5a5.22,5.22,0,0,1-.5-.29c-.37-.22-.74-.43-1.1-.67-1.1-.68-2.19-1.4-3.24-2.14l-1.16-.84c-.39-.28-.78-.56-1.15-.85-.71-.54-1.43-1.1-2.12-1.67a3.1,3.1,0,0,1-.34-.29q-.86-.7-1.67-1.44a3.51,3.51,0,0,1-.37-.33q-1-.86-1.91-1.77-.74-.7-1.44-1.44h0a2.23,2.23,0,0,1-.33-.34c-.39-.39-.76-.79-1.12-1.19a65.06,65.06,0,0,1-4.36-5.13c-.29-.39-.59-.79-.88-1.19s-.56-.76-.84-1.15-.42-.6-.62-.91a2.23,2.23,0,0,1-.17-.23c-.43-.64-.87-1.3-1.27-2s-.68-1.09-1-1.64c-.84-1.4-1.63-2.82-2.36-4.28-.31-.59-.59-1.18-.88-1.78-.76-1.63-1.49-3.3-2.12-5q-.49-1.21-.88-2.46c-.37-1-.68-2-1-3.07a72.37,72.37,0,0,1,78.3-92.17l1.49.19.65.17a.06.06,0,0,0,0,0,12.62,12.62,0,0,1,6.17,4.79.21.21,0,0,0,0,.06c.51.74,1,1.53,1.58,2.33l.42.62a.54.54,0,0,0,.08.12c.64.95,1.24,1.92,1.89,2.87l.34.5c.08.12.17.23.26.36.36.47.71.9,1.1,1.33.17.19.34.37.53.54a5.55,5.55,0,0,0,.59.47,3.56,3.56,0,0,0,.81.4,7.45,7.45,0,0,0,3.1.06,9.2,9.2,0,0,1,1.3-.09,4.05,4.05,0,0,1,1.21.15,10.1,10.1,0,0,1,5.07,3.57c1.58,2,2.79,6.43,5.52,7a7,7,0,0,0,3.16-.51,1,1,0,0,1,.2-.06,7.6,7.6,0,0,1,3.33-.12,10.11,10.11,0,0,1,6.39,4.19c.08.11.17.23.25.36,2.51,3.75,3,8.48,5.55,12.2a28.18,28.18,0,0,0,4.4,5l.88.81.68.59c.45.39.87.76,1.26,1.13l0,0,.54.51a2.16,2.16,0,0,1,.26.28s0,0,.06.06l0,0c.17.19.34.37.5.57s.26.34.39.51a7.19,7.19,0,0,1,.78,1.44l0,.11a3.67,3.67,0,0,1,.14.56l.23.88,0,.14c0,.08,0,.15.06.23a.06.06,0,0,1,0,0c.06.28.14.56.19.84s.2.85.29,1.27v0c.14.6.26,1.26.39,1.88,0,.15.06.31.08.47.06.4.14.79.2,1.18s.14.78.19,1.16.12.87.17,1.32c0,.22.06.43.09.65.08.62.14,1.24.2,1.86a1.27,1.27,0,0,1,0,.25c.06.6.11,1.22.14,1.84a3.09,3.09,0,0,1,0,.54c0,.62.08,1.22.09,1.84S1869.61,705.56,1869.61,706.32Z"/><circle class="cls-14" cx="1766.34" cy="683.59" r="25.58" transform="translate(-117.19 484.64) rotate(-15.13)"/><path class="cls-15" d="M1773,708.29a25.56,25.56,0,0,1-25.24-7.09A25.58,25.58,0,0,0,1784,665.12a25.58,25.58,0,0,1-11,43.16Z"/><circle class="cls-5" cx="1766.34" cy="683.59" r="21.62" transform="translate(-117.19 484.64) rotate(-15.13)"/><circle class="cls-14" cx="1766.34" cy="683.59" r="9.71" transform="matrix(0.97, -0.26, 0.26, 0.97, -117.19, 484.64)"/><path class="cls-15" d="M1768.87,693a9.7,9.7,0,0,1-9.79-2.92,9.71,9.71,0,0,0,13.72-13.71,9.71,9.71,0,0,1-3.93,16.62Z"/><path class="cls-14" d="M1869.61,706.32a72.37,72.37,0,0,1-72.38,72.38c-.62,0-1.22,0-1.83,0-.34,0-.68,0-1,0-.76,0-1.5-.06-2.25-.11l-1.5-.12c-.34,0-.68-.06-1-.11q-1.46-.14-2.93-.37h-.11c-.48-.08-.95-.14-1.43-.23s-1-.17-1.47-.26a6.43,6.43,0,0,1-.71-.14c-.54-.09-1.09-.22-1.63-.34-1.15-.25-2.29-.54-3.41-.85-.48-.12-.95-.26-1.41-.4s-.95-.28-1.41-.43-.93-.29-1.38-.47c-1-.34-2-.71-3-1.1-.6-.23-1.22-.48-1.81-.74-1.43-.6-2.84-1.26-4.2-2-.4-.19-.79-.4-1.18-.62a2.68,2.68,0,0,1-.42-.22,9.05,9.05,0,0,1-.85-.47,8.18,8.18,0,0,1-.81-.45c-.29-.15-.57-.33-.85-.5a5.22,5.22,0,0,1-.5-.29c-.37-.22-.74-.43-1.1-.67-1.1-.68-2.19-1.4-3.24-2.14l-1.16-.84c-.39-.28-.78-.56-1.15-.85-.71-.54-1.43-1.1-2.12-1.67a3.1,3.1,0,0,1-.34-.29q-.86-.7-1.67-1.44a3.51,3.51,0,0,1-.37-.33q-1-.86-1.91-1.77-.74-.7-1.44-1.44h0a2.23,2.23,0,0,1-.33-.34c-.39-.39-.76-.79-1.12-1.19a65.06,65.06,0,0,1-4.36-5.13c-.29-.39-.59-.79-.88-1.19s-.56-.76-.84-1.15-.42-.6-.62-.91a1,1,0,0,1-.16-.23h0c-.43-.64-.87-1.3-1.27-2s-.68-1.09-1-1.64c-.84-1.4-1.63-2.82-2.36-4.28-.31-.59-.59-1.18-.88-1.78-.76-1.63-1.49-3.3-2.12-5q-.49-1.21-.88-2.46c-.37-1-.68-2-1-3.07L1828,699.38l0,0,23.31-6.34,16.08-4.39h0c0,.08,0,.15.06.23.08.33.16.67.23,1s.19.76.26,1.15c.14.62.26,1.27.39,1.91s.26,1.44.37,2.19.23,1.55.33,2.34c.19,1.43.31,2.87.4,4.32S1869.61,704.8,1869.61,706.32Z"/><path class="cls-10" d="M1865.23,696.09a1.39,1.39,0,0,1-.29.23c-2.5,1.83-6.84.81-9.38-.37a18.54,18.54,0,0,1-4.22-2.93c-2.12-1.88-4.09-4-6.46-5.44a35.14,35.14,0,0,0-9.56-4c-1.21-.33-2.37-.57-3.5-.78s-2-.34-3-.47c-5.44-.76-9.55-1-11.81-4.85-3-5.08,1.69-9-1.75-14.8s-10.15-3.46-14.42-9.94c-3.18-4.82-3.53-12.63.31-16.21a8.28,8.28,0,0,1,4.19-2c.25,0,.48,0,.73,0a9.3,9.3,0,0,1,1.49.19l.65.17a.06.06,0,0,0,0,0,12.62,12.62,0,0,1,6.17,4.79.21.21,0,0,0,0,.06q.58.77,1.12,1.58l.88,1.36a.54.54,0,0,0,.08.12c.6,1,1.21,1.94,1.89,2.87l.34.5c.08.12.17.23.26.36a11.06,11.06,0,0,0,1.63,1.88,5.55,5.55,0,0,0,.59.47,3.56,3.56,0,0,0,.81.4,7.45,7.45,0,0,0,3.1.06,6.23,6.23,0,0,1,2.51.06,10.1,10.1,0,0,1,5.07,3.57c1.58,2,2.79,6.43,5.52,7a7,7,0,0,0,3.16-.51,1,1,0,0,1,.2-.06c4-1,7.81,1.16,10,4.42,2.51,3.75,3,8.48,5.55,12.2,2.17,3.15,5.36,5.27,7.8,8.08a2.16,2.16,0,0,1,.26.28s0,0,.06.06l0,0c.25.28.48.59.7.88a8,8,0,0,1,1.15,2.31,7.62,7.62,0,0,1,.23.85.66.66,0,0,1,0,.17A7.83,7.83,0,0,1,1865.23,696.09Z"/><path class="cls-14" d="M1861.35,694.33a11.54,11.54,0,0,1-4.52-1.09,22.07,22.07,0,0,1-5.18-4,33.25,33.25,0,0,0-5.22-4.22,39.79,39.79,0,0,0-14.11-5.23c-.94-.17-1.93-.32-3.11-.48l-1.28-.17c-4.73-.63-7.07-1-8.35-3.22-.86-1.47-.72-2.69-.37-4.9.42-2.66.94-6-1.38-9.91s-5.65-5-8.37-6c-2.53-.9-4.52-1.61-6.14-4.06-2.58-3.92-2.65-10.05-.14-12.38a5.08,5.08,0,0,1,2.5-1.2h.24a5.52,5.52,0,0,1,1,.13l.38.1.08,0a9.58,9.58,0,0,1,4.66,3.74l.14.18c.32.43.62.86.9,1.29l.69,1.08.16.26.12.18c.61,1,1.24,2,1.94,2.94l.36.51a12.52,12.52,0,0,0,3.29,3.47,6.31,6.31,0,0,0,1.52.73,7.33,7.33,0,0,0,2.28.34,16.15,16.15,0,0,0,1.81-.13l.22,0a9,9,0,0,1,.94-.07,1.85,1.85,0,0,1,.48,0,7.22,7.22,0,0,1,3.52,2.54,15.17,15.17,0,0,1,1.14,2c1.21,2.3,2.87,5.44,6.13,6.09a5.87,5.87,0,0,0,1.16.11,9.53,9.53,0,0,0,2.85-.53l.67-.19a5,5,0,0,1,1.24-.16,7,7,0,0,1,5.51,3.34,24.27,24.27,0,0,1,2.37,5.35,28.19,28.19,0,0,0,3.19,6.9,31.7,31.7,0,0,0,5,5.37,28.09,28.09,0,0,1,3.89,4c1.34,1.84,1.49,5.2-.31,6.78l-.06,0A3.25,3.25,0,0,1,1861.35,694.33Z"/><circle class="cls-14" cx="1814.79" cy="642.4" r="2.55"/><circle class="cls-14" cx="1835.44" cy="661.18" r="1.4"/><circle class="cls-14" cx="1850.78" cy="665.12" r="2.55"/><circle class="cls-14" cx="1852.34" cy="660.41" r="1.55"/><circle class="cls-14" cx="1834.04" cy="658.6" r="2.55"/><circle class="cls-14" cx="1861.49" cy="682.7" r="2.55"/><circle class="cls-14" cx="1866.9" cy="681.7" r="1.55"/><circle class="cls-14" cx="1864.88" cy="677.29" r="1.33"/><circle class="cls-10" cx="1818.34" cy="661.15" r="2.55"/><circle class="cls-10" cx="1826.19" cy="664.82" r="1.28"/><circle class="cls-10" cx="1825.59" cy="675.58" r="1.28"/><circle class="cls-10" cx="1804.64" cy="651.56" r="1.4"/><circle class="cls-10" cx="1846.37" cy="683.59" r="2.55"/><circle class="cls-10" cx="1841.27" cy="682.04" r="1.55"/><circle class="cls-10" cx="1802.25" cy="649.01" r="2.55"/><circle class="cls-10" cx="1822.36" cy="676.34" r="2.55"/><circle class="cls-10" cx="1845.37" cy="677.29" r="1.55"/><circle class="cls-10" cx="1808.75" cy="649.21" r="1.33"/><circle class="cls-10" cx="1814.44" cy="651.92" r="1.04"/><circle class="cls-14" cx="1832.97" cy="655.51" r="2.55"/><circle class="cls-14" cx="1834.56" cy="650.87" r="1.28"/><circle class="cls-14" cx="1830.37" cy="653.86" r="1.28"/><circle class="cls-14" cx="1820.89" cy="643.68" r="1.28"/><circle class="cls-14" cx="1855.86" cy="647.88" r="1.04"/><circle class="cls-10" cx="1832.38" cy="658.49" r="1.04"/><path class="cls-15" d="M1869.61,706.32c0,.62,0,1.26,0,1.88s0,1.24-.06,1.84c-.06,1.16-.14,2.31-.26,3.46a2.36,2.36,0,0,1,0,.47q-.07.79-.19,1.58-.16,1.3-.37,2.6c-.12.76-.26,1.53-.42,2.29,0,.15-.08.31-.09.47-.19.88-.39,1.78-.6,2.67-.4,1.66-.87,3.29-1.39,4.9,0,.12-.08.23-.11.36-.42,1.27-.88,2.54-1.38,3.78-.59,1.55-1.26,3.07-2,4.57a.06.06,0,0,0,0,0,78.07,78.07,0,0,1-4.31,7.81s0,0,0,0c-1.07,1.67-2.2,3.32-3.39,4.9-.54.71-1.1,1.41-1.66,2.11-1.13,1.4-2.31,2.73-3.55,4s-2.51,2.57-3.84,3.78a.15.15,0,0,0-.08.06c-.7.64-1.41,1.26-2.14,1.88a4,4,0,0,0-.42.34l-1.89,1.5c-.79.62-1.61,1.21-2.43,1.77s-1.69,1.19-2.56,1.74c-.34.22-.68.43-1,.64-.73.47-1.47.9-2.22,1.33-.5.28-1,.56-1.49.82s-.78.43-1.18.62-.67.36-1,.51c-.64.31-1.26.62-1.91.91-1.27.59-2.57,1.13-3.89,1.66-2,.78-4,1.47-6.09,2.08-.59.17-1.16.34-1.75.48-.34.11-.67.19-1,.26-.74.2-1.47.36-2.2.53l-1.47.29c-.34.08-.67.14-1,.19-1,.19-1.94.34-2.91.47l-.09,0h0c-.48.06-.95.14-1.43.19l-1,.11-.48,0-.15,0-.2,0-.37,0c-.54.06-1.1.09-1.66.12s-1.12.08-1.67.09-1.24,0-1.84,0-1,0-1.46,0c-.25,0-.5,0-.74,0a5.74,5.74,0,0,1-.73,0l-.73,0c-.25,0-.48,0-.73,0a.75.75,0,0,1-.19,0l-1.61-.08-1.4-.12h-.11l-.33,0c-.23,0-.46,0-.7-.08l-.82-.09c-.39,0-.78-.09-1.16-.16s-.68-.08-1-.12l-.12,0c-.76-.12-1.53-.25-2.28-.39-.43-.08-.87-.17-1.3-.26-.15,0-.29,0-.46-.09a9.31,9.31,0,0,1-.95-.22l-.45-.08-.45-.12c-.33-.06-.64-.16-1-.23s-.37-.08-.56-.14c-.42-.11-.84-.22-1.24-.34-1.26-.34-2.5-.71-3.72-1.13l-1.35-.48c-.45-.16-.9-.31-1.33-.5-.84-.31-1.67-.65-2.51-1a1.89,1.89,0,0,1-.4-.19c-.68-.28-1.36-.59-2-.91a2.86,2.86,0,0,1-.45-.2q-1.19-.56-2.33-1.16c-.6-.31-1.21-.64-1.8-1a113.73,113.73,0,0,0,29.9-20.52,115.52,115.52,0,0,0,26.91-39.13c.11-.26.22-.54.34-.81a113.73,113.73,0,0,0,5.67-18,.21.21,0,0,0,0-.12c.51-2.22,1-4.45,1.33-6.71.56-3.44,1-6.91,1.21-10.43.23-3.13.34-6.31.28-9.49a108.68,108.68,0,0,0-.81-12.45c-.11-.87-.23-1.72-.36-2.57a4.05,4.05,0,0,1,1.21.15,10.1,10.1,0,0,1,5.07,3.57c1.58,2,2.79,6.43,5.52,7a7,7,0,0,0,3.16-.51,1,1,0,0,1,.2-.06,7.6,7.6,0,0,1,3.33-.12,10.11,10.11,0,0,1,6.39,4.19c.08.11.17.23.25.36,2.51,3.75,3,8.48,5.55,12.2a28.18,28.18,0,0,0,4.4,5l.88.81.68.59c.45.39.87.76,1.26,1.13l0,0,.54.51a2.16,2.16,0,0,1,.26.28s0,0,.06.06l0,0c.17.19.34.37.5.57s.26.34.39.51a7.19,7.19,0,0,1,.78,1.44l.19.67.23.88c.11.42.2.84.31,1.26s.2.85.29,1.27v0c.17.79.33,1.57.47,2.34.06.4.14.79.2,1.18s.14.78.19,1.16.12.87.17,1.32c0,.22.06.43.09.65.08.62.14,1.24.2,1.86a1.27,1.27,0,0,1,0,.25c.06.6.11,1.22.14,1.84a3.09,3.09,0,0,1,0,.54c0,.62.08,1.22.09,1.84S1869.61,705.56,1869.61,706.32Z"/><circle class="cls-10" cx="900.3" cy="223.39" r="10.7"/><circle class="cls-16" cx="603.91" cy="148.4" r="4.84"/><circle class="cls-10" cx="997.13" cy="777.45" r="9.77"/><circle class="cls-10" cx="1439.32" cy="576.79" r="7.12"/><circle class="cls-16" cx="837.51" cy="603.21" r="3.85"/><circle class="cls-16" cx="1791.92" cy="892.7" r="3.85"/><circle class="cls-10" cx="860.69" cy="540" r="5.32" transform="translate(8.36 1093.1) rotate(-65.09)"/><circle class="cls-16" cx="1744.68" cy="199.54" r="4.7"/><circle class="cls-10" cx="1807.42" cy="179.24" r="7.8"/><ellipse class="cls-17" cx="1468.15" cy="694.64" rx="11.95" ry="36.42" transform="translate(506.15 2003.28) rotate(-79)"/><ellipse class="cls-17" cx="1617.46" cy="789.99" rx="11.95" ry="64.16" transform="translate(-110.25 1295.25) rotate(-42.33)"/><ellipse class="cls-17" cx="1203.56" cy="729.26" rx="64.16" ry="11.95" transform="translate(-202.83 778.7) rotate(-33.23)"/></g></svg>