<?xml version="1.0" encoding="utf-8"?>
<!-- Generator: Adobe Illustrator 22.0.1, SVG Export Plug-In . SVG Version: 6.00 Build 0)  -->
<svg version="1.1" id="Layer_1" xmlns="http://www.w3.org/2000/svg" xmlns:xlink="http://www.w3.org/1999/xlink" x="0px" y="0px"
	 viewBox="0 0 320 260" style="enable-background:new 0 0 320 260;" xml:space="preserve">
<style type="text/css">
	.st0{fill:#E5F8FA;}
	.st1{fill:#F5FBFE;}
	.st2{opacity:0.7;}
	.st3{opacity:0.4;}
	.st4{fill:#99BBC5;}
	.st5{fill:#BCD3D8;}
	.st6{fill:#FFA575;}
	.st7{fill:#EFF2EC;}
	.st8{fill:#E5F9F8;}
	.st9{fill:#00566F;}
	.st10{fill:#FFCBB0;}
	.st11{fill:#4CCEE0;}
	.st12{fill:#FEFDF2;}
	.st13{fill:#FFB926;}
	.st14{fill:#4C889A;}
	.st15{fill:#FFFFFF;}
</style>
<title>addFamilyComplete</title>
<path class="st0" d="M18.3,231.9C9,221.1,2.8,207,1,189.3c-2.9-30.2,7.9-60.6,25.3-85.5s40.8-44.9,65.4-62.7
	C118.6,21.6,148.4,4,181.4,0.9c52.1-4.7,102.8,30.3,125.5,77.4c13,27,18.1,61.1,4.1,88.8c-17.2,33.9-55,46.9-88.6,58.5
	c-39,13.4-78,28.4-119,33C70.4,262.4,37.6,254.4,18.3,231.9z"/>
<path class="st1" d="M286,67.5l7.1,136.3c0.1,2.1-1.4,3.9-3.5,3.9l0,0L62.8,219.5c-2.1,0.1-3.9-1.4-3.9-3.5l0,0L51.8,79.7
	c-0.1-2.1,1.4-3.9,3.5-3.9L282,64C284.1,63.8,285.8,65.4,286,67.5C285.9,67.5,285.9,67.5,286,67.5z"/>
<g class="st2">
	<g class="st3">
		
			<rect x="200.8" y="126.4" transform="matrix(0.9984 -5.738702e-02 5.738702e-02 0.9984 -6.9874 11.8951)" class="st4" width="5.5" height="2.3"/>
		
			<rect x="172.4" y="141.9" transform="matrix(0.9984 -5.738704e-02 5.738704e-02 0.9984 -7.9904 10.1957)" class="st4" width="2.3" height="4.6"/>
		
			<rect x="195.3" y="126.8" transform="matrix(0.9984 -5.738702e-02 5.738702e-02 0.9984 -7.015 11.5779)" class="st4" width="5.5" height="2.3"/>
		
			<rect x="189.8" y="127.1" transform="matrix(0.9984 -5.738702e-02 5.738702e-02 0.9984 -7.0425 11.2607)" class="st4" width="5.5" height="2.3"/>
		<polygon class="st4" points="216,147.9 75.3,156 75.1,152.1 95.1,151 116.4,149.8 135.2,148.7 148.4,147.9 167.7,146.8 
			172.5,146.6 173.2,146.5 174.8,146.4 190.7,145.5 196.3,145.2 201.8,144.9 201.8,144.8 207.3,144.6 215.8,144 		"/>
		<polygon class="st4" points="133.9,125.7 129.2,126 127.8,101.2 97,102.9 99.6,147.9 116.3,147 116.4,149.8 95.1,151 92.1,98.4 
			132.2,96.2 		"/>
		<path class="st4" d="M147.1,124.9l-13.2,0.7l-4.7,0.2l-14.1,0.8l1.2,20.2l0.2,2.8l18.8-1.1l13.2-0.7L147.1,124.9z M135,145.7
			l-4.7,0.2l-10.2,0.6l-1-16.8l10.2-0.6l4.7-0.2l9.2-0.6l1,16.8L135,145.7z"/>
		<path class="st4" d="M173.4,124.3c1.3,0.1,2.6-0.6,3.3-1.6c0.8-1.3,1-3,0.4-4.3c-0.6-1.6-1.9-3-3.5-3.6c-1.4-0.5-2.8-0.6-4.3-0.2
			c-2.2,0.6-4.1,1.9-5.2,3.9c-1.4,2.5-1.8,6.1,0.1,8.4c0.1,0.2,0.2,0.3,0.5,0.4c1,0.4,1.5-1,1.8-1.7c0.2-0.7,0.6-1.4,1-1.9
			c1-0.8,2.3-1,3.5-0.3c0.6,0.4,1.2,0.7,1.8,1C172.9,124.2,173.2,124.3,173.4,124.3z"/>
		<path class="st4" d="M179.9,112.2c-0.3,0.9-1.3,3.5,0,6.1c0.9,1.8,2.6,3.5,4.7,3.5c2.6,0,4.9-2.5,6.4-4.3c2-2.6,3.7-5.5,6.3-7.4
			c1.6-1.2,3.4-1.6,5.2-2.2c0.3-0.1,0.6-0.2,0.7-0.5c0.2-0.3-0.2-0.7-0.4-1c-0.6-0.6-3.1-2.4-8.8-2c-2.4,0.1-4.8,0.6-7.1,1.5
			C184.9,106.7,181.3,108.3,179.9,112.2z"/>
		<path class="st4" d="M252,182.4l-0.3-4.9c0-0.2,0.2-0.4,0.3-0.4l16.3-1c0.2,0,0.4,0.2,0.4,0.3l0.3,4.9c0,0.2-0.2,0.4-0.3,0.4
			l-16.3,1C252.2,182.8,252,182.6,252,182.4z"/>
		<path class="st4" d="M117.6,207.5l-0.3-4.9c0-0.2,0.2-0.4,0.3-0.4l16.3-1c0.2,0,0.4,0.2,0.4,0.3l0.3,4.9c0,0.2-0.2,0.4-0.3,0.4
			l-16.3,1C117.8,207.8,117.6,207.6,117.6,207.5z"/>
		<path class="st4" d="M230.8,89l-0.3-4.9c0-0.2,0.2-0.4,0.3-0.4l16.3-1c0.2,0,0.4,0.2,0.4,0.3l0.3,4.9c0,0.2-0.2,0.4-0.3,0.4
			l-16.3,1C230.9,89.4,230.8,89.2,230.8,89z"/>
	</g>
	<path class="st5" d="M206.7,121.5c0-0.2-0.1-0.4-0.2-0.5c-0.2-0.2-0.3-0.2-0.5-0.2l-5.5,0.3l0,0c-0.4,0-0.7,0.4-0.6,0.7v0.7
		l1.3,21.6l0.1,0.7c0,0.2,0.1,0.4,0.2,0.5c0.2,0.1,0.3,0.2,0.5,0.2h0.1l5.5-0.3c0.4,0,0.7-0.3,0.6-0.7l0,0L206.7,121.5z
		 M202.4,144.1l-1.2-21.6l4.1-0.2l1.2,21.6L202.4,144.1z"/>
	<polygon class="st5" points="206.6,143.9 202.4,144.1 201.2,122.5 205.3,122.3 	"/>
	<path class="st5" d="M191.4,144.7l-0.2-3.9c0-0.4-0.3-0.6-0.7-0.6c0,0,0,0-0.1,0h-0.6l-7.1,0.4l-9.1,0.6l-6.1,0.3
		c-0.2,0-0.4,0.1-0.5,0.2c-0.2,0.2-0.2,0.3-0.2,0.5l0.2,4.6c0,0.4,0.3,0.6,0.7,0.6l0,0l23-1.3h0.1c0.4,0,0.7-0.4,0.6-0.7V144.7z
		 M168.3,146.1l-0.2-3.1l21.6-1.2l0.2,3.1L168.3,146.1z"/>
	
		<rect x="168.3" y="142.3" transform="matrix(0.9984 -5.703969e-02 5.703969e-02 0.9984 -7.9161 10.4499)" class="st5" width="21.7" height="3.1"/>
	<path class="st5" d="M202.4,144.1l-1.2-21.6v-0.7c0-0.4-0.3-0.6-0.7-0.6l0,0l-5.5,0.3H195c-0.4,0-0.7,0.4-0.6,0.7l0.1,0.7l1.2,21.6
		v0.7c0,0.4,0.3,0.6,0.7,0.6h0.1l5.5-0.3h0.1c0.2,0,0.4-0.1,0.5-0.2c0.2-0.2,0.2-0.3,0.2-0.5L202.4,144.1z M196.9,144.4l-1.3-21.6
		l4.1-0.2l1.3,21.6L196.9,144.4z"/>
	<path class="st5" d="M196.9,144.4l-1.2-21.6v-0.7c0-0.4-0.3-0.6-0.7-0.6h-0.1l-5.5,0.3c-0.2,0-0.4,0.1-0.5,0.2
		c-0.2,0.2-0.2,0.3-0.2,0.5l1,17.7l0.1,1.4l0.2,3.1l0.1,0.7c0,0.2,0.1,0.4,0.2,0.5c0.2,0.1,0.3,0.2,0.5,0.2h0.1l5.5-0.3h0.1
		c0.4,0,0.7-0.3,0.6-0.7L196.9,144.4z M191.4,144.7l-0.2-3.9l-1-17.7l4.1-0.2l1.3,21.6L191.4,144.7z"/>
	<polygon class="st5" points="195.5,144.5 191.4,144.7 191.2,140.9 190.2,123.1 194.3,122.9 	"/>
	<path class="st5" d="M182,137.7c0.1,1.1-0.3,2.2-1.1,3l-5.6,0.3c-1.7-1.4-1.9-4-0.5-5.8c0.4-0.5,1-0.9,1.5-1.1
		c0.3-0.1,0.5-0.4,0.5-0.7l-0.1-1.8l0.9-0.1l0,0l0.8-0.1l0.1,1.8c0,0.3,0.2,0.6,0.5,0.6C180.6,134.5,181.8,135.9,182,137.7
		L182,137.7z"/>
	<path class="st5" d="M180.5,130.7c0,0.4-0.2,0.7-0.6,0.7l0,0l-1.4,0.1l-0.8,0.1l0,0l-0.9,0.1l-1.3,0.1h-0.2c-0.4,0-0.7-0.3-0.6-0.7
		c0-0.4,0.3-0.7,0.7-0.7h0.6l1-0.1l0,0l1.4-0.1h0.1l0.8-0.1l0.6-0.1C180.1,130,180.4,130.4,180.5,130.7z"/>
	<path class="st5" d="M192.3,109.5c-8.2,3-13.7,10.8-14,19.5c0,0.4,0,0.8,0,1.2c0,0.4,0,0.5,0,0.7c0,0.3-0.2,0.6-0.4,0.7
		c-0.1,0.1-0.2,0.1-0.2,0.1l0,0c-0.1,0-0.2,0-0.2-0.1c-0.2-0.1-0.4-0.3-0.5-0.6c0-0.2,0-0.5,0-0.7s0-0.7,0-1.1
		c0.1-1.6,0.3-3.3,0.6-4.9c0.6-2.4,1.5-4.7,2.9-6.8c2.7-4.3,6.7-7.5,11.4-9.3c0.4-0.1,0.8,0.1,0.9,0.5
		C192.7,108.9,192.6,109.3,192.3,109.5L192.3,109.5z"/>
	<path class="st5" d="M178.3,130.1L178.3,130.1c0,0.2,0,0.5,0,0.8c0,0.2-0.2,0.6-0.4,0.6c-0.1,0.1-0.2,0.1-0.2,0.1l0,0
		c-0.1,0-0.2,0-0.2-0.1c-0.3-0.1-0.5-0.4-0.5-0.7c0-0.2,0-0.4,0-0.6c0-0.4,0-0.8,0-1.1c-0.2-5.2-2.2-9.3-5-10.2
		c-0.6-0.2-2.8-0.7-4.3,0.6c-0.9,0.9-1.4,2.1-1.4,3.3c0,0.4-0.3,0.7-0.7,0.7s-0.7-0.3-0.7-0.7l0,0c0-1.7,0.7-3.3,1.9-4.4
		c2.1-1.7,4.9-1,5.7-0.8c2.4,0.7,4.3,3.2,5.2,6.7c0.4,1.5,0.7,3.1,0.7,4.7C178.3,129.3,178.3,129.7,178.3,130.1z"/>
	<path class="st5" d="M243.8,191.1c-0.7,0-1.3-0.6-1.4-1.3l-0.2-4.3c-0.1-0.7,0.6-1.4,1.3-1.4l0,0l15.7-0.9c0.7-0.1,1.4,0.5,1.4,1.3
		l0,0l0.2,4.3c0.1,0.7-0.6,1.4-1.3,1.4l0,0L243.8,191.1L243.8,191.1z M243.9,189.8L243.9,189.8z M259.2,184.5l-15.6,1l0.3,4.2
		l15.6-0.9L259.2,184.5z"/>
</g>
<path class="st6" d="M222,172c-1.7,2.2-3.8,4.3-6,5.9c-1.1,0.9-2.4,1.5-3.9,1.8c-0.4,0.1-0.9,0.1-1.3,0c-1-0.1-2.2-0.5-2.2-1.4
	c-0.2-1.4,3-2.9,3.9-3.6c1.8-1.4,3.3-3.2,4.4-5.2c0.5-0.9,0.6-2,0.2-3c-0.7-1.4-2.6-1.7-3.9-2.1c-1.8-0.6-3.7-1-5.6-1.4
	c-3.8-0.7-7.6-1.3-11.4-1.7c-1.6-0.2-3.2-0.3-4.8-0.4c-0.9-0.1-1.8-0.1-2.6-0.1c-1.9,0-4.2-0.1-5.9,1.2c-0.9,0.7-1.5,1.8-1.8,3
	c-0.7,2.9-0.1,6.7,0.9,9.5c1.4,3.9,3.8,10.4,2.7,14.4c-1.5,6.3-11.3,9.9-18.5,10.4c-0.2,0-0.2,0-0.4,0h-0.5
	c-2.8,0.1-12.8,0.2-16.8-5.9c-3.3-5.3-1.3-13.9,0-19.6c0.9-3.8,2.1-7.1,1.8-9.2c-0.1-0.6-0.4-1.2-0.8-1.6c-0.5-0.5-1.1-0.8-1.8-0.9
	c-1.1-0.2-2.2-0.4-3.5-0.4c-1.1,0-2.2,0.3-3.1,0.9s-1.8,1.3-2.4,2.1c-1.7,1.8-3.1,4-4.1,6.3c-1.1,2.7-1.6,6.8,0.4,9.3
	c1,1.4,2.8,2,4.4,2.4c1,0.2,2.1,0.6,3,1.1l0.2,0.2c0.6,0.5,0.8,1.2,0.8,1.9c-0.1,0.7-0.6,0.9-1.2,1.1c-0.4,0.2-0.9,0.3-1.3,0.4
	c-0.8,0.2-1.6,0.2-2.4,0.2c-3.5,0-7-1.1-9.9-3.2c-2.2-1.8-3.9-4.1-4.7-6.8c-2.4-7.8,3.1-15.2,4.8-17.4c3.2-4.1,7.5-7.3,12.4-9.3
	l1-0.4c6.2-2.7,13.3-3.7,16.1-4.2c0.5-0.1,0.9-0.1,1.4-0.2c3.7-0.4,7.4-0.3,11.1,0.2c7.1,0.9,14,2.2,20.9,3.9
	c4.8,1.1,9.6,2.5,14.4,4c3.6,1.2,7.4,2.2,10.8,4c2.7,1.4,5.2,3.3,6.3,6.3C224,167,223.5,169.8,222,172z"/>
<path class="st7" d="M285.8,66.7c-0.2-0.1-0.6-0.1-0.8-0.1L58.3,78.5c-2.1,0.1-3.7,1.8-3.5,3.9l7.1,136.3c0,0.2,0.1,0.6,0.2,0.8
	c-1.8-0.3-3-1.8-3.1-3.5L51.7,79.7c-0.1-2.1,1.4-3.9,3.5-3.9L282,64C283.7,63.8,285.3,65,285.8,66.7z"/>
<path class="st8" d="M289,70.3l7.1,136.3c0.1,2.1-1.4,3.9-3.5,3.9l0,0L65.8,222.2c-1.8,0.1-3.3-1-3.8-2.7c0.2,0.1,0.6,0.1,0.8,0
	l226.7-11.8c2.1-0.1,3.6-1.8,3.5-3.9l0,0L286,67.5c0-0.2-0.1-0.6-0.2-0.8C287.5,67.1,288.9,68.5,289,70.3z"/>
<path class="st9" d="M225.9,212.1l-35.2,1.8c0.1-1,0.1-2.1,0.2-3.1c0.2-3.5,0.6-6.8,1-10l31.3-1.7c0.6,2.2,1.5,5.9,2.3,10.2
	C225.6,210,225.7,210.9,225.9,212.1z"/>
<path class="st10" d="M259.6,146c-0.6-1.4-1.6-1.8-2.5-0.5c-1.4,2.1-1.7,5-2.7,7.2c-3.9,8.4-13.6,12.4-22.2,13
	c-2.9,0.2-5.8,0.1-8.7-0.2c-2.6-0.3-5.1-0.7-7.6-1.2c-0.9-0.2-1.8-0.4-2.7-0.6c-3.2-0.7-6.9-0.7-11.8-0.2c-1,0.1-1.9,0.2-2.8,0.5
	c-1.8,0.4-3.6,0.8-5.4,1.4l-0.3,0.1c-7,2.2-11.6,3.6-15.2,5.1c0.2,0.6,0.2,1.2,0.3,1.8c0.2,2.6,0.5,5.4,0.6,8.1c1.9-1,4-1.7,6.1-2.2
	c2.1-0.4,6.5-1.5,8.3,0.2c0.4,0.4,0.6,0.9,0.7,1.4c0.3,1.9-0.8,4.8-1.5,8.3c-1.2,5.1-3,12.8,0,17.6c3.7,5.9,13.7,5.4,15.4,5.3
	c6.5-0.3,15.6-3.6,16.9-9.3c0.9-3.7-1.2-9.5-2.5-13c-0.6-1.9-1-3.9-1-6c0-1.1-0.1-2.5,0.6-3.5c0.1-0.1,0.1-0.2,0.2-0.2
	c1-1.1,2.9-1,4.3-1.1c7.1-0.7,13.8-3.1,19.8-7c2.9-1.9,5.5-4.2,7.7-6.8C257.6,159.4,262.3,152.7,259.6,146z"/>
<polygon class="st4" points="36.7,73.7 36.1,72.4 165.6,11.7 299.9,58.7 299.5,60 165.7,13.2 "/>
<path class="st11" d="M186.6,212.2c-0.2-8.5-1.4-17-3.5-25.3l-35,3.2c-0.8,5.3-1.2,9.8-1.4,13.2c-0.6,10.2,0.5,12.5,1.7,14
	c2.1,2.6,5.1,3.4,7.3,3.9c6.7,1.6,11-0.8,21.3-3c4.4-1,8.8-1.6,13.3-2.1L186.6,212.2z"/>
<path class="st9" d="M191.3,161c-0.9-0.1-1.8-0.1-2.6-0.1c-1.9,0-4.2-0.1-5.9,1.2c-0.9,0.7-1.5,1.8-1.8,3c-0.7,2.9-0.1,6.7,0.9,9.5
	c1.4,3.9,3.8,10.4,2.7,14.4c-1.5,6.3-11.3,9.9-18.5,10.4c-0.2,0-0.2,0-0.4,0h-0.5c-2.8,0.1-12.8,0.2-16.8-5.9
	c-3.3-5.3-1.3-13.9,0-19.6c0.9-3.8,2.1-7.1,1.8-9.2c-0.1-0.6-0.4-1.2-0.8-1.6c-0.5-0.5-1.1-0.8-1.8-0.9c-1.1-0.2-2.2-0.4-3.5-0.4
	c-1-4.3-2.4-7.8-3.1-10.8l1-0.4c6.2-2.7,13.3-3.7,16.1-4.2c0.5-0.1,0.9-0.1,1.4-0.2c3.7-0.4,7.4-0.3,11.1,0.2
	c7.1,0.9,14,2.2,20.9,3.9c-0.5,1.4-0.8,2.9-0.9,4.3C190.6,156.8,190.7,158.9,191.3,161z"/>
<path class="st6" d="M148.3,123c-0.1-0.1-0.2-0.1-0.2-0.2c-0.2-0.1-0.4,0-0.6,0.1c-2.1,0.8-4.2,2.6-4.5,4.9
	c-0.2,0.8,0.1,1.6,0.5,2.3c0.9,1.1,2.6,1.3,4,0.9c1.9-0.6,3.6-1.8,4.7-3.5l-3.7-4.3C148.4,123.1,148.4,123.1,148.3,123z"/>
<path class="st6" d="M181.5,123.6c2.5-0.2,4.6,1,5.2,2.9c0.3,1.2,0.1,2.5-0.6,3.5c-0.8,1.2-2.1,2.1-3.5,2.2c-2.2,0.2-4.5-1.4-5.2-4
	L181.5,123.6z"/>
<path class="st6" d="M171.3,140c0,2.2-0.2,4.3-0.6,6.4c-0.2,0.7-0.3,1.4-0.5,2.1c-0.7,1.4-1.5,2.6-2.4,3.9c-0.8,1-1.7,2-2.6,2.9
	c-0.7,0.7-1.8,0.7-2.6,0c-0.5-0.5-1-1-1.4-1.6c-1-1.2-1.8-2.6-2.5-4c-0.2-1-0.3-2-0.4-3.1c0-0.2-0.1-0.5-0.1-0.7
	c-0.1-1.2-0.2-2.4-0.2-3.5c0-2.1,0.2-4.1,0.4-6.2l12-2.7c0.2,1,0.4,2,0.6,3C171.2,137.6,171.3,138.8,171.3,140z"/>
<path class="st6" d="M144.7,122.5c1.1,2.5,2.4,2,3.6,4.6c1,2.2,0.8,3.9,2.6,5.7c0.1,0.1,0.4,0.4,0.9,0.8c3.8,3.3,8.6,5.2,13.6,5.4
	c4.3,0.2,8.6-1,12.1-3.5c0.9-0.6,1.7-1.2,2.3-2c1.2-1.9,0.3-3.2,1.1-5.7c0.8-2.7,2.3-2.7,3-4.8c0.6-2.1-0.3-4.4-2.2-7.3
	c-5.5-8.2-9.6-14.7-17.5-14.9c-10.3-0.3-19.4,9.1-20,16.6C143.9,119.1,144.1,120.8,144.7,122.5z"/>
<path class="st9" d="M184.5,119.5c-0.1-0.7-0.2-1.5-0.3-2.2c-0.3-1.8-0.7-3.7-1.4-5.4c-0.6-2-1.5-3.9-2.6-5.6
	c-1.7-2.5-3.9-4.6-6.6-6c-4.2-2.3-8.9-3.4-13.6-2.9c-3.2,0.1-6.3,1-9.1,2.6c-2.6,1.5-4.7,3.7-6.3,6.3c-1.7,3-2.6,6.5-2.3,10
	c0,0.5,0.1,0.9,0.1,1.4c0.1,1.1,0.4,2.3,0.8,3.4c0.6,1.6,2,2.8,3,4.2c1.2,1.6,2.1,3.4,2.6,5.3c0.1,0.5,0.2,1,0.5,1.4
	c0.4,0.6,1,1.2,1.8,1.5c3.5,2,2.7,2.7,5.7,4.3c3,1.5,6.4,2.2,9.8,2c0.6,0,6.5-0.2,11.1-3.6c1.1-0.8,2-1.9,2.6-3.2
	c0.6-1.4,0.4-3,1-4.4c0.6-1.4,2-2.4,2.7-3.8C184.9,123.2,184.8,121.3,184.5,119.5z M180.1,124.6c-0.3,1.4-0.7,2.7-1.8,3.1
	c-0.8,0.2-1.7,0-2.3-0.5c-1.4-1-0.7-2.6-1.7-3.5c-1.1-1-2.8,0.3-6.3,0.8c-3.2,0.4-6.4,0.2-9.5-0.4c-2-0.5-2.9-0.9-3.9-0.4
	c-1.8,1-1.5,4.1-2.8,4.3c-0.6,0.1-1-0.4-1.8-1.3c-0.9-1-1.5-2.1-1.9-3.3c-0.5-1.6-0.6-3.4-0.5-5.1c0.1-2.1,0.6-4.1,1.5-5.9
	c0.6-1.1,1.8-3.4,4-4.3c3.3-1.4,5.3,1.9,10.5,2.5c6.8,0.7,10.1-4.2,13.1-2.1c1.1,0.7,1.8,3.2,3.1,8.2c0.4,1.3,0.6,2.6,0.6,4
	C180.5,122.1,180.4,123.4,180.1,124.6z"/>
<path class="st12" d="M154.9,129.6c0.6,1.4,2.5,3.1,3.1,3.6c1.8,1.4,4.1,2.2,6.4,2.2c2.2,0.2,4.3-0.5,6.1-1.8c1.9-1.5,3.8-4.4,3-5.5
	c-0.8-1.1-3.5,1-8.7,0.8c-5.2-0.2-8.7-2.4-9.7-1C154.7,128.4,154.6,129,154.9,129.6z"/>
<path class="st1" d="M168.1,217.4c-0.3,0.2-0.8,0.1-1-0.2c-1.2-1.5-0.5-7.8-0.2-10.2c0.2-1.5,0.3-2.5,0.6-2.5s0.3,0.6,0.5,1
	c0.9,3.4,1.3,5.9,1.4,6.7c0.3,2,0.4,2.6,0.2,3.2c-0.1,0.6-0.4,1.2-0.9,1.6C168.6,217.3,168.3,217.4,168.1,217.4z"/>
<path class="st10" d="M121,186.4c0.6-1.8,0.3-3.9-0.6-5.6c-0.1-0.2-0.2-0.4-0.2-0.6l-0.6,0.1c-0.6,0.1-1.4,0.1-2,0.2
	c-7.2,0.3-15.6-2.2-19.5-8.8c-1-1.8-1.5-4.2-2.9-5.8c-0.8-1-1.7-0.5-2,0.6c-1.8,5.7,2.7,10.9,6.6,14.5c2.1,2,4.4,3.7,7,5
	c3.7,1.8,7.7,3.1,11.9,3.7l0.9,0.1C119.9,188.5,120.6,187.7,121,186.4z"/>
<path class="st10" d="M153.3,161.7c-0.2-1-0.9-1.8-1.8-2.4c0.2,0.1,0.4,0.1,0.6,0.2c-0.7-0.8-0.8-1.9-0.2-2.9c1.4-2.4,0-6.3-1-8.6
	c-1.4-3.3-4.5-5.2-7.8-6.3c-0.5-0.2-1-0.3-1.4-0.4c-2.6,2.3-6.3,3.5-9.5,4.7c-3,1.1-5.9,2.8-9,3.8c-0.6,3.3-0.1,6.9,0,10.1
	c0,0.8-0.3,1.5-1,2c0.2,0.1,0.4,0.1,0.6,0.1c-1,0.4-1.6,1.1-1.8,2.1c-0.2,0.9,0.2,1.8,0.7,2.6c0.7,0.9,1.7,1.4,2.8,1.4
	c0.4,0,0.7-0.1,1.1-0.2c0.9,1.2,2,2.2,3.3,3c1.4,0.8,2.8,1.4,4.4,1.5c0.1,1.4,0.2,3,0.6,4.3l0,0l-0.2,0.1l0,0c0.7,1,1.4,2.2,2.2,3.3
	c0.2,0,0.3-0.1,0.6-0.1c2.2,0,4.7-0.5,6.9,0.1c0.3-1.3,0.7-2.6,1-3.9c0-0.2-0.1-0.2-0.1-0.4h-0.8v-0.1c-0.1-1.8-0.3-3.5-0.7-5.1
	c1.9-1,3.6-2.4,5-4.1c0.6-0.7,1.2-1.5,1.7-2.4c0.2,0.1,0.6,0.2,0.8,0.2c1,0.2,2.3,0,2.9-1C153.3,162.9,153.4,162.4,153.3,161.7z"/>
<path class="st10" d="M179.7,197.5c-1.5-9.7-12-15.9-12.6-16.1c-1.8-1-3.7-1.7-5.6-2.2l-0.2-0.1c-0.1,0.2-0.2,0.4-0.3,0.6
	c-1.8,1.8-2.2,4.6-1.3,6.9c0.1,0.2,0.1,0.2,0.1,0.4l0.6,0.1l0,0c5.4,1.2,10.3,4.5,12.7,9.5c0.9,1.7,1.4,3.6,1.6,5.5
	c0.2,3.5-1,6.5,0,7c0.2,0.1,0.6,0.1,0.8,0c0.3-0.1,1.9-0.6,3.2-3.5C179.7,203.1,180.1,200.3,179.7,197.5z"/>
<path class="st13" d="M160.3,187.1c-0.8-0.2-1.6-0.3-2.4-0.4c-1.8-0.2-5.5-0.6-6.8,0.9c-0.2,0.4-0.4,0.8-0.5,1.3
	c-0.1,1.6,1,3.9,2,6.7c0.6,1.6,1.1,3.3,1.5,4.9c0.4,1.7,0.6,3.5,0.7,5.1c0.1,2.3,0.2,4.7,0.6,7.1c0.2,1.2,0.4,2.3,0.6,3.5
	c0.2,0.9,0.5,1.8,0.1,2.7c-0.2,0.3-0.4,0.6-0.7,0.9l-17.1,0.1c-3.6-0.6-7.9-1.6-13-2.9c0.2,0,1-5.2,1.1-5.6c0.3-2.8,0.2-5.7,0.6-8.5
	c0.5-3,1.4-6.3,1.2-9.3c0-1-0.2-2-0.8-2.8c-0.1-0.1-0.1-0.2-0.2-0.2c-0.9-0.9-2.5-0.6-3.7-0.6c-1.7,0-3.4-0.1-5.1-0.3
	c2.2-2.6,2.6-6.3,1-9.4c1.7-0.2,3.5-0.4,5.1-0.8c2.1-0.5,4.2-1,6.2-1.7c0.7-0.2,1.5-0.5,2.2-0.7l0.7-0.2c3,2.2,7.1,1.8,9.5-1v0.1
	c0.6,0,1.2,0,1.8,0.1c1.5,0.2,3,0.3,4.6,0.6c0.1,0,0.2,0.1,0.2,0.1c5,1,8.6,1.7,11.4,2.5c-1.1,1.2-1.8,2.7-1.9,4.4
	C159.5,184.9,159.8,186.1,160.3,187.1z"/>
<path class="st12" d="M144.1,164.5c-0.5,1.1-1.2,2.1-2.1,3c-1.3,1.2-3,1.9-4.7,2.2c-1.6,0.2-3.3-0.2-4.7-1c-1.4-0.8-3-2.6-2.6-3.4
	c0.4-0.8,2.9,0.5,6.9-0.2c3.7-0.6,6.2-2.6,7-1.7C144.1,163.6,144.2,164,144.1,164.5z"/>
<path class="st9" d="M152.9,159.4c-0.2,0.1-0.5,0.2-0.7,0.2h-0.5h-0.3c-6.1-0.3-12.1-1.4-18-3.4c-2.2-0.8-4.3-1.8-6.3-2.9
	c-0.2,1.3-1.7,8.8-3.9,8.8c-0.2,0-0.3,0-0.5-0.1c-0.2,0-0.4,0-0.6-0.1c-0.2-0.1-0.4-0.2-0.6-0.3c-1-0.7-1-2.2-0.9-3.4
	c0.2-5,0.3-7.7,2.5-10.8c0.6-1,1.4-1.8,2.3-2.6c-1.1-0.2-2.1-1-2.6-2.1c-0.4-1.2,0-2.6,1-3.4c0.7-0.4,1.6-0.5,2.3-0.2
	c0.1-1.2,0.5-2.4,1.2-3.4c2.1-2.5,6-2.2,8.3-1.3c1.1,0.4,3.5,1.4,3.7,3.5c0,0.8-0.2,1.6-0.7,2.3c2.8-0.1,5.5,0.6,7.9,1.9
	c0.6,0.3,6.1,3.5,7.4,9.5C154.8,154.4,154.7,158.6,152.9,159.4z"/>
<path class="st10" d="M191.8,144.4c-0.1-0.1-0.2-0.1-0.2-0.1c-0.2,0-0.4,0-0.6,0.1c-1.8,0.7-3.8,2.3-4,4.4c-0.1,0.7,0,1.4,0.4,2.1
	c0.8,1,2.3,1.1,3.5,0.7c1.8-0.5,3.3-1.7,4.2-3.2l-3.3-3.9C191.9,144.5,191.9,144.5,191.8,144.4z"/>
<path class="st10" d="M221.5,145c2.2-0.2,4.1,1,4.7,2.6c0.3,1.1,0.1,2.2-0.6,3.2c-0.7,1.1-1.9,1.8-3.2,2c-2.2,0-4.2-1.4-4.7-3.6
	L221.5,145z"/>
<path class="st10" d="M200.9,156c-0.4,2.9-0.5,5.8-0.2,8.7c0.1,1.2,0.2,2.3,0.5,3.5c0.9,1.8,2.1,3.5,3.5,5.1c0.6,0.6,1.6,0.6,2.2,0
	l0,0c1.8-1.8,3.4-3.8,4.5-6c0.9-3.5,1.1-7.3,0.7-10.9c-0.1-1-0.3-1.9-0.5-2.7L200.9,156z"/>
<path class="st10" d="M188.8,143.9c1,3.5,2.9,6.7,5.5,9.2c3.4,3.4,7.9,5.4,12.7,5.7c3.7,0.3,7.4-0.7,10.4-3c2.4-1.8,4.2-4.3,5-7.2
	c1.1-4.3-0.6-7.9-1.7-10.4c-1.5-3.3-6.1-13.1-15.4-13.6c-8.9-0.4-16.8,7.8-17.1,14.4C188.2,140.7,188.4,142.3,188.8,143.9z"/>
<path class="st9" d="M273.1,84.9c0,2-0.4,3.9-1,5.8c-1,2.6-2.6,5-4.7,6.9c-3.6,3.3-8.3,5.1-13,6.1c-2.1,0.4-5,0.8-6.5,2.5
	c-1.5,1.7-1,4.5-0.9,6.7c0.2,3.5-0.7,6.9-2.6,9.7c-1.5,2.1-3.7,3.6-6.2,4.3c-2.2,0.6-4.8-0.4-6.7,1.4c-1.8,1.6-1,3.1-2.6,7.5
	c-0.5,1.4-3.1,9.2-6.3,9.3c-3,0.1-3.4-7.1-8.4-8.5c-2.7-0.8-3.5,1.1-8.2,0.9c-5.1-0.2-6.1-2.5-8.6-1.7c-4.7,1.5-4.5,10.1-7.1,10.1
	c-1.7,0.1-3.3-3.5-3.9-6.2c-1.4-6.1,1.4-12.6,5.5-16.8c4.1-4.2,9-5.7,12.2-6.5c4.5-1.2,9.1-1.8,13.6-3.3c2.6-0.9,5.2-2.1,6.6-4.4
	c1-1.8,1.3-3.9,1.9-5.9c2-6.2,8.3-9.1,14.1-10.6c4.6-1,9.2-1.5,13.9-1.5c3.5-0.1,7.2-0.2,9.9-2.4c1.4-1.1,2.3-2.6,3.5-3.9
	s3.6-2.3,4.7-1.4C272.9,83.6,273.1,84.1,273.1,84.9z"/>
<path class="st12" d="M195.4,147.3c0.6,1.7,2.6,3.7,3.3,4.3c2,1.7,4.5,2.7,7.1,2.9c2.4,0.2,4.9-0.4,7-1.7c2.1-1.3,4.4-4,3.8-5.2
	c-0.7-1.4-4.3,1-10.4,0.2c-5.6-0.7-9.3-3.6-10.6-2.2C195.3,146,195.2,146.7,195.4,147.3z"/>
<path class="st11" d="M221.9,189c-0.6-1.9-1-3.9-1-6c0-1.1-0.1-2.5,0.6-3.5c0.1-1.6,0.3-3.8,0.7-6.9c0.3-2.7,0.8-5.1,1.2-7.1
	c-2.6-0.3-5.1-0.7-7.6-1.2c0,0.3,0,0.6,0,1c1.7,3.5,0.6,8.3-3,10.1c-0.4,0.5-0.9,0.9-1.4,1.1c-2.6,1.4-5.8,0.7-7.9-0.5
	c-2.5-1.5-3.4-3.9-4.1-5.7c-0.7-2-1-4.2-0.9-6.3c-1.8,0.4-3.6,0.8-5.4,1.4c0.3,2,0.6,3.7,0.7,5.1c0.3,2,0.4,4.1,0.3,6.1
	c-0.1,1.2-0.2,2.3-0.6,3.5c0.3,1.9-0.8,4.8-1.5,8.3c-1.2,5.1-3,12.8,0,17.6c3.7,5.9,13.8,5.4,15.4,5.3c6.5-0.3,15.6-3.6,16.9-9.3
	C225.2,198.2,223.1,192.3,221.9,189z"/>
<path class="st0" d="M308,52.1l9,173.3c0.1,2.1-1.4,3.9-3.5,3.9l0,0L49.7,243c-2.1,0.1-3.9-1.4-3.9-3.5l0,0v-0.6l263.1-13.7
	c2.1-0.1,3.6-1.8,3.5-3.9l0,0l-9-172.7h0.6C306,48.5,307.8,50,308,52.1z"/>
<circle class="st14" cx="165.1" cy="11.2" r="3.9"/>
<path class="st6" d="M143.7,185.8c-0.1,0.7-0.6,0.9-1.2,1.1c-1.2,0.4-2.5,0.6-3.8,0.6c-3.5,0-7-1-9.9-3c-1.7-1.3-3.1-3-4.1-4.9
	c-0.2-0.5-0.5-1-0.6-1.6c-0.9-3-0.8-6.3,0.4-9.2c0.3,0,0.7-0.1,1-0.2c0.9,1.2,2.1,2.2,3.4,2.9c1.4,0.8,2.9,1.3,4.4,1.5
	c0.1,1.2,0.2,2.5,0.5,3.7c0,0.2,0,0.4,0,0.6c0.1,1.2,0.6,2.4,1.3,3.4c1,1.3,2.8,1.9,4.5,2.3c1,0.2,2.1,0.5,3,1
	C143.3,184.3,143.7,185,143.7,185.8z"/>
<g class="st3">
	<polygon class="st15" points="149.8,60.2 143.4,71.2 58.7,214.1 52.1,225.3 40.8,225.9 39.6,202.8 56.7,174 116.7,72.6 123.2,61.7 
			"/>
</g>
<g class="st3">
	<polygon class="st15" points="70.8,227.6 58.5,228.3 156.1,63.2 168.4,62.5 	"/>
</g>
<path class="st14" d="M303.5,48c-0.1-2.1-1.8-3.6-3.9-3.5l0,0L35.8,58.3c-2.1,0.1-3.6,1.8-3.5,3.9l0,0l7.3,140.5l1.2,23.1l0.5,9.5
	c0.1,2.1,1.8,3.6,3.9,3.5c0,0,0,0,0.1,0l263.7-13.7c2.1-0.1,3.6-1.8,3.5-3.9c0,0,0,0,0-0.1L303.5,48z M289.5,207.7L62.8,219.5
	c-2.1,0.1-3.9-1.4-3.9-3.5l0,0l-0.1-1.8L56.7,174l-4.9-94.3c-0.1-2.1,1.5-3.9,3.5-3.9l61.4-3.2l26.6-1.4L282.1,64
	c2.1-0.1,3.9,1.5,3.9,3.5l7.1,136.3C293.1,205.8,291.6,207.6,289.5,207.7L289.5,207.7z"/>
<path class="st6" d="M222,172c-0.7,1.3-1.8,2.4-2.9,3.3c-1.8,1.4-3.7,2.3-5.9,3c-2.2,0.8-4.6,1.2-7,1.2c-1.1,0-2.2-0.3-3.3-0.7
	c-0.7-0.3-2.6-1.1-2.4-2.1c0.2-1,3.5-0.5,8.3-2.1c2.4-0.8,5.6-1.9,6.6-4.6c0.4-1,0.4-2.2,0.1-3.2c-0.4-1-1.2-1.9-2.2-2.4
	c-0.3-0.2-0.7-0.2-1-0.3c0-0.2,0.1-0.3,0.1-0.5c0.2-1.8,0.3-3.5,0.2-5.3c0.9-0.2,1.7-0.5,2.5-0.9c0.6,0.3,1.4,0.6,2,0.9
	c2.7,1.4,5.3,3.3,6.3,6.3c0.1,0.3,0.2,0.6,0.2,1C223.6,167.8,223.1,170.1,222,172z"/>
</svg>
