<?xml version="1.0" encoding="utf-8"?>
<!-- Generator: Adobe Illustrator 22.0.1, SVG Export Plug-In . SVG Version: 6.00 Build 0)  -->
<svg version="1.1" id="Layer_1" xmlns="http://www.w3.org/2000/svg" xmlns:xlink="http://www.w3.org/1999/xlink" x="0px" y="0px"
	 viewBox="0 0 320 260" style="enable-background:new 0 0 320 260;" xml:space="preserve">
<style type="text/css">
	.st0{fill:#E5F8FA;}
	.st1{fill:#F5FBFE;}
	.st2{opacity:0.7;}
	.st3{opacity:0.4;}
	.st4{fill:#99BBC5;}
	.st5{fill:#BCD3D8;}
	.st6{fill:#FFA575;}
	.st7{fill:#EFF2EC;}
	.st8{fill:#E5F9F8;}
	.st9{fill:#00566F;}
	.st10{fill:#FFCBB0;}
	.st11{fill:#4CCEE0;}
	.st12{fill:#FEFDF2;}
	.st13{fill:#4C889A;}
	.st14{fill:#FFFFFF;}
</style>
<title>addFamilySansBunSpot</title>
<path class="st0" d="M18.3,232.3C9,221.6,2.8,207.5,1.1,189.7c-2.9-30.2,7.9-60.6,25.2-85.5s40.9-44.9,65.4-62.7
	c26.9-19.4,56.7-37.1,89.7-40.1C233.6-3.3,284.3,31.7,307,78.9c13,27,18.1,61.1,4.1,88.8c-17.2,34-54.9,47-88.6,58.5
	c-39,13.4-78,28.4-119,33C70.4,262.8,37.7,254.8,18.3,232.3z"/>
<path class="st1" d="M285.9,68l7.1,136.2c0.1,2.1-1.5,3.8-3.5,3.9c0,0,0,0,0,0L62.8,220c-2.1,0.1-3.8-1.5-3.9-3.5c0,0,0,0,0,0
	L51.8,80.2c-0.1-2.1,1.5-3.8,3.5-3.9L282,64.5C284,64.3,285.8,65.9,285.9,68C285.9,68,285.9,68,285.9,68z"/>
<g class="st2">
	<g class="st3">
		
			<rect x="200.8" y="126.9" transform="matrix(0.9984 -5.738978e-02 5.738978e-02 0.9984 -7.0164 11.8957)" class="st4" width="5.6" height="2.4"/>
		
			<rect x="172.4" y="142.4" transform="matrix(0.9984 -5.738980e-02 5.738980e-02 0.9984 -8.0157 10.1978)" class="st4" width="2.4" height="4.6"/>
		
			<rect x="195.3" y="127.2" transform="matrix(0.9984 -5.738978e-02 5.738978e-02 0.9984 -7.0438 11.5787)" class="st4" width="5.6" height="2.4"/>
		
			<rect x="189.7" y="127.6" transform="matrix(0.9984 -5.738978e-02 5.738978e-02 0.9984 -7.0711 11.2607)" class="st4" width="5.6" height="2.4"/>
		<polygon class="st4" points="216,148.4 75.4,156.5 75.1,152.6 95.1,151.4 116.4,150.2 135.2,149.1 148.4,148.4 167.7,147.3 
			172.5,147 173.2,147 174.9,146.9 190.7,145.9 196.3,145.6 201.8,145.3 201.8,145.3 207.3,145 215.8,144.5 		"/>
		<polygon class="st4" points="133.9,126.1 129.2,126.4 127.8,101.6 97,103.4 99.6,148.4 116.3,147.4 116.4,150.2 95.1,151.4 
			92.1,98.9 132.2,96.6 		"/>
		<path class="st4" d="M147,125.4l-13.2,0.8l-4.7,0.3l-14.1,0.8l1.2,20.2l0.2,2.8l18.8-1.1l13.1-0.8L147,125.4z M135,146.2l-4.7,0.3
			l-10.2,0.6l-1-16.8l10.2-0.6l4.7-0.3l9.2-0.5l1,16.8L135,146.2z"/>
		<path class="st4" d="M173.4,124.7c1.3,0.1,2.5-0.5,3.3-1.6c0.8-1.3,0.9-2.9,0.4-4.4c-0.6-1.6-1.9-3-3.5-3.6
			c-1.4-0.5-2.8-0.6-4.2-0.2c-2.2,0.5-4.1,1.9-5.2,3.8c-1.5,2.5-1.7,6.1,0.1,8.4c0.1,0.2,0.3,0.3,0.5,0.4c1,0.4,1.6-1,1.8-1.7
			c0.2-0.7,0.5-1.4,1-1.9c1-0.8,2.3-1,3.5-0.4c0.6,0.4,1.2,0.7,1.9,1C172.9,124.7,173.2,124.7,173.4,124.7z"/>
		<path class="st4" d="M179.9,112.6c-0.3,0.9-1.3,3.5,0,6.1c0.9,1.8,2.6,3.4,4.7,3.5c2.7,0,4.9-2.4,6.4-4.4c2-2.5,3.7-5.4,6.3-7.4
			c1.6-1.2,3.3-1.6,5.2-2.2c0.3,0,0.5-0.2,0.7-0.5c0.2-0.4-0.1-0.7-0.4-1c-0.6-0.5-3.1-2.4-8.8-2c-2.4,0-4.8,0.6-7.1,1.5
			C185,107.2,181.3,108.8,179.9,112.6z"/>
		<path class="st4" d="M252,182.9l-0.3-4.9c0-0.2,0.1-0.4,0.3-0.4l16.3-0.9c0.2,0,0.4,0.1,0.4,0.3l0.3,4.9c0,0.2-0.1,0.4-0.3,0.4
			l-16.3,0.9C252.2,183.2,252,183.1,252,182.9z"/>
		<path class="st4" d="M117.6,207.9l-0.3-4.9c0-0.2,0.1-0.4,0.3-0.4l16.3-0.9c0.2,0,0.4,0.1,0.4,0.3l0.3,4.9c0,0.2-0.1,0.4-0.3,0.4
			l-16.3,0.9C117.8,208.3,117.6,208.1,117.6,207.9z"/>
		<path class="st4" d="M230.8,89.4l-0.3-4.9c0-0.2,0.1-0.4,0.3-0.4l16.3-0.9c0.2,0,0.4,0.1,0.4,0.3l0.3,4.9c0,0.2-0.1,0.4-0.3,0.4
			l-16.3,0.9C230.9,89.8,230.8,89.6,230.8,89.4z"/>
	</g>
	<path class="st5" d="M206.7,121.9c0-0.2-0.1-0.4-0.2-0.5c-0.1-0.1-0.3-0.2-0.5-0.2l-5.5,0.3l0,0c-0.4,0-0.7,0.4-0.7,0.8v0.7
		l1.2,21.6l0,0.7c0,0.2,0.1,0.4,0.2,0.5c0.1,0.1,0.3,0.2,0.5,0.2h0l5.5-0.3c0.4,0,0.7-0.4,0.7-0.8c0,0,0,0,0,0L206.7,121.9z
		 M202.5,144.6l-1.2-21.6l4.1-0.2l1.2,21.6L202.5,144.6z"/>
	<polygon class="st5" points="206.6,144.3 202.5,144.6 201.2,123 205.4,122.7 	"/>
	<path class="st5" d="M191.4,145.2l-0.2-3.8c0-0.4-0.3-0.7-0.7-0.7c0,0,0,0,0,0h-0.7l-7.1,0.4l-9.1,0.5l-6.1,0.3
		c-0.2,0-0.4,0.1-0.5,0.2c-0.1,0.1-0.2,0.3-0.2,0.5l0.3,4.6c0,0.4,0.3,0.7,0.7,0.7l0,0l23-1.3h0c0.4,0,0.7-0.4,0.7-0.8L191.4,145.2z
		 M168.4,146.6l-0.2-3.1l21.6-1.2l0.2,3.1L168.4,146.6z"/>
	
		<rect x="168.3" y="142.8" transform="matrix(0.9984 -5.704129e-02 5.704129e-02 0.9984 -7.9426 10.4495)" class="st5" width="21.6" height="3.1"/>
	<path class="st5" d="M202.5,144.6l-1.2-21.6v-0.7c0-0.4-0.3-0.7-0.7-0.7l0,0l-5.5,0.3H195c-0.4,0-0.7,0.4-0.7,0.8l0,0.7l1.2,21.6
		v0.7c0,0.4,0.3,0.7,0.7,0.7h0l5.5-0.3h0c0.2,0,0.4-0.1,0.5-0.2c0.1-0.1,0.2-0.3,0.2-0.5L202.5,144.6z M196.9,144.9l-1.2-21.6
		l4.1-0.2l1.2,21.6L196.9,144.9z"/>
	<path class="st5" d="M196.9,144.9l-1.2-21.6v-0.7c0-0.4-0.3-0.7-0.7-0.7h-0.1l-5.5,0.3c-0.2,0-0.4,0.1-0.5,0.2
		c-0.1,0.1-0.2,0.3-0.2,0.5l1,17.8l0.1,1.4l0.2,3.1l0,0.7c0,0.2,0.1,0.4,0.2,0.5c0.1,0.1,0.3,0.2,0.5,0.2h0l5.5-0.3h0
		c0.4,0,0.7-0.4,0.7-0.7L196.9,144.9z M191.4,145.2l-0.2-3.8l-1-17.8l4.1-0.2l1.3,21.6L191.4,145.2z"/>
	<polygon class="st5" points="195.5,145 191.4,145.2 191.2,141.4 190.2,123.6 194.3,123.4 	"/>
	<path class="st5" d="M182,138.1c0.1,1.1-0.3,2.2-1.1,3l-5.6,0.3c-1.7-1.5-1.9-4-0.5-5.7c0.4-0.5,0.9-0.9,1.5-1.1
		c0.3-0.1,0.5-0.4,0.4-0.7l-0.1-1.8l0.9-0.1l0,0l0.8,0l0.1,1.8c0,0.3,0.2,0.6,0.5,0.6C180.6,134.9,181.8,136.4,182,138.1L182,138.1z
		"/>
	<path class="st5" d="M180.4,131.2c0,0.4-0.3,0.7-0.6,0.7l0,0l-1.4,0.1l-0.8,0l0,0l-0.9,0.1l-1.3,0.1h-0.2c-0.4,0-0.7-0.3-0.7-0.7
		c0-0.4,0.3-0.7,0.7-0.7h0.6l0.9-0.1l0,0l1.4-0.1h0l0.8,0l0.6,0C180.1,130.5,180.4,130.8,180.4,131.2z"/>
	<path class="st5" d="M192.3,109.9c-8.2,3.1-13.7,10.8-14,19.5c0,0.4,0,0.8,0,1.2c0,0.4,0,0.5,0,0.7c0,0.3-0.1,0.6-0.4,0.7
		c-0.1,0-0.2,0.1-0.3,0.1l0,0c-0.1,0-0.2,0-0.3-0.1c-0.3-0.1-0.4-0.3-0.4-0.6c0-0.2,0-0.5,0-0.7c0-0.2,0-0.7,0-1.1
		c0.1-1.6,0.3-3.3,0.7-4.9c0.6-2.4,1.6-4.7,2.9-6.8c2.7-4.2,6.7-7.5,11.4-9.3c0.4-0.1,0.8,0.1,0.9,0.5
		C192.8,109.4,192.6,109.8,192.3,109.9L192.3,109.9z"/>
	<path class="st5" d="M178.3,130.6L178.3,130.6c0,0.3,0,0.5,0,0.8c0,0.3-0.2,0.5-0.4,0.6c-0.1,0-0.2,0.1-0.3,0.1l0,0
		c-0.1,0-0.2,0-0.3-0.1c-0.3-0.1-0.5-0.4-0.4-0.7c0-0.2,0-0.4,0-0.6c0-0.4,0-0.8,0-1.1c-0.3-5.2-2.2-9.3-5-10.2
		c-0.6-0.2-2.8-0.7-4.3,0.5c-0.9,0.9-1.4,2.1-1.4,3.3c0,0.4-0.3,0.7-0.7,0.7c-0.4,0-0.7-0.3-0.7-0.7c0,0,0,0,0,0
		c0-1.7,0.7-3.3,1.9-4.4c2.1-1.7,4.9-1,5.7-0.8c2.4,0.8,4.2,3.2,5.2,6.7c0.4,1.5,0.7,3.1,0.8,4.7
		C178.3,129.8,178.3,130.2,178.3,130.6z"/>
	<path class="st5" d="M243.8,191.6c-0.7,0-1.3-0.6-1.4-1.3l-0.2-4.3c0-0.7,0.5-1.4,1.3-1.4c0,0,0,0,0,0l15.7-0.9
		c0.7,0,1.4,0.5,1.4,1.3c0,0,0,0,0,0l0.2,4.3c0,0.7-0.5,1.4-1.3,1.4c0,0,0,0,0,0L243.8,191.6L243.8,191.6z M243.8,190.2L243.8,190.2
		z M259.2,184.9l-15.6,1l0.3,4.2l15.7-0.9L259.2,184.9z"/>
</g>
<path class="st6" d="M222,172.5c-1.7,2.2-3.7,4.2-6,5.9c-1.1,0.9-2.4,1.5-3.8,1.8c-0.4,0-0.8,0-1.3,0c-1-0.1-2.1-0.5-2.3-1.5
	c-0.2-1.4,3-2.9,3.9-3.6c1.8-1.4,3.3-3.2,4.4-5.2c0.5-0.9,0.6-2,0.2-3c-0.7-1.4-2.5-1.7-3.9-2.1c-1.9-0.5-3.7-1-5.6-1.3
	c-3.8-0.8-7.6-1.3-11.4-1.7c-1.6-0.2-3.2-0.3-4.8-0.4c-0.9-0.1-1.8-0.1-2.7-0.1c-1.9,0-4.2-0.1-5.8,1.2c-0.9,0.8-1.5,1.8-1.8,2.9
	c-0.7,2.9-0.1,6.7,0.9,9.5c1.4,3.8,3.8,10.3,2.8,14.4c-1.5,6.3-11.3,9.9-18.5,10.4c-0.1,0-0.3,0-0.4,0h-0.5
	c-2.8,0.1-12.8,0.2-16.7-6c-3.3-5.3-1.3-13.9,0-19.6c0.9-3.8,2.1-7,1.7-9.2c-0.1-0.6-0.4-1.2-0.8-1.6c-0.5-0.5-1.1-0.8-1.8-0.9
	c-1.1-0.3-2.3-0.4-3.4-0.4c-1.1,0-2.2,0.3-3.2,0.9c-0.9,0.5-1.7,1.2-2.4,2.1c-1.7,1.9-3.1,4-4.1,6.3c-1.1,2.8-1.6,6.8,0.4,9.3
	c1.1,1.4,2.8,2,4.4,2.4c1.1,0.2,2.1,0.5,3,1.1l0.2,0.2c0.5,0.5,0.8,1.2,0.8,1.9c-0.1,0.7-0.6,0.9-1.2,1.1c-0.4,0.2-0.9,0.3-1.3,0.4
	c-0.8,0.1-1.6,0.2-2.4,0.2c-3.5,0-7-1.1-9.8-3.2c-2.2-1.7-3.8-4.1-4.7-6.8c-2.4-7.8,3.1-15.2,4.8-17.4c3.2-4.1,7.5-7.3,12.3-9.3
	l0.9-0.4c6.2-2.7,13.4-3.7,16.2-4.2c0.4-0.1,0.9-0.1,1.4-0.2c3.7-0.4,7.4-0.3,11.1,0.2c7,0.9,14,2.2,21,3.8c4.8,1.2,9.6,2.5,14.4,4
	c3.6,1.2,7.4,2.3,10.8,4c2.7,1.4,5.3,3.3,6.2,6.3C223.9,167.5,223.5,170.2,222,172.5z"/>
<path class="st7" d="M285.8,67.2c-0.3,0-0.5-0.1-0.8,0L58.3,79c-2.1,0.1-3.7,1.9-3.5,3.9l7.1,136.2c0,0.3,0.1,0.5,0.1,0.8
	c-1.7-0.3-3-1.7-3.1-3.5L51.8,80.2c-0.1-2.1,1.5-3.8,3.5-3.9L282,64.5C283.7,64.3,285.3,65.5,285.8,67.2z"/>
<path class="st8" d="M288.9,70.7l7.1,136.2c0.1,2.1-1.5,3.8-3.5,3.9c0,0,0,0,0,0L65.8,222.7c-1.8,0.1-3.3-1-3.8-2.7
	c0.3,0,0.5,0.1,0.8,0l226.7-11.8c2.1-0.1,3.7-1.9,3.5-3.9c0,0,0,0,0,0L285.9,68c0-0.3-0.1-0.5-0.1-0.8
	C287.5,67.5,288.8,68.9,288.9,70.7z"/>
<path class="st9" d="M225.9,212.5l-35.2,1.8c0.1-1,0.1-2.1,0.2-3.2c0.2-3.5,0.5-6.8,0.9-10l31.3-1.7c0.6,2.3,1.5,5.8,2.3,10.2
	C225.6,210.4,225.7,211.4,225.9,212.5z"/>
<path class="st10" d="M259.6,146.5c-0.6-1.3-1.6-1.8-2.5-0.5c-1.4,2.1-1.7,5-2.7,7.2c-3.8,8.4-13.5,12.4-22.3,13
	c-2.9,0.2-5.8,0.1-8.7-0.3c-2.6-0.3-5.1-0.7-7.6-1.2c-0.9-0.2-1.8-0.4-2.7-0.6c-3.2-0.7-6.9-0.7-11.8-0.1c-1,0.1-1.9,0.3-2.8,0.4
	c-1.8,0.4-3.6,0.8-5.4,1.4l-0.3,0.1c-7,2.1-11.6,3.6-15.2,5.1c0.2,0.6,0.3,1.2,0.3,1.9c0.2,2.6,0.5,5.4,0.6,8.1c1.9-1,4-1.7,6.1-2.2
	c2.1-0.4,6.5-1.5,8.2,0.2c0.4,0.4,0.6,0.9,0.7,1.4c0.3,1.9-0.8,4.8-1.5,8.2c-1.2,5.1-3,12.8,0,17.6c3.7,5.9,13.8,5.4,15.4,5.3
	c6.5-0.3,15.6-3.6,16.9-9.3c0.9-3.7-1.2-9.5-2.5-13c-0.6-1.9-0.9-4-1-6c0-1.1-0.1-2.5,0.6-3.5c0-0.1,0.1-0.1,0.2-0.2
	c1-1.1,2.9-1,4.3-1.1c7-0.7,13.8-3.1,19.8-7c2.9-1.9,5.5-4.2,7.7-6.8C257.6,159.9,262.3,153.2,259.6,146.5z"/>
<polygon class="st4" points="36.7,74.2 36.1,72.9 165.6,12.2 299.9,59.1 299.5,60.5 165.7,13.7 "/>
<path class="st11" d="M186.6,212.7c-0.2-8.5-1.4-17-3.5-25.3l-34.9,3.2c-0.8,5.3-1.2,9.8-1.4,13.2c-0.6,10.2,0.4,12.5,1.7,14.1
	c2.1,2.6,5.1,3.4,7.3,3.9c6.6,1.6,11-0.8,21.3-3c4.4-0.9,8.8-1.6,13.3-2.1L186.6,212.7z"/>
<path class="st9" d="M191.3,161.4c-0.9-0.1-1.8-0.1-2.7-0.1c-1.9,0-4.2-0.1-5.8,1.2c-0.9,0.8-1.5,1.8-1.8,2.9
	c-0.7,2.9-0.1,6.7,0.9,9.5c1.4,3.8,3.8,10.3,2.8,14.4c-1.5,6.3-11.3,9.9-18.5,10.4c-0.1,0-0.3,0-0.4,0h-0.5
	c-2.8,0.1-12.8,0.2-16.7-6c-3.3-5.3-1.3-13.9,0-19.6c0.9-3.8,2.1-7,1.7-9.2c-0.1-0.6-0.4-1.2-0.8-1.6c-0.5-0.5-1.1-0.8-1.8-0.9
	c-1.1-0.3-2.3-0.4-3.4-0.4c-1-4.2-2.4-7.8-3.1-10.8l0.9-0.4c6.2-2.7,13.4-3.7,16.2-4.2c0.4-0.1,0.9-0.1,1.4-0.2
	c3.7-0.4,7.4-0.3,11.1,0.2c7,0.9,14,2.2,21,3.8c-0.5,1.4-0.8,2.9-0.9,4.4C190.6,157.2,190.7,159.4,191.3,161.4z"/>
<path class="st6" d="M148.3,123.4c-0.1-0.1-0.1-0.1-0.2-0.1c-0.2,0-0.4,0-0.6,0.1c-2.1,0.8-4.2,2.6-4.5,4.9c-0.1,0.8,0,1.6,0.5,2.3
	c0.9,1.2,2.6,1.3,4,0.9c2-0.6,3.6-1.8,4.7-3.6l-3.7-4.3C148.4,123.6,148.4,123.5,148.3,123.4z"/>
<path class="st6" d="M181.5,124.1c2.5-0.2,4.6,1.1,5.2,2.8c0.3,1.2,0.1,2.5-0.6,3.5c-0.8,1.2-2.1,2.1-3.6,2.3
	c-2.2,0.2-4.5-1.4-5.2-4L181.5,124.1z"/>
<path class="st6" d="M171.3,140.5c0,2.2-0.2,4.3-0.6,6.4c-0.1,0.7-0.3,1.4-0.5,2.1c-0.7,1.3-1.5,2.6-2.4,3.8c-0.8,1-1.7,2-2.6,2.9
	c-0.7,0.7-1.8,0.7-2.6,0c-0.5-0.5-1-1-1.4-1.6c-1-1.2-1.8-2.6-2.5-4c-0.2-1-0.3-2-0.4-3.1c0-0.2,0-0.5-0.1-0.7
	c-0.1-1.2-0.1-2.4-0.1-3.5c0-2.1,0.1-4.1,0.4-6.2l12-2.7c0.2,1,0.4,2,0.6,3.1C171.3,138.1,171.3,139.3,171.3,140.5z"/>
<path class="st6" d="M144.7,123c1.1,2.5,2.4,2,3.6,4.6c1,2.1,0.8,3.8,2.6,5.7c0.1,0.1,0.4,0.4,0.9,0.8c3.8,3.3,8.6,5.2,13.6,5.4
	c4.3,0.2,8.6-1,12.1-3.5c0.9-0.5,1.7-1.2,2.3-2c1.2-1.9,0.4-3.2,1.1-5.7c0.8-2.7,2.3-2.7,2.9-4.8s-0.3-4.4-2.2-7.3
	c-5.5-8.2-9.6-14.7-17.5-14.9c-10.2-0.3-19.4,9.1-20,16.6C143.9,119.5,144.1,121.3,144.7,123z"/>
<path class="st9" d="M184.6,120c-0.1-0.8-0.2-1.5-0.3-2.2c-0.3-1.8-0.7-3.7-1.4-5.4c-0.6-2-1.5-3.9-2.6-5.6c-1.7-2.5-4-4.5-6.6-6
	c-4.1-2.4-8.9-3.4-13.6-2.9c-3.2,0.1-6.3,1-9.1,2.6c-2.6,1.5-4.7,3.7-6.2,6.3c-1.7,3-2.5,6.5-2.4,10c0,0.5,0.1,0.9,0.1,1.4
	c0.1,1.2,0.4,2.3,0.8,3.4c0.7,1.6,2,2.8,3,4.1c1.2,1.6,2.1,3.4,2.6,5.3c0.1,0.5,0.3,1,0.5,1.5c0.4,0.7,1.1,1.2,1.8,1.5
	c3.5,2,2.7,2.7,5.7,4.3c3,1.5,6.4,2.2,9.8,2c0.5,0,6.5-0.2,11.1-3.6c1.1-0.8,2-1.9,2.5-3.2c0.5-1.4,0.4-3,1-4.4
	c0.6-1.4,2-2.4,2.7-3.8C184.9,123.7,184.8,121.8,184.6,120z M180.1,125c-0.3,1.3-0.7,2.7-1.8,3.1c-0.8,0.2-1.7,0-2.3-0.5
	c-1.3-1.1-0.7-2.7-1.7-3.5c-1.1-1-2.8,0.3-6.3,0.8c-3.2,0.4-6.4,0.2-9.5-0.4c-2-0.4-2.9-0.9-3.9-0.4c-1.8,1-1.5,4.1-2.8,4.3
	c-0.6,0.1-1-0.4-1.8-1.3c-0.9-0.9-1.6-2.1-1.9-3.3c-0.5-1.6-0.7-3.3-0.4-5c0-2.1,0.6-4.1,1.5-6c0.6-1.1,1.8-3.3,4-4.2
	c3.3-1.4,5.3,1.9,10.5,2.5c6.8,0.8,10.1-4.2,13.1-2.1c1.1,0.8,1.8,3.2,3.1,8.2c0.4,1.3,0.6,2.7,0.7,4
	C180.5,122.6,180.4,123.8,180.1,125z"/>
<path class="st12" d="M154.9,130c0.6,1.4,2.4,3.1,3.1,3.6c1.8,1.4,4.1,2.2,6.4,2.3c2.2,0.1,4.3-0.5,6.1-1.8c2-1.5,3.7-4.4,3-5.5
	c-0.8-1.1-3.5,1-8.7,0.8c-5.2-0.2-8.7-2.4-9.7-1C154.7,128.9,154.7,129.5,154.9,130z"/>
<path class="st1" d="M168.1,217.9c-0.4,0.2-0.8,0.1-1-0.3c-1.2-1.5-0.5-7.8-0.2-10.2c0.2-1.5,0.4-2.5,0.6-2.5s0.3,0.6,0.4,1
	c0.9,3.4,1.3,5.9,1.4,6.7c0.3,2,0.4,2.6,0.3,3.2c-0.1,0.6-0.4,1.2-0.9,1.6C168.6,217.7,168.4,217.8,168.1,217.9z"/>
<path class="st13" d="M178.7,206.1c-1.3,2.9-2.9,3.5-3.2,3.6c-0.3,0.1-0.5,0.1-0.8,0c-1-0.5,0.2-3.5,0-7c-0.2-1.9-0.7-3.8-1.6-5.5
	c-2.8-5.8-8.9-9.3-15.2-9.9c-1.8-0.2-5.5-0.7-6.8,0.9c-0.3,0.4-0.4,0.8-0.5,1.3c-0.1,1.6,1.1,3.9,2,6.7c0.6,1.6,1.1,3.3,1.6,4.9
	c0.4,1.7,0.7,3.4,0.7,5.2c0.1,2.4,0.3,4.7,0.6,7.1c0.2,1.2,0.4,2.3,0.6,3.5c0.2,0.9,0.5,1.8,0.1,2.8c-1,2.2-6.3,4.3-30.8-1.9
	c0.2,0,1-5.2,1.1-5.6c0.3-2.8,0.1-5.7,0.6-8.5c0.5-3,1.5-6.2,1.2-9.3c0-1-0.3-2-0.8-2.8c-0.1-0.1-0.1-0.1-0.2-0.2
	c-0.9-0.9-2.5-0.6-3.7-0.6c-5.9,0-11.7-1.4-16.9-4c-2.6-1.3-4.9-3-6.9-5c-3.8-3.7-8.3-8.8-6.6-14.5c0.3-1.1,1.2-1.6,2-0.6
	c1.3,1.6,1.8,4,2.8,5.8c3.9,6.6,12.2,9.1,19.5,8.8c2.4-0.1,4.8-0.4,7.1-1c2.1-0.4,4.1-1,6.2-1.7c0.7-0.2,1.5-0.5,2.2-0.7l0.7-0.2
	c-0.3-1.4-0.6-2.9-0.6-4.4c-1.6-0.2-3.1-0.8-4.4-1.6c-1.3-0.8-2.4-1.8-3.3-3c-0.3,0.1-0.7,0.2-1.1,0.2c-1.1,0-2.1-0.6-2.8-1.4
	c-0.6-0.7-0.8-1.7-0.7-2.6c0.2-1,0.9-1.7,1.9-2.1c-0.4,0-0.8-0.1-1.1-0.4c-0.9-0.7-1-2.2-0.9-3.3c0.2-5,0.4-7.7,2.5-10.7
	c0.7-1,1.5-1.8,2.3-2.6c-1.1-0.2-2.1-1-2.6-2.1c-0.4-1.2,0-2.6,1-3.4c0.7-0.4,1.6-0.5,2.3-0.2c0-1.2,0.5-2.4,1.2-3.4
	c2.1-2.5,6-2.2,8.3-1.3c1.1,0.4,3.6,1.4,3.7,3.5c0,0.8-0.2,1.6-0.7,2.3c2.8-0.1,5.5,0.6,8,1.9c0.6,0.3,6.1,3.5,7.4,9.5
	c0.6,2.7,0.5,6.8-1.3,7.6c-0.5,0.2-1,0.2-1.4,0c0.9,0.5,1.5,1.4,1.8,2.4c0.2,0.6,0.1,1.2-0.2,1.7c-0.5,0.9-1.8,1.1-2.9,0.9
	c-0.3-0.1-0.5-0.1-0.8-0.2c-0.5,0.9-1.1,1.7-1.7,2.4c-1.4,1.7-3.1,3-5,4.1c0.4,1.7,0.6,3.5,0.7,5.2c0.6,0,1.3,0,1.8,0.1
	c1.5,0.1,3.1,0.4,4.6,0.7c0.1,0,0.2,0,0.3,0.1c9.1,1.8,13.6,2.7,17.1,4.7c0.5,0.3,11,6.4,12.6,16.1
	C180.1,200.8,179.8,203.5,178.7,206.1z"/>
<path class="st10" d="M191.8,144.9c-0.1-0.1-0.1-0.1-0.2-0.1c-0.2,0-0.4,0-0.5,0.1c-1.9,0.7-3.7,2.3-4,4.4c-0.1,0.7,0,1.4,0.4,2
	c0.8,1,2.3,1.1,3.6,0.8c1.8-0.5,3.3-1.7,4.2-3.2l-3.3-3.8C191.9,145,191.9,144.9,191.8,144.9z"/>
<path class="st10" d="M221.5,145.4c2.2-0.2,4.1,0.9,4.6,2.6c0.3,1.1,0.1,2.3-0.5,3.2c-0.7,1.1-1.9,1.9-3.2,2c-2.2,0-4.1-1.5-4.7-3.6
	L221.5,145.4z"/>
<path class="st10" d="M200.9,156.5c-0.4,2.9-0.5,5.8-0.2,8.7c0.1,1.2,0.3,2.4,0.4,3.4c0.9,1.9,2.1,3.6,3.6,5c0.6,0.6,1.6,0.6,2.3,0
	c0,0,0,0,0,0c1.8-1.7,3.3-3.8,4.5-6c0.9-3.6,1.2-7.3,0.7-10.9c-0.1-1-0.3-1.9-0.5-2.8L200.9,156.5z"/>
<path class="st10" d="M188.8,144.3c1,3.5,2.9,6.7,5.5,9.3c3.4,3.4,7.9,5.4,12.7,5.7c3.7,0.3,7.4-0.8,10.4-2.9c2.4-1.8,4.2-4.3,5-7.2
	c1.1-4.3-0.5-7.9-1.7-10.4c-1.5-3.3-6.1-13.1-15.4-13.5c-8.9-0.4-16.8,7.8-17.1,14.4C188.2,141.2,188.4,142.8,188.8,144.3z"/>
<path class="st9" d="M273.1,85.3c0,2-0.4,4-1.1,5.8c-1,2.6-2.6,5-4.7,6.9c-3.6,3.3-8.2,5.2-13,6.1c-2.1,0.4-5,0.8-6.5,2.5
	c-1.5,1.7-1,4.5-0.9,6.6c0.2,3.4-0.7,6.9-2.6,9.7c-1.5,2.1-3.7,3.6-6.2,4.3c-2.3,0.6-4.8-0.4-6.7,1.3c-1.8,1.6-1.1,3.1-2.6,7.5
	c-0.5,1.4-3.2,9.2-6.3,9.3c-3,0-3.3-7.1-8.4-8.5c-2.8-0.8-3.5,1.1-8.2,0.9c-5.1-0.2-6.1-2.5-8.6-1.7c-4.6,1.5-4.5,10.1-7.1,10.2
	c-1.7,0-3.3-3.6-3.9-6.2c-1.4-6.1,1.4-12.6,5.5-16.8s9-5.7,12.2-6.5c4.5-1.2,9.2-1.8,13.6-3.3c2.6-0.8,5.2-2.1,6.6-4.4
	c1.1-1.8,1.3-3.9,1.9-5.9c2-6.2,8.2-9.1,14.1-10.6c4.6-1,9.2-1.5,13.9-1.5c3.5-0.1,7.2-0.2,9.9-2.4c1.3-1.1,2.3-2.6,3.5-3.8
	c1.2-1.2,3.6-2.3,4.7-1.4C272.9,84,273.1,84.6,273.1,85.3z"/>
<path class="st12" d="M195.4,147.7c0.6,1.7,2.6,3.7,3.3,4.3c2,1.7,4.5,2.7,7.1,2.9c2.4,0.2,4.9-0.4,7-1.7c2.1-1.2,4.5-4,3.8-5.2
	c-0.7-1.4-4.3,0.9-10.4,0.1c-5.6-0.7-9.3-3.6-10.6-2.2C195.3,146.5,195.2,147.1,195.4,147.7z"/>
<path class="st11" d="M221.9,189.4c-0.6-1.9-0.9-4-1-6c0-1.1-0.1-2.5,0.6-3.5c0-1.6,0.3-3.8,0.7-6.9c0.4-2.8,0.8-5.1,1.2-7
	c-2.6-0.3-5.1-0.7-7.6-1.2c0,0.3,0,0.7,0,1c1.7,3.5,0.7,8.3-3,10.1c-0.4,0.5-0.9,0.8-1.4,1.1c-2.6,1.4-5.8,0.7-7.9-0.5
	c-2.5-1.5-3.4-3.9-4.1-5.7c-0.8-2-1.1-4.2-0.9-6.3c-1.8,0.4-3.6,0.8-5.4,1.4c0.3,2,0.6,3.7,0.7,5c0.3,2,0.4,4.1,0.3,6.1
	c-0.1,1.2-0.3,2.4-0.5,3.5c0.3,1.9-0.8,4.8-1.5,8.2c-1.2,5.1-3,12.8,0,17.6c3.7,5.9,13.8,5.4,15.4,5.3c6.5-0.3,15.6-3.6,16.9-9.3
	C225.2,198.6,223.1,192.8,221.9,189.4z"/>
<path class="st0" d="M308,52.6l9,173.2c0.1,2.1-1.5,3.8-3.5,3.9c0,0,0,0,0,0L49.8,243.5c-2.1,0.1-3.8-1.5-3.9-3.5c0,0,0,0,0,0v-0.5
	L309,225.7c2.1-0.1,3.7-1.9,3.5-3.9c0,0,0,0,0,0l-9-172.7h0.5C306.1,49,307.8,50.5,308,52.6z"/>
<circle class="st13" cx="165.1" cy="11.6" r="3.9"/>
<path class="st6" d="M142.9,186.3c-0.1,0.7-0.6,0.9-1.2,1.1c-1.2,0.4-2.4,0.6-3.6,0.5c-3.4,0-6.7-1.1-9.4-3.1c-1.7-1.3-3-3-3.9-4.9
	c-0.3-0.5-0.5-1.1-0.6-1.6c-0.9-3-0.7-6.3,0.4-9.2c0.3,0,0.7-0.1,1-0.2c0.9,1.2,2,2.2,3.2,2.9c1.3,0.8,2.7,1.3,4.2,1.5
	c0.1,1.2,0.2,2.5,0.5,3.7c0,0.2,0,0.4,0,0.5c0.1,1.2,0.5,2.4,1.3,3.4c1.1,1.2,2.6,2,4.3,2.3c1,0.2,2,0.5,2.9,1.1
	C142.5,184.8,142.9,185.5,142.9,186.3z"/>
<g class="st3">
	<polygon class="st14" points="149.8,60.7 143.4,71.7 58.8,214.6 52.2,225.8 40.9,226.4 39.7,203.2 56.7,174.5 116.7,73.1 
		123.2,62.1 	"/>
</g>
<g class="st3">
	<polygon class="st14" points="70.8,228.1 58.5,228.8 156.2,63.7 168.4,63 	"/>
</g>
<path class="st13" d="M303.5,48.5c-0.1-2.1-1.9-3.7-3.9-3.5c0,0,0,0,0,0L35.9,58.7c-2.1,0.1-3.7,1.9-3.5,3.9c0,0,0,0,0,0l7.3,140.6
	l1.2,23.1l0.5,9.5c0.1,2.1,1.8,3.6,3.9,3.5c0,0,0,0,0,0l263.7-13.7c2.1-0.1,3.6-1.8,3.5-3.9c0,0,0,0,0,0L303.5,48.5z M289.5,208.2
	L62.8,220c-2.1,0.1-3.8-1.5-3.9-3.5c0,0,0,0,0,0l-0.1-1.8l-2.1-40.1l-4.9-94.3c-0.1-2.1,1.5-3.8,3.5-3.9l61.4-3.2l26.7-1.4L282,64.4
	c2.1-0.1,3.8,1.5,3.9,3.5l7.1,136.2C293.2,206.3,291.6,208,289.5,208.2C289.5,208.2,289.5,208.2,289.5,208.2z"/>
<path class="st6" d="M222,172.5c-0.7,1.3-1.7,2.4-2.9,3.3c-1.7,1.4-3.7,2.3-5.8,2.9c-2.2,0.8-4.6,1.2-7,1.2c-1.1,0-2.3-0.3-3.3-0.7
	c-0.7-0.3-2.6-1.1-2.4-2.1c0.2-1,3.5-0.5,8.2-2.1c2.4-0.8,5.6-1.9,6.6-4.6c0.4-1,0.4-2.2,0.1-3.2c-0.4-1.1-1.2-1.9-2.2-2.4
	c-0.3-0.1-0.7-0.2-1.1-0.3c0-0.2,0.1-0.3,0.1-0.5c0.2-1.8,0.3-3.5,0.2-5.3c0.9-0.2,1.7-0.5,2.5-0.9c0.7,0.3,1.3,0.6,2,0.9
	c2.7,1.4,5.3,3.3,6.2,6.3c0.1,0.3,0.2,0.6,0.2,0.9C223.6,168.2,223.2,170.5,222,172.5z"/>
</svg>
