<svg id="Layer_1" data-name="Layer 1" xmlns="http://www.w3.org/2000/svg" xmlns:xlink="http://www.w3.org/1999/xlink" viewBox="0 0 800 600"><defs><style>.cls-1,.cls-10,.cls-11,.cls-12,.cls-13,.cls-15,.cls-16{fill:none;}.cls-2{clip-path:url(#clip-path);}.cls-3{fill:#e5f8fa;}.cls-4{opacity:0.6;}.cls-5{fill:#c0e0e5;}.cls-6{fill:#91d757;}.cls-7{fill:#fff4e2;}.cls-8{fill:#8aca4f;}.cls-9{fill:#005872;}.cls-10,.cls-13{stroke:#ffb926;}.cls-10,.cls-12,.cls-13,.cls-15,.cls-16{stroke-linecap:round;}.cls-10,.cls-12,.cls-15,.cls-16{stroke-linejoin:round;}.cls-10,.cls-12,.cls-13{stroke-width:3px;}.cls-11{stroke:#f90;}.cls-11,.cls-13{stroke-miterlimit:10;}.cls-11,.cls-16{stroke-width:2px;}.cls-12,.cls-15,.cls-16{stroke:#005872;}.cls-14{fill:#fed89e;}.cls-17{fill:#ffb926;}.cls-18{fill:#fff5e6;}.cls-19{fill:#fee0b3;}.cls-20{fill:#fedead;}.cls-21{fill:#fed185;}</style><clipPath id="clip-path"><path class="cls-1" d="M994.65,770.81a23.59,23.59,0,0,0,23.62,23.62,22.68,22.68,0,0,0,3-.2h.12l2,2.24,2.58,2.95,1.23-3.68,1.23-3.69a23.24,23.24,0,0,0,5.68-3.83,24,24,0,0,0,7.71-17.43A23.6,23.6,0,0,0,1010,748.6l-.57.23-.3.12H1009l-.4.18a24,24,0,0,0-12.28,12.59,23.58,23.58,0,0,0-1.66,6.76C994.68,769.3,994.65,770.06,994.65,770.81Z"/></clipPath></defs><title>apptRequestFail</title><g class="cls-2"><rect class="cls-1" x="749.66" y="470.46" width="339.93" height="601.68"/></g><path class="cls-3" d="M325.42,79.09a458.29,458.29,0,0,0-59.29,8.33c-72.56,15.19-143,51.71-188.67,109C53.21,226.87,39.05,267.2,49.9,304.07c6.35,21.54,20.62,40.22,37.12,56C132.3,403.54,196.29,434.7,254.92,458c65.45,26,135.33,42.51,206.07,47q16.75,1.05,33.56,1.2c49,.37,100.18-5.69,144.65-26.69,51.13-24.14,87.18-73.11,99-126.24C753.5,284.12,717.65,212,663.57,167.16c-44.07-36.57-97.31-54.42-152-70.44C452.6,79.43,386.69,74.44,325.42,79.09Z"/><g class="cls-4"><path class="cls-5" d="M213.66,332.91V298h-.47V263.86a57.63,57.63,0,0,0,48.17,26.44v37.57h-.45v5H516V290.64H516V265.16c1.6.1,3.2.14,4.8.14A89.79,89.79,0,0,0,578,244.81V315H564.65v18H713.23V322.3H654.14V254.22H604.45V215.5H578v26a87.35,87.35,0,0,1-62,21.13V238.17H424V265.4H414V159.45H397.82v-28.9H377.45v28.9H361.27V204.2H321.13V286H308.59V266.78H261.36v21a55.13,55.13,0,0,1-48.17-28.83V240.35H138v68.49h-8.16v-22H70.76v46.12Z"/></g><g class="cls-4"><path class="cls-5" d="M760.3,334.25H42.48a1.15,1.15,0,0,1,0-2.29H760.3a1.15,1.15,0,0,1,0,2.29Z"/></g><path class="cls-6" d="M357.26,236.77a36.66,36.66,0,0,1-36.68,36.68,33.61,33.61,0,0,1-4.62-.33l-.19,0-.08.09,0,0-3.08,3.5-4,4.57-1.95-5.76-1.94-5.75a36.57,36.57,0,0,1-8.82-6,37.27,37.27,0,0,1-12-27.08,36.65,36.65,0,0,1,49.27-34.44c.31.12.61.23.9.36l.47.19a1.89,1.89,0,0,1,.21.09c.21.08.42.17.62.27h0a37.29,37.29,0,0,1,19.12,19.56,36.84,36.84,0,0,1,2.59,10.49C357.21,234.44,357.26,235.61,357.26,236.77Z"/><path class="cls-7" d="M331.44,243.84c0,.1,0,.2,0,.3H317c0-.1,0-.2,0-.3,0-4.36,3.24-7.89,7.24-7.89S331.44,239.48,331.44,243.84Z"/><path class="cls-7" d="M317.67,228.83a2.83,2.83,0,1,1-5.45-1.48A2.78,2.78,0,0,1,314,225.6,2.84,2.84,0,0,1,317.67,228.83Z"/><path class="cls-7" d="M333.36,231.05a2.83,2.83,0,1,1,1.48-5.45,2.77,2.77,0,0,1,1.75,1.75A2.84,2.84,0,0,1,333.36,231.05Z"/><path class="cls-8" d="M315.62,273.21l.07,0,0,0Z"/><path class="cls-8" d="M357.26,236.77a36.66,36.66,0,0,1-36.68,36.68,33.61,33.61,0,0,1-4.62-.33,42.1,42.1,0,0,0,30.33-29.4,40.2,40.2,0,0,0,1.22-13.6,42.58,42.58,0,0,0-2.21-10.59A41.16,41.16,0,0,0,334.8,203l.56.22h0a37.29,37.29,0,0,1,19.12,19.56,36.84,36.84,0,0,1,2.59,10.49C357.21,234.44,357.26,235.61,357.26,236.77Z"/><g class="cls-4"><path class="cls-5" d="M561.5,108.76H549.13a1.43,1.43,0,0,1-1.42-1.42c0-11.43-8.34-20.73-18.6-20.73s-18.62,9.3-18.62,20.73a1.42,1.42,0,1,1-2.83,0c0-5.32-3.85-9.65-8.59-9.65s-8.6,4.33-8.6,9.65a1.42,1.42,0,0,1-1.41,1.42H472.22a1.42,1.42,0,1,1,0-2.83h15.49c.65-6.22,5.49-11.07,11.36-11.07a11.2,11.2,0,0,1,9.52,5.6c2.69-9.65,10.87-16.68,20.52-16.68,11.39,0,20.73,9.81,21.4,22.15h11a1.42,1.42,0,0,1,0,2.83Z"/></g><g class="cls-4"><path class="cls-5" d="M686.73,184.76a1.19,1.19,0,0,1-1.18-1.09c-.64-6.77-5.3-11.87-10.83-11.87s-10.19,5.1-10.83,11.87a1.19,1.19,0,0,1-1.19,1.09h-20a1.2,1.2,0,1,1,0-2.39h19c1.13-7.46,6.6-13,13.07-13,5.39,0,10.1,3.83,12.17,9.43a6.74,6.74,0,0,1,5.62-3.29c3.49,0,6.39,3,6.89,6.82H705a1.2,1.2,0,0,1,0,2.39h-6.75a1.2,1.2,0,0,1-1.2-1.2c0-3.1-2.05-5.62-4.58-5.62s-4.58,2.52-4.58,5.62a1.2,1.2,0,0,1-1.14,1.2Z"/></g><g class="cls-4"><path class="cls-5" d="M254.41,174.62h-9a.87.87,0,0,1-.87-.86,2.36,2.36,0,1,0-4.72,0,.87.87,0,0,1-1.73,0,12.79,12.79,0,1,0-25.57,0,.87.87,0,0,1-1.73,0,4.56,4.56,0,1,0-9.11,0,.87.87,0,0,1-.86.86H187.53a.87.87,0,1,1,0-1.73H200A6.28,6.28,0,0,1,211.27,170a14.52,14.52,0,0,1,28.21.66,4.09,4.09,0,0,1,6.69,2.22h8.24a.87.87,0,1,1,0,1.73Z"/></g><path class="cls-9" d="M351.22,367.11c0,24.44,19.55,44.24,43.65,44.24s43.65-19.8,43.65-44.24S419,322.87,394.87,322.87,351.22,342.68,351.22,367.11Zm5.5,0c0-21.31,17.12-38.66,38.15-38.66S433,345.8,433,367.11s-17.11,38.67-38.14,38.67S356.72,388.43,356.72,367.11Z"/><line class="cls-10" x1="395" y1="367.49" x2="368.13" y2="295.98"/><path class="cls-10" d="M371.81,307.6a145.09,145.09,0,0,0-23.05,8.63c-14.39,6.82-106.29,50.88-106.29,50.88l59.67.2s67.93-48,73.65-50.51"/><ellipse class="cls-11" cx="241.58" cy="367.31" rx="4.55" ry="4.61"/><path class="cls-12" d="M351.22,298h18.11c2.26,0,4.08-1.39,4.08-3.11h0c0-1.72-1.82-3.11-4.08-3.11H351.22"/><path class="cls-9" d="M197.93,367.11c0,24.44,19.54,44.24,43.65,44.24s43.64-19.8,43.64-44.24-19.54-44.24-43.64-44.24S197.93,342.68,197.93,367.11Zm5.5,0c0-21.31,17.12-38.66,38.15-38.66s38.14,17.35,38.14,38.66-17.11,38.67-38.14,38.67S203.43,388.43,203.43,367.11Z"/><line class="cls-13" x1="277.56" y1="301.79" x2="302.14" y2="367.31"/><path class="cls-14" d="M296.56,303.82a2.59,2.59,0,0,0-2.48-2.68A87.7,87.7,0,0,1,276,299.63c-1-.22-4.29-.92-8.93-1.75-1.6-.29-3.07-.55-4.38-.76a3.71,3.71,0,0,0-4.13,3.89h0a3.79,3.79,0,0,0,3.43,3.93l32,1.57a2.58,2.58,0,0,0,2.57-2.69Z"/><path class="cls-11" d="M304.91,375.85a8.69,8.69,0,1,0-8.58-8.69A8.65,8.65,0,0,0,304.91,375.85Z"/><path class="cls-15" d="M304.91,355.22h-2.38l-61.28,3.47a8.42,8.42,0,0,0-8,8.46h0a8.41,8.41,0,0,0,7.93,8.45l61.31,3.74h2.38a12,12,0,0,0,11.9-12.06h0A12,12,0,0,0,304.91,355.22Z"/><polyline class="cls-16" points="303.19 367.28 316.18 391.75 327.49 391.75 327.49 387.98 314.3 387.98"/><rect class="cls-9" x="315.77" y="387.95" width="11.71" height="3.79"/><path class="cls-17" d="M661.75,319.22V478a.54.54,0,0,1-.54.54h-52a2.12,2.12,0,0,1-.75-.14V319.91l-.91-2.54H661.1A3,3,0,0,1,661.75,319.22Z"/><path class="cls-14" d="M661.1,317.37H607.59l-2.49-1.7L590,308.1l-3.85-1.92-.88-.44h0a1.18,1.18,0,0,1,.74-.25h50.5a6.34,6.34,0,0,1,2.86.68l20.76,10.38,0,0A2.88,2.88,0,0,1,661.1,317.37Z"/><path class="cls-18" d="M608.5,319V478.4a1.71,1.71,0,0,1-.54-.27l-.05,0L585.48,460.9a1.88,1.88,0,0,1-.75-1.51V306.72a1.21,1.21,0,0,1,.5-1l.88.44L590,308.1l15.14,7.57,1.8.9.05,0a3,3,0,0,1,.91.78A2.92,2.92,0,0,1,608.5,319Z"/><path class="cls-14" d="M654.62,436.23v-.46H616.09V330.66h38.07V436.23h.46v0h.45v-106a.44.44,0,0,0-.13-.32.46.46,0,0,0-.32-.13h-39a.46.46,0,0,0-.32.13.44.44,0,0,0-.13.32v106a.42.42,0,0,0,.13.32.43.43,0,0,0,.32.14h39a.43.43,0,0,0,.32-.14.42.42,0,0,0,.13-.32Z"/><path class="cls-14" d="M622.75,343.34h8.66a.46.46,0,0,0,0-.91h-8.66a.46.46,0,1,0,0,.91"/><path class="cls-14" d="M638.84,343.34h8.66a.46.46,0,1,0,0-.91h-8.66a.46.46,0,0,0,0,.91"/><path class="cls-14" d="M622.75,346.83h8.66a.46.46,0,0,0,.45-.46.45.45,0,0,0-.45-.45h-8.66a.46.46,0,0,0-.46.45.47.47,0,0,0,.46.46"/><path class="cls-14" d="M638.84,346.83h8.66a.47.47,0,0,0,.46-.46.46.46,0,0,0-.46-.45h-8.66a.45.45,0,0,0-.45.45.46.46,0,0,0,.45.46"/><path class="cls-14" d="M622.75,350.32h8.66a.46.46,0,0,0,.45-.46.45.45,0,0,0-.45-.45h-8.66a.46.46,0,0,0-.46.45.47.47,0,0,0,.46.46"/><path class="cls-14" d="M638.84,350.32h8.66a.47.47,0,0,0,.46-.46.46.46,0,0,0-.46-.45h-8.66a.45.45,0,0,0-.45.45.46.46,0,0,0,.45.46"/><path class="cls-14" d="M622.75,444h8.66a.46.46,0,0,0,0-.91h-8.66a.46.46,0,1,0,0,.91"/><path class="cls-14" d="M638.84,444h8.66a.46.46,0,1,0,0-.91h-8.66a.46.46,0,0,0,0,.91"/><path class="cls-14" d="M622.75,447.5h8.66a.46.46,0,0,0,0-.91h-8.66a.46.46,0,1,0,0,.91"/><path class="cls-14" d="M638.84,447.5h8.66a.46.46,0,1,0,0-.91h-8.66a.46.46,0,0,0,0,.91"/><path class="cls-14" d="M622.75,451h8.66a.46.46,0,0,0,0-.91h-8.66a.46.46,0,1,0,0,.91"/><path class="cls-14" d="M638.84,451h8.66a.46.46,0,1,0,0-.91h-8.66a.46.46,0,0,0,0,.91"/><path class="cls-14" d="M636.51,337.16h-.45a.94.94,0,1,1-.93-.93.93.93,0,0,1,.93.93H637a1.85,1.85,0,1,0-1.84,1.84,1.85,1.85,0,0,0,1.84-1.84Z"/><path class="cls-18" d="M591.15,324.67v11.39L569,325h0l-14-6.94-16.67-8.29-14-6.94-16.31-8.11-13.95-6.94L478.5,280h0l-14-6.94h0l-16.3-8.12-6.48-3.22c-4.56-3.09-5.88-7.54-4.46-9.66,1.08-1.61,3.62-1.72,4.46-1.72l2.74,1.36,7.95,4h0l13.94,6.94,16.31,8.11h0l13.95,6.94,15.65,7.79,14,6.94,16.31,8.12h0l14,6.94,16.67,8.29,14,6.93h0l4,2"/><polyline class="cls-18" points="593.89 324.67 593.89 336.06 591.15 334.7 571.14 324.74 571.13 324.74 557.18 317.79 557.17 317.79 540.51 309.5 526.57 302.56 510.25 294.44 496.3 287.5 480.66 279.73 466.7 272.78 450.4 264.66 450.39 264.66 444.48 261.72 444.48 251.25 454.62 255.38 468.56 262.31 468.57 262.31 484.87 270.43 498.82 277.37 514.47 285.16 528.42 292.1 544.73 300.21 558.68 307.15 575.35 315.45 575.36 315.45 589.3 322.39 593.89 324.67"/><path class="cls-17" d="M441.74,261.72l6.48,3.22,2.17-.28h0l16-2.06,2.18-.28-13.94-6.94-2.18.28h0l-7.95,1-6.65,1a12.18,12.18,0,0,0,3.91,4.06Z"/><polygon class="cls-17" points="498.82 277.37 496.65 277.65 480.66 279.73 478.5 280 478.49 280 464.53 273.06 466.7 272.78 482.69 270.71 482.7 270.71 484.87 270.43 498.82 277.37"/><polygon class="cls-17" points="528.42 292.1 526.25 292.38 510.25 294.44 508.08 294.73 494.13 287.79 496.3 287.5 512.3 285.44 514.47 285.16 528.42 292.1"/><polygon class="cls-17" points="558.68 307.15 556.51 307.44 540.51 309.5 538.34 309.78 524.39 302.84 526.57 302.56 542.55 300.5 542.56 300.5 544.73 300.21 558.68 307.15"/><polyline class="cls-17" points="589.3 322.39 587.14 322.66 587.12 322.66 571.14 324.74 571.13 324.74 568.97 325.01 568.96 325.01 555.01 318.07 557.17 317.79 557.18 317.79 573.17 315.73 573.18 315.73 575.35 315.45 575.36 315.45 589.3 322.39"/><path class="cls-14" d="M593.89,324.67h-2.74l-4-2h0l-13.94-6.93h0l-16.66-8.29-14-6.94h0l-16.31-8.12-14-6.94-15.65-7.79-13.95-6.94h0l-16.31-8.11-13.94-6.94h0l-7.95-4-2.74-1.36h1.1a7,7,0,0,1,3.11.73l8.67,4.31,13.94,6.93h0l16.3,8.12,13.95,6.94,15.65,7.79,13.95,6.94,16.31,8.11,13.95,6.94,16.67,8.3h0l13.94,6.94,4.59,2.28"/><rect class="cls-17" x="591.15" y="324.67" width="2.74" height="11.38"/><polyline class="cls-19" points="579.67 330.34 579.67 330.35 581.88 331.44 579.67 330.34"/><polyline class="cls-20" points="579.67 328.98 579.67 330.34 581.88 331.44 581.88 330.08 579.67 328.98"/><polyline class="cls-20" points="581.88 323.34 579.67 323.63 579.67 328.98 581.88 330.08 581.88 323.34"/><polyline class="cls-21" points="579.67 318.97 579.67 323.63 581.88 323.34 581.88 320.06 579.67 318.97"/><path class="cls-17" d="M603,323.36v16.57a3.66,3.66,0,0,1-3.66,3.65h-5.88l1.31-1.86,2.36-3.37V325l-1.83-5h6.52A5.47,5.47,0,0,1,603,323.36Z"/><path class="cls-14" d="M601.81,320h-6.52l-2.74-2.28-4-1.73-3.19-1.37,5.68,0h.14a4.55,4.55,0,0,1,2,.47l7.17,3.56h0A5.2,5.2,0,0,1,601.81,320Z"/><path class="cls-18" d="M584.89,339.72l6.94,3.47a3.65,3.65,0,0,0,5.28-3.26V323.36a5.48,5.48,0,0,0-3-4.9L587.16,315a3.66,3.66,0,0,0-5.29,3.27v16.57A5.49,5.49,0,0,0,584.89,339.72Z"/><path class="cls-17" d="M594.23,324.68V337a2.72,2.72,0,0,1-2.72,2.72H589l1-1.39,1.75-2.5v-9.95l-1.36-3.73h3A4.06,4.06,0,0,1,594.23,324.68Z"/><path class="cls-14" d="M593.35,322.16h-3l-2-1.69-3-1.29-2.38-1,2.41,0h.1a3.24,3.24,0,0,1,1.44.34l5.34,2.65h0A4.24,4.24,0,0,1,593.35,322.16Z"/><path class="cls-18" d="M582.6,336.85l5.15,2.59a2.72,2.72,0,0,0,3.94-2.43V324.68a4.07,4.07,0,0,0-2.25-3.64l-5.16-2.59a2.72,2.72,0,0,0-3.93,2.43v12.33A4.07,4.07,0,0,0,582.6,336.85Z"/><path class="cls-14" d="M586.62,330.91h-.92l-.54-3h.91c.45-.08.95.52,1.09,1.36S587.07,330.83,586.62,330.91Z"/><path class="cls-17" d="M586.25,329.25c.16.83-.09,1.57-.54,1.66s-1-.52-1.11-1.35.1-1.57.55-1.65S586.1,328.43,586.25,329.25Z"/></svg>