<svg id="Layer_1" data-name="Layer 1" xmlns="http://www.w3.org/2000/svg" viewBox="0 0 295.72 87.02"><defs><style>.cls-1{fill:#91a0a4;}</style></defs><title>buildingsSpot</title><path class="cls-1" d="M264.34,79.29a.9.9,0,0,1-.9-.9V74.76a.9.9,0,1,1,1.8,0v3.63A.9.9,0,0,1,264.34,79.29Z"/><path class="cls-1" d="M264.34,70.51a.9.9,0,0,1-.9-.9V57.08H234.68a.9.9,0,0,1,0-1.8h29.67a.9.9,0,0,1,.9.9V69.61A.9.9,0,0,1,264.34,70.51Z"/><path class="cls-1" d="M289.72,79.29h-7a.9.9,0,0,1,0-1.8h7a.9.9,0,1,1,0,1.8Z"/><path class="cls-1" d="M274.6,79.29H5.17a.9.9,0,0,1,0-1.8H274.6a.9.9,0,1,1,0,1.8Z"/><path class="cls-1" d="M286.43,83.82H103.58a.9.9,0,0,1,0-1.8H286.43a.9.9,0,1,1,0,1.8Z"/><path class="cls-1" d="M80.75,83.82H40.18a.9.9,0,1,1,0-1.8H80.75a.9.9,0,1,1,0,1.8Z"/><path class="cls-1" d="M33,83.82H15.5a.9.9,0,1,1,0-1.8H33a.9.9,0,1,1,0,1.8Z"/><path class="cls-1" d="M234.68,79.29a.9.9,0,0,1-.9-.9V29.72a.9.9,0,1,1,1.8,0V78.39A.9.9,0,0,1,234.68,79.29Z"/><path class="cls-1" d="M201,79.29a.9.9,0,0,1-.9-.9V16.48a.9.9,0,0,1,.9-.9h33.67a.9.9,0,0,1,.9.9v7.78a.9.9,0,1,1-1.8,0V17.38H201.91v61A.9.9,0,0,1,201,79.29Z"/><path class="cls-1" d="M201,79.29a.9.9,0,0,1-.9-.9v-37H175V53.14a.9.9,0,0,1-.9.9H155V78.39a.9.9,0,1,1-1.8,0V53.14a.9.9,0,0,1,.9-.9h19V40.49a.9.9,0,0,1,.9-.9H201a.9.9,0,0,1,.9.9v37.9A.9.9,0,0,1,201,79.29Z"/><path class="cls-1" d="M130.84,79.29a.9.9,0,0,1-.9-.9V76a.9.9,0,1,1,1.8,0v2.44A.9.9,0,0,1,130.84,79.29Z"/><path class="cls-1" d="M130.84,56.44a.9.9,0,0,1-.9-.9V52.38a.9.9,0,1,1,1.8,0v3.16A.9.9,0,0,1,130.84,56.44Z"/><path class="cls-1" d="M73.09,79.29a.9.9,0,0,1-.9-.9V14.92a.9.9,0,0,1,.9-.9h57.75a.9.9,0,0,1,.9.9V47.73a.9.9,0,1,1-1.8,0V15.82H74V78.39A.9.9,0,0,1,73.09,79.29Z"/><path class="cls-1" d="M73.09,79.29a.9.9,0,0,1-.9-.9V44.93H28.4a.9.9,0,0,1,0-1.8H73.09a.9.9,0,0,1,.9.9V78.39A.9.9,0,0,1,73.09,79.29Z"/><path class="cls-1" d="M28.4,79.29a.9.9,0,0,1-.9-.9V44a.9.9,0,1,1,1.8,0V78.39A.9.9,0,0,1,28.4,79.29Z"/><path class="cls-1" d="M134.53,15.85H69.47a.9.9,0,0,1-.9-.9V9.64a.9.9,0,0,1,.9-.9h65.06a.9.9,0,0,1,.9.9V15A.9.9,0,0,1,134.53,15.85Zm-64.17-1.8h63.27V10.54H70.37Z"/><path class="cls-1" d="M73.09,44.93H24.74a.9.9,0,0,1-.9-.9V38.6a.9.9,0,0,1,.9-.9H73.09a.9.9,0,0,1,.9.9V44A.9.9,0,0,1,73.09,44.93Zm-47.46-1.8H72.19V39.5H25.63Z"/><path class="cls-1" d="M237.79,17.38H197.9a.9.9,0,0,1-.9-.9V11.17a.9.9,0,0,1,.9-.9h39.9a.9.9,0,0,1,.9.9v5.31A.9.9,0,0,1,237.79,17.38Zm-39-1.8h38.1V12.07h-38.1Z"/><path class="cls-1" d="M201,41.39H171.29a.9.9,0,0,1-.9-.9v-4.9a.9.9,0,0,1,.9-.9H201a.9.9,0,0,1,.9.9v4.9A.9.9,0,0,1,201,41.39Zm-28.82-1.8h27.92v-3.1H172.19Z"/><path class="cls-1" d="M174.07,53.86H151.42a.9.9,0,0,1-.9-.9V48.42a.9.9,0,0,1,.9-.9h22.65a.9.9,0,0,1,.9.9V53A.9.9,0,0,1,174.07,53.86Zm-21.75-1.8h20.85V49.32H152.32Z"/><path class="cls-1" d="M267.24,57.05H234.68a.9.9,0,0,1-.9-.9v-5.1a.9.9,0,0,1,.9-.9h32.56a.9.9,0,0,1,.9.9v5.1A.9.9,0,0,1,267.24,57.05Zm-31.66-1.8h30.76V52H235.58Z"/><path class="cls-1" d="M230.75,79.14H220a.75.75,0,0,1-.75-.75V76a.75.75,0,0,1,.75-.75h10.78a.75.75,0,0,1,.75.75v2.44A.75.75,0,0,1,230.75,79.14Zm-10-1.5H230V76.7h-9.28Z"/><path class="cls-1" d="M228.42,76.7H222.3a.75.75,0,0,1-.75-.75V66.46a.75.75,0,0,1,.75-.75h6.12a.75.75,0,0,1,.75.75V76A.75.75,0,0,1,228.42,76.7ZM223,75.2h4.62v-8H223Z"/><path class="cls-1" d="M196.28,79.14H185.5a.75.75,0,0,1-.75-.75V76a.75.75,0,0,1,.75-.75h10.78A.75.75,0,0,1,197,76v2.44A.75.75,0,0,1,196.28,79.14Zm-10-1.5h9.28V76.7h-9.28Z"/><path class="cls-1" d="M193.95,76.7h-6.12a.75.75,0,0,1-.75-.75V66.46a.75.75,0,0,1,.75-.75h6.12a.75.75,0,0,1,.75.75V76A.75.75,0,0,1,193.95,76.7Zm-5.37-1.5h4.62v-8h-4.62Z"/><path class="cls-1" d="M107.35,79.14H96.57a.75.75,0,0,1-.75-.75V76a.75.75,0,0,1,.75-.75h10.78a.75.75,0,0,1,.75.75v2.44A.75.75,0,0,1,107.35,79.14Zm-10-1.5h9.28V76.7H97.32Z"/><path class="cls-1" d="M105,76.7H98.9a.75.75,0,0,1-.75-.75V66.46a.75.75,0,0,1,.75-.75H105a.75.75,0,0,1,.75.75V76A.75.75,0,0,1,105,76.7Zm-5.37-1.5h4.62v-8H99.65Z"/><path class="cls-1" d="M45.57,79.14H34.79a.75.75,0,0,1-.75-.75V76a.75.75,0,0,1,.75-.75H45.57a.75.75,0,0,1,.75.75v2.44A.75.75,0,0,1,45.57,79.14Zm-10-1.5h9.28V76.7H35.54Z"/><path class="cls-1" d="M43.24,76.7H37.12a.75.75,0,0,1-.75-.75V66.46a.75.75,0,0,1,.75-.75h6.12a.75.75,0,0,1,.75.75V76A.75.75,0,0,1,43.24,76.7Zm-5.37-1.5h4.62v-8H37.87Z"/><path class="cls-1" d="M218,73H205.26a.75.75,0,0,1-.75-.75V60.49a.75.75,0,0,1,.75-.75H218a.75.75,0,0,1,.75.75V72.23A.75.75,0,0,1,218,73Zm-12-1.5H217.3V61.24H206Z"/><path class="cls-1" d="M124.8,73H112a.75.75,0,0,1-.75-.75V60.49a.75.75,0,0,1,.75-.75H124.8a.75.75,0,0,1,.75.75V72.23A.75.75,0,0,1,124.8,73Zm-12-1.5H124V61.24H112.76Z"/><path class="cls-1" d="M91.57,73H78.78a.75.75,0,0,1-.75-.75V60.49a.75.75,0,0,1,.75-.75H91.57a.75.75,0,0,1,.75.75V72.23A.75.75,0,0,1,91.57,73Zm-12-1.5H90.83V61.24H79.53Z"/><path class="cls-1" d="M68.82,79.14H50a.75.75,0,0,1-.75-.75V63.86a.75.75,0,0,1,.75-.75H68.82a.75.75,0,0,1,.75.75V78.39A.75.75,0,0,1,68.82,79.14Zm-18-1.5H68.07v-13H50.79Z"/><path class="cls-1" d="M213.1,31.26h-4.87a.75.75,0,0,1-.75-.75V23a.75.75,0,0,1,.75-.75h4.87a.75.75,0,0,1,.75.75v7.55A.75.75,0,0,1,213.1,31.26ZM209,29.77h3.37V23.71H209Z"/><path class="cls-1" d="M227.45,31.26h-4.87a.75.75,0,0,1-.75-.75V23a.75.75,0,0,1,.75-.75h4.87a.75.75,0,0,1,.75.75v7.55A.75.75,0,0,1,227.45,31.26Zm-4.12-1.5h3.37V23.71h-3.37Z"/><path class="cls-1" d="M213.1,27.49h-4.87a.75.75,0,1,1,0-1.5h4.87a.75.75,0,1,1,0,1.5Z"/><path class="cls-1" d="M227.45,26.3h-4.87a.75.75,0,1,1,0-1.5h4.87a.75.75,0,1,1,0,1.5Z"/><path class="cls-1" d="M184.27,55.58H179.4a.75.75,0,0,1-.75-.75V47.28a.75.75,0,0,1,.75-.75h4.87a.75.75,0,0,1,.75.75v7.55A.75.75,0,0,1,184.27,55.58Zm-4.12-1.5h3.37V48h-3.37Z"/><path class="cls-1" d="M196.25,55.58h-4.87a.75.75,0,0,1-.75-.75V47.28a.75.75,0,0,1,.75-.75h4.87a.75.75,0,0,1,.75.75v7.55A.75.75,0,0,1,196.25,55.58Zm-4.12-1.5h3.37V48h-3.37Z"/><path class="cls-1" d="M184.27,51.81H179.4a.75.75,0,0,1,0-1.5h4.87a.75.75,0,1,1,0,1.5Z"/><path class="cls-1" d="M196.25,51.81h-4.87a.75.75,0,0,1,0-1.5h4.87a.75.75,0,1,1,0,1.5Z"/><path class="cls-1" d="M213.1,38.29h-4.87a.75.75,0,0,1,0-1.5h4.87a.75.75,0,1,1,0,1.5Z"/><path class="cls-1" d="M227.45,39.47h-4.87a.75.75,0,0,1,0-1.5h4.87a.75.75,0,0,1,0,1.5Z"/><path class="cls-1" d="M213.1,51.35h-4.87a.75.75,0,0,1,0-1.5h4.87a.75.75,0,1,1,0,1.5Z"/><path class="cls-1" d="M227.45,51.35h-4.87a.75.75,0,0,1,0-1.5h4.87a.75.75,0,0,1,0,1.5Z"/><path class="cls-1" d="M213.1,43.25h-4.87a.75.75,0,0,1-.75-.75V34.94a.75.75,0,0,1,.75-.75h4.87a.75.75,0,0,1,.75.75V42.5A.75.75,0,0,1,213.1,43.25ZM209,41.75h3.37V35.69H209Z"/><path class="cls-1" d="M227.45,43.25h-4.87a.75.75,0,0,1-.75-.75V34.94a.75.75,0,0,1,.75-.75h4.87a.75.75,0,0,1,.75.75V42.5A.75.75,0,0,1,227.45,43.25Zm-4.12-1.5h3.37V35.69h-3.37Z"/><path class="cls-1" d="M213.1,55.08h-4.87a.75.75,0,0,1-.75-.75V46.78a.75.75,0,0,1,.75-.75h4.87a.75.75,0,0,1,.75.75v7.55A.75.75,0,0,1,213.1,55.08ZM209,53.58h3.37V47.53H209Z"/><path class="cls-1" d="M227.45,55.08h-4.87a.75.75,0,0,1-.75-.75V46.78a.75.75,0,0,1,.75-.75h4.87a.75.75,0,0,1,.75.75v7.55A.75.75,0,0,1,227.45,55.08Zm-4.12-1.5h3.37V47.53h-3.37Z"/><path class="cls-1" d="M87.61,29.49H82.74a.75.75,0,0,1-.75-.75V21.19a.75.75,0,0,1,.75-.75h4.87a.75.75,0,0,1,.75.75v7.55A.75.75,0,0,1,87.61,29.49ZM83.49,28h3.37V21.94H83.49Z"/><path class="cls-1" d="M104.4,29.49H99.53a.75.75,0,0,1-.75-.75V21.19a.75.75,0,0,1,.75-.75h4.87a.75.75,0,0,1,.75.75v7.55A.75.75,0,0,1,104.4,29.49ZM100.28,28h3.37V21.94h-3.37Z"/><path class="cls-1" d="M87.61,25.71H82.74a.75.75,0,0,1,0-1.5h4.87a.75.75,0,0,1,0,1.5Z"/><path class="cls-1" d="M104.4,25.71H99.53a.75.75,0,1,1,0-1.5h4.87a.75.75,0,0,1,0,1.5Z"/><path class="cls-1" d="M53.13,58.47H48.27a.75.75,0,0,1-.75-.75V50.17a.75.75,0,0,1,.75-.75h4.87a.75.75,0,0,1,.75.75v7.55A.75.75,0,0,1,53.13,58.47ZM49,57h3.37V50.92H49Z"/><path class="cls-1" d="M66.39,58.47H61.52a.75.75,0,0,1-.75-.75V50.17a.75.75,0,0,1,.75-.75h4.87a.75.75,0,0,1,.75.75v7.55A.75.75,0,0,1,66.39,58.47ZM62.27,57h3.37V50.92H62.27Z"/><path class="cls-1" d="M53.13,53.51H48.27a.75.75,0,0,1,0-1.5h4.87a.75.75,0,0,1,0,1.5Z"/><path class="cls-1" d="M40.12,58.47H35.25a.75.75,0,0,1-.75-.75V50.17a.75.75,0,0,1,.75-.75h4.87a.75.75,0,0,1,.75.75v7.55A.75.75,0,0,1,40.12,58.47ZM36,57h3.37V50.92H36Z"/><path class="cls-1" d="M40.12,54.69H35.25a.75.75,0,1,1,0-1.5h4.87a.75.75,0,0,1,0,1.5Z"/><path class="cls-1" d="M66.39,54.69H61.52a.75.75,0,0,1,0-1.5h4.87a.75.75,0,1,1,0,1.5Z"/><path class="cls-1" d="M87.61,37.69H82.74a.75.75,0,0,1,0-1.5h4.87a.75.75,0,0,1,0,1.5Z"/><path class="cls-1" d="M104.4,37.69H99.53a.75.75,0,0,1,0-1.5h4.87a.75.75,0,0,1,0,1.5Z"/><path class="cls-1" d="M87.61,51.94H82.74a.75.75,0,1,1,0-1.5h4.87a.75.75,0,1,1,0,1.5Z"/><path class="cls-1" d="M104.4,51.94H99.53a.75.75,0,0,1,0-1.5h4.87a.75.75,0,0,1,0,1.5Z"/><path class="cls-1" d="M87.61,42.65H82.74A.75.75,0,0,1,82,41.9V34.35a.75.75,0,0,1,.75-.75h4.87a.75.75,0,0,1,.75.75V41.9A.75.75,0,0,1,87.61,42.65Zm-4.12-1.5h3.37V35.1H83.49Z"/><path class="cls-1" d="M104.4,42.65H99.53a.75.75,0,0,1-.75-.75V34.35a.75.75,0,0,1,.75-.75h4.87a.75.75,0,0,1,.75.75V41.9A.75.75,0,0,1,104.4,42.65Zm-4.12-1.5h3.37V35.1h-3.37Z"/><path class="cls-1" d="M87.61,55.67H82.74a.75.75,0,0,1-.75-.75V47.37a.75.75,0,0,1,.75-.75h4.87a.75.75,0,0,1,.75.75v7.55A.75.75,0,0,1,87.61,55.67Zm-4.12-1.5h3.37V48.12H83.49Z"/><path class="cls-1" d="M104.4,55.67H99.53a.75.75,0,0,1-.75-.75V47.37a.75.75,0,0,1,.75-.75h4.87a.75.75,0,0,1,.75.75v7.55A.75.75,0,0,1,104.4,55.67Zm-4.12-1.5h3.37V48.12h-3.37Z"/><path class="cls-1" d="M120.84,29.49H116a.75.75,0,0,1-.75-.75V21.19a.75.75,0,0,1,.75-.75h4.87a.75.75,0,0,1,.75.75v7.55A.75.75,0,0,1,120.84,29.49ZM116.72,28h3.37V21.94h-3.37Z"/><path class="cls-1" d="M120.84,25.71H116a.75.75,0,0,1,0-1.5h4.87a.75.75,0,1,1,0,1.5Z"/><path class="cls-1" d="M120.84,38.88H116a.75.75,0,0,1,0-1.5h4.87a.75.75,0,1,1,0,1.5Z"/><path class="cls-1" d="M120.84,50.75H116a.75.75,0,0,1,0-1.5h4.87a.75.75,0,1,1,0,1.5Z"/><path class="cls-1" d="M120.84,42.65H116a.75.75,0,0,1-.75-.75V34.35a.75.75,0,0,1,.75-.75h4.87a.75.75,0,0,1,.75.75V41.9A.75.75,0,0,1,120.84,42.65Zm-4.12-1.5h3.37V35.1h-3.37Z"/><path class="cls-1" d="M120.84,55.67H116a.75.75,0,0,1-.75-.75V47.37a.75.75,0,0,1,.75-.75h4.87a.75.75,0,0,1,.75.75v7.55A.75.75,0,0,1,120.84,55.67Zm-4.12-1.5h3.37V48.12h-3.37Z"/><path class="cls-1" d="M181.21,73h-22a.75.75,0,0,1-.75-.75V60.49a.75.75,0,0,1,.75-.75h22a.75.75,0,0,1,.75.75V72.23A.75.75,0,0,1,181.21,73Zm-21.26-1.5h20.51V61.24H159.95Z"/><path class="cls-1" d="M175.25,73a.75.75,0,0,1-.75-.75V60.49a.75.75,0,0,1,1.5,0V72.23A.75.75,0,0,1,175.25,73Z"/><path class="cls-1" d="M165.16,73a.75.75,0,0,1-.75-.75V60.49a.75.75,0,0,1,1.5,0V72.23A.75.75,0,0,1,165.16,73Z"/><path class="cls-1" d="M68.82,74.92H50a.75.75,0,0,1,0-1.5H68.82a.75.75,0,0,1,0,1.5Z"/><path class="cls-1" d="M68.82,72H50a.75.75,0,0,1,0-1.5H68.82a.75.75,0,0,1,0,1.5Z"/><path class="cls-1" d="M68.82,67.82H50a.75.75,0,0,1,0-1.5H68.82a.75.75,0,0,1,0,1.5Z"/><path class="cls-1" d="M258.9,79.14H240.12a.75.75,0,0,1-.75-.75V63.86a.75.75,0,0,1,.75-.75H258.9a.75.75,0,0,1,.75.75V78.39A.75.75,0,0,1,258.9,79.14Zm-18-1.5h17.28v-13H240.87Z"/><path class="cls-1" d="M258.9,74.92H240.12a.75.75,0,1,1,0-1.5H258.9a.75.75,0,0,1,0,1.5Z"/><path class="cls-1" d="M258.9,72H240.12a.75.75,0,1,1,0-1.5H258.9a.75.75,0,0,1,0,1.5Z"/><path class="cls-1" d="M258.9,67.82H240.12a.75.75,0,1,1,0-1.5H258.9a.75.75,0,0,1,0,1.5Z"/><path class="cls-1" d="M154.14,61.24a.74.74,0,0,1-.23,0,35.35,35.35,0,0,1-12.19-6.88,37,37,0,0,1-11.61-19.81.75.75,0,0,1,1.46-.32,35.46,35.46,0,0,0,11.13,19,33.87,33.87,0,0,0,11.68,6.58.75.75,0,0,1-.23,1.46Z"/><path class="cls-1" d="M94.45,10.54H79.73a.9.9,0,0,1-.9-.9v-6a.9.9,0,0,1,.9-.9H94.45a.9.9,0,0,1,.9.9v6A.9.9,0,0,1,94.45,10.54ZM80.63,8.74H93.55V4.53H80.63Z"/><path class="cls-1" d="M125.76,10.54h-6a.9.9,0,0,1-.9-.9v-5a.9.9,0,0,1,.9-.9h6a.9.9,0,0,1,.9.9v5A.9.9,0,0,1,125.76,10.54Zm-5.11-1.8h4.21V5.55h-4.21Z"/><path class="cls-1" d="M183.93,36.34h-4.2a.75.75,0,0,1-.75-.75V32a.75.75,0,0,1,.75-.75h4.2a.75.75,0,0,1,.75.75v3.6A.75.75,0,0,1,183.93,36.34Zm-3.45-1.5h2.7v-2.1h-2.7Z"/><path class="cls-1" d="M199.64,11.92a.75.75,0,0,1-.75-.75V8.92a.75.75,0,0,1,1.5,0v2.25A.75.75,0,0,1,199.64,11.92Z"/><path class="cls-1" d="M208.67,11.92a.75.75,0,0,1-.75-.75V8.92a.75.75,0,0,1,1.5,0v2.25A.75.75,0,0,1,208.67,11.92Z"/><path class="cls-1" d="M217.69,11.92a.75.75,0,0,1-.75-.75V8.92a.75.75,0,0,1,1.5,0v2.25A.75.75,0,0,1,217.69,11.92Z"/><path class="cls-1" d="M226.71,11.92a.75.75,0,0,1-.75-.75V8.92a.75.75,0,0,1,1.5,0v2.25A.75.75,0,0,1,226.71,11.92Z"/><path class="cls-1" d="M235.74,11.92a.75.75,0,0,1-.75-.75V8.92a.75.75,0,0,1,1.5,0v2.25A.75.75,0,0,1,235.74,11.92Z"/><path class="cls-1" d="M93.55,31.71h-2a.75.75,0,0,1,0-1.5h2a.75.75,0,0,1,0,1.5Z"/><path class="cls-1" d="M95.32,34.08h-2a.75.75,0,0,1,0-1.5h2a.75.75,0,0,1,0,1.5Z"/><path class="cls-1" d="M106.37,60.78h-2a.75.75,0,0,1,0-1.5h2a.75.75,0,1,1,0,1.5Z"/><path class="cls-1" d="M104.79,63.14h-2a.75.75,0,0,1,0-1.5h2a.75.75,0,0,1,0,1.5Z"/><path class="cls-1" d="M72.25,62h-2a.75.75,0,1,1,0-1.5h2a.75.75,0,1,1,0,1.5Z"/><path class="cls-1" d="M33.78,70.24h-2a.75.75,0,1,1,0-1.5h2a.75.75,0,1,1,0,1.5Z"/><path class="cls-1" d="M122.55,75.57h-2a.75.75,0,1,1,0-1.5h2a.75.75,0,0,1,0,1.5Z"/><path class="cls-1" d="M228.53,61h-2a.75.75,0,0,1,0-1.5h2a.75.75,0,1,1,0,1.5Z"/><path class="cls-1" d="M207.81,29.68h-2a.75.75,0,0,1,0-1.5h2a.75.75,0,1,1,0,1.5Z"/><path class="cls-1" d="M230.3,63.41h-2a.75.75,0,0,1,0-1.5h2a.75.75,0,1,1,0,1.5Z"/><path class="cls-1" d="M259,60.18h-2a.75.75,0,1,1,0-1.5h2a.75.75,0,0,1,0,1.5Z"/><path class="cls-1" d="M260.94,62h-2a.75.75,0,0,1,0-1.5h2a.75.75,0,0,1,0,1.5Z"/><path class="cls-1" d="M187.62,63.41h-2a.75.75,0,0,1,0-1.5h2a.75.75,0,1,1,0,1.5Z"/><path class="cls-1" d="M200.64,45.07h-2a.75.75,0,1,1,0-1.5h2a.75.75,0,1,1,0,1.5Z"/><path class="cls-1" d="M15.15,73.49a6.2,6.2,0,0,1-2.77-11.76,3.75,3.75,0,0,1,2.83-6.3,3.79,3.79,0,0,1,3.68,3.68,3.74,3.74,0,0,1-1,2.64,6.14,6.14,0,0,1,3.44,6.18h0a6.21,6.21,0,0,1-5.48,5.51A6.13,6.13,0,0,1,15.15,73.49Zm0-16.56a2.26,2.26,0,0,0-1.63,3.81A1.43,1.43,0,0,1,13.88,62a1.48,1.48,0,0,1-.8,1.06,4.71,4.71,0,1,0,6.74,4.73,4.73,4.73,0,0,0-2.62-4.73,1.43,1.43,0,0,1-.79-1,1.49,1.49,0,0,1,.38-1.28,2.25,2.25,0,0,0,.61-1.59,2.31,2.31,0,0,0-2.21-2.21Zm5.43,10.93h0Zm-8.15-6.15Z"/><path class="cls-1" d="M15.14,78.34a.6.6,0,0,1-.6-.6V64.2a.6.6,0,0,1,1.2,0V77.74A.6.6,0,0,1,15.14,78.34Z"/><path class="cls-1" d="M15.14,70.79a.6.6,0,0,1-.41-1l2.17-2a.6.6,0,1,1,.81.88l-2.17,2A.6.6,0,0,1,15.14,70.79Z"/><path class="cls-1" d="M15.15,69.13a.6.6,0,0,1-.42-.18l-2.17-2.17a.6.6,0,0,1,.85-.85l2.17,2.17a.6.6,0,0,1-.42,1Z"/><path class="cls-1" d="M286.21,74.24a5.39,5.39,0,0,1-2.54-10.15,3.31,3.31,0,0,1,2.59-5.44,3.34,3.34,0,0,1,3.24,3.24,3.29,3.29,0,0,1-.78,2.19,5.42,5.42,0,0,1,2.83,5.32h0a5.38,5.38,0,0,1-5.35,4.82Zm0-14.08a1.81,1.81,0,0,0-1.31,3.05,1.33,1.33,0,0,1,.35,1.16,1.37,1.37,0,0,1-.74,1,3.89,3.89,0,0,0-.89,6.39,3.89,3.89,0,0,0,6.46-2.48h0a3.91,3.91,0,0,0-2.17-3.91,1.33,1.33,0,0,1-.73-1,1.37,1.37,0,0,1,.35-1.19,1.8,1.8,0,0,0,.49-1.27,1.85,1.85,0,0,0-1.77-1.77Z"/><path class="cls-1" d="M286.2,78.34a.6.6,0,0,1-.6-.6V66.22a.6.6,0,0,1,1.2,0V77.74A.6.6,0,0,1,286.2,78.34Z"/><path class="cls-1" d="M286.2,71.92a.6.6,0,0,1-.41-1l1.85-1.71a.6.6,0,1,1,.81.88l-1.85,1.71A.6.6,0,0,1,286.2,71.92Z"/><path class="cls-1" d="M286.21,70.5a.6.6,0,0,1-.42-.18l-1.85-1.85a.6.6,0,1,1,.85-.85l1.85,1.85a.6.6,0,0,1-.42,1Z"/><path class="cls-1" d="M134.54,73.91a5.75,5.75,0,0,1-2.64-10.85,3.5,3.5,0,0,1,2.7-5.81A3.54,3.54,0,0,1,138,60.68a3.49,3.49,0,0,1-.87,2.38,5.77,5.77,0,0,1,3.08,5.71h0a5.73,5.73,0,0,1-5.7,5.14Zm0-15.17a2,2,0,0,0-1.45,3.39,1.37,1.37,0,0,1,.36,1.2,1.42,1.42,0,0,1-.77,1,4.25,4.25,0,1,0,6.09,4.27h0a4.27,4.27,0,0,0-2.37-4.27,1.38,1.38,0,0,1-.76-1,1.42,1.42,0,0,1,.36-1.23,2,2,0,0,0,.55-1.41,2,2,0,0,0-2-2Z"/><path class="cls-1" d="M134.53,78.34a.6.6,0,0,1-.6-.6V66.16a.6.6,0,0,1,1.2,0V77.74A.6.6,0,0,1,134.53,78.34Z"/><path class="cls-1" d="M134.53,70.94a.6.6,0,0,1-.41-.16l-2-1.84a.6.6,0,1,1,.81-.88l2,1.84a.6.6,0,0,1-.41,1Z"/><path class="cls-1" d="M134.53,70a.6.6,0,0,1-.42-1l2-2a.6.6,0,0,1,.85.85l-2,2A.6.6,0,0,1,134.53,70Z"/></svg>