<?xml version="1.0" encoding="utf-8"?>
<!-- Generator: Adobe Illustrator 22.1.0, SVG Export Plug-In . SVG Version: 6.00 Build 0)  -->
<svg version="1.1" xmlns="http://www.w3.org/2000/svg" xmlns:xlink="http://www.w3.org/1999/xlink" x="0px" y="0px"
	 viewBox="0 0 30 20" style="enable-background:new 0 0 30 20;" xml:space="preserve">
<style type="text/css">
	.st0{display:none;}
	.st1{fill:#D8B87F;}
	.st2{fill:#FFF5E5;}
	.st3{fill:#B25828;}
	.st4{fill:#9DDE6E;}
	.st5{fill:#F6EA83;}
	.st6{fill:none;stroke:#333333;stroke-width:1.5;stroke-linecap:round;stroke-linejoin:round;stroke-miterlimit:10;}
	.st7{fill:#D8AB93;}
	.st8{fill:#333333;}
	.st9{fill:#00BCD3;}
	.st10{fill:#B27100;}
	.st11{fill:#EBF2F3;}
	.st12{fill:none;stroke:#333333;stroke-width:3;stroke-linecap:round;stroke-linejoin:round;stroke-miterlimit:10;}
	.st13{fill:#FFFFFF;}
	.st14{fill:none;stroke:#333333;stroke-width:2;stroke-linecap:round;stroke-linejoin:round;stroke-miterlimit:10;}
	.st15{fill:#EBEEF0;}
	.st16{fill:none;stroke:#D1EBF5;stroke-miterlimit:10;}
	.st17{fill:#F74A2A;}
	.st18{fill:#333333;stroke:#333333;stroke-width:0.5;stroke-miterlimit:10;}
	.st19{fill:none;stroke:#2A413D;stroke-miterlimit:10;}
	.st20{fill:#5D5D5D;}
	.st21{opacity:0.1;fill:none;stroke:#5D5D5D;stroke-miterlimit:10;}
	.st22{fill:#44BDD1;}
	.st23{fill:#3E615B;}
	.st24{fill:#54C500;}
	.st25{opacity:0.3;fill:#F6EA83;}
	.st26{fill:none;stroke:#333333;stroke-width:1.75;stroke-linecap:round;stroke-linejoin:round;stroke-miterlimit:10;}
	.st27{fill:none;stroke:#00BCD3;stroke-linecap:round;stroke-linejoin:round;stroke-miterlimit:10;}
	.st28{fill:#FCF9DA;}
	.st29{fill:#F67280;}
	.st30{fill:none;stroke:#004545;stroke-width:2.5;stroke-linecap:round;stroke-linejoin:round;stroke-miterlimit:10;}
	.st31{fill:none;stroke:#333333;stroke-width:1.74;stroke-linecap:round;stroke-linejoin:round;stroke-miterlimit:10;}
	.st32{fill:#BCCB00;}
	.st33{fill:#00566F;}
	.st34{fill:#006752;}
	.st35{fill:#F6EA85;}
	.st36{fill:#FFA000;}
	.st37{fill:#FF7E3A;}
	.st38{fill:#D0DA4C;}
	.st39{fill:#4C889A;}
	.st40{fill:#4CCEE0;}
	.st41{fill:#4C9485;}
	.st42{fill:#88D64C;}
	.st43{fill:#F8F1A9;}
	.st44{fill:#FFBD4C;}
	.st45{fill:#FFA575;}
	.st46{fill:#E4EA99;}
	.st47{fill:#99BBC5;}
	.st48{fill:#99E3ED;}
	.st49{fill:#99C2B9;}
	.st50{fill:#BBE799;}
	.st51{fill:#FBF7CE;}
	.st52{fill:#FFD999;}
	.st53{fill:#FFCBB0;}
	.st54{fill:#F8F9E5;}
	.st55{fill:#E5EEF0;}
	.st56{fill:#E5F8FA;}
	.st57{fill:#E5EFED;}
	.st58{fill:#EEF9E5;}
	.st59{fill:#FEFDF2;}
	.st60{fill:#FFF2EB;}
	.st61{fill:#ED9872;}
	.st62{fill:#E6764A;}
	.st63{fill:#848E00;}
	.st64{fill:#003B4D;}
	.st65{fill:#008293;}
	.st66{fill:#004839;}
	.st67{fill:#3B8900;}
	.st68{fill:#DDD377;}
	.st69{fill:#F26838;}
	.st70{fill:none;stroke:#9DDE6E;stroke-miterlimit:10;}
	.st71{opacity:9.000000e-02;fill:#FFFFFF;}
	.st72{opacity:9.000000e-02;}
	.st73{fill:#333333;stroke:#333333;stroke-width:0.25;stroke-miterlimit:10;}
	.st74{fill:none;stroke:#333333;stroke-width:1.25;stroke-linecap:round;stroke-linejoin:round;stroke-miterlimit:10;}
	.st75{fill:#006097;}
	.st76{fill:#7EB903;}
	.st77{fill:#00A0DE;}
	.st78{fill:#00615C;}
	.st79{fill:#E0241B;}
	.st80{fill:#00BAB4;}
	.st81{fill:#FFA201;}
	.st82{fill:#E76CAF;}
	.st83{fill:#FFCF03;}
	.st84{fill:#6E2D62;}
	.st85{fill:#79858C;}
	.st86{fill:#C0C4C8;}
	.st87{fill:#E0E0E0;}
	.st88{fill:#EDF3F4;}
	.st89{fill:#454545;}
	.st90{fill:#FFAD81;}
	.st91{opacity:0.21;}
	.st92{fill:none;stroke:#333333;stroke-linecap:round;stroke-linejoin:round;stroke-miterlimit:10;}
	.st93{opacity:0.3;}
	.st94{fill:none;stroke:#687578;stroke-width:1.5;stroke-linecap:round;stroke-linejoin:round;stroke-miterlimit:10;}
	.st95{fill:none;stroke:#687578;stroke-linecap:round;stroke-linejoin:round;stroke-miterlimit:10;}
	.st96{fill:#CCCCCC;}
	.st97{fill:#687578;}
	.st98{fill:none;stroke:#CCCCCC;stroke-width:2;stroke-miterlimit:10;}
	.st99{fill:none;stroke:#9DDE6E;stroke-width:2;stroke-miterlimit:10;}
</style>
<g id="Layer_2" class="st0">
</g>
<g id="Layer_1">
	<g>
		<g>
			<g>
				<g>
					<path class="st97" d="M27.8,19H10.3c-2.4,0-4.7-0.9-6.4-2.6c-1.8-1.8-2.8-4.4-2.6-7v0C1.6,4.7,5.7,1,10.6,1h9.2
						c0.2,0,0.3,0,0.5,0c0.4,0,0.8,0.1,1.2,0.1c0.4,0.1,0.8,0.2,1.1,0.3c3.7,1.2,6.2,4.6,6.2,8.6v8.1C28.7,18.6,28.3,19,27.8,19z
						 M2.8,9.5c-0.1,2.2,0.6,4.3,2.2,5.8c1.4,1.4,3.3,2.2,5.3,2.2h17V10c0-3.3-2.1-6.1-5.2-7.1c-0.3-0.1-0.6-0.2-0.9-0.2
						c-0.3-0.1-0.7-0.1-1-0.1c-0.1,0-0.3,0-0.4,0h-9.2C6.5,2.5,3,5.5,2.8,9.5L2.8,9.5z"/>
				</g>
			</g>
		</g>
		<g>
			<path class="st97" d="M21,8.5H9c-0.4,0-0.8-0.3-0.8-0.8S8.6,7,9,7h12c0.4,0,0.8,0.3,0.8,0.8S21.4,8.5,21,8.5z"/>
		</g>
		<g>
			<path class="st97" d="M18.3,13H9c-0.4,0-0.8-0.3-0.8-0.8s0.3-0.8,0.8-0.8h9.4c0.4,0,0.8,0.3,0.8,0.8S18.8,13,18.3,13z"/>
		</g>
	</g>
	<g class="st93">
		
			<image style="overflow:visible;" width="119" height="118" xlink:href="FE002D47019A3A0F.png"  transform="matrix(1 0 0 1 -27.2701 -94.632)">
		</image>
	</g>
	<g class="st93">
		
			<image style="overflow:visible;" width="118" height="118" xlink:href="FE002D47019A3A0D.png"  transform="matrix(1 0 0 1 -99.2701 -94.632)">
		</image>
	</g>
</g>
</svg>
