<svg id="Layer_1" data-name="Layer 1" xmlns="http://www.w3.org/2000/svg" width="346.45" height="346.45" viewBox="0 0 346.45 346.45"><defs><style>.cls-1{fill:#555;}</style></defs><title>close</title><path class="cls-1" d="M212.83,173.23l130.1-130.1a12,12,0,0,0,0-17l-22.6-22.6a12,12,0,0,0-17,0l-130.1,130.1L43.13,3.53a12,12,0,0,0-17,0L3.53,26.13a12,12,0,0,0,0,17l130.1,130.1L3.53,303.33a12,12,0,0,0,0,17l22.6,22.6a12,12,0,0,0,17,0l130.1-130.1,130.1,130.1a12,12,0,0,0,17,0l22.6-22.6a12,12,0,0,0,0-17Z"/></svg>