<svg id="Layer_1" data-name="Layer 1" xmlns="http://www.w3.org/2000/svg" width="405.09" height="301.86" viewBox="0 0 405.09 301.86"><defs><style>.cls-1{fill:#e5f8fa;}.cls-11,.cls-18,.cls-2{opacity:0.6;}.cls-11,.cls-3{fill:#c7e0e5;}.cls-15,.cls-16,.cls-17,.cls-18,.cls-21,.cls-4{fill:none;stroke-linecap:round;stroke-linejoin:round;}.cls-16,.cls-4{stroke:#ffbd4c;}.cls-17,.cls-4{stroke-width:2px;}.cls-5{fill:#00566f;}.cls-6{fill:#a1d669;}.cls-7{fill:#fff5e5;}.cls-8{fill:#99c961;}.cls-9{fill:#99bbc5;}.cls-10{fill:#e8ecef;}.cls-11,.cls-18{isolation:isolate;}.cls-12{fill:#ffbd4c;}.cls-13{fill:#ffa000;}.cls-14{fill:#ffd999;}.cls-15,.cls-17{stroke:#ffa000;}.cls-15,.cls-16,.cls-18,.cls-21{stroke-width:1.5px;}.cls-18,.cls-21{stroke:#c7e0e5;}.cls-19{fill:#fff;}.cls-20{fill:#006752;}</style></defs><title>confirmYourIdentity</title><path class="cls-1" d="M313.52,34a124.48,124.48,0,0,0-25.82-5.65c-55.87-6.1-96.48,28.38-139.9,57.78-17.11,11.58-34.2,22.92-49.59,37C67.51,151.21,46.44,188.36,60.7,230.5c9.87,29.17,32.55,52.66,58.62,69.06,37.22,23.41,82.52,33.85,126.17,28.62S330.83,302,360.72,269.77c21.46-23.15,36.94-52.26,41.7-83.47,4.3-28.21-.29-57.6-12.24-83.52A130.32,130.32,0,0,0,313.52,34Z" transform="translate(-23.31 -27.64)"/><g class="cls-2"><path class="cls-3" d="M100.09,208.6H71.27a1.66,1.66,0,0,0-1.66,1.66h0V242.5l50.3.54L146,180.28V150.71a1.66,1.66,0,0,0-1.66-1.66h-42.6a1.66,1.66,0,0,0-1.66,1.66h0V208.6Z" transform="translate(-23.31 -27.64)"/><path class="cls-3" d="M298.44,237.88H280v-55.2A58.45,58.45,0,0,1,264.25,202c-1,.78-2,1.54-3.09,2.27V225.1l1.2,40.32L232.77,285H200.13V204.87H212.3V179.4a1.66,1.66,0,0,1,1.66-1.65H259.5a1.65,1.65,0,0,1,1.66,1.64h0v22.38c.63-.45,1.25-.92,1.85-1.39A57.35,57.35,0,0,0,280,178V162.72a1.66,1.66,0,0,1,1.65-1.66h35.46a1.66,1.66,0,0,1,1.65,1.66v28.12Z" transform="translate(-23.31 -27.64)"/><path class="cls-3" d="M360.23,252.14h0V210.27a1.93,1.93,0,0,0-2-1.89H342.88v43.76Z" transform="translate(-23.31 -27.64)"/></g><line class="cls-4" x1="273.21" y1="164.2" x2="273.21" y2="161.05"/><line class="cls-4" x1="285.86" y1="164.2" x2="285.86" y2="161.05"/><line class="cls-4" x1="298.5" y1="164.2" x2="298.5" y2="161.05"/><line class="cls-4" x1="311.15" y1="164.2" x2="311.15" y2="161.05"/><line class="cls-4" x1="323.79" y1="164.2" x2="323.79" y2="161.05"/><path class="cls-5" d="M234.09,260.69a.75.75,0,0,1-.22,0,55.47,55.47,0,0,1-18.58-9.56,50.54,50.54,0,0,1-17.72-27.61.75.75,0,1,1,1.46-.35,49,49,0,0,0,17.19,26.78,54,54,0,0,0,18.08,9.3.75.75,0,0,1-.21,1.47Z" transform="translate(-23.31 -27.64)"/><path class="cls-6" d="M293.59,106.58a28.68,28.68,0,0,1-28.67,28.69h0a26.69,26.69,0,0,1-3.61-.25h-.15l-.06.07h0l-2.41,2.73-3.13,3.57L254,136.9l-1.52-4.5a28.42,28.42,0,0,1-6.9-4.66,29.14,29.14,0,0,1-9.36-21.18,28.67,28.67,0,0,1,38.54-26.94l.7.28.36.15.17.07.48.21h0a29.17,29.17,0,0,1,15,15.3,28.64,28.64,0,0,1,2,8.2C293.55,104.75,293.59,105.66,293.59,106.58Z" transform="translate(-23.31 -27.64)"/><path class="cls-7" d="M262.62,100.36a2.21,2.21,0,0,1-4.31-1q0-.1.05-.2a2.16,2.16,0,0,1,1.36-1.36,2.22,2.22,0,0,1,2.9,2.52Z" transform="translate(-23.31 -27.64)"/><path class="cls-7" d="M274.9,102.1a2.21,2.21,0,0,1,1-4.31l.2.05a2.16,2.16,0,0,1,1.36,1.36,2.22,2.22,0,0,1-2.52,2.9Z" transform="translate(-23.31 -27.64)"/><path class="cls-8" d="M261,135.08h0Z" transform="translate(-23.31 -27.64)"/><path class="cls-8" d="M293.59,106.58a28.68,28.68,0,0,1-28.67,28.69h0a26.69,26.69,0,0,1-3.61-.25A32.94,32.94,0,0,0,285,112a31.53,31.53,0,0,0,1-10.64,33.38,33.38,0,0,0-1.73-8.28A32.12,32.12,0,0,0,276,80.17l.44.17h0a29.17,29.17,0,0,1,15,15.3,28.64,28.64,0,0,1,2,8.2A22.76,22.76,0,0,1,293.59,106.58Z" transform="translate(-23.31 -27.64)"/><path class="cls-9" d="M237.26,131.9c-.13,3.38-1.94,7-5.2,7.92-2.53.69-5.22-.47-7.34-2s-3.94-3.52-6.21-4.83-5.29-1.85-7.47-.38a18.11,18.11,0,0,0-2,1.76,8.9,8.9,0,0,1-4.6,2.24c1.75-1.79,2.23-5.05,3.56-7.43,2.15-3.83,8.95-3.33,12.78-4.91a18,18,0,0,0,7.62-5.55c1.88-2.48,2.58-5.31,4.74-7.69.84-.93,2.63-2,3.6-3.27l-.49,2.26a30.16,30.16,0,0,0-.52,11.89C236.3,125.23,237.39,128.52,237.26,131.9Z" transform="translate(-23.31 -27.64)"/><rect class="cls-10" x="329.93" y="237.02" width="33.66" height="20.36"/><path class="cls-11" d="M48.39,285V262.6c0-.92.34-1.66.75-1.66h7.47V285Z" transform="translate(-23.31 -27.64)"/><rect class="cls-10" x="285.25" y="179.72" width="6.82" height="4.78"/><rect class="cls-10" x="305.36" y="179.72" width="6.82" height="3.63"/><rect class="cls-10" x="285.25" y="196.47" width="6.82" height="3.67"/><rect class="cls-10" x="305.36" y="196.66" width="6.82" height="4.78"/><rect class="cls-10" x="285.25" y="213.09" width="6.82" height="4.78"/><rect class="cls-10" x="305.36" y="213.09" width="6.82" height="4.78"/><rect class="cls-10" x="244.86" y="213.79" width="6.82" height="4.78"/><rect class="cls-10" x="261.83" y="213.79" width="6.82" height="4.78"/><polygon class="cls-10" points="316.8 257.38 322.3 257.38 322.3 170.64 307.82 170.64 307.82 179.41 312.18 179.72 312.18 190.3 307.82 190.3 307.82 196.51 312.18 196.66 312.62 207.09 307.82 207.09 307.82 213.09 312.18 213.09 312.18 223.67 307.82 223.67 307.82 240.53 313.53 240.66 313.53 253.96 316.8 253.96 316.8 257.38"/><rect class="cls-10" x="310.92" y="163.2" width="15.75" height="7.44"/><polygon class="cls-10" points="159.4 257.38 176.92 257.38 176.92 168.5 159.4 168.5 159.4 177.24 162.81 176.97 162.81 187.82 159.4 187.82 159.4 195.31 162.81 195.58 162.81 206.26 159.4 206.26 159.4 213.67 162.81 213.92 162.81 224.5 159.4 224.5 159.4 232.3 168.36 232.3 168.36 248.75 159.4 248.75 159.4 257.38"/><rect class="cls-10" x="162.81" y="161.06" width="18.48" height="7.44"/><rect class="cls-10" x="166.03" y="153.84" width="3.68" height="7.44"/><rect class="cls-10" x="119.77" y="152.64" width="5.91" height="8.42"/><rect class="cls-10" x="63.62" y="237.02" width="32.07" height="20.36"/><rect class="cls-10" x="42.89" y="217.43" width="6.82" height="5.29"/><rect class="cls-10" x="61.13" y="217.43" width="6.82" height="4.29"/><rect class="cls-10" x="79.7" y="217.43" width="6.82" height="5.29"/><rect class="cls-10" x="109.44" y="176.97" width="6.82" height="5.29"/><rect class="cls-10" x="133" y="176.97" width="6.82" height="5.29"/><rect class="cls-10" x="155.99" y="176.97" width="6.82" height="5.29"/><rect class="cls-10" x="109.44" y="195.58" width="6.82" height="3.73"/><rect class="cls-10" x="133" y="195.58" width="6.82" height="3.73"/><rect class="cls-10" x="155.99" y="195.58" width="6.82" height="5.29"/><rect class="cls-10" x="109.44" y="213.92" width="6.82" height="5.29"/><rect class="cls-10" x="133" y="213.92" width="6.82" height="5.29"/><rect class="cls-10" x="155.99" y="213.92" width="6.82" height="3.92"/><polygon class="cls-10" points="268.47 257.38 274.63 257.38 274.63 204.28 265.24 204.28 265.24 213.79 268.65 213.79 268.47 224.38 265.24 224.37 265.24 253.96 268.47 253.96 268.47 257.38"/><polygon class="cls-10" points="299 232.3 299 248.75 281.08 248.75 299 232.3"/><polygon class="cls-10" points="168.36 232.3 168.36 248.75 150.44 248.75 168.36 232.3"/><polygon class="cls-10" points="121.81 232.3 121.81 248.75 103.89 248.75 121.81 232.3"/><polygon class="cls-10" points="247.39 248.75 216.56 248.75 220.17 248.75 244.31 232.3 247.39 232.3 247.39 248.75"/><polyline class="cls-12" points="322.3 257.38 322.3 189.19 322.3 181.54 322.3 170.64 275.13 170.64 275.13 257.38"/><polyline class="cls-13" points="363.34 257.38 363.34 231.53 363.34 228.63 363.34 224.5 322.3 224.5 322.3 257.38"/><polyline class="cls-13" points="209.46 257.38 209.46 222.01 237.39 222.01 237.39 204.28 275.13 204.28 275.13 257.38"/><polyline class="cls-12" points="95.91 257.38 95.91 168.46 176.82 168.46 176.82 214.42 176.82 220.93 176.82 225.36 176.82 253.96 176.82 257.38"/><rect class="cls-13" x="33.3" y="209.24" width="62.61" height="48.13"/><rect class="cls-14" x="90.83" y="161.06" width="91.16" height="7.44" rx="2" ry="2"/><path class="cls-12" d="M53.48,229.28h65.75v7.61H53.48a2,2,0,0,1-2-2v-3.61A2,2,0,0,1,53.48,229.28Z" transform="translate(-23.31 -27.64)"/><rect class="cls-14" x="270.77" y="163.2" width="55.9" height="7.44" rx="2" ry="2"/><path class="cls-12" d="M258.81,225.06h39.63v6.86H258.81a2,2,0,0,1-2-2v-2.86A2,2,0,0,1,258.81,225.06Z" transform="translate(-23.31 -27.64)"/><rect class="cls-12" x="304.96" y="240.66" width="8.57" height="13.3"/><path class="cls-12" d="M231,243.4h29.7v6.36H231a2,2,0,0,1-2-2V245.4A2,2,0,0,1,231,243.4Z" transform="translate(-23.31 -27.64)"/><path class="cls-12" d="M345.61,246.73h43.62a2,2,0,0,1,2,2v3.14a2,2,0,0,1-2,2H345.61v-7.14Z" transform="translate(-23.31 -27.64)"/><path class="cls-13" d="M325.11,281.25H340a.9.9,0,0,1,.9.9V285H324.22v-2.88A.9.9,0,0,1,325.11,281.25Z" transform="translate(-23.31 -27.64)"/><rect class="cls-15" x="304.96" y="241.13" width="8.57" height="13.3"/><path class="cls-13" d="M153.08,281.6h13.19a1,1,0,0,1,1,1V285h-15.1v-2.46A1,1,0,0,1,153.08,281.6Z" transform="translate(-23.31 -27.64)"/><rect class="cls-15" x="132.08" y="241.56" width="8.57" height="13.3"/><path class="cls-12" d="M66.5,281.6H79.73a.94.94,0,0,1,.94.94h0V285H65.56v-2.48A.94.94,0,0,1,66.5,281.6Z" transform="translate(-23.31 -27.64)"/><rect class="cls-16" x="45.51" y="241.55" width="8.57" height="13.3"/><rect class="cls-14" x="281.08" y="232.3" width="17.92" height="16.45" rx="1.92" ry="1.92"/><rect class="cls-14" x="150.44" y="232.3" width="17.92" height="16.45" rx="0.72" ry="0.72"/><rect class="cls-14" x="103.89" y="232.3" width="17.92" height="16.45" rx="0.72" ry="0.72"/><rect class="cls-15" x="150.44" y="232.3" width="17.92" height="16.45" rx="0.72" ry="0.72"/><rect class="cls-15" x="103.89" y="232.3" width="17.92" height="16.45" rx="0.72" ry="0.72"/><line class="cls-15" x1="285.25" y1="185.01" x2="292.07" y2="185.01"/><line class="cls-15" x1="285.25" y1="200.14" x2="292.07" y2="200.14"/><line class="cls-15" x1="305.36" y1="201.8" x2="312.18" y2="201.8"/><line class="cls-15" x1="285.25" y1="218.44" x2="292.07" y2="218.44"/><rect class="cls-14" x="109.44" y="177.24" width="6.82" height="5.29"/><rect class="cls-14" x="109.44" y="195.66" width="6.82" height="3.65"/><rect class="cls-14" x="109.44" y="213.99" width="6.82" height="5.22"/><line class="cls-15" x1="305.36" y1="218.44" x2="312.18" y2="218.44"/><rect class="cls-15" x="109.44" y="177.24" width="6.82" height="10.58"/><rect class="cls-14" x="133" y="177.24" width="6.82" height="5.29"/><rect class="cls-14" x="133" y="195.66" width="6.82" height="3.65"/><rect class="cls-14" x="133" y="213.99" width="6.82" height="5.22"/><rect class="cls-15" x="132.95" y="177.24" width="6.82" height="10.58"/><line class="cls-15" x1="109.44" y1="182.53" x2="116.26" y2="182.53"/><line class="cls-15" x1="132.95" y1="182.53" x2="139.78" y2="182.53"/><rect class="cls-14" x="61.13" y="217.84" width="6.82" height="3.88"/><rect class="cls-14" x="79.7" y="217.84" width="6.82" height="5.29"/><rect class="cls-14" x="42.89" y="217.84" width="6.82" height="5.29"/><rect class="cls-16" x="61.13" y="217.84" width="6.82" height="10.58"/><rect class="cls-16" x="79.7" y="217.84" width="6.82" height="10.58"/><line class="cls-16" x1="61.13" y1="221.47" x2="67.95" y2="221.47"/><rect class="cls-16" x="42.89" y="217.84" width="6.82" height="10.58"/><line class="cls-16" x1="42.89" y1="223.13" x2="49.71" y2="223.13"/><line class="cls-16" x1="79.7" y1="223.13" x2="86.52" y2="223.13"/><line class="cls-15" x1="109.44" y1="199.31" x2="116.26" y2="199.31"/><line class="cls-15" x1="132.95" y1="199.31" x2="139.78" y2="199.31"/><line class="cls-15" x1="109.44" y1="219.27" x2="116.26" y2="219.27"/><line class="cls-15" x1="132.95" y1="219.27" x2="139.78" y2="219.27"/><rect class="cls-15" x="109.44" y="195.68" width="6.82" height="10.58"/><rect class="cls-15" x="132.95" y="195.68" width="6.82" height="10.58"/><rect class="cls-15" x="109.44" y="213.92" width="6.82" height="10.58"/><rect class="cls-15" x="132.95" y="213.92" width="6.82" height="10.58"/><rect class="cls-14" x="155.99" y="177.24" width="6.82" height="5.29"/><rect class="cls-14" x="155.99" y="195.66" width="6.82" height="5.29"/><rect class="cls-14" x="155.99" y="213.99" width="6.82" height="3.88"/><rect class="cls-15" x="155.99" y="177.24" width="6.82" height="10.58"/><line class="cls-15" x1="155.99" y1="182.53" x2="162.81" y2="182.53"/><line class="cls-15" x1="155.99" y1="200.97" x2="162.81" y2="200.97"/><line class="cls-15" x1="155.99" y1="217.61" x2="162.81" y2="217.61"/><rect class="cls-15" x="155.99" y="195.68" width="6.82" height="10.58"/><rect class="cls-15" x="155.99" y="213.92" width="6.82" height="10.58"/><line class="cls-16" x1="329.93" y1="251.47" x2="356.24" y2="251.47"/><line class="cls-16" x1="329.93" y1="247.33" x2="356.24" y2="247.33"/><line class="cls-16" x1="329.93" y1="241.53" x2="356.24" y2="241.53"/><path class="cls-12" d="M129.55,180.28h18.57a1,1,0,0,1,1,1v7.4H128.53v-7.4a1,1,0,0,1,1-1Z" transform="translate(-23.31 -27.64)"/><path class="cls-12" d="M185.62,181.7H192a1,1,0,0,1,1,1v6h-8.4v-6a1,1,0,0,1,1-1Z" transform="translate(-23.31 -27.64)"/><line class="cls-17" x1="124.57" y1="190.94" x2="121.81" y2="190.94"/><line class="cls-17" x1="127.06" y1="194.25" x2="124.3" y2="194.25"/><line class="cls-17" x1="142.54" y1="231.65" x2="139.78" y2="231.65"/><line class="cls-17" x1="140.33" y1="234.97" x2="137.56" y2="234.97"/><line class="cls-4" x1="96.12" y1="233.31" x2="93.35" y2="233.31"/><line class="cls-4" x1="40.84" y1="244.92" x2="38.07" y2="244.92"/><line class="cls-17" x1="165.2" y1="252.38" x2="162.44" y2="252.38"/><line class="cls-17" x1="313.68" y1="232.03" x2="310.92" y2="232.03"/><line class="cls-17" x1="284.66" y1="188.09" x2="281.9" y2="188.09"/><line class="cls-17" x1="311.18" y1="234.76" x2="308.42" y2="234.76"/><line class="cls-16" x1="354.96" y1="230.08" x2="352.19" y2="230.08"/><line class="cls-16" x1="358.07" y1="233.04" x2="355.3" y2="233.04"/><line class="cls-4" x1="256.37" y1="235.35" x2="253.61" y2="235.35"/><line class="cls-4" x1="275.13" y1="209.64" x2="272.36" y2="209.64"/><path class="cls-3" d="M45.63,270.48a7.64,7.64,0,1,1-11-7.68,1,1,0,0,0,.3-1.58,4.21,4.21,0,0,1,3.13-7.11,4.27,4.27,0,0,1,4.13,4.13,4.2,4.2,0,0,1-1.15,3,1,1,0,0,0,.27,1.59A7.63,7.63,0,0,1,45.63,270.48Z" transform="translate(-23.31 -27.64)"/><path class="cls-3" d="M411.26,272.93A6.5,6.5,0,1,1,402,266.4a.85.85,0,0,0,.26-1.34,3.58,3.58,0,0,1,2.66-6,3.63,3.63,0,0,1,3.51,3.51,3.57,3.57,0,0,1-1,2.52.85.85,0,0,0,.23,1.35A6.49,6.49,0,0,1,411.26,272.93Z" transform="translate(-23.31 -27.64)"/><path class="cls-3" d="M212.26,271.32a7,7,0,1,1-10-7,.91.91,0,0,0,.28-1.44,3.86,3.86,0,0,1,2.87-6.52,3.91,3.91,0,0,1,3.78,3.78,3.85,3.85,0,0,1-1.05,2.72.92.92,0,0,0,.25,1.46A7,7,0,0,1,212.26,271.32Z" transform="translate(-23.31 -27.64)"/><path class="cls-9" d="M38,285.07a.75.75,0,0,1-.75-.75v-19a.75.75,0,0,1,1.5,0v19A.75.75,0,0,1,38,285.07Z" transform="translate(-23.31 -27.64)"/><path class="cls-9" d="M38,274.5a.75.75,0,0,1-.51-1.3l3-2.81a.75.75,0,0,1,1,1.1l-3,2.81A.75.75,0,0,1,38,274.5Z" transform="translate(-23.31 -27.64)"/><path class="cls-9" d="M38,272.16a.75.75,0,0,1-.53-.22l-3-3a.75.75,0,0,1,1.06-1.06l3,3a.75.75,0,0,1-.53,1.28Z" transform="translate(-23.31 -27.64)"/><path class="cls-9" d="M404.8,285.45a.75.75,0,0,1-.75-.75V268.56a.75.75,0,0,1,1.5,0V284.7A.75.75,0,0,1,404.8,285.45Z" transform="translate(-23.31 -27.64)"/><path class="cls-9" d="M404.8,276.45a.75.75,0,0,1-.51-1.3l2.58-2.39a.75.75,0,0,1,1,1.1l-2.58,2.39A.75.75,0,0,1,404.8,276.45Z" transform="translate(-23.31 -27.64)"/><path class="cls-9" d="M404.8,274.47a.75.75,0,0,1-.53-.22l-2.59-2.59a.75.75,0,0,1,1.06-1.06l2.59,2.59a.75.75,0,0,1-.53,1.28Z" transform="translate(-23.31 -27.64)"/><path class="cls-9" d="M205.3,284.75a.75.75,0,0,1-.75-.75V267.77a.75.75,0,0,1,1.5,0V284A.75.75,0,0,1,205.3,284.75Z" transform="translate(-23.31 -27.64)"/><path class="cls-9" d="M205.3,274.37a.75.75,0,0,1-.51-.2L202,271.6a.75.75,0,0,1,1-1.1l2.78,2.58a.75.75,0,0,1-.51,1.3Z" transform="translate(-23.31 -27.64)"/><path class="cls-9" d="M205.3,273.07a.75.75,0,0,1-.53-1.28l2.79-2.79a.75.75,0,0,1,1.1,1l0,0-2.79,2.79A.75.75,0,0,1,205.3,273.07Z" transform="translate(-23.31 -27.64)"/><path class="cls-18" d="M380.35,124.11h8.92a5.33,5.33,0,1,1,10.61,0c0-6.48,4.75-11.73,10.61-11.73s10.61,5.25,10.61,11.73h6.55" transform="translate(-23.31 -27.64)"/><path class="cls-18" d="M380.61,160.46h-4.24c0-2.36-1.62-4.28-3.62-4.28s-3.63,1.91-3.63,4.28c-.43-4.58-3.64-8.13-7.54-8.13s-7.11,3.55-7.54,8.13H341.49" transform="translate(-23.31 -27.64)"/><rect class="cls-14" x="305.36" y="179.72" width="6.82" height="5.29"/><rect class="cls-14" x="305.36" y="196.41" width="6.82" height="4.68"/><rect class="cls-14" x="305.36" y="213.11" width="6.82" height="4.58"/><rect class="cls-14" x="285.25" y="213.11" width="6.82" height="4.58"/><rect class="cls-14" x="216.55" y="232.3" width="30.84" height="16.45" rx="1.48" ry="1.48"/><rect class="cls-14" x="261.72" y="214.11" width="6.82" height="4.58"/><rect class="cls-14" x="244.86" y="214.11" width="6.82" height="4.58"/><rect class="cls-14" x="285.25" y="196.41" width="6.82" height="3.01"/><rect class="cls-14" x="285.25" y="179.67" width="6.82" height="4.53"/><path class="cls-18" d="M156.16,101.54h-7.81a2.79,2.79,0,1,0-5.59,0,11.83,11.83,0,1,0-23.65,0,4.7,4.7,0,1,0-9.39-.43q0,.22,0,.43H98.23" transform="translate(-23.31 -27.64)"/><path class="cls-19" d="M262.23,107.84v-.23h11.2v.23a5.64,5.64,0,1,1-11.24,0Z" transform="translate(-23.31 -27.64)"/><path class="cls-5" d="M237.42,106.25a1.62,1.62,0,0,1-.49.78l-.15.71c-1,1.25-2.76,2.34-3.6,3.27-2.16,2.38-2.86,5.21-4.74,7.69a18,18,0,0,1-7.62,5.55c-3.83,1.58-10.63,1.08-12.78,4.91-1.33,2.38-1.81,5.64-3.56,7.43a4.69,4.69,0,0,1-4.16,1.26c-3-.33-5.71-2.2-8.72-2.7-4.72-.8-9.25.39-13.58,2.2-1.38.57-2.57-1.58-1.46-2.51,2-1.72,3.95-3.62,6.14-5.19,3.69-2.64,7.91-4.35,11.45-7.2,4.78-3.84,7.55-8.36,14.07-9,3.68-.37,7.76,0,11.36-.87,3-.75,5.32-3,7.73-4.78s6.38-4.48,9.41-3.08A1.2,1.2,0,0,1,237.42,106.25Z" transform="translate(-23.31 -27.64)"/><path class="cls-5" d="M237.42,106.25a.87.87,0,0,1,0,.16,2.91,2.91,0,0,1-.63,1.33l.15-.71A1.62,1.62,0,0,0,237.42,106.25Z" transform="translate(-23.31 -27.64)"/><path class="cls-20" d="M283.92,104.76q-6.54.28-13.31.37-9.56.12-18.72-.2c-2.13-.07-3.81-2.5-3.67-5.38a.56.56,0,0,0,0-.1c.13-2.72,1.83-4.81,3.85-4.75q9.23.26,18.81.17c4.47,0,8.51-.15,12.69-.31a4.76,4.76,0,0,1,4.7,3.87C289,101.57,286.88,104.63,283.92,104.76Z" transform="translate(-23.31 -27.64)"/><path class="cls-20" d="M251.65,100.52h0c-4.63-.16-9.32-.41-13.94-.74a1,1,0,1,1,.14-2c4.59.33,9.26.57,13.87.73a1,1,0,1,1,0,2Z" transform="translate(-23.31 -27.64)"/><path class="cls-20" d="M282.83,100.89a1,1,0,0,1,0-2c3.53-.12,6.52-.27,10-.49a1,1,0,0,1,.13,2c-3.49.22-6.5.36-10,.49Z" transform="translate(-23.31 -27.64)"/><path class="cls-20" d="M236.62,100.43a1,1,0,0,1-.33-1.94l.24-.08-.93-1.15a1,1,0,0,1,1.49-1.34l.06.08L239,98.25a1,1,0,0,1-.44,1.57l-1.56.56A1,1,0,0,1,236.62,100.43Z" transform="translate(-23.31 -27.64)"/><path class="cls-19" d="M262.77,100.21a2.2,2.2,0,1,1-4.23-1.15,2.15,2.15,0,0,1,1.35-1.35,2.2,2.2,0,0,1,2.88,2.5Z" transform="translate(-23.31 -27.64)"/><path class="cls-19" d="M275,101.94a2.2,2.2,0,1,1,1.15-4.23,2.15,2.15,0,0,1,1.35,1.35,2.2,2.2,0,0,1-2.5,2.88Z" transform="translate(-23.31 -27.64)"/><path class="cls-18" d="M409.42,207a11.09,11.09,0,0,1-13.59-10.45q0-.19,0-.39a11.15,11.15,0,0,1,21-5.18,11.31,11.31,0,0,1-1.52,12.55q-.28.32-.58.61A11.12,11.12,0,0,1,409.42,207Z" transform="translate(-23.31 -27.64)"/><rect class="cls-16" x="329.93" y="237.02" width="26.31" height="20.04"/><line class="cls-16" x1="63.62" y1="251.47" x2="89.93" y2="251.47"/><line class="cls-16" x1="63.62" y1="247.33" x2="89.93" y2="247.33"/><line class="cls-16" x1="63.62" y1="241.53" x2="89.93" y2="241.53"/><rect class="cls-16" x="63.62" y="237.02" width="26.31" height="20.04"/><rect class="cls-15" x="305.36" y="179.72" width="6.82" height="10.58"/><line class="cls-15" x1="305.36" y1="185.01" x2="312.18" y2="185.01"/><rect class="cls-15" x="285.25" y="179.72" width="6.82" height="10.58"/><rect class="cls-15" x="285.25" y="196.51" width="6.82" height="10.58"/><rect class="cls-15" x="305.36" y="196.51" width="6.82" height="10.58"/><rect class="cls-15" x="285.25" y="213.09" width="6.82" height="10.58"/><rect class="cls-15" x="305.36" y="213.09" width="6.82" height="10.58"/><rect class="cls-15" x="281.08" y="232.3" width="17.92" height="16.45" rx="0.91" ry="0.91"/><path class="cls-12" d="M277.85,281.6h12.82a1.14,1.14,0,0,1,1.14,1.14h0V285h-15.1v-2.27A1.14,1.14,0,0,1,277.85,281.6Z" transform="translate(-23.31 -27.64)"/><rect class="cls-16" x="256.66" y="241.56" width="8.57" height="13.3"/><rect class="cls-16" x="261.65" y="213.79" width="6.82" height="10.58"/><line class="cls-16" x1="261.65" y1="219.09" x2="268.47" y2="219.09"/><rect class="cls-16" x="216.55" y="232.3" width="30.84" height="16.45" rx="1.03" ry="1.03"/><line class="cls-16" x1="239.05" y1="232.3" x2="239.05" y2="248.75"/><line class="cls-16" x1="224.9" y1="232.3" x2="224.9" y2="248.75"/><line class="cls-16" x1="244.64" y1="219.27" x2="251.46" y2="219.27"/><rect class="cls-16" x="244.64" y="213.92" width="6.82" height="10.58"/><polyline class="cls-21" points="0.75 257.06 374.23 257.06 376.56 257.06 387.41 257.06"/><rect class="cls-14" x="85.74" y="201.72" width="10.17" height="7.44"/><rect class="cls-14" x="267.15" y="197.42" width="7.98" height="6.86"/><rect class="cls-14" x="322.3" y="219.09" width="9.24" height="7.18"/><rect class="cls-14" x="229.77" y="215.76" width="7.61" height="6.36"/></svg>