<?xml version="1.0" encoding="utf-8"?>
<svg version="1.1" id="Layer_1" xmlns="http://www.w3.org/2000/svg" xmlns:xlink="http://www.w3.org/1999/xlink" x="0px" y="0px"
	 viewBox="0 0 825 702.9" style="enable-background:new 0 0 825 702.9;" xml:space="preserve">
<style type="text/css">
	.st0{opacity:0.8;fill:#003C4F;enable-background:new    ;}
	.st1{opacity:1.000000e-02;fill:#E2EDEF;enable-background:new    ;}
	.st2{fill:#FF9F6B;}
	.st3{opacity:0.2;}
	.st4{fill:#BC6D00;}
	.st5{opacity:0.2;fill:#BC6D00;enable-background:new    ;}
	.st6{fill:#E2EDEF;}
	.st7{opacity:0.7;fill:#E2EDEF;enable-background:new    ;}
	.st8{opacity:0.15;fill:#BC6D00;enable-background:new    ;}
	.st9{fill:#8FBBC5;}
	.st10{fill:#91D757;}
	.st11{fill:#8ACA4F;}
	.st12{fill:#FFF4E2;}
	.st13{fill:#F9FBFC;}
	.st14{filter:url(#Adobe_OpacityMaskFilter);}
	.st15{fill:#FFFFFF;}
	.st16{mask:url(#mask-2_1_);fill:#366674;}
	.st17{fill:#A1DB75;}
	.st18{fill:#9CD16F;}
	.st19{fill:#F9F3E5;}
	.st20{fill:#58818D;}
	.st21{fill:#AEDF8D;}
	.st22{fill:#AAD789;}
	.st23{filter:url(#Adobe_OpacityMaskFilter_1_);}
	.st24{mask:url(#mask-4_1_);fill:#8FBBC5;}
</style>
<g id="Bill-Pay-_x2F_-P2p-Delegation">
	<g id="SSO-from-email-error" transform="translate(-199.000000, 0.000000)">
		<g id="_x34_04Page" transform="translate(198.000000, -110.000000)">
			<path class="st0" d="M350.5,815h481.8V99.9H1.8c1,5.9,2.3,11.3,4,16.3c1.3,4.2,2.9,8.3,4.7,12.2C39.1,191,117,209,180.6,234.3
				c28.4,11.3,53.9,24,71,42.7c6.6,7.1,11.9,15.4,15.6,24.4c1.2,3,2.2,6,3.1,9.1c11.1,40.3-15,64.2-24.9,99.3
				c-3.9,13.6-5.3,28.9-1.3,47.4c2.1,9.8,5.6,19.2,10.3,28c33.1,61.5,119,73.8,146.9,136.9c3.8,8.5,6.3,17.6,7.6,26.8
				c1,7.3,1.3,14.6,1,22C408.3,706,392.5,752.5,350.5,815z"/>
			<path class="st0" d="M832.3,815V99.9H9.3c-1.6,5.5-3,11-4.1,16.4c-7.3,34-5.5,64.3,9.3,88.5c19,31.1,55.4,45.7,97,54
				c45.6,9.1,97.6,10.7,139.7,18.4c27.8,5,51.4,12.7,66,26.9c5.2,5,9.3,11.1,12,17.9c13.6,34.7-17.2,68.5-44.4,106.9
				c-12.6,17.7-24.4,36.4-30.8,56.5c-3.5,10.7-5.2,21.8-5,33c0.1,5.7,0.8,11.3,2,16.8c15.2,72,105.9,92.8,158.5,135.8
				c17.9,14.7,31.4,31.9,35.9,54.7c4.5,22.9,0.2,52-25.1,89.3H832.3z"/>
			<path class="st1" d="M832.3,330l-24.4-1.2l-18.5-0.9l-99.6-4.9l-15.5-0.8l-70.4-3.5l-51.9-2.6l-9.1-0.5l-47.8-2.4l-176.8-8.8
				l-50.3-2.5c1.2,3,2.2,6,3.1,9.1c11.1,40.3-15,64.2-24.9,99.4l39.8,19l295.9,140.9l87.2,41.5l48.1,22.9l5.5,2.6l109.8,52.3V330z"
				/>
			<path class="st1" d="M1.8,99.9c1,5.9,2.4,11.4,4,16.5c-7.3,34-5.5,64.4,9.3,88.6c19,31.1,55.3,45.7,96.9,54l68.5-24.4L559.3,99.9
				H1.8z"/>
			<path id="Shape_4_" class="st1" d="M610,816H349.8c41.9-62.6,57.7-109.1,59.2-144.2c-52.4-43.1-142.9-63.9-158-136
				c-1.2-5.5-1.8-11.2-2-16.8l159.1,130.9L610,816z"/>
			<g id="Group-4" transform="translate(483.000000, 529.000000)">
				<path class="st2" d="M37.7,288.3h311.6V31.1c-0.4-0.2-0.7-0.4-1.1-0.6C297.9,2.7,238.6-4,183.4,12C68.4,45.1,2,165.3,35.2,280.3
					C35.9,283,36.8,285.7,37.7,288.3z"/>
				<g id="Group" transform="translate(152.841945, 47.258359)" class="st3">
					<path id="Shape_6_" class="st4" d="M33.7,97.4c-7.6,2.2-15.7,0.9-22.2-3.6c-0.7-0.5-1.4-1-2-1.6c-9.2-7.8-12-20.8-6.6-31.6
						s17.3-16.6,29.1-14.1s20.4,12.7,20.8,24.8S45.3,94,33.7,97.4L33.7,97.4z"/>
					<path class="st4" d="M196.4,123.8c-4.4-4.3-10.1-7.5-16.4-8.9c-15.4-3.4-31.2,3.9-38.3,17.9s-3.9,31.1,7.9,41.5
						c1.2,1.1,2.5,2.1,3.9,3c8.4,5.5,18.8,7.1,28.5,4.3h0c5.6-1.6,10.5-4.5,14.4-8.4V123.8z"/>
					<path id="Shape_8_" class="st4" d="M84.1,39.2c-5.9,1.7-12.4,0.6-17.3-3.1l-0.6-0.5c-7.7-6.1-9.7-17-4.8-25.5S76.7-2,85.9,1.6
						c8,3.1,13,10.9,12.6,19.4S92.3,36.9,84.1,39.2L84.1,39.2z"/>
				</g>
				<g id="Group_1_" transform="translate(154.559271, 47.258359)" class="st3">
					<path id="Shape_9_" class="st4" d="M31.1,97.4c-7.6,2.2-15.7,0.9-22.2-3.6c-0.7-0.5-1.4-1-2-1.6C-2,81.8-1.4,66.3,8.3,56.6
						s25.2-10.3,35.6-1.5c2.4,2.8,4.2,6.1,5.2,9.6C53.1,78.8,45.1,93.3,31.1,97.4z"/>
					<path class="st4" d="M194.7,124.9c-4.6-4.9-10.6-8.4-17.5-10c-15.4-3.4-31.1,3.9-38.3,17.9c-7.2,14-3.9,31.1,7.9,41.5
						c1.2,1.1,2.5,2.1,3.9,3c8.4,5.5,18.8,7.1,28.5,4.3h0c6.1-1.8,11.4-5.1,15.5-9.5V124.9z"/>
					<path id="Shape_11_" class="st4" d="M81.4,39.2c-5.9,1.7-12.3,0.6-17.3-3.1l-0.6-0.5C56.3,29.9,54,20,57.9,11.7
						s13-12.9,22-11.1s15.6,9.5,16,18.7S90.3,36.7,81.4,39.2L81.4,39.2z"/>
				</g>
				<path class="st5" d="M349.3,288.3v-50.4c-17.4,15.7-36.7,29.4-57.6,40.6c-0.7,0.4-1.3,0.7-2,1.1c-5.9,3.1-11.8,6-17.9,8.7H349.3
					z"/>
			</g>
			<circle id="Oval" class="st6" cx="244" cy="205" r="5"/>
			<circle id="Oval_1_" class="st7" cx="189.5" cy="112.5" r="3.5"/>
			<circle id="Oval_2_" class="st6" cx="485.5" cy="584.5" r="5.5"/>
			<circle id="Oval_3_" class="st6" cx="670" cy="216" r="6"/>
			<circle id="Oval_4_" class="st7" cx="366" cy="456" r="3"/>
			<circle id="Oval_5_" class="st6" cx="384" cy="408" r="4"/>
			<path class="st8" d="M832.3,513.8c-8.8-0.1-15.1,1.9-15.8,5.5c-0.8,4,5.8,8.8,15.8,12.1V513.8z"/>

				<ellipse id="Oval_7_" transform="matrix(0.8365 -0.548 0.548 0.8365 -218.4338 441.0276)" class="st8" cx="629.8" cy="586.5" rx="48.5" ry="9.5"/>

				<g id="Page-1" transform="translate(649.500000, 401.000000) scale(-1, 1) translate(-649.500000, -401.000000) translate(473.000000, 300.000000)">
				<path id="Fill-1" class="st6" d="M210.4,110.5l-0.1,0.7c-0.1,0.7,0.3,1.4,1.1,1.5l8.5,1.5c0.7,0.1,1.4-0.3,1.5-1l0.1-0.7
					c0.1-0.7-0.3-1.4-1.1-1.5l-8.5-1.5C211.2,109.4,210.5,109.8,210.4,110.5"/>
				<path id="Fill-3" class="st6" d="M208.2,120.9l-0.1,0.7c-0.1,0.7,0.3,1.4,1.1,1.5l8.5,1.5c0.7,0.1,1.4-0.3,1.5-1l0.1-0.7
					c0.1-0.7-0.3-1.4-1.1-1.5l-8.5-1.5C209,119.7,208.3,120.2,208.2,120.9"/>
				<path id="Fill-5" class="st6" d="M219.7,122c1.3,0.5,2.6,1,3.9,1.4h0c4.9,1.5,9.9,2.4,15,2.6c0.2,0,0.4,0,0.6,0
					c3.7,0.1,7.4-0.1,11-0.7c-0.5-0.7-0.9-1.5-1.4-2.3c-0.6-1-1.1-2.1-1.7-3.1c-0.8-1.6-1.2-3.2-1.4-4.9c-1.8,0.2-3.5,0.3-5.3,0.3
					c-3.7,0-7.3-0.5-10.9-1.4c-2-0.5-4-1.1-5.9-1.9c-2.9-1.1-5.6-2.5-8-4.1"/>
				<path id="Fill-7" class="st9" d="M219.7,122c1.3,0.5,2.6,1,3.9,1.4c-1.9-2.2-3.9-5.1-5.5-8.7c-1.1-2.5-1.9-4.8-2.4-6.8"/>
				<path id="Fill-9" class="st9" d="M229.5,113.8c0.6,1.6,1.5,3.5,2.8,5.4c2.1,3.1,4.6,5.3,6.8,6.7c3.7,0.1,7.4-0.1,11-0.7
					c-0.5-0.7-0.9-1.5-1.4-2.3c-1.3-0.8-2.7-1.7-4.1-3c-1.8-1.6-3.2-3.3-4.2-4.8C236.7,115.1,233.1,114.7,229.5,113.8"/>
				<path id="Fill-11" class="st6" d="M214.7,107.4l-3.5,19.2c-0.2,0.9,0.4,1.7,1.3,1.9l0.9,0.2c0.9,0.2,1.7-0.4,1.9-1.3l6.4,1.2
					c3.2,0.6,6.3-1.6,6.9-4.8l1.4-7.6c0.6-3.2-1.6-6.3-4.8-6.9l-6.4-1.2c0.2-0.9-0.4-1.7-1.3-1.9l-0.9-0.2
					C215.7,105.9,214.9,106.5,214.7,107.4"/>
				<path id="Fill-13" class="st9" d="M214.7,107.4l-3.5,19.2c-0.2,0.9,0.4,1.7,1.3,1.9l0.9,0.2c0.9,0.2,1.7-0.4,1.9-1.3l3.5-19.3
					c0.2-0.9-0.4-1.7-1.3-1.9l-0.9-0.2C215.7,105.9,214.9,106.5,214.7,107.4"/>
				<path id="Fill-15" class="st10" d="M247.2,56.3c-1.2,7.9-0.2,15.6,2.6,22.5c5.5,13.6,17.8,24.1,33.3,26.5
					c1.8,0.3,3.6,0.4,5.4,0.4c0.1,0,0.2,0,0.2,0l0.1,0.1l0,0.1l2.9,4.6l3.8,6l3.3-6.3l3.3-6.3c4-1.2,7.8-3,11.3-5.3
					c9.9-6.6,16.9-17.4,18.7-29.2c3.6-23.4-12.5-45.4-35.9-49c-5-0.8-10-0.6-15,0.4c-0.4,0.1-0.7,0.2-1.1,0.3
					c-0.2,0-0.4,0.1-0.6,0.1c-0.1,0-0.2,0-0.3,0.1c-0.3,0.1-0.5,0.1-0.8,0.2l0,0c-10.6,2.9-19.9,9.8-25.6,19.2
					c-2.1,3.6-3.8,7.5-4.9,11.7C247.7,53.6,247.4,54.9,247.2,56.3"/>
				<path id="Fill-17" class="st11" d="M316.3,29.7c8.6,14.8,8.4,34.3-0.7,48.8c-9,14.5-26.4,23.4-43.5,22.3
					c3.2,2.8,16.2,5.1,16.2,5.1l7.2,10.3l6.5-12.6c0,0,8.4-3.1,9.3-3.5c11.4-6.6,19.3-18.3,20.9-31.4c1.7-13.7-3.5-27.7-13.7-36.9
					c-0.8-0.7-1.6-1.3-2.4-2L316.3,29.7"/>
				<path id="Fill-19" class="st12" d="M273.4,65.8c0,0.1,0,0.2,0,0.4l16.7,2.6c0-0.1,0.1-0.2,0.1-0.3c0.8-5-2.3-9.7-7-10.4
					C278.5,57.3,274.2,60.8,273.4,65.8"/>
				<path id="Fill-21" class="st12" d="M292,50.9c0,1.3,0.9,2.5,2.2,3c2.4,0.8,4.8-1.1,4.4-3.7c-0.2-1-0.8-1.9-1.7-2.3
					C294.5,46.7,291.9,48.4,292,50.9"/>
				<path id="Fill-23" class="st12" d="M273.5,50.7c1.3,0,2.5-0.9,3-2.2c0.8-2.4-1.1-4.8-3.7-4.4c-1,0.2-1.9,0.8-2.3,1.7
					C269.2,48.2,270.9,50.8,273.5,50.7"/>
				<path id="Fill-25" class="st13" d="M285.4,0.7C285.4,0.7,285.4,0.7,285.4,0.7L285.4,0.7 M285.3,0.7c-0.5,0-0.9,0.1-1.4,0.1
					c0,0,0.1,0,0.1,0C284.4,0.8,284.8,0.8,285.3,0.7 M281.8,1.1c-0.4,0.1-0.9,0.1-1.3,0.2c0.3,0,0.6-0.1,1-0.1
					C281.5,1.1,281.7,1.1,281.8,1.1 M278.5,1.6c-2.7,0.5-5.3,1.1-7.9,2c0.7-0.2,1.3-0.4,2-0.6c1.7-0.5,3.4-0.9,5-1.2
					C277.9,1.7,278.2,1.6,278.5,1.6 M269.7,3.8C269.7,3.8,269.7,3.8,269.7,3.8C269.7,3.8,269.7,3.8,269.7,3.8 M269.6,3.9
					c-3.6,1.2-7,2.7-10.4,4.6l0,0c0.8-0.4,1.6-0.8,2.4-1.2c0.4-0.2,0.8-0.4,1.2-0.6c0.4-0.2,0.8-0.4,1.2-0.5
					c0.4-0.2,0.8-0.4,1.2-0.5c0.8-0.3,1.6-0.7,2.4-1C268.2,4.3,268.9,4.1,269.6,3.9 M256.8,9.8c-2.3,1.4-4.5,3-6.6,4.7
					c-2.3,1.8-4.4,3.8-6.3,5.9c0.3-0.3,0.6-0.6,0.9-0.9c0.9-0.9,1.7-1.7,2.6-2.5c0.9-0.8,1.9-1.6,2.8-2.4c0.7-0.6,1.4-1.1,2.2-1.7
					c0.4-0.3,0.7-0.5,1.1-0.8c0.4-0.3,0.7-0.5,1.1-0.8C255.3,10.8,256.1,10.3,256.8,9.8 M243.2,21.1c-2.1,2.3-3.9,4.6-5.6,7.1
					l0.1-0.1c0.2-0.3,0.5-0.7,0.7-1c0.3-0.4,0.5-0.7,0.8-1.1c0.3-0.4,0.5-0.7,0.8-1.1c0.4-0.5,0.7-0.9,1.1-1.4
					C241.8,22.7,242.5,21.9,243.2,21.1 M340.5,26.6c0.1,0.2,0.2,0.3,0.3,0.5c0.1,0.2,0.3,0.4,0.4,0.5
					C341,27.2,340.8,26.9,340.5,26.6 M342.1,28.9c0.1,0.2,0.2,0.4,0.4,0.5c0.2,0.3,0.4,0.7,0.6,1C342.8,29.9,342.5,29.4,342.1,28.9
					 M343.3,30.8c0.2,0.3,0.4,0.7,0.6,1c0.2,0.4,0.5,0.8,0.7,1.2c0.2,0.4,0.4,0.8,0.6,1.2c0.2,0.3,0.3,0.6,0.5,0.9
					c0.2,0.3,0.3,0.6,0.4,0.9c0.1,0.3,0.3,0.6,0.4,0.9c0.3,0.6,0.5,1.2,0.8,1.8c0.1,0.2,0.2,0.4,0.3,0.6c0.1,0.2,0.1,0.4,0.2,0.5
					C346.6,36.7,345.1,33.7,343.3,30.8 M234.7,32.8c-0.4,0.7-0.8,1.4-1.2,2.2C234,34.3,234.3,33.5,234.7,32.8 M232.6,37.1
					c-0.2,0.4-0.4,0.8-0.6,1.3c0.1-0.1,0.1-0.2,0.2-0.4c0.1-0.2,0.2-0.4,0.2-0.5C232.4,37.4,232.5,37.3,232.6,37.1 M231.9,38.6
					c-0.2,0.5-0.4,1-0.6,1.6c0.2-0.4,0.3-0.8,0.5-1.2C231.8,38.8,231.9,38.7,231.9,38.6 M231.2,40.2c-0.5,1.3-1,2.6-1.4,3.8
					c0-0.1,0.1-0.2,0.1-0.2c0.1-0.3,0.2-0.7,0.3-1c0-0.1,0.1-0.2,0.1-0.4c0.1-0.3,0.2-0.7,0.4-1C230.9,41,231.1,40.6,231.2,40.2
					L231.2,40.2 M348.3,40.9c0.1,0.2,0.1,0.3,0.2,0.5c0.2,0.4,0.3,0.8,0.4,1.2c0.1,0.2,0.2,0.5,0.2,0.7c0.1,0.3,0.2,0.6,0.3,0.9
					c0,0.1,0.1,0.3,0.1,0.4C349.2,43.3,348.8,42.1,348.3,40.9 M349.7,45c0,0.1,0,0.1,0,0.2c0.1,0.3,0.2,0.6,0.2,0.8l0,0.1
					C349.9,45.7,349.8,45.4,349.7,45 M229.5,45.1c-0.2,0.6-0.3,1.2-0.5,1.7c0.1-0.2,0.1-0.4,0.2-0.6
					C229.3,45.9,229.4,45.5,229.5,45.1L229.5,45.1C229.5,45.1,229.5,45.1,229.5,45.1 M350.2,46.8C350.2,46.8,350.2,46.8,350.2,46.8
					c0.1,0.3,0.1,0.6,0.2,0.8c0,0.1,0.1,0.3,0.1,0.4c0.1,0.2,0.1,0.4,0.2,0.6C350.5,48,350.4,47.4,350.2,46.8 M228.9,47.3
					c-1.5,5.6-2.2,11.3-2.1,17c0-0.5,0-1.1,0-1.6c0-0.4,0-0.8,0-1.2c0-1.1,0.1-2.3,0.2-3.4c0-0.1,0-0.2,0-0.3
					c0.1-0.7,0.1-1.5,0.2-2.2c0.1-0.4,0.1-0.8,0.2-1.2c0.1-0.8,0.2-1.6,0.4-2.4c0.1-0.4,0.1-0.8,0.2-1.2v0c0.1-0.4,0.2-0.8,0.2-1.2
					c0.2-0.7,0.3-1.4,0.5-2.1C228.9,47.5,228.9,47.4,228.9,47.3 M351.1,50.3c0,0.2,0.1,0.4,0.1,0.5c0,0.2,0.1,0.4,0.1,0.6
					c0,0.1,0,0.1,0,0.2C351.3,51.1,351.2,50.7,351.1,50.3 M351.4,52.1c0,0.1,0,0.1,0,0.2c0,0.1,0,0.2,0.1,0.3
					C351.5,52.4,351.5,52.2,351.4,52.1 M351.5,52.8C351.5,52.8,351.5,52.8,351.5,52.8L351.5,52.8C351.5,52.8,351.5,52.8,351.5,52.8
					 M226.8,64.4C226.8,64.4,226.8,64.4,226.8,64.4C226.8,64.4,226.8,64.4,226.8,64.4 M226.8,65.1c0,0.9,0.1,1.8,0.1,2.7l0,0
					c0-0.6-0.1-1.3-0.1-1.9C226.8,65.6,226.8,65.3,226.8,65.1 M227,68c0,0.3,0,0.6,0.1,0.9C227,68.7,227,68.4,227,68
					C227,68.1,227,68,227,68 M227.2,70.4c0.1,1.2,0.3,2.3,0.5,3.5l0-0.1c0-0.3-0.1-0.6-0.1-0.9c-0.1-0.4-0.1-0.9-0.2-1.3l0-0.1
					c0-0.2-0.1-0.4-0.1-0.6C227.2,70.7,227.2,70.6,227.2,70.4 M227.7,74.2c0.2,1.2,0.5,2.4,0.7,3.6v0c-0.1-0.3-0.1-0.6-0.2-0.9
					c0-0.1,0-0.2,0-0.2c-0.2-0.8-0.3-1.6-0.5-2.3C227.8,74.3,227.7,74.3,227.7,74.2 M228.5,77.9c0.2,0.7,0.3,1.3,0.5,1.9
					c0,0,0,0,0,0v0v0c0-0.1-0.1-0.2-0.1-0.2l0-0.1c0-0.1,0-0.2-0.1-0.2c-0.1-0.4-0.2-0.8-0.3-1.3L228.5,77.9"/>
				<path id="Fill-27" class="st6" d="M311.6,133.1c-1.4,1-2.9,1.8-4.6,2.2c-2,0.5-4,0.9-6.1,1.2c-7.3,1.1-14.8,1.2-22.5,0
					c-9.8-1.5-18.9-4.9-26.9-9.7c-4.6-2.7-7-8-6.2-13.3l0.7-4.3c0-0.2,0.3-0.3,0.4-0.1l0,0c0.3,0.3,0.6,0.5,0.8,0.8
					c0.3,0.3,0.6,0.5,0.9,0.8c0.1,0.1,0.3,0.2,0.4,0.4c0.2,0.1,0.3,0.3,0.5,0.4l0.1,0.1c0.3,0.2,0.5,0.5,0.8,0.7
					c0.1,0,0.1,0.1,0.2,0.1c0.2,0.2,0.5,0.4,0.7,0.6l0.1,0.1c0.1,0.1,0.1,0.1,0.2,0.2c0.1,0,0.1,0.1,0.2,0.1
					c0.1,0.1,0.1,0.1,0.2,0.2c0.1,0.1,0.1,0.1,0.2,0.2c0.5,0.4,1,0.7,1.5,1.1c0.1,0,0.1,0.1,0.2,0.1c0.2,0.2,0.5,0.3,0.7,0.5l0,0
					l0,0c0.2,0.2,0.4,0.3,0.7,0.5c0.1,0,0.1,0.1,0.2,0.1c0.1,0.1,0.2,0.2,0.4,0.2c0.1,0.1,0.1,0.1,0.2,0.1l0,0
					c0.1,0.1,0.1,0.1,0.2,0.1c0.2,0.1,0.4,0.3,0.6,0.4c0.7,0.5,1.5,0.9,2.2,1.3c0.4,0.2,0.8,0.4,1.1,0.6c0.4,0.2,0.8,0.4,1.2,0.6
					c0.4,0.2,0.8,0.4,1.2,0.6c0.3,0.2,0.7,0.3,1,0.5c0.1,0,0.2,0.1,0.3,0.2c0.3,0.2,0.7,0.3,1,0.5c0.4,0.2,0.8,0.4,1.2,0.5
					c0.4,0.2,0.8,0.3,1.2,0.5c0.3,0.1,0.6,0.2,0.9,0.4c1.3,0.5,2.5,0.9,3.8,1.3c0.6,0.2,1.3,0.4,2,0.5c0.3,0.1,0.7,0.2,1,0.2
					c0.4,0.1,0.9,0.2,1.3,0.3c0.4,0.1,0.9,0.2,1.3,0.3c0.4,0.1,0.9,0.2,1.4,0.2c0.4,0.1,0.9,0.2,1.4,0.2l0,0
					c0.6,0.1,1.2,0.2,1.8,0.2c0.6,0.1,1.2,0.1,1.8,0.2l0,0c0.6,0,1.2,0.1,1.8,0.1c0.6,0,1.2,0.1,1.8,0.1c0.7,0,1.3,0,2,0
					c0.4,0,0.8,0,1.2,0c0.3,0,0.6,0,0.9,0c0.5,0,0.9,0,1.4-0.1c0.6,0,1.2-0.1,1.8-0.1l0,0c0.6,0,1.1-0.1,1.6-0.2c0.1,0,0.2,0,0.3,0
					c0.5-0.1,1.1-0.1,1.6-0.2l0,0c0.6-0.1,1.2-0.2,1.8-0.3c1.2-0.2,2.3-0.4,3.5-0.7c0.6-0.1,1.1-0.3,1.7-0.4l0,0
					c0.5-0.1,1-0.3,1.5-0.4c0.1,0,0.3-0.1,0.4-0.1c0.3-0.1,0.7-0.2,1-0.3c0.3-0.1,0.5-0.2,0.8-0.2c0.5-0.1,0.9-0.3,1.4-0.5
					c0.5-0.2,1.1-0.4,1.6-0.6l0,0c0.5-0.2,0.9-0.4,1.4-0.5c0.2-0.1,0.4-0.2,0.6-0.2c0.6-0.2,1.2-0.5,1.7-0.8c0.3-0.1,0.7-0.3,1-0.5
					c0.2-0.1,0.4-0.2,0.6-0.3c0.2-0.1,0.4,0.1,0.4,0.3l-0.7,4.3C316.3,128,314.3,131.1,311.6,133.1"/>
				<path id="Fill-29" class="st9" d="M255.4,121.1c-0.2,1.2-1.3,2.1-2.6,1.9c-1.2-0.2-2.1-1.3-1.9-2.6c0.2-1.2,1.3-2.1,2.6-1.9
					C254.7,118.8,255.6,119.9,255.4,121.1"/>
				<path id="Fill-31" class="st9" d="M307.7,130.3c-0.2,1.2-1.3,2.1-2.6,1.9c-1.2-0.2-2.1-1.3-1.9-2.6c0.2-1.2,1.3-2.1,2.6-1.9
					C307.1,127.9,307.9,129,307.7,130.3"/>
				<path id="Fill-33" class="st9" d="M280.7,131.1c-0.2,1.2-1.3,2.1-2.6,1.9c-1.2-0.2-2.1-1.3-1.9-2.6c0.2-1.2,1.3-2.1,2.6-1.9
					C280.1,128.7,280.9,129.8,280.7,131.1"/>
				<g id="Group-37" transform="translate(226.463987, 0.448789)">
					<defs>
						<filter id="Adobe_OpacityMaskFilter" filterUnits="userSpaceOnUse">
							<feColorMatrix  type="matrix" values="1 0 0 0 0  0 1 0 0 0  0 0 1 0 0  0 0 0 1 0"/>
						</filter>
					</defs>
					<mask maskUnits="userSpaceOnUse" id="mask-2_1_">
						<g class="st14">
							<polygon id="path-1_1_" class="st15" points="0.3,0.1 126,0.1 126,125.8 0.3,125.8 							"/>
						</g>
					</mask>
					<path id="Fill-35" class="st16" d="M63.1,0.1c-1.4,0-2.8,0-4.2,0.1C60.3,0.2,61.7,0.1,63.1,0.1c18.3,0,36.5,8,48.9,23.4
						c0.7,0.9,1.4,1.7,2,2.6c-0.1-0.1-0.2-0.3-0.3-0.4c-0.3-0.4-0.6-0.8-0.9-1.1c-0.3-0.4-0.6-0.7-0.8-1.1
						C99.6,8.1,81.5,0.1,63.1,0.1 M58.9,0.3C58.9,0.3,58.8,0.3,58.9,0.3C58.8,0.3,58.9,0.3,58.9,0.3 M57.4,0.4
						c-0.7,0.1-1.4,0.1-2.1,0.2C56,0.5,56.7,0.5,57.4,0.4 M54,0.8c-0.1,0-0.2,0-0.3,0C53.1,0.9,52.6,1,52,1.1
						C52.7,1,53.4,0.9,54,0.8 M44.1,3.1c-0.3,0.1-0.6,0.2-0.9,0.3C43.5,3.3,43.8,3.2,44.1,3.1 M43.2,3.4L43.2,3.4
						C43.1,3.4,43.2,3.4,43.2,3.4 M32.7,8c-0.8,0.4-1.6,0.9-2.3,1.4c0,0,0,0-0.1,0C31.1,8.9,31.9,8.4,32.7,8 M17.4,20
						c-0.1,0.1-0.3,0.3-0.4,0.4c-0.1,0.1-0.2,0.2-0.2,0.3C17,20.4,17.2,20.2,17.4,20 M114.8,27.1c0.3,0.4,0.6,0.9,0.9,1.3
						c-0.1-0.1-0.2-0.3-0.2-0.4C115.2,27.8,115,27.4,114.8,27.1 M11.1,27.7c-0.3,0.4-0.5,0.7-0.7,1.1c-0.8,1.2-1.5,2.3-2.1,3.6
						C9.2,30.8,10.1,29.2,11.1,27.7 M116.7,30c0.1,0.1,0.1,0.2,0.2,0.3c0,0,0-0.1,0-0.1C116.7,30.2,116.7,30.1,116.7,30 M94.2,32.6
						c6.9,7.2,11.2,16.8,11.8,27.1c0.2,2.8,0.2,5.7-0.2,8.5c-1.7,13.1-9.6,24.8-20.9,31.4c-0.3,0.2-1.4,0.6-2.8,1.2
						c-2.1,1-4.2,1.8-6.4,2.5l-3.3,6.3l-3.3,6.3l-1.1-1.7l-6.2-8.8c0,0-0.7-0.1-1.8-0.4c-1.1-0.1-2.3-0.2-3.4-0.4
						c-15.6-2.4-27.9-12.8-33.3-26.5c-2.8-6.9-3.8-14.6-2.6-22.5c0.2-1.4,0.5-2.7,0.8-4c0.3-1.2,0.7-2.5,1.1-3.7
						C13.1,56.9,6.3,67.7,2.5,79.3c0.1,0.2,0.1,0.5,0.2,0.7c0.2,0.8,0.5,1.7,0.8,2.5c0.1,0.4,0.3,0.8,0.4,1.2
						C4,84.2,4.2,84.6,4.3,85c0.2,0.4,0.3,0.8,0.5,1.2c0.1,0.3,0.3,0.7,0.4,1.1c0,0.1,0.1,0.2,0.1,0.3c0.2,0.4,0.3,0.7,0.5,1
						c0.2,0.4,0.4,0.8,0.6,1.2c0.2,0.4,0.4,0.8,0.6,1.2c0.2,0.3,0.3,0.6,0.5,0.9c0.6,1.2,1.3,2.3,2,3.5c0.3,0.6,0.7,1.1,1.1,1.7
						c0.2,0.3,0.4,0.6,0.6,0.8c0.3,0.4,0.5,0.7,0.8,1.1c0.3,0.4,0.5,0.7,0.8,1.1c0.3,0.4,0.5,0.7,0.8,1.1c0.3,0.4,0.6,0.7,0.9,1.1v0
						c0.4,0.5,0.8,1,1.2,1.4c0.4,0.5,0.8,0.9,1.2,1.4v0c0.4,0.4,0.8,0.9,1.3,1.3c0.4,0.4,0.9,0.9,1.3,1.3c0.3,0.2,0.5,0.5,0.8,0.7
						l0,0c0.2,0.2,0.4,0.4,0.6,0.6c0,0,0,0,0,0c0.1,0.1,0.1,0.1,0.2,0.2c0.3,0.2,0.5,0.5,0.8,0.7c0.1,0.1,0.3,0.2,0.4,0.4
						c0.2,0.1,0.3,0.3,0.5,0.4l0.1,0.1c0.2,0.2,0.4,0.3,0.5,0.4c0,0,0,0,0.1,0.1c0.1,0.1,0.1,0.1,0.2,0.2c0.1,0,0.1,0.1,0.2,0.1
						c0.2,0.2,0.5,0.4,0.7,0.6l0.1,0.1c0.1,0.1,0.1,0.1,0.2,0.2c0.1,0,0.1,0.1,0.2,0.1c0.1,0,0.1,0.1,0.2,0.2c0.1,0,0.1,0.1,0.2,0.2
						l0.1,0.1c0.5,0.3,0.9,0.7,1.4,1c0.1,0,0.1,0.1,0.2,0.1c0.2,0.2,0.5,0.3,0.7,0.5l0,0l0,0c0.2,0.1,0.4,0.3,0.6,0.4
						c0.1,0,0.1,0.1,0.2,0.1c0,0,0,0,0,0l0.2,0.1c0.1,0,0.1,0.1,0.2,0.1c0.1,0.1,0.1,0.1,0.2,0.1l0,0c0.1,0.1,0.1,0.1,0.2,0.1
						c0.2,0.1,0.4,0.2,0.6,0.4c0.2,0.1,0.3,0.2,0.5,0.3c0.6,0.4,1.2,0.7,1.8,1c0,0,0,0,0.1,0c0.3,0.2,0.6,0.3,0.9,0.5
						c0,0,0.1,0,0.1,0.1c0.1,0,0.1,0.1,0.2,0.1l0,0c0.3,0.2,0.6,0.3,0.9,0.5c0,0,0.1,0,0.1,0c0,0,0.1,0,0.1,0.1
						c0.1,0.1,0.2,0.1,0.3,0.2c0.1,0.1,0.2,0.1,0.4,0.2c0.1,0,0.1,0.1,0.2,0.1c0.1,0,0.1,0.1,0.2,0.1l0.1,0c0.2,0.1,0.3,0.2,0.5,0.2
						c0.2,0.1,0.5,0.2,0.7,0.3c0.4,0.2,0.9,0.4,1.3,0.6c0.5,0.2,1.1,0.4,1.6,0.7l0,0c0.2,0.1,0.4,0.2,0.7,0.3
						c0.2,0.1,0.5,0.2,0.7,0.3c0.2,0.1,0.4,0.1,0.6,0.2c0.6,0.2,1.2,0.4,1.8,0.6c0.3,0.1,0.7,0.2,1,0.3c0.2,0.1,0.4,0.1,0.7,0.2
						c2.2,0.6,4.4,1.2,6.6,1.6c0.1,0,0.2,0,0.2,0c0.1,0,0.1,0,0.2,0c0.4,0.1,0.8,0.1,1.1,0.2c0,0,0,0,0,0v0c0.5,0.1,1,0.1,1.5,0.2
						c0.1,0,0.3,0,0.4,0c0.1,0,0.2,0,0.3,0c2.5,0.3,4.9,0.4,7.4,0.4c5.7,0,11.4-0.8,17-2.3c0,0,0,0,0,0c0,0,0,0,0,0
						c0.4-0.1,0.8-0.2,1.2-0.3c0.1,0,0.1,0,0.2-0.1c0.3-0.1,0.5-0.2,0.8-0.2c0.5-0.1,0.9-0.3,1.4-0.5c0.5-0.2,1.1-0.4,1.6-0.6l0,0
						c0.5-0.2,0.9-0.4,1.4-0.5c0.2-0.1,0.4-0.2,0.6-0.2c0.6-0.2,1.2-0.5,1.7-0.8c0.3-0.1,0.7-0.3,1-0.5c0.2-0.1,0.4-0.2,0.6-0.3
						c0,0,0,0,0.1,0c4.2-2,8.2-4.6,11.9-7.6c8.2-6.7,14.4-15,18.3-24.1c1.4-3.4,2.6-6.8,3.4-10.4c1.9-8.2,2.2-16.7,0.8-25.1
						C116.4,43,105.7,36.4,94.2,32.6 M7.1,34.6C7.1,34.7,7,34.8,6.9,35c-0.2,0.4-0.4,0.9-0.6,1.3c-0.1,0.1-0.1,0.3-0.2,0.4
						C6.4,36,6.8,35.3,7.1,34.6 M5.5,37.9c0,0.1-0.1,0.1-0.1,0.2C5.5,38.1,5.5,38,5.5,37.9 M121.4,39.4c0.1,0.4,0.3,0.7,0.4,1.1
						C121.7,40.1,121.6,39.7,121.4,39.4 M4.8,39.7C4.8,39.7,4.8,39.7,4.8,39.7L4.8,39.7C4.8,39.7,4.8,39.7,4.8,39.7 M3.4,43.6
						c-0.1,0.4-0.2,0.7-0.3,1.1C3.2,44.3,3.3,43.9,3.4,43.6 M123.1,44.1c0,0.1,0.1,0.3,0.1,0.4C123.2,44.4,123.2,44.3,123.1,44.1
						 M123.6,45.7c0.1,0.2,0.1,0.4,0.2,0.7c0-0.1,0-0.1,0-0.2C123.7,46,123.6,45.8,123.6,45.7 M2.6,46.4c0,0.2-0.1,0.3-0.1,0.5
						c0,0,0,0,0,0C2.5,46.7,2.5,46.6,2.6,46.4 M124.2,48.2c0.1,0.5,0.3,1.1,0.4,1.6C124.5,49.3,124.4,48.7,124.2,48.2 M124.9,51.1
						c0,0.2,0.1,0.3,0.1,0.5C124.9,51.5,124.9,51.3,124.9,51.1 M125,52c0,0.1,0,0.2,0,0.3C125.1,52.2,125.1,52.1,125,52 M0.3,63.9
						L0.3,63.9L0.3,63.9 M0.3,64c0,0.2,0,0.4,0,0.7C0.4,64.4,0.4,64.2,0.3,64 M0.5,67.4L0.5,67.4c0,0.1,0,0.2,0,0.2
						C0.5,67.5,0.5,67.4,0.5,67.4 M0.6,68.5c0,0.1,0,0.2,0,0.2c0,0.4,0.1,0.8,0.1,1.1c0,0,0,0.1,0,0.1C0.7,69.5,0.6,69,0.6,68.5
						 M1.2,73.4L1.2,73.4c0,0.1,0,0.2,0,0.3c0,0,0,0,0,0C1.2,73.6,1.2,73.5,1.2,73.4 M2,77.4L2,77.4L2,77.4C2,77.4,2,77.4,2,77.4"/>
				</g>
				<path id="Fill-38" class="st17" d="M298.2,29.5c-16.1,0-32.2,5.3-45.7,16.2c-1.2,0.9-2.3,1.9-3.4,2.9c-0.4,1.2-0.8,2.4-1.1,3.7
					c-0.3,1.3-0.6,2.7-0.8,4c-1.2,7.9-0.2,15.6,2.6,22.5c5.5,13.6,17.8,24.1,33.3,26.5c1.1,0.2,2.3,0.3,3.4,0.4
					c-3.7-0.7-11.9-2.6-14.4-4.7c1,0.1,2,0.1,3,0.1c16.1,0,32-8.7,40.5-22.4c8.5-13.8,9.2-32,2-46.4
					C311.3,30.4,304.7,29.5,298.2,29.5 M273.3,50.7c-2.5,0-4.1-2.6-3-4.9c0.5-0.9,1.3-1.5,2.3-1.7c0.2,0,0.4,0,0.6,0
					c2.3,0,3.9,2.2,3.1,4.4c-0.4,1.2-1.6,2.1-3,2.2C273.4,50.7,273.4,50.7,273.3,50.7 M295.3,54.1c-0.4,0-0.8-0.1-1.1-0.2
					c-1.2-0.4-2.1-1.6-2.2-3c-0.1-2,1.5-3.5,3.3-3.5c0.5,0,1,0.1,1.6,0.4c0.9,0.5,1.5,1.3,1.7,2.3C298.9,52.4,297.3,54.1,295.3,54.1
					 M290.1,68.8l-16.7-2.6c0-0.1,0-0.2,0-0.4c0.7-4.6,4.4-7.9,8.6-7.9c0.4,0,0.8,0,1.2,0.1c4.6,0.7,7.7,5.4,7,10.4
					C290.1,68.5,290.1,68.6,290.1,68.8 M319.7,32.8c7.5,7.2,12,17.1,12.8,27.4c-0.6-10.3-4.9-19.9-11.8-27.1
					C320.4,33,320,32.9,319.7,32.8 M308.5,101.3c-2.7,1-6.4,2.4-6.4,2.4l-6.5,12.6l-1.1-1.5l1.1,1.7l3.3-6.3l3.3-6.3
					C304.4,103.1,306.5,102.3,308.5,101.3"/>
				<path id="Fill-40" class="st18" d="M317.6,32.2c7.3,14.4,6.6,32.7-2,46.4c-8.5,13.7-24.4,22.4-40.5,22.4c-1,0-2,0-3-0.1
					c2.5,2.1,10.7,4,14.4,4.7c1.1,0.2,1.8,0.4,1.8,0.4l6.2,8.8l1.1,1.5l6.5-12.6c0,0,3.7-1.3,6.4-2.4c1.4-0.5,2.6-1,2.8-1.2
					c11.4-6.6,19.3-18.3,20.9-31.4c0.4-2.8,0.4-5.7,0.2-8.5c-0.8-10.3-5.4-20.2-12.8-27.4C319,32.6,318.3,32.4,317.6,32.2"/>
				<path id="Fill-42" class="st19" d="M282,57.9c-4.2,0-7.9,3.3-8.6,7.9c0,0.1,0,0.2,0,0.4l16.7,2.6c0-0.1,0.1-0.2,0.1-0.3
					c0.8-5-2.3-9.7-7-10.4C282.8,57.9,282.4,57.9,282,57.9"/>
				<path id="Fill-44" class="st19" d="M295.3,47.5c-1.8,0-3.4,1.5-3.3,3.5c0,1.3,0.9,2.5,2.2,3c0.4,0.1,0.8,0.2,1.1,0.2
					c2,0,3.6-1.7,3.3-3.9c-0.2-1-0.8-1.9-1.7-2.3C296.3,47.6,295.8,47.5,295.3,47.5"/>
				<path id="Fill-46" class="st19" d="M273.3,44.1c-0.2,0-0.4,0-0.6,0c-1,0.2-1.9,0.8-2.3,1.7c-1.2,2.3,0.5,4.9,3,4.9
					c0,0,0.1,0,0.1,0c1.3,0,2.5-0.9,3-2.2C277.2,46.3,275.6,44.1,273.3,44.1"/>
				<path id="Fill-48" class="st20" d="M289.6,0.6c-1.4,0-2.8,0-4.2,0.1l0,0c0,0,0,0-0.1,0c-0.4,0-0.8,0.1-1.3,0.1c0,0-0.1,0-0.1,0
					c-0.7,0.1-1.4,0.1-2.1,0.2c-0.1,0-0.2,0-0.3,0c-0.3,0-0.6,0.1-1,0.1c-0.7,0.1-1.3,0.2-2,0.3c-0.3,0.1-0.6,0.1-0.9,0.2
					c-1.7,0.3-3.4,0.7-5,1.2c-0.7,0.2-1.3,0.4-2,0.6c-0.3,0.1-0.6,0.2-0.9,0.3c0,0,0,0,0,0c0,0-0.1,0-0.1,0c-0.7,0.2-1.3,0.5-2,0.7
					c-0.8,0.3-1.6,0.6-2.4,1c-0.4,0.2-0.8,0.4-1.2,0.5c-0.4,0.2-0.8,0.4-1.2,0.5c-0.4,0.2-0.8,0.4-1.2,0.6c-0.8,0.4-1.6,0.8-2.4,1.2
					l0,0c-0.8,0.4-1.6,0.9-2.4,1.4c-0.7,0.5-1.5,0.9-2.2,1.4c-0.4,0.3-0.7,0.5-1.1,0.8c-0.4,0.3-0.7,0.5-1.1,0.8
					c-0.7,0.5-1.5,1.1-2.2,1.7c-1,0.8-1.9,1.6-2.8,2.4c-0.9,0.8-1.8,1.7-2.6,2.5c-0.3,0.3-0.6,0.6-0.9,0.9c-0.2,0.2-0.4,0.4-0.6,0.7
					c-0.7,0.8-1.4,1.6-2.1,2.5c-0.4,0.5-0.8,0.9-1.1,1.4c-0.3,0.4-0.5,0.7-0.8,1.1c-0.3,0.4-0.5,0.7-0.8,1.1c-0.2,0.3-0.5,0.7-0.7,1
					l-0.1,0.1c-1,1.5-2,3.1-2.9,4.7c-0.4,0.7-0.8,1.4-1.2,2.2c-0.4,0.7-0.7,1.4-1,2.1c-0.1,0.1-0.1,0.2-0.2,0.4
					c-0.1,0.2-0.2,0.4-0.2,0.5c-0.1,0.1-0.1,0.2-0.2,0.4c0,0.1-0.1,0.1-0.1,0.2c0,0.1-0.1,0.2-0.1,0.3c-0.2,0.4-0.3,0.8-0.5,1.2
					c0,0,0,0,0,0v0c-0.2,0.4-0.3,0.8-0.5,1.3c-0.1,0.3-0.2,0.7-0.4,1c0,0.1-0.1,0.2-0.1,0.4c-0.1,0.3-0.2,0.7-0.3,1
					c0,0.1-0.1,0.2-0.1,0.2c-0.1,0.4-0.2,0.7-0.3,1.1c0,0,0,0,0,0v0c-0.1,0.4-0.2,0.8-0.3,1.2c-0.1,0.2-0.1,0.4-0.2,0.6
					c0,0.2-0.1,0.3-0.1,0.5c0,0.1,0,0.2-0.1,0.3c-0.2,0.7-0.4,1.4-0.5,2.1c-0.1,0.4-0.2,0.8-0.2,1.2v0c-0.1,0.4-0.2,0.8-0.2,1.2
					c-0.1,0.8-0.3,1.6-0.4,2.4c-0.1,0.4-0.1,0.8-0.2,1.2c-0.1,0.7-0.2,1.5-0.2,2.2c0,0.1,0,0.2,0,0.3c-0.1,1.1-0.2,2.3-0.2,3.4
					c0,0.4,0,0.8,0,1.2c0,0.5,0,1.1,0,1.6v0c0,0,0,0,0,0c0,0.2,0,0.4,0,0.7c0,0.3,0,0.5,0,0.7c0,0.6,0.1,1.3,0.1,1.9l0,0
					c0,0.1,0,0.1,0,0.2c0,0,0,0,0,0c0,0.3,0,0.6,0.1,0.9c0,0.5,0.1,1,0.1,1.5c0,0.2,0,0.3,0.1,0.5c0,0.2,0.1,0.4,0.1,0.6l0,0.1
					c0.1,0.4,0.1,0.9,0.2,1.3c0,0.3,0.1,0.6,0.1,0.9l0,0.1c0,0.1,0,0.2,0.1,0.3c0,0.1,0,0.1,0,0.2c0.1,0.8,0.3,1.6,0.5,2.3
					c0,0.1,0,0.2,0,0.2c0.1,0.3,0.1,0.6,0.2,0.9v0c0,0,0,0,0,0l0,0.1c0.1,0.4,0.2,0.8,0.3,1.3c0,0.1,0,0.2,0.1,0.2l0,0.1
					c0,0.1,0,0.2,0.1,0.2v0v0c3.8-11.6,10.5-22.5,20.1-31.2c1-2.8,2.2-5.5,3.8-8c5.7-9.4,15-16.3,25.6-19.2l0,0
					c0.3-0.1,0.5-0.1,0.8-0.2c0.1,0,0.2-0.1,0.3-0.1c0.2,0,0.4-0.1,0.6-0.1c0.4-0.1,0.7-0.2,1.1-0.3c2.8-0.6,5.6-0.9,8.5-0.9
					c2.2,0,4.3,0.2,6.5,0.5c9.7,1.5,18.2,6.2,24.5,12.8c11.5,3.7,22.2,10.3,30.9,19.7v0c0,0,0,0,0,0c0-0.1,0-0.2,0-0.3
					c0-0.1,0-0.2-0.1-0.3c0-0.1,0-0.1,0-0.2c0-0.2-0.1-0.3-0.1-0.5c0-0.1,0-0.1,0-0.2c0-0.2-0.1-0.4-0.1-0.6c0-0.2-0.1-0.4-0.1-0.5
					c-0.1-0.5-0.2-1.1-0.4-1.6c-0.1-0.2-0.1-0.4-0.2-0.6c0-0.1-0.1-0.3-0.1-0.4c-0.1-0.3-0.1-0.5-0.2-0.8c0,0,0,0,0,0
					c-0.1-0.2-0.1-0.4-0.2-0.7l0-0.1c-0.1-0.3-0.2-0.6-0.2-0.8c0-0.1,0-0.1,0-0.2c0-0.1-0.1-0.3-0.1-0.4c0-0.1-0.1-0.3-0.1-0.4
					c-0.1-0.3-0.2-0.6-0.3-0.9c-0.1-0.2-0.2-0.5-0.2-0.7c-0.1-0.4-0.3-0.8-0.4-1.2c-0.1-0.2-0.1-0.3-0.2-0.5
					c-0.1-0.4-0.3-0.7-0.4-1.1c-0.1-0.2-0.1-0.4-0.2-0.5c-0.1-0.2-0.2-0.4-0.3-0.6c-0.3-0.6-0.5-1.2-0.8-1.8
					c-0.1-0.3-0.3-0.6-0.4-0.9c-0.1-0.3-0.3-0.6-0.4-0.9c-0.2-0.3-0.3-0.6-0.5-0.9c-0.2-0.4-0.4-0.8-0.6-1.2
					c-0.2-0.4-0.4-0.8-0.7-1.2c-0.2-0.3-0.4-0.7-0.6-1c-0.1-0.1-0.1-0.2-0.2-0.3c-0.2-0.3-0.4-0.7-0.6-1c-0.1-0.2-0.2-0.4-0.4-0.5
					c-0.3-0.4-0.6-0.9-0.9-1.3c-0.1-0.2-0.2-0.4-0.4-0.5c-0.1-0.2-0.2-0.3-0.3-0.5c-0.6-0.9-1.3-1.8-2-2.6
					C326.1,8.6,307.9,0.6,289.6,0.6"/>
				<path id="Fill-50" class="st21" d="M289.7,19.8c-2.8,0-5.7,0.3-8.5,0.9c-0.4,0.1-0.7,0.2-1.1,0.3c-0.2,0-0.4,0.1-0.6,0.1
					c-0.1,0-0.2,0-0.3,0.1c-0.3,0.1-0.5,0.1-0.8,0.2l0,0c-10.6,2.9-19.9,9.8-25.6,19.2c-1.5,2.5-2.8,5.2-3.8,8c1.1-1,2.2-2,3.4-2.9
					c13.5-10.9,29.6-16.2,45.7-16.2c6.6,0,13.1,0.9,19.5,2.6c-0.4-0.7-0.7-1.4-1.1-2.1c-0.1-0.1-0.2-0.2-0.3-0.2l0.1-0.1
					c0.1,0.1,0.1,0.2,0.2,0.3c0.7,0.6,1.4,1.1,2.1,1.7c0.4,0.3,0.7,0.7,1.1,1c0.3,0.1,0.7,0.2,1,0.3c-6.3-6.6-14.8-11.3-24.5-12.8
					C294,20,291.8,19.8,289.7,19.8"/>
				<path id="Fill-52" class="st22" d="M316.3,29.7l-0.1,0.1c0.1,0.1,0.2,0.2,0.3,0.2C316.4,29.9,316.4,29.8,316.3,29.7 M316.5,30
					c0.4,0.7,0.8,1.4,1.1,2.1c0.7,0.2,1.4,0.4,2.1,0.6c-0.4-0.3-0.7-0.7-1.1-1C317.9,31.1,317.2,30.6,316.5,30"/>
				<path id="Fill-54" class="st6" d="M246.5,109.1c0.2,0.2,0.4,0.4,0.6,0.6C246.9,109.5,246.7,109.3,246.5,109.1L246.5,109.1
					 M247.3,109.9c0.2,0.2,0.4,0.4,0.7,0.6c0.2,0.2,0.4,0.4,0.7,0.6c0.3,0.3,0.7,0.6,1,0.8c-0.2-0.1-0.4-0.3-0.5-0.4l-0.1-0.1
					c-0.2-0.1-0.3-0.3-0.5-0.4c-0.1-0.1-0.3-0.2-0.4-0.4C247.9,110.4,247.6,110.1,247.3,109.9 M250,112.1c0.4,0.3,0.8,0.6,1.2,0.9
					l0,0c0.2,0.1,0.4,0.3,0.6,0.4c-0.1,0-0.1-0.1-0.2-0.2c-0.1-0.1-0.1-0.1-0.2-0.2c-0.1,0-0.1-0.1-0.2-0.1
					c-0.1-0.1-0.1-0.1-0.2-0.2l-0.1-0.1c-0.2-0.2-0.5-0.4-0.7-0.6C250.1,112.2,250,112.2,250,112.1 M251.8,113.6
					c0.2,0.2,0.4,0.3,0.6,0.5c0.1,0.1,0.1,0.1,0.2,0.2c0.4,0.3,0.9,0.6,1.3,0.9l0,0c0.2,0.2,0.5,0.3,0.7,0.5
					c-0.2-0.1-0.4-0.3-0.6-0.4l0,0l0,0c-0.3-0.2-0.5-0.3-0.7-0.5c-0.1,0-0.1-0.1-0.2-0.1C252.8,114.3,252.3,114,251.8,113.6
					 M254.9,115.8C255,115.8,255,115.8,254.9,115.8C255,115.8,255,115.8,254.9,115.8 M255.2,116c0.1,0.1,0.2,0.1,0.3,0.2
					c0.3,0.2,0.6,0.4,0.9,0.6c-0.2-0.1-0.4-0.2-0.6-0.4c-0.1,0-0.2-0.1-0.2-0.1l0,0c-0.1,0-0.1-0.1-0.2-0.1
					C255.3,116,255.2,116,255.2,116 M256.9,117.1c0.5,0.3,1,0.6,1.6,0.9c0.1,0,0.2,0.1,0.3,0.1c0,0,0,0-0.1,0
					C258.1,117.8,257.5,117.4,256.9,117.1 M259.7,118.7c0.1,0.1,0.2,0.1,0.3,0.2l0,0c-0.1,0-0.1-0.1-0.2-0.1
					C259.8,118.7,259.7,118.7,259.7,118.7 M260.9,119.3c0.1,0,0.1,0.1,0.2,0.1C261.1,119.4,261,119.4,260.9,119.3
					C261,119.3,260.9,119.3,260.9,119.3 M262,119.8c0.1,0,0.2,0.1,0.3,0.1l-0.1,0C262.1,119.9,262,119.9,262,119.8 M317.2,119.9
					C317.1,119.9,317.1,119.9,317.2,119.9c-0.3,0.1-0.5,0.2-0.7,0.3c-0.3,0.2-0.7,0.3-1,0.5c-0.6,0.3-1.2,0.5-1.7,0.8
					c-0.2,0.1-0.4,0.2-0.6,0.2c-0.5,0.2-0.9,0.4-1.4,0.5l0,0c-0.5,0.2-1.1,0.4-1.6,0.6c-0.5,0.2-0.9,0.3-1.4,0.5
					c-0.3,0.1-0.5,0.2-0.8,0.2c-0.1,0-0.1,0-0.2,0.1C311,122.6,314.1,121.4,317.2,119.9 M267.1,122.1c0.2,0.1,0.5,0.2,0.7,0.3
					c0,0,0,0,0,0C267.6,122.2,267.3,122.2,267.1,122.1 M306.7,123.9C306.7,123.9,306.6,123.9,306.7,123.9
					C306.6,123.9,306.6,123.9,306.7,123.9C306.6,123.9,306.6,123.9,306.7,123.9 M278.5,125.2c0.1,0,0.3,0,0.4,0.1
					c-0.1,0-0.1,0-0.2,0C278.7,125.3,278.6,125.3,278.5,125.2 M280.1,125.5C280.1,125.5,280.1,125.5,280.1,125.5L280.1,125.5
					C280.1,125.5,280.1,125.5,280.1,125.5 M281.6,125.7c0.2,0,0.5,0.1,0.7,0.1c-0.1,0-0.2,0-0.3,0
					C281.8,125.7,281.7,125.7,281.6,125.7"/>
				<path id="Fill-56" class="st6" d="M164.3,89.4l-2.2,10.4c-0.4-0.1-0.9-0.2-1.3-0.3c-0.2,0-0.4-0.1-0.6-0.1
					c-3.2-0.6-6.2-1-9.1-1.2c-4.5-0.3-8.7,0-12.4,0.7c-4.1,0.8-7.7,2.3-10.9,4.3c-0.2,0.1-0.3,0.2-0.5,0.3c-3.7,2.5-6.4,5.5-8.4,9v0
					c-2.9,5-4.6,10.9-6.1,17.4c-0.3,1.4-0.7,2.9-1,4.4c-0.5,2.2-1,4.4-1.6,6.6c-0.9,3.8-2,7.6-3.4,11.5v0c-0.5,1.4-1,2.7-1.6,4.1
					c-0.9,2.1-1.9,4.2-3.1,6.2c-0.4,0.7-0.9,1.5-1.3,2.2c-1.2,1.8-2.4,3.6-3.8,5.2c-1.7,2.1-3.5,4-5.5,5.9c-1.4,1.3-2.9,2.6-4.4,3.8
					c-0.9,0.7-1.9,1.4-2.9,2.1v0c-3.1,2.1-6.5,4.1-10.1,5.9l0,0c-1.6,0.8-3.3,1.5-5.1,2.3c-0.6,0.2-1.1,0.5-1.7,0.7h0
					c-2.5,1-5.2,1.9-7.9,2.7c-0.4,0.1-0.9,0.3-1.3,0.4c-3.9,1.1-8,2.1-12.4,3c-2.1,0.4-4.3,0.8-6.5,1.2c-2,0.3-4,0.6-6,0.9
					c-1.3,0.2-2.6,0.3-3.9,0.5c-3.7,0.4-7.5,0.7-11.4,1c-3.1,0.2-6.4,0.3-9.6,0.4c-2.4,0.1-4.8,0.1-7.2,0.1c-0.2,0-0.4,0-0.7,0
					l0-4.9l0-5.7c1.4,0,2.7,0,4.1,0c3.9-0.1,7.7-0.2,11.4-0.4c3.2-0.2,6.2-0.4,9.2-0.7c1.5-0.1,2.9-0.3,4.3-0.5
					c1.3-0.1,2.6-0.3,3.8-0.5c3-0.4,5.9-0.9,8.7-1.4c2.6-0.5,5.1-1,7.5-1.6h0c2.8-0.7,5.5-1.4,8-2.2c0.4-0.1,0.9-0.3,1.3-0.4h0
					c3.2-1.1,6.2-2.2,9-3.5c1.5-0.7,2.9-1.4,4.3-2.1h0c2.4-1.3,4.6-2.6,6.6-4.1c0.5-0.4,1.1-0.8,1.6-1.1c2.8-2.1,5.3-4.4,7.5-6.9
					c0.7-0.8,1.4-1.6,2-2.5c0,0,0,0,0,0c0.8-1,1.5-2,2.2-3.1c0.9-1.3,1.6-2.7,2.3-4.1c0.5-0.9,0.9-1.8,1.3-2.8
					c1.6-3.6,2.8-7.4,3.8-11.2c0.2-0.8,0.4-1.7,0.6-2.5c0.6-2.2,1.1-4.5,1.6-6.7c0.1-0.5,0.2-0.9,0.3-1.4c1.6-6.8,3.2-13.7,6.2-20
					c0,0,0,0,0,0c2.5-5.2,5.9-10.1,11-14.1c0.8-0.6,1.6-1.2,2.5-1.8c2.7-1.8,5.5-3.2,8.6-4.4c5.3-2,11.3-2.9,17.8-2.9
					c4.5,0,9.3,0.5,14.4,1.5c0.1,0,0.1,0,0.2,0c0.1,0,0.2,0,0.3,0.1C163.2,89.1,163.8,89.2,164.3,89.4"/>
				<path id="Fill-58" class="st9" d="M162.3,89c-1.8,1-3.7,2.3-5.6,3.8c-2.3,1.8-4.1,3.7-5.6,5.4c-4.5-0.3-8.7,0-12.4,0.7
					c0.7-1.4,1.5-2.8,2.5-4.3c2.1-3,4.4-5.4,6.5-7.2C152.3,87.5,157.1,88,162.3,89"/>
				<path id="Fill-60" class="st9" d="M129.9,90.4c-0.6,1.9-1.2,3.9-1.5,6.1c-0.4,2.4-0.6,4.7-0.6,6.7c-0.2,0.1-0.3,0.2-0.5,0.3
					c-3.7,2.5-6.4,5.5-8.4,9c-0.3-1.4-0.6-2.8-0.8-4.4c-0.5-4.2-0.2-8,0.3-11.1c0.2-0.2,0.3-0.4,0.5-0.5c0.8-0.6,1.6-1.2,2.5-1.8
					C123.9,93,126.8,91.5,129.9,90.4"/>
				<path id="Fill-62" class="st9" d="M112.6,130c-0.3,1.4-0.7,2.9-1,4.4c-0.5,2.2-1,4.4-1.6,6.6c-2.1-1.7-4.7-4.1-6.5-7.1
					c-0.7-1.2-1.4-2.3-2-3.3c1.6-6.8,3.2-13.7,6.2-20c-0.3,3.7-0.1,9,2.3,14.6C110.8,127,111.7,128.6,112.6,130"/>
				<path id="Fill-64" class="st9" d="M105,156.5c-0.9,2.1-1.9,4.2-3.1,6.2c-0.4,0.7-0.9,1.5-1.3,2.2c-1.2,1.8-2.4,3.6-3.8,5.2
					c-0.9-2.4-1.7-5.2-2.2-8.4c-0.4-2.4-0.6-4.6-0.6-6.7c0.5-0.9,0.9-1.8,1.3-2.8c1.6-3.6,2.8-7.4,3.8-11.2c0.4,2.2,1.1,4.6,2,7.2
					C102.2,151.6,103.6,154.3,105,156.5"/>
				<path id="Fill-66" class="st9" d="M87.3,173.1c-0.1,2.3-0.3,4.6-0.5,6.7c-0.9,0.7-1.9,1.4-2.9,2.1v0c-3.1,2.1-6.5,4.1-10.1,5.9
					c1.1-2.9,2.2-6,3.1-9.4c0.5-1.9,1-3.8,1.4-5.6c0.5-0.4,1.1-0.8,1.6-1.1c2.8-2.1,5.3-4.4,7.5-6.9
					C87.4,167.4,87.4,170.2,87.3,173.1"/>
				<path id="Fill-68" class="st9" d="M67.4,179c-0.8,2.1-1.8,4.5-3.2,7c-1.7,3-3.5,5.5-5.2,7.6c-0.4,0.1-0.9,0.3-1.3,0.4
					c-3.9,1.1-8,2.1-12.4,3c3.2-3,6.6-6.7,9.8-11.1c0.7-1,1.3-1.9,1.9-2.8c0.4-0.1,0.9-0.3,1.3-0.4h0
					C61.6,181.5,64.6,180.3,67.4,179"/>
				<path id="Fill-70" class="st9" d="M41.6,186.8c-1,2-2.2,4.1-3.8,6.2c-1.6,2.3-3.3,4.2-4.9,5.9c-1.3,0.2-2.6,0.3-3.9,0.5
					c-3.7,0.4-7.5,0.7-11.4,1c2.6-2.1,5.3-4.7,8-7.6c1.3-1.4,2.4-2.7,3.5-4.1c1.3-0.1,2.6-0.3,3.8-0.5
					C35.9,187.8,38.8,187.3,41.6,186.8"/>
				<g id="Group-74" transform="translate(0.000000, 189.661519)">
					<defs>
						<filter id="Adobe_OpacityMaskFilter_1_" filterUnits="userSpaceOnUse">
							<feColorMatrix  type="matrix" values="1 0 0 0 0  0 1 0 0 0  0 0 1 0 0  0 0 0 1 0"/>
						</filter>
					</defs>
					<mask maskUnits="userSpaceOnUse" id="mask-4_1_">
						<g class="st23">
							<polygon id="path-3_1_" class="st15" points="0,0.2 15.5,0.2 15.5,11.2 0,11.2 							"/>
						</g>
					</mask>
					<path id="Fill-72" class="st24" d="M15.5,0.2C13.9,1.8,12,3.6,9.7,5.4c-3.1,2.4-6.2,4.4-9,5.9c-0.2,0-0.4,0-0.7,0l0-4.9l0-5.7
						c1.4,0,2.7,0,4.1,0C8,0.5,11.8,0.4,15.5,0.2"/>
				</g>
				<path id="Fill-75" class="st6" d="M179.6,87.5l-3.5,19.2c-0.2,0.9-1,1.4-1.9,1.3l-0.9-0.2c-0.9-0.2-1.4-1-1.3-1.9l-6.4-1.2
					c-3.2-0.6-5.4-3.7-4.8-6.9l1.4-7.6c0.6-3.2,3.7-5.4,6.9-4.8l6.4,1.2c0.2-0.9,1-1.4,1.9-1.3l0.9,0.2
					C179.2,85.8,179.8,86.7,179.6,87.5"/>
				<path id="Fill-77" class="st9" d="M179.6,87.5l-3.5,19.2c-0.2,0.9-1,1.4-1.9,1.3l-0.9-0.2c-0.9-0.2-1.4-1-1.3-1.9l3.5-19.3
					c0.2-0.9,1-1.4,1.9-1.3l0.9,0.2C179.2,85.8,179.8,86.7,179.6,87.5"/>
			</g>
		</g>
	</g>
</g>
</svg>
