<?xml version="1.0" encoding="utf-8"?>
<!-- Generator: Adobe Illustrator 22.0.1, SVG Export Plug-In . SVG Version: 6.00 Build 0)  -->
<svg version="1.1" id="Layer_1" xmlns="http://www.w3.org/2000/svg" xmlns:xlink="http://www.w3.org/1999/xlink" x="0px" y="0px"
	 viewBox="0 0 320 268.2" style="enable-background:new 0 0 320 268.2;" xml:space="preserve">
<style type="text/css">
	.st0{fill:#336372;}
	.st1{fill:#0A4456;}
	.st2{fill:#A1BBC2;}
	.st3{fill:#E2EDEF;}
	.st4{fill:#8FBBC5;}
	.st5{fill:#91D757;}
	.st6{fill:#8ACA4F;}
	.st7{fill:#FFF4E2;}
	.st8{fill:#F9FBFC;}
	.st9{fill:#366674;}
	.st10{fill:#A1DB75;}
	.st11{fill:#9CD16F;}
	.st12{fill:#F9F3E5;}
	.st13{fill:#58818D;}
	.st14{fill:#AEDF8D;}
	.st15{fill:#AAD789;}
</style>
<g id="Bill-Pay-_x2F_-P2p-Delegation">
	<g id="Mobile-v2---SSO-error-from-email" transform="translate(0.000000, -441.000000)">
		<g id="Page-1" transform="translate(-1.000000, 441.000000)">
			<g id="Group-7" transform="translate(161.500000, 214.996875) scale(-1, 1) translate(-161.500000, -214.996875) ">
				<path id="Fill-1" class="st0" d="M0.9,0.2v21.5c10,15.7,9.3,29.4,23.9,40.5c7.2,5.4,14.1,7.2,21.5,7.2c4.2,0,8.5-0.6,13.2-1.3
					C45.6,54.7,49,37.9,29.2,18.5C20.5,9.9,10.6,4.1,0.9,0.2 M143,73.3c25.8,11.3,33.8,28.1,67.3,29.3c1.2,0,2.3,0.1,3.4,0.1
					c0.5,0,1,0,1.4,0c-15.8-8.9-27.5-22-58.8-27.6C151.7,74.2,147.3,73.6,143,73.3 M310.9,100c-2.1,0-4.1,0.1-6.1,0.4
					c7,4.1,13,9.2,18.2,14.4v-13.4C318.6,100.4,314.6,100,310.9,100"/>
				<path id="Fill-3" class="st0" d="M95.4,63.9c-14.5,0-26,2.5-36,4.2c1.1,1.1,2.4,2.2,3.7,3.2c7.2,5.5,14.1,7.2,21.5,7.2
					c6.6,0,13.5-1.4,21.5-2.7c8-1.4,17-2.7,27.7-2.7c2.9,0,6,0.1,9.2,0.3c-6.8-3-14.9-5.6-25-7.4C109.8,64.4,102.3,63.9,95.4,63.9
					 M272.5,90.9c-19.3,0-30.9,11.3-57.3,11.7c8.7,4.9,18.5,8.5,33.5,9c1.1,0,2.3,0.1,3.4,0.1c24.5,0,36.4-9.4,52.7-11.4
					c-6-3.5-12.7-6.4-20.1-8.1C280.2,91.3,276.2,90.9,272.5,90.9"/>
				<path class="st1" d="M0.9,268.9V21.7c10,15.7,9.3,29.4,23.9,40.5c7.2,5.4,14.1,7.2,21.5,7.2c4.2,0,8.5-0.6,13.2-1.3
					c1.1,1.1,2.4,2.2,3.7,3.2c7.2,5.5,14.1,7.2,21.5,7.2c6.6,0,13.5-1.4,21.5-2.7c8-1.4,17-2.7,27.7-2.7c2.9,0,6,0.1,9.2,0.3
					c25.8,11.3,33.8,28.1,67.3,29.3c1.2,0,2.3,0.1,3.4,0.1c0.5,0,1,0,1.4,0c8.7,4.9,18.5,8.5,33.5,9c1.1,0,2.3,0.1,3.4,0.1
					c24.5,0,36.4-9.4,52.7-11.4c7,4.1,13,9.2,18.2,14.4v154.1H0.9z M81.7,89.4c-0.7,0-1.3,0.6-1.3,1.3s0.6,1.3,1.3,1.3
					c0.7,0,1.3-0.6,1.3-1.3S82.5,89.4,81.7,89.4z M233.3,128.3c-0.1-0.8-0.8-1.4-1.6-1.4c-0.1,0-0.1,0-0.2,0
					c-0.9,0.1-1.5,0.9-1.4,1.8c0.1,0.8,0.8,1.4,1.6,1.4c0.1,0,0.1,0,0.2,0C232.8,130,233.4,129.2,233.3,128.3z"/>
			</g>
			<g id="Group-54" transform="translate(26.000000, 165.000000)">
				<path id="Fill-46_1_" class="st2" d="M225,0c-0.1,0-0.2,0-0.3,0c-1.1,0.2-1.9,1.2-1.7,2.3c0.1,1,1,1.7,2,1.7c0.1,0,0.2,0,0.3,0
					c1.1-0.2,1.9-1.2,1.7-2.3C226.8,0.7,226,0,225,0"/>
				<path id="Fill-52_1_" class="st3" d="M138.6,69.1c1.1,0.3,1.7,1.4,1.3,2.5c-0.3,1.1-1.4,1.7-2.5,1.3c-1.1-0.3-1.7-1.4-1.3-2.5
					C136.4,69.4,137.5,68.8,138.6,69.1z"/>
			</g>
			<g id="Group-12" transform="translate(287.000000, 146.000000)">
				<path id="Fill-8" class="st3" d="M13.2,59.8c0,1.3-1.1,2.4-2.4,2.4c-1.3,0-2.4-1.1-2.4-2.4c0-1.3,1.1-2.4,2.4-2.4
					C12.2,57.4,13.2,58.5,13.2,59.8"/>
				<path id="Fill-10" class="st2" d="M2,0.5c-0.7,0-1.3,0.6-1.3,1.3c0,0.7,0.6,1.3,1.3,1.3s1.3-0.6,1.3-1.3C3.3,1.1,2.7,0.5,2,0.5"
					/>
			</g>
			<g>
				<g>
					<g>
						<path class="st3" d="M131.5,177.5L131.5,177.5c-0.1,0.7,0.3,1.3,1,1.4l5.6,1c0.7,0.1,1.3-0.3,1.4-1l0,0c0.1-0.7-0.3-1.3-1-1.4
							l-5.6-1C132.2,176.4,131.6,176.9,131.5,177.5z"/>
						<path class="st3" d="M129.9,184.9L129.9,184.9c-0.1,0.7,0.3,1.3,1,1.4l5.6,1c0.7,0.1,1.3-0.3,1.4-1l0,0c0.1-0.7-0.3-1.3-1-1.4
							l-5.6-1C130.7,183.9,130,184.3,129.9,184.9z"/>
					</g>
					<path class="st3" d="M138.2,185.4c0.9,0.4,1.8,0.7,2.8,1l0,0c3.5,1.1,7.1,1.7,10.7,1.8c0.1,0,0.3,0,0.4,0
						c2.6,0.1,5.3-0.1,7.9-0.5c-0.3-0.5-0.7-1.1-1-1.6c-0.4-0.7-0.8-1.5-1.2-2.2c-0.6-1.1-0.9-2.3-1-3.5c-1.3,0.1-2.5,0.2-3.8,0.2
						c-2.6,0-5.2-0.4-7.8-1c-1.4-0.4-2.8-0.8-4.2-1.3c-2.1-0.8-4-1.8-5.7-3"/>
					<path class="st4" d="M138.2,185.4c0.9,0.4,1.8,0.7,2.8,1c-1.3-1.6-2.8-3.7-4-6.3c-0.8-1.8-1.4-3.4-1.7-4.9"/>
					<path class="st4" d="M145.2,179.6c0.4,1.2,1.1,2.5,2,3.9c1.5,2.2,3.3,3.8,4.9,4.8c2.6,0.1,5.3-0.1,7.9-0.5
						c-0.3-0.5-0.7-1.1-1-1.6c-1-0.6-2-1.3-2.9-2.1c-1.3-1.2-2.3-2.4-3-3.4C150.4,180.5,147.8,180.2,145.2,179.6z"/>
					<g>
						<path class="st3" d="M134.6,175l-2.5,13.8c-0.1,0.6,0.3,1.2,0.9,1.3l0.7,0.1c0.6,0.1,1.2-0.3,1.3-0.9l4.6,0.8
							c2.3,0.4,4.5-1.1,5-3.4l1-5.4c0.4-2.3-1.1-4.5-3.4-5l-4.6-0.8c0.1-0.6-0.3-1.2-0.9-1.3l-0.7-0.1
							C135.4,174,134.8,174.4,134.6,175z"/>
						<path class="st4" d="M134.6,175l-2.5,13.8c-0.1,0.6,0.3,1.2,0.9,1.3l0.7,0.1c0.6,0.1,1.2-0.3,1.3-0.9l2.5-13.8
							c0.1-0.6-0.3-1.2-0.9-1.3l-0.7-0.1C135.4,174,134.8,174.4,134.6,175z"/>
					</g>
				</g>
				<path class="st5" d="M157.9,138.4c-0.9,5.6-0.1,11.2,1.9,16.1c3.9,9.8,12.8,17.2,23.9,19c1.3,0.2,2.6,0.3,3.9,0.3
					c0.1,0,0.1,0,0.2,0l0.1,0.1l0,0l2.1,3.3l2.7,4.3l2.3-4.5l2.3-4.5c2.9-0.9,5.6-2.2,8.1-3.8c7.1-4.7,12.1-12.5,13.4-20.9
					c2.6-16.8-8.9-32.5-25.8-35.1c-3.6-0.5-7.2-0.5-10.7,0.3c-0.3,0.1-0.5,0.1-0.8,0.2c-0.1,0-0.3,0.1-0.4,0.1c-0.1,0-0.1,0-0.2,0
					c-0.2,0-0.4,0.1-0.5,0.1l0,0c-7.6,2.1-14.3,7.1-18.3,13.8c-1.5,2.6-2.7,5.4-3.5,8.4C158.3,136.4,158.1,137.4,157.9,138.4"/>
				<path class="st6" d="M207.5,119.3c6.2,10.6,6,24.6-0.5,35c-6.5,10.4-18.9,16.8-31.2,16c2.3,2,11.6,3.6,11.6,3.6l5.2,7.4l4.7-9
					c0,0,6.1-2.2,6.6-2.5c8.2-4.7,13.8-13.1,15-22.5c1.2-9.8-2.5-19.9-9.8-26.5C208.5,120.3,208,119.9,207.5,119.3L207.5,119.3"/>
				<path class="st7" d="M176.7,145.2c0,0.1,0,0.2,0,0.3l12,1.8c0-0.1,0-0.2,0.1-0.2c0.6-3.6-1.7-7-5-7.5
					C180.4,139.1,177.2,141.6,176.7,145.2"/>
				<path class="st7" d="M190,134.5c0,0.9,0.7,1.8,1.6,2.1c1.7,0.6,3.5-0.8,3.1-2.7c-0.1-0.7-0.6-1.3-1.2-1.7
					C191.8,131.5,190,132.7,190,134.5"/>
				<path class="st7" d="M176.7,134.4c0.9,0,1.8-0.7,2.1-1.6c0.6-1.7-0.8-3.5-2.7-3.1c-0.7,0.1-1.3,0.6-1.7,1.2
					C173.7,132.6,174.9,134.4,176.7,134.4"/>
				<path class="st8" d="M144.5,153.8c0.1,0.5,0.2,0.9,0.4,1.4c0,0,0,0,0,0c0,0,0,0,0,0v0c0-0.1,0-0.1-0.1-0.2l0,0
					c0-0.1,0-0.1,0-0.2C144.7,154.5,144.6,154.2,144.5,153.8L144.5,153.8 M144,151.2c0.2,0.9,0.3,1.7,0.5,2.6v0
					c-0.1-0.2-0.1-0.4-0.1-0.6c0-0.1,0-0.1,0-0.2c-0.1-0.6-0.2-1.1-0.3-1.7C144,151.3,144,151.3,144,151.2 M143.6,148.5
					c0.1,0.8,0.2,1.7,0.3,2.5l0-0.1c0-0.2-0.1-0.4-0.1-0.7c0-0.3-0.1-0.6-0.1-0.9l0-0.1c0-0.2,0-0.3-0.1-0.5
					C143.6,148.7,143.6,148.6,143.6,148.5 M143.4,146.8c0,0.2,0,0.4,0.1,0.7C143.4,147.2,143.4,147,143.4,146.8
					C143.4,146.8,143.4,146.8,143.4,146.8 M143.3,144.7c0,0.6,0,1.3,0.1,1.9l0,0c0-0.5-0.1-0.9-0.1-1.4
					C143.3,145,143.3,144.9,143.3,144.7 M143.3,144.2C143.3,144.2,143.3,144.2,143.3,144.2C143.3,144.2,143.3,144.2,143.3,144.2
					 M232.7,135.8C232.7,135.8,232.7,135.8,232.7,135.8C232.7,135.9,232.7,135.9,232.7,135.8C232.7,135.9,232.7,135.9,232.7,135.8
					C232.7,135.8,232.7,135.8,232.7,135.8 M232.6,135.4c0,0,0,0.1,0,0.1c0,0.1,0,0.1,0,0.2C232.7,135.6,232.6,135.5,232.6,135.4
					 M232.4,134.1c0,0.1,0.1,0.3,0.1,0.4c0,0.1,0.1,0.3,0.1,0.4c0,0,0,0.1,0,0.1C232.5,134.7,232.4,134.4,232.4,134.1 M144.8,132
					c-1.1,4-1.6,8.1-1.5,12.2c0-0.4,0-0.8,0-1.2c0-0.3,0-0.6,0-0.9c0-0.8,0.1-1.6,0.1-2.4c0-0.1,0-0.2,0-0.2c0-0.5,0.1-1.1,0.2-1.6
					c0-0.3,0.1-0.6,0.1-0.8c0.1-0.6,0.2-1.1,0.3-1.7c0.1-0.3,0.1-0.6,0.2-0.8v0c0.1-0.3,0.1-0.6,0.2-0.8c0.1-0.5,0.2-1,0.4-1.5
					C144.8,132.1,144.8,132,144.8,132 M231.7,131.5C231.8,131.5,231.8,131.6,231.7,131.5c0.1,0.2,0.1,0.4,0.2,0.6
					c0,0.1,0,0.2,0.1,0.3c0,0.1,0.1,0.3,0.1,0.4C232,132.4,231.9,132,231.7,131.5 M145.2,130.4c-0.1,0.4-0.2,0.8-0.4,1.3
					c0-0.1,0.1-0.3,0.1-0.4C145.1,130.9,145.2,130.6,145.2,130.4L145.2,130.4C145.2,130.4,145.2,130.4,145.2,130.4 M231.4,130.3
					c0,0,0,0.1,0,0.1c0.1,0.2,0.1,0.4,0.2,0.6c0,0,0,0,0,0.1C231.5,130.8,231.5,130.6,231.4,130.3 M230.4,127.3
					c0,0.1,0.1,0.2,0.1,0.3c0.1,0.3,0.2,0.6,0.3,0.9c0.1,0.2,0.1,0.3,0.2,0.5c0.1,0.2,0.1,0.4,0.2,0.6c0,0.1,0.1,0.2,0.1,0.3
					C231,129.1,230.7,128.2,230.4,127.3 M146.5,126.8c-0.4,0.9-0.7,1.8-1,2.8c0-0.1,0-0.1,0.1-0.2c0.1-0.2,0.2-0.5,0.2-0.7
					c0-0.1,0.1-0.2,0.1-0.3c0.1-0.2,0.2-0.5,0.3-0.7C146.2,127.4,146.4,127.1,146.5,126.8L146.5,126.8 M146.9,125.7
					c-0.2,0.4-0.3,0.7-0.5,1.1c0.1-0.3,0.2-0.6,0.4-0.9C146.9,125.8,146.9,125.8,146.9,125.7 M147.4,124.6c-0.1,0.3-0.3,0.6-0.4,0.9
					c0-0.1,0.1-0.2,0.1-0.3c0.1-0.1,0.1-0.3,0.2-0.4C147.3,124.8,147.4,124.7,147.4,124.6 M149,121.6c-0.3,0.5-0.6,1-0.8,1.6
					C148.4,122.6,148.7,122.1,149,121.6 M226.8,120.1c0.2,0.3,0.3,0.5,0.4,0.8c0.2,0.3,0.3,0.6,0.5,0.8c0.2,0.3,0.3,0.6,0.5,0.8
					c0.1,0.2,0.2,0.4,0.3,0.7c0.1,0.2,0.2,0.4,0.3,0.6c0.1,0.2,0.2,0.4,0.3,0.6c0.2,0.4,0.4,0.9,0.6,1.3c0.1,0.1,0.1,0.3,0.2,0.4
					c0.1,0.1,0.1,0.3,0.2,0.4C229.2,124.3,228.1,122.2,226.8,120.1 M225.9,118.7c0.1,0.1,0.2,0.3,0.3,0.4c0.2,0.2,0.3,0.5,0.5,0.7
					C226.4,119.5,226.2,119.1,225.9,118.7 M224.8,117.1c0.1,0.1,0.2,0.2,0.2,0.3c0.1,0.1,0.2,0.3,0.3,0.4
					C225.1,117.6,225,117.3,224.8,117.1 M155.1,113.1c-1.5,1.6-2.8,3.3-4,5.1c0,0,0,0,0-0.1c0.2-0.2,0.3-0.5,0.5-0.7
					c0.2-0.3,0.4-0.5,0.6-0.8c0.2-0.3,0.4-0.5,0.6-0.8c0.3-0.3,0.5-0.7,0.8-1C154,114.3,154.5,113.7,155.1,113.1 M164.8,105.1
					c-1.6,1-3.2,2.1-4.8,3.4c-1.6,1.3-3.1,2.7-4.5,4.2c0.2-0.2,0.4-0.4,0.6-0.7c0.6-0.6,1.2-1.2,1.9-1.8c0.7-0.6,1.3-1.2,2-1.7
					c0.5-0.4,1-0.8,1.6-1.2c0.3-0.2,0.5-0.4,0.8-0.6c0.3-0.2,0.5-0.4,0.8-0.6C163.7,105.7,164.3,105.4,164.8,105.1 M173.9,100.8
					c-2.5,0.9-5,2-7.4,3.3c0,0,0,0,0,0c0.6-0.3,1.1-0.6,1.7-0.9c0.3-0.1,0.6-0.3,0.9-0.4c0.3-0.1,0.6-0.3,0.8-0.4
					c0.3-0.1,0.6-0.3,0.9-0.4c0.6-0.2,1.2-0.5,1.8-0.7C173,101.1,173.5,101,173.9,100.8 M174,100.8C174,100.8,174,100.8,174,100.8
					C174,100.8,174,100.8,174,100.8 M180.3,99.2c-1.9,0.3-3.8,0.8-5.7,1.4c0.5-0.2,1-0.3,1.4-0.4c1.2-0.3,2.4-0.6,3.6-0.9
					C179.9,99.2,180.1,99.2,180.3,99.2 M182.7,98.8c-0.3,0-0.6,0.1-0.9,0.1c0.2,0,0.5-0.1,0.7-0.1C182.5,98.8,182.6,98.8,182.7,98.8
					 M185.2,98.6c-0.3,0-0.7,0-1,0.1c0,0,0.1,0,0.1,0C184.6,98.6,184.9,98.6,185.2,98.6 M185.3,98.6
					C185.3,98.6,185.3,98.6,185.3,98.6C185.3,98.6,185.3,98.6,185.3,98.6"/>
				<path class="st3" d="M204.1,193.4c-1,0.7-2.1,1.3-3.3,1.6c-1.4,0.3-2.9,0.6-4.3,0.9c-5.2,0.8-10.6,0.8-16.1,0
					c-7-1.1-13.5-3.5-19.3-7c-3.3-2-5-5.7-4.4-9.5l0.5-3.1c0-0.1,0.2-0.2,0.3-0.1l0,0c0.2,0.2,0.4,0.4,0.6,0.6
					c0.2,0.2,0.4,0.4,0.6,0.5c0.1,0.1,0.2,0.2,0.3,0.3c0.1,0.1,0.2,0.2,0.3,0.3l0.1,0c0.2,0.2,0.4,0.3,0.6,0.5c0,0,0.1,0.1,0.1,0.1
					c0.2,0.1,0.4,0.3,0.5,0.4l0.1,0c0.1,0,0.1,0.1,0.1,0.1c0,0,0.1,0.1,0.1,0.1c0,0,0.1,0.1,0.1,0.1c0,0,0.1,0.1,0.1,0.1
					c0.4,0.3,0.7,0.5,1.1,0.8c0,0,0.1,0.1,0.1,0.1c0.2,0.1,0.4,0.3,0.5,0.4l0,0l0,0c0.2,0.1,0.3,0.2,0.5,0.3c0,0,0.1,0.1,0.1,0.1
					c0.1,0.1,0.2,0.1,0.3,0.2c0.1,0,0.1,0.1,0.2,0.1l0,0c0.1,0,0.1,0.1,0.2,0.1c0.1,0.1,0.3,0.2,0.4,0.3c0.5,0.3,1.1,0.6,1.6,1
					c0.3,0.2,0.5,0.3,0.8,0.5c0.3,0.2,0.6,0.3,0.8,0.4c0.3,0.1,0.6,0.3,0.8,0.4c0.2,0.1,0.5,0.2,0.7,0.4c0.1,0,0.2,0.1,0.2,0.1
					c0.2,0.1,0.5,0.2,0.7,0.3c0.3,0.1,0.6,0.3,0.9,0.4c0.3,0.1,0.6,0.2,0.9,0.3c0.2,0.1,0.4,0.2,0.7,0.3c0.9,0.3,1.8,0.6,2.7,0.9
					c0.5,0.1,0.9,0.3,1.4,0.4c0.2,0.1,0.5,0.1,0.7,0.2c0.3,0.1,0.6,0.2,1,0.2c0.3,0.1,0.6,0.1,1,0.2c0.3,0.1,0.6,0.1,1,0.2
					c0.3,0.1,0.6,0.1,1,0.2l0,0c0.4,0.1,0.9,0.1,1.3,0.2c0.4,0.1,0.9,0.1,1.3,0.1l0,0c0.4,0,0.9,0.1,1.3,0.1c0.4,0,0.9,0.1,1.3,0.1
					c0.5,0,0.9,0,1.4,0c0.3,0,0.6,0,0.9,0c0.2,0,0.4,0,0.6,0c0.3,0,0.7,0,1,0c0.4,0,0.8,0,1.3-0.1l0,0c0.4,0,0.8-0.1,1.2-0.1
					c0.1,0,0.1,0,0.2,0c0.4,0,0.8-0.1,1.2-0.1l0,0c0.4-0.1,0.8-0.1,1.3-0.2c0.8-0.1,1.7-0.3,2.5-0.5c0.4-0.1,0.8-0.2,1.2-0.3l0,0
					c0.4-0.1,0.7-0.2,1.1-0.3c0.1,0,0.2-0.1,0.3-0.1c0.2-0.1,0.5-0.1,0.7-0.2c0.2-0.1,0.4-0.1,0.5-0.2c0.3-0.1,0.7-0.2,1-0.3
					c0.4-0.1,0.8-0.3,1.2-0.4l0,0c0.3-0.1,0.7-0.3,1-0.4c0.1-0.1,0.3-0.1,0.4-0.2c0.4-0.2,0.8-0.4,1.3-0.5c0.2-0.1,0.5-0.2,0.7-0.3
					c0.1-0.1,0.3-0.1,0.4-0.2c0.1-0.1,0.3,0,0.3,0.2l-0.5,3.1C207.4,189.8,206,192,204.1,193.4"/>
				<path class="st4" d="M163.8,184.9c-0.1,0.9-1,1.5-1.8,1.4c-0.9-0.1-1.5-1-1.4-1.8c0.1-0.9,1-1.5,1.8-1.3
					C163.3,183.2,163.9,184,163.8,184.9z"/>
				<path class="st4" d="M201.3,191.4c-0.1,0.9-1,1.5-1.8,1.3c-0.9-0.1-1.5-1-1.3-1.8c0.1-0.9,1-1.5,1.8-1.4
					C200.8,189.7,201.4,190.5,201.3,191.4z"/>
				<path class="st4" d="M181.9,192c-0.1,0.9-1,1.5-1.8,1.4c-0.9-0.1-1.5-1-1.3-1.8c0.1-0.9,1-1.5,1.8-1.3
					C181.5,190.3,182.1,191.1,181.9,192z"/>
				<path class="st9" d="M144.5,153.8L144.5,153.8L144.5,153.8C144.5,153.8,144.5,153.8,144.5,153.8 M143.9,151L143.9,151
					c0,0.1,0,0.1,0,0.2c0,0,0,0,0,0C143.9,151.1,143.9,151.1,143.9,151 M143.5,147.4c0,0.1,0,0.1,0,0.2c0,0.3,0.1,0.5,0.1,0.8
					c0,0,0,0,0,0.1C143.5,148.1,143.5,147.8,143.5,147.4 M143.4,146.6L143.4,146.6c0,0.1,0,0.1,0,0.2
					C143.4,146.7,143.4,146.7,143.4,146.6 M143.3,144.2c0,0.2,0,0.3,0,0.5C143.3,144.5,143.3,144.4,143.3,144.2 M143.3,144.2
					C143.3,144.2,143.3,144.2,143.3,144.2C143.3,144.2,143.3,144.2,143.3,144.2 M232.7,135.7c0,0.1,0,0.1,0,0.2
					C232.7,135.8,232.7,135.7,232.7,135.7 M232.6,135c0,0.1,0,0.2,0.1,0.4C232.6,135.2,232.6,135.1,232.6,135 M232.1,132.9
					c0.1,0.4,0.2,0.8,0.3,1.2C232.3,133.7,232.2,133.3,232.1,132.9 M144.9,131.6c0,0.1-0.1,0.2-0.1,0.3c0,0,0,0,0,0
					C144.8,131.8,144.9,131.7,144.9,131.6 M231.6,131.1c0,0.2,0.1,0.3,0.1,0.5c0,0,0-0.1,0-0.1C231.7,131.3,231.7,131.2,231.6,131.1
					 M231.3,130c0,0.1,0.1,0.2,0.1,0.3C231.4,130.2,231.3,130.1,231.3,130 M145.5,129.6c-0.1,0.3-0.2,0.5-0.2,0.8
					C145.3,130.1,145.4,129.8,145.5,129.6 M146.5,126.8C146.5,126.8,146.5,126.8,146.5,126.8L146.5,126.8
					C146.5,126.8,146.5,126.8,146.5,126.8 M230.1,126.6c0.1,0.3,0.2,0.5,0.3,0.8C230.3,127.1,230.2,126.8,230.1,126.6 M147,125.5
					c0,0,0,0.1-0.1,0.1C147,125.6,147,125.6,147,125.5 M148.2,123.1c0,0.1-0.1,0.2-0.1,0.3c-0.2,0.3-0.3,0.6-0.4,0.9
					c0,0.1-0.1,0.2-0.1,0.3C147.7,124.1,147.9,123.6,148.2,123.1 M210.6,121.7c4.9,5.2,8.1,12,8.5,19.5c0.2,2,0.1,4.1-0.1,6.1
					c-1.2,9.4-6.9,17.8-15,22.5c-0.2,0.1-1,0.4-2,0.8c-1.5,0.7-3,1.3-4.6,1.8l-2.3,4.5l-2.3,4.5l-0.8-1.2l-4.4-6.3
					c0,0-0.5-0.1-1.3-0.3c-0.8-0.1-1.6-0.1-2.4-0.3c-11.1-1.7-20-9.2-23.9-19c-2-4.9-2.7-10.5-1.9-16.1c0.1-1,0.3-1.9,0.6-2.9
					c0.2-0.9,0.5-1.8,0.8-2.6c-6.9,6.3-11.7,14-14.4,22.4c0,0.2,0.1,0.3,0.1,0.5c0.2,0.6,0.4,1.2,0.5,1.8c0.1,0.3,0.2,0.6,0.3,0.9
					c0.1,0.3,0.2,0.6,0.3,0.9c0.1,0.3,0.2,0.6,0.3,0.9c0.1,0.3,0.2,0.5,0.3,0.8c0,0.1,0.1,0.2,0.1,0.2c0.1,0.3,0.2,0.5,0.3,0.7
					c0.1,0.3,0.3,0.6,0.4,0.9c0.1,0.3,0.3,0.6,0.4,0.9c0.1,0.2,0.2,0.4,0.3,0.6c0.4,0.8,0.9,1.7,1.4,2.5c0.3,0.4,0.5,0.8,0.8,1.2
					c0.1,0.2,0.3,0.4,0.4,0.6c0.2,0.3,0.4,0.5,0.6,0.8c0.2,0.3,0.4,0.5,0.6,0.8c0.2,0.3,0.4,0.5,0.6,0.8c0.2,0.3,0.4,0.5,0.6,0.8v0
					c0.3,0.3,0.6,0.7,0.9,1c0.3,0.3,0.6,0.7,0.9,1v0c0.3,0.3,0.6,0.6,0.9,1c0.3,0.3,0.6,0.6,0.9,0.9c0.2,0.2,0.4,0.4,0.5,0.5l0,0
					c0.1,0.1,0.3,0.3,0.4,0.4c0,0,0,0,0,0c0,0,0.1,0.1,0.1,0.1c0.2,0.2,0.4,0.4,0.6,0.5c0.1,0.1,0.2,0.2,0.3,0.3
					c0.1,0.1,0.2,0.2,0.3,0.3l0.1,0c0.1,0.1,0.3,0.2,0.4,0.3c0,0,0,0,0.1,0c0.1,0,0.1,0.1,0.2,0.1c0,0,0.1,0.1,0.1,0.1
					c0.2,0.1,0.4,0.3,0.5,0.4l0.1,0c0.1,0,0.1,0.1,0.1,0.1c0,0,0.1,0.1,0.1,0.1c0,0,0.1,0.1,0.1,0.1c0,0,0.1,0.1,0.1,0.1
					c0,0,0.1,0,0.1,0.1c0.3,0.2,0.7,0.5,1,0.7c0,0,0.1,0.1,0.1,0.1c0.2,0.1,0.4,0.3,0.5,0.4l0,0l0,0c0.1,0.1,0.3,0.2,0.4,0.3
					c0,0,0.1,0.1,0.1,0.1c0,0,0,0,0,0c0,0,0.1,0.1,0.1,0.1c0,0,0.1,0.1,0.1,0.1c0.1,0,0.1,0.1,0.2,0.1l0,0c0.1,0,0.1,0.1,0.2,0.1
					c0.1,0.1,0.3,0.2,0.4,0.3c0.1,0.1,0.2,0.1,0.4,0.2c0.4,0.3,0.8,0.5,1.3,0.7c0,0,0,0,0.1,0c0.2,0.1,0.4,0.2,0.7,0.4
					c0,0,0.1,0,0.1,0.1c0,0,0.1,0.1,0.1,0.1l0,0c0.2,0.1,0.4,0.2,0.6,0.3c0,0,0,0,0.1,0c0,0,0.1,0,0.1,0.1c0.1,0,0.1,0.1,0.2,0.1
					c0.1,0,0.2,0.1,0.3,0.1c0,0,0.1,0,0.1,0.1c0,0,0.1,0,0.1,0.1c0,0,0,0,0.1,0c0.1,0.1,0.2,0.1,0.3,0.2c0.2,0.1,0.3,0.2,0.5,0.2
					c0.3,0.1,0.6,0.3,0.9,0.4c0.4,0.2,0.8,0.3,1.1,0.5l0,0c0.2,0.1,0.3,0.1,0.5,0.2c0.2,0.1,0.3,0.1,0.5,0.2c0.1,0,0.3,0.1,0.4,0.1
					c0.4,0.2,0.9,0.3,1.3,0.4c0.2,0.1,0.5,0.2,0.7,0.2c0.2,0,0.3,0.1,0.5,0.1c1.6,0.5,3.2,0.8,4.8,1.1c0.1,0,0.1,0,0.2,0
					c0,0,0.1,0,0.1,0c0.3,0,0.5,0.1,0.8,0.1c0,0,0,0,0,0l0,0c0.3,0.1,0.7,0.1,1,0.1c0.1,0,0.2,0,0.3,0c0.1,0,0.1,0,0.2,0
					c1.8,0.2,3.5,0.3,5.3,0.3c4.1,0,8.2-0.6,12.2-1.7c0,0,0,0,0,0c0,0,0,0,0,0c0.3-0.1,0.6-0.2,0.8-0.2c0.1,0,0.1,0,0.2-0.1
					c0.2-0.1,0.4-0.1,0.5-0.2c0.3-0.1,0.7-0.2,1-0.3c0.4-0.1,0.8-0.3,1.2-0.4l0,0c0.3-0.1,0.7-0.3,1-0.4c0.1-0.1,0.3-0.1,0.4-0.2
					c0.4-0.2,0.8-0.4,1.3-0.5c0.2-0.1,0.5-0.2,0.7-0.3c0.1-0.1,0.3-0.1,0.4-0.2c0,0,0,0,0,0c3-1.5,5.8-3.3,8.5-5.4
					c5.9-4.8,10.3-10.7,13.1-17.3c1-2.4,1.8-4.9,2.4-7.4c1.4-5.9,1.6-12,0.6-18C226.5,129.1,218.8,124.4,210.6,121.7 M226.7,119.9
					c0,0.1,0.1,0.1,0.1,0.2c0,0,0,0,0-0.1C226.7,120,226.7,119.9,226.7,119.9 M151,118.2c-0.2,0.3-0.4,0.5-0.5,0.8
					c-0.5,0.8-1,1.7-1.5,2.5C149.6,120.4,150.3,119.3,151,118.2 M225.3,117.8c0.2,0.3,0.4,0.6,0.6,0.9c-0.1-0.1-0.1-0.2-0.2-0.3
					C225.6,118.2,225.5,118,225.3,117.8 M155.5,112.6c-0.1,0.1-0.2,0.2-0.3,0.3c-0.1,0.1-0.1,0.1-0.2,0.2
					C155.2,113,155.4,112.8,155.5,112.6 M166.5,104.1c-0.6,0.3-1.1,0.6-1.7,1c0,0,0,0,0,0C165.4,104.7,165.9,104.4,166.5,104.1
					 M174,100.8C174,100.8,174,100.8,174,100.8C174,100.8,174,100.8,174,100.8 M174.7,100.6c-0.2,0.1-0.4,0.1-0.6,0.2
					C174.2,100.7,174.4,100.6,174.7,100.6 M181.8,98.9c-0.1,0-0.2,0-0.2,0c-0.4,0.1-0.8,0.1-1.2,0.2C180.8,99.1,181.3,99,181.8,98.9
					 M184.2,98.6c-0.5,0-1,0.1-1.5,0.2C183.2,98.7,183.7,98.7,184.2,98.6 M185.2,98.6C185.2,98.6,185.2,98.6,185.2,98.6
					C185.2,98.6,185.2,98.6,185.2,98.6 M188.3,98.5c-1,0-2,0-3,0.1C186.3,98.5,187.3,98.5,188.3,98.5c13.1,0,26.2,5.7,35.1,16.8
					c0.5,0.6,1,1.2,1.4,1.9c-0.1-0.1-0.1-0.2-0.2-0.3c-0.2-0.3-0.4-0.5-0.6-0.8c-0.2-0.3-0.4-0.5-0.6-0.8
					C214.5,104.2,201.4,98.4,188.3,98.5"/>
				<path class="st10" d="M201.9,170.6c-2,0.7-4.6,1.7-4.6,1.7l-4.7,9l-0.8-1.1l0.8,1.2l2.3-4.5l2.3-4.5
					C198.9,171.9,200.4,171.3,201.9,170.6 M209.9,121.5c5.3,5.2,8.6,12.3,9.2,19.7c-0.4-7.4-3.5-14.3-8.5-19.5
					C210.4,121.7,210.1,121.6,209.9,121.5 M188.6,147.3l-12-1.8c0-0.1,0-0.2,0-0.3c0.5-3.3,3.2-5.7,6.2-5.7c0.3,0,0.6,0,0.9,0.1
					c3.3,0.5,5.6,3.9,5,7.5C188.7,147.1,188.6,147.2,188.6,147.3 M192.4,136.8c-0.3,0-0.5,0-0.8-0.1c-0.9-0.3-1.5-1.2-1.6-2.1
					c0-1.4,1.1-2.5,2.4-2.5c0.4,0,0.7,0.1,1.1,0.3c0.6,0.3,1.1,1,1.2,1.7C195,135.5,193.8,136.8,192.4,136.8 M176.6,134.4
					c-1.8,0-3-1.8-2.1-3.5c0.3-0.6,1-1.1,1.7-1.2c0.1,0,0.3,0,0.4,0c1.6,0,2.8,1.6,2.2,3.2C178.5,133.7,177.7,134.3,176.6,134.4
					C176.7,134.4,176.7,134.4,176.6,134.4 M194.4,119.2c-11.5,0-23.1,3.8-32.8,11.6c-0.8,0.7-1.6,1.4-2.4,2.1
					c-0.3,0.9-0.6,1.7-0.8,2.6c-0.2,0.9-0.4,1.9-0.6,2.9c-0.9,5.6-0.1,11.2,1.9,16.1c3.9,9.8,12.8,17.2,23.9,19
					c0.8,0.1,1.6,0.2,2.4,0.3c-2.6-0.5-8.5-1.9-10.3-3.4c0.7,0,1.4,0.1,2.2,0.1c11.5,0,22.9-6.2,29-16c6.1-9.9,6.6-22.9,1.4-33.3
					C203.9,119.8,199.2,119.2,194.4,119.2"/>
				<path class="st11" d="M208.4,121.1c5.2,10.3,4.7,23.4-1.4,33.3c-6.1,9.8-17.5,16-29,16c-0.7,0-1.4,0-2.2-0.1
					c1.8,1.5,7.7,2.8,10.3,3.4c0.8,0.2,1.3,0.3,1.3,0.3l4.4,6.3l0.8,1.1l4.7-9c0,0,2.6-1,4.6-1.7c1-0.4,1.8-0.7,2-0.8
					c8.2-4.7,13.8-13.1,15-22.5c0.3-2,0.3-4.1,0.1-6.1c-0.6-7.4-3.8-14.5-9.2-19.7C209.4,121.4,208.9,121.2,208.4,121.1"/>
				<path class="st12" d="M182.8,139.5c-3,0-5.6,2.4-6.2,5.7c0,0.1,0,0.2,0,0.3l12,1.8c0-0.1,0-0.2,0.1-0.2c0.6-3.6-1.7-7-5-7.5
					C183.4,139.6,183.1,139.5,182.8,139.5"/>
				<path class="st12" d="M192.4,132c-1.3,0-2.4,1.1-2.4,2.5c0,0.9,0.7,1.8,1.6,2.1c0.3,0.1,0.5,0.1,0.8,0.1c1.4,0,2.6-1.2,2.3-2.8
					c-0.1-0.7-0.6-1.3-1.2-1.7C193.1,132.1,192.8,132,192.4,132"/>
				<path class="st12" d="M176.6,129.6c-0.1,0-0.3,0-0.4,0c-0.7,0.1-1.3,0.6-1.7,1.2c-0.8,1.7,0.4,3.5,2.1,3.5c0,0,0.1,0,0.1,0
					c0.9,0,1.8-0.7,2.1-1.6C179.4,131.2,178.3,129.6,176.6,129.6"/>
				<path class="st13" d="M188.3,98.5c-1,0-2,0-3,0.1c0,0,0,0,0,0c0,0,0,0,0,0c-0.3,0-0.6,0-0.9,0.1c0,0-0.1,0-0.1,0
					c-0.5,0-1,0.1-1.5,0.2c-0.1,0-0.2,0-0.2,0c-0.2,0-0.5,0.1-0.7,0.1c-0.5,0.1-0.9,0.1-1.4,0.2c-0.2,0-0.4,0.1-0.6,0.1
					c-1.2,0.2-2.4,0.5-3.6,0.9c-0.5,0.1-1,0.3-1.4,0.4c-0.2,0.1-0.4,0.1-0.6,0.2c0,0,0,0,0,0c0,0,0,0-0.1,0
					c-0.5,0.2-0.9,0.3-1.4,0.5c-0.6,0.2-1.2,0.5-1.8,0.7c-0.3,0.1-0.6,0.3-0.9,0.4c-0.3,0.1-0.6,0.3-0.8,0.4
					c-0.3,0.1-0.6,0.3-0.9,0.4c-0.6,0.3-1.1,0.6-1.7,0.9c0,0,0,0,0,0c-0.6,0.3-1.1,0.6-1.7,1c-0.5,0.3-1.1,0.7-1.6,1
					c-0.3,0.2-0.5,0.4-0.8,0.6c-0.3,0.2-0.5,0.4-0.8,0.6c-0.5,0.4-1.1,0.8-1.6,1.2c-0.7,0.6-1.4,1.1-2,1.7c-0.7,0.6-1.3,1.2-1.9,1.8
					c-0.2,0.2-0.4,0.4-0.6,0.7c-0.1,0.2-0.3,0.3-0.4,0.5c-0.5,0.6-1,1.2-1.5,1.8c-0.3,0.3-0.5,0.7-0.8,1c-0.2,0.3-0.4,0.5-0.6,0.8
					c-0.2,0.3-0.4,0.5-0.6,0.8c-0.2,0.2-0.3,0.5-0.5,0.7c0,0,0,0,0,0.1c-0.7,1.1-1.4,2.2-2.1,3.3c-0.3,0.5-0.6,1-0.8,1.6
					c-0.3,0.5-0.5,1-0.7,1.5c0,0.1-0.1,0.2-0.1,0.3c-0.1,0.1-0.1,0.3-0.2,0.4c0,0.1-0.1,0.2-0.1,0.3c0,0,0,0.1-0.1,0.1
					c0,0.1-0.1,0.1-0.1,0.2c-0.1,0.3-0.2,0.6-0.4,0.9c0,0,0,0,0,0v0c-0.1,0.3-0.2,0.6-0.3,0.9c-0.1,0.2-0.2,0.5-0.3,0.7
					c0,0.1-0.1,0.2-0.1,0.3c-0.1,0.2-0.2,0.5-0.2,0.7c0,0.1,0,0.1-0.1,0.2c-0.1,0.3-0.2,0.5-0.2,0.8c0,0,0,0,0,0v0
					c-0.1,0.3-0.2,0.6-0.2,0.8c0,0.1-0.1,0.3-0.1,0.4c0,0.1-0.1,0.2-0.1,0.3c0,0.1,0,0.1,0,0.2c-0.1,0.5-0.3,1-0.4,1.5
					c-0.1,0.3-0.1,0.6-0.2,0.8v0c-0.1,0.3-0.1,0.6-0.2,0.8c-0.1,0.6-0.2,1.1-0.3,1.7c0,0.3-0.1,0.6-0.1,0.8c-0.1,0.5-0.1,1-0.2,1.6
					c0,0.1,0,0.2,0,0.2c-0.1,0.8-0.1,1.6-0.1,2.4c0,0.3,0,0.6,0,0.9c0,0.4,0,0.8,0,1.2c0,0,0,0,0,0c0,0,0,0,0,0c0,0.2,0,0.3,0,0.5
					c0,0.2,0,0.4,0,0.5c0,0.5,0,0.9,0.1,1.4l0,0c0,0.1,0,0.1,0,0.2c0,0,0,0,0,0c0,0.2,0,0.4,0.1,0.6c0,0.3,0.1,0.7,0.1,1
					c0,0.1,0,0.2,0,0.3c0,0.2,0,0.3,0.1,0.5l0,0.1c0,0.3,0.1,0.6,0.1,0.9c0,0.2,0.1,0.4,0.1,0.7l0,0.1c0,0.1,0,0.1,0,0.2
					c0,0,0,0.1,0,0.1c0.1,0.6,0.2,1.1,0.3,1.7c0,0.1,0,0.1,0,0.2c0,0.2,0.1,0.4,0.1,0.6v0c0,0,0,0,0,0l0,0.1
					c0.1,0.3,0.1,0.6,0.2,0.9c0,0.1,0,0.1,0,0.2l0,0c0,0.1,0,0.1,0.1,0.2v0c0,0,0,0,0,0c2.7-8.3,7.6-16.1,14.4-22.4
					c0.7-2,1.6-3.9,2.7-5.7c4.1-6.7,10.8-11.7,18.3-13.8l0,0c0.2-0.1,0.4-0.1,0.5-0.1c0.1,0,0.1,0,0.2,0c0.1,0,0.3-0.1,0.4-0.1
					c0.3-0.1,0.5-0.1,0.8-0.2c2-0.4,4-0.6,6.1-0.6c1.6,0,3.1,0.1,4.7,0.4c7,1.1,13,4.4,17.6,9.2c8.2,2.7,15.9,7.4,22.1,14.1
					c0,0,0,0,0,0c0,0,0,0,0,0c0-0.1,0-0.1,0-0.2c0-0.1,0-0.1,0-0.2c0,0,0-0.1,0-0.1c0-0.1,0-0.2-0.1-0.4c0,0,0-0.1,0-0.1
					c0-0.1-0.1-0.3-0.1-0.4c0-0.1-0.1-0.3-0.1-0.4c-0.1-0.4-0.2-0.8-0.3-1.2c0-0.1-0.1-0.3-0.1-0.4c0-0.1,0-0.2-0.1-0.3
					c-0.1-0.2-0.1-0.4-0.2-0.6c0,0,0,0,0,0c0-0.2-0.1-0.3-0.1-0.5c0,0,0,0,0-0.1c-0.1-0.2-0.1-0.4-0.2-0.6c0,0,0-0.1,0-0.1
					c0-0.1-0.1-0.2-0.1-0.3c0-0.1-0.1-0.2-0.1-0.3c-0.1-0.2-0.1-0.4-0.2-0.6c-0.1-0.2-0.1-0.3-0.2-0.5c-0.1-0.3-0.2-0.6-0.3-0.9
					c0-0.1-0.1-0.2-0.1-0.3c-0.1-0.3-0.2-0.5-0.3-0.8c-0.1-0.1-0.1-0.3-0.2-0.4c-0.1-0.1-0.1-0.3-0.2-0.4c-0.2-0.4-0.4-0.9-0.6-1.3
					c-0.1-0.2-0.2-0.4-0.3-0.6c-0.1-0.2-0.2-0.4-0.3-0.6c-0.1-0.2-0.2-0.4-0.3-0.7c-0.1-0.3-0.3-0.6-0.5-0.8
					c-0.2-0.3-0.3-0.6-0.5-0.8c-0.1-0.3-0.3-0.5-0.4-0.8c0-0.1-0.1-0.1-0.1-0.2c-0.2-0.2-0.3-0.5-0.5-0.7c-0.1-0.1-0.2-0.3-0.3-0.4
					c-0.2-0.3-0.4-0.6-0.6-0.9c-0.1-0.1-0.2-0.3-0.3-0.4c-0.1-0.1-0.2-0.2-0.2-0.3c-0.5-0.6-0.9-1.3-1.4-1.9
					C214.5,104.2,201.4,98.5,188.3,98.5"/>
				<path class="st14" d="M188.4,112.2c-2,0-4.1,0.2-6.1,0.6c-0.3,0.1-0.5,0.1-0.8,0.2c-0.1,0-0.3,0.1-0.4,0.1c-0.1,0-0.1,0-0.2,0
					c-0.2,0-0.4,0.1-0.5,0.1l0,0c-7.6,2.1-14.3,7.1-18.3,13.8c-1.1,1.8-2,3.7-2.7,5.7c0.8-0.7,1.6-1.4,2.4-2.1
					c9.7-7.8,21.2-11.6,32.8-11.6c4.7,0,9.4,0.6,14,1.9c-0.3-0.5-0.5-1-0.8-1.5c-0.1-0.1-0.1-0.1-0.2-0.2l0.1-0.1
					c0,0.1,0.1,0.1,0.1,0.2c0.5,0.4,1,0.8,1.5,1.2c0.3,0.2,0.5,0.5,0.8,0.7c0.2,0.1,0.5,0.1,0.7,0.2c-4.5-4.7-10.6-8.1-17.6-9.2
					C191.5,112.4,189.9,112.2,188.4,112.2"/>
				<path class="st15" d="M207.6,119.6c0.3,0.5,0.6,1,0.8,1.5c0.5,0.1,1,0.3,1.5,0.4c-0.3-0.2-0.5-0.5-0.8-0.7
					C208.6,120.3,208.1,120,207.6,119.6 M207.5,119.3L207.5,119.3c0,0.1,0.1,0.2,0.1,0.2C207.5,119.5,207.5,119.4,207.5,119.3"/>
				<path class="st3" d="M182.5,188.1c0.2,0,0.3,0,0.5,0.1c-0.1,0-0.1,0-0.2,0C182.7,188.2,182.6,188.1,182.5,188.1 M181.5,188
					C181.5,188,181.5,188,181.5,188L181.5,188C181.5,188,181.5,188,181.5,188 M180.3,187.8c0.1,0,0.2,0,0.3,0.1c0,0-0.1,0-0.1,0
					C180.5,187.8,180.4,187.8,180.3,187.8 M200.5,186.8C200.5,186.8,200.5,186.8,200.5,186.8C200.5,186.8,200.5,186.8,200.5,186.8
					C200.5,186.8,200.5,186.8,200.5,186.8 M172.2,185.5c0.2,0.1,0.3,0.1,0.5,0.2c0,0,0,0,0,0C172.5,185.6,172.3,185.6,172.2,185.5
					 M208.1,184C208,184,208,184,208.1,184c-0.2,0.1-0.3,0.2-0.5,0.2c-0.2,0.1-0.5,0.2-0.7,0.3c-0.4,0.2-0.8,0.4-1.3,0.5
					c-0.1,0.1-0.3,0.1-0.4,0.2c-0.3,0.1-0.7,0.3-1,0.4l0,0c-0.4,0.1-0.8,0.3-1.2,0.4c-0.3,0.1-0.7,0.2-1,0.3
					c-0.2,0.1-0.4,0.1-0.5,0.2c-0.1,0-0.1,0-0.2,0.1C203.6,185.9,205.9,185,208.1,184 M168.5,183.9c0.1,0,0.1,0.1,0.2,0.1
					c0,0,0,0-0.1,0C168.6,184,168.5,183.9,168.5,183.9 M167.7,183.5c0.1,0,0.1,0.1,0.2,0.1C167.9,183.6,167.8,183.6,167.7,183.5
					C167.8,183.6,167.8,183.6,167.7,183.5 M166.9,183.1c0.1,0,0.2,0.1,0.2,0.1l0,0C167.1,183.2,167,183.2,166.9,183.1
					C166.9,183.1,166.9,183.1,166.9,183.1 M164.9,181.9c0.4,0.2,0.7,0.4,1.1,0.7c0.1,0,0.1,0.1,0.2,0.1c0,0,0,0-0.1,0
					C165.7,182.4,165.3,182.2,164.9,181.9 M163.6,181.1c0.1,0.1,0.2,0.1,0.2,0.2c0.2,0.1,0.4,0.3,0.7,0.4c-0.1-0.1-0.3-0.2-0.4-0.3
					c-0.1,0-0.1-0.1-0.2-0.1l0,0c0,0-0.1-0.1-0.2-0.1C163.7,181.2,163.7,181.2,163.6,181.1 M163.5,181
					C163.5,181,163.5,181,163.5,181C163.5,181,163.5,181,163.5,181 M161.2,179.5c0.1,0.1,0.3,0.2,0.4,0.3c0,0,0.1,0.1,0.2,0.1
					c0.3,0.2,0.6,0.5,1,0.7l0,0c0.2,0.1,0.4,0.2,0.5,0.4c-0.1-0.1-0.3-0.2-0.4-0.3l0,0l0,0c-0.2-0.1-0.4-0.2-0.5-0.4
					c0,0-0.1-0.1-0.1-0.1C161.9,179.9,161.6,179.7,161.2,179.5 M159.9,178.4c0.3,0.2,0.6,0.4,0.8,0.7l0,0c0.1,0.1,0.3,0.2,0.4,0.3
					c0,0-0.1-0.1-0.1-0.1c0,0-0.1-0.1-0.1-0.1c0,0-0.1-0.1-0.1-0.1c0,0-0.1-0.1-0.1-0.1l-0.1,0c-0.2-0.1-0.4-0.3-0.5-0.4
					C160,178.5,159.9,178.4,159.9,178.4 M158,176.8c0.2,0.1,0.3,0.3,0.5,0.4c0.2,0.1,0.3,0.3,0.5,0.4c0.2,0.2,0.5,0.4,0.7,0.6
					c-0.1-0.1-0.3-0.2-0.4-0.3l-0.1,0c-0.1-0.1-0.2-0.2-0.3-0.3c-0.1-0.1-0.2-0.2-0.3-0.3C158.4,177.1,158.2,177,158,176.8
					 M157.4,176.2c0.1,0.1,0.3,0.3,0.4,0.4C157.7,176.5,157.5,176.3,157.4,176.2L157.4,176.2"/>
				<g>
					<path class="st3" d="M97.3,161.8c-0.1,0-0.2,0-0.2,0c0,0-0.1,0-0.1,0c-3.6-0.7-7.1-1-10.3-1c-4.7,0-8.9,0.7-12.8,2.1
						c-2.2,0.8-4.3,1.8-6.2,3.1c-0.6,0.4-1.2,0.9-1.8,1.3c-3.6,2.9-6.1,6.3-7.9,10.1c0,0,0,0,0,0c-2.1,4.5-3.3,9.4-4.5,14.3
						c-0.1,0.3-0.2,0.7-0.2,1c-0.4,1.6-0.7,3.2-1.1,4.8c-0.1,0.6-0.3,1.2-0.5,1.8c-0.7,2.7-1.6,5.4-2.7,8c-0.3,0.7-0.6,1.3-0.9,2
						c-0.5,1-1.1,2-1.7,2.9c-0.5,0.8-1,1.5-1.6,2.2c0,0,0,0,0,0c-0.5,0.6-0.9,1.2-1.5,1.8c-1.6,1.8-3.4,3.4-5.4,4.9
						c-0.4,0.3-0.7,0.6-1.1,0.8c-1.5,1-3,2-4.7,2.9h0c-1,0.5-2,1-3.1,1.5c-2,0.9-4.2,1.8-6.5,2.5h0c-0.3,0.1-0.6,0.2-0.9,0.3
						c-1.8,0.6-3.7,1.1-5.7,1.6c0,0,0,0,0,0c-1.7,0.4-3.5,0.8-5.3,1.2c-2,0.4-4.1,0.7-6.2,1c-0.9,0.1-1.8,0.2-2.8,0.3
						c-1,0.1-2,0.2-3,0.3v7.6c1-0.1,1.9-0.2,2.9-0.3c1-0.1,1.9-0.2,2.8-0.3c1.5-0.2,2.9-0.4,4.3-0.6c1.6-0.3,3.1-0.5,4.7-0.8
						c3.1-0.6,6.1-1.3,8.9-2.2c0.3-0.1,0.6-0.2,0.9-0.3c2-0.6,3.9-1.3,5.7-2h0c0.4-0.2,0.8-0.3,1.2-0.5c1.3-0.5,2.5-1.1,3.6-1.6l0,0
						c2.6-1.3,5-2.7,7.2-4.2v0c0.7-0.5,1.4-1,2.1-1.5c1.1-0.9,2.2-1.8,3.2-2.7c1.4-1.3,2.8-2.7,4-4.2c1-1.2,1.9-2.5,2.7-3.8
						c0.3-0.5,0.7-1,1-1.6c0.8-1.5,1.6-3,2.2-4.5c0.4-1,0.8-1.9,1.2-2.9v0c1-2.8,1.8-5.5,2.4-8.2c0.4-1.6,0.8-3.2,1.1-4.8
						c0.2-1.1,0.5-2.1,0.7-3.1c1.1-4.6,2.3-8.9,4.4-12.4v0c1.5-2.5,3.4-4.7,6-6.5c0.1-0.1,0.2-0.2,0.4-0.2c2.3-1.5,4.9-2.5,7.8-3.1
						c2.7-0.6,5.7-0.7,8.9-0.5c2.1,0.1,4.3,0.4,6.5,0.8c0.1,0,0.3,0.1,0.4,0.1c0.3,0.1,0.6,0.1,1,0.2l1.6-7.5
						C98.1,162,97.7,161.9,97.3,161.8z"/>
				</g>
				<path class="st4" d="M97.1,161.8c-1.3,0.7-2.7,1.6-4,2.8c-1.6,1.3-3,2.6-4,3.9c-3.2-0.2-6.2,0-8.9,0.5c0.5-1,1.1-2,1.8-3.1
					c1.5-2.2,3.1-3.9,4.7-5.2C89.9,160.7,93.4,161.1,97.1,161.8z"/>
				<path class="st4" d="M73.8,162.8c-0.4,1.3-0.8,2.8-1.1,4.4c-0.3,1.7-0.4,3.4-0.4,4.8c-0.1,0.1-0.3,0.2-0.4,0.2
					c-2.6,1.8-4.6,4-6,6.5c-0.2-1-0.4-2-0.6-3.2c-0.4-3-0.2-5.8,0.2-8c0.1-0.1,0.2-0.3,0.3-0.4c0.6-0.4,1.2-0.9,1.8-1.3
					C69.6,164.7,71.6,163.6,73.8,162.8z"/>
				<path class="st4" d="M61.5,191.2c-0.2,1-0.5,2.1-0.7,3.1c-0.4,1.5-0.7,3.1-1.1,4.8c-1.5-1.2-3.3-3-4.7-5.1
					c-0.5-0.9-1-1.7-1.4-2.4c1.1-4.9,2.3-9.8,4.5-14.3c-0.2,2.6-0.1,6.4,1.6,10.5C60.2,189.1,60.8,190.2,61.5,191.2z"/>
				<path class="st4" d="M56,210.2c-0.7,1.5-1.4,3-2.2,4.5c-0.3,0.5-0.6,1.1-1,1.6c-0.8,1.3-1.7,2.6-2.7,3.8c-0.6-1.7-1.2-3.7-1.6-6
					c-0.3-1.7-0.4-3.3-0.5-4.8c0.3-0.7,0.6-1.3,0.9-2c1.1-2.6,2-5.3,2.7-8c0.3,1.6,0.8,3.3,1.4,5.2C54,206.7,55,208.6,56,210.2z"/>
				<path class="st4" d="M43.3,222.1c-0.1,1.7-0.2,3.3-0.4,4.8c-0.7,0.5-1.4,1-2.1,1.5v0c-2.2,1.5-4.6,2.9-7.2,4.2
					c0.8-2.1,1.6-4.3,2.2-6.7c0.4-1.4,0.7-2.7,1-4c0.4-0.3,0.8-0.5,1.1-0.8c2-1.5,3.8-3.1,5.4-4.9C43.4,218,43.4,220,43.3,222.1z"/>
				<path class="st4" d="M29,226.3c-0.6,1.5-1.3,3.2-2.3,5c-1.2,2.1-2.5,3.9-3.7,5.4c-0.3,0.1-0.6,0.2-0.9,0.3
					c-2.8,0.8-5.7,1.5-8.9,2.2c2.3-2.2,4.7-4.8,7-8c0.5-0.7,1-1.4,1.4-2c0.3-0.1,0.6-0.2,0.9-0.3h0C24.9,228.1,27,227.2,29,226.3z"
					/>
				<path class="st4" d="M4.3,232.9c-0.9,0.1-1.8,0.2-2.8,0.3c-0.8,1-1.6,1.9-2.5,2.9c-0.2,0.2-0.3,0.3-0.5,0.5v4.6
					c1-0.1,1.9-0.2,2.9-0.3c1-0.1,1.9-0.2,2.8-0.3c1.2-1.2,2.4-2.6,3.5-4.2c1.1-1.6,2-3.1,2.7-4.5C8.5,232.3,6.5,232.6,4.3,232.9z"
					/>
				<path class="st3" d="M109.5,160.8l-2.5,13.8c-0.1,0.6-0.7,1-1.3,0.9l-0.7-0.1c-0.6-0.1-1-0.7-0.9-1.3l-4.6-0.8
					c-2.3-0.4-3.8-2.6-3.4-5l1-5.4c0.4-2.3,2.6-3.8,5-3.4l4.6,0.8c0.1-0.6,0.7-1,1.3-0.9l0.7,0.1
					C109.2,159.5,109.6,160.1,109.5,160.8z"/>
				<path class="st4" d="M109.5,160.8l-2.5,13.8c-0.1,0.6-0.7,1-1.3,0.9l-0.7-0.1c-0.6-0.1-1-0.7-0.9-1.3l2.5-13.8
					c0.1-0.6,0.7-1,1.3-0.9l0.7,0.1C109.2,159.5,109.6,160.1,109.5,160.8z"/>
			</g>
		</g>
	</g>
</g>
</svg>
