<svg id="Layer_1" data-name="Layer 1" xmlns="http://www.w3.org/2000/svg" viewBox="0 0 400 350"><defs><style>.cls-1{fill:#e5f8fa;}.cls-2{fill:#f5fbfe;}.cls-3{opacity:0.7;}.cls-4{fill:#f8f1a9;}.cls-5{opacity:0.4;}.cls-6{fill:#99bbc5;}.cls-7{fill:#bcd3d8;}.cls-8{fill:#ffa575;}.cls-9{fill:#eff2ec;}.cls-10{fill:#e5f9f8;}.cls-11{fill:#00566f;}.cls-12{fill:#ffcbb0;}.cls-13{fill:#4ccee0;}.cls-14{fill:#fefdf2;}.cls-15{fill:#4c889a;}.cls-16{fill:#fff;}</style></defs><title>delegationAddFamily</title><path class="cls-1" d="M23.41,301.91c-11.58-13.43-19.33-31-21.46-53.1-3.63-37.64,9.84-75.53,31.45-106.57s50.91-55.92,81.54-78.1c33.48-24.23,70.64-46.25,111.81-50,64.92-5.89,128.15,37.76,156.4,96.51,16.17,33.63,22.51,76.2,5.09,110.65-21.42,42.34-68.47,58.55-110.44,72.94-48.64,16.68-97.23,35.42-148.34,41.07C88.28,339.87,47.53,329.89,23.41,301.91Z"/><path class="cls-2" d="M356.95,97.1l8.84,169.77a4.66,4.66,0,0,1-4.42,4.9L78.88,286.48a4.66,4.66,0,0,1-4.9-4.42L65.14,112.3a4.67,4.67,0,0,1,4.42-4.9L352,92.68A4.67,4.67,0,0,1,356.95,97.1Z"/><g class="cls-3"><path class="cls-4" d="M150.36,196.48a.89.89,0,0,1-.88-.84l-1.21-20.92a.89.89,0,0,1,.83-.94l30-1.74a.87.87,0,0,1,.94.84l1.21,20.94a.89.89,0,0,1-.84.94l-30,1.72Zm-.27-21,1.1,19.15L179.45,193l-1.1-19.17Z"/><path class="cls-4" d="M150.36,196.48a.89.89,0,0,1-.88-.84l-1.21-20.92a.89.89,0,0,1,.83-.94l30-1.74a.87.87,0,0,1,.94.84l1.21,20.94a.89.89,0,0,1-.84.94l-30,1.72Zm-.27-21,1.1,19.15L179.45,193l-1.1-19.17Z"/><g class="cls-5"><rect class="cls-6" x="250.87" y="170.54" width="6.92" height="2.95" transform="translate(-9.45 14.87) rotate(-3.29)"/><rect class="cls-6" x="214.03" y="191.16" width="5.69" height="2.95" transform="translate(37 420.2) rotate(-93.29)"/><rect class="cls-6" x="243.97" y="170.94" width="6.92" height="2.95" transform="translate(-9.48 14.47) rotate(-3.29)"/><rect class="cls-6" x="237.06" y="171.33" width="6.92" height="2.95" transform="translate(-9.52 14.08) rotate(-3.29)"/><polygon class="cls-6" points="269.81 197.26 94.53 207.34 94.24 202.53 119.12 201.09 145.67 199.57 169.12 198.22 185.5 197.28 209.6 195.89 215.58 195.56 216.5 195.5 218.52 195.38 238.29 194.24 245.2 193.85 252.1 193.46 252.1 193.44 259 193.05 269.53 192.45 269.81 197.26"/><polygon class="cls-6" points="167.47 169.56 161.64 169.89 159.87 138.96 121.54 141.16 124.75 197.3 145.48 196.09 145.67 199.57 119.12 201.09 115.36 135.63 165.35 132.75 167.47 169.56"/><path class="cls-6" d="M183.86,168.62l-16.4.94-5.82.34-17.62,1,1.46,25.18.2,3.48,23.44-1.35,16.38-.94Zm-15,25.91-5.82.34-12.72.73-1.21-20.92,12.72-.75,5.82-.34,11.48-.66,1.21,20.94Z"/><path class="cls-6" d="M216.69,167.81a4.57,4.57,0,0,0,4.06-2,6.16,6.16,0,0,0,.47-5.45,7.74,7.74,0,0,0-4.39-4.49,8.87,8.87,0,0,0-5.26-.28,10.53,10.53,0,0,0-6.5,4.77c-1.83,3.06-2.17,7.55.09,10.5a1.47,1.47,0,0,0,.57.49c1.2.5,1.95-1.27,2.26-2.11a6.59,6.59,0,0,1,1.22-2.39,3.8,3.8,0,0,1,4.3-.45,23.81,23.81,0,0,0,2.31,1.24A3.58,3.58,0,0,0,216.69,167.81Z"/><path class="cls-6" d="M224.76,152.7c-.42,1.1-1.64,4.34,0,7.59,1.12,2.22,3.23,4.28,5.85,4.31,3.31,0,6.11-3.05,8-5.43,2.52-3.16,4.64-6.76,7.9-9.24,2-1.51,4.16-2,6.5-2.69a1.25,1.25,0,0,0,.88-.57c.19-.44-.17-.91-.52-1.22-.76-.68-3.86-3-11-2.54a23.28,23.28,0,0,0-8.81,1.89C231.14,145.89,226.57,147.95,224.76,152.7Z"/><rect class="cls-6" x="321.59" y="225.97" width="7.03" height="21.23" rx="0.45" ry="0.45" transform="translate(107.55 574.72) rotate(-93.29)"/><rect class="cls-6" x="154.08" y="257.21" width="7.03" height="21.23" rx="0.45" ry="0.45" transform="translate(-100.75 440.53) rotate(-93.29)"/><rect class="cls-6" x="295.1" y="109.54" width="7.03" height="21.23" rx="0.45" ry="0.45" transform="translate(195.79 425.17) rotate(-93.29)"/></g><path class="cls-7" d="M94.52,208.23a.89.89,0,0,1-.88-.84l-.28-4.81a.89.89,0,0,1,.83-.94l157.69-9.06.17,0,17.43-1a.88.88,0,0,1,.94.83l.28,4.81a.89.89,0,0,1-.83.94L94.58,208.23Zm.66-4.86.18,3,173.51-10-.18-3-16.37.94-.17,0Z"/><path class="cls-7" d="M119.12,202a.89.89,0,0,1-.89-.84l-3.76-65.47a.89.89,0,0,1,.83-.94l50-2.88a.9.9,0,0,1,.64.22.88.88,0,0,1,.3.61l2.11,36.81a.89.89,0,0,1-.83.94L145,171.74l1.4,24.29h0l.2,3.48a.89.89,0,0,1-.83.94L119.17,202Zm-2.82-65.52L120,200.16l24.78-1.42L143.14,171A.88.88,0,0,1,144,170l22.56-1.3-2-35Z"/><path class="cls-7" d="M124.75,198.18a.89.89,0,0,1-.89-.84l-3.21-56.14a.89.89,0,0,1,.83-.94l38.33-2.2a.87.87,0,0,1,.94.84l1.77,30.93a.89.89,0,0,1-.83.94l-16.74,1,1.4,24.29a.89.89,0,0,1-.83.94l-20.73,1.21ZM122.47,142l3.11,54.36,19-1.1-1.4-24.3A.88.88,0,0,1,144,170l16.74-1L159,139.9Z"/><path class="cls-7" d="M145.67,200.45a.89.89,0,0,1-.89-.84L143.14,171A.88.88,0,0,1,144,170l39.84-2.29a.83.83,0,0,1,.64.22.88.88,0,0,1,.29.61l1.63,28.66a.89.89,0,0,1-.83.94l-39.82,2.29ZM145,171.74l1.55,26.89,38.05-2.19L183,169.55Zm5.4,24.74a.89.89,0,0,1-.88-.84l-1.21-20.92a.89.89,0,0,1,.83-.94l30-1.74a.88.88,0,0,1,.94.84l1.21,20.94a.89.89,0,0,1-.84.94l-30,1.72Zm-.27-21,1.1,19.15,17.66-1h0l10.6-.61-1.1-19.17Z"/><path class="cls-7" d="M150.36,196.48a.89.89,0,0,1-.88-.84l-1.21-20.92a.89.89,0,0,1,.83-.94l30-1.74a.88.88,0,0,1,.94.84l1.21,20.94a.89.89,0,0,1-.84.94l-30,1.72Zm-.27-21,1.1,19.15L179.45,193l-1.1-19.17Z"/><path class="cls-7" d="M124.75,198.18a.89.89,0,0,1-.89-.84l-3.21-56.14a.89.89,0,0,1,.83-.94l38.33-2.2a.87.87,0,0,1,.94.84l1.77,30.93a.89.89,0,0,1-.83.94l-16.74,1,1.4,24.29a.89.89,0,0,1-.83.94l-20.73,1.21ZM122.47,142l3.11,54.36,19-1.1-1.4-24.3A.88.88,0,0,1,144,170l16.74-1L159,139.9Z"/><path class="cls-7" d="M124.75,198.18a.89.89,0,0,1-.89-.84l-3.21-56.14a.89.89,0,0,1,.83-.94l38.33-2.2a.87.87,0,0,1,.94.84l1.77,30.93a.89.89,0,0,1-.83.94l-16.74,1,1.4,24.29a.89.89,0,0,1-.83.94l-20.73,1.21ZM122.47,142l3.11,54.36,19-1.1-1.4-24.3A.88.88,0,0,1,144,170l16.74-1L159,139.9Z"/><path class="cls-7" d="M150.36,196.48a.89.89,0,0,1-.88-.84l-1.21-20.92a.89.89,0,0,1,.83-.94l30-1.74a.88.88,0,0,1,.94.84l1.21,20.94a.89.89,0,0,1-.84.94l-30,1.72Zm-.27-21,1.1,19.15L179.45,193l-1.1-19.17Z"/><path class="cls-7" d="M252.1,194.35a.89.89,0,0,1-.89-.84l-1.65-28.7a.89.89,0,0,1,.83-.94l6.9-.4a.89.89,0,0,1,.94.84l1.65,28.7a.89.89,0,0,1-.83.94l-6.9.4Zm-.71-28.75,1.55,26.93,5.13-.29-1.55-26.93Z"/><path class="cls-7" d="M209.59,196.79a.89.89,0,0,1-.88-.84l-.33-5.68a.89.89,0,0,1,.83-.94l28.7-1.65a.87.87,0,0,1,.94.84l.33,5.68a.89.89,0,0,1-.83.94l-28.7,1.65Zm.61-5.73.23,3.91,26.93-1.55-.23-3.91Z"/><path class="cls-7" d="M245.19,194.74a.89.89,0,0,1-.88-.84l-1.65-28.7a.89.89,0,0,1,.83-.94l6.9-.4a.87.87,0,0,1,.64.22.88.88,0,0,1,.3.61l1.65,28.7a.89.89,0,0,1-.83.94l-6.9.4ZM244.48,166,246,192.92l5.13-.29-1.55-26.93Z"/><path class="cls-7" d="M238.29,195.14a.89.89,0,0,1-.89-.84l-1.65-28.7a.89.89,0,0,1,.83-.94l6.9-.4a.87.87,0,0,1,.94.84l1.65,28.7a.89.89,0,0,1-.83.94l-6.9.4Zm-.71-28.75,1.55,26.93,5.13-.29-1.55-26.93Z"/><path class="cls-7" d="M218.72,190.44a.9.9,0,0,1-.53-.17,6.85,6.85,0,0,1,.88-11.56l-.14-2.49a.89.89,0,0,1,.83-.94l3.94-.23a.9.9,0,0,1,.64.22.88.88,0,0,1,.3.61l.14,2.49a6.85,6.85,0,0,1,4.36,6h0a6.8,6.8,0,0,1-2.16,5.39.89.89,0,0,1-.55.24l-7.66.44Zm2-13.44.13,2.21a.89.89,0,0,1-.55.87,5.07,5.07,0,0,0-1.33,8.57l7-.4a5,5,0,0,0,1.37-3.77h0a5.08,5.08,0,0,0-3.68-4.59.89.89,0,0,1-.64-.8l-.13-2.21Z"/><path class="cls-7" d="M219.1,177.09a.89.89,0,0,1-.05-1.77l5.5-.32a.9.9,0,0,1,.94.84.89.89,0,0,1-.83.94l-5.5.32Z"/><path class="cls-7" d="M221.85,176.93a.89.89,0,0,1-.89-.84,28.83,28.83,0,0,1,18.6-28.4.89.89,0,0,1,.63,1.66A27,27,0,0,0,222.73,176a.89.89,0,0,1-.84.93Z"/><path class="cls-7" d="M221.87,176.93h0A.89.89,0,0,1,221,176c.18-7.56-2.38-13.7-6.23-14.93-.78-.24-3.48-.92-5.4.67a5.64,5.64,0,0,0-1.77,4.12.91.91,0,0,1-.9.87.89.89,0,0,1-.87-.9,7.31,7.31,0,0,1,2.42-5.46c2.61-2.15,6.06-1.3,7.06-1,4.68,1.49,7.68,8.18,7.47,16.66A.89.89,0,0,1,221.87,176.93Z"/><path class="cls-7" d="M304.39,251.07a1.7,1.7,0,0,1-1.69-1.6l-.31-5.41a1.69,1.69,0,0,1,1.59-1.79l19.58-1.13a1.68,1.68,0,0,1,1.79,1.59l.31,5.41a1.69,1.69,0,0,1-1.6,1.79l-19.58,1.13Zm.08-1.7h0Zm19.11-6.53-19.5,1.2.38,5.24L324,248.17Z"/></g><path class="cls-8" d="M277.32,227.27a35.43,35.43,0,0,1-7.51,7.33,10.76,10.76,0,0,1-4.76,2.27,7.63,7.63,0,0,1-1.58,0c-1.28-.12-2.66-.62-2.84-1.83-.25-1.72,3.74-3.58,4.83-4.51a21.8,21.8,0,0,0,5.48-6.46,4.19,4.19,0,0,0,.2-3.73c-.91-1.69-3.16-2.08-4.84-2.56-2.31-.66-4.65-1.21-7-1.67-4.7-.94-9.48-1.56-14.25-2.08-2-.21-4-.41-6-.51-1.1-.07-2.22-.11-3.32-.11-2.41,0-5.25-.11-7.26,1.49a6.67,6.67,0,0,0-2.2,3.66c-.91,3.57-.14,8.36,1.1,11.82,1.72,4.79,4.7,12.87,3.44,18-1.85,7.84-14.09,12.32-23,12.92-.18,0-.34,0-.5,0l-.57,0c-3.48.14-16,.27-20.85-7.42-4.14-6.57-1.65-17.27,0-24.4,1.1-4.72,2.61-8.78,2.17-11.46a3.63,3.63,0,0,0-1-2,4.49,4.49,0,0,0-2.27-1.1,17.74,17.74,0,0,0-4.28-.46,8.68,8.68,0,0,0-3.94,1.08,10.26,10.26,0,0,0-3,2.61,28.36,28.36,0,0,0-5.11,7.88c-1.37,3.44-2,8.47.5,11.57,1.31,1.7,3.46,2.52,5.54,3a10.06,10.06,0,0,1,3.8,1.37l.27.21a3.08,3.08,0,0,1,1,2.4c-.11.89-.76,1.12-1.53,1.42a8.56,8.56,0,0,1-1.63.46,14.66,14.66,0,0,1-3,.23,20.42,20.42,0,0,1-12.26-4,17.67,17.67,0,0,1-5.86-8.47c-3-9.73,3.9-18.9,6-21.69a37.46,37.46,0,0,1,15.39-11.61l1.17-.51c7.74-3.39,16.65-4.6,20.14-5.2.55-.09,1.14-.14,1.69-.21a57.69,57.69,0,0,1,13.79.28,244.68,244.68,0,0,1,26.11,4.79q9.05,2.16,17.92,5c4.47,1.46,9.25,2.84,13.45,5,3.39,1.7,6.55,4.1,7.77,7.84A11.09,11.09,0,0,1,277.32,227.27Z"/><path class="cls-9" d="M356.79,96.09a4.65,4.65,0,0,0-1-.05L73.29,110.75a4.67,4.67,0,0,0-4.42,4.9l8.84,169.77a4.65,4.65,0,0,0,.16,1A4.66,4.66,0,0,1,74,282.06L65.14,112.3a4.67,4.67,0,0,1,4.42-4.9L352,92.68A4.68,4.68,0,0,1,356.79,96.09Z"/><path class="cls-10" d="M360.68,100.46l8.84,169.77a4.66,4.66,0,0,1-4.42,4.9L82.61,289.84a4.68,4.68,0,0,1-4.74-3.41,4.89,4.89,0,0,0,1,.05l282.49-14.71a4.66,4.66,0,0,0,4.42-4.9L356.95,97.1a4.9,4.9,0,0,0-.16-1A4.68,4.68,0,0,1,360.68,100.46Z"/><path class="cls-11" d="M282.12,277.19l-43.85,2.28c.07-1.3.13-2.6.22-3.93.29-4.36.67-8.52,1.16-12.46l39-2.15c.8,2.84,1.92,7.27,2.88,12.74C281.69,274.57,281.89,275.77,282.12,277.19Z"/><path class="cls-12" d="M324.07,194.94c-.7-1.66-2-2.28-3.14-.6-1.72,2.61-2.06,6.2-3.35,9-4.77,10.47-16.88,15.51-27.74,16.21a61.48,61.48,0,0,1-10.79-.33c-3.19-.36-6.37-.9-9.53-1.53-1.14-.22-2.27-.46-3.4-.7-4-.85-8.64-.91-14.67-.17-1.24.15-2.4.34-3.51.55a64,64,0,0,0-6.72,1.72l-.39.12c-8.68,2.67-14.51,4.47-18.89,6.37a12.74,12.74,0,0,1,.36,2.33c.19,3.27.6,6.7.75,10.1a31.39,31.39,0,0,1,7.63-2.7c2.6-.54,8.11-1.85,10.27.25a3.11,3.11,0,0,1,.88,1.79c.41,2.4-1,6-1.93,10.28-1.48,6.4-3.7,16,0,21.89,4.64,7.37,17.15,6.72,19.22,6.61,8.06-.43,19.39-4.45,21.09-11.62,1.1-4.65-1.54-11.88-3.1-16.16a26.29,26.29,0,0,1-1.23-7.48c0-1.39-.1-3.11.73-4.32a1.9,1.9,0,0,1,.2-.27c1.23-1.42,3.64-1.24,5.38-1.41a56.77,56.77,0,0,0,24.66-8.67,44.22,44.22,0,0,0,9.61-8.51C321.61,211.6,327.53,203.23,324.07,194.94Z"/><polygon class="cls-6" points="46.38 104.78 45.63 103.17 207.02 27.51 374.4 86.05 373.82 87.72 207.12 29.42 46.38 104.78"/><path class="cls-13" d="M233.11,277.38a137.14,137.14,0,0,0-4.38-31.51l-43.55,4c-1,6.63-1.52,12.24-1.76,16.42-.73,12.66.55,15.59,2.09,17.52,2.6,3.27,6.38,4.2,9.14,4.88,8.27,2,13.72-1,26.58-3.74a146.59,146.59,0,0,1,16.59-2.56Z"/><path class="cls-11" d="M239,213.55c-1.1-.07-2.22-.11-3.32-.11-2.41,0-5.25-.11-7.26,1.49a6.67,6.67,0,0,0-2.2,3.66c-.91,3.57-.14,8.36,1.1,11.82,1.72,4.79,4.7,12.87,3.44,18-1.85,7.84-14.09,12.32-23,12.92-.18,0-.34,0-.5,0l-.57,0c-3.48.14-16,.27-20.85-7.42-4.14-6.57-1.65-17.27,0-24.4,1.1-4.72,2.61-8.78,2.17-11.46a3.63,3.63,0,0,0-1-2,4.49,4.49,0,0,0-2.27-1.1,17.74,17.74,0,0,0-4.28-.46c-1.22-5.29-3-9.74-3.87-13.51l1.17-.51c7.74-3.39,16.65-4.6,20.14-5.2.55-.09,1.14-.14,1.69-.21a57.69,57.69,0,0,1,13.79.28,244.68,244.68,0,0,1,26.11,4.79,22.78,22.78,0,0,0-1.15,5.45A23.13,23.13,0,0,0,239,213.55Z"/><path class="cls-8" d="M185.43,166.2a.79.79,0,0,0-.28-.17,1.13,1.13,0,0,0-.74.1c-2.61,1-5.2,3.23-5.56,6.14a4,4,0,0,0,.61,2.85c1.07,1.45,3.23,1.56,5,1.06a10.29,10.29,0,0,0,5.85-4.45l-4.63-5.3A2.48,2.48,0,0,0,185.43,166.2Z"/><path class="cls-8" d="M226.78,167c3.07-.26,5.72,1.31,6.46,3.55a5.52,5.52,0,0,1-.73,4.41,6.33,6.33,0,0,1-4.44,2.83c-2.75.23-5.56-1.78-6.54-5Z"/><path class="cls-8" d="M214.11,187.45a39.34,39.34,0,0,1-.72,8c-.18.9-.38,1.76-.58,2.58a31.85,31.85,0,0,1-3,4.76,34.63,34.63,0,0,1-3.21,3.57,2.25,2.25,0,0,1-3.18,0,25.16,25.16,0,0,1-1.8-2,26.39,26.39,0,0,1-3.14-5c-.22-1.22-.4-2.53-.54-3.91,0-.29-.05-.58-.09-.87-.12-1.51-.18-3-.18-4.39a52.57,52.57,0,0,1,.52-7.69l15-3.42a38.69,38.69,0,0,1,.69,3.83A40.31,40.31,0,0,1,214.11,187.45Z"/><path class="cls-8" d="M180.94,165.64c1.38,3.08,3,2.47,4.46,5.73,1.22,2.66,1,4.79,3.18,7.12.09.1.49.46,1.07,1a27.29,27.29,0,0,0,16.94,6.68,23.49,23.49,0,0,0,15.07-4.38,10.86,10.86,0,0,0,2.86-2.52c1.52-2.36.44-4,1.37-7.14,1-3.38,2.92-3.42,3.67-6s-.38-5.52-2.75-9.08c-6.82-10.22-12-18.32-21.77-18.62-12.75-.38-24.21,11.34-24.89,20.7A15.93,15.93,0,0,0,180.94,165.64Z"/><path class="cls-11" d="M230.62,161.87c-.12-.94-.28-1.87-.41-2.74a34.23,34.23,0,0,0-1.74-6.73,29.45,29.45,0,0,0-3.25-7A24.51,24.51,0,0,0,217,137.9a28.93,28.93,0,0,0-17-3.65,24.06,24.06,0,0,0-11.35,3.21,22.16,22.16,0,0,0-7.77,7.89,23,23,0,0,0-2.95,12.47,13.61,13.61,0,0,0,.15,1.7,16.49,16.49,0,0,0,1,4.23c.83,2,2.47,3.47,3.78,5.16a18.48,18.48,0,0,1,3.25,6.63,9.53,9.53,0,0,0,.57,1.81,4.86,4.86,0,0,0,2.27,1.87c4.31,2.46,3.4,3.42,7.08,5.38a24,24,0,0,0,12.23,2.54c.67,0,8.05-.31,13.83-4.5a8.82,8.82,0,0,0,3.16-4c.66-1.77.49-3.75,1.27-5.48s2.48-3,3.4-4.7C231,166.5,230.91,164.13,230.62,161.87ZM225,168.18c-.43,1.66-.89,3.39-2.26,3.9a3.17,3.17,0,0,1-2.87-.63c-1.68-1.32-.87-3.31-2.06-4.41-1.38-1.25-3.49.38-7.9,1a36.69,36.69,0,0,1-11.85-.52c-2.51-.56-3.64-1.15-4.9-.46-2.28,1.28-1.9,5.15-3.5,5.39-.69.1-1.28-.51-2.29-1.56a10.6,10.6,0,0,1-2.43-4.1,14.94,14.94,0,0,1-.56-6.26,17,17,0,0,1,1.88-7.42c.77-1.41,2.29-4.17,5-5.29,4.15-1.73,6.58,2.42,13.06,3.14,8.48.94,12.55-5.25,16.3-2.6,1.35.95,2.2,4,3.91,10.19a23.43,23.43,0,0,1,.84,5A14.72,14.72,0,0,1,225,168.18Z"/><path class="cls-14" d="M192.56,173.79c.77,1.94,3.31,4.22,4.21,4.92a14.88,14.88,0,0,0,8.65,3.07,12.54,12.54,0,0,0,8.22-2.45c2.64-2.07,5-5.92,4-7.42s-4.74,1.34-11.75,1.12-11.68-3.28-13.09-1.37A2.3,2.3,0,0,0,192.56,173.79Z"/><path class="cls-11" d="M208.69,134.94c.19-.39,2.57-5.54.06-9.26-3.11-4.61-11.86-4.22-15.41.26-2.57,3.24-2.74,9.06,0,11.25a4.83,4.83,0,0,0,2.59,1Z"/><path class="cls-11" d="M196.86,129.19c-1.81-1.14-5.49-2.43-7.9-.32a5.41,5.41,0,0,0-1.65,4.76,5.91,5.91,0,0,0,3.89,4.61c3.78,1.32,8.74-1.79,8.8-4.84C200,131.19,197.49,129.59,196.86,129.19Z"/><path class="cls-2" d="M210.14,283.89a1,1,0,0,1-1.24-.32c-1.51-1.93-.62-9.71-.29-12.66.22-1.9.45-3.1.75-3.08s.4.69.55,1.29c1.09,4.24,1.6,7.34,1.76,8.35.41,2.52.51,3.22.34,4a3.69,3.69,0,0,1-1.07,2A1.47,1.47,0,0,1,210.14,283.89Z"/><path class="cls-15" d="M223.3,269.15c-1.6,3.66-3.6,4.32-4,4.43a1.4,1.4,0,0,1-1,.05c-1.26-.65.26-4.42,0-8.74a17.82,17.82,0,0,0-2-6.91c-3.48-7.2-11.11-11.58-18.89-12.38-2.2-.22-6.86-.83-8.46,1.09a2.67,2.67,0,0,0-.57,1.57c-.14,2,1.31,4.89,2.47,8.3.7,2,1.39,4.07,1.94,6.15a26.74,26.74,0,0,1,.85,6.43,70.14,70.14,0,0,0,.75,8.79c.22,1.45.47,2.91.79,4.34.26,1.15.64,2.29.11,3.43-1.27,2.73-7.79,5.32-38.35-2.38.24.06,1.3-6.45,1.37-7,.31-2.79.29-5.58.36-8.39,0-.78,1.05-7.55,1.55-7.57a21.43,21.43,0,0,0,.37-6.28,6.08,6.08,0,0,0-1-3.5,2,2,0,0,0-.21-.21c-1.13-1.06-3.1-.71-4.55-.7a47,47,0,0,1-21.07-5,35.84,35.84,0,0,1-8.66-6.19c-4.78-4.58-10.39-11-8.23-18.13.42-1.41,1.48-2,2.53-.76,1.65,2,2.25,4.94,3.55,7.17,4.83,8.22,15.26,11.34,24.27,11a49.88,49.88,0,0,0,8.88-1.2c2.61-.56,5.16-1.27,7.72-2.08.92-.27,1.85-.57,2.75-.86l.86-.27a29.9,29.9,0,0,1-.78-5.46,14.11,14.11,0,0,1-5.47-2,14.79,14.79,0,0,1-4.15-3.79,3.68,3.68,0,0,1-1.37.29,4.76,4.76,0,0,1-3.51-1.76,4.16,4.16,0,0,1-.88-3.2,3.85,3.85,0,0,1,2.32-2.62,2.48,2.48,0,0,1-1.41-.49c-1.18-.85-1.21-2.69-1.13-4.17.28-6.25.44-9.64,3.06-13.39a17.31,17.31,0,0,1,2.92-3.21,4.45,4.45,0,0,1-3.22-2.56,3.7,3.7,0,0,1,1.26-4.2,3.59,3.59,0,0,1,2.92-.24,7.37,7.37,0,0,1,1.52-4.21c2.59-3.13,7.48-2.8,10.4-1.64,1.35.53,4.43,1.76,4.63,4.34a4.35,4.35,0,0,1-.92,2.86,19.4,19.4,0,0,1,9.94,2.37c.76.43,7.65,4.36,9.25,11.84.73,3.34.62,8.53-1.61,9.45a2.41,2.41,0,0,1-1.77,0,5.08,5.08,0,0,1,2.21,3,3,3,0,0,1-.22,2.16c-.68,1.15-2.27,1.39-3.58,1.17a7.84,7.84,0,0,1-1-.28,20.39,20.39,0,0,1-2.1,3,21.66,21.66,0,0,1-6.22,5.09,38.9,38.9,0,0,1,.85,6.51c.8,0,1.57.05,2.29.13a49.67,49.67,0,0,1,5.7.82,1.86,1.86,0,0,0,.34.07c11.29,2.23,16.94,3.34,21.29,5.8.64.35,13.74,8,15.67,20.11A19.2,19.2,0,0,1,223.3,269.15Z"/><path class="cls-12" d="M239.63,192.91a.71.71,0,0,0-.25-.15,1,1,0,0,0-.67.09c-2.34.91-4.67,2.89-5,5.51a3.56,3.56,0,0,0,.54,2.55c1,1.3,2.9,1.39,4.45.95a9.22,9.22,0,0,0,5.25-4l-4.15-4.75A2.23,2.23,0,0,0,239.63,192.91Z"/><path class="cls-12" d="M276.7,193.59c2.76-.23,5.13,1.17,5.79,3.18a5,5,0,0,1-.66,4,5.68,5.68,0,0,1-4,2.54A5.93,5.93,0,0,1,272,198.8Z"/><path class="cls-12" d="M251,207.45a49.2,49.2,0,0,0-.29,10.86c.13,1.51.32,2.95.55,4.28a24.1,24.1,0,0,0,4.43,6.29,2,2,0,0,0,2.85,0,28.49,28.49,0,0,0,5.6-7.47,36.67,36.67,0,0,0,.88-13.62c-.15-1.21-.36-2.36-.61-3.44Z"/><path class="cls-12" d="M235.94,192.21a25.17,25.17,0,0,0,6.85,11.53,24.68,24.68,0,0,0,15.79,7.06,19.64,19.64,0,0,0,13-3.66,16.69,16.69,0,0,0,6.23-9c1.37-5.33-.66-9.82-2.14-13-1.91-4.07-7.65-16.31-19.22-16.86-11.1-.53-20.89,9.7-21.34,18A19.5,19.5,0,0,0,235.94,192.21Z"/><path class="cls-11" d="M341,118.65a20.61,20.61,0,0,1-1.34,7.24,21.9,21.9,0,0,1-5.8,8.6c-4.45,4.08-10.27,6.42-16.2,7.61-2.63.53-6.19,1-8.06,3.13s-1.27,5.58-1.13,8.28a19.11,19.11,0,0,1-3.28,12.13,14,14,0,0,1-7.68,5.36c-2.83.74-6-.47-8.39,1.66-2.19,2-1.31,3.92-3.19,9.4-.62,1.8-3.94,11.5-7.89,11.56-3.79.06-4.17-8.8-10.52-10.56-3.43-1-4.32,1.35-10.17,1.11-6.37-.26-7.57-3.09-10.72-2.08-5.78,1.85-5.61,12.56-8.83,12.65-2.1.06-4.1-4.44-4.84-7.73-1.7-7.59,1.77-15.74,6.88-20.94S251.06,159,255,158c5.61-1.5,11.41-2.28,16.93-4.09,3.21-1.05,6.5-2.61,8.25-5.49,1.34-2.2,1.59-4.88,2.4-7.32,2.55-7.69,10.26-11.38,17.61-13.22A80.16,80.16,0,0,1,317.5,126c4.3-.12,9-.29,12.29-3,1.68-1.36,2.86-3.25,4.41-4.76s4.46-2.89,5.87-1.74A3,3,0,0,1,341,118.65Z"/><path class="cls-14" d="M243.13,195.81c.75,2.22,3.46,4.9,4.44,5.73a16.67,16.67,0,0,0,9.5,3.91,15.91,15.91,0,0,0,9.33-2.28c2.79-1.66,5.95-5.35,5.09-7-1-1.83-5.79,1.24-13.84.18-7.46-1-12.47-4.85-14.14-2.93A2.52,2.52,0,0,0,243.13,195.81Z"/><path class="cls-13" d="M277.1,248.37a26.29,26.29,0,0,1-1.23-7.48c0-1.39-.1-3.11.73-4.32.06-2,.41-4.73.9-8.55.44-3.43,1-6.39,1.53-8.75-3.19-.36-6.37-.9-9.53-1.53,0,.4,0,.82,0,1.26,2.1,4.33.83,10.4-3.79,12.62a7.19,7.19,0,0,1-1.78,1.43c-3.22,1.8-7.25.92-9.8-.63-3.12-1.88-4.24-4.88-5.07-7.09a18.94,18.94,0,0,1-1.14-7.9,64,64,0,0,0-6.72,1.72c.43,2.47.71,4.6.89,6.29a38.08,38.08,0,0,1,.4,7.59,26.61,26.61,0,0,1-.68,4.37c.41,2.4-1,6-1.93,10.28-1.48,6.4-3.7,16,0,21.89,4.64,7.37,17.15,6.72,19.22,6.61,8.06-.43,19.39-4.45,21.09-11.62C281.31,259.89,278.66,252.65,277.1,248.37Z"/><path class="cls-1" d="M384.38,77.9l11.24,215.85a4.66,4.66,0,0,1-4.42,4.9L62.64,315.76a4.66,4.66,0,0,1-4.9-4.42l0-.66,327.91-17.08a4.66,4.66,0,0,0,4.42-4.9L378.82,73.51l.66,0A4.67,4.67,0,0,1,384.38,77.9Z"/><circle class="cls-15" cx="206.42" cy="26.85" r="4.83" transform="translate(-1.12 10.77) rotate(-2.98)"/><path class="cls-8" d="M178.68,244.54c-.1.85-.73,1.07-1.46,1.36a11.75,11.75,0,0,1-4.47.66A19.53,19.53,0,0,1,161,242.72a16.6,16.6,0,0,1-4.81-6.08,14.68,14.68,0,0,1-.8-2,18,18,0,0,1,.49-11.46,3.79,3.79,0,0,0,1.22-.29,13.91,13.91,0,0,0,4,3.62,13.46,13.46,0,0,0,5.23,1.87,26.72,26.72,0,0,0,.61,4.58c0,.24,0,.46,0,.68a7.91,7.91,0,0,0,1.56,4.21,9.27,9.27,0,0,0,5.3,2.9,9.62,9.62,0,0,1,3.63,1.31A2.94,2.94,0,0,1,178.68,244.54Z"/><g class="cls-5"><polygon class="cls-16" points="187.34 88.03 179.27 101.67 73.85 279.8 65.62 293.73 51.52 294.48 50.03 265.64 71.26 229.77 146.03 103.41 154.1 89.77 187.34 88.03"/></g><g class="cls-5"><polygon class="cls-16" points="88.78 296.56 73.52 297.43 195.25 91.72 210.51 90.85 88.78 296.56"/></g><path class="cls-15" d="M378.78,72.85a4.66,4.66,0,0,0-4.9-4.42L45.31,85.56a4.66,4.66,0,0,0-4.42,4.9L50,265.64l1.49,28.84.62,11.82a4.64,4.64,0,0,0,4.9,4.42l328.57-17.11a4.64,4.64,0,0,0,4.42-4.9ZM361.37,271.76,78.89,286.47a4.66,4.66,0,0,1-4.92-4.4l-.12-2.27-2.59-50L65.14,112.29a4.69,4.69,0,0,1,4.42-4.9l76.47-4,33.24-1.74,172.78-9a4.69,4.69,0,0,1,4.9,4.42l8.84,169.77A4.64,4.64,0,0,1,361.37,271.76Z"/><path class="cls-8" d="M277.3,227.28a14.19,14.19,0,0,1-3.62,4.12,21,21,0,0,1-7.29,3.66,26.37,26.37,0,0,1-8.7,1.5,11.73,11.73,0,0,1-4.12-.9c-.85-.36-3.21-1.38-3-2.57s4.37-.64,10.26-2.6c3-1,7-2.38,8.17-5.68a5.8,5.8,0,0,0,.07-4,5.43,5.43,0,0,0-2.79-3,4.8,4.8,0,0,0-1.34-.35,6.55,6.55,0,0,0,.08-.65,33.63,33.63,0,0,0,.24-6.61,17,17,0,0,0,3.12-1.12q1.27.54,2.47,1.15c3.4,1.7,6.56,4.08,7.76,7.84a10.07,10.07,0,0,1,.26,1.17A12.38,12.38,0,0,1,277.3,227.28Z"/></svg>