<svg xmlns="http://www.w3.org/2000/svg" xmlns:xlink="http://www.w3.org/1999/xlink" viewBox="0 0 70 70"><defs><style>.cls-1{fill:none;}.cls-2{fill:#e6764a;}.cls-3{clip-path:url(#clip-path);}.cls-4{fill:#fff2eb;}.cls-5{fill:#e8e8e8;}</style><clipPath id="clip-path"><circle class="cls-1" cx="35" cy="35" r="34.82"/></clipPath></defs><title>doctorAvatar</title><g id="cept_1" data-name="cept 1"><path class="cls-2" d="M15.36,63.76a31,31,0,0,1,20.41-8.14,29.2,29.2,0,0,1,19.71,7.54,34.81,34.81,0,1,0-40.12.6Z"/><g class="cls-3"><path class="cls-4" d="M57.16,65.65a6.33,6.33,0,0,1,.44,2.4,6.24,6.24,0,0,1-3.76,5.58,37.64,37.64,0,0,1-4.28,1.5h-.05c-1.13.33-2.32.6-3.54.84a52.11,52.11,0,0,1-8.36,1,.65.65,0,0,1-.2,0c-.67,0-1.35,0-2,0h0c-.5,0-1,0-1.5,0L33,77l-.62,0a54.62,54.62,0,0,1-7.29-.88,41.32,41.32,0,0,1-8.25-2.43,6.17,6.17,0,0,1-3.31-8A23.62,23.62,0,0,1,25.68,53h0l.11-.07.25-.1c.67-.29,1.35-.54,2-.77.34-.11.71-.21,1.06-.3s.86-.23,1.29-.31v-2A16.44,16.44,0,0,1,17.84,38.14a3.84,3.84,0,0,1-1.07.15,4,4,0,0,1,0-8l.3,0c0-.61,0-1.05.05-1.23.05-1.08,0-2.36,0-3.74,0-2.67-.08-5.44.47-7.06,1.79-5.38,11-6.51,13.74-6.73,6.14-.49,13.56.6,15.38,4.11A11.68,11.68,0,0,1,47.31,17a3.18,3.18,0,0,1,2.66.19,5,5,0,0,1,1.38,1.31,10.72,10.72,0,0,1,1.73,4.36,36.77,36.77,0,0,1,.54,7.51,1.27,1.27,0,0,1,.27,0,4,4,0,1,1-1,7.85,16,16,0,0,1-4.22,7,16.31,16.31,0,0,1-8.43,4.36v2a21.53,21.53,0,0,1,4.53,1.44l.13.07a23.14,23.14,0,0,1,5,3l.2.15,0,0A23.58,23.58,0,0,1,57.16,65.65Z"/><path class="cls-5" d="M46.18,73.77c0,.25,0,.49,0,.74,0,.48-.08.94-.16,1.43a.57.57,0,0,1,0,.13c-.81.15-1.65.28-2.49.39a58.51,58.51,0,0,1-8.13.56,56.83,56.83,0,0,1-7.79-.52c-.84-.1-1.66-.23-2.48-.39l-.18-1.54-.06-.73a48.25,48.25,0,0,1,1.24-15.47c.3-1.22.66-2.43,1.06-3.64.09-.28.2-.57.3-.86l0-.12c0-.09.07-.21.11-.3s.1-.3.16-.45h0a2,2,0,0,0,.11-.28c.08-.22.18-.43.27-.65a19.21,19.21,0,0,1,2.14-.56h0v3.39c0,2.65,3.83,4.44,4.6,4.77a1.23,1.23,0,0,0,.47.09,1.09,1.09,0,0,0,.48-.11c.66-.3,3.58-1.72,4.36-3.74a2.44,2.44,0,0,0,.21-1V51.54a23.22,23.22,0,0,1,2.6.71.17.17,0,0,1,0,.11,1.81,1.81,0,0,1,.13.34c.15.35.28.69.4,1.06l.08.24a9.37,9.37,0,0,1,.31.89,30.62,30.62,0,0,1,1,3.48c.26,1.09.5,2.21.68,3.31A47.37,47.37,0,0,1,46.18,73.77Z"/><path class="cls-5" d="M57.16,65.65a6.33,6.33,0,0,1,.44,2.4c-4.6,1.92-8.16,4.58-9,4.78A35.27,35.27,0,0,0,44,61.07a34.72,34.72,0,0,0-3.59-4.79c-.64-.71-1.27-1.36-1.86-1.91V48.5a40.77,40.77,0,0,0,7-8.7,42,42,0,0,0,5.79-21.35,10.72,10.72,0,0,1,1.73,4.36,36.77,36.77,0,0,1,.54,7.51,1.27,1.27,0,0,1,.27,0,4,4,0,1,1-1,7.85,16,16,0,0,1-4.22,7,16.31,16.31,0,0,1-8.43,4.36v2a21.53,21.53,0,0,1,4.53,1.44l.13.07a23.14,23.14,0,0,1,5,3l.2.15,0,0A23.58,23.58,0,0,1,57.16,65.65Z"/><path class="cls-5" d="M57.36,68a6.17,6.17,0,0,1-3.76,5.67,35.37,35.37,0,0,1-4.11,1.46l.66-1.7.35-.94,1.25-3.26a1.27,1.27,0,0,0-.09-1.12l-1.55-2.65,1.52-2.36a1.26,1.26,0,0,0,0-1.31l-1-1.83-1.29-2.35-1.58-2.88a23.3,23.3,0,0,1,9.1,11A6.09,6.09,0,0,1,57.36,68Z"/><path class="cls-4" d="M51.66,68.07a1.27,1.27,0,0,1,.09,1.12L50.5,72.45l-.35.94h0l-.65,1.7c-1,.27-2,.53-3,.76l-.19,0-.89.18c.07-.52.12-1,.16-1.56,0-.25,0-.49,0-.74a49.86,49.86,0,0,0-1.18-15.4c-.26-1.17-.59-2.34-1-3.48-.09-.3-.2-.6-.3-.89l-.08-.24c-.12-.37-.24-.71-.38-1.06a5.62,5.62,0,0,0-.19-.53,12.32,12.32,0,0,1,1.25.45h0a22.73,22.73,0,0,1,4.05,2.07l1.58,2.88,1.29,2.35,1,1.83a1.26,1.26,0,0,1,0,1.31l-1.52,2.36Z"/><path class="cls-5" d="M18.68,61.75a1.26,1.26,0,0,0,.05,1.31l1.52,2.36-1.56,2.65a1.37,1.37,0,0,0-.08,1.12l1.25,3.27.35.93.66,1.7a36.22,36.22,0,0,1-4.16-1.46,6.18,6.18,0,0,1-3.31-7.95,23.41,23.41,0,0,1,9.16-11L21,57.58l-1.25,2.27Z"/><path class="cls-4" d="M28.22,52.06c-.09.22-.17.43-.25.65s-1.43,4.44-1.72,5.66a50.31,50.31,0,0,0-1.18,15.47c0,.25,0,.48.05.73.06.52.11,1,.17,1.54l-1.1-.21h-.1l-.19,0c-1-.23-2-.48-3-.76l-.66-1.7-.35-.93-1.25-3.27a1.37,1.37,0,0,1,.08-1.12l1.56-2.65-1.52-2.36a1.26,1.26,0,0,1-.05-1.31l1-1.9L21,57.58l1.6-2.92a22,22,0,0,1,4.05-2A12.72,12.72,0,0,1,28.22,52.06Z"/></g><path class="cls-2" d="M26.74,62.29a.63.63,0,0,1-.62-.55,13.29,13.29,0,0,1,2.94-10.32,8.54,8.54,0,0,1,6-3.27c4-.13,8.43,3.74,9.21,8.13a14.19,14.19,0,0,1,.12,1.5.63.63,0,0,1-.61.65.62.62,0,0,1-.65-.61A11.62,11.62,0,0,0,43,56.5c-.67-3.76-4.5-7.18-7.93-7.09A7.41,7.41,0,0,0,30,52.24a12,12,0,0,0-2.64,9.35.63.63,0,0,1-.55.7Z"/><circle class="cls-4" cx="27.08" cy="63.31" r="1.76"/><path class="cls-2" d="M27.08,65.58a2.28,2.28,0,1,1,2.27-2.27A2.28,2.28,0,0,1,27.08,65.58Zm0-3.29a1,1,0,1,0,0,2,1,1,0,0,0,0-2Z"/><rect class="cls-4" x="30.4" y="47.66" width="8.13" height="6.71"/><rect class="cls-5" x="38.53" y="48.77" width="1.72" height="4.95"/><path class="cls-2" d="M46.33,65.8h-.8a.63.63,0,1,1,0-1.26h.17V60.75a2,2,0,1,0-3.91,0v3.79H42a.63.63,0,0,1,0,1.26h-.82a.63.63,0,0,1-.63-.63V60.75a3.22,3.22,0,1,1,6.43,0v4.42A.63.63,0,0,1,46.33,65.8Z"/></g></svg>