<svg xmlns="http://www.w3.org/2000/svg" xmlns:xlink="http://www.w3.org/1999/xlink" viewBox="0 0 70 70"><defs><style>.cls-1{fill:none;}.cls-2{fill:#e6764a;}.cls-3{clip-path:url(#clip-path);}.cls-4{fill:#fff2eb;}.cls-5{fill:#e8e8e8;}</style><clipPath id="clip-path"><circle class="cls-1" cx="35" cy="35" r="34.82"/></clipPath></defs><title>doctorAvatarFemale</title><g id="cept_1" data-name="cept 1"><path class="cls-2" d="M15.36,63.76a31,31,0,0,1,20.41-8.14,29.2,29.2,0,0,1,19.71,7.54,34.81,34.81,0,1,0-40.12.6Z"/><g class="cls-3"><path class="cls-4" d="M57.16,65.65a6.33,6.33,0,0,1,.44,2.4,6.24,6.24,0,0,1-3.76,5.58,37.64,37.64,0,0,1-4.28,1.5h-.05c-1.13.33-2.32.6-3.54.84a52.11,52.11,0,0,1-8.36,1,.65.65,0,0,1-.2,0c-.67,0-1.35,0-2,0h0c-.5,0-1,0-1.5,0L33,77l-.62,0a54.62,54.62,0,0,1-7.29-.88,41.32,41.32,0,0,1-8.25-2.43,6.17,6.17,0,0,1-3.31-8A23.62,23.62,0,0,1,25.68,53h0l.11-.07.25-.1c.67-.29,1.35-.54,2-.77.34-.11.71-.21,1.06-.3s.86-.23,1.29-.31v-2A16.44,16.44,0,0,1,17.84,38.14a3.84,3.84,0,0,1-1.07.15,4,4,0,0,1,0-8l.3,0c0-.61,0-1.05.05-1.23.05-1.08,0-2.36,0-3.74,0-2.67-.08-5.44.47-7.06,1.79-5.38,11-6.51,13.74-6.73,6.14-.49,13.56.6,15.38,4.11A11.68,11.68,0,0,1,47.31,17a3.18,3.18,0,0,1,2.66.19,5,5,0,0,1,1.38,1.31,10.72,10.72,0,0,1,1.73,4.36,36.77,36.77,0,0,1,.54,7.51,1.27,1.27,0,0,1,.27,0,4,4,0,1,1-1,7.85,16,16,0,0,1-4.22,7,16.31,16.31,0,0,1-8.43,4.36v2a21.53,21.53,0,0,1,4.53,1.44l.13.07a23.14,23.14,0,0,1,5,3l.2.15,0,0A23.58,23.58,0,0,1,57.16,65.65Z"/><path class="cls-5" d="M46.18,73.77c0,.25,0,.49,0,.74,0,.48-.08.94-.16,1.43a.57.57,0,0,1,0,.13c-.81.15-1.65.28-2.49.39a58.51,58.51,0,0,1-8.13.56,56.83,56.83,0,0,1-7.79-.52c-.84-.1-1.66-.23-2.48-.39l-.18-1.54-.06-.73a48.25,48.25,0,0,1,1.24-15.47c.3-1.22.66-2.43,1.06-3.64.09-.28.2-.57.3-.86l0-.12c0-.09.07-.21.11-.3s.1-.3.16-.45h0a2,2,0,0,0,.11-.28c.08-.22.18-.43.27-.65a19.21,19.21,0,0,1,2.14-.56h0v3.39c0,2.65,3.83,4.44,4.6,4.77a1.23,1.23,0,0,0,.47.09,1.09,1.09,0,0,0,.48-.11c.66-.3,3.58-1.72,4.36-3.74a2.44,2.44,0,0,0,.21-1V51.54a23.22,23.22,0,0,1,2.6.71.17.17,0,0,1,0,.11,1.81,1.81,0,0,1,.13.34c.15.35.28.69.4,1.06l.08.24a9.37,9.37,0,0,1,.31.89,30.62,30.62,0,0,1,1,3.48c.26,1.09.5,2.21.68,3.31A47.37,47.37,0,0,1,46.18,73.77Z"/><path class="cls-5" d="M57.16,65.65a6.33,6.33,0,0,1,.44,2.4c-4.6,1.92-8.16,4.58-9,4.78A35.27,35.27,0,0,0,44,61.07a34.72,34.72,0,0,0-3.59-4.79c-.64-.71-1.27-1.36-1.86-1.91V48.5a40.77,40.77,0,0,0,7-8.7,42,42,0,0,0,5.79-21.35,10.72,10.72,0,0,1,1.73,4.36,36.77,36.77,0,0,1,.54,7.51,1.27,1.27,0,0,1,.27,0,4,4,0,1,1-1,7.85,16,16,0,0,1-4.22,7,16.31,16.31,0,0,1-8.43,4.36v2a21.53,21.53,0,0,1,4.53,1.44l.13.07a23.14,23.14,0,0,1,5,3l.2.15,0,0A23.58,23.58,0,0,1,57.16,65.65Z"/><path class="cls-5" d="M57.36,68a6.17,6.17,0,0,1-3.76,5.67,35.37,35.37,0,0,1-4.11,1.46l.66-1.7.35-.94,1.25-3.26a1.27,1.27,0,0,0-.09-1.12l-1.55-2.65,1.52-2.36a1.26,1.26,0,0,0,0-1.31l-1-1.83-1.29-2.35-1.58-2.88a23.3,23.3,0,0,1,9.1,11A6.09,6.09,0,0,1,57.36,68Z"/><path class="cls-4" d="M51.66,68.07a1.27,1.27,0,0,1,.09,1.12L50.5,72.45l-.35.94h0l-.65,1.7c-1,.27-2,.53-3,.76l-.19,0-.89.18c.07-.52.12-1,.16-1.56,0-.25,0-.49,0-.74a49.86,49.86,0,0,0-1.18-15.4c-.26-1.17-.59-2.34-1-3.48-.09-.3-.2-.6-.3-.89l-.08-.24c-.12-.37-.24-.71-.38-1.06a5.62,5.62,0,0,0-.19-.53,12.32,12.32,0,0,1,1.25.45h0a22.73,22.73,0,0,1,4.05,2.07l1.58,2.88,1.29,2.35,1,1.83a1.26,1.26,0,0,1,0,1.31l-1.52,2.36Z"/><path class="cls-5" d="M18.68,61.75a1.26,1.26,0,0,0,.05,1.31l1.52,2.36-1.56,2.65a1.37,1.37,0,0,0-.08,1.12l1.25,3.27.35.93.66,1.7a36.22,36.22,0,0,1-4.16-1.46,6.18,6.18,0,0,1-3.31-7.95,23.41,23.41,0,0,1,9.16-11L21,57.58l-1.25,2.27Z"/><path class="cls-4" d="M28.22,52.06c-.09.22-.17.43-.25.65s-1.43,4.44-1.72,5.66a50.31,50.31,0,0,0-1.18,15.47c0,.25,0,.48.05.73.06.52.11,1,.17,1.54l-1.1-.21h-.1l-.19,0c-1-.23-2-.48-3-.76l-.66-1.7-.35-.93-1.25-3.27a1.37,1.37,0,0,1,.08-1.12l1.56-2.65-1.52-2.36a1.26,1.26,0,0,1-.05-1.31l1-1.9L21,57.58l1.6-2.92a22,22,0,0,1,4.05-2A12.72,12.72,0,0,1,28.22,52.06Z"/></g><rect class="cls-4" x="30.4" y="47.66" width="8.13" height="6.71"/><rect class="cls-5" x="38.53" y="48.77" width="1.72" height="4.95"/><circle class="cls-2" cx="35" cy="35" r="34.82"/><g class="cls-3"><polygon class="cls-4" points="45.4 17.49 50.61 16.01 54.51 18.6 56.21 22.2 55.21 25.52 58.91 27.16 61.65 30.07 61.65 33.4 60.07 36.41 57.85 38.28 56.73 40.32 54.51 42.3 51.17 42.3 49.82 41.11 45.4 17.49"/><path class="cls-4" d="M53.09,71.15a47.17,47.17,0,0,1-17.91,3.26,47.06,47.06,0,0,1-17.91-3.26A4,4,0,0,1,15.1,66a21.63,21.63,0,0,1,40.14,0A4,4,0,0,1,53.09,71.15Z"/><path class="cls-4" d="M56,65.21A22.55,22.55,0,0,0,39.69,51.52c-.35-.07-.72-.14-1.07-.19s-.72-.11-1.07-.15C36.7,51.1,35.86,51,35,51s-1.71.06-2.55.14c-.37,0-.72.09-1.07.15s-.72.12-1.07.19A22.52,22.52,0,0,0,14,65.21a5.94,5.94,0,0,0,3.18,7.67A46.76,46.76,0,0,0,35,76.14a48.7,48.7,0,0,0,16-2.56c.61-.23,1.21-.46,1.77-.7a6,6,0,0,0,3.62-5.48A5.85,5.85,0,0,0,56,65.21Zm-4,5.71c-.52.21-1,.43-1.6.62A46.5,46.5,0,0,1,35,74a44.64,44.64,0,0,1-17-3.08A3.82,3.82,0,0,1,16,66,20.45,20.45,0,0,1,30.31,53.71c.35-.08.71-.16,1.07-.21s.71-.13,1.07-.18a21.75,21.75,0,0,1,5.1,0l1.07.17.83.16.24.06A20.39,20.39,0,0,1,54,66,3.81,3.81,0,0,1,52,70.92Z"/><path class="cls-4" d="M43,74.69l-.18,0a1.07,1.07,0,0,1-.88-1.23,34.09,34.09,0,0,0-.63-14.73,33.16,33.16,0,0,0-2-5.34,1.07,1.07,0,0,1,1.94-.91A35.59,35.59,0,0,1,44.05,73.8,1.07,1.07,0,0,1,43,74.69Z"/><path class="cls-4" d="M27,74.69A1.07,1.07,0,0,1,26,73.8,35.59,35.59,0,0,1,28.7,52.46a1.07,1.07,0,0,1,1.94.91,33.16,33.16,0,0,0-1.95,5.34,34.09,34.09,0,0,0-.63,14.73,1.07,1.07,0,0,1-.88,1.23Z"/><path class="cls-4" d="M45.4,75.11A1.06,1.06,0,0,1,45,75a1.07,1.07,0,0,1-.62-1.38l2.23-5.82-1.36-2.33a1.05,1.05,0,0,1,0-1.12l1.28-2-4.52-8.26a1.07,1.07,0,0,1,1.88-1l4.82,8.82a1,1,0,0,1,0,1.09l-1.26,2,1.29,2.22a1.06,1.06,0,0,1,.07.92L46.4,74.42A1.06,1.06,0,0,1,45.4,75.11Z"/><path class="cls-4" d="M24.64,75.11a1.06,1.06,0,0,1-1-.69l-2.41-6.29a1.06,1.06,0,0,1,.07-.92L22.6,65l-1.27-2a1,1,0,0,1,0-1.09l4.82-8.82a1.09,1.09,0,0,1,1.46-.42A1.07,1.07,0,0,1,28,54.15l-4.52,8.26,1.28,2a1.05,1.05,0,0,1,0,1.12l-1.36,2.33,2.23,5.82A1.07,1.07,0,0,1,25,75,1,1,0,0,1,24.64,75.11Z"/><path class="cls-4" d="M38.62,48.86v5.93c0,1.9-3.62,3.62-3.62,3.62s-3.62-1.62-3.62-3.62V48.86Z"/><path class="cls-4" d="M39.69,48.87V54.8c0,2.44-3.53,4.24-4.23,4.58a1,1,0,0,1-.46.1,1,1,0,0,1-.44-.09c-.7-.32-4.25-2-4.25-4.59V48.87a.81.81,0,0,1,.05-.31,1,1,0,0,1,1-.76,1.07,1.07,0,0,1,1.07,1v6c0,.75,1.36,1.8,2.54,2.42,1.29-.71,2.56-1.78,2.56-2.42V48.87a.17.17,0,0,1,0-.07,1.06,1.06,0,0,1,1.06-1h.14a1,1,0,0,1,.87.74A.68.68,0,0,1,39.69,48.87Z"/><path class="cls-4" d="M62.91,32.07a7.39,7.39,0,0,1-4,6.44,6.36,6.36,0,0,1-6,4.87,5.67,5.67,0,0,1-2.81-.76,5.92,5.92,0,0,1-.89-.62l-.16-.14a1.08,1.08,0,0,1-.29-1.18l.11-.2a.6.6,0,0,1,.09-.13,1.08,1.08,0,0,1,1.26-.25,1.32,1.32,0,0,1,.25.16,3.56,3.56,0,0,0,.65.47,3.48,3.48,0,0,0,1.79.5,4.34,4.34,0,0,0,4-3.67,1,1,0,0,1,.57-.75,5.36,5.36,0,0,0,3.29-4.74c0-2.67-2.34-5-5.44-5.38a1,1,0,0,1-.8-.56,1.06,1.06,0,0,1,0-1,5.44,5.44,0,0,0,.57-2.47,5.52,5.52,0,0,0-1.67-4,5,5,0,0,0-5.75-.95,1.07,1.07,0,1,1-.95-1.91,7.14,7.14,0,0,1,3.17-.75,6.93,6.93,0,0,1,3.71,1.06,7.59,7.59,0,0,1,3.63,6.51,8.16,8.16,0,0,1-.29,2.16A7.76,7.76,0,0,1,62.91,32.07Z"/><path class="cls-4" d="M51.53,32a2.77,2.77,0,1,1,1.36,5.18,2.72,2.72,0,0,1-1.72-.6"/><path class="cls-4" d="M52.89,38.28a3.87,3.87,0,0,1-2.39-.84,1.07,1.07,0,1,1,1.33-1.67A1.7,1.7,0,1,0,52.06,33,1.07,1.07,0,1,1,51,31.1a3.84,3.84,0,1,1,1.88,7.18Z"/><path class="cls-4" d="M51.52,31.73v.61c0,.93,0,1.84-.09,2.72A14.65,14.65,0,0,1,37.28,48.82c-.71,0-1.43,0-2.17,0s-1.53,0-2.27,0A14.7,14.7,0,0,1,18.57,34.67c0-.37,0-.75,0-1.13,0-1.68,0-1.88,0-3.44A14.67,14.67,0,0,1,32.93,16Z"/><path class="cls-4" d="M52.59,31.73v.63c0,.91,0,1.85-.09,2.77a15.53,15.53,0,0,1-1.38,5.6,16.35,16.35,0,0,1-1,1.89,15.58,15.58,0,0,1-10.41,7,9.91,9.91,0,0,1-1.07.17,9.45,9.45,0,0,1-1.07.08.9.9,0,0,1-.23,0l-2.2,0h-.33c-.67,0-1.33,0-2,0h-.36c-.37,0-.72,0-1.07-.09s-.72-.1-1.07-.18A15.82,15.82,0,0,1,17.5,34.71c0-.38,0-.76,0-1.15,0-1.61,0-1.88,0-3.23v-.27A15.77,15.77,0,0,1,32.9,14.94a1.06,1.06,0,0,1,.84,1.76,1.07,1.07,0,0,1-.79.38A13.63,13.63,0,0,0,19.63,30.14v.28c-.05,1.32-.07,1.56,0,3.09,0,.38,0,.75,0,1.12A13.66,13.66,0,0,0,32.86,47.77c.73,0,1.49,0,2.24,0s1.44,0,2.15,0A14.74,14.74,0,0,0,39,47.57a13.47,13.47,0,0,0,9.74-6.89l.11-.2A13.26,13.26,0,0,0,50.36,35c0-.88.08-1.79.08-2.67,0-.25,0-.44,0-.6a1,1,0,0,1,.25-.68,1,1,0,0,1,.81-.4A1.07,1.07,0,0,1,52.59,31.73Z"/><path class="cls-4" d="M38.47,42.52v.1a3.46,3.46,0,1,1-6.91,0v-.1s0,0,0,0a.18.18,0,0,1,.19-.18h6.51a.19.19,0,0,1,.19.18Z"/><path class="cls-4" d="M28.2,37.17a1.46,1.46,0,1,1-1.46-1.46A1.46,1.46,0,0,1,28.2,37.17Z"/><path class="cls-4" d="M44.72,37.17a1.46,1.46,0,1,1-1.46-1.46A1.46,1.46,0,0,1,44.72,37.17Z"/><path class="cls-4" d="M22.71,69.64l-.15,0a23,23,0,0,1-3.11-1,.63.63,0,0,1-.38-.71l.34-1.61a.61.61,0,0,1,.32-.43.64.64,0,0,1,.54,0,18.36,18.36,0,0,0,2.38.88.61.61,0,0,1,.42.77.63.63,0,0,1-.77.43c-.62-.19-1.23-.4-1.83-.64l-.07.35a24.13,24.13,0,0,0,2.46.77.62.62,0,0,1-.15,1.23Z"/><path class="cls-4" d="M51.52,31.73a6.86,6.86,0,0,1-3.13-.88,7.82,7.82,0,0,1-3.58-5.41h0A1.17,1.17,0,0,0,43,24.62a8.78,8.78,0,0,1-5,1.58,9.19,9.19,0,0,1-8.19-5.26c0,2.84-3,5.15-6.57,5.15h0a2.25,2.25,0,0,0-2.29,2.09,2.32,2.32,0,0,1-.06.46,4,4,0,0,1-2.33,3.09,12.39,12.39,0,0,0,0,4.46,14.91,14.91,0,0,0,1.83,5l-.05.14a3.39,3.39,0,0,1-2.41,2.06,3.45,3.45,0,0,1-4.31-3.12,3.84,3.84,0,0,1-1.75.24,3.48,3.48,0,0,1-3-2.86A3.4,3.4,0,0,1,12,33.75a3.37,3.37,0,0,1,0-3.25,3.28,3.28,0,0,1,2.06-1.61,3,3,0,0,1-.18-.55,2.52,2.52,0,0,1,0-.95,3.54,3.54,0,0,1,3.43-2.94c.53,0-.7-2-.7-3.55,0-2.77,2.75-5,6.22-5.18h0c0-.12,0-.25,0-.38a4.57,4.57,0,0,1,4.69-4.45,4.92,4.92,0,0,1,2.48.67,9.16,9.16,0,0,1,8-4.82,9.48,9.48,0,0,1,9.22,9.73v.35Z"/><path class="cls-4" d="M17.05,44.54a4.54,4.54,0,0,1-2.79-.94,4.41,4.41,0,0,1-1.51-2.06,4.42,4.42,0,0,1-1,0,4.55,4.55,0,0,1-4-3.76,4.38,4.38,0,0,1,.95-3.45A4.53,4.53,0,0,1,10.62,33a4.5,4.5,0,0,1,.47-3,4.39,4.39,0,0,1,1.73-1.74,3.94,3.94,0,0,1,0-1,4.61,4.61,0,0,1,3.31-3.67,8.43,8.43,0,0,1-.59-2.65c0-3.06,2.67-5.62,6.24-6.15a5.67,5.67,0,0,1,5.72-4.93,6.06,6.06,0,0,1,2.07.37A10.2,10.2,0,0,1,38,5.68,10.56,10.56,0,0,1,48.25,16.47v.38a1.07,1.07,0,1,1-2.14-.07v-.31A8.43,8.43,0,0,0,38,7.81a8.11,8.11,0,0,0-7,4.27,1.06,1.06,0,0,1-.66.51,1,1,0,0,1-.82-.11A3.83,3.83,0,0,0,27.52,12a3.52,3.52,0,0,0-3.62,3.38,2.11,2.11,0,0,0,0,.25v.13a1.07,1.07,0,0,1-1,1.07c-2.92.12-5.2,1.92-5.2,4.11a7,7,0,0,0,.49,2c.31.88.53,1.52.12,2.11a1.18,1.18,0,0,1-1,.51,2.49,2.49,0,0,0-2.4,2,1.56,1.56,0,0,0,0,.57,2.74,2.74,0,0,0,.11.34,1.07,1.07,0,0,1-.7,1.45A2.26,2.26,0,0,0,13,31a2.3,2.3,0,0,0,0,2.22,1.1,1.1,0,0,1,0,1,1.08,1.08,0,0,1-.88.55,2.47,2.47,0,0,0-1.76.88,2.3,2.3,0,0,0-.49,1.78,2.41,2.41,0,0,0,2.11,2,2.66,2.66,0,0,0,1.24-.18,1.07,1.07,0,0,1,1.46,1,2.26,2.26,0,0,0,.9,1.7,2.45,2.45,0,0,0,2.11.43,2.34,2.34,0,0,0,1.5-1.1,15.8,15.8,0,0,1-1.7-4.86,13.39,13.39,0,0,1,0-4.8,1.08,1.08,0,0,1,.73-.86,3,3,0,0,0,1.61-2.26,1.76,1.76,0,0,0,0-.31A3.34,3.34,0,0,1,23.19,25c3,0,5.49-1.84,5.51-4.09a1.07,1.07,0,0,1,.84-1,1.06,1.06,0,0,1,1.19.57A8.09,8.09,0,0,0,38,25.13a7.77,7.77,0,0,0,4.43-1.39,2.2,2.2,0,0,1,2.15-.2,2.23,2.23,0,0,1,1.32,1.73,6.74,6.74,0,0,0,3,4.65,5.85,5.85,0,0,0,2.66.74,1.07,1.07,0,0,1-.09,2.14,8,8,0,0,1-3.62-1,8.88,8.88,0,0,1-4.11-6.16.11.11,0,0,0-.07-.12.07.07,0,0,0-.08,0A9.89,9.89,0,0,1,38,27.27a10.06,10.06,0,0,1-7.81-3.77,7.91,7.91,0,0,1-6.95,3.65A1.18,1.18,0,0,0,22,28.22a4.38,4.38,0,0,1-.08.62,5.4,5.4,0,0,1-2.41,3.63A11.27,11.27,0,0,0,19.57,36a13.75,13.75,0,0,0,1.7,4.63,1,1,0,0,1,.09.88l-.06.18a4.5,4.5,0,0,1-3.17,2.73A5,5,0,0,1,17.05,44.54Z"/><path class="cls-4" d="M17.11,38.28A3.84,3.84,0,1,1,19,31.09a1.07,1.07,0,0,1-1,1.87,1.75,1.75,0,0,0-.83-.22,1.7,1.7,0,1,0,0,3.4,1.73,1.73,0,0,0,.86-.23,1.07,1.07,0,0,1,1.08,1.84A3.8,3.8,0,0,1,17.11,38.28Z"/><path class="cls-4" d="M28,52.12a5.78,5.78,0,0,0-.25.65c0,.08-1.44,4.44-1.72,5.66A50.31,50.31,0,0,0,24.82,73.9l.06.74c.05.51.1,1,.17,1.53q-.56-.09-1.11-.21h-.1l-.18,0c-1-.22-2.05-.47-3-.76L20,73.45l-.36-.93-1.25-3.27a1.34,1.34,0,0,1,.08-1.11L20,65.48l-1.53-2.36a1.28,1.28,0,0,1-.05-1.31l1-1.89,1.24-2.28,1.61-2.92a21.6,21.6,0,0,1,4-2A12.86,12.86,0,0,1,28,52.12Z"/><path class="cls-5" d="M62.91,32.07a7.43,7.43,0,0,1-4.06,6.45,6.36,6.36,0,0,1-5.94,4.86,5.52,5.52,0,0,1-2.5-.6l-.31-.16a15.58,15.58,0,0,1-7.05,6,16,16,0,0,1-3.1,1l-.26.05v1.9A22.5,22.5,0,0,1,56,65.22a5.85,5.85,0,0,1,.43,2.19,5.64,5.64,0,0,1-.12,1.16,5.94,5.94,0,0,1-3.49,4.32c-.57.24-1.16.46-1.78.69-.17-.59-.36-1.2-.58-1.83a1.72,1.72,0,0,0-.07-.21,48,48,0,0,0-5.05-10.45,48.05,48.05,0,0,0-5.64-7.18l-.24-.25c-.29-.31-.57-.58-.84-.85l-.33-.32V48.57a39.76,39.76,0,0,0,3.75-4,45.2,45.2,0,0,0,6.28-8.92,43.11,43.11,0,0,0,2.18-4.75,43.88,43.88,0,0,0,2.32-8c.28-1.47.47-2.84.59-4.09.1-.92.15-1.76.18-2.54a7.6,7.6,0,0,1,3.62,6.51,8.08,8.08,0,0,1-.29,2.15A7.78,7.78,0,0,1,62.91,32.07Z"/><path class="cls-5" d="M45.94,73.83c0,.25,0,.49,0,.74,0,.49-.08,1-.16,1.43a.3.3,0,0,1,0,.13c-.81.15-1.65.28-2.49.4a60.1,60.1,0,0,1-8.13.55,58.32,58.32,0,0,1-7.78-.51c-.84-.11-1.67-.24-2.49-.4-.06-.51-.11-1-.18-1.53,0-.25,0-.49-.05-.74a48.54,48.54,0,0,1,1.23-15.47c.3-1.22.66-2.43,1.07-3.63q.13-.44.3-.87l0-.12a1.76,1.76,0,0,1,.1-.3c.05-.16.11-.3.16-.45h0c.05-.09.08-.2.12-.28s.17-.43.26-.65A17.68,17.68,0,0,1,30,51.57h0V55c0,2.66,3.84,4.44,4.6,4.77a1.27,1.27,0,0,0,.47.09,1.34,1.34,0,0,0,.49-.1c.65-.31,3.57-1.72,4.36-3.75a2.61,2.61,0,0,0,.21-1V51.6a26.31,26.31,0,0,1,2.6.71.25.25,0,0,1,0,.11c.05.12.09.24.13.34.14.35.27.7.39,1.06l.08.24c.12.29.22.59.32.89a33.46,33.46,0,0,1,1,3.48c.27,1.09.5,2.21.69,3.31A47.83,47.83,0,0,1,45.94,73.83Z"/><path class="cls-5" d="M56.91,65.72a6.28,6.28,0,0,1,.44,2.39c-.36.15-.71.3-1.05.46a58.32,58.32,0,0,0-5.85,3.18,12.86,12.86,0,0,1-2.11,1.15,34.19,34.19,0,0,0-2.83-8.51,35.24,35.24,0,0,0-1.78-3.25,34.12,34.12,0,0,0-3.59-4.79c-.64-.72-1.27-1.36-1.86-1.91V48.57a39.76,39.76,0,0,0,3.75-4,45.2,45.2,0,0,0,6.28-8.92,43.11,43.11,0,0,0,2.18-4.75,43.88,43.88,0,0,0,2.32-8,.19.19,0,0,1,0,.07,36.66,36.66,0,0,1,.54,7.5h.27a4,4,0,1,1-1,7.84,15.94,15.94,0,0,1-2.19,4.57,16.55,16.55,0,0,1-2,2.39A16.48,16.48,0,0,1,40,49.52v2A22.16,22.16,0,0,1,44.48,53a.75.75,0,0,1,.13.06,23.58,23.58,0,0,1,5,3l.2.15,0,0A23.68,23.68,0,0,1,56.91,65.72Z"/><path class="cls-5" d="M57.11,68a6.17,6.17,0,0,1-3.75,5.67,36.74,36.74,0,0,1-4.11,1.46l.65-1.7.36-.94,1.25-3.26a1.28,1.28,0,0,0-.1-1.11l-1.55-2.66,1.53-2.36a1.28,1.28,0,0,0,0-1.31l-1-1.83-1.29-2.35-1.57-2.87a23.32,23.32,0,0,1,9.1,11A6,6,0,0,1,57.11,68Z"/><path class="cls-5" d="M18.43,61.81a1.28,1.28,0,0,0,.05,1.31L20,65.48l-1.57,2.66a1.34,1.34,0,0,0-.08,1.11l1.25,3.27.36.93.65,1.7a36.22,36.22,0,0,1-4.16-1.46,6.18,6.18,0,0,1-3.31-7.94,23.35,23.35,0,0,1,9.17-11l-1.61,2.92-1.24,2.28Z"/><path class="cls-4" d="M51.6,68.07a1.26,1.26,0,0,1,.09,1.12l-1.24,3.25-.36,1h0l-.64,1.69c-1,.28-2,.54-3,.76l-.18,0-.9.19c.07-.53.12-1,.16-1.57,0-.24,0-.48.05-.73a49.86,49.86,0,0,0-1.18-15.4c-.26-1.17-.59-2.34-1-3.48-.09-.3-.19-.61-.3-.89L43,53.76c-.12-.37-.23-.71-.38-1.06,0-.18-.12-.36-.18-.53a13.07,13.07,0,0,1,1.24.45h0a21.77,21.77,0,0,1,4,2.07l1.58,2.88,1.29,2.35,1,1.82a1.3,1.3,0,0,1,0,1.32l-1.53,2.36Z"/><path class="cls-2" d="M26.74,62.29a.63.63,0,0,1-.62-.55,13.29,13.29,0,0,1,2.94-10.32,8.54,8.54,0,0,1,6-3.27c4-.13,8.43,3.74,9.21,8.13a14.19,14.19,0,0,1,.12,1.5.63.63,0,0,1-.61.65.62.62,0,0,1-.65-.61A11.62,11.62,0,0,0,43,56.5c-.67-3.76-4.5-7.18-7.93-7.09A7.41,7.41,0,0,0,30,52.24a12,12,0,0,0-2.64,9.35.63.63,0,0,1-.55.7Z"/><circle class="cls-4" cx="27.08" cy="63.31" r="1.76"/><path class="cls-2" d="M27.08,65.58a2.28,2.28,0,1,1,2.27-2.27A2.28,2.28,0,0,1,27.08,65.58Zm0-3.29a1,1,0,1,0,0,2,1,1,0,0,0,0-2Z"/><path class="cls-2" d="M46.33,65.8h-.8a.63.63,0,1,1,0-1.26h.17V60.75a2,2,0,1,0-3.91,0v3.79H42a.63.63,0,0,1,0,1.26h-.82a.63.63,0,0,1-.63-.63V60.75a3.22,3.22,0,1,1,6.43,0v4.42A.63.63,0,0,1,46.33,65.8Z"/></g><rect class="cls-4" x="30.28" y="47.34" width="8" height="6.98"/><rect class="cls-5" x="38.28" y="48.55" width="1.65" height="3.62"/></g></svg>