<svg xmlns="http://www.w3.org/2000/svg" viewBox="0 0 70 70"><defs><style>.cls-1{fill:#c0cdd1;}.cls-2{fill:#fff;}.cls-3{fill:#e8eded;}.cls-4{fill:#ced6d8;}</style></defs><title>buildingAvatar</title><g id="cept_1" data-name="cept 1"><circle class="cls-1" cx="35" cy="35" r="34.83"/><path class="cls-2" d="M22.09,13.94v1.73H18V13.94a1.24,1.24,0,0,1,1.25-1.23h1.6A1.23,1.23,0,0,1,22.09,13.94Z"/><path class="cls-2" d="M46.79,29.51H58.62a0,0,0,0,1,0,0V53a.88.88,0,0,1-.88.88h-11a0,0,0,0,1,0,0V29.51A0,0,0,0,1,46.79,29.51Z"/><path class="cls-3" d="M58.62,29.51V52.77a1.09,1.09,0,0,1-1.09,1.09H53.66v-9H55V37.22H53.66V29.51Z"/><path class="cls-2" d="M13.83,52.74V20.87h33v33H14.92A1.09,1.09,0,0,1,13.83,52.74Z"/><rect class="cls-3" x="11.37" y="15.67" width="37.88" height="5.2" rx="1.5" ry="1.5"/><polygon class="cls-3" points="37.84 53.83 46.79 53.83 46.79 20.88 37.84 20.88 37.84 26.98 39.72 27.08 39.72 34.37 37.84 34.37 37.84 42.06 37.84 53.83"/><rect class="cls-3" x="35" y="26.85" width="4.82" height="4.19"/><rect class="cls-3" x="50.29" y="36.9" width="4.82" height="4.02"/><rect class="cls-3" x="20.88" y="26.85" width="4.82" height="2.87"/><path class="cls-3" d="M59.37,29.53H46.79v-5.2H59.37a1.88,1.88,0,0,1,1.89,1.89v1.42A1.89,1.89,0,0,1,59.37,29.53Z"/><path class="cls-4" d="M55.72,24.33h4a1.5,1.5,0,0,1,1.5,1.5V28a1.5,1.5,0,0,1-1.5,1.5h-4a0,0,0,0,1,0,0v-5.2A0,0,0,0,1,55.72,24.33Z"/><polygon class="cls-3" points="35.67 41.12 35.67 51.45 24.95 51.45 35.67 41.12"/><path class="cls-4" d="M35.63,52.05H25a.63.63,0,0,1-.63-.63V41.09a.64.64,0,0,1,.63-.63H35.63a.63.63,0,0,1,.63.63V51.42A.63.63,0,0,1,35.63,52.05Zm-10-1.26H35V41.72H25.62Z"/><path class="cls-4" d="M25.67,30.14H20.9a.63.63,0,0,1-.63-.63.64.64,0,0,1,.63-.63h4.77a.63.63,0,0,1,.63.63A.63.63,0,0,1,25.67,30.14Z"/><path class="cls-4" d="M39.72,31.3H35a.63.63,0,0,1-.63-.63A.64.64,0,0,1,35,30h4.77a.63.63,0,0,1,.63.63A.63.63,0,0,1,39.72,31.3Z"/><path class="cls-4" d="M25.67,35H20.9a.63.63,0,0,1-.63-.63V27a.63.63,0,0,1,.63-.63h4.77a.63.63,0,0,1,.63.63v7.39A.63.63,0,0,1,25.67,35Zm-4.14-1.26H25V27.61H21.53Z"/><path class="cls-4" d="M39.72,35H35a.63.63,0,0,1-.63-.63V27a.63.63,0,0,1,.63-.63h4.77a.63.63,0,0,1,.63.63v7.39A.63.63,0,0,1,39.72,35Zm-4.14-1.26h3.51V27.61H35.58Z"/><path class="cls-4" d="M55.09,41.67H50.32a.63.63,0,0,1,0-1.26h4.77a.63.63,0,1,1,0,1.26Z"/><path class="cls-4" d="M55.09,45.37H50.32a.64.64,0,0,1-.63-.63v-7.4a.63.63,0,0,1,.63-.63h4.77a.63.63,0,0,1,.63.63v7.4A.63.63,0,0,1,55.09,45.37ZM51,44.11h3.51V38H51Z"/><path class="cls-4" d="M41.47,40.18H39.54a.63.63,0,0,1-.63-.63.63.63,0,0,1,.63-.63h1.93a.63.63,0,0,1,.63.63A.63.63,0,0,1,41.47,40.18Z"/><path class="cls-4" d="M19,48.43H17.05a.63.63,0,0,1-.63-.63.63.63,0,0,1,.63-.63H19a.63.63,0,0,1,.63.63A.63.63,0,0,1,19,48.43Z"/><path class="cls-4" d="M42.93,42.3H41A.63.63,0,1,1,41,41h1.94a.63.63,0,0,1,0,1.26Z"/><path class="cls-4" d="M30.31,52.08a.63.63,0,0,1-.63-.63V41.09a.63.63,0,0,1,1.26,0V51.45A.63.63,0,0,1,30.31,52.08Z"/><path class="cls-4" d="M22.71,50.82h15.2a.59.59,0,0,1,.61.58v2.43H22.1V51.4A.59.59,0,0,1,22.71,50.82Z"/><path class="cls-3" d="M22.09,13.94v1.73H20.44v-3h.42A1.23,1.23,0,0,1,22.09,13.94Z"/><path class="cls-4" d="M39.53,15.67h8.23a1.5,1.5,0,0,1,1.5,1.5v2.2a1.5,1.5,0,0,1-1.5,1.5H39.53a0,0,0,0,1,0,0v-5.2A0,0,0,0,1,39.53,15.67Z"/></g></svg>