<svg xmlns="http://www.w3.org/2000/svg" viewBox="0 0 258.39 285.99"><title>icon_wello</title><path d="M250,132c0-67.36-53.73-122-120-122S10,64.61,10,132s53.73,122,120,122a118.5,118.5,0,0,0,15.74-1.17l10.44,12.07L169.28,280l6.36-19.11L182,241.78h0A122,122,0,0,0,250,132ZM83.85,111a9.38,9.38,0,1,1,9.23-9.38A9.31,9.31,0,0,1,83.85,111Zm34.28,46.08A23.86,23.86,0,0,1,94.46,133c0-.31.08-.6.09-.91H141.7c0,.31.09.6.09.91A23.86,23.86,0,0,1,118.13,157.1ZM146.7,111a9.38,9.38,0,1,1,9.23-9.38A9.31,9.31,0,0,1,146.7,111Z" style="fill:#82c455"/></svg>