<?xml version="1.0" encoding="utf-8"?>
<!-- Generator: Adobe Illustrator 21.0.2, SVG Export Plug-In . SVG Version: 6.00 Build 0)  -->
<svg version="1.1" id="Layer_1" xmlns="http://www.w3.org/2000/svg" xmlns:xlink="http://www.w3.org/1999/xlink" x="0px" y="0px"
	 viewBox="0 0 691.2 422" style="enable-background:new 0 0 691.2 422;" xml:space="preserve">
<style type="text/css">
	.st0{fill:#E5F8FA;}
	.st1{fill:#D4EAEE;}
	.st2{clip-path:url(#SVGID_2_);}
	.st3{fill:none;}
	.st4{fill:#A1D669;}
	.st5{fill:#99C961;}
	.st6{fill:#FFF5E5;}
	.st7{fill:#FED89E;}
	.st8{fill:#FFF5E6;}
	.st9{fill:#4E8899;}
	.st10{fill:#FD9F28;}
	.st11{fill:#FDBC57;}
	.st12{fill:#A2D46F;}
	.st13{fill:#E47650;}
</style>
<title>systemMaint2</title>
<g id="Layer_2">
	<g id="Layer_1-2">
		<path class="st0" d="M283.5,8c-12.4-2.3-25-3.5-37.7-3.8C136.4,2.4-17.8,96.2,1.7,222.2c9.4,61,62.8,105.6,117.5,134.3
			c146.4,76.7,329.5,77.4,477.8,4.5c41.1-20.2,83-50.4,92.4-95.3c5.9-28.2-2.6-58.2-18.8-82.1s-39.3-42.3-64-57.2
			c-59.2-35.6-127.4-52.5-192.3-76C371.1,34.8,328.1,15.9,283.5,8z"/>
		<path class="st1" d="M85.5,109.8c-0.6,0-1-0.4-1-1v-43c0-0.6,0.4-1,1-1s1,0.4,1,1v43C86.5,109.3,86.1,109.8,85.5,109.8z"/>
		<path class="st1" d="M103.5,109.8c-0.6,0-1-0.4-1-1v-43c0-0.6,0.4-1,1-1s1,0.4,1,1v43C104.5,109.3,104.1,109.8,103.5,109.8z"/>
		<path class="st1" d="M85.5,109.8c-0.6,0-1-0.4-1-1c0-0.2,0.1-0.5,0.2-0.6l17.5-20.9L84.7,66.4c-0.3-0.4-0.2-1.1,0.2-1.4
			c0.4-0.3,1-0.2,1.3,0.1l18,21.5c0.3,0.4,0.3,0.9,0,1.3l-18,21.5C86.1,109.7,85.8,109.8,85.5,109.8z"/>
		<path class="st1" d="M103.5,109.8c-0.3,0-0.6-0.1-0.8-0.4l-18-21.5c-0.3-0.4-0.3-0.9,0-1.3l18-21.5c0.3-0.4,0.9-0.5,1.4-0.2
			c0.4,0.3,0.5,0.9,0.2,1.4c0,0-0.1,0.1-0.1,0.1L86.8,87.3l17.5,20.9c0.4,0.4,0.3,1.1-0.1,1.4C104,109.7,103.8,109.8,103.5,109.8z"
			/>
		<path class="st1" d="M85.5,158.6c-0.6,0-1-0.4-1-1v-43c0-0.6,0.4-1,1-1s1,0.4,1,1v43C86.5,158.2,86.1,158.6,85.5,158.6z"/>
		<path class="st1" d="M103.5,158.6c-0.6,0-1-0.4-1-1v-43c0-0.6,0.4-1,1-1s1,0.4,1,1v43C104.5,158.2,104.1,158.6,103.5,158.6z"/>
		<path class="st1" d="M85.5,158.6c-0.6,0-1-0.4-1-1c0-0.2,0.1-0.5,0.2-0.6l17.5-20.9l-17.5-20.9c-0.4-0.4-0.5-1-0.1-1.4
			c0.4-0.4,1-0.5,1.4-0.1c0.1,0.1,0.2,0.2,0.2,0.3l18,21.5c0.3,0.4,0.3,0.9,0,1.3l-18,21.5C86.1,158.5,85.8,158.7,85.5,158.6z"/>
		<path class="st1" d="M103.5,158.6c-0.3,0-0.6-0.1-0.8-0.4l-18-21.5c-0.3-0.4-0.3-0.9,0-1.3l18-21.5c0.3-0.4,0.9-0.5,1.4-0.2
			c0.4,0.3,0.5,0.9,0.2,1.4c0,0-0.1,0.1-0.1,0.1l-17.5,20.9l17.5,20.9c0.4,0.4,0.3,1.1-0.1,1.4C104,158.6,103.8,158.6,103.5,158.6
			L103.5,158.6z"/>
		<path class="st1" d="M85.5,207.5c-0.6,0-1-0.4-1-1v-43c0-0.6,0.4-1,1-1s1,0.4,1,1v43C86.5,207.1,86.1,207.5,85.5,207.5z"/>
		<path class="st1" d="M103.5,207.5c-0.6,0-1-0.4-1-1v-43c0-0.6,0.4-1,1-1s1,0.4,1,1v43C104.5,207.1,104.1,207.5,103.5,207.5z"/>
		<path class="st1" d="M109.3,208.4v2c0,1.6-1.3,2.9-2.9,2.9H81.8c-1.6,0-2.9-1.3-2.9-2.9v-2c0-1.6,1.3-2.9,2.9-2.9h0h24.5
			C107.9,205.5,109.3,206.8,109.3,208.4L109.3,208.4z"/>
		<path class="st1" d="M109.3,159.6v2c0,1.6-1.3,2.9-2.9,2.9H81.8c-1.6,0-2.9-1.3-2.9-2.9v-2c0-1.6,1.3-2.9,2.9-2.9h24.5
			C107.9,156.6,109.3,158,109.3,159.6z"/>
		<path class="st1" d="M109.3,110.7v2c0,1.6-1.3,2.9-2.9,2.9h0H81.8c-1.6,0-2.9-1.3-2.9-2.9l0,0v-2c0-1.6,1.3-2.9,2.9-2.9h24.5
			C107.9,107.8,109.3,109.1,109.3,110.7z"/>
		<path class="st1" d="M85.5,207.5c-0.6,0-1-0.4-1-1c0-0.2,0.1-0.5,0.2-0.6l17.5-20.9l-17.5-20.9c-0.3-0.4-0.2-1.1,0.2-1.4
			c0.4-0.3,1-0.2,1.3,0.1l18,21.5c0.3,0.4,0.3,0.9,0,1.3l-18,21.5C86.1,207.4,85.8,207.5,85.5,207.5z"/>
		<path class="st1" d="M103.5,207.5c-0.3,0-0.6-0.1-0.8-0.4l-18-21.5c-0.3-0.4-0.3-0.9,0-1.3l18-21.5c0.3-0.4,0.9-0.5,1.4-0.2
			c0.4,0.3,0.5,0.9,0.2,1.4c0,0-0.1,0.1-0.1,0.1L86.8,185l17.5,20.9c0.4,0.4,0.3,1.1-0.1,1.4C104,207.4,103.8,207.5,103.5,207.5
			L103.5,207.5z"/>
		<path class="st1" d="M85.5,256.4c-0.6,0-1-0.4-1-1v-43c0-0.6,0.4-1,1-1s1,0.4,1,1v43C86.5,255.9,86.1,256.4,85.5,256.4z"/>
		<path class="st1" d="M103.5,256.4c-0.6,0-1-0.4-1-1v-43c0-0.6,0.4-1,1-1s1,0.4,1,1v43C104.5,255.9,104.1,256.4,103.5,256.4z"/>
		<path class="st1" d="M85.5,256.4c-0.6,0-1-0.4-1-1c0-0.2,0.1-0.5,0.2-0.6l17.5-20.9L84.7,213c-0.4-0.4-0.4-1,0-1.4
			c0.4-0.4,1-0.4,1.4,0c0,0,0.1,0.1,0.1,0.1l18,21.5c0.3,0.4,0.3,0.9,0,1.3l-18,21.5C86.1,256.2,85.8,256.4,85.5,256.4z"/>
		<path class="st1" d="M103.5,256.4c-0.3,0-0.6-0.1-0.8-0.4l-18-21.5c-0.3-0.4-0.3-0.9,0-1.3l18-21.5c0.3-0.4,0.9-0.5,1.4-0.2
			c0.4,0.3,0.5,0.9,0.2,1.4c0,0-0.1,0.1-0.1,0.1l-17.5,20.9l17.5,20.9c0.4,0.4,0.3,1.1-0.1,1.4C104,256.3,103.8,256.4,103.5,256.4
			L103.5,256.4z"/>
		<path class="st1" d="M170.3,109.8c-0.6,0-1-0.4-1-1v-43c0-0.6,0.4-1,1-1s1,0.4,1,1v43C171.3,109.3,170.9,109.8,170.3,109.8z"/>
		<path class="st1" d="M188.3,109.8c-0.6,0-1-0.4-1-1v-43c0-0.6,0.4-1,1-1s1,0.4,1,1v43C189.3,109.3,188.9,109.8,188.3,109.8z"/>
		<path class="st1" d="M170.3,109.8c-0.6,0-1-0.4-1-1c0-0.2,0.1-0.5,0.2-0.6L187,87.3l-17.5-20.9c-0.3-0.4-0.2-1.1,0.2-1.4
			c0.4-0.3,1-0.2,1.3,0.1l18,21.5c0.3,0.4,0.3,0.9,0,1.3l-18,21.5C170.9,109.6,170.6,109.8,170.3,109.8z"/>
		<path class="st1" d="M188.3,109.8c-0.3,0-0.6-0.1-0.8-0.4l-18-21.5c-0.3-0.4-0.3-0.9,0-1.3l18-21.5c0.3-0.4,0.9-0.5,1.4-0.2
			c0.4,0.3,0.5,0.9,0.2,1.4c0,0-0.1,0.1-0.1,0.1l-17.5,20.9l17.5,20.9c0.4,0.4,0.3,1.1-0.1,1.4C188.8,109.7,188.6,109.8,188.3,109.8
			L188.3,109.8z"/>
		<path class="st1" d="M170.3,158.6c-0.6,0-1-0.4-1-1v-43c0-0.6,0.4-1,1-1s1,0.4,1,1v43C171.3,158.2,170.9,158.6,170.3,158.6z"/>
		<path class="st1" d="M188.3,158.6c-0.6,0-1-0.4-1-1v-43c0-0.6,0.4-1,1-1s1,0.4,1,1v43C189.3,158.2,188.9,158.6,188.3,158.6z"/>
		<path class="st1" d="M170.3,158.6c-0.6,0-1-0.4-1-1c0-0.2,0.1-0.5,0.2-0.6l17.4-20.9l-17.5-20.9c-0.4-0.4-0.4-1,0-1.4
			c0.4-0.4,1-0.4,1.4,0c0,0,0.1,0.1,0.1,0.1l18,21.5c0.3,0.4,0.3,0.9,0,1.3l-18,21.5C170.9,158.5,170.6,158.6,170.3,158.6z"/>
		<path class="st1" d="M188.3,158.6c-0.3,0-0.6-0.1-0.8-0.4l-18-21.5c-0.3-0.4-0.3-0.9,0-1.3l18-21.5c0.3-0.4,0.9-0.5,1.4-0.2
			c0.4,0.3,0.5,0.9,0.2,1.4c0,0-0.1,0.1-0.1,0.1l-17.5,20.9l17.5,20.9c0.4,0.4,0.3,1.1-0.1,1.4C188.8,158.6,188.6,158.6,188.3,158.6
			L188.3,158.6z"/>
		<path class="st1" d="M170.3,207.5c-0.6,0-1-0.4-1-1v-43c0-0.6,0.4-1,1-1s1,0.4,1,1v43C171.3,207.1,170.9,207.5,170.3,207.5z"/>
		<path class="st1" d="M188.3,207.5c-0.6,0-1-0.4-1-1v-43c0-0.6,0.4-1,1-1s1,0.4,1,1v43C189.3,207.1,188.9,207.5,188.3,207.5z"/>
		<path class="st1" d="M194.1,208.4v2c0,1.6-1.3,2.9-2.9,2.9h-24.5c-1.6,0-2.9-1.3-2.9-2.9v-2c0-1.6,1.3-2.9,2.9-2.9c0,0,0,0,0,0
			h24.5C192.8,205.5,194.1,206.8,194.1,208.4L194.1,208.4z"/>
		<path class="st1" d="M194.1,110.7v2c0,1.6-1.3,2.9-2.9,2.9c0,0,0,0,0,0h-24.5c-1.6,0-2.9-1.3-2.9-2.9l0,0v-2
			c0-1.6,1.3-2.9,2.9-2.9h24.5C192.8,107.8,194.1,109.1,194.1,110.7z"/>
		<path class="st1" d="M194.1,159.6v2c0,1.6-1.3,2.9-2.9,2.9h-24.5c-1.6,0-2.9-1.3-2.9-2.9v-2c0-1.6,1.3-2.9,2.9-2.9h24.5
			C192.8,156.6,194.1,158,194.1,159.6z"/>
		<path class="st1" d="M170.3,207.5c-0.6,0-1-0.4-1-1c0-0.2,0.1-0.5,0.2-0.6L187,185l-17.4-20.9c-0.3-0.4-0.2-1.1,0.2-1.4
			c0.4-0.3,1-0.2,1.3,0.1l18,21.5c0.3,0.4,0.3,0.9,0,1.3l-18,21.5C170.9,207.4,170.6,207.5,170.3,207.5z"/>
		<path class="st1" d="M188.3,207.5c-0.3,0-0.6-0.1-0.8-0.4l-18-21.5c-0.3-0.4-0.3-0.9,0-1.3l18-21.5c0.3-0.4,0.9-0.5,1.4-0.2
			c0.4,0.3,0.5,0.9,0.2,1.4c0,0-0.1,0.1-0.1,0.1L171.6,185l17.5,20.9c0.4,0.4,0.3,1.1-0.1,1.4C188.8,207.4,188.6,207.5,188.3,207.5
			L188.3,207.5z"/>
		<path class="st1" d="M170.3,256.4c-0.6,0-1-0.4-1-1v-43c0-0.6,0.4-1,1-1s1,0.4,1,1v43C171.3,255.9,170.9,256.4,170.3,256.4z"/>
		<path class="st1" d="M188.3,256.4c-0.6,0-1-0.4-1-1v-43c0-0.6,0.4-1,1-1s1,0.4,1,1v43C189.3,255.9,188.9,256.4,188.3,256.4z"/>
		<path class="st1" d="M170.3,256.4c-0.6,0-1-0.4-1-1c0-0.2,0.1-0.5,0.2-0.6l17.4-20.9L169.6,213c-0.4-0.4-0.4-1,0-1.4
			c0.4-0.4,1-0.4,1.4,0c0,0,0.1,0.1,0.1,0.1l18,21.5c0.3,0.4,0.3,0.9,0,1.3l-18,21.5C170.9,256.3,170.6,256.4,170.3,256.4z"/>
		<path class="st1" d="M188.3,256.4c-0.3,0-0.6-0.1-0.8-0.4l-18-21.5c-0.3-0.4-0.3-0.9,0-1.3l18-21.5c0.4-0.4,1-0.5,1.4-0.1
			s0.5,1,0.1,1.4l-17.5,20.9l17.5,20.9c0.4,0.4,0.3,1.1-0.1,1.4C188.8,256.3,188.6,256.4,188.3,256.4L188.3,256.4z"/>
		<path class="st1" d="M170.3,115.6h-66.8c-0.6,0-1-0.4-1-1s0.4-1,1-1h66.8c0.6,0,1,0.4,1,1S170.9,115.6,170.3,115.6L170.3,115.6z"
			/>
		<path class="st1" d="M170.3,164.5h-66.8c-0.6,0-1-0.4-1-1s0.4-1,1-1h66.8c0.6,0,1,0.4,1,1S170.9,164.5,170.3,164.5L170.3,164.5z"
			/>
		<path class="st1" d="M170.3,213.3h-66.8c-0.6,0-1-0.4-1-1s0.4-1,1-1h66.8c0.6,0,1,0.4,1,1S170.9,213.3,170.3,213.3L170.3,213.3z"
			/>
		<path class="st1" d="M419.3,109.8c-0.6,0-1-0.4-1-1v-43c0-0.6,0.4-1,1-1s1,0.4,1,1v43C420.3,109.3,419.9,109.8,419.3,109.8z"/>
		<path class="st1" d="M437.3,109.8c-0.6,0-1-0.4-1-1v-43c0-0.6,0.4-1,1-1s1,0.4,1,1v43C438.3,109.3,437.9,109.8,437.3,109.8z"/>
		<path class="st1" d="M419.3,109.8c-0.6,0-1-0.4-1-1c0-0.2,0.1-0.5,0.2-0.6L436,87.3l-17.5-20.9c-0.3-0.4-0.2-1.1,0.2-1.4
			c0.4-0.3,1-0.2,1.3,0.1l18,21.5c0.3,0.4,0.3,0.9,0,1.3l-18,21.5C419.9,109.7,419.6,109.8,419.3,109.8z"/>
		<path class="st1" d="M437.3,109.8c-0.3,0-0.6-0.1-0.8-0.4l-18-21.5c-0.3-0.4-0.3-0.9,0-1.3l18-21.5c0.4-0.4,1-0.4,1.4,0
			c0.4,0.3,0.4,0.9,0.1,1.3l-17.5,20.9l17.5,20.9c0.4,0.4,0.3,1.1-0.1,1.4C437.8,109.7,437.5,109.8,437.3,109.8L437.3,109.8z"/>
		<path class="st1" d="M419.3,158.6c-0.6,0-1-0.4-1-1v-43c0-0.6,0.4-1,1-1s1,0.4,1,1v43C420.3,158.2,419.9,158.6,419.3,158.6z"/>
		<path class="st1" d="M437.3,158.6c-0.6,0-1-0.4-1-1v-43c0-0.6,0.4-1,1-1s1,0.4,1,1v43C438.3,158.2,437.9,158.6,437.3,158.6z"/>
		<path class="st1" d="M419.3,158.6c-0.6,0-1-0.4-1-1c0-0.2,0.1-0.5,0.2-0.6l17.5-20.9l-17.5-20.9c-0.3-0.4-0.2-1.1,0.2-1.4
			c0.4-0.3,1-0.2,1.3,0.1l18,21.5c0.3,0.4,0.3,0.9,0,1.3l-18,21.5C419.9,158.5,419.6,158.6,419.3,158.6z"/>
		<path class="st1" d="M437.3,158.6c-0.3,0-0.6-0.1-0.8-0.4l-18-21.5c-0.3-0.4-0.3-0.9,0-1.3l18-21.5c0.4-0.4,1-0.4,1.4,0
			c0.4,0.3,0.4,0.9,0.1,1.3l-17.5,20.9l17.5,20.9c0.4,0.4,0.3,1.1-0.1,1.4C437.8,158.6,437.5,158.6,437.3,158.6L437.3,158.6z"/>
		<path class="st1" d="M419.3,207.5c-0.6,0-1-0.4-1-1v-43c0-0.6,0.4-1,1-1s1,0.4,1,1v43C420.3,207.1,419.9,207.5,419.3,207.5z"/>
		<path class="st1" d="M437.3,207.5c-0.6,0-1-0.4-1-1v-43c0-0.6,0.4-1,1-1s1,0.4,1,1v43C438.3,207.1,437.9,207.5,437.3,207.5z"/>
		<path class="st1" d="M415.6,205.5h24.5c1.6,0,2.9,1.3,2.9,2.9v2c0,1.6-1.3,2.9-2.9,2.9h-24.5c-1.6,0-2.9-1.3-2.9-2.9v-2
			C412.7,206.8,414,205.5,415.6,205.5z"/>
		<path class="st1" d="M443,110.7v2c0,1.6-1.3,2.9-2.9,2.9h0h-24.5c-1.6,0-2.9-1.3-2.9-2.9v0v-2c0-1.6,1.3-2.9,2.9-2.9h24.5
			C441.7,107.8,443,109.1,443,110.7z"/>
		<path class="st1" d="M443,159.6v2c0,1.6-1.3,2.9-2.9,2.9h-24.5c-1.6,0-2.9-1.3-2.9-2.9v-2c0-1.6,1.3-2.9,2.9-2.9h24.5
			C441.7,156.7,443,158,443,159.6z"/>
		<path class="st1" d="M419.3,207.5c-0.6,0-1-0.4-1-1c0-0.2,0.1-0.5,0.2-0.6L436,185l-17.5-20.9c-0.3-0.4-0.2-1.1,0.2-1.4
			c0.4-0.3,1-0.2,1.3,0.1l18,21.5c0.3,0.4,0.3,0.9,0,1.3l-18,21.5C419.9,207.4,419.6,207.5,419.3,207.5z"/>
		<path class="st1" d="M437.3,207.5c-0.3,0-0.6-0.1-0.8-0.4l-18-21.5c-0.3-0.4-0.3-0.9,0-1.3l18-21.5c0.4-0.4,1-0.4,1.4,0
			c0.4,0.3,0.4,0.9,0.1,1.3L420.6,185l17.5,20.9c0.4,0.4,0.3,1.1-0.1,1.4C437.8,207.4,437.6,207.5,437.3,207.5L437.3,207.5z"/>
		<path class="st1" d="M419.3,256.4c-0.6,0-1-0.4-1-1v-43c0-0.6,0.4-1,1-1s1,0.4,1,1v43C420.3,255.9,419.9,256.4,419.3,256.4z"/>
		<path class="st1" d="M437.3,256.4c-0.6,0-1-0.4-1-1v-43c0-0.6,0.4-1,1-1s1,0.4,1,1v43C438.3,255.9,437.9,256.4,437.3,256.4z"/>
		<path class="st1" d="M419.3,256.4c-0.6,0-1-0.4-1-1c0-0.2,0.1-0.5,0.2-0.6l17.5-20.9L418.5,213c-0.4-0.4-0.4-1,0-1.4
			c0.4-0.4,1-0.4,1.4,0c0,0,0.1,0.1,0.1,0.1l18,21.5c0.3,0.4,0.3,0.9,0,1.3l-18,21.5C419.9,256.3,419.6,256.4,419.3,256.4z"/>
		<path class="st1" d="M437.3,256.4c-0.3,0-0.6-0.1-0.8-0.4l-18-21.5c-0.3-0.4-0.3-0.9,0-1.3l18-21.5c0.4-0.4,1-0.4,1.4,0
			c0.4,0.3,0.4,0.9,0.1,1.3l-17.5,20.9l17.5,20.9c0.4,0.4,0.3,1.1-0.1,1.4C437.8,256.3,437.5,256.4,437.3,256.4L437.3,256.4z"/>
		<path class="st1" d="M504.1,109.8c-0.6,0-1-0.4-1-1v-43c0-0.6,0.4-1,1-1s1,0.4,1,1v43C505.1,109.3,504.7,109.8,504.1,109.8z"/>
		<path class="st1" d="M522.1,109.8c-0.6,0-1-0.4-1-1v-43c0-0.6,0.4-1,1-1s1,0.4,1,1v43C523.1,109.3,522.7,109.8,522.1,109.8z"/>
		<path class="st1" d="M504.1,109.8c-0.6,0-1-0.4-1-1c0-0.2,0.1-0.5,0.2-0.6l17.5-20.9l-17.5-20.9c-0.3-0.4-0.2-1.1,0.2-1.4
			c0.4-0.3,1-0.2,1.3,0.1l18,21.5c0.3,0.4,0.3,0.9,0,1.3l-18,21.5C504.7,109.7,504.4,109.8,504.1,109.8z"/>
		<path class="st1" d="M522.1,109.8c-0.3,0-0.6-0.1-0.8-0.4l-18-21.5c-0.3-0.4-0.3-0.9,0-1.3l18-21.5c0.4-0.4,1-0.4,1.4,0
			c0.4,0.3,0.4,0.9,0.1,1.3l-17.5,20.9l17.5,20.9c0.4,0.4,0.3,1.1-0.1,1.4C522.6,109.7,522.4,109.8,522.1,109.8L522.1,109.8z"/>
		<path class="st1" d="M504.1,158.6c-0.6,0-1-0.4-1-1v-43c0-0.6,0.4-1,1-1s1,0.4,1,1v43C505.1,158.2,504.7,158.6,504.1,158.6z"/>
		<path class="st1" d="M522.1,158.6c-0.6,0-1-0.4-1-1v-43c0-0.6,0.4-1,1-1s1,0.4,1,1v43C523.1,158.2,522.7,158.6,522.1,158.6z"/>
		<path class="st1" d="M504.1,158.6c-0.6,0-1-0.4-1-1c0-0.2,0.1-0.5,0.2-0.6l17.5-20.9l-17.5-20.9c-0.3-0.4-0.2-1.1,0.2-1.4
			c0.4-0.3,1-0.2,1.3,0.1l18,21.5c0.3,0.4,0.3,0.9,0,1.3l-18,21.5C504.7,158.5,504.4,158.6,504.1,158.6z"/>
		<path class="st1" d="M522.1,158.6c-0.3,0-0.6-0.1-0.8-0.4l-18-21.5c-0.3-0.4-0.3-0.9,0-1.3l18-21.5c0.4-0.4,1-0.4,1.4,0
			c0.4,0.3,0.4,0.9,0.1,1.3l-17.5,20.9l17.5,20.9c0.4,0.4,0.3,1.1-0.1,1.4C522.6,158.6,522.4,158.6,522.1,158.6L522.1,158.6z"/>
		<path class="st1" d="M504.1,207.5c-0.6,0-1-0.4-1-1v-43c0-0.6,0.4-1,1-1s1,0.4,1,1v43C505.1,207.1,504.7,207.5,504.1,207.5z"/>
		<path class="st1" d="M522.1,207.5c-0.6,0-1-0.4-1-1v-43c0-0.6,0.4-1,1-1s1,0.4,1,1v43C523.1,207.1,522.7,207.5,522.1,207.5z"/>
		<path class="st1" d="M527.9,208.4v2c0,1.6-1.3,2.9-2.9,2.9h-24.5c-1.6,0-2.9-1.3-2.9-2.9v-2c0-1.6,1.3-2.9,2.9-2.9h0h24.5
			C526.6,205.5,527.9,206.8,527.9,208.4z"/>
		<path class="st1" d="M527.9,159.6v2c0,1.6-1.3,2.9-2.9,2.9h-24.5c-1.6,0-2.9-1.3-2.9-2.9v-2c0-1.6,1.3-2.9,2.9-2.9h24.5
			C526.6,156.6,527.9,158,527.9,159.6z"/>
		<path class="st1" d="M527.9,110.7v2c0,1.6-1.3,2.9-2.9,2.9h-24.5c-1.6,0-2.9-1.3-2.9-2.9v0v-2c0-1.6,1.3-2.9,2.9-2.9h24.5
			C526.6,107.8,527.9,109.1,527.9,110.7z"/>
		<path class="st1" d="M504.1,207.5c-0.6,0-1-0.4-1-1c0-0.2,0.1-0.5,0.2-0.6l17.5-20.9l-17.5-20.9c-0.3-0.4-0.2-1.1,0.2-1.4
			c0.4-0.3,1-0.2,1.3,0.1l18,21.5c0.3,0.4,0.3,0.9,0,1.3l-18,21.5C504.7,207.4,504.4,207.5,504.1,207.5z"/>
		<path class="st1" d="M522.1,207.5c-0.3,0-0.6-0.1-0.8-0.4l-18-21.5c-0.3-0.4-0.3-0.9,0-1.3l18-21.5c0.4-0.4,1-0.4,1.4,0
			c0.4,0.3,0.4,0.9,0.1,1.3L505.4,185l17.5,20.9c0.4,0.4,0.3,1.1-0.1,1.4C522.6,207.4,522.4,207.5,522.1,207.5L522.1,207.5z"/>
		<path class="st1" d="M504.1,256.4c-0.6,0-1-0.4-1-1v-43c0-0.6,0.4-1,1-1s1,0.4,1,1v43C505.1,255.9,504.7,256.4,504.1,256.4z"/>
		<path class="st1" d="M522.1,256.4c-0.6,0-1-0.4-1-1v-43c0-0.6,0.4-1,1-1s1,0.4,1,1v43C523.1,255.9,522.7,256.4,522.1,256.4z"/>
		<path class="st1" d="M504.1,256.4c-0.6,0-1-0.4-1-1c0-0.2,0.1-0.5,0.2-0.6l17.5-20.9L503.4,213c-0.4-0.4-0.4-1,0-1.4
			c0.4-0.4,1-0.4,1.4,0c0,0,0.1,0.1,0.1,0.1l18,21.5c0.3,0.4,0.3,0.9,0,1.3l-18,21.5C504.7,256.3,504.4,256.4,504.1,256.4z"/>
		<path class="st1" d="M522.1,256.4c-0.3,0-0.6-0.1-0.8-0.4l-18-21.5c-0.3-0.4-0.3-0.9,0-1.3l18-21.5c0.4-0.4,1-0.4,1.4,0
			c0.4,0.3,0.4,0.9,0.1,1.3l-17.5,20.9l17.5,20.9c0.4,0.4,0.3,1.1-0.1,1.4C522.6,256.3,522.4,256.4,522.1,256.4L522.1,256.4z"/>
		<path class="st1" d="M504.1,115.6h-66.8c-0.6,0-1-0.4-1-1s0.4-1,1-1h66.8c0.6,0,1,0.4,1,1S504.7,115.6,504.1,115.6L504.1,115.6z"
			/>
		<path class="st1" d="M504.1,164.5h-66.8c-0.6,0-1-0.4-1-1s0.4-1,1-1h66.8c0.6,0,1,0.4,1,1S504.7,164.5,504.1,164.5L504.1,164.5z"
			/>
		<path class="st1" d="M504.1,213.3h-66.8c-0.6,0-1-0.4-1-1s0.4-1,1-1h66.8c0.6,0,1,0.4,1,1S504.7,213.3,504.1,213.3L504.1,213.3z"
			/>
		<path class="st1" d="M331.6,207.5c-0.6,0-1-0.4-1-1v-43c0-0.6,0.4-1,1-1s1,0.4,1,1v43C332.6,207.1,332.1,207.5,331.6,207.5z"/>
		<path class="st1" d="M349.6,207.5c-0.6,0-1-0.4-1-1v-43c0-0.6,0.4-1,1-1s1,0.4,1,1v43C350.6,207.1,350.1,207.5,349.6,207.5z"/>
		<path class="st1" d="M355.3,159.6v2c0,1.6-1.3,2.9-2.9,2.9h-24.5c-1.6,0-2.9-1.3-2.9-2.9v-2c0-1.6,1.3-2.9,2.9-2.9h24.5
			C354,156.6,355.3,158,355.3,159.6z"/>
		<path class="st1" d="M355.3,208.4v2c0,1.6-1.3,2.9-2.9,2.9h-24.5c-1.6,0-2.9-1.3-2.9-2.9v-2c0-1.6,1.3-2.9,2.9-2.9h24.5
			C354,205.5,355.3,206.8,355.3,208.4L355.3,208.4z"/>
		<path class="st1" d="M331.6,207.5c-0.6,0-1-0.4-1-1c0-0.2,0.1-0.5,0.2-0.6l17.5-20.9l-17.5-20.9c-0.3-0.4-0.2-1.1,0.2-1.4
			c0.4-0.3,1-0.2,1.3,0.1l18,21.5c0.3,0.4,0.3,0.9,0,1.3l-18,21.5C332.2,207.4,331.9,207.5,331.6,207.5z"/>
		<path class="st1" d="M349.6,207.5c-0.3,0-0.6-0.1-0.8-0.4l-18-21.5c-0.3-0.4-0.3-0.9,0-1.3l18-21.5c0.4-0.4,1-0.4,1.4,0
			c0.4,0.3,0.4,0.9,0.1,1.3L332.9,185l17.5,20.9c0.4,0.4,0.3,1.1-0.1,1.4C350.1,207.4,349.8,207.5,349.6,207.5L349.6,207.5z"/>
		<path class="st1" d="M331.6,256.4c-0.6,0-1-0.4-1-1v-43c0-0.6,0.4-1,1-1s1,0.4,1,1v43C332.6,255.9,332.1,256.4,331.6,256.4z"/>
		<path class="st1" d="M349.6,256.4c-0.6,0-1-0.4-1-1v-43c0-0.6,0.4-1,1-1s1,0.4,1,1v43C350.6,255.9,350.1,256.4,349.6,256.4z"/>
		<path class="st1" d="M331.6,256.4c-0.6,0-1-0.4-1-1c0-0.2,0.1-0.5,0.2-0.6l17.5-20.9L330.8,213c-0.4-0.4-0.4-1,0-1.4
			c0.4-0.4,1-0.4,1.4,0c0,0,0.1,0.1,0.1,0.1l18,21.5c0.3,0.4,0.3,0.9,0,1.3l-18,21.5C332.1,256.3,331.9,256.4,331.6,256.4z"/>
		<path class="st1" d="M349.6,256.4c-0.3,0-0.6-0.1-0.8-0.4l-18-21.5c-0.3-0.4-0.3-0.9,0-1.3l18-21.5c0.4-0.4,1-0.4,1.4,0
			c0.4,0.3,0.4,0.9,0.1,1.3l-17.5,20.9l17.5,20.9c0.4,0.4,0.3,1.1-0.1,1.4C350,256.3,349.8,256.4,349.6,256.4L349.6,256.4z"/>
		<path class="st1" d="M416.4,164.5h-66.8c-0.6,0-1-0.4-1-1s0.4-1,1-1h66.8c0.6,0,1,0.4,1,1S416.9,164.5,416.4,164.5L416.4,164.5z"
			/>
		<path class="st1" d="M416.4,213.3h-66.8c-0.6,0-1-0.4-1-1s0.4-1,1-1h66.8c0.6,0,1,0.4,1,1S416.9,213.3,416.4,213.3L416.4,213.3z"
			/>
		<path class="st1" d="M615.8,159.6v2c0,1.6-1.3,2.9-2.9,2.9h-24.5c-1.6,0-2.9-1.3-2.9-2.9v-2c0-1.6,1.3-2.9,2.9-2.9h24.5
			C614.5,156.6,615.8,158,615.8,159.6z"/>
		<path class="st1" d="M609.2,207.5c-0.6,0-1-0.4-1-1v-43c0-0.6,0.4-1,1-1s1,0.4,1,1v43C610.2,207.1,609.8,207.5,609.2,207.5z"/>
		<path class="st1" d="M591.2,207.5c-0.6,0-1-0.4-1-1v-43c0-0.6,0.4-1,1-1s1,0.4,1,1v43C592.2,207.1,591.8,207.5,591.2,207.5z"/>
		<path class="st1" d="M615.8,208.4v2c0,1.6-1.3,2.9-2.9,2.9h-24.5c-1.6,0-2.9-1.3-2.9-2.9v-2c0-1.6,1.3-2.9,2.9-2.9h24.5
			C614.5,205.5,615.8,206.8,615.8,208.4z"/>
		<path class="st1" d="M609.2,207.5c-0.3,0-0.6-0.1-0.8-0.4l-18-21.5c-0.3-0.4-0.3-0.9,0-1.3l18-21.5c0.4-0.4,1-0.5,1.4-0.1
			c0.4,0.4,0.5,1,0.1,1.4L592.5,185l17.5,20.9c0.4,0.4,0.3,1.1-0.1,1.4C609.7,207.4,609.5,207.5,609.2,207.5L609.2,207.5z"/>
		<path class="st1" d="M591.2,207.5c-0.6,0-1-0.4-1-1c0-0.2,0.1-0.5,0.2-0.6l17.5-20.9l-17.5-20.9c-0.3-0.4-0.2-1.1,0.2-1.4
			c0.4-0.3,1-0.2,1.3,0.1l18,21.5c0.3,0.4,0.3,0.9,0,1.3l-18,21.5C591.8,207.4,591.5,207.5,591.2,207.5z"/>
		<path class="st1" d="M609.2,256.4c-0.6,0-1-0.4-1-1v-43c0-0.6,0.4-1,1-1s1,0.4,1,1v43C610.2,255.9,609.8,256.4,609.2,256.4z"/>
		<path class="st1" d="M591.2,256.4c-0.6,0-1-0.4-1-1v-43c0-0.6,0.4-1,1-1s1,0.4,1,1v43C592.2,255.9,591.8,256.4,591.2,256.4z"/>
		<path class="st1" d="M609.2,256.4c-0.3,0-0.6-0.1-0.8-0.4l-18-21.5c-0.3-0.4-0.3-0.9,0-1.3l18-21.5c0.4-0.4,1-0.5,1.4-0.1
			c0.4,0.4,0.5,1,0.1,1.4l-17.5,20.8l17.5,20.9c0.4,0.4,0.3,1.1-0.1,1.4C609.7,256.3,609.5,256.4,609.2,256.4L609.2,256.4z"/>
		<path class="st1" d="M591.2,256.4c-0.6,0-1-0.4-1-1c0-0.2,0.1-0.5,0.2-0.6l17.5-20.9L590.4,213c-0.4-0.4-0.4-1,0-1.4
			c0.4-0.4,1-0.4,1.4,0c0,0,0.1,0.1,0.1,0.1l18,21.5c0.3,0.4,0.3,0.9,0,1.3L592,256C591.8,256.2,591.5,256.4,591.2,256.4z"/>
		<path class="st1" d="M591.2,164.5h-66.8c-0.6,0-1-0.4-1-1s0.4-1,1-1h66.8c0.6,0,1,0.4,1,1S591.8,164.5,591.2,164.5z"/>
		<path class="st1" d="M591.2,213.3h-66.8c-0.6,0-1-0.4-1-1s0.4-1,1-1h66.8c0.6,0,1,0.4,1,1S591.8,213.3,591.2,213.3z"/>
		<path class="st1" d="M645.6,257.4h-610c-0.6,0-1-0.4-1-1s0.4-1,1-1h610c0.6,0,1,0.4,1,1S646.1,257.4,645.6,257.4z"/>
		<g>
			<defs>
				<path id="SVGID_1_" d="M448.4,245.2c0,23,18.6,41.7,41.7,41.7c0,0,0,0,0,0c1.8,0,3.5-0.1,5.2-0.4h0.2l3.5,4l4.5,5.2l2.2-6.5
					l2.2-6.5c3.6-1.8,7-4,10-6.8c8.6-7.9,13.5-19.1,13.6-30.8c0-23-18.6-41.7-41.7-41.7c-4.9,0-9.7,0.9-14.3,2.5l-1,0.4l-0.5,0.2
					h-0.2l-0.7,0.3c-9.8,4.4-17.5,12.4-21.7,22.2c-1.6,3.8-2.6,7.8-3,11.8C448.4,242.5,448.4,243.8,448.4,245.2z"/>
			</defs>
			<clipPath id="SVGID_2_">
				<use xlink:href="#SVGID_1_"  style="overflow:visible;"/>
			</clipPath>
			<g class="st2">
				<rect x="16" y="-285" class="st3" width="600" height="1062"/>
				<circle class="st4" cx="489.9" cy="245.3" r="41.7"/>
			</g>
		</g>
		<path class="st5" d="M510.5,209.8c16,19.8,12.9,48.7-6.8,64.7c-7.2,5.8-15.9,9.3-25.1,10.1c3.5,2.2,16.3,2.5,16.3,2.5l8.5,8.8
			l4.3-13c0,0,7.6-4.2,8.4-4.8c17.8-14.2,20.7-40.1,6.6-57.9c-2.7-3.4-6-6.4-9.7-8.8c-0.9-0.6-1.7-1-2.6-1.5"/>
		<circle class="st6" cx="472.3" cy="232.9" r="3.3"/>
		<circle class="st6" cx="493.8" cy="232.9" r="3.3"/>
		<path class="st6" d="M491.4,243.5c0.5,4.6-2.9,8.8-7.5,9.3c-0.3,0-0.5,0-0.8,0c-4.7,0-8.4-3.9-8.4-8.5c0-0.3,0-0.5,0-0.8H491.4z"
			/>
		<path class="st7" d="M135.7,160.5l2.2,5l-18.7,6.2l-10.3-11.2l-28.7-31.8c2.1-2.2,4.9-3.4,7.9-3.4h143c2.8,0,5.5,1.1,7.5,3
			l1.3,1.4l0.1,0.1l32.2,35.3l-17.9-4.6L135.7,160.5z"/>
		<path class="st8" d="M139.7,346.8l-59.4-65.4c-0.2-0.2-0.5-0.5-0.7-0.8c-1.6-2-2.5-4.4-2.5-7V136.4c0-2.8,1.1-5.6,3.1-7.6
			l28.7,31.7l17,17.7l-11.8,6.6l4.5,21.3l16.6,78.4l1.7,7.9V326L139.7,346.8z"/>
		<path class="st9" d="M623.3,388.1h-10.9c-1.1,0-2-0.9-2-2s0.9-2,2-2h10.9c1.1,0,2,0.9,2,2S624.4,388.1,623.3,388.1L623.3,388.1z"
			/>
		<path class="st9" d="M643.6,388.1h-5.9c-1.1,0-2-0.9-2-2s0.9-2,2-2h5.9c1.1,0,2,0.9,2,2S644.7,388.1,643.6,388.1z"/>
		<path class="st9" d="M597.1,388.1H147.9c-10.5,0-20.4-4.3-27.6-12l-50.9-54.2c-4.6-4.9-4.4-12.7,0.6-17.3c2.3-2.1,5.3-3.3,8.4-3.3
			h30.9c1.1,0,2,0.9,2,2s-0.9,2-2,2H78.3c-4.6,0-8.3,3.7-8.2,8.3c0,2.1,0.8,4.1,2.2,5.6l50.9,54.2c6.4,6.8,15.3,10.7,24.7,10.7
			h449.2c1.1,0,2,0.9,2,2S598.2,388.1,597.1,388.1z"/>
		<path class="st10" d="M301.3,292.5v47c0,0.4,0,0.9-0.1,1.3c-0.7,5.5-5.4,9.7-10.9,9.7H147.9c-6.1,0-11-4.9-11-11l0,0v-47H301.3z"
			/>
		<path class="st11" d="M126.6,160.5h135.1c6.8,0,12.6,4.7,14,11.4l25.6,120.6H136.9l-24.3-114.6c-1.6-7.7,3.3-15.4,11-17
			C124.6,160.7,125.6,160.5,126.6,160.5z"/>
		<path class="st8" d="M150.7,266l-15.9-75c-1.1-5.1,2.2-10.2,7.3-11.2c0.6-0.1,1.3-0.2,2-0.2h106.2c4.5,0,8.3,3.1,9.3,7.5l15.9,75
			c1.1,5.1-2.2,10.2-7.3,11.2c-0.6,0.1-1.3,0.2-2,0.2H160C155.5,273.5,151.6,270.4,150.7,266z"/>
		<path class="st9" d="M199.4,237.5h-38.6c-2.8,0-5.2-1.9-5.7-4.6l-8-37.5c-0.7-3.2,1.3-6.3,4.5-7c0.4-0.1,0.8-0.1,1.2-0.1h38.6
			c2.8,0,5.2,1.9,5.7,4.6l8,37.4c0.7,3.2-1.3,6.3-4.5,7C200.2,237.4,199.8,237.5,199.4,237.5z"/>
		<path class="st9" d="M255.4,237.5h-9.6c-2.8,0-5.2-1.9-5.7-4.6l-8-37.5c-0.7-3.2,1.3-6.3,4.5-7c0.4-0.1,0.8-0.1,1.2-0.1h9.6
			c2.8,0,5.2,1.9,5.7,4.6l8,37.4c0.7,3.2-1.3,6.3-4.5,7C256.2,237.4,255.8,237.5,255.4,237.5z"/>
		<path class="st9" d="M227.9,237.5h-9.6c-2.8,0-5.2-1.9-5.7-4.6l-8-37.5c-0.7-3.2,1.3-6.3,4.5-7c0.4-0.1,0.8-0.1,1.2-0.1h9.7
			c2.8,0,5.2,1.9,5.7,4.6l8,37.4c0.7,3.2-1.3,6.3-4.5,7C228.8,237.4,228.3,237.5,227.9,237.5z"/>
		<path class="st9" d="M160.3,257.1l-1.2-5.9c-0.6-3.2,1.4-6.3,4.6-6.9c0.4-0.1,0.8-0.1,1.1-0.1h94.4c2.8,0,5.2,2,5.7,4.7l1.2,5.9
			c0.6,3.2-1.4,6.3-4.6,6.9c-0.4,0.1-0.8,0.1-1.1,0.1H166C163.2,261.8,160.8,259.8,160.3,257.1z"/>
		
			<rect x="432" y="274.6" transform="matrix(0.7791 -0.6269 0.6269 0.7791 -81.5232 333.7627)" class="st9" width="1.7" height="16"/>
		<path class="st11" d="M434.8,285.9l6.3-5c2.1-1.7,5.1-1.3,6.8,0.7l12,14.9c1.7,2.1,1.3,5.1-0.7,6.8l-6.3,5
			c-2.1,1.7-5.1,1.3-6.8-0.7l-12-14.9C432.4,290.6,432.8,287.5,434.8,285.9z"/>
		<path class="st8" d="M446.2,284.6l3.6,4.5c0.3,0.3,0.2,0.8-0.1,1.1l-7.5,6c-0.3,0.3-0.8,0.2-1.1-0.1l-3.6-4.5
			c-1-1.2-0.8-2.9,0.4-3.9l4.4-3.5C443.4,283.2,445.2,283.4,446.2,284.6C446.2,284.6,446.2,284.6,446.2,284.6z"/>
		<path class="st12" d="M441.5,292.4l-1.3-1.6c-0.4-0.5-0.3-1.3,0.2-1.8l2.6-2.1c0.5-0.4,1.3-0.3,1.8,0.2l1.3,1.6
			c0.3,0.3,0.2,0.7-0.1,1c0,0,0,0,0,0l-3.5,2.8C442.2,292.8,441.8,292.7,441.5,292.4z"/>
		<path class="st8" d="M444.2,298.7l7.5-6c0.3-0.3,0.8-0.2,1.1,0.1l3.6,4.5c1,1.2,0.8,2.9-0.4,3.9l-4.4,3.5c-1.2,1-2.9,0.8-3.9-0.4
			l-3.6-4.5C443.8,299.5,443.9,299,444.2,298.7z"/>
		<path class="st13" d="M450.8,301.9c-0.5,0.4-1.3,0.3-1.8-0.2l-1.3-1.6c-0.3-0.3-0.2-0.7,0.1-1c0,0,0,0,0,0l3.5-2.8
			c0.3-0.3,0.7-0.2,1,0.1c0,0,0,0,0,0l1.3,1.6c0.4,0.5,0.3,1.3-0.2,1.8L450.8,301.9z"/>
		
			<ellipse transform="matrix(0.7791 -0.6269 0.6269 0.7791 -78.5942 329.0333)" class="st9" cx="427.6" cy="276" rx="2.3" ry="2.3"/>
		<circle class="st11" cx="192.6" cy="322" r="5.2"/>
		<circle class="st13" cx="250.5" cy="228.6" r="3.1"/>
		<circle class="st11" cx="245.7" cy="322" r="5.2"/>
		<circle class="st11" cx="219.1" cy="322" r="5.2"/>
	</g>
</g>
</svg>
