<svg id="Layer_1" data-name="Layer 1" xmlns="http://www.w3.org/2000/svg" width="407.97" height="271.44" viewBox="0 0 407.97 271.44"><defs><style>.cls-1{fill:#e5f8fa;}.cls-2{fill:#ffbd4c;}.cls-3{fill:#c7e0e5;}.cls-4{fill:#fff5e5;}.cls-5{fill:#a1d669;}.cls-6{fill:#99c961;}.cls-7{fill:#e8ecef;}.cls-8{fill:#99bbc5;}.cls-9{fill:#00566f;}.cls-10{fill:#ffa000;}.cls-11{opacity:0.6;}.cls-12{fill:#bfd8db;}.cls-13{fill:none;stroke:#c7e0e5;stroke-linecap:round;stroke-linejoin:round;stroke-width:1.5px;}.cls-14{opacity:0.4;}.cls-15{fill:#fff;}</style></defs><title>noRecords</title><path class="cls-1" d="M393.12,184.13c1.84,16.12-1.36,33.41-11.13,51.22-16.66,30.34-46.37,52-78.71,64.39s-67.32,16.06-101.92,17C163.55,317.84,124.1,315.35,91,297c-52.1-29-77.42-94.64-68.5-153.63,5.1-33.77,22.25-69.23,53.18-86.3,38-21,82-9,121.12,1.75,45.39,12.45,91.79,23.32,133.35,45.39C363.63,122,389.3,150.54,393.12,184.13Z" transform="translate(-5.28 -45.52)"/><rect class="cls-2" x="11.12" y="95.82" width="106.66" height="56.49" rx="6.06" ry="6.06"/><path class="cls-3" d="M218.34,223.77v13.38H358.71V202.21a9,9,0,0,0-9-9H218.34Z" transform="translate(-5.28 -45.52)"/><path class="cls-4" d="M21.59,157.15v-8.36a2.26,2.26,0,0,1,2.26-2.26h91.76a2.26,2.26,0,0,1,2.26,2.26v41.6a2.26,2.26,0,0,1-2.26,2.26H23.85a2.26,2.26,0,0,1-2.26-2.26Z" transform="translate(-5.28 -45.52)"/><path class="cls-5" d="M204.6,190.09a29.32,29.32,0,0,0,29.31,29.33h0a27.29,27.29,0,0,0,3.69-.26h.16l.06.07h0l2.47,2.8,3.2,3.65,1.56-4.61,1.55-4.6a29.06,29.06,0,0,0,7.06-4.76,29.8,29.8,0,0,0,9.57-21.65,29.31,29.31,0,0,0-39.41-27.55c-.24.1-.48.18-.72.29l-.37.16-.17.07-.49.22h0a29.82,29.82,0,0,0-15.29,15.64,29.29,29.29,0,0,0-2.07,8.39A26.43,26.43,0,0,0,204.6,190.09Z" transform="translate(-5.28 -45.52)"/><path class="cls-6" d="M248.52,165a32.35,32.35,0,0,1-22.44,52.6c2.45,1.53,11.45,1.74,11.45,1.74l6,6.21,3.09-9.16s5.38-2.94,5.89-3.35a29,29,0,0,0-2.19-46.91c-.61-.41-1.2-.71-1.85-1.07" transform="translate(-5.28 -45.52)"/><path class="cls-4" d="M223.28,193.84v.24h11.53v-.24a5.81,5.81,0,1,0-11.57,0Z" transform="translate(-5.28 -45.52)"/><path class="cls-4" d="M234.3,181.84a2.26,2.26,0,1,0,4.38-1.12l0-.07a2.21,2.21,0,0,0-1.39-1.39,2.27,2.27,0,0,0-3,2.58Z" transform="translate(-5.28 -45.52)"/><path class="cls-4" d="M221.74,183.61a2.26,2.26,0,1,0-1.12-4.38l-.07,0a2.21,2.21,0,0,0-1.39,1.39,2.27,2.27,0,0,0,2.58,3Z" transform="translate(-5.28 -45.52)"/><path class="cls-2" d="M69.72,172.7a6.9,6.9,0,0,1-2.23-.37.65.65,0,0,1,.42-1.23,5.6,5.6,0,1,0-3.5-7.11h0a5.66,5.66,0,0,0-.27,1.21.65.65,0,1,1-1.29-.14,7,7,0,0,1,.33-1.49,6.89,6.89,0,1,1,6.53,9.12Z" transform="translate(-5.28 -45.52)"/><path class="cls-7" d="M117.9,227.25v4.43h-4.84v-4.43a5.13,5.13,0,0,0-5.13-5.13h4.84a5.13,5.13,0,0,1,5.13,5.13Z" transform="translate(-5.28 -45.52)"/><rect class="cls-7" x="60.6" y="167.84" width="3.85" height="36.66"/><path class="cls-8" d="M29.35,250l-8,14.16a1.5,1.5,0,0,1-1.93.62h0a1.5,1.5,0,0,1-.79-1.86L23,250.43" transform="translate(-5.28 -45.52)"/><path class="cls-8" d="M110.11,250l8,14.16a1.5,1.5,0,0,0,1.93.62h0a1.5,1.5,0,0,0,.79-1.86l-4.36-12.49" transform="translate(-5.28 -45.52)"/><path class="cls-8" d="M345.28,253.72V262a3,3,0,0,1-3,3h-9.76a3,3,0,0,1-3-3v-8.25" transform="translate(-5.28 -45.52)"/><path class="cls-8" d="M248.25,253.72V262a3,3,0,0,1-3,3h-9.76a3,3,0,0,1-3-3v-8.25" transform="translate(-5.28 -45.52)"/><path class="cls-9" d="M345.28,253.72V262a3,3,0,0,1-3,3h-5a3,3,0,0,0,3-3v-8.25Z" transform="translate(-5.28 -45.52)"/><path class="cls-9" d="M248.32,253.72V262a3,3,0,0,1-3,3h-5a3,3,0,0,0,3-3v-8.25Z" transform="translate(-5.28 -45.52)"/><path class="cls-8" d="M358.71,202.21v34.95h-12.2V202.21a9,9,0,0,0-9-9h12.21A9,9,0,0,1,358.71,202.21Z" transform="translate(-5.28 -45.52)"/><rect class="cls-10" x="4.16" y="167.84" width="120.58" height="36.65" rx="5.58" ry="5.58"/><path class="cls-2" d="M124.44,251.31H15a6.89,6.89,0,0,1-6.88-6.88V218.95A6.89,6.89,0,0,1,15,212.06H124.44a6.89,6.89,0,0,1,6.88,6.88v25.48A6.89,6.89,0,0,1,124.44,251.31ZM15,214.66a4.29,4.29,0,0,0-4.28,4.29v25.48A4.29,4.29,0,0,0,15,248.72H124.44a4.29,4.29,0,0,0,4.29-4.29V218.95a4.29,4.29,0,0,0-4.29-4.29Z" transform="translate(-5.28 -45.52)"/><path class="cls-9" d="M81.85,231.68v-4.43A5.13,5.13,0,0,1,87,222.12h25.8a5.13,5.13,0,0,1,5.13,5.13h0v4.43" transform="translate(-5.28 -45.52)"/><path class="cls-2" d="M69.73,213.36V250H15a5.59,5.59,0,0,1-5.58-5.58V218.95A5.58,5.58,0,0,1,15,213.36H69.73Z" transform="translate(-5.28 -45.52)"/><rect class="cls-2" x="64.45" y="184.86" width="60.29" height="2.6"/><path class="cls-8" d="M337.34,217.34a2.26,2.26,0,1,0,4.35-1.19,2.21,2.21,0,0,0-1.39-1.39,2.27,2.27,0,0,0-3,2.58Z" transform="translate(-5.28 -45.52)"/><path class="cls-8" d="M306.44,217.34a2.26,2.26,0,1,0,4.35-1.19,2.21,2.21,0,0,0-1.39-1.39,2.27,2.27,0,0,0-3,2.58Z" transform="translate(-5.28 -45.52)"/><path class="cls-8" d="M267.18,217.34a2.26,2.26,0,1,0,4.35-1.19,2.21,2.21,0,0,0-1.39-1.39,2.27,2.27,0,0,0-3,2.58Z" transform="translate(-5.28 -45.52)"/><path class="cls-9" d="M57.63,232A2.26,2.26,0,1,0,62,230.83a2.21,2.21,0,0,0-1.39-1.39,2.27,2.27,0,0,0-3,2.56Z" transform="translate(-5.28 -45.52)"/><path class="cls-4" d="M111.54,227.71h-2.47a.65.65,0,1,1,0-1.3h2.47a.65.65,0,1,1,0,1.3Z" transform="translate(-5.28 -45.52)"/><path class="cls-4" d="M103.3,227.71H87.9a.65.65,0,1,1,0-1.3h15.4a.65.65,0,1,1,0,1.3Z" transform="translate(-5.28 -45.52)"/><rect class="cls-3" x="193.37" y="202.29" width="8.05" height="18.12" rx="3.44" ry="3.44" transform="translate(-81.99 258) rotate(-65.54)"/><path class="cls-8" d="M206.08,214.16l-.87,1.91a3,3,0,0,1-3.95,1.48h-.06a9.67,9.67,0,0,0,.07-1.35,9.54,9.54,0,0,0-2.1-5.84c-1.49-1.73-3.23-2.16-6.51-3.11-.84-.24-1.82-.53-2.92-.87a3,3,0,0,1,3.79-1.17l11.07,5A3,3,0,0,1,206.08,214.16Z" transform="translate(-5.28 -45.52)"/><circle class="cls-9" cx="196.65" cy="211" r="1.35" transform="translate(-82.12 257.12) rotate(-65.54)"/><circle class="cls-9" cx="191.41" cy="210.01" r="0.89" transform="translate(-84.29 251.76) rotate(-65.54)"/><path class="cls-9" d="M200.56,214.63a.65.65,0,0,1-.59-.92l.89-2a.65.65,0,0,1,1.18.54l-.89,2A.65.65,0,0,1,200.56,214.63Z" transform="translate(-5.28 -45.52)"/><rect class="cls-9" x="71.64" y="191.36" width="3.53" height="11.83" rx="0.57" ry="0.57"/><rect class="cls-9" x="75.17" y="191.36" width="3.53" height="11.83" rx="0.57" ry="0.57"/><rect class="cls-9" x="78.7" y="192.92" width="3.53" height="10.27" rx="0.57" ry="0.57"/><rect class="cls-9" x="82.23" y="200.23" width="10.27" height="2.96" rx="0.49" ry="0.49"/><path class="cls-9" d="M110.31,245.92a2.94,2.94,0,0,1,1.17-2.34H115a2.94,2.94,0,1,1-4.71,2.35Z" transform="translate(-5.28 -45.52)"/><g class="cls-11"><path class="cls-12" d="M319,59.38v26h-7V64.47a.68.68,0,0,0-.68-.68h-38a.68.68,0,0,0-.68.68v54.87h30.62v6.72H265.7V59.38a2.31,2.31,0,0,1,2.3-2.31h48.72A2.31,2.31,0,0,1,319,59.38Z" transform="translate(-5.28 -45.52)"/><path class="cls-3" d="M303.32,88.2V126h31.42V87.71a2.31,2.31,0,0,0-2.31-2.31H306.12A2.8,2.8,0,0,0,303.32,88.2Zm25.45,31.68H309.29V92.32a.75.75,0,0,1,.75-.75h18a.75.75,0,0,1,.75.75Z" transform="translate(-5.28 -45.52)"/><rect class="cls-12" x="153.59" y="92.36" width="24.83" height="8.9" rx="1.59" ry="1.59"/><rect class="cls-3" x="167.07" y="103.36" width="24.83" height="8.9" rx="1.59" ry="1.59"/><rect class="cls-13" x="369.62" y="120.03" width="24.83" height="8.9" rx="1.59" ry="1.59"/><rect class="cls-3" x="383.14" y="131.25" width="24.83" height="8.9" rx="1.59" ry="1.59"/><rect class="cls-3" x="39.9" y="24.96" width="24.83" height="8.9" rx="1.59" ry="1.59"/><rect class="cls-13" x="139.54" y="103.36" width="24.83" height="8.9" rx="1.59" ry="1.59"/><polygon class="cls-3" points="239.28 87 224.38 87 224.38 80.53 342.65 80.53 342.65 87 249.24 87 239.28 87"/><path class="cls-3" d="M236.76,120.17a7.37,7.37,0,0,1,2.92-5.88h8.91a7.38,7.38,0,1,1-11.83,5.89Z" transform="translate(-5.28 -45.52)"/></g><path class="cls-9" d="M69.74,172.7a6.91,6.91,0,0,1-6.53-9.12.65.65,0,0,1,1.24.4v0a5.59,5.59,0,1,0,5.89-3.76.65.65,0,0,1,.14-1.29,6.9,6.9,0,0,1-.73,13.76Z" transform="translate(-5.28 -45.52)"/><path class="cls-9" d="M81.82,181.77H57.64a.65.65,0,0,1,0-1.3H81.82a.65.65,0,0,1,0,1.3Z" transform="translate(-5.28 -45.52)"/><g class="cls-14"><g class="cls-14"><polygon class="cls-15" points="57.94 147.12 71.67 147.12 68.6 152.31 54.87 152.31 57.94 147.12"/><polygon class="cls-15" points="102.04 95.82 98.96 101.01 85.23 101.01 88.3 95.82 102.04 95.82"/></g><g class="cls-14"><polygon class="cls-15" points="75.97 147.12 82.26 147.12 79.19 152.31 72.9 152.31 75.97 147.12"/><polygon class="cls-15" points="112.62 95.82 109.54 101.01 103.26 101.01 106.33 95.82 112.62 95.82"/></g></g><g class="cls-14"><g class="cls-14"><polygon class="cls-15" points="89.65 101.01 62.37 147.12 48.64 147.12 75.91 101.01 89.65 101.01"/></g><g class="cls-14"><polygon class="cls-15" points="100.24 101.01 72.95 147.12 66.67 147.12 93.95 101.01 100.24 101.01"/></g></g><rect class="cls-4" x="71.64" y="193.17" width="7.06" height="0.97"/><rect class="cls-4" x="78.63" y="194.54" width="3.6" height="0.97"/><rect class="cls-4" x="89.67" y="200.24" width="0.97" height="2.99"/><path class="cls-8" d="M288.53,202.24v34.92h-4.77V202.24a9.11,9.11,0,0,0-9.2-9h4.77A9.11,9.11,0,0,1,288.53,202.24Z" transform="translate(-5.28 -45.52)"/><path class="cls-3" d="M251.78,253.72H219a5.7,5.7,0,0,1-5.7-5.7v-5.16a5.7,5.7,0,0,1,5.7-5.7H358a5.7,5.7,0,0,1,5.7,5.7h0V248a5.7,5.7,0,0,1-5.7,5.7H251.78Z" transform="translate(-5.28 -45.52)"/><path class="cls-8" d="M363.74,242.86V248a5.7,5.7,0,0,1-5.7,5.7H337.21a7.68,7.68,0,0,0,1.67-4.8v-7a7.68,7.68,0,0,0-1.67-4.8H358a5.7,5.7,0,0,1,5.74,5.66S363.74,242.83,363.74,242.86Z" transform="translate(-5.28 -45.52)"/><path class="cls-3" d="M368.57,265.58H5.93a.65.65,0,0,1,0-1.3H368.57a.65.65,0,0,1,0,1.3Z" transform="translate(-5.28 -45.52)"/></svg>