<svg id="Layer_1" data-name="Layer 1" xmlns="http://www.w3.org/2000/svg" width="378.08" height="259.33" viewBox="0 0 378.08 259.33"><defs><style>.cls-1{fill:#e5f8fa;}.cls-2{fill:#a1d669;}.cls-3{fill:#ffa575;}.cls-4{fill:#91a0a4;}.cls-5{fill:#e8ecef;}.cls-6{fill:#fff5e5;}.cls-7{fill:#99c961;}.cls-8{fill:#ffd999;}.cls-9{fill:#ffa000;}.cls-10{fill:#00566f;}.cls-11{fill:#4c889a;}.cls-12{fill:#ffbd4c;}.cls-13{fill:#99bbc5;}.cls-14{fill:#e6764a;}.cls-15{opacity:0.6;}.cls-16{fill:#bfd8db;}.cls-17{fill:#c7e0e5;}</style></defs><title>noResults</title><path class="cls-1" d="M351.62,287.57c-33.21,27-77.88,23-117.71,19.36-13.38-1.21-26.83-2.28-40.27-3.53-14.58-1.35-29.14-2.92-43.56-5.14a345.37,345.37,0,0,1-53.33-12.13c-20.55-6.6-39.17-17.12-53.1-31a97.44,97.44,0,0,1-7.92-8.91Q34.87,245.1,34,244A80.28,80.28,0,0,1,21.8,219.61C17.21,204.31,17.29,187,23.68,168a118,118,0,0,1,8.38-19c.19-.35.39-.7.58-1.06a.3.3,0,0,0,.06-.1q2.71-4.82,5.84-9.41c.67-1,1.35-2,2.06-2.94L41,135c.68-.93,1.37-1.86,2.07-2.78l2-2.61h0a147.11,147.11,0,0,1,10.57-11.8A171.34,171.34,0,0,1,88.77,91.93C118,74.35,151.23,64.65,184.6,57.68c36.47-7.62,75.15-12.06,110.39,0A125.53,125.53,0,0,1,342.92,88a144.33,144.33,0,0,1,13.79,16,155,155,0,0,1,14.48,23.59q1.93,3.86,3.66,7.84a160.7,160.7,0,0,1,13.3,59.21C389.08,228.27,378.62,265.63,351.62,287.57Z" transform="translate(-10.13 -50.21)"/><path class="cls-2" d="M225.32,184.49a28.15,28.15,0,0,1-28.14,28.16h0a26.2,26.2,0,0,1-3.54-.25h-.15l-.06.07h0L191,215.16l-3.07,3.51-1.5-4.42L185,209.83a27.9,27.9,0,0,1-6.77-4.57A28.6,28.6,0,0,1,169,184.48,28.14,28.14,0,0,1,206.82,158c.23.09.47.17.69.27l.36.15.17.07.47.21h0a28.63,28.63,0,0,1,14.68,15,28.12,28.12,0,0,1,2,8.05C225.28,182.69,225.32,183.59,225.32,184.49Z" transform="translate(-10.13 -50.21)"/><path class="cls-3" d="M225.84,228.31h0a1.87,1.87,0,0,1-.09-2.55c9.9-11.35,20.81-23.13,32.81-35.11,11.81-11.8,23.42-22.55,34.62-32.31a1.87,1.87,0,0,1,2.55.09h0a1.86,1.86,0,0,1,0,2.63l-.1.09c-11.21,9.91-22.79,20.72-34.56,32.49S238.48,217,228.56,228.23a1.86,1.86,0,0,1-2.62.17Z" transform="translate(-10.13 -50.21)"/><path class="cls-4" d="M205.5,189.91v.23H194.41v-.23a5.58,5.58,0,1,1,11.11,0Z" transform="translate(-10.13 -50.21)"/><path class="cls-4" d="M194.92,178.39a2.17,2.17,0,1,1-4.18-1.14,2.12,2.12,0,0,1,1.34-1.34,2.18,2.18,0,0,1,2.84,2.48Z" transform="translate(-10.13 -50.21)"/><path class="cls-4" d="M207,180.09a2.17,2.17,0,1,1,.9-4.25l.24.07a2.12,2.12,0,0,1,1.34,1.34,2.18,2.18,0,0,1-2.48,2.84Z" transform="translate(-10.13 -50.21)"/><path class="cls-4" d="M96.42,255.47a12,12,0,0,1-9.23-4.67,1.25,1.25,0,0,1,2-1.48A9.34,9.34,0,0,0,96.52,253a1.25,1.25,0,1,1,.22,2.49h-.22Z" transform="translate(-10.13 -50.21)"/><path class="cls-5" d="M97.36,246.59a8.36,8.36,0,0,0,1.21.7A10.23,10.23,0,0,1,97.36,246.59Zm9.61.7a8.36,8.36,0,0,0,1.21-.7,10.23,10.23,0,0,1-1.18.7Z" transform="translate(-10.13 -50.21)"/><path class="cls-6" d="M205.5,189.91v.23H194.41v-.23a5.58,5.58,0,1,1,11.11,0Z" transform="translate(-10.13 -50.21)"/><path class="cls-6" d="M194.92,178.39a2.17,2.17,0,1,1-4.18-1.14,2.12,2.12,0,0,1,1.34-1.34,2.18,2.18,0,0,1,2.84,2.48Z" transform="translate(-10.13 -50.21)"/><path class="cls-6" d="M207,180.09a2.17,2.17,0,1,1,.9-4.25l.24.07a2.12,2.12,0,0,1,1.34,1.34,2.18,2.18,0,0,1-2.48,2.84Z" transform="translate(-10.13 -50.21)"/><path class="cls-4" d="M96.42,255.47a12,12,0,0,1-9.23-4.67,1.25,1.25,0,0,1,2-1.48A9.34,9.34,0,0,0,96.52,253a1.25,1.25,0,1,1,.22,2.49h-.22Z" transform="translate(-10.13 -50.21)"/><path class="cls-7" d="M193.35,212.46h0Z" transform="translate(-10.13 -50.21)"/><path class="cls-7" d="M225.32,184.49a28.15,28.15,0,0,1-28.14,28.16h0a26.2,26.2,0,0,1-3.54-.25,32.34,32.34,0,0,0,23.29-22.57,31,31,0,0,0,.93-10.45,32.77,32.77,0,0,0-1.7-8.13,31.52,31.52,0,0,0-8.06-12.68l.43.17h0a28.63,28.63,0,0,1,14.68,15,28.12,28.12,0,0,1,2,8.05C225.28,182.69,225.32,183.59,225.32,184.49Z" transform="translate(-10.13 -50.21)"/><path class="cls-8" d="M211.06,244.6c-.29-.24-72.79-2.17-72.79-2.17v-28h32.49A14.85,14.85,0,0,1,180.5,218Z" transform="translate(-10.13 -50.21)"/><path class="cls-9" d="M160.32,216.69c0,1-3.76,1-3.76,0a1.88,1.88,0,0,1,3.76,0Z" transform="translate(-10.13 -50.21)"/><path class="cls-10" d="M158.29,216.51a.62.62,0,0,1-.5-.25l-18.14-24.39a.62.62,0,0,1,1-.74l18.14,24.39a.62.62,0,0,1-.5,1Z" transform="translate(-10.13 -50.21)"/><polygon class="cls-8" points="138.69 134.98 120.35 118.79 112.91 119.63 122.02 136.35 138.14 137.3 138.69 134.98"/><path class="cls-8" d="M151.48,226.77v17.36H77.94l-4.45-.22h-.17l-2-.12-3.53-.22-21.08-29-.92-1.38a2.42,2.42,0,0,1-.32-2.05,2.46,2.46,0,0,1,2.09-1.8h7.31l17.78-.06v-8.69H67.78V198.7c.07-4.11-.28-8.19-.42-12.31v-3.73a1.67,1.67,0,0,0-2.51-1.41v-2H60.49l-.66-.59-.65-.57h0a3.52,3.52,0,0,1-.88-2.34V172a3.52,3.52,0,0,1,1-2.46l.06-.06a3.53,3.53,0,0,1,2.49-1H128.6a3.55,3.55,0,0,1,3.54,3.55v5.49a1.66,1.66,0,0,1-1.66,1.66h-4.82v47.61Z" transform="translate(-10.13 -50.21)"/><path class="cls-9" d="M143.31,194.81v40.06a2.84,2.84,0,0,1-2.84,2.84h-24V242l-1.79-.61-28.42-9.67-3.81-1.3V194.81Z" transform="translate(-10.13 -50.21)"/><polygon class="cls-9" points="107.26 192.15 133.18 192.15 133.18 200.96 113.34 194.22 107.26 192.15"/><polygon class="cls-5" points="90.1 153.2 90.1 166.3 72.3 166.3 90.1 153.2"/><path class="cls-11" d="M96.79,200.86H82.43v20.69H96.79c3.53,0,6.4-2.46,6.4-5.49v-9.72C103.19,203.32,100.33,200.86,96.79,200.86Z" transform="translate(-10.13 -50.21)"/><path class="cls-6" d="M134.48,216.34v21.37h-18V242l-1.79-.61v-25.1a9.9,9.9,0,1,1,19.8,0h0Z" transform="translate(-10.13 -50.21)"/><path class="cls-6" d="M122.1,174l-1.7,10.1-12.67-11.24-5-4.41V160.5a3.65,3.65,0,0,1,1.19-2.7l11.91,10.63h0Z" transform="translate(-10.13 -50.21)"/><path class="cls-8" d="M133.16,173.17h-1l-10,.77-6.22-5.56h0L104,157.75a3.64,3.64,0,0,1,2.46-.95h5.8a3.66,3.66,0,0,1,2.32.83l13.31,10.76,4.3,3.83.49.43Z" transform="translate(-10.13 -50.21)"/><path class="cls-12" d="M120.41,186.52V176.15a3.65,3.65,0,0,1,3.65-3.65h5.8a3.65,3.65,0,0,1,3.65,3.65v10.38a2,2,0,0,1-2,2h-9.13A2,2,0,0,1,120.41,186.52Z" transform="translate(-10.13 -50.21)"/><path class="cls-6" d="M82.43,187.13v37.8L67.58,211.76a2.85,2.85,0,0,1-1-2.15v-1.48l.12-20.6v-5.9Z" transform="translate(-10.13 -50.21)"/><polygon class="cls-13" points="72.3 150.65 72.3 171.35 56.51 157.92 56.62 137.32 72.3 150.65"/><path class="cls-11" d="M123.86,220.75a3.64,3.64,0,1,1,1.91-7A3.56,3.56,0,0,1,128,216a3.65,3.65,0,0,1-4.14,4.75Z" transform="translate(-10.13 -50.21)"/><path class="cls-8" d="M85.27,252.56l-.48,4.07c-1.07-.15-2.06-.33-3-.52h0c-.47-.09-.94-.2-1.39-.31L67.9,243.56v-.05l-21.08-29-.92-1.38a2.4,2.4,0,0,1-.33-2.05l16.15,14.26.35.3,1.1,1.36,10,11.6,4.74,5.4h0l5.88,6.81Z" transform="translate(-10.13 -50.21)"/><polygon class="cls-8" points="107.26 192.15 106.33 192.15 106.33 191.83 107.26 192.15"/><path class="cls-6" d="M78,186.27l-.61,7.85-10-8.9-1-.92-2.28-2-3.52-3.12-.66-.59-.65-.57h0a3.52,3.52,0,0,1-.88-2.34V172a3.52,3.52,0,0,1,1-2.46L68.79,178l1.28,1.15Z" transform="translate(-10.13 -50.21)"/><path class="cls-12" d="M213.82,250.85v1.61c-1.28-.13-2.56-.23-3.85-.34-15.88-1.31-32-.74-48-.13q-24.72,1-49.32,3.58c-8,.84-16.26,2.19-24.33,1.48-1.27-.12-2.46-.25-3.58-.42s-2.06-.33-3-.52h0l-8.16-12.24-10-15.06a2.49,2.49,0,0,1,2.07-3.88h54a7.78,7.78,0,0,1,7.79,7.77h0v1.11a8.37,8.37,0,0,0,.94,3.89,8.55,8.55,0,0,0,6.11,4.57,4.06,4.06,0,0,0,.61.08,7.31,7.31,0,0,0,.94.06h69.29a8.44,8.44,0,0,1,5.29,1.85l.42.36h0A8.4,8.4,0,0,1,213.82,250.85Z" transform="translate(-10.13 -50.21)"/><path class="cls-14" d="M103.19,248.12v5.69a9.67,9.67,0,0,1-9.67-9.67H99.2A4,4,0,0,0,103.19,248.12Z" transform="translate(-10.13 -50.21)"/><path class="cls-14" d="M112.87,244.13h-5.68a4,4,0,0,0-4-4v-5.69a9.67,9.67,0,0,1,9.68,9.66S112.87,244.12,112.87,244.13Z" transform="translate(-10.13 -50.21)"/><path class="cls-6" d="M103.19,234.45v5.69a4,4,0,0,0-4,4H93.52a9.67,9.67,0,0,1,9.65-9.69Z" transform="translate(-10.13 -50.21)"/><path class="cls-6" d="M112.87,244.13a9.67,9.67,0,0,1-9.66,9.68h0v-5.69a4,4,0,0,0,4-4Z" transform="translate(-10.13 -50.21)"/><path class="cls-10" d="M179,238.75a.62.62,0,0,1-.5-.25l-35.69-48a.62.62,0,0,1,1-.74l35.69,48a.62.62,0,0,1-.5,1Z" transform="translate(-10.13 -50.21)"/><path class="cls-9" d="M180.88,238.68c0,1-3.76,1-3.76,0a1.88,1.88,0,1,1,3.76,0Z" transform="translate(-10.13 -50.21)"/><rect class="cls-12" x="65.82" y="133.88" width="73.85" height="10.73" rx="4.26" ry="4.26"/><path class="cls-10" d="M290.9,238.85a3.93,3.93,0,0,1-3.92-3.92v-4l-.81.5a.62.62,0,0,1-.66-1.06l1.76-1.09a.62.62,0,0,1,1,.53V235a2.68,2.68,0,0,0,5.35,0V163.05a.63.63,0,0,1,1.25,0v71.88a3.93,3.93,0,0,1-3.94,3.92Z" transform="translate(-10.13 -50.21)"/><path class="cls-10" d="M294.2,163.47a.62.62,0,0,1-.62-.54,2.88,2.88,0,0,0-2.35-2.47.62.62,0,0,1-.47-.4l-.64-1.76a.62.62,0,0,1,1.17-.43l.52,1.45a4.12,4.12,0,0,1,3,3.45.62.62,0,0,1-.53.7h-.08Z" transform="translate(-10.13 -50.21)"/><path class="cls-10" d="M290,160.56a.62.62,0,0,1,0-1.24l1.33-.09a.63.63,0,0,1,.66.58.62.62,0,0,1-.58.66h0l-1.33.09Z" transform="translate(-10.13 -50.21)"/><g class="cls-15"><path class="cls-16" d="M319.42,120.21c-1.44-1.25-2.91-2.54-4.5-3.71q-1.73-1.27-3.51-2.46l4.14-11.82a.3.3,0,0,1,.58,0Z" transform="translate(-10.13 -50.21)"/></g><g class="cls-15"><path class="cls-16" d="M57.8,125a29.75,29.75,0,0,0-3.8,7.81H47.62l0-.08L47,130l5.76-25.47a.39.39,0,0,1,.78,0Z" transform="translate(-10.13 -50.21)"/></g><g class="cls-15"><path class="cls-16" d="M198,126.62a10.25,10.25,0,0,0-5.46,6.19H190l-.89-2.63L194,107.59a.35.35,0,0,1,.7,0l3.24,18.54Z" transform="translate(-10.13 -50.21)"/></g><g class="cls-15"><path class="cls-17" d="M47.59,132.81H39.83l3.81-16.46a.42.42,0,0,1,.82,0L47,130l.52,2.72Z" transform="translate(-10.13 -50.21)"/></g><g class="cls-15"><path class="cls-16" d="M160.16,128.68l-.31-.26a26.12,26.12,0,0,0-4.72-3.94h0l2-8.63a.25.25,0,0,1,.5,0Z" transform="translate(-10.13 -50.21)"/></g><g class="cls-15"><path class="cls-17" d="M190,132.81H178.18l5.7-16.59a.31.31,0,0,1,.57,0l4.68,14Z" transform="translate(-10.13 -50.21)"/></g><g class="cls-15"><path class="cls-17" d="M374.63,132.81h-8.38l3.66-19.75a.38.38,0,0,1,.74,0Z" transform="translate(-10.13 -50.21)"/></g><g class="cls-15"><path class="cls-17" d="M345.46,105.3A12.53,12.53,0,1,1,358,92.77,12.53,12.53,0,0,1,345.46,105.3Zm0-23.81a11.28,11.28,0,1,0,11.28,11.28h0A11.29,11.29,0,0,0,345.46,81.49Z" transform="translate(-10.13 -50.21)"/></g><g class="cls-15"><path class="cls-17" d="M198.39,126.42l-.31.15h0Z" transform="translate(-10.13 -50.21)"/></g><g class="cls-15"><path class="cls-17" d="M381,133.43a.63.63,0,0,1-.62.63H31.91a.63.63,0,0,1-.16-1.25H54A29.75,29.75,0,0,1,57.8,125c6.2-9.2,17.4-15.33,30.2-15.33A37.34,37.34,0,0,1,113,119a19.24,19.24,0,0,0,20.21,3.74A25.25,25.25,0,0,1,143,120.8a22.5,22.5,0,0,1,12.15,3.7h0a26.12,26.12,0,0,1,4.72,3.94,25.53,25.53,0,0,1,3.33,4.39h29.34a10.25,10.25,0,0,1,5.46-6.19l.1-.05.31-.15a12.61,12.61,0,0,1,3.65-1,14.31,14.31,0,0,1,7,1,8.54,8.54,0,0,0,9.14-1.88c9.55-9.11,20.6-16.47,33.6-19.88a77.65,77.65,0,0,1,49.29,3.77,63,63,0,0,1,10.31,5.6q1.79,1.19,3.51,2.46c1.59,1.17,3.06,2.46,4.5,3.71,4.24,3.67,8.28,7.05,14.77,6.38,2.77-.29,5.36-1.48,8.12-1.67,5.75-.39,11.6,2.23,14.47,7.37a4.18,4.18,0,0,1,.25.52h23.38a.62.62,0,0,1,.63.61Z" transform="translate(-10.13 -50.21)"/></g><g class="cls-15"><path class="cls-17" d="M331.54,179.29a12.29,12.29,0,0,0,1.59-.77A11.76,11.76,0,0,1,331.54,179.29Z" transform="translate(-10.13 -50.21)"/><path class="cls-17" d="M336.29,175l-.09-.07h0S336.28,174.93,336.29,175Z" transform="translate(-10.13 -50.21)"/></g><g class="cls-15"><path class="cls-17" d="M318.74,263.47a.61.61,0,0,1-.59.63H318a11.24,11.24,0,0,1-8.08-3.64A11,11,0,0,1,302,264.1h-.12a11.2,11.2,0,0,1-8.22-3.81,11,11,0,0,1-8.1,3.81h0a.62.62,0,1,1,0-1.24h0a10,10,0,0,0,7.61-3.92h0a.47.47,0,0,1,.1-.1h0a.31.31,0,0,1,.13-.06h.09a.76.76,0,0,1,.3,0h.1a.41.41,0,0,1,.13.07.47.47,0,0,1,.1.1h0a10,10,0,0,0,7.72,3.92H302a9.9,9.9,0,0,0,7.21-3.43c.21-.24.35-.42.4-.49a.58.58,0,0,1,.36-.22.59.59,0,0,1,.51.09.61.61,0,0,1,.24.62,9.91,9.91,0,0,0,7.32,3.43h.11A.61.61,0,0,1,318.74,263.47Z" transform="translate(-10.13 -50.21)"/><path class="cls-17" d="M309.94,258.72a.58.58,0,0,0-.36.22c0,.07-.19.25-.4.49a.61.61,0,0,1,.76-.71Z" transform="translate(-10.13 -50.21)"/></g><g class="cls-15"><path class="cls-17" d="M361.4,179.35a.62.62,0,0,1-.61.63h-.13a11.21,11.21,0,0,1-8.22-3.82,11.24,11.24,0,0,1-8.1,3.81h-.13a10.65,10.65,0,0,1-2-.2,11.29,11.29,0,0,1-1.8-.54A16.48,16.48,0,0,1,338,178a16.73,16.73,0,0,1-2.11-1.66l-.17.18-.08.08-.28.28c-.2.19-.43.39-.67.59h0a8.16,8.16,0,0,1-.66.5,9.48,9.48,0,0,1-.85.55,12.29,12.29,0,0,1-1.59.77h-.22a14.85,14.85,0,0,1-1.58.37A16,16,0,0,1,328,180H316.64a.63.63,0,0,1,0-1.25h11.25a15.8,15.8,0,0,0,1.63-.21,14.73,14.73,0,0,0,1.46-.34h0l.3-.12a9.82,9.82,0,0,0,2-1.09c.21-.15.4-.29.58-.44h0a9.79,9.79,0,0,0,1.46-1.47.64.64,0,0,1,.46-.23h0a.47.47,0,0,1,.17,0,.35.35,0,0,1,.16.08l.09.07h0a15.4,15.4,0,0,0,2.35,1.92,15.19,15.19,0,0,0,2.17,1.18,8.13,8.13,0,0,0,1.57.46,9.2,9.2,0,0,0,1.9.18,10.05,10.05,0,0,0,7.6-3.91h0l.08-.08.09-.06a.58.58,0,0,1,.46-.07h.08l.14.08.11.1h0a10,10,0,0,0,7.72,3.92h.11a.62.62,0,0,1,.82.63Z" transform="translate(-10.13 -50.21)"/><path class="cls-17" d="M352.07,174.69h.06l-.09.06Z" transform="translate(-10.13 -50.21)"/></g><g class="cls-15"><path class="cls-17" d="M44.2,197.92a.63.63,0,0,1-.62.63h-.11a11.22,11.22,0,0,1-8.22-3.81,11.09,11.09,0,0,1-8.11,3.81H27a11.24,11.24,0,0,1-8.22-3.81,11.06,11.06,0,0,1-8.1,3.81h0a.63.63,0,0,1,0-1.25,10.12,10.12,0,0,0,7.55-3.82.35.35,0,0,1,.06-.09.52.52,0,0,1,.1-.11l.09-.06h.16a.76.76,0,0,1,.3,0h.16l.09.06a.53.53,0,0,1,.16.2,10,10,0,0,0,7.77,3.82,10.1,10.1,0,0,0,7.55-3.82.53.53,0,0,1,.16-.2H35a.71.71,0,0,1,.29,0l.13.05h.07a.3.3,0,0,1,.08.08h0a10,10,0,0,0,7.72,3.91h.11a.62.62,0,0,1,.75.6Z" transform="translate(-10.13 -50.21)"/><path class="cls-17" d="M19.2,193.28l-.09-.06h.06Z" transform="translate(-10.13 -50.21)"/></g></svg>