<?xml version="1.0" encoding="UTF-8"?>
<svg width="50px" height="50px" viewBox="0 0 50 50" version="1.1" xmlns="http://www.w3.org/2000/svg" xmlns:xlink="http://www.w3.org/1999/xlink">
    <!-- Generator: Sketch 52.5 (67469) - http://www.bohemiancoding.com/sketch -->
    <title>icons / profiles / building</title>
    <desc>Created with Sketch.</desc>
    <g id="icons-/-profiles-/-building" stroke="none" stroke-width="1" fill="none" fill-rule="evenodd">
        <g id="Group-4" fill="#73808A" fill-rule="nonzero">
            <circle id="Oval" cx="24.8687172" cy="24.8687172" r="24.8687172"></circle>
        </g>
        <g id="building-light" transform="translate(14.000000, 13.000000)" fill="#FFFFFF" fill-rule="nonzero">
            <path d="M9.375,5.22460938 L9.375,7.17773438 C9.375,7.50131836 9.11264648,7.76367188 8.7890625,7.76367188 L6.8359375,7.76367188 C6.51235352,7.76367188 6.25,7.50131836 6.25,7.17773438 L6.25,5.22460938 C6.25,4.90102539 6.51235352,4.63867188 6.8359375,4.63867188 L8.7890625,4.63867188 C9.11264648,4.63867188 9.375,4.90102539 9.375,5.22460938 Z M15.0390625,4.63867188 L13.0859375,4.63867188 C12.7623535,4.63867188 12.5,4.90102539 12.5,5.22460938 L12.5,7.17773438 C12.5,7.50131836 12.7623535,7.76367188 13.0859375,7.76367188 L15.0390625,7.76367188 C15.3626465,7.76367188 15.625,7.50131836 15.625,7.17773438 L15.625,5.22460938 C15.625,4.90102539 15.3626465,4.63867188 15.0390625,4.63867188 Z M8.7890625,9.32617188 L6.8359375,9.32617188 C6.51235352,9.32617188 6.25,9.58852539 6.25,9.91210938 L6.25,11.8652344 C6.25,12.1888184 6.51235352,12.4511719 6.8359375,12.4511719 L8.7890625,12.4511719 C9.11264648,12.4511719 9.375,12.1888184 9.375,11.8652344 L9.375,9.91210938 C9.375,9.58852539 9.11264648,9.32617188 8.7890625,9.32617188 Z M15.0390625,9.32617188 L13.0859375,9.32617188 C12.7623535,9.32617188 12.5,9.58852539 12.5,9.91210938 L12.5,11.8652344 C12.5,12.1888184 12.7623535,12.4511719 13.0859375,12.4511719 L15.0390625,12.4511719 C15.3626465,12.4511719 15.625,12.1888184 15.625,11.8652344 L15.625,9.91210938 C15.625,9.58852539 15.3626465,9.32617188 15.0390625,9.32617188 Z M8.7890625,14.0136719 L6.8359375,14.0136719 C6.51235352,14.0136719 6.25,14.2760254 6.25,14.5996094 L6.25,16.5527344 C6.25,16.8763184 6.51235352,17.1386719 6.8359375,17.1386719 L8.7890625,17.1386719 C9.11264648,17.1386719 9.375,16.8763184 9.375,16.5527344 L9.375,14.5996094 C9.375,14.2760254 9.11264648,14.0136719 8.7890625,14.0136719 Z M15.0390625,14.0136719 L13.0859375,14.0136719 C12.7623535,14.0136719 12.5,14.2760254 12.5,14.5996094 L12.5,16.5527344 C12.5,16.8763184 12.7623535,17.1386719 13.0859375,17.1386719 L15.0390625,17.1386719 C15.3626465,17.1386719 15.625,16.8763184 15.625,16.5527344 L15.625,14.5996094 C15.625,14.2760254 15.3626465,14.0136719 15.0390625,14.0136719 Z M21.875,24.0234375 L21.875,25 L0,25 L0,24.0234375 C0,23.6998535 0.262353516,23.4375 0.5859375,23.4375 L1.5625,23.4375 L1.5625,1.171875 C1.5625,0.524658203 2.0871582,0 2.734375,0 L19.140625,0 C19.7878418,0 20.3125,0.524658203 20.3125,1.171875 L20.3125,23.4375 L21.2890625,23.4375 C21.6126465,23.4375 21.875,23.6998535 21.875,24.0234375 Z M18.75,23.4375 L18.75,1.5625 L3.125,1.5625 L3.125,23.4375 L9.375,23.4375 L9.375,19.2871094 C9.375,18.9635254 9.63735352,18.7011719 9.9609375,18.7011719 L11.9140625,18.7011719 C12.2376465,18.7011719 12.5,18.9635254 12.5,19.2871094 L12.5,23.4375 L18.75,23.4375 Z" id="Shape"></path>
        </g>
    </g>
</svg>