<svg xmlns="http://www.w3.org/2000/svg" xmlns:xlink="http://www.w3.org/1999/xlink" width="134" height="134" viewBox="0 0 134 134">
  <defs>
    <polygon id="planeillustration-a" points="0 .333 134 .333 134 95 0 95"/>
  </defs>
  <g fill="none" fill-rule="evenodd">
    <path fill="#74C8E9" d="M134,30 L134,104 C134,120.561 120.57,134 104,134 L30,134 C13.43,134 0,120.561 0,104 L0,0 L104,0 C120.57,0 134,13.431 134,30"/>
    <g transform="translate(0 39)">
      <mask id="planeillustration-b" fill="#fff">
        <use xlink:href="#planeillustration-a"/>
      </mask>
      <path fill="#49B8E6" d="M134,9.1504 L134,65.0004 C134,81.5604 120.57,95.0004 104,95.0004 L30,95.0004 C13.43,95.0004 0,81.5604 0,65.0004 L0,9.1504 C10.7,15.0404 19.68,16.9104 25.47,17.6104 C60.11,21.7604 79.34,-4.3196 112.25,1.0704 C122.149,2.6904 129.7,6.5704 134,9.1504" mask="url(#planeillustration-b)"/>
    </g>
    <path fill="#FFF" d="M98.1416,116.501 L96.5656,118.078 C95.8436,118.8 94.6276,118.545 94.2526,117.591 L75.0406,67.689 C68.9736,72.64 63.3596,77.023 59.0246,80.608 L60.5026,95.295 C60.6726,96.964 60.0786,98.618 58.8906,99.807 L57.8296,100.867 C57.2856,101.412 56.3666,101.214 56.0826,100.492 L50.1156,84.992 L50.1716,84.936 C49.1246,85.077 48.1426,84.731 47.4206,84.08 C46.6576,83.401 46.1906,82.397 46.2466,81.28 L31.0016,75.411 C30.2816,75.128 30.0826,74.209 30.6266,73.665 L31.6886,72.605 C32.8756,71.416 34.5306,70.822 36.1996,70.992 L50.0446,72.378 C50.1366,72.258 50.2216,72.145 50.3206,72.031 C54.1106,67.676 58.6146,62.238 63.5996,56.376 L13.9046,37.242 C12.9566,36.874 12.6956,35.65 13.4156,34.93 L14.9936,33.353 C16.5706,31.775 18.7696,30.991 20.9826,31.21 L80.7186,37.206 C80.9586,36.952 81.1926,36.704 81.4326,36.449 C87.7756,29.866 88.4686,29.004 93.1856,24.188 C98.1416,19.105 104.3006,15.363 111.0816,13.292 C113.2666,12.62 115.3886,13.313 116.7816,14.721 C118.1666,16.12 118.8536,18.221 118.1886,20.398 L118.1746,20.455 C116.1026,27.208 112.3826,33.346 107.3416,38.288 C102.3416,43.188 101.0476,44.327 94.2946,50.825 L100.2846,110.512 C100.5036,112.726 99.7186,114.925 98.1416,116.501"/>
    <path fill="#C3E7F5" d="M98.1416,116.501 L96.5656,118.078 C95.8436,118.8 94.6276,118.545 94.2526,117.591 L75.0406,67.689 L73.9096,68.609 C72.0286,70.137 70.2046,71.607 68.4506,73.007 L68.2816,73.148 C64.8366,75.899 61.6906,78.409 59.0246,80.608 L60.5026,95.295 C60.6726,96.964 60.0786,98.618 58.8906,99.807 L57.8296,100.867 C57.2856,101.412 56.3666,101.214 56.0826,100.492 L50.2916,85.467 L50.1156,84.992 L50.1716,84.936 C49.1246,85.077 48.1426,84.731 47.4206,84.08 L116.7816,14.721 C118.1666,16.12 118.8536,18.221 118.1886,20.398 L118.1746,20.455 C116.1026,27.208 112.3826,33.346 107.3416,38.288 C102.3416,43.188 101.0476,44.327 94.2946,50.825 L100.2846,110.512 C100.5036,112.726 99.7186,114.925 98.1416,116.501"/>
    <path fill="#153051" d="M17.3086 115.1816C17.0526 115.1816 16.7966 115.0836 16.6016 114.8886 16.2106 114.4976 16.2106 113.8656 16.6016 113.4746L30.2286 99.8476C30.6196 99.4566 31.2516 99.4566 31.6426 99.8476 32.0336 100.2386 32.0336 100.8706 31.6426 101.2616L18.0156 114.8886C17.8206 115.0836 17.5646 115.1816 17.3086 115.1816M28.832 116.4687C28.576 116.4687 28.32 116.3707 28.125 116.1757 27.734 115.7847 27.734 115.1527 28.125 114.7617L41.752 101.1347C42.143 100.7437 42.775 100.7437 43.166 101.1347 43.557 101.5257 43.557 102.1577 43.166 102.5487L29.539 116.1757C29.344 116.3707 29.088 116.4687 28.832 116.4687M16.0215 103.6582C15.7655 103.6582 15.5095 103.5602 15.3145 103.3652 14.9235 102.9742 14.9235 102.3422 15.3145 101.9512L28.9415 88.3242C29.3325 87.9332 29.9645 87.9332 30.3555 88.3242 30.7465 88.7152 30.7465 89.3472 30.3555 89.7382L16.7285 103.3652C16.5335 103.5602 16.2775 103.6582 16.0215 103.6582"/>
    <path fill="#E6F4FB" d="M63.5996 56.376L13.9046 37.242C12.9566 36.874 12.6956 35.65 13.4156 34.93L14.9936 33.353C16.5706 31.775 18.7696 30.991 20.9826 31.21L80.7186 37.206 63.5996 56.376zM46.2471 81.2803L31.0021 75.4113C30.2811 75.1283 30.0831 74.2093 30.6271 73.6653L31.6881 72.6043C32.8761 71.4163 34.5301 70.8223 36.1991 70.9923L50.0451 72.3783 46.2471 81.2803z"/>
    <path fill="#C3E7F5" d="M73.9092,68.6094 C72.0282,70.1364 70.2042,71.6074 68.4502,73.0064 L73.9092,68.6094 Z"/>
    <path fill="#DBE6EC" d="M58.8906 99.8066L57.8296 100.8676C57.2856 101.4116 56.3666 101.2136 56.0826 100.4926L50.2916 85.4666 50.1716 84.9356 59.0246 80.6086 60.5026 95.2946C60.6726 96.9636 60.0776 98.6186 58.8906 99.8066M98.1416 116.501L96.5656 118.078C95.8436 118.8 94.6276 118.545 94.2526 117.591L75.0406 67.689 94.2946 50.825 100.2846 110.512C100.5036 112.726 99.7186 114.925 98.1416 116.501"/>
    <path fill="#153051" d="M77.7207 89.2256L77.7207 89.2256C77.2097 88.7146 77.2097 87.8866 77.7207 87.3756L83.4377 81.6596C83.9487 81.1486 84.7767 81.1486 85.2867 81.6596 85.7977 82.1696 85.7977 82.9976 85.2867 83.5086L79.5707 89.2256C79.0597 89.7366 78.2317 89.7366 77.7207 89.2256M81.9629 99.126L81.9629 99.125C81.4519 98.614 81.4519 97.787 81.9629 97.275L87.6799 91.559C88.1909 91.048 89.0189 91.048 89.5289 91.559 90.0399 92.069 90.0399 92.897 89.5289 93.408L83.8129 99.126C83.3019 99.637 82.4739 99.637 81.9629 99.126M42.9287 54.4346L42.9287 54.4346C43.4397 54.9456 44.2677 54.9456 44.7787 54.4346L50.4947 48.7166C51.0057 48.2056 51.0057 47.3776 50.4947 46.8676 49.9847 46.3566 49.1567 46.3566 48.6457 46.8676L42.9287 52.5846C42.4177 53.0956 42.4177 53.9236 42.9287 54.4346M33.0293 50.1914L33.0293 50.1914C33.5403 50.7024 34.3683 50.7024 34.8793 50.1914L40.5953 44.4744C41.1063 43.9634 41.1063 43.1354 40.5953 42.6254 40.0853 42.1144 39.2573 42.1144 38.7463 42.6254L33.0293 48.3414C32.5183 48.8524 32.5183 49.6804 33.0293 50.1914"/>
  </g>
</svg>
