<svg id="Layer_1" data-name="Layer 1" xmlns="http://www.w3.org/2000/svg" width="251.71" height="147.26" viewBox="0 0 251.71 147.26"><defs><style>.cls-1{fill:#e5f8fa;}.cls-2{fill:#a1d669;}.cls-3{fill:#fff5e5;}.cls-4{fill:#99c961;}.cls-5{fill:none;stroke:#00566f;stroke-linecap:round;stroke-linejoin:round;stroke-width:2px;}.cls-6{fill:#ffa000;}.cls-7{fill:#ffd999;}.cls-8{fill:#ffbd4c;}.cls-9{fill:#d7f3f4;}</style></defs><title>searchDoctorSpotMINIspot</title><path class="cls-1" d="M288.64,236.46c-16.12,13.08-37.8,11.14-57.13,9.4-6.5-.59-13-1.1-19.54-1.71-7.08-.66-14.14-1.42-21.14-2.49a167.62,167.62,0,0,1-25.88-5.89c-10-3.2-19-8.31-25.77-15a47.29,47.29,0,0,1-3.84-4.33l-.83-1.1a39,39,0,0,1-5.94-11.82c-2.23-7.43-2.19-15.83.92-25a57.28,57.28,0,0,1,4.07-9.26l.28-.52h0q1.32-2.34,2.84-4.57c.33-.48.66-1,1-1.43l.18-.25,1-1.35c.34-.45.65-.85,1-1.27h0a71.4,71.4,0,0,1,5.1-5.7,83.16,83.16,0,0,1,16.1-12.55c14.17-8.53,30.31-13.24,46.51-16.62,17.7-3.7,36.48-5.85,53.58,0a60.92,60.92,0,0,1,23.26,14.73,70,70,0,0,1,6.69,7.75,75.24,75.24,0,0,1,7,11.45q.94,1.88,1.78,3.81a78,78,0,0,1,6.46,28.74C306.82,207.68,301.74,225.82,288.64,236.46Z" transform="translate(-54.66 -99.85)"/><path class="cls-2" d="M242.9,194.41a28,28,0,0,0,28,28,26,26,0,0,0,3.52-.25h.15l.06.07h0L277,224.9l3.06,3.49,1.49-4.39,1.45-4.4a27.73,27.73,0,0,0,6.73-4.54,28.43,28.43,0,0,0,9.14-20.66,28,28,0,0,0-37.6-26.28c-.23.09-.46.17-.69.27l-.36.15-.17.07-.47.21h0A28.46,28.46,0,0,0,245,183.74a28,28,0,0,0-2,8C242.94,192.62,242.9,193.52,242.9,194.41Z" transform="translate(-54.66 -99.85)"/><path class="cls-3" d="M261.14,190a2.16,2.16,0,0,0-.86-4.23l-.27.07a2.11,2.11,0,0,0-1.33,1.33,2.16,2.16,0,0,0,2.46,2.83Z" transform="translate(-54.66 -99.85)"/><path class="cls-4" d="M284.82,170.48a30.87,30.87,0,0,1-21.41,50.19c2.34,1.46,10.93,1.66,10.93,1.66l5.69,5.93,3-8.74s5.14-2.81,5.62-3.2a27.7,27.7,0,0,0-2.09-44.77,18.21,18.21,0,0,0-1.77-1" transform="translate(-54.66 -99.85)"/><path class="cls-3" d="M277.52,189.25a1.24,1.24,0,0,1-1-.5,2.32,2.32,0,0,0-1.62-.89,2.41,2.41,0,0,0-1.88.9,1.25,1.25,0,1,1-2-1.49h0a4.89,4.89,0,0,1,4-1.88,4.75,4.75,0,0,1,3.46,1.88,1.24,1.24,0,0,1-1,2Z" transform="translate(-54.66 -99.85)"/><path class="cls-3" d="M268.14,200.25a5.5,5.5,0,0,1-5.5-5.5h0v-.21h11v.21a5.5,5.5,0,0,1-5.5,5.5Z" transform="translate(-54.66 -99.85)"/><line class="cls-5" x1="143.86" y1="104.41" x2="145.21" y2="132.18"/><line class="cls-5" x1="139.35" y1="104.02" x2="119.17" y2="131.35"/><line class="cls-5" x1="165.95" y1="131.35" x2="148.32" y2="103.6"/><path class="cls-6" d="M204.47,192.24l-.23,8.89a3.55,3.55,0,0,1-3.53,3.13h-5.08a3.55,3.55,0,0,1-3.45-2.73l-2.46-14.31c1.23,1.92,3.22,2.22,5.21,2a5,5,0,0,0,2.66-1.27C199.89,189.48,202.18,190.76,204.47,192.24Z" transform="translate(-54.66 -99.85)"/><circle class="cls-3" cx="143.41" cy="99.2" r="1.51"/><path class="cls-7" d="M216,182.79a15.84,15.84,0,0,1-2.54,6.14,13.18,13.18,0,0,1-.85,1.12h0c-1-.7-1.88-1.5-2.85-2.17a2.76,2.76,0,0,0-1.88-.66,9,9,0,0,0-1.45.58c-1.21.4-2.48-.28-3.57-.93l-2.12-1.28-1.09-.65,7.06-12,1.09.94,7.37,6.39A2.6,2.6,0,0,1,216,182.79Z" transform="translate(-54.66 -99.85)"/><path class="cls-8" d="M208.15,172.9c-.11.33-.23.68-.36,1a34.58,34.58,0,0,1-4.17,8.05,35.87,35.87,0,0,1-2.89,3.61l-1.09-.65-1.66-1a3.29,3.29,0,0,0-1.88-.65,5.64,5.64,0,0,0-1.31.39c-1.7.54-3.51-.2-5.14-.92l-16.22-7.15c-2.47-1.09-5-2.07-7.45-3.21-1.18-.55-2.38-1.19-3.63-1.65-.31-.12-.62-.22-.93-.31l19.89-28.23h0l26.26,28.1A2.61,2.61,0,0,1,208.15,172.9Z" transform="translate(-54.66 -99.85)"/><path class="cls-8" d="M209.57,192.85l5.89,4.13a5.24,5.24,0,0,0,2,.86,5.3,5.3,0,0,0,4.5-9.21,3.66,3.66,0,0,0-.4-.31l-5.88-4.14" transform="translate(-54.66 -99.85)"/><path class="cls-8" d="M144,140.16c-7.05,10-14.08,18.26-18.91,22.52-.15.12-.28.26-.43.37-2.32,2-4.11,3-5.07,2.75a1.21,1.21,0,0,1-.3-.13c-.72-.5-.63-2.07.12-4.41q.1-.32.22-.67l.2-.55h0l.21-.55,34.06-48.34.38-.33c2.53-2.14,4.39-3.1,5.24-2.49a1.16,1.16,0,0,1,.44.75C161,112.61,154.2,125.72,144,140.16Z" transform="translate(-54.66 -99.85)"/><path class="cls-1" d="M150.14,111.54a50.36,50.36,0,0,1-7.73,22.19c-3,4.63-7,10.47-14.6,13.22a24.16,24.16,0,0,1-9.77,1.36,35.51,35.51,0,0,1,32.11-36.78Z" transform="translate(-54.66 -99.85)"/><path class="cls-9" d="M163.77,146.45c-6.61,14.26-23.82,22.34-41.06,18.17l-.4-.72A35.48,35.48,0,0,1,118,148.32a24.16,24.16,0,0,0,9.8-1.32c7.63-2.75,11.57-8.6,14.6-13.22a50.36,50.36,0,0,0,7.73-22.19,35.27,35.27,0,0,1,9.4.34h.16C167.12,122.3,168.83,135.56,163.77,146.45Z" transform="translate(-54.66 -99.85)"/><path class="cls-7" d="M181.53,141.71l-.21.49a98.51,98.51,0,0,1-19,28.55c-.31-.12-.62-.22-.93-.31a7.9,7.9,0,0,0-2.83-.33,27.93,27.93,0,0,0-4.91,1.33,16.69,16.69,0,0,1-9.28-.54c-2.92-.94-13.53-5.53-16.12-6.51l-3.58-1.33.43-.37c4.9-4.27,11.9-12.52,18.9-22.53,10.17-14.44,16.92-27.56,16.16-31.09l.21-.3L180.32,133A8.42,8.42,0,0,1,181.53,141.71Z" transform="translate(-54.66 -99.85)"/><path class="cls-6" d="M200.73,185.6h0a36.39,36.39,0,0,1-3.35,3.19l-.88.7a4.26,4.26,0,0,1-3,.21h0L190,188.17h0c-10.22-4.92-20.92-9.11-31.35-13.62q1.8-1.7,3.69-3.66l.13-.14h0c1.25.46,2.45,1.1,3.63,1.65,2.45,1.15,5,2.12,7.45,3.21l16.22,7.15c1.63.72,3.44,1.45,5.14.92a5.64,5.64,0,0,1,1.31-.39,3.29,3.29,0,0,1,1.88.65l1.66,1Z" transform="translate(-54.66 -99.85)"/><path class="cls-6" d="M223.57,194.24a5.21,5.21,0,0,1-4.52,3.63A8,8,0,0,1,214,196a41.21,41.21,0,0,0-4.39-3.19,16.2,16.2,0,0,0,3-2.77,12.26,12.26,0,0,0,2,1.25,5.41,5.41,0,0,0,7.25-2.44l.11-.24A5.57,5.57,0,0,1,223.57,194.24Z" transform="translate(-54.66 -99.85)"/><path class="cls-8" d="M212.6,190.06a16.2,16.2,0,0,1-3,2.77h-.07a.78.78,0,0,1-.12.17c-.36.26-.71.46-1,.65a2.24,2.24,0,0,1-.48.21,3.23,3.23,0,0,1-1,0,5.87,5.87,0,0,1-1.9-.67l-.26-.14-.29-.17-.33-.19-.8-.46-5.25-3.07a1.17,1.17,0,0,0-.42-.17l-.29-.17a36.39,36.39,0,0,0,3.35-3.19h0l2.12,1.28c1.09.65,2.36,1.33,3.57.93a9,9,0,0,1,1.45-.58,2.76,2.76,0,0,1,1.88.66C210.72,188.57,211.63,189.36,212.6,190.06Z" transform="translate(-54.66 -99.85)"/><path class="cls-8" d="M162.35,170.74h0l-.13.14q-1.89,2-3.69,3.66h0l-.4.38a8.4,8.4,0,0,1-8.58,1.78l-29.92-10.9c1,.26,2.75-.74,5.07-2.75l3.58,1.33c2.59,1,13.2,5.57,16.12,6.51a16.69,16.69,0,0,0,9.28.54,27.93,27.93,0,0,1,4.91-1.33,7.9,7.9,0,0,1,2.83.33C161.73,170.52,162,170.63,162.35,170.74Z" transform="translate(-54.66 -99.85)"/><path class="cls-8" d="M62,122.64H59.83v-2.17a1,1,0,0,0-2,0v2.17H55.66a1,1,0,0,0,0,2h2.17v2.17a1,1,0,0,0,2,0v-2.17H62a1,1,0,0,0,0-2Z" transform="translate(-54.66 -99.85)"/><path class="cls-8" d="M108.5,189.94h-2.69v-2.69a1.2,1.2,0,0,0-2.4,0h0v2.69h-2.69a1.2,1.2,0,0,0,0,2.4h2.69V195a1.2,1.2,0,0,0,2.4,0v-2.69h2.69a1.2,1.2,0,1,0,0-2.4Z" transform="translate(-54.66 -99.85)"/><path class="cls-8" d="M107.79,105.51l-4.38-.08.08-4.38a1.2,1.2,0,0,0-2.4,0l-.08,4.38-4.38-.08a1.2,1.2,0,1,0,0,2.4h0l4.38.08-.08,4.38a1.2,1.2,0,1,0,2.4,0l.08-4.38,4.38.08a1.2,1.2,0,0,0,0-2.4Z" transform="translate(-54.66 -99.85)"/></svg>