<svg id="Layer_1" data-name="Layer 1" xmlns="http://www.w3.org/2000/svg" width="433.09" height="277.82" viewBox="0 0 433.09 277.82"><defs><style>.cls-1{fill:#e5f8fa;}.cls-2{fill:#c7e0e5;}.cls-16,.cls-3{fill:none;stroke-linecap:round;stroke-linejoin:round;stroke-width:1.5px;}.cls-3{stroke:#c7e0e5;}.cls-4{fill:#a1d669;}.cls-5{fill:#fff5e5;}.cls-6{fill:#99c961;}.cls-7{fill:#ffbd4c;}.cls-8{opacity:0.6;}.cls-9{fill:#bfd8db;}.cls-10{fill:#99bbc5;}.cls-11{fill:#00566f;}.cls-12{fill:#ffa000;}.cls-13{fill:#ffd999;}.cls-14{fill:#fff;}.cls-15{fill:#ffa575;}.cls-16{stroke:#fff5e5;}</style></defs><title>searchDoctorFULLspot</title><path class="cls-1" d="M217.58,98.27l-.23-.24c-21-22-40-51.91-70.92-60.63-53.13-15-114.76,22.21-133.8,72-11.46,30-8.56,64.62,4.06,93.84,35.53,82.24,146.77,97.57,192.39,103.86,57.3,7.9,124.72,8.35,177.82-17.52,22.16-10.8,40.26-27.7,48.78-51.34,3-8.2,4-17.37,1.21-25.62-7.46-22-36-22.65-55.21-25.58-28.21-4.31-55.7-10.93-81.23-24.08C269.12,146.8,241.85,123.64,217.58,98.27Z" transform="translate(-5.44 -34.04)"/><path class="cls-2" d="M388,253.3l5.72-30.08a1.27,1.27,0,0,1,2.5,0L406,275H383.8l3.1-16.32Z" transform="translate(-5.44 -34.04)"/><line class="cls-3" x1="194.04" y1="241.01" x2="413.95" y2="241.01"/><polyline class="cls-3" points="3.01 241.01 7.91 241.01 13.19 241.01 85.79 241.01 93.49 241.01 194.04 241.01"/><path class="cls-4" d="M284.52,222.62a29.21,29.21,0,0,0,29.2,29.22h0a27.19,27.19,0,0,0,3.67-.26h.16l.06.07h0l2.46,2.79,3.19,3.64,1.55-4.59,1.54-4.58a29,29,0,0,0,7-4.74A29.69,29.69,0,0,0,343,222.61a29.21,29.21,0,0,0-39.26-27.44l-.72.28-.37.16-.17.07-.49.22h0a29.71,29.71,0,0,0-15.23,15.59,29.18,29.18,0,0,0-2.06,8.36A18.08,18.08,0,0,0,284.52,222.62Z" transform="translate(-5.44 -34.04)"/><path class="cls-5" d="M303.56,218.05a2.25,2.25,0,0,0-1-4.38l-.14,0A2.2,2.2,0,0,0,301,215.1a2.26,2.26,0,0,0,2.56,2.95Z" transform="translate(-5.44 -34.04)"/><path class="cls-6" d="M328.29,197.64A32.23,32.23,0,0,1,305.93,250c2.44,1.52,11.41,1.73,11.41,1.73l5.94,6.19,3.08-9.13s5.36-2.93,5.87-3.34A28.92,28.92,0,0,0,330,198.71c-.61-.4-1.2-.71-1.84-1.07" transform="translate(-5.44 -34.04)"/><path class="cls-5" d="M320.67,217.23a1.29,1.29,0,0,1-1-.52,2.42,2.42,0,0,0-1.69-.93,2.51,2.51,0,0,0-2,.93,1.3,1.3,0,0,1-2.07-1.56,5.1,5.1,0,0,1,4.19-2,5,5,0,0,1,3.62,2,1.29,1.29,0,0,1-1,2.07Z" transform="translate(-5.44 -34.04)"/><path class="cls-5" d="M310.87,228.71a5.74,5.74,0,0,1-5.74-5.74v-.22h11.44V223A5.74,5.74,0,0,1,310.87,228.71Z" transform="translate(-5.44 -34.04)"/><path class="cls-7" d="M99.25,87a1.08,1.08,0,0,1-1.08-1.08h0V79.07a1.08,1.08,0,1,1,2.16,0v6.85A1.08,1.08,0,0,1,99.25,87Z" transform="translate(-5.44 -34.04)"/><path class="cls-7" d="M102.67,83.58H95.82a1.08,1.08,0,0,1,0-2.16h6.85a1.08,1.08,0,0,1,0,2.16Z" transform="translate(-5.44 -34.04)"/><path class="cls-7" d="M66.29,122.89A1.29,1.29,0,0,1,65,121.6h0v-8.4a1.29,1.29,0,0,1,2.59,0h0v8.39a1.29,1.29,0,0,1-1.28,1.3Z" transform="translate(-5.44 -34.04)"/><path class="cls-7" d="M70.48,118.69H62.09a1.29,1.29,0,1,1,0-2.59h8.39a1.29,1.29,0,1,1,0,2.59Z" transform="translate(-5.44 -34.04)"/><path class="cls-7" d="M128.64,137a1.29,1.29,0,0,1-1.29-1.29v-12a1.3,1.3,0,0,1,2.59,0v12a1.29,1.29,0,0,1-1.29,1.29Z" transform="translate(-5.44 -34.04)"/><path class="cls-7" d="M134.67,130.94h-12a1.29,1.29,0,1,1,0-2.59h12a1.29,1.29,0,0,1,0,2.59Z" transform="translate(-5.44 -34.04)"/><g class="cls-8"><path class="cls-2" d="M316.77,183.54a.75.75,0,0,1-.51-1.3l65.45-60.76a2.91,2.91,0,0,1,2.27-.76,2.85,2.85,0,0,1,1.73.81l32.24,31.35a.75.75,0,0,1-1,1.08L384.66,122.6a1.4,1.4,0,0,0-1.93,0l-65.45,60.76A.75.75,0,0,1,316.77,183.54Z" transform="translate(-5.44 -34.04)"/><path class="cls-2" d="M26,200a.75.75,0,0,1-.52-1.29l59.15-57.13a3,3,0,0,1,4,0L141.94,193a.75.75,0,1,1-1,1.08l-53.22-51.4a1.46,1.46,0,0,0-2,0L26.57,199.77A.75.75,0,0,1,26,200Z" transform="translate(-5.44 -34.04)"/><path class="cls-9" d="M252,184a.75.75,0,0,1-.46-1.34L307.18,139a2.93,2.93,0,0,1,1.89-.62,2.89,2.89,0,0,1,1.79.69l27.38,23.62a.76.76,0,1,1-1,1.14l-27.38-23.61a1.39,1.39,0,0,0-.86-.34,1.35,1.35,0,0,0-.92.29l-55.6,43.57A.75.75,0,0,1,252,184Z" transform="translate(-5.44 -34.04)"/><path class="cls-2" d="M411.12,101.14a1.29,1.29,0,0,1-1.29,1.29h-2.52v2.51a1.29,1.29,0,0,1-2.58,0h0v-2.51h-2.52a1.29,1.29,0,0,1,0-2.59h2.52V97.33a1.29,1.29,0,0,1,2.58,0h0v2.51h2.52A1.3,1.3,0,0,1,411.12,101.14Z" transform="translate(-5.44 -34.04)"/><circle class="cls-2" cx="97.23" cy="92.65" r="1.93"/><circle class="cls-2" cx="28.04" cy="133.19" r="1.93"/><circle class="cls-2" cx="270.04" cy="100.05" r="1.93"/><circle class="cls-2" cx="303.59" cy="65.34" r="1.93"/><path class="cls-2" d="M343,123.08a12.27,12.27,0,0,1-7.13-2.29.75.75,0,0,1-.28-.85.79.79,0,0,1,.73-.51,10.75,10.75,0,0,0,6.44-19.49.75.75,0,0,1,.44-1.36h0a12,12,0,0,1,3.65.62,12.27,12.27,0,0,1,7.79,15.48h0A12.28,12.28,0,0,1,343,123.08Zm-4.21-2.36a8.71,8.71,0,0,0,.85.32,10.75,10.75,0,0,0,6.75-20.42l-.87-.25a12.27,12.27,0,0,1-6.72,20.35Zm15.15-6.28Z" transform="translate(-5.44 -34.04)"/><path class="cls-2" d="M141.42,193.51l-1.78,1.76a14.08,14.08,0,0,1-14.87,3.19l-3.65-1.37a14.08,14.08,0,0,1-8.05-7.78h0a14.08,14.08,0,0,0-11.13-8.56l-.58-.08a14.08,14.08,0,0,1-12.14-12.59l-2.53-26v-.61a2.17,2.17,0,0,1,1.5.6Z" transform="translate(-5.44 -34.04)"/><path class="cls-9" d="M337.75,163.31l-10.35,9.61-3.69-2.48a24.84,24.84,0,0,1-10.13-14.09L309,139.71v-.53a2.14,2.14,0,0,1,1.34.52Z" transform="translate(-5.44 -34.04)"/><path class="cls-2" d="M410.72,146.73l7.13,7.13a22.46,22.46,0,0,1-5,14.35,21,21,0,0,1-5.91,4.84l-4.16-1.27a11.91,11.91,0,0,1-8.42-11.39v-4.3a11.91,11.91,0,0,0-.59-3.69l-9.94-30.47.09-.45a2.12,2.12,0,0,1,1.28.6Z" transform="translate(-5.44 -34.04)"/></g><path class="cls-2" d="M66.3,275l-1-5.12L60,243.47a1.27,1.27,0,0,0-2.5,0L51.1,275" transform="translate(-5.44 -34.04)"/><path class="cls-2" d="M51.1,275l1.83-9.07-10.4-54.71a1.27,1.27,0,0,0-2.5,0l-1.42,7.45-1.09,5.73L27.91,275" transform="translate(-5.44 -34.04)"/><path class="cls-10" d="M66.31,275h-5.8L59,242.75a.41.41,0,1,1,.82-.1l4.54,22.5.88,4.35Z" transform="translate(-5.44 -34.04)"/><path class="cls-10" d="M51.1,275H44.47l-3-64.17a.45.45,0,1,1,.9-.11l10.72,55.17Z" transform="translate(-5.44 -34.04)"/><path class="cls-10" d="M406,275h-8.47l-2.36-52.4a.43.43,0,0,1,.85-.1Z" transform="translate(-5.44 -34.04)"/><path class="cls-11" d="M239.59,275.83a1,1,0,0,1-1-1l-1.41-50.55a1,1,0,1,1,2-.06l1.41,50.55a1,1,0,0,1-1,1Z" transform="translate(-5.44 -34.04)"/><path class="cls-11" d="M212.4,275a1,1,0,0,1-.92-1.39l21.08-50.1a1,1,0,0,1,1.84.78l-21.08,50.1A1,1,0,0,1,212.4,275Z" transform="translate(-5.44 -34.04)"/><path class="cls-11" d="M261.25,275a1,1,0,0,1-.94-.66L241.9,223.8a1,1,0,1,1,1.88-.69h0l18.41,50.54a1,1,0,0,1-.94,1.34Z" transform="translate(-5.44 -34.04)"/><path class="cls-12" d="M244.4,211.73l-.24,9.28a3.71,3.71,0,0,1-3.68,3.27h-5.3a3.71,3.71,0,0,1-3.61-2.85L229,206.5c1.28,2,3.37,2.32,5.44,2.12a5.24,5.24,0,0,0,2.78-1.32C239.61,208.85,242,210.18,244.4,211.73Z" transform="translate(-5.44 -34.04)"/><circle class="cls-5" cx="232.27" cy="184.8" r="1.57"/><path class="cls-13" d="M256.44,201.86a16.54,16.54,0,0,1-2.66,6.41,13.76,13.76,0,0,1-.89,1.16h0c-1-.73-2-1.56-3-2.27a2.89,2.89,0,0,0-2-.69,9.43,9.43,0,0,0-1.52.6c-1.26.41-2.59-.29-3.73-1l-2.22-1.34-1.14-.68,7.37-12.48,1.14,1,7.69,6.68A2.71,2.71,0,0,1,256.44,201.86Z" transform="translate(-5.44 -34.04)"/><path class="cls-7" d="M248.24,191.53c-.11.34-.24.71-.38,1.08A36.11,36.11,0,0,1,243.5,201a37.45,37.45,0,0,1-3,3.77l-1.14-.68-1.73-1a3.43,3.43,0,0,0-2-.68,5.89,5.89,0,0,0-1.36.41c-1.78.56-3.67-.21-5.36-1L212,194.36c-2.58-1.14-5.23-2.16-7.78-3.36-1.23-.58-2.48-1.24-3.79-1.72-.32-.12-.65-.23-1-.33l20.77-29.48h0l27.42,29.34A2.73,2.73,0,0,1,248.24,191.53Z" transform="translate(-5.44 -34.04)"/><path class="cls-7" d="M249.72,212.37l6.15,4.31a5.47,5.47,0,0,0,2.09.9,5.53,5.53,0,0,0,4.7-9.62,3.82,3.82,0,0,0-.42-.33l-6.13-4.32" transform="translate(-5.44 -34.04)"/><path class="cls-7" d="M181.29,157.35c-7.37,10.44-14.7,19.06-19.74,23.51-.16.13-.29.27-.45.39-2.42,2.1-4.29,3.15-5.3,2.87a1.26,1.26,0,0,1-.31-.14c-.75-.53-.66-2.16.12-4.61q.1-.34.23-.7l.21-.57h0c.07-.19.15-.38.22-.58L191.83,127l.4-.35c2.64-2.23,4.58-3.23,5.47-2.6a1.21,1.21,0,0,1,.46.78C199,128.58,191.91,142.28,181.29,157.35Z" transform="translate(-5.44 -34.04)"/><path class="cls-14" d="M187.67,127.47a52.58,52.58,0,0,1-8.07,23.17c-3.17,4.83-7.28,10.94-15.25,13.81a25.23,25.23,0,0,1-10.2,1.42,37.08,37.08,0,0,1,33.53-38.4Z" transform="translate(-5.44 -34.04)"/><path class="cls-5" d="M201.9,163.92c-6.9,14.88-24.9,23.33-42.9,19-.14-.25-.28-.5-.41-.75a37,37,0,0,1-4.47-16.28,25.23,25.23,0,0,0,10.2-1.42c8-2.87,12.08-9,15.25-13.81a52.58,52.58,0,0,0,8.07-23.17,36.83,36.83,0,0,1,9.82.35h.16C205.4,138.71,207.18,152.55,201.9,163.92Z" transform="translate(-5.44 -34.04)"/><path class="cls-13" d="M220.44,159c-.08.16-.15.34-.22.51a102.85,102.85,0,0,1-19.8,29.81c-.32-.12-.65-.23-1-.33a8.25,8.25,0,0,0-2.95-.35c-1.78.13-3.42.94-5.13,1.39a17.42,17.42,0,0,1-9.69-.56c-3.05-1-14.13-5.78-16.84-6.8l-3.73-1.39c.16-.12.29-.26.45-.39,5-4.45,12.38-13.07,19.74-23.51,10.62-15.08,17.66-28.77,16.87-32.46l.22-.31,20.79,25.31A8.79,8.79,0,0,1,220.44,159Z" transform="translate(-5.44 -34.04)"/><path class="cls-12" d="M240.49,204.79h0a38,38,0,0,1-3.5,3.33l-.92.73a4.45,4.45,0,0,1-3.16.22h0l-3.68-1.6h0c-10.67-5.14-21.84-9.51-32.73-14.22q1.88-1.77,3.86-3.82l.14-.15h0c1.3.48,2.55,1.15,3.79,1.72,2.55,1.2,5.2,2.22,7.78,3.36L229,201.83c1.7.75,3.59,1.52,5.36,1a5.89,5.89,0,0,1,1.36-.41,3.43,3.43,0,0,1,2,.68l1.73,1Z" transform="translate(-5.44 -34.04)"/><path class="cls-12" d="M264.33,213.82a5.44,5.44,0,0,1-4.72,3.79,8.35,8.35,0,0,1-5.28-1.93,43,43,0,0,0-4.58-3.33,16.92,16.92,0,0,0,3.12-2.89,12.8,12.8,0,0,0,2.13,1.3,5.65,5.65,0,0,0,7.57-2.56l.11-.24A5.82,5.82,0,0,1,264.33,213.82Z" transform="translate(-5.44 -34.04)"/><path class="cls-7" d="M252.88,209.46a16.92,16.92,0,0,1-3.12,2.89h-.07a.82.82,0,0,1-.13.17c-.38.27-.74.48-1.08.68a2.34,2.34,0,0,1-.5.22,3.37,3.37,0,0,1-1.06,0,6.12,6.12,0,0,1-2-.7l-.27-.15-.3-.17-.35-.2-.84-.48-5.49-3.21a1.22,1.22,0,0,0-.44-.18l-.3-.17a38,38,0,0,0,3.5-3.33h0l2.22,1.34c1.14.68,2.47,1.39,3.73,1a9.43,9.43,0,0,1,1.52-.6,2.89,2.89,0,0,1,2,.69C250.92,207.9,251.87,208.72,252.88,209.46Z" transform="translate(-5.44 -34.04)"/><path class="cls-7" d="M200.42,189.28h0l-.14.15c-1.32,1.37-2.6,2.64-3.86,3.82h0l-.42.4a8.77,8.77,0,0,1-9,1.85l-31.2-11.41c1,.28,2.87-.78,5.3-2.87l3.73,1.39c2.71,1,13.78,5.81,16.84,6.8a17.42,17.42,0,0,0,9.69.56c1.72-.45,3.36-1.26,5.13-1.39a8.25,8.25,0,0,1,2.95.35A7.16,7.16,0,0,1,200.42,189.28Z" transform="translate(-5.44 -34.04)"/><path class="cls-15" d="M108.17,274.55h56.46c2.41,0,4.36-4.46,4.36-10s-1.95-10-4.36-10h-56.3Z" transform="translate(-5.44 -34.04)"/><path class="cls-13" d="M112.49,271.88a5.38,5.38,0,0,1-4.32,2.67c-3.49,0-6.33-4.46-6.33-10s2.84-10,6.33-10a5.45,5.45,0,0,1,4.41,2.8,14.44,14.44,0,0,0-.09,14.46Z" transform="translate(-5.44 -34.04)"/><path class="cls-16" d="M110.66,267c-.48,2.27-1.6,3.86-2.92,3.86-1.74,0-3.16-2.83-3.16-6.32s1.42-6.32,3.16-6.32a2.65,2.65,0,0,1,2.13,1.64" transform="translate(-5.44 -34.04)"/><path class="cls-16" d="M110.78,262.81a12.29,12.29,0,0,1,.13,1.77" transform="translate(-5.44 -34.04)"/><line class="cls-16" x1="121.27" y1="225.68" x2="156.04" y2="225.68"/><path class="cls-16" d="M165.62,264.59H148.25a9.83,9.83,0,0,1-4.18-1,5.65,5.65,0,0,0-5,.07,9.58,9.58,0,0,1-4.26.93h-3.37" transform="translate(-5.44 -34.04)"/><line class="cls-16" x1="152" y1="235.29" x2="155.99" y2="235.29"/><path class="cls-16" d="M127.38,269.33h6.56a8.94,8.94,0,0,1,4.29,1,4.17,4.17,0,0,0,4,0,9.28,9.28,0,0,1,4.4-1h4.06" transform="translate(-5.44 -34.04)"/><path class="cls-16" d="M142.27,266.89l-.44-.13a2.32,2.32,0,0,0-2.25.56h0" transform="translate(-5.44 -34.04)"/><path class="cls-7" d="M138.24,211.68c-1,3,1,6.18,2.63,8.57,2.84,4.29,7,8.41,7.43,13.77a9.71,9.71,0,0,1-1.08,5.48c-1.7,3.11-5.15,4.87-8.54,5.43a14.56,14.56,0,0,1-11.5-3,10.83,10.83,0,0,1-3.3-4.51,11.26,11.26,0,0,1-.49-6.38,16.25,16.25,0,0,1,2.72-5.47,6.18,6.18,0,0,1,.55-.78,3.46,3.46,0,0,0,1.59,2.61c1.78.94,4.07-.22,5.38-1.47,3.17-3,1.91-7.22,2.43-11.08a5.84,5.84,0,0,1,2.75-4.32A5.09,5.09,0,0,0,138.24,211.68Z" transform="translate(-5.44 -34.04)"/><path class="cls-13" d="M123.13,264.59c0,5.5-2.84,10-6.34,10s-6.33-4.46-6.33-10,2.84-10,6.33-10S123.13,259.09,123.13,264.59Z" transform="translate(-5.44 -34.04)"/><path class="cls-16" d="M119.81,267c-.48,2.27-1.6,3.86-2.92,3.86-1.74,0-3.16-2.83-3.16-6.32s1.42-6.32,3.16-6.32a2.65,2.65,0,0,1,2.13,1.64" transform="translate(-5.44 -34.04)"/><path class="cls-16" d="M119.93,262.81a12.29,12.29,0,0,1,.13,1.77" transform="translate(-5.44 -34.04)"/></svg>