<?xml version="1.0" encoding="utf-8"?>
<!-- Generator: Adobe Illustrator 21.1.0, SVG Export Plug-In . SVG Version: 6.00 Build 0)  -->
<svg version="1.1" id="Layer_1" xmlns="http://www.w3.org/2000/svg" xmlns:xlink="http://www.w3.org/1999/xlink" x="0px" y="0px"
	 viewBox="0 0 300 200" style="enable-background:new 0 0 300 200;" xml:space="preserve">
<style type="text/css">
	.st0{fill:#E8ECEF;}
	.st1{fill:#91A0A4;}
</style>
<title>searchForDoctor2</title>
<path class="st0" d="M84.2,170.5c-0.6,1.1-1.8,1.8-3,1.9c-2.4,0-4.4-3.1-4.4-6.9s2-6.9,4.4-6.9c1.3,0.1,2.4,0.8,3.1,1.9
	C82.5,163.5,82.5,167.3,84.2,170.5L84.2,170.5z"/>
<path class="st0" d="M123.5,165.4c0,3.8-1.3,6.9-3,6.9H89.1c0.1-0.8,1-1.6,1.6-2.6h23.2c0.3-0.1,5-2.1,5.8-7
	c0.2-1.4,0.1-2.8-0.3-4.2h1.1C122.1,158.5,123.5,161.6,123.5,165.4z"/>
<path class="st0" d="M47.4,172.6h-4l-1.1-22.4c0-0.2,0.1-0.3,0.3-0.3c0.1,0,0.2,0.1,0.3,0.2l3.1,15.6l0.6,3L47.4,172.6z"/>
<path class="st0" d="M36.8,172.6h-4.6L30.2,128c0-0.2,0.1-0.3,0.3-0.3c0.2,0,0.3,0.1,0.3,0.3l7.4,38.3L36.8,172.6z"/>
<path class="st0" d="M283.5,172.7h-5.9l-1.6-36.4c0-0.2,0.1-0.3,0.3-0.3c0.1,0,0.2,0.1,0.3,0.2L283.5,172.7z"/>
<path class="st1" d="M283.5,173.6h-15.4c-0.5,0-0.9-0.4-0.9-0.9c0-0.1,0-0.1,0-0.2l2.2-11.4c0.1-0.5,0.6-0.8,1.1-0.7
	s0.8,0.6,0.7,1.1l-2,10.3h13.3l-6.6-35l-3.9,20.9c-0.1,0.5-0.6,0.8-1.1,0.7s-0.8-0.6-0.7-1.1l0,0l4-20.9c0.2-1,1.1-1.6,2.1-1.5
	c0.7,0.1,1.3,0.7,1.5,1.5l6.9,36c0.1,0.5-0.2,1-0.7,1.1C283.6,173.5,283.6,173.5,283.5,173.6L283.5,173.6z"/>
<path class="st1" d="M292.8,173.6H192.1c-0.5,0-0.9-0.4-0.9-0.9c0-0.5,0.4-0.9,0.9-0.9h100.7c0.5,0,0.9,0.4,0.9,0.9
	C293.7,173.2,293.3,173.6,292.8,173.6z"/>
<path class="st1" d="M140,173.6H70.1c-0.5,0-0.9-0.4-0.9-0.9c0-0.5,0.4-0.9,0.9-0.9H140c0.5,0,0.9,0.4,0.9,0.9
	C140.9,173.2,140.5,173.6,140,173.6z"/>
<path class="st1" d="M64.7,173.6H14.3c-0.5,0-0.9-0.4-0.9-0.9c0-0.5,0.4-0.9,0.9-0.9h50.5c0.5,0,0.9,0.4,0.9,0.9
	C65.6,173.2,65.2,173.6,64.7,173.6z"/>
<path class="st1" d="M10.6,173.6H7.2c-0.5,0-0.9-0.4-0.9-0.9c0-0.5,0.4-0.9,0.9-0.9h3.4c0.5,0,0.9,0.4,0.9,0.9
	C11.5,173.2,11.1,173.6,10.6,173.6L10.6,173.6z"/>
<path class="st1" d="M130.4,178.2H67.1c-0.5,0-0.9-0.4-0.9-0.9c0-0.5,0.4-0.9,0.9-0.9h63.3c0.5,0,0.9,0.4,0.9,0.9
	C131.3,177.8,130.9,178.2,130.4,178.2z"/>
<path class="st1" d="M261.1,178.2h-82.4c-0.5,0-0.9-0.4-0.9-0.9c0-0.5,0.4-0.9,0.9-0.9h82.4c0.5,0,0.9,0.4,0.9,0.9
	C262,177.8,261.6,178.2,261.1,178.2z"/>
<path class="st1" d="M287.1,178.2h-9.9c-0.5,0-0.9-0.4-0.9-0.9c0-0.5,0.4-0.9,0.9-0.9h9.9c0.5,0,0.9,0.4,0.9,0.9
	C288,177.8,287.6,178.2,287.1,178.2z"/>
<path class="st0" d="M229.5,118.9c7.8,9.6,6.3,23.7-3.3,31.5c-3.5,2.8-7.7,4.5-12.2,4.9c1.7,1.1,7.9,1.2,7.9,1.2l4.1,4.3l2.1-6.3
	c0,0,3.7-2,4.1-2.3c8.7-6.9,10.1-19.6,3.1-28.3c-1.3-1.6-2.9-3.1-4.6-4.2C230.3,119.4,229.9,119.2,229.5,118.9"/>
<path class="st1" d="M219.4,157.4c-11.7,0-21.1-9.5-21.1-21.1c0,0,0,0,0,0c0-5.6,2.3-11,6.3-15c0.3-0.4,0.9-0.4,1.3-0.1
	c0.4,0.3,0.4,0.9,0.1,1.3c0,0-0.1,0.1-0.1,0.1c-6.3,6.2-7.6,16-3.1,23.6c3.5,5.9,9.8,9.5,16.6,9.5c0.8,0,1.7-0.1,2.5-0.2
	c0.5-0.1,1,0.2,1.1,0.7c0.1,0.5-0.2,1-0.7,1.1c0,0-0.1,0-0.1,0C221.2,157.4,220.3,157.4,219.4,157.4z"/>
<path class="st1" d="M207.3,120.9c-0.5,0-0.9-0.4-0.9-0.9c0-0.3,0.1-0.6,0.4-0.7c0.7-0.5,1.5-1,2.3-1.5c0.4-0.2,1-0.1,1.2,0.4
	c0.2,0.4,0.1,1-0.3,1.2c-0.7,0.4-1.4,0.9-2.1,1.3C207.7,120.9,207.5,120.9,207.3,120.9z"/>
<path class="st1" d="M238.9,142.6c-0.5,0-0.9-0.4-0.9-0.9c0-0.1,0-0.2,0-0.2c2.8-10.3-3.2-21-13.5-23.8c-3.9-1.1-8-0.9-11.8,0.5
	c-0.5,0.2-1-0.1-1.2-0.5s0.1-1,0.5-1.2l0,0c11-4,23.1,1.7,27.1,12.6c1.5,4.1,1.7,8.6,0.5,12.9C239.6,142.3,239.3,142.6,238.9,142.6z
	"/>
<path class="st1" d="M226,161.7c-0.3,0-0.5-0.1-0.7-0.3l-2.2-2.5c-0.3-0.4-0.3-0.9,0.1-1.3c0.4-0.3,0.9-0.3,1.3,0.1c0,0,0,0,0,0
	l1.2,1.4l1.6-4.8c0.1-0.3,0.2-0.5,0.5-0.6c3-1.5,5.6-3.7,7.5-6.4c0.3-0.4,0.9-0.4,1.3-0.1c0.3,0.3,0.4,0.7,0.2,1.1
	c-2,2.9-4.7,5.3-7.9,6.9l-2,6c-0.1,0.3-0.4,0.5-0.7,0.6L226,161.7z"/>
<path class="st1" d="M224.2,132.5c-0.3,0-0.6-0.1-0.7-0.4c-0.3-0.4-0.7-0.6-1.2-0.6c-0.5,0-1,0.2-1.4,0.6c-0.3,0.4-0.9,0.5-1.3,0.2
	c-0.4-0.3-0.5-0.9-0.2-1.3c0.7-0.9,1.8-1.4,2.9-1.4c1,0.1,1.9,0.6,2.5,1.4c0.3,0.4,0.2,1-0.2,1.3
	C224.6,132.5,224.4,132.5,224.2,132.5L224.2,132.5z"/>
<circle class="st1" cx="212" cy="131.6" r="1.6"/>
<path class="st1" d="M217.4,140.5c-2.2,0-4-1.8-4-4c0-0.1,0-0.1,0-0.1h8c0,0.1,0,0.1,0,0.1C221.4,138.7,219.6,140.5,217.4,140.5z"/>
<path class="st0" d="M138.9,70.1c-0.9,3.9-5.4,12-11.6,20.8c-5.3,7.5-10.5,13.6-14,16.6l0,0c-0.5,0.5-1.1,0.9-1.7,1.3
	c-0.5-0.8-0.9-1.5-1.3-2.3c-0.2-0.4-0.3-0.8-0.5-1.1l0,0v-0.1c-1-2.5-1.5-5.1-1.6-7.8h0.2c2.5,0.2,4.9-0.2,7.2-1
	c5.5-2,8.4-6.2,10.6-9.6c3.3-5.1,5.2-10.9,5.7-17c0-0.1,0-0.1,0-0.2c1-0.1,2-0.1,3-0.1h0.1C136.3,69.6,137.6,69.8,138.9,70.1z"/>
<path class="st0" d="M171.2,129.6l-0.2,5.6c-0.2,1.3-1.3,2.3-2.6,2.3h-3.7c-1.2,0-2.2-0.8-2.5-2l-1.8-10.4c0.8,1.3,2.2,2.1,3.8,2.1
	c0.7-0.1,1.4-0.4,1.9-0.8L171.2,129.6z"/>
<path class="st0" d="M184.5,131.2c-0.6,0.9-1.7,1.5-2.8,1.6c-1.3,0-2.6-0.5-3.7-1.3c-1-0.9-2.1-1.6-3.2-2.3
	c-0.4,0.6-1.2,0.9-1.9,0.8c-0.7-0.2-1.4-0.4-2-0.9l-4.4-2.6c-0.1-0.1-0.2-0.1-0.3-0.1c-0.2,0-0.4,0.1-0.6,0.3
	c-1.2,0.6-2.5,0.5-3.6-0.2c-7.8-3.9-16.1-7.1-24.1-10.6l0,0l-0.3,0.3c-1.7,1.6-4.1,2.1-6.2,1.3l-21.7-7.9c0.7,0.2,2-0.5,3.7-2l2.6,1
	c1.9,0.7,9.6,4,11.7,4.7c2.2,0.8,4.5,0.9,6.7,0.4c1.2-0.4,2.3-0.8,3.6-1c1.9-0.1,3.7,0.9,5.4,1.7s3.6,1.5,5.4,2.3l11.8,5.2
	c1.1,0.7,2.4,0.9,3.7,0.7c0.3-0.1,0.6-0.2,0.9-0.3c0.5,0,1,0.2,1.4,0.5l3.5,2.1c0.7,0.6,1.7,0.8,2.6,0.7c0.3-0.2,0.7-0.3,1.1-0.4
	c0.5,0,1,0.2,1.4,0.5c1.1,0.9,2.3,1.8,3.6,2.5c1.9,1,4.3,0.2,5.3-1.8c0-0.1,0.1-0.1,0.1-0.2c1.1,1,1.6,2.6,1.1,4.1
	C184.9,130.5,184.7,130.9,184.5,131.2z"/>
<path class="st1" d="M164.2,128c-0.4,0-0.8-0.1-1.1-0.2l-4.6-2l-21-9.1c-0.5-0.2-0.7-0.7-0.5-1.1s0.7-0.7,1.1-0.5c0,0,0.1,0,0.1,0
	l21,9.1l4.6,2c0.3,0.1,0.7,0.1,1-0.1l0.6-0.5c0.8-0.7,1.6-1.4,2.3-2.2c0.7-0.8,1.4-1.7,2-2.5c1.4-2,2.4-4.1,3.2-6.3
	c0.1-0.3,0-0.7-0.2-1l-19-20.3c-0.4-0.4-0.4-0.9,0-1.3c0.2-0.2,0.5-0.3,0.7-0.3c0.2,0,0.4,0.1,0.6,0.3l19.1,20.4
	c0.7,0.7,0.9,1.8,0.6,2.8c-0.8,2.4-1.9,4.7-3.4,6.8c-0.7,1-1.4,1.9-2.2,2.7c-0.8,0.8-1.6,1.6-2.5,2.4l-0.7,0.6
	C165.4,127.8,164.8,128,164.2,128z"/>
<path class="st1" d="M173.1,130.9c-0.5,0-1-0.1-1.4-0.4l-3-1.7l-3.1-1.8c-0.4-0.2-0.6-0.8-0.4-1.2c0.2-0.4,0.8-0.6,1.2-0.4
	c0,0,0,0,0,0l3.1,1.8l3,1.7c0.3,0.2,0.7,0.2,1,0c0.3-0.2,0.6-0.3,0.8-0.5c0.7-0.5,1.4-1.2,2-1.9c0.2-0.2,0.4-0.5,0.6-0.7
	c0.9-1.2,1.4-2.6,1.7-4.1c0.1-0.3-0.1-0.7-0.3-0.9l-5.1-4.4c-0.4-0.3-0.4-0.9-0.1-1.3c0.3-0.4,0.9-0.4,1.3-0.1l0,0l5.1,4.4
	c0.8,0.7,1.1,1.7,0.9,2.6c-0.3,1.7-1,3.4-2,4.8c-0.2,0.3-0.4,0.6-0.7,0.9c-0.7,0.8-1.5,1.6-2.4,2.2c-0.3,0.2-0.6,0.4-0.9,0.6
	C174,130.7,173.5,130.8,173.1,130.9z"/>
<path class="st1" d="M181.4,133.7c-0.3,0-0.6,0-0.9-0.1c-0.6-0.1-1.3-0.4-1.8-0.8l-4.3-3c-0.4-0.2-0.6-0.7-0.4-1.2s0.7-0.6,1.2-0.4
	c0.1,0,0.2,0.1,0.2,0.2l4.3,3c0.3,0.2,0.7,0.4,1.1,0.5c1.6,0.3,3.1-0.7,3.5-2.3c0.2-1.1-0.2-2.1-1-2.8l-0.2-0.2l-4.3-3
	c-0.4-0.3-0.4-0.9,0-1.3c0.3-0.3,0.7-0.4,1-0.2l4.3,3c0.1,0.1,0.3,0.2,0.4,0.3c2,1.7,2.2,4.7,0.5,6.7
	C184,133.2,182.7,133.8,181.4,133.7L181.4,133.7z"/>
<path class="st1" d="M133.4,118.7c-0.8,0-1.6-0.1-2.4-0.4l-21.7-7.9c-0.5-0.2-0.7-0.7-0.5-1.2c0.2-0.5,0.7-0.7,1.2-0.5l0,0l21.7,7.9
	c1.8,0.7,3.9,0.2,5.3-1.1l0.3-0.3c0.9-0.8,1.8-1.7,2.7-2.7l0.1-0.1l0,0c5.7-6,10.3-12.9,13.6-20.5l0.2-0.4c0.8-1.8,0.5-3.9-0.8-5.4
	l-14.5-17.6l1.4-1.1l14.4,17.6c1.7,2,2,4.8,1,7.2l-0.2,0.4c-3.4,7.8-8.1,14.9-13.9,21l-0.1,0.1l0,0c-0.9,0.9-1.8,1.8-2.7,2.7
	l-0.3,0.3C136.9,118,135.1,118.7,133.4,118.7z"/>
<path class="st1" d="M109.9,110.4c-0.2,0-0.3,0-0.5-0.1c-0.2,0-0.4-0.1-0.5-0.2c-1.2-0.8-0.7-2.8-0.2-4.2c0-0.1,0.1-0.3,0.2-0.4
	v-0.1l0.1-0.4l0,0l0.2-0.4c0.2-0.5,0.7-0.7,1.2-0.5c0.4,0.2,0.6,0.7,0.5,1.1l-0.1,0.4l0,0l-0.2,0.4c0,0.1-0.1,0.3-0.1,0.4
	c-0.3,0.7-0.4,1.4-0.4,2.2c1-0.4,2-1,2.8-1.8l0.2-0.2l0.1-0.1c3.6-3.2,8.7-9.2,13.6-16.2c9.6-13.6,11.8-20.6,11.6-21.8
	c-1,0.4-1.9,1-2.7,1.7l-0.3,0.2c-0.4,0.3-0.9,0.3-1.3-0.1c-0.3-0.4-0.3-0.9,0.1-1.2l0.3-0.3c2.4-2,3.9-2.6,4.9-1.9s1.6,2.2-1.7,8.8
	c-2.8,5.4-6,10.6-9.5,15.5c-5,7.1-10.2,13.2-13.9,16.5L114,108l-0.2,0.2C112.1,109.7,110.8,110.4,109.9,110.4z"/>
<path class="st1" d="M111.8,109.4c-0.3,0-0.6-0.2-0.8-0.4c-5.4-8.3-4.8-19.8,1.3-28.6s16.8-13.2,26.5-10.9c0.5,0.1,0.8,0.6,0.7,1
	s-0.6,0.8-1,0.7c0,0-0.1,0-0.1,0c-8.9-2.1-18.8,2-24.6,10.2s-6.3,18.9-1.3,26.6c0.3,0.4,0.2,1-0.3,1.2
	C112.2,109.4,112,109.4,111.8,109.4L111.8,109.4z"/>
<path class="st1" d="M124.8,76.5c-0.5,0-0.9-0.4-0.9-0.9c0-0.3,0.2-0.6,0.5-0.8c1.7-0.9,3.4-1.5,5.2-2c0.5-0.1,1,0.2,1.1,0.7
	c0.1,0.5-0.2,0.9-0.7,1.1c-1.7,0.4-3.3,1-4.8,1.8C125,76.4,124.9,76.5,124.8,76.5z"/>
<path class="st1" d="M111.7,98c-0.5,0-0.9-0.4-0.9-0.9c-0.1-5.2,1.6-10.3,4.6-14.5c1.4-2,3.1-3.8,5-5.3c0.4-0.3,1-0.2,1.3,0.1
	c0.3,0.4,0.2,1-0.1,1.3c-1.8,1.4-3.3,3-4.6,4.9c-2.8,3.9-4.3,8.6-4.2,13.4C112.7,97.6,112.3,98,111.7,98C111.8,98,111.8,98,111.7,98
	L111.7,98z"/>
<path class="st1" d="M168.4,138.3h-3.7c-1.6,0-3-1.1-3.4-2.7v-0.1l-1.3-9.4c-0.1-0.5,0.2-1,0.7-1.1c0.5-0.1,1,0.2,1.1,0.7
	c0,0,0,0.1,0,0.1l1.3,9.3c0.2,0.7,0.9,1.3,1.6,1.2h3.7c0.8,0,1.5-0.6,1.7-1.4l0.2-5.6c0-0.5,0.4-0.9,0.9-0.9s0.9,0.4,0.9,0.9l0,0
	l-0.2,5.6c0,0,0,0.1,0,0.1C171.7,137,170.2,138.3,168.4,138.3z"/>
<circle class="st1" cx="166.5" cy="133.6" r="1.1"/>
<path class="st1" d="M170.2,178.2c-0.5,0-0.9-0.4-0.9-0.8l-3.3-39.9c-0.1-0.5,0.3-0.9,0.8-1s0.9,0.3,1,0.8c0,0,0,0.1,0,0.1l3.4,39.9
	c0.1,0.5-0.3,0.9-0.8,1c0,0,0,0,0,0L170.2,178.2z"/>
<path class="st1" d="M148.9,172.9c-0.5,0-0.9-0.4-0.9-0.9c0-0.1,0-0.2,0.1-0.4l14.6-34.8c0.2-0.5,0.7-0.7,1.2-0.5
	c0.5,0.2,0.7,0.7,0.5,1.2l-14.6,34.8C149.6,172.6,149.3,172.9,148.9,172.9z"/>
<path class="st1" d="M182.9,172.9c-0.4,0-0.7-0.2-0.8-0.6l-12.8-35.1c-0.2-0.5,0.1-1,0.5-1.2s1,0.1,1.2,0.5l0,0l12.8,35.1
	c0.2,0.5-0.1,1-0.5,1.2C183.1,172.8,183,172.8,182.9,172.9L182.9,172.9z"/>
<path class="st0" d="M286.8,84.4c-0.2,0-0.5-0.1-0.6-0.2L268.4,67c-0.2-0.2-0.6-0.2-0.8,0l-14.5,13.5c-0.4,0.3-0.9,0.3-1.3-0.1
	c-0.3-0.4-0.3-0.9,0-1.2l14.5-13.5c0.9-0.9,2.4-0.9,3.3,0l17.8,17.2c0.4,0.3,0.4,0.9,0,1.3C287.3,84.3,287,84.4,286.8,84.4
	L286.8,84.4z"/>
<path class="st0" d="M221.5,109.5c-0.5,0-0.9-0.4-0.9-0.9c0-0.2,0.1-0.5,0.3-0.7l28.2-26.2c0.4-0.3,1-0.2,1.3,0.2
	c0.3,0.3,0.2,0.8,0,1.1l-28.2,26.2C221.9,109.4,221.7,109.5,221.5,109.5z"/>
<path class="st0" d="M99.6,116.9c-0.2,0-0.5-0.1-0.6-0.2L62,81c-0.2-0.2-0.6-0.2-0.8,0l-33.8,32.6c-0.3,0.4-0.9,0.4-1.3,0.1
	c-0.4-0.3-0.4-0.9-0.1-1.3c0,0,0.1-0.1,0.1-0.1l33.8-32.6c0.9-0.9,2.4-0.9,3.3,0l37,35.7c0.4,0.3,0.4,0.9,0,1.3
	C100.1,116.8,99.9,116.9,99.6,116.9L99.6,116.9z"/>
<path class="st0" d="M19.4,120.9c-0.5,0-0.9-0.4-0.9-0.9c0-0.2,0.1-0.5,0.3-0.6l4.5-4.3c0.3-0.4,0.9-0.4,1.3-0.1
	c0.4,0.3,0.4,0.9,0.1,1.3c0,0-0.1,0.1-0.1,0.1l-4.5,4.3C19.9,120.8,19.7,120.9,19.4,120.9z"/>
<path class="st0" d="M182.3,105.2c-0.5,0-0.9-0.4-0.9-0.9c0-0.3,0.1-0.5,0.3-0.7l32.8-25.7c0.9-0.7,2.1-0.7,3,0.1l18.8,16.1
	c0.4,0.3,0.5,0.9,0.2,1.3s-0.9,0.5-1.3,0.2c0,0-0.1-0.1-0.1-0.1l-18.7-16.1c-0.2-0.2-0.5-0.2-0.8,0L182.9,105
	C182.7,105.1,182.5,105.2,182.3,105.2z"/>
<path class="st0" d="M176.5,109.8c-0.5,0-0.9-0.4-0.9-0.9c0-0.3,0.1-0.5,0.3-0.7l3.1-2.4c0.4-0.3,1-0.2,1.3,0.2s0.2,1-0.2,1.3
	l-3.1,2.4C176.9,109.7,176.7,109.8,176.5,109.8z"/>
<path class="st1" d="M70.3,42c-0.4,0-0.8-0.3-0.8-0.8v-4.8c0-0.4,0.3-0.8,0.8-0.8s0.8,0.3,0.8,0.8v4.8C71.1,41.7,70.7,42,70.3,42z"
	/>
<path class="st1" d="M72.7,39.6h-4.8c-0.4,0-0.8-0.3-0.8-0.8s0.3-0.8,0.8-0.8h4.8c0.4,0,0.8,0.3,0.8,0.8S73.1,39.6,72.7,39.6
	L72.7,39.6z"/>
<path class="st1" d="M47.4,67c-0.5,0-0.9-0.4-0.9-0.9l0,0v-5.9c0-0.5,0.4-0.9,0.9-0.9c0.5,0,0.9,0.4,0.9,0.9v5.8
	C48.3,66.5,47.9,67,47.4,67C47.4,67,47.4,67,47.4,67z"/>
<path class="st1" d="M50.3,64h-5.8c-0.5,0-0.9-0.4-0.9-0.9c0-0.5,0.4-0.9,0.9-0.9h5.8c0.5,0,0.9,0.4,0.9,0.9
	C51.2,63.6,50.8,64,50.3,64L50.3,64z"/>
<path class="st1" d="M90.7,76.7c-0.5,0-0.9-0.4-0.9-0.9l0,0v-8.4c0-0.5,0.4-0.9,0.9-0.9s0.9,0.4,0.9,0.9v8.4
	C91.6,76.3,91.2,76.7,90.7,76.7L90.7,76.7z"/>
<path class="st1" d="M94.9,72.6h-8.4c-0.5,0-0.9-0.4-0.9-0.9s0.4-0.9,0.9-0.9h8.4c0.5,0,0.9,0.4,0.9,0.9S95.4,72.6,94.9,72.6
	C94.9,72.6,94.9,72.6,94.9,72.6z"/>
<path class="st0" d="M283.5,55.4c-0.5,0-0.9-0.4-0.9-0.9v-5.3c0-0.5,0.4-0.9,0.9-0.9c0.5,0,0.9,0.4,0.9,0.9v5.3
	C284.4,55,284,55.4,283.5,55.4z"/>
<path class="st0" d="M286.1,52.7h-5.3c-0.5,0-0.9-0.4-0.9-0.9c0-0.5,0.4-0.9,0.9-0.9h5.3c0.5,0,0.9,0.4,0.9,0.9
	C287,52.3,286.6,52.7,286.1,52.7z"/>
<circle class="st0" cx="72.7" cy="69.6" r="1.3"/>
<circle class="st0" cx="24.6" cy="97.8" r="1.3"/>
<circle class="st0" cx="185.2" cy="74.7" r="1.3"/>
<circle class="st0" cx="216.1" cy="50.6" r="1.3"/>
<path class="st0" d="M239.7,67.5c-1.9,0-3.7-0.6-5.2-1.7c-0.4-0.3-0.5-0.9-0.2-1.3c0.2-0.2,0.4-0.4,0.7-0.4c3.9,0.1,7.1-3.1,7.2-7
	c0-2.3-1.1-4.5-2.9-5.9c-0.4-0.3-0.5-0.9-0.2-1.3c0.2-0.2,0.4-0.4,0.7-0.4c3.3,0.1,6.3,1.9,7.8,4.9c1.1,2.1,1.2,4.6,0.5,6.8
	l-0.9-0.3l0.9,0.3C246.9,65,243.5,67.5,239.7,67.5L239.7,67.5z M238.1,65.5c3.8,0.9,7.6-1.5,8.5-5.4c0.7-3.3-1-6.7-4.1-8.1
	c2.8,4.1,1.7,9.6-2.4,12.4C239.5,64.9,238.8,65.2,238.1,65.5z"/>
<path class="st0" d="M93.9,122.6c-0.1,0-0.2,0-0.3-0.1l-12.4-4.7c-0.2-0.1-0.4-0.3-0.5-0.5l-3.6-8.6L64,107
	c-0.4-0.1-0.7-0.4-0.8-0.8l-2.5-25.8c-0.1-0.5,0.3-0.9,0.8-1s0.9,0.3,1,0.8c0,0,0,0.1,0,0.1l2.4,25.1l13,1.7c0.3,0,0.6,0.3,0.7,0.6
	l3.6,8.8l12,4.5c0.5,0.2,0.7,0.7,0.5,1.2C94.6,122.4,94.3,122.6,93.9,122.6L93.9,122.6z"/>
<path class="st0" d="M228.9,102.6c-0.2,0-0.4-0.1-0.5-0.2l-7.9-5.3c-0.2-0.1-0.3-0.3-0.4-0.5l-4.9-17.8c-0.1-0.5,0.2-1,0.7-1.1
	s1,0.2,1.1,0.7l4.8,17.5l7.6,5.1c0.4,0.3,0.5,0.8,0.3,1.2C229.5,102.5,229.2,102.6,228.9,102.6L228.9,102.6z"/>
<path class="st0" d="M284.1,102.7c-0.1,0-0.2,0-0.3,0l-8.8-2.7c-0.4-0.1-0.6-0.5-0.6-0.9V88.8l-7.3-22.3c-0.2-0.5,0.1-1,0.5-1.2
	c0.5-0.2,1,0.1,1.2,0.5c0,0,0,0,0,0l7.3,22.4c0,0.1,0,0.2,0,0.3v9.8l8.1,2.5c0.5,0.1,0.7,0.7,0.6,1.1
	C284.8,102.5,284.5,102.7,284.1,102.7L284.1,102.7z"/>
<path class="st1" d="M47.4,173.5c-0.4,0-0.8-0.3-0.9-0.7l-4.4-21.9l-4.4,21.9c-0.1,0.5-0.5,0.8-1,0.8c-0.5-0.1-0.8-0.5-0.8-1
	c0,0,0-0.1,0-0.1l4.4-21.9c0.2-1,1.1-1.6,2.1-1.4c0.7,0.1,1.3,0.7,1.4,1.4l4.4,21.9c0.1,0.5-0.2,1-0.7,1.1L47.4,173.5z"/>
<path class="st1" d="M36.8,173.5h-0.2c-0.5-0.1-0.8-0.6-0.7-1.1l1.2-6.1L30,128.5l-1,5.2c-0.1,0.5-0.6,0.8-1.1,0.7s-0.8-0.6-0.7-1.1
	l1-5.2c0.2-1,1.1-1.6,2.1-1.4c0.7,0.1,1.3,0.7,1.4,1.4l7.2,38c0,0.1,0,0.2,0,0.4l-1.3,6.3C37.6,173.2,37.3,173.5,36.8,173.5z"/>
<path class="st1" d="M20.7,173.5h-0.2c-0.5-0.1-0.8-0.6-0.7-1c0,0,0,0,0,0l6.7-35.2c0.1-0.5,0.6-0.8,1.1-0.7s0.8,0.6,0.7,1.1
	l-6.7,35.1C21.5,173.2,21.2,173.5,20.7,173.5z"/>
<path class="st1" d="M120.4,173.1H84c-0.4,0-0.8-0.3-0.8-0.8s0.3-0.8,0.8-0.8h36.4c0.9,0,2.3-2.4,2.3-6.2s-1.3-6.2-2.3-6.2H81.3
	c-0.4,0-0.8-0.3-0.8-0.8s0.3-0.8,0.8-0.8h39.1c2.2,0,3.8,3.3,3.8,7.7S122.6,173.1,120.4,173.1z"/>
<path class="st1" d="M81.3,173.1c-2.9,0-5.2-3.4-5.2-7.7s2.3-7.7,5.2-7.7c1.5,0.1,2.8,0.9,3.6,2.1c0.2,0.3,0.2,0.8-0.2,1
	c-0.3,0.2-0.8,0.2-1-0.2c-0.5-0.8-1.4-1.4-2.3-1.5c-2,0-3.7,2.8-3.7,6.2s1.7,6.2,3.7,6.2c1-0.1,1.8-0.6,2.3-1.4
	c0.2-0.3,0.7-0.4,1-0.2s0.4,0.7,0.2,1c0,0,0,0,0,0.1C84.1,172.3,82.8,173,81.3,173.1z"/>
<path class="st1" d="M87.2,173.1c-2.9,0-5.2-3.4-5.2-7.7s2.3-7.7,5.2-7.7s5.2,3.4,5.2,7.7S90.1,173.1,87.2,173.1z M87.2,159.2
	c-2,0-3.7,2.8-3.7,6.2s1.7,6.2,3.7,6.2s3.7-2.8,3.7-6.2S89.2,159.3,87.2,159.2L87.2,159.2z"/>
<path class="st1" d="M87.3,170.4c-1.6,0-2.8-2.1-2.8-5s1.2-5,2.8-5c0.9,0.1,1.7,0.6,2,1.4c0.2,0.3,0.1,0.7-0.2,0.8s-0.7,0.1-0.8-0.2
	c0,0,0,0,0,0c-0.3-0.5-0.6-0.8-1-0.8c-0.7,0-1.6,1.4-1.6,3.8s0.9,3.8,1.6,3.8c0.5,0,1.1-0.8,1.4-2.2c0-0.3,0.3-0.6,0.7-0.5
	s0.6,0.3,0.5,0.7c0,0,0,0.1,0,0.1C89.5,169.2,88.5,170.4,87.3,170.4z"/>
<path class="st1" d="M89.5,166c-0.3,0-0.6-0.3-0.6-0.6l0,0c0-0.4,0-0.8-0.1-1.1c0-0.3,0.2-0.6,0.5-0.7c0.3,0,0.6,0.2,0.7,0.5
	c0.1,0.4,0.1,0.9,0.1,1.3C90.1,165.7,89.8,166,89.5,166z"/>
<path class="st1" d="M81.3,170.4c-1.6,0-2.8-2.1-2.8-5c0-1.3,0.3-2.5,0.9-3.7c0.4-0.8,1.1-1.3,2-1.3c0.9,0,1.6,0.5,2.1,1.2
	c0.1,0.1,0.1,0.2,0.2,0.4c0.2,0.3,0.1,0.7-0.2,0.8s-0.7,0.1-0.8-0.2c0,0,0,0,0,0l-0.2-0.3c-0.2-0.4-0.6-0.6-1-0.7
	c-0.4,0-0.8,0.3-0.9,0.7c-0.5,1-0.7,2-0.7,3.1c0,2.4,0.9,3.8,1.6,3.8c0.4,0,0.9-0.6,1.2-1.4c0.1-0.3,0.4-0.5,0.7-0.4
	c0.3,0.1,0.5,0.4,0.4,0.7c0,0,0,0,0,0.1C83.2,169.6,82.3,170.4,81.3,170.4z"/>
<path class="st1" d="M118.3,162.6H94.1c-0.3,0-0.6-0.3-0.6-0.6c0-0.3,0.3-0.6,0.6-0.6c0,0,0,0,0,0h24.2c0.3,0,0.6,0.3,0.6,0.6
	C118.9,162.4,118.6,162.6,118.3,162.6C118.3,162.6,118.3,162.6,118.3,162.6z"/>
<path class="st1" d="M121.1,166h-12.1c-1.1,0-2.2-0.3-3.2-0.8c-0.4-0.2-0.8-0.3-1.2-0.3c-0.6,0-1.2,0.1-1.8,0.4
	c-1,0.5-2.1,0.7-3.2,0.7h-2.3c-0.3,0-0.6-0.3-0.6-0.6c0-0.3,0.3-0.6,0.6-0.6h2.3c0.9,0,1.9-0.2,2.7-0.6c1.3-0.6,2.7-0.7,4-0.1
	c0.8,0.4,1.7,0.6,2.7,0.6h12.1c0.3,0,0.6,0.3,0.6,0.6C121.8,165.8,121.5,166,121.1,166L121.1,166z"/>
<path class="st1" d="M118.2,169.3h-2.8c-0.3,0-0.6-0.3-0.6-0.6c0-0.3,0.3-0.6,0.6-0.6c0,0,0,0,0,0h2.8c0.3,0,0.6,0.3,0.6,0.6
	C118.8,169.1,118.6,169.3,118.2,169.3z"/>
<path class="st1" d="M103.5,170.4L103.5,170.4c-0.6,0-1.2-0.2-1.7-0.4c-0.8-0.4-1.8-0.6-2.7-0.6h-4.6c-0.3,0-0.6-0.3-0.6-0.6
	c0-0.3,0.3-0.6,0.6-0.6c0,0,0,0,0,0h4.6c1.1,0,2.3,0.2,3.3,0.8c0.7,0.4,1.5,0.4,2.2,0c1-0.5,2.2-0.8,3.3-0.8h2.8
	c0.3,0,0.6,0.3,0.6,0.6c0,0.3-0.3,0.6-0.6,0.6H108c-1,0-1.9,0.2-2.8,0.6C104.7,170.2,104.1,170.4,103.5,170.4z"/>
<path class="st1" d="M103,167.9c-0.3,0-0.6-0.3-0.6-0.6c0-0.1,0.1-0.3,0.2-0.4c0.6-0.5,1.4-0.7,2.2-0.5l0.3,0.1
	c0.3,0.1,0.5,0.5,0.4,0.8c-0.1,0.3-0.4,0.4-0.7,0.4l-0.3-0.1c-0.4-0.1-0.7,0-1,0.2C103.3,167.9,103.1,167.9,103,167.9z"/>
<path class="st1" d="M100.8,152.8c-2.5,0-5-0.8-6.9-2.4c-1.1-0.9-2-2.1-2.6-3.5c-0.6-1.6-0.7-3.3-0.4-4.9c0.4-1.5,1.1-2.9,2-4.1
	l0.1-0.1c0.1-0.2,0.2-0.4,0.4-0.5c0.3-0.4,0.9-0.4,1.3,0c0.1,0.1,0.2,0.3,0.3,0.5c0,0.5,0.3,0.9,0.7,1.2c0.7,0.4,1.9-0.2,2.7-0.9
	c1.3-1.2,1.3-2.9,1.3-4.7c0-0.8,0-1.6,0.1-2.4c0.2-1.5,1-2.8,2.3-3.6c0.4-0.3,1-0.1,1.2,0.3c0.2,0.3,0.2,0.7,0,1
	c-0.1,0.2-0.2,0.4-0.3,0.6c-0.6,1.7,0.8,3.7,1.7,5.2c0.4,0.7,0.9,1.4,1.5,2.1c1.8,2.4,3.6,4.8,3.8,7.9c0.1,1.5-0.2,3-0.9,4.3
	c-1.4,2.3-3.9,3.9-6.6,4.2C101.9,152.8,101.4,152.8,100.8,152.8z M93.9,139.6c-0.6,0.8-1,1.7-1.2,2.7c-0.3,1.3-0.2,2.7,0.3,3.9
	c0.4,1.1,1.1,2,2,2.8c2,1.6,4.7,2.3,7.3,1.9c2.2-0.3,4.1-1.5,5.3-3.3c0.5-1,0.8-2.2,0.6-3.3c-0.2-2.6-1.9-4.8-3.5-7
	c-0.5-0.7-1-1.4-1.5-2.1c-0.7-1-1.3-2.1-1.8-3.2c0,0.4,0,0.9,0,1.3c0,2,0,4.2-1.9,6c-1.2,1.2-3.2,2-4.8,1.2
	C94.4,140.2,94.1,139.9,93.9,139.6z"/>
</svg>
