<?xml version="1.0" encoding="UTF-8"?>
<svg width="56px" height="54px" viewBox="0 0 56 54" version="1.1" xmlns="http://www.w3.org/2000/svg" xmlns:xlink="http://www.w3.org/1999/xlink">
    <!-- Generator: Sketch 51.3 (57544) - http://www.bohemiancoding.com/sketch -->
    <title>Icon / 70 x 64 / Appointments</title>
    <desc>Created with Sketch.</desc>
    <defs></defs>
    <g id="Page-1" stroke="none" stroke-width="1" fill="none" fill-rule="evenodd">
        <g id="SSO-from-Athena-v2" transform="translate(-91.000000, -352.000000)">
            <g id="Icon-/-70-x-64-/-Appointments" transform="translate(84.000000, 347.000000)">
                <g id="upcomingVisitIcon" transform="translate(7.000000, 5.000000)">
                    <path d="M16.94,29.65 C16.94,30.0200308 16.6400308,30.32 16.27,30.32 L12.27,30.32 C11.8999692,30.32 11.6,30.0200308 11.6,29.65 C11.6,29.2799692 11.8999692,28.98 12.27,28.98 L16.27,28.98 C16.6377835,28.98537 16.93463,29.2822165 16.94,29.65 Z" id="Shape" fill="#FFFFFF" fill-rule="nonzero"></path>
                    <path d="M19.6,29.65 C19.5999592,29.2838395 19.8938803,28.9854651 20.26,28.98 L24.26,28.98 C24.6300308,28.98 24.93,29.2799692 24.93,29.65 C24.93,30.0200308 24.6300308,30.32 24.26,30.32 L20.26,30.32 C19.8938803,30.3145349 19.5999592,30.0161605 19.6,29.65 Z" id="Shape" fill="#FFFFFF" fill-rule="nonzero"></path>
                    <path d="M23.4,22.76 C23.4,20.1697845 25.4997845,18.07 28.09,18.07 C30.6802155,18.07 32.78,20.1697845 32.78,22.76 C32.78,25.3502155 30.6802155,27.45 28.09,27.45 C25.4997845,27.45 23.4,25.3502155 23.4,22.76 Z" id="Shape" fill="#FFFFFF" fill-rule="nonzero"></path>
                    <path d="M32.88,29.65 C32.8800408,30.0161605 32.5861197,30.3145349 32.22,30.32 L28.22,30.32 C27.8499692,30.32 27.55,30.0200308 27.55,29.65 C27.55,29.2799692 27.8499692,28.98 28.22,28.98 L32.22,28.98 C32.5861197,28.9854651 32.8800408,29.2838395 32.88,29.65 Z" id="Shape" fill="#FFFFFF" fill-rule="nonzero"></path>
                    <path d="M37.21,39.23 L37.21,41.06 C37.2103447,41.4351803 36.9148358,41.743921 36.54,41.76 C33.78,41.87 30.91,41.94 27.94,41.94 C24.97,41.94 22.19,41.88 19.47,41.76 C19.0951642,41.743921 18.7996553,41.4351803 18.8,41.06 L18.8,39.23 C18.8,35.39 22.92,32.23 28.01,32.23 C33.1,32.23 37.21,35.39 37.21,39.23 Z" id="Shape" fill="#FFFFFF" fill-rule="nonzero"></path>
                    <path d="M40.85,29.65 C40.8500408,30.0161605 40.5561197,30.3145349 40.19,30.32 L36.19,30.32 C35.8199692,30.32 35.52,30.0200308 35.52,29.65 C35.52,29.2799692 35.8199692,28.98 36.19,28.98 L40.19,28.98 C40.5561197,28.9854651 40.8500408,29.2838395 40.85,29.65 Z" id="Shape" fill="#FFFFFF" fill-rule="nonzero"></path>
                    <path d="M48.82,29.65 C48.8200408,30.0161605 48.5261197,30.3145349 48.16,30.32 L44.16,30.32 C43.7899692,30.32 43.49,30.0200308 43.49,29.65 C43.49,29.2799692 43.7899692,28.98 44.16,28.98 L48.16,28.98 C48.5261197,28.9854651 48.8200408,29.2838395 48.82,29.65 Z" id="Shape" fill="#FFFFFF" fill-rule="nonzero"></path>
                    <path d="M50.77,13.47 L50.77,16.29 L5.31,16.29 L5.31,13.47 C5.30999821,11.5056641 6.09101139,9.62192813 7.48094416,8.23387111 C8.87087693,6.84581409 10.7556659,6.06734549 12.72,6.07 L16.44,6.07 L16.44,7.89 C16.4373352,8.25772832 16.5815504,8.6113112 16.84064,8.87227825 C17.0997296,9.1332453 17.452262,9.28000966 17.82,9.28 L18,9.28 C18.367738,9.28000966 18.7202704,9.1332453 18.97936,8.87227825 C19.2384496,8.6113112 19.3826648,8.25772832 19.38,7.89 L19.38,6.07 L36.63,6.07 L36.63,7.89 C36.6273382,8.25600163 36.770184,8.60806916 37.0271109,8.86874683 C37.2840378,9.12942449 37.6339982,9.27735742 38,9.28 L38.22,9.28 C38.5860018,9.27735742 38.9359622,9.12942449 39.1928891,8.86874683 C39.449816,8.60806916 39.5926618,8.25600163 39.59,7.89 L39.59,6.07 L43.36,6.07 C45.0035921,6.06742496 46.6011401,6.61284331 47.9,7.62 C48.4581683,8.05981825 48.9528513,8.5746924 49.37,9.15 C49.7612241,9.69001284 50.0743092,10.2825178 50.3,10.91 C50.5159077,11.4684245 50.6538708,12.0539265 50.71,12.65 C50.7498525,12.9215173 50.7699054,13.1955735 50.77,13.47 Z" id="Shape" fill="#F74A2A" fill-rule="nonzero"></path>
                    <path d="M50.71,45 C50.6385567,45.6427717 50.4769708,46.2722835 50.23,46.87 C49.9477638,47.4493894 49.6130311,48.0016984 49.23,48.52 C48.8148209,49.0532993 48.3529988,49.5485867 47.85,50 C47.1754391,50.512355 46.4177059,50.9047525 45.61,51.16 C44.884448,51.3843236 44.1294377,51.4989234 43.37,51.5 L12.72,51.5 C10.6278443,51.4970247 8.63416847,50.6109465 7.23,49.06 C6.48802963,48.233928 5.93819997,47.2537969 5.62,46.19 C5.50071556,45.8017448 5.41703667,45.4034333 5.37,45 C5.73928992,45.068975 6.11433188,45.1024609 6.49,45.1 L49.6,45.1 C49.9723444,45.1021899 50.3440424,45.0687036 50.71,45 Z" id="Shape" fill="#EBF2F3" fill-rule="nonzero"></path>
                    <path d="M16.27,29 L12.27,29 C11.8999692,29 11.6,29.2999692 11.6,29.67 C11.6,30.0400308 11.8999692,30.34 12.27,30.34 L16.27,30.34 C16.6400308,30.34 16.94,30.0400308 16.94,29.67 C16.94,29.2999692 16.6400308,29 16.27,29 Z M24.27,29 L20.27,29 C19.8999692,29 19.6,29.2999692 19.6,29.67 C19.6,30.0400308 19.8999692,30.34 20.27,30.34 L24.27,30.34 C24.6400308,30.34 24.94,30.0400308 24.94,29.67 C24.94,29.2999692 24.6400308,29 24.27,29 Z M32.27,29 L28.27,29 C27.8999692,29 27.6,29.2999692 27.6,29.67 C27.6,30.0400308 27.8999692,30.34 28.27,30.34 L32.27,30.34 C32.6400308,30.34 32.94,30.0400308 32.94,29.67 C32.94,29.2999692 32.6400308,29 32.27,29 Z M40.27,29 L36.27,29 C35.8999692,29 35.6,29.2999692 35.6,29.67 C35.6,30.0400308 35.8999692,30.34 36.27,30.34 L40.27,30.34 C40.6400308,30.34 40.94,30.0400308 40.94,29.67 C40.94,29.2999692 40.6400308,29 40.27,29 Z M48.27,29 L44.27,29 C43.8999692,29 43.6,29.2999692 43.6,29.67 C43.6,30.0400308 43.8999692,30.34 44.27,30.34 L48.27,30.34 C48.6400308,30.34 48.94,30.0400308 48.94,29.67 C48.94,29.2999692 48.6400308,29 48.27,29 Z" id="Shape" fill="#333333" fill-rule="nonzero"></path>
                    <path d="M55.26,36.56 C55.0014908,35.5993326 54.6876333,34.6544213 54.32,33.73 C54.26,33.55 54.17,33.36 54.12,33.2 L52.77,29.47 L52.77,13.47 C52.7748274,13.1190221 52.7547772,12.7681433 52.71,12.42 C52.629821,11.6677259 52.4551098,10.9285632 52.19,10.22 C51.9023489,9.42653783 51.5015399,8.67881006 51,8 C50.4805934,7.26388353 49.8536042,6.60992704 49.14,6.06 C47.4989277,4.76568173 45.4700662,4.0612159 43.38,4.06 L39.6,4.06 L39.6,1.84 C39.5945531,1.08563758 38.9843624,0.475446873 38.23,0.47 L38,0.47 C37.2417353,0.469980092 36.6254947,1.08175518 36.62,1.84 L36.62,4.08 L19.4,4.08 L19.4,1.84 C19.3974102,1.47313266 19.2477835,1.12263228 18.9846305,0.866997994 C18.7214776,0.611363712 18.3667883,0.471957068 18,0.48 L17.79,0.48 C17.4249239,0.47733514 17.0738845,0.620496723 16.8147928,0.877710964 C16.5557011,1.1349252 16.4099903,1.48491414 16.41,1.85 L16.41,4.08 L12.72,4.08 C9.69436345,4.08402518 6.85522148,5.54266692 5.09,8 C3.93674565,9.59365382 3.32035789,11.5128612 3.33,13.48 L3.33,29.48 L0.66,36.82 C-0.347520788,39.6140964 0.768074533,42.7302141 3.32,44.25 C3.32461184,44.5843802 3.3479819,44.9182382 3.39,45.25 C3.45038103,45.753828 3.55069666,46.2520623 3.69,46.74 C4.87886211,50.7231473 8.53326434,53.4598886 12.69,53.48 L43.36,53.48 C45.4310996,53.4794123 47.444529,52.7977277 49.09,51.54 L49.15,51.48 C49.7424898,50.9336272 50.2877621,50.3381765 50.78,49.7 C51.251751,49.0693856 51.669878,48.4003825 52.03,47.7 C52.0254192,47.6768915 52.0254192,47.6531085 52.03,47.63 C52.4668772,46.5312296 52.7006672,45.3622793 52.72,44.18 C53.5159859,43.7197896 54.1992538,43.0877668 54.72,42.33 C55.3060691,41.5222496 55.6526481,40.5656915 55.72,39.57 C55.719968,38.5491622 55.5648655,37.534252 55.26,36.56 Z M50.71,45 C50.641368,45.6422124 50.483166,46.2716544 50.24,46.87 C50.09,47.16 49.94,47.44 49.76,47.72 C49.58,48 49.5,48.12 49.36,48.31 C49.22,48.5 49.26,48.46 49.2,48.52 C48.889453,48.9193989 48.5555356,49.3000647 48.2,49.66 L47.83,50 C47.4930287,50.2562644 47.1351004,50.4837328 46.76,50.68 C46.3862996,50.8696952 45.9984742,51.0301747 45.6,51.16 C44.8743811,51.3840315 44.1194149,51.4986246 43.36,51.5 L12.72,51.5 C10.8982166,51.5019015 9.1395763,50.8326214 7.78,49.62 C7.58666667,49.4466667 7.40333333,49.2633333 7.23,49.07 C6.95112655,48.7593318 6.7001569,48.4247056 6.48,48.07 C6.10666085,47.4867247 5.81716206,46.8538669 5.62,46.19 C5.56,46.01 5.52,45.82 5.47,45.62 C5.42,45.42 5.41,45.22 5.38,45.01 C5.53856268,45.0423049 5.69881524,45.0656751 5.86,45.08 L5.93,45.08 L6.49,45.08 L49.6,45.08 L50.15,45.08 L50.7,45 L50.71,45 Z M53.08,41.25 C52.5906785,41.9688776 51.8926116,42.5203504 51.08,42.83 C50.63564,42.9814865 50.1694713,43.0591813 49.7,43.06 L6.49,43.06 C6.02006032,43.0649978 5.55291662,42.9871405 5.11,42.83 L5,42.83 C2.83007098,42.0281121 1.71366883,39.6256147 2.5,37.45 L5.1,30.26 L8.28,30.26 C8.65003078,30.26 8.95,29.9600308 8.95,29.59 C8.95,29.2199692 8.65003078,28.92 8.28,28.92 L5.28,28.92 L5.28,13.47 C5.27999821,11.5056641 6.06101139,9.62192813 7.45094416,8.23387111 C8.84087693,6.84581409 10.7256659,6.06734549 12.69,6.07 L16.41,6.07 L16.41,7.89 C16.4073352,8.25772832 16.5515504,8.6113112 16.81064,8.87227825 C17.0697296,9.1332453 17.422262,9.28000966 17.79,9.28 L18,9.28 C18.367738,9.28000966 18.7202704,9.1332453 18.97936,8.87227825 C19.2384496,8.6113112 19.3826648,8.25772832 19.38,7.89 L19.38,6.07 L36.63,6.07 L36.63,7.89 C36.6273382,8.25600163 36.770184,8.60806916 37.0271109,8.86874683 C37.2840378,9.12942449 37.6339982,9.27735742 38,9.28 L38.22,9.28 C38.5860018,9.27735742 38.9359622,9.12942449 39.1928891,8.86874683 C39.449816,8.60806916 39.5926618,8.25600163 39.59,7.89 L39.59,6.07 L43.36,6.07 C45.0035921,6.06742496 46.6011401,6.61284331 47.9,7.62 C48.4581683,8.05981825 48.9528513,8.5746924 49.37,9.15 C49.7612241,9.69001284 50.0743092,10.2825178 50.3,10.91 C50.5159077,11.4684245 50.6538708,12.0539265 50.71,12.65 C50.7498525,12.9215173 50.7699054,13.1955735 50.77,13.47 L50.77,29.64 C50.7598854,29.6962153 50.7598854,29.7537847 50.77,29.81 C50.7589489,29.8661279 50.7589489,29.9238721 50.77,29.98 L50.77,30 L52.17,33.87 C52.24,34.04 52.31,34.22 52.39,34.41 C52.723955,35.260303 53.0110523,36.1282715 53.25,37.01 C53.4946009,37.8108181 53.6225816,38.6426923 53.63,39.48 C53.6252864,40.1206691 53.4341789,40.746112 53.08,41.28 L53.08,41.25 Z" id="Shape" fill="#333333" fill-rule="nonzero"></path>
                    <path d="M53.33,37.05 C53.0910523,36.1682715 52.803955,35.300303 52.47,34.45 C52.39,34.27 52.32,34.08 52.25,33.91 L50.85,30 C50.8389489,29.9438721 50.8389489,29.8861279 50.85,29.83 C50.8398854,29.7737847 50.8398854,29.7162153 50.85,29.66 L50.85,16.29 L5.31,16.29 L5.31,29 L8.31,29 C8.68003078,29 8.98,29.2999692 8.98,29.67 C8.98,30.0400308 8.68003078,30.34 8.31,30.34 L5.13,30.34 L2.53,37.5 C1.74712052,39.6642348 2.84726185,42.05604 5,42.87 C5.44291662,43.0271405 5.91006032,43.1049978 6.38,43.1 L49.6,43.1 C50.0745064,43.1110564 50.5475696,43.043476 51,42.9 C51.8126116,42.5903504 52.5106785,42.0388776 53,41.32 C53.3752489,40.8063192 53.5940281,40.1951265 53.63,39.56 C53.6524464,38.713203 53.5513847,37.8676538 53.33,37.05 Z M28.09,18.05 C30.6802155,18.05 32.78,20.1497845 32.78,22.74 C32.78,25.3302155 30.6802155,27.43 28.09,27.43 C25.4997845,27.43 23.4,25.3302155 23.4,22.74 C23.4110125,20.1520756 25.5120521,18.0599766 28.1,18.06 L28.09,18.05 Z M32.87,29.63 C32.8700408,29.9961605 32.5761197,30.2945349 32.21,30.3 L28.21,30.3 C27.8399692,30.3 27.54,30.0000308 27.54,29.63 C27.54,29.2599692 27.8399692,28.96 28.21,28.96 L32.21,28.96 C32.3912152,28.9599192 32.5647348,29.0332471 32.6909752,29.1632559 C32.8172157,29.2932648 32.8854094,29.4688656 32.88,29.65 L32.87,29.63 Z M20.25,29 L24.25,29 C24.6200308,29 24.92,29.2999692 24.92,29.67 C24.92,30.0400308 24.6200308,30.34 24.25,30.34 L20.25,30.34 C19.8799692,30.34 19.58,30.0400308 19.58,29.67 C19.58,29.2999692 19.8799692,29 20.25,29 Z M16.25,30.34 L12.25,30.34 C11.8799692,30.34 11.58,30.0400308 11.58,29.67 C11.58,29.2999692 11.8799692,29 12.25,29 L16.25,29 C16.6200308,29 16.92,29.2999692 16.92,29.67 C16.92,30.0400308 16.6200308,30.34 16.25,30.34 Z M37.21,41.06 C37.2103447,41.4351803 36.9148358,41.743921 36.54,41.76 C33.78,41.87 30.91,41.94 27.94,41.94 C24.97,41.94 22.19,41.88 19.47,41.76 C19.0951642,41.743921 18.7996553,41.4351803 18.8,41.06 L18.8,39.23 C18.8,35.39 22.92,32.23 28.01,32.23 C33.1,32.23 37.22,35.34 37.22,39.23 L37.21,41.06 Z M40.21,30.31 L36.21,30.31 C35.8399692,30.31 35.54,30.0100308 35.54,29.64 C35.54,29.2699692 35.8399692,28.97 36.21,28.97 L40.21,28.97 C40.5800308,28.97 40.88,29.2699692 40.88,29.64 C40.88,30.0100308 40.5800308,30.31 40.21,30.31 Z M48.21,30.31 L44.21,30.31 C43.8399692,30.31 43.54,30.0100308 43.54,29.64 C43.54,29.2699692 43.8399692,28.97 44.21,28.97 L48.21,28.97 C48.5800308,28.97 48.88,29.2699692 48.88,29.64 C48.88,30.0100308 48.5800308,30.31 48.21,30.31 Z" id="Shape" fill="#FFFFFF" fill-rule="nonzero"></path>
                    <path d="M36.72,47 C36.7154717,47.4687869 36.3480696,47.8536843 35.88,47.88 C33.2933333,47.96 30.65,48 27.95,48 C25.26,48 22.65,47.95 20.13,47.85 C19.6619304,47.8236843 19.2945283,47.4387869 19.29,46.97 L19.29,43.4 L35.06,43.4 C35.5073017,43.3999921 35.9361388,43.5783636 36.251489,43.8955909 C36.5668391,44.2128181 36.7426625,44.6427062 36.74,45.09 C36.73,46 36.72,47 36.72,47 Z" id="Shape" fill="#333333" fill-rule="nonzero"></path>
                    <path d="M37.21,39.23 L37.21,41.06 C37.2103447,41.4351803 36.9148358,41.743921 36.54,41.76 C33.78,41.87 30.91,41.94 27.94,41.94 C24.97,41.94 22.19,41.88 19.47,41.76 C19.0951642,41.743921 18.7996553,41.4351803 18.8,41.06 L18.8,39.23 C18.8,35.39 22.92,32.23 28.01,32.23 C33.1,32.23 37.21,35.39 37.21,39.23 Z" id="Shape" fill="#333333" fill-rule="nonzero"></path>
                    <path d="M32.79,22.76 C32.79,25.3502155 30.6902155,27.45 28.1,27.45 C25.5097845,27.45 23.41,25.3502155 23.41,22.76 C23.41,20.1697845 25.5097845,18.07 28.1,18.07 C30.6902155,18.07 32.79,20.1697845 32.79,22.76 Z" id="Shape" fill="#333333" fill-rule="nonzero"></path>
                </g>
            </g>
        </g>
    </g>
</svg>