<?xml version="1.0" encoding="UTF-8"?>
<svg width="24px" height="24px" viewBox="0 0 24 24" version="1.1" xmlns="http://www.w3.org/2000/svg" xmlns:xlink="http://www.w3.org/1999/xlink">
    <!-- Generator: Sketch 55 (78076) - https://sketchapp.com -->
    <title>Star_half</title>
    <desc>Created with Sketch.</desc>
    <defs>
        <path d="M23.4300003,9.19521763 C23.4300003,9.44866715 23.2469534,9.68803614 23.0639066,9.87108302 L17.9526745,14.8555903 L19.1636,21.8958548 C19.1776805,21.9944185 19.1776805,22.0789017 19.1776805,22.1774654 C19.1776805,22.5435591 19.0087142,22.8814918 18.6003788,22.8814918 C18.4032514,22.8814918 18.206124,22.8110892 18.0371577,22.7125255 L11.7150002,19.3895206 L5.39284262,22.7125255 C5.20979574,22.8110892 5.02674886,22.8814918 4.82962146,22.8814918 C4.42128612,22.8814918 4.23823924,22.5435591 4.23823924,22.1774654 C4.23823924,22.0789017 4.25231977,21.9944185 4.2664003,21.8958548 L5.47732579,14.8555903 L0.352013226,9.87108302 C0.183046877,9.68803614 0,9.44866715 0,9.19521763 C0,8.77280176 0.4364964,8.60383541 0.788509626,8.54751329 L7.8569352,7.51963467 L11.0250542,1.11299396 C11.151779,0.845463913 11.391148,0.535692275 11.7150002,0.535692275 C12.0388523,0.535692275 12.2782213,0.845463913 12.4049461,1.11299396 L15.5730651,7.51963467 L22.6414907,8.54751329 C22.9794234,8.60383541 23.4300003,8.77280176 23.4300003,9.19521763 Z" id="path-1"></path>
    </defs>
    <g id="Star_half" stroke="none" stroke-width="1" fill="none" fill-rule="evenodd">
        <g id="Rectangle" transform="translate(0.200000, 0.200000)">
            <mask id="mask-2" fill="white">
                <use xlink:href="#path-1"></use>
            </mask>
            <use id="Mask" fill="#3F7E02" xlink:href="#path-1"></use>
            <rect fill="#D8D8D8" mask="url(#mask-2)" x="11.7" y="0" width="14" height="26"></rect>
        </g>
    </g>
</svg>
