<svg id="Layer_1" data-name="Layer 1" xmlns="http://www.w3.org/2000/svg" viewBox="0 0 490.94 350"><defs><style>.cls-1{fill:#e5f8fa;}.cls-2{opacity:0.6;}.cls-3{fill:#c7e0e5;}.cls-4{fill:#bfd8db;}.cls-5{fill:#97c3d3;}.cls-6{fill:#4ccee0;}.cls-7{fill:#ffa575;}.cls-8{fill:#00566f;}.cls-9{fill:#00bcd3;}.cls-10{fill:#fefdf2;}.cls-11{fill:#a1d669;}.cls-12{fill:#c7eaa9;}.cls-13{fill:#e6764a;}.cls-14{fill:#4c889a;}.cls-15{fill:#99bbc5;}.cls-16{fill:#ffd999;}.cls-17{fill:#ffbd4c;}.cls-18{fill:#ffa000;}.cls-19{fill:#fff5e5;}.cls-20{fill:#d6e6ed;}.cls-21{opacity:0.4;}.cls-22{fill:#fff;}.cls-23{fill:#99c961;}</style></defs><title>supportSpot</title><path class="cls-1" d="M264,64.4C221.21,52.92,124.88,27,60.41,76.09c-29.56,22.49-53.49,61.54-48,100.47C24.16,260.38,167.05,307,267.66,311.27c75.84,3.21,200.14-14.57,216.52-69.21C502.84,179.8,374.16,94,264,64.4Z"/><g class="cls-2"><path class="cls-3" d="M278.05,47.25h.29a2.81,2.81,0,0,1,2.81,2.81V178.93a0,0,0,0,1,0,0h-5.9a0,0,0,0,1,0,0V50.06a2.81,2.81,0,0,1,2.81-2.81Z"/><path class="cls-3" d="M371.08,47.25h.29a2.81,2.81,0,0,1,2.81,2.81V178.93a0,0,0,0,1,0,0h-5.9a0,0,0,0,1,0,0V50.06a2.81,2.81,0,0,1,2.81-2.81Z"/><rect class="cls-3" x="320.23" y="22.43" width="5.9" height="93.41" transform="translate(254.05 392.31) rotate(-90)"/><path class="cls-4" d="M309.64,43.14V60.54a4.59,4.59,0,0,1-4.58,4.58H287.63a4.54,4.54,0,0,1-3-1.16,4.62,4.62,0,0,1-1.53-3.42V43.14a4.61,4.61,0,0,1,1.33-3.24,4.47,4.47,0,0,1,3-1.33h17.89a4.55,4.55,0,0,1,2.76,1.12l.39.39a.85.85,0,0,1,.14.16A4.48,4.48,0,0,1,309.64,43.14Z"/><rect class="cls-3" x="320.23" y="66.83" width="5.9" height="93.41" transform="translate(209.65 436.71) rotate(-90)"/><path class="cls-4" d="M309.64,87.54v17.41a4.59,4.59,0,0,1-4.58,4.58H287.63a4.54,4.54,0,0,1-3-1.16,4.62,4.62,0,0,1-1.53-3.42V87.54a4.61,4.61,0,0,1,1.33-3.24,4.47,4.47,0,0,1,3-1.33h17.89a4.55,4.55,0,0,1,2.76,1.12l.39.39a.85.85,0,0,1,.14.16A4.48,4.48,0,0,1,309.64,87.54Z"/><path class="cls-4" d="M338.13,87.54v17.41a4.59,4.59,0,0,1-4.58,4.58H316.12a4.54,4.54,0,0,1-3-1.16,4.62,4.62,0,0,1-1.53-3.42V87.54a4.61,4.61,0,0,1,1.33-3.24,4.47,4.47,0,0,1,3-1.33h17.89a4.55,4.55,0,0,1,2.76,1.12l.39.39a.85.85,0,0,1,.14.16A4.48,4.48,0,0,1,338.13,87.54Z"/><path class="cls-3" d="M366.62,87.54v17.41a4.59,4.59,0,0,1-4.58,4.58H344.61a4.54,4.54,0,0,1-3-1.16,4.62,4.62,0,0,1-1.53-3.42V87.54a4.61,4.61,0,0,1,1.33-3.24,4.47,4.47,0,0,1,3-1.33h17.89A4.55,4.55,0,0,1,365,84.09l.39.39a.85.85,0,0,1,.14.16A4.48,4.48,0,0,1,366.62,87.54Z"/><path class="cls-4" d="M402.68,154.84v17.41a4.59,4.59,0,0,1-4.58,4.58H380.67a4.54,4.54,0,0,1-3-1.16,4.62,4.62,0,0,1-1.53-3.42V154.84a4.61,4.61,0,0,1,1.33-3.24,4.47,4.47,0,0,1,3-1.33h17.89a4.55,4.55,0,0,1,2.76,1.12l.39.39a.85.85,0,0,1,.14.16A4.48,4.48,0,0,1,402.68,154.84Z"/><path class="cls-3" d="M431.17,154.84v17.41a4.59,4.59,0,0,1-4.58,4.58H409.16a4.54,4.54,0,0,1-3-1.16,4.62,4.62,0,0,1-1.53-3.42V154.84a4.61,4.61,0,0,1,1.33-3.24,4.47,4.47,0,0,1,3-1.33h17.89a4.55,4.55,0,0,1,2.76,1.12l.39.39a.85.85,0,0,1,.14.16A4.48,4.48,0,0,1,431.17,154.84Z"/><path class="cls-3" d="M94.48,154.84v17.41a4.59,4.59,0,0,1-4.58,4.58H72.47a4.54,4.54,0,0,1-3-1.16,4.62,4.62,0,0,1-1.53-3.42V154.84a4.61,4.61,0,0,1,1.33-3.24,4.47,4.47,0,0,1,3-1.33H90.13a4.55,4.55,0,0,1,2.76,1.12l.39.39a.85.85,0,0,1,.14.16A4.48,4.48,0,0,1,94.48,154.84Z"/><path class="cls-3" d="M273.27,154.84v17.41a4.59,4.59,0,0,1-4.58,4.58H251.27a4.54,4.54,0,0,1-3-1.16,4.62,4.62,0,0,1-1.53-3.42V154.84A4.61,4.61,0,0,1,248,151.6a4.47,4.47,0,0,1,3-1.33h17.89a4.55,4.55,0,0,1,2.76,1.12l.39.39a.85.85,0,0,1,.14.16A4.48,4.48,0,0,1,273.27,154.84Z"/><path class="cls-3" d="M66.23,154.84v17.41a4.59,4.59,0,0,1-4.58,4.58H44.23a4.54,4.54,0,0,1-3-1.16,4.62,4.62,0,0,1-1.53-3.42V154.84A4.61,4.61,0,0,1,41,151.6a4.47,4.47,0,0,1,3-1.33H61.89a4.55,4.55,0,0,1,2.76,1.12l.39.39a.85.85,0,0,1,.14.16A4.48,4.48,0,0,1,66.23,154.84Z"/><path class="cls-3" d="M81.19,127v17.41A4.59,4.59,0,0,1,76.61,149H59.19a4.54,4.54,0,0,1-3-1.16,4.62,4.62,0,0,1-1.53-3.42V127a4.61,4.61,0,0,1,1.33-3.24,4.47,4.47,0,0,1,3-1.33H76.85a4.55,4.55,0,0,1,2.76,1.12l.39.39a.85.85,0,0,1,.14.16A4.48,4.48,0,0,1,81.19,127Z"/><rect class="cls-3" x="320.23" y="111.23" width="5.9" height="93.41" transform="translate(165.24 481.12) rotate(-90)"/><path class="cls-3" d="M338.13,131.94v17.41a4.59,4.59,0,0,1-4.58,4.58H316.12a4.54,4.54,0,0,1-3-1.16,4.62,4.62,0,0,1-1.53-3.42V131.94a4.61,4.61,0,0,1,1.33-3.24,4.47,4.47,0,0,1,3-1.33h17.89a4.55,4.55,0,0,1,2.76,1.12l.39.39a.85.85,0,0,1,.14.16A4.48,4.48,0,0,1,338.13,131.94Z"/><path class="cls-4" d="M366.62,131.94v17.41a4.59,4.59,0,0,1-4.58,4.58H344.61a4.54,4.54,0,0,1-3-1.16,4.62,4.62,0,0,1-1.53-3.42V131.94a4.61,4.61,0,0,1,1.33-3.24,4.47,4.47,0,0,1,3-1.33h17.89a4.55,4.55,0,0,1,2.76,1.12l.39.39a.85.85,0,0,1,.14.16A4.48,4.48,0,0,1,366.62,131.94Z"/><path class="cls-3" d="M473.19,179.89H6.16a1,1,0,1,1,0-1.92h467a1,1,0,1,1,0,1.92Z"/><rect class="cls-3" x="132.99" y="89.46" width="18.94" height="6.79" rx="1.59" ry="1.59"/><rect class="cls-4" x="143.27" y="97.86" width="18.94" height="6.79" rx="1.59" ry="1.59"/><rect class="cls-3" x="389.86" y="110.58" width="18.94" height="6.79" rx="1.59" ry="1.59"/><rect class="cls-4" x="400.18" y="119.14" width="18.94" height="6.79" rx="1.59" ry="1.59"/><rect class="cls-4" x="122.27" y="97.86" width="18.94" height="6.79" rx="1.59" ry="1.59"/></g><path class="cls-5" d="M422.8,239.36h0Z"/><path class="cls-5" d="M377.78,239.36h0Z"/><path class="cls-6" d="M451.5,251.08c-.32.92-.7,1.93-1.12,3-.24.66-.51,1.34-.78,2.07-.1.27-.54,1.38-1.13,2.85s-1.33,3.64-2.08,5.48c-.09.24-.19.46-.27.67-.51-.31-1-.73-1.49-1,0-.17.1-.56.16-1s.17-1.2.22-1.57c.21-1.83.27-3.28.35-5.12.1-3,.07-3.72.16-6.51,0-.88.06-1.68.09-2.37,0-.46,0-.86,0-1.21a3.06,3.06,0,0,0,0-.32l1,.24,4.31,1.06a2.13,2.13,0,0,1,1.32,1.07A2.26,2.26,0,0,1,451.5,251.08Z"/><path class="cls-7" d="M430.61,242.53a53.22,53.22,0,0,0,9.24-1.73,22.26,22.26,0,0,0,2.56-.91l-.27-3.52a22.29,22.29,0,0,1-3.74,2.23,62,62,0,0,1-7.17,2.32Z"/><path class="cls-7" d="M431.53,237a1.31,1.31,0,0,0-1.09-.33,1.13,1.13,0,0,0-.76.82c-.1.41.1.61.33,1.3a6.74,6.74,0,0,1,.33,2.18c0,.9-.27,1.22-.06,1.42s1.17,0,1.69-.51a2.84,2.84,0,0,0,.7-2.06,4.07,4.07,0,0,0-.51-2.06A2.25,2.25,0,0,0,431.53,237Z"/><path class="cls-8" d="M446.44,264.84a1.48,1.48,0,0,1-.72,1.2c-.59.36-1,.06-2.5,0s-2.17.16-2.66-.32a1.1,1.1,0,0,1-.36-.67,1.14,1.14,0,0,1,.22-.68,3.74,3.74,0,0,1,3-1.44,3.48,3.48,0,0,1,1.37.26,2.86,2.86,0,0,1,.73.39,2.12,2.12,0,0,1,.87,1A.94.94,0,0,1,446.44,264.84Z"/><path class="cls-8" d="M451.28,239.7a15.29,15.29,0,0,0,.11,4.14,19.29,19.29,0,0,1-3.38,1.5,18.44,18.44,0,0,1-3.35.76c-.14-.2-.25-.4-.36-.6-.23-.37-.44-.74-.65-1.1-.49-.84-1-1.71-1.42-2.6-.26-.51-.5-1-.73-1.56a15.32,15.32,0,0,1-.88-2.85,10.75,10.75,0,0,1-.21-1.43,7.7,7.7,0,0,1,.27-2.9,5.46,5.46,0,0,1,4-3.59l0,0a6.2,6.2,0,0,1,2.81,0l.22,0,.25.08.41.14a5.58,5.58,0,0,1,3.51,6C451.79,237,451.44,238.36,451.28,239.7Z"/><path class="cls-9" d="M462.75,261.77l-1.37,1.38-.2-.12-1.43-.93c-1.44-1-2.85-2-4.27-3a31.26,31.26,0,0,1-5.11-4.93c-.32-.39-.65-.76-.95-1.13s-.41-.5-.61-.76a53.83,53.83,0,0,1-3.23-4.62c-.26-.39-.5-.78-.73-1.17-.07-.11-.14-.22-.2-.34a17.93,17.93,0,0,0,3.35-.76,18.85,18.85,0,0,0,3.39-1.51,11.37,11.37,0,0,0,.24,1.27,19.5,19.5,0,0,0,2.39,5.64,53.29,53.29,0,0,0,4.67,6.55c1.13,1.32,2.24,2.73,3.51,4h0C462.39,261.43,462.57,261.6,462.75,261.77Z"/><path class="cls-7" d="M445.62,226.55c-.21.56-.36,1.41-.73,2.35-1,2.43.89,3.07,1.62,3.09a2,2,0,0,0,1.5-.54c.3-.35.18-.61.39-1.86s.34-1.22.26-1.52S448.21,227,445.62,226.55Z"/><path class="cls-7" d="M451.05,227.57a1.8,1.8,0,0,0,.31,1.36,1.73,1.73,0,0,0,1.32.91A1.68,1.68,0,0,0,454,229a1.93,1.93,0,0,0,.27-1.2,1.73,1.73,0,0,0-.57-1.38,1.64,1.64,0,0,0-1.45-.13A1.87,1.87,0,0,0,451.05,227.57Z"/><path class="cls-7" d="M448.67,217.52a4.85,4.85,0,0,0-3.49,1.84,4.64,4.64,0,0,0-.57,3.66,5.44,5.44,0,0,0,1.86,2.93,5.15,5.15,0,0,0,3.2,1.45,5,5,0,0,0,4.22-2.28,5.2,5.2,0,0,0-.47-6.28A5.51,5.51,0,0,0,448.67,217.52Z"/><path class="cls-8" d="M446.39,222.93a4.93,4.93,0,0,0-.67-.45,2.19,2.19,0,0,0-.79-.28,1.1,1.1,0,0,0-.94.32,2.34,2.34,0,0,0-.34,1.58,7.54,7.54,0,0,0,.27,1.87,4.92,4.92,0,0,0,4.16,3.54,3.3,3.3,0,0,0,1.32-.08,2.76,2.76,0,0,0,1.24-.91l1-1a2.18,2.18,0,0,1,1-.74,1.29,1.29,0,0,1,.93.16,1.8,1.8,0,0,1,.43.36c.11.12.17.27.32.32s.72-.26.82-.35a6.15,6.15,0,0,0,1.63-3.09,6.25,6.25,0,0,0-.85-5.2,4.74,4.74,0,0,0-1.64-1.39,3.88,3.88,0,0,0-1-.35l-.93-.14a1.05,1.05,0,0,1,.37-.44c.37-.23.71-.08.82-.25s-.15-.68-.51-1a3.5,3.5,0,0,0-2.69-.52,5,5,0,0,0-2.68,1.19,2.54,2.54,0,0,0-1,1.6,1.09,1.09,0,0,0,.71,1,3,3,0,0,0,1.15,0,4.06,4.06,0,0,1,2.48.72,4.18,4.18,0,0,1,1.86,4.2,3.45,3.45,0,0,1-2.69,2.76,1.54,1.54,0,0,1-1-.2c-.55-.36-.82-1.12-1.19-1.64A7.45,7.45,0,0,0,446.39,222.93Z"/><path class="cls-10" d="M444.91,225.45a1.51,1.51,0,0,0,.38.62,1.64,1.64,0,0,0,1.2.46c.31,0,.87-.2.93-.56,0-.1,0-.2-.61-.89-.24-.28-.35-.42-.49-.56-.58-.62-.87-.93-1.06-.88s-.42.66-.44.93A2.28,2.28,0,0,0,444.91,225.45Z"/><path class="cls-8" d="M462.49,264.09c-.17.36-.31.76-.51,1.11a2.24,2.24,0,0,1-.51.62c-.75.59-1.59.31-2.45.37-.47,0-1.41.27-1.43-.47s.64-1.11,1.17-1.25a1.19,1.19,0,0,0,.61-.24.79.79,0,0,0,.17-.51,5.57,5.57,0,0,1,.12-1.44,1,1,0,0,1,.09-.2,1.87,1.87,0,0,1,2.45-.83h0a1.71,1.71,0,0,1,.57.42C463.46,262.44,462.83,263.35,462.49,264.09Z"/><path class="cls-11" d="M433.41,243.95v17.41a4.59,4.59,0,0,1-4.58,4.58H411.4a4.54,4.54,0,0,1-3-1.16,4.62,4.62,0,0,1-1.53-3.42V243.95a4.61,4.61,0,0,1,1.33-3.24,4.47,4.47,0,0,1,3-1.33h17.89a4.55,4.55,0,0,1,2.76,1.12l.39.39a.85.85,0,0,1,.14.16A4.48,4.48,0,0,1,433.41,243.95Z"/><path class="cls-12" d="M431.83,240.49a4.62,4.62,0,0,0-2.77-1.12H411.17a4.48,4.48,0,0,0-3,1.34,4.59,4.59,0,0,0-1.33,3.23v17.4a4.6,4.6,0,0,0,1.18,3.08l-8.25-8.24a2,2,0,0,0-.15-.14l-.34-.34a1,1,0,0,0-.14-.15,4.6,4.6,0,0,1-1-2.91l0-17.41a4.56,4.56,0,0,1,4.33-4.57h17.93a4.54,4.54,0,0,1,2.76,1.12l.31.3Z"/><path class="cls-13" d="M388.39,243.95v17.41a4.59,4.59,0,0,1-4.58,4.58H366.39a4.54,4.54,0,0,1-3-1.16,4.62,4.62,0,0,1-1.53-3.42V243.95a4.61,4.61,0,0,1,1.33-3.24,4.47,4.47,0,0,1,3-1.33H384a4.55,4.55,0,0,1,2.76,1.12l.39.39a.85.85,0,0,1,.14.16A4.48,4.48,0,0,1,388.39,243.95Z"/><path class="cls-7" d="M386.81,240.49a4.62,4.62,0,0,0-2.77-1.12H366.15a4.48,4.48,0,0,0-3,1.34,4.59,4.59,0,0,0-1.33,3.23v17.4a4.6,4.6,0,0,0,1.18,3.08l-8.25-8.24a2,2,0,0,0-.15-.14l-.34-.34a1,1,0,0,0-.14-.15,4.61,4.61,0,0,1-1-2.91V235.24a4.56,4.56,0,0,1,4.33-4.57h17.93a4.54,4.54,0,0,1,2.76,1.12l.31.3Z"/><path class="cls-14" d="M360.12,243.95v17.41a4.59,4.59,0,0,1-4.58,4.58H338.12a4.54,4.54,0,0,1-3-1.16,4.62,4.62,0,0,1-1.53-3.42V243.95a4.61,4.61,0,0,1,1.33-3.24,4.47,4.47,0,0,1,3-1.33h17.89a4.55,4.55,0,0,1,2.76,1.12l.39.39a.85.85,0,0,1,.14.16A4.48,4.48,0,0,1,360.12,243.95Z"/><path class="cls-15" d="M358.54,240.49a4.62,4.62,0,0,0-2.77-1.12H337.88a4.48,4.48,0,0,0-3,1.34,4.59,4.59,0,0,0-1.33,3.23v17.4a4.6,4.6,0,0,0,1.18,3.08l-8.25-8.24a2,2,0,0,0-.15-.14l-.34-.34a1,1,0,0,0-.14-.15,4.61,4.61,0,0,1-1-2.91V235.24a4.56,4.56,0,0,1,4.33-4.57h17.93a4.54,4.54,0,0,1,2.76,1.12l.31.3Z"/><path class="cls-14" d="M416.43,216.12v17.41a4.59,4.59,0,0,1-4.58,4.58H394.42a4.54,4.54,0,0,1-3-1.16,4.62,4.62,0,0,1-1.53-3.42V216.12a4.61,4.61,0,0,1,1.33-3.24,4.47,4.47,0,0,1,3-1.33h17.89a4.55,4.55,0,0,1,2.76,1.12l.39.39a.85.85,0,0,1,.14.16A4.48,4.48,0,0,1,416.43,216.12Z"/><path class="cls-15" d="M414.84,212.67a4.55,4.55,0,0,0-2.76-1.13h-17.9a4.5,4.5,0,0,0-3,1.34,4.63,4.63,0,0,0-1.33,3.24v17.41A4.57,4.57,0,0,0,391,236.6l-8.25-8.24a1,1,0,0,0-.15-.14l-.33-.34c-.05,0-.09-.1-.14-.15a4.56,4.56,0,0,1-1-2.91l0-17.41a4.57,4.57,0,0,1,1.35-3.24,4.48,4.48,0,0,1,3-1.32,1,1,0,0,1,.24,0h17.7a4.6,4.6,0,0,1,2.77,1.13,3.06,3.06,0,0,1,.3.29Z"/><path class="cls-11" d="M388.51,216.12v17.41a4.59,4.59,0,0,1-4.58,4.58H366.51a4.54,4.54,0,0,1-3-1.16,4.62,4.62,0,0,1-1.53-3.42V216.12a4.61,4.61,0,0,1,1.33-3.24,4.47,4.47,0,0,1,3-1.33h17.89a4.55,4.55,0,0,1,2.76,1.12l.39.39a.85.85,0,0,1,.14.16A4.48,4.48,0,0,1,388.51,216.12Z"/><path class="cls-12" d="M386.93,212.67a4.57,4.57,0,0,0-2.77-1.13h-17.9a4.48,4.48,0,0,0-3,1.34,4.59,4.59,0,0,0-1.33,3.24v17.41a4.53,4.53,0,0,0,1.18,3.07l-8.25-8.24c0-.05-.1-.09-.15-.14l-.34-.34s-.08-.1-.14-.15a4.56,4.56,0,0,1-1-2.91V207.41a4.57,4.57,0,0,1,1.35-3.24,4.46,4.46,0,0,1,3-1.32,1,1,0,0,1,.24,0h17.69a4.55,4.55,0,0,1,2.77,1.13c.11.09.21.19.31.29Z"/><path class="cls-7" d="M445,234.58a2.94,2.94,0,0,1,.28-.37,2.29,2.29,0,0,1,3.49.3c.79,1,.49,2.38.22,3.6a14,14,0,0,1-1.69,3.79c-.71,1.26-1.37,2.28-1.86,3a37.07,37.07,0,0,1-11.87,4l.15-1.35a9.78,9.78,0,0,1,1.63-.67c.62-.27,1.24-.54,1.84-.87a16.62,16.62,0,0,0,5.35-4.67l1.48-4.13A12.8,12.8,0,0,1,445,234.58Z"/><path class="cls-7" d="M434.68,242.73a1.48,1.48,0,0,0-1.23-.37,1.27,1.27,0,0,0-.85.92c-.11.46.12.69.37,1.47a7.61,7.61,0,0,1,.37,2.45c0,1-.31,1.37-.07,1.6s1.32,0,1.91-.58a3.21,3.21,0,0,0,.78-2.32,4.59,4.59,0,0,0-.58-2.32A2.54,2.54,0,0,0,434.68,242.73Z"/><path class="cls-8" d="M449.08,238.16a7.75,7.75,0,0,1-.49,1.42,7.63,7.63,0,0,0-4.79-1.84l.17-.47a12.35,12.35,0,0,1,1-2.74,2.17,2.17,0,0,1,.29-.38,2.35,2.35,0,0,1,3.58.31C449.67,235.5,449.37,236.89,449.08,238.16Z"/><path class="cls-16" d="M207.17,249.57a22.21,22.21,0,0,0-14.23-5.1H84.72A22.06,22.06,0,0,0,68.94,251a21.43,21.43,0,0,0-3.14,3.93,22.46,22.46,0,0,0-3.42,11.89,22,22,0,0,0,6.18,15.35h-.37l-36.7-41.71-.33-.33-1.54-1.83a21.91,21.91,0,0,1-4.68-13.62,21.65,21.65,0,0,1,1.12-7,21.32,21.32,0,0,1,3.51-6.6,21.57,21.57,0,0,1,1.92-2.2,22.06,22.06,0,0,1,15.78-6.55H155.49a22.13,22.13,0,0,1,17.69,8.75h.09Z"/><path class="cls-17" d="M215.32,266.83a22.27,22.27,0,0,1-6.19,15.36,2.93,2.93,0,0,1-.37.42,22.17,22.17,0,0,1-15.83,6.55H84.72l-.9,0a21.91,21.91,0,0,1-13.55-5.34,20.06,20.06,0,0,1-1.7-1.62,22,22,0,0,1-6.19-15.36,22.55,22.55,0,0,1,3.42-11.89A20.79,20.79,0,0,1,68.95,251a22,22,0,0,1,15.77-6.55H192.94a22.36,22.36,0,0,1,22.38,22.37Z"/><path class="cls-18" d="M84.71,284.49a17.76,17.76,0,0,1-17.65-17.65,17.85,17.85,0,0,1,2.71-9.42,17.07,17.07,0,0,1,2.47-3.09,17.38,17.38,0,0,1,12.47-5.18H192.94a17.68,17.68,0,0,1,17.7,17.69A17.63,17.63,0,0,1,205.76,279l-.35.4a17.5,17.5,0,0,1-12.46,5.14Z"/><path class="cls-17" d="M207.17,249.56a22.27,22.27,0,0,0-14.24-5.1H84.72A22,22,0,0,0,68.95,251a20.79,20.79,0,0,0-3.14,3.93,22.55,22.55,0,0,0-3.42,11.89,22,22,0,0,0,6.19,15.36,20.06,20.06,0,0,0,1.7,1.62,21.91,21.91,0,0,0,13.55,5.34l.9,0H192.94a22.17,22.17,0,0,0,15.83-6.55,2.93,2.93,0,0,0,.37-.42,22.27,22.27,0,0,0,6.19-15.36A22.39,22.39,0,0,0,207.17,249.56Zm2.51,22.93a17,17,0,0,1-3.93,6.47l-.35.39a17.47,17.47,0,0,1-12.47,5.14H84.72a17.43,17.43,0,0,1-12-4.78q-.37-.34-.71-.71a17.34,17.34,0,0,1-4.92-12.16,17.78,17.78,0,0,1,2.72-9.42,16.52,16.52,0,0,1,2.47-3.08,17.36,17.36,0,0,1,12.47-5.18H192.94a17.68,17.68,0,0,1,17.7,17.68A17,17,0,0,1,209.69,272.49Z"/><circle class="cls-19" cx="191.64" cy="266.82" r="11.36"/><circle class="cls-19" cx="86.65" cy="266.82" r="11.36"/><circle class="cls-19" cx="138.85" cy="266.82" r="11.36"/><path class="cls-16" d="M116,202H92.3a14,14,0,0,0-9.92,4.12L64.73,187.38a14.06,14.06,0,0,1,9.88-4.07H98.29v-.14Z"/><path class="cls-19" d="M78.26,224.87a14.84,14.84,0,0,0,2.53,8.33L64,215.65a15,15,0,0,1-3.42-9.5v-8.8a14,14,0,0,1,4.17-10l17.65,18.77a14,14,0,0,0-4.12,9.92Z"/><path class="cls-13" d="M317,153.61v16.7a4.4,4.4,0,0,1-4.4,4.4H295.87A4.35,4.35,0,0,1,293,173.6a4.43,4.43,0,0,1-1.47-3.29v-16.7a4.42,4.42,0,0,1,1.28-3.11,4.29,4.29,0,0,1,2.88-1.28h17.17a4.36,4.36,0,0,1,2.65,1.08l.37.37a.82.82,0,0,1,.13.16A4.3,4.3,0,0,1,317,153.61Z"/><path class="cls-7" d="M315.46,150.3a4.3,4.3,0,0,0-2.65-1.07,1,1,0,0,0-.23,0H306.8v0H295.64a4.23,4.23,0,0,0-2.87,1.27,4.41,4.41,0,0,0-1.28,3.1v16.7a4.43,4.43,0,0,0,1.13,3l-7.9-7.91-.15-.13-.32-.33c-.05,0-.09-.1-.13-.14a4.37,4.37,0,0,1-1-2.8v-16.7a4.38,4.38,0,0,1,1.28-3.11,4.32,4.32,0,0,1,2.87-1.27.93.93,0,0,1,.22,0h17a4.39,4.39,0,0,1,2.66,1.08c.11.09.2.18.3.28Z"/><path class="cls-8" d="M302.22,133.78v0a.29.29,0,0,0-.07-.11Z"/><path class="cls-8" d="M302.22,133.78v0a.29.29,0,0,0-.07-.11Z"/><path class="cls-8" d="M302.22,134.06v-.23A.31.31,0,0,1,302.22,134.06Z"/><path class="cls-8" d="M307.82,145.88a.75.75,0,0,1-.6-.31L299,134.43a.75.75,0,0,1-.15-.44V75.35a.75.75,0,0,1,1.5,0v58.39l8,10.95a.75.75,0,0,1-.6,1.19Z"/><path class="cls-8" d="M290.82,145.88a.75.75,0,0,1-.59-1.21L299,133.52a.75.75,0,1,1,1.18.93l-8.81,11.14A.75.75,0,0,1,290.82,145.88Z"/><circle class="cls-17" cx="299.83" cy="133.98" r="2.53"/><path class="cls-20" d="M305.38,71.27a8.23,8.23,0,0,1-2.14,6.89L162.74,211.27l-16-30.34L292.28,69.73l2-1.49A9.28,9.28,0,0,1,303.34,67l.06,0a3.49,3.49,0,0,1,.69.83,10.6,10.6,0,0,1,.58,1.09A7.47,7.47,0,0,1,305.38,71.27Z"/><path class="cls-18" d="M306.43,80.49l-71.34,67.59-21.1,20-14.45,13.68-34.92,33.09-1.89-3.57-.42-.81-15.58-29.53,60.34-46.1,37-28.23,11.58-8.85,16.92-12.93,19.75-15.09,2-1.49a9.27,9.27,0,0,1,9.08-1.19l.06,0a6.37,6.37,0,0,1,1.06.53l.74.52a7.53,7.53,0,0,1,2,2.11,8.51,8.51,0,0,1,1.27,3.35A8.31,8.31,0,0,1,306.43,80.49Z"/><g class="cls-21"><g class="cls-21"><polygon class="cls-22" points="244.03 106.6 199.55 181.74 164.63 214.83 162.74 211.26 162.31 210.45 186.93 168.87 207.07 134.83 244.03 106.6"/></g><g class="cls-21"><polygon class="cls-22" points="272.53 84.82 235.09 148.07 214 168.06 255.61 97.75 272.53 84.82"/></g></g><path class="cls-16" d="M304.46,67.62a6.76,6.76,0,0,0-1.06-.53l-.06,0a9.28,9.28,0,0,0-9.08,1.19l-2,1.49L146.73,180.93l16,30.34-1.3,1.23L143.59,178.6,291.08,65.92a9.26,9.26,0,0,1,10.6-.39l.69.49Z"/><path class="cls-20" d="M269.16,68.08l-.51-.36h0Z"/><ellipse class="cls-19" cx="299.63" cy="75.35" rx="5.01" ry="4.8" transform="translate(-7.95 46.16) rotate(-8.69)"/><path class="cls-19" d="M109.06,168.75a13.75,13.75,0,0,0-3.84,9.6V202L87.52,183.17V159.62a13.94,13.94,0,0,1,3.89-9.69Z"/><path class="cls-16" d="M148.1,168a15.81,15.81,0,0,0-10.3-3.75H119.49a10.79,10.79,0,0,0-1.73.14,13.62,13.62,0,0,0-8.47,4.31L91.64,149.93a14.1,14.1,0,0,1,10.16-4.35H120.1a15.75,15.75,0,0,1,11.23,4.68Z"/><path class="cls-17" d="M167.06,239.76H93.14a15,15,0,0,1-12.31-6.46.15.15,0,0,0,0-.09,14.84,14.84,0,0,1-2.53-8.33v-8.8a14.06,14.06,0,0,1,14-14H105V178.34a13.75,13.75,0,0,1,3.84-9.6,13.62,13.62,0,0,1,8.47-4.31,10.79,10.79,0,0,1,1.73-.14h18.8A15.81,15.81,0,0,1,148.1,168a15.59,15.59,0,0,1,4.77,6.74l20.69,55.56A7,7,0,0,1,167.06,239.76Z"/><path class="cls-19" d="M157.43,221.61a4,4,0,0,1-.9,2.81,3.07,3.07,0,0,1-.48.45,3.75,3.75,0,0,1-2.46.86H120a4.14,4.14,0,0,1-4.17-4.17c0-5.81.08-14.14.08-22.24v-4.4c0-1.78,0-3.5,0-5.2,0-3.5,0-6.74,0-9.36a3.72,3.72,0,0,1,3.75-3.73h21.09a2.17,2.17,0,0,1,1.49.51,2.09,2.09,0,0,1,.85,1l2.9,8.8,1.88,5.58,9.36,28.09A3.9,3.9,0,0,1,157.43,221.61Z"/><path class="cls-16" d="M156.06,224.87a3.75,3.75,0,0,1-2.46.86H120a4.14,4.14,0,0,1-4.17-4.17c0-5.81.08-14.14.08-22.24l.05-16.16Z"/><g class="cls-21"><g class="cls-21"><path class="cls-22" d="M84.72,284.48h1.87l-2.76,4.66a21.91,21.91,0,0,1-13.55-5.34l2.43-4.11A17.43,17.43,0,0,0,84.72,284.48Z"/><polygon class="cls-22" points="110.26 244.46 107.49 249.15 90.77 249.15 93.55 244.46 110.26 244.46"/></g><g class="cls-21"><polygon class="cls-22" points="91.81 284.48 99.46 284.48 96.69 289.17 89.04 289.17 91.81 284.48"/><polygon class="cls-22" points="123.14 244.46 120.37 249.15 112.72 249.15 115.49 244.46 123.14 244.46"/></g></g><path class="cls-11" d="M148,199a15,15,0,0,1-15,15,14,14,0,0,1-1.89-.13H131l0,0v0l-1.26,1.43L128,217.25l-.8-2.36-.79-2.35a14.87,14.87,0,0,1-3.61-2.44,15.25,15.25,0,0,1-4.9-11.08,15,15,0,0,1,20.16-14.1l.37.15.19.08.09,0,.25.11h0a15.26,15.26,0,0,1,7.82,8,15,15,0,0,1,1.06,4.29C147.94,198.07,148,198.55,148,199Z"/><path class="cls-19" d="M131.47,198.82s0-.08,0-.12h5.9s0,.08,0,.12a3,3,0,1,1-5.92,0Z"/><path class="cls-19" d="M131.75,195.78a1.16,1.16,0,1,1-2.23-.61,1.13,1.13,0,0,1,.71-.71A1.16,1.16,0,0,1,131.75,195.78Z"/><path class="cls-19" d="M138.18,196.69a1.16,1.16,0,1,1,.61-2.23,1.13,1.13,0,0,1,.71.71A1.16,1.16,0,0,1,138.18,196.69Z"/><path class="cls-23" d="M130.92,213.94h0v0Z"/><path class="cls-23" d="M148,199a15,15,0,0,1-15,15,14,14,0,0,1-1.89-.13,17.24,17.24,0,0,0,12.41-12,16.5,16.5,0,0,0,.5-5.57,17.47,17.47,0,0,0-.9-4.33,16.8,16.8,0,0,0-4.3-6.76l.23.09h0a15.26,15.26,0,0,1,7.82,8,15,15,0,0,1,1.06,4.29C147.94,198.07,148,198.55,148,199Z"/></svg>