<svg id="Layer_1" data-name="Layer 1" xmlns="http://www.w3.org/2000/svg" xmlns:xlink="http://www.w3.org/1999/xlink" viewBox="0 0 800 600"><defs><style>.cls-1{fill:none;}.cls-2{fill:#e5f8fa;}.cls-3{opacity:0.6;}.cls-4{fill:#cce7ea;}.cls-5{fill:#c0e0e5;}.cls-6{fill:#ffb926;}.cls-7{fill:#f90;}.cls-8{fill:#fed89e;}.cls-9{fill:#fff5e6;}.cls-10{fill:#003c4f;}.cls-11{clip-path:url(#clip-path);}.cls-12{fill:#a1d669;}.cls-13{fill:#99c961;}.cls-14{fill:#fff5e5;}</style><clipPath id="clip-path"><path class="cls-1" d="M412,323.45a41.67,41.67,0,0,0,41.7,41.69,38.34,38.34,0,0,0,5.24-.36h.22l3.51,4,4.55,5.2,2.17-6.5,2.17-6.5a41.5,41.5,0,0,0,10-6.76,42.36,42.36,0,0,0,13.61-30.78,41.67,41.67,0,0,0-56-39.16l-1,.41-.52.22h-.24l-.69.3A42.44,42.44,0,0,0,415,307.41a41.5,41.5,0,0,0-2.94,11.92C412.05,320.78,412,322.12,412,323.45Z"/></clipPath></defs><title>thankyouIllustration</title><path class="cls-2" d="M341.07,81.73a365.55,365.55,0,0,0-53.91,8.74c-66,15.94-130.06,54.24-171.57,114.34-22,31.92-34.93,74.22-25,112.9,5.76,22.58,18.75,42.18,33.74,58.77C165.47,422,223.65,454.71,277,479.17c59.51,27.31,123,44.58,187.38,49.29q15.24,1.13,30.52,1.26c44.59.4,91.09-6,131.53-28,46.5-25.33,79.28-76.69,90-132.41,14-72.55-18.65-148.16-67.83-195.23-40.08-38.35-88.49-57.07-138.2-73.87C456.72,82.09,396.78,76.86,341.07,81.73Z"/><g class="cls-3"><rect class="cls-4" x="271.16" y="246.28" width="13.94" height="17.26"/><path class="cls-4" d="M260.43,258.23h35.41a1.82,1.82,0,0,1,1.82,1.82v3.49a0,0,0,0,1,0,0H258.61a0,0,0,0,1,0,0V260A1.82,1.82,0,0,1,260.43,258.23Z"/><path class="cls-4" d="M235.55,258.23h0a2.65,2.65,0,0,1,2.65,2.65v2.65a0,0,0,0,1,0,0h-5.31a0,0,0,0,1,0,0v-2.65A2.65,2.65,0,0,1,235.55,258.23Z"/><path class="cls-5" d="M361.54,320.13V268.62H195.07v52.12a.84.84,0,0,1-.84.84h-5.16a.84.84,0,0,1-.84-.84V266a5,5,0,0,1,5-5H363.38a4.68,4.68,0,0,1,4.68,4.66l.3,54.51a1.45,1.45,0,0,1-1.45,1.46H363A1.45,1.45,0,0,1,361.54,320.13Z"/><rect class="cls-5" x="238.01" y="207.81" width="80.25" height="42.51" rx="5" ry="5"/><rect class="cls-4" x="238.2" y="212.72" width="80.06" height="32.69"/><rect class="cls-4" x="322.23" y="119.24" width="40.03" height="57.04"/><rect class="cls-4" x="573.4" y="246.28" width="13.94" height="17.26"/><path class="cls-4" d="M562.67,258.23h35.41A1.82,1.82,0,0,1,599.9,260v3.49a0,0,0,0,1,0,0H560.85a0,0,0,0,1,0,0V260A1.82,1.82,0,0,1,562.67,258.23Z"/><path class="cls-4" d="M623.15,258.23h0a2.65,2.65,0,0,1,2.65,2.65v2.65a0,0,0,0,1,0,0H620.5a0,0,0,0,1,0,0v-2.65A2.65,2.65,0,0,1,623.15,258.23Z"/><path class="cls-5" d="M726.52,323.29h-650a1,1,0,1,1,0-1.92h650a1,1,0,1,1,0,1.92Z"/><path class="cls-5" d="M652.29,293.65l-1.43,28.68c0,1.17-23.62,1.17-23.62,0l-1.43-28.68c0-1.95,5.92-3.54,13.24-3.54S652.29,291.7,652.29,293.65Z"/><rect class="cls-5" x="472.64" y="224.39" width="7.03" height="21.23" rx="1.82" ry="1.82" transform="translate(241.51 711.34) rotate(-90.04)"/><rect class="cls-5" x="201.66" y="163.9" width="7.03" height="21.23" rx="1.82" ry="1.82" transform="translate(30.81 379.81) rotate(-90.04)"/><rect class="cls-5" x="640.63" y="160.38" width="7.03" height="21.23" rx="1.82" ry="1.82" transform="translate(473.63 815.26) rotate(-90.04)"/><path class="cls-5" d="M454.65,250a1.69,1.69,0,0,1-1.59-1.69v-5.42a1.7,1.7,0,0,1,.5-1.2,1.66,1.66,0,0,1,1.19-.49l19.62,0a1.69,1.69,0,0,1,1.7,1.69v5.42a1.71,1.71,0,0,1-1.69,1.7H454.65Zm.18-1.69h0Zm19.45-5.44-19.54.1.09,5.26,19.54,0Z"/><path class="cls-5" d="M139.57,274.42a5.78,5.78,0,0,0,5.26-2.26,7.75,7.75,0,0,0,1-6.83,9.72,9.72,0,0,0-5.2-6,11.18,11.18,0,0,0-6.61-.73,13.25,13.25,0,0,0-8.53,5.55c-2.52,3.72-3.27,9.35-.63,13.22a2,2,0,0,0,.68.66c1.47.71,2.54-1.46,3-2.5a8.31,8.31,0,0,1,1.71-2.92c1.43-1.31,3.74-1.2,5.44-.26a27.32,27.32,0,0,0,2.82,1.73A4.67,4.67,0,0,0,139.57,274.42Z"/><path class="cls-5" d="M154.94,249.06c-.78,1.26-3.09,5-1.86,9.39.84,3,3,6.07,6.19,6.75,4.09.86,8.31-2.28,11.24-4.77,3.89-3.29,7.4-7.23,12-9.51,2.81-1.38,5.63-1.47,8.69-1.75a1.57,1.57,0,0,0,1.23-.49c.34-.49,0-1.16-.35-1.63-.77-1-4-4.66-13-5.82a29.17,29.17,0,0,0-11.36.19C164.49,242.18,158.34,243.62,154.94,249.06Z"/><path class="cls-5" d="M166.54,295.46l0,.18L162.16,320c0,1.31-5.7,2.37-12.73,2.37s-12.74-1.06-12.74-2.37l-4.34-24.32,0-.18c0-1.76,7.67-3.18,17.12-3.18S166.54,293.7,166.54,295.46Z"/><path class="cls-4" d="M149.43,298.64h-1c0-2-.09-4.17-.22-6.34-.09-1.49-.21-3-.38-4.5v0c-.21-2-.5-4-.87-6-.9-4.64-2.31-8.8-4.47-11.55-1.07-1.37-3.05-3.91-6.09-4.2-3.29-.33-6.13,2.18-7.5,3.66a1,1,0,0,1-1.37.11h0a1,1,0,0,1-.1-1.46c1.71-1.87,5-4.71,9.17-4.3,3.88.38,6.3,3.47,7.47,4.95a24.59,24.59,0,0,1,4,8.61c.38,1.35.7,2.76,1,4.21a81.7,81.7,0,0,1,1.19,9.86c0,.19,0,.39,0,.59.13,2.17.19,4.31.21,6.34h-1Z"/><path class="cls-4" d="M179.29,246.22a1,1,0,0,1-.82,1.13,33,33,0,0,0-14.19,6.2c-2.59,2-6.49,5.64-10.43,14.07q-1.08,2.31-2,4.65t-1.63,4.82c-.49,1.58-.91,3.17-1.28,4.75-.47,2-.85,4-1.17,5.93v0c-.25,1.52-.46,3-.63,4.52-.24,2.15-.41,4.25-.51,6.28-.68,0-1.34,0-2-.07q.15-3,.49-6.14a94.76,94.76,0,0,1,1.77-10.57c.32-1.39.68-2.79,1.07-4.18q.81-2.82,1.84-5.62c.48-1.28,1-2.55,1.55-3.82.21-.47.42-.95.64-1.42,4.12-8.82,8.26-12.67,11-14.8a34.93,34.93,0,0,1,15.07-6.59,1,1,0,0,1,1.16.84Z"/><path class="cls-5" d="M150.48,249.73a6.51,6.51,0,0,0,1.09-1.48c1.25-2.31,1-5.13.48-7.71-2.65-13.28-11.32-24.5-22.4-32A50.23,50.23,0,0,0,116.51,202c-1.68-.52-6-2.05-7.47-.26-2.47,3,3.8,10.54,5.54,12.78,3.21,4.12,6.88,8.12,8.52,13.19,1.27,3.92,1.19,8.17,2.45,12.09a18.82,18.82,0,0,0,16.92,12.7C145.36,252.55,148.51,251.74,150.48,249.73Z"/><path class="cls-4" d="M152.13,292.32c-.16,2.16-.37,4.25-.62,6.29l-1.09,0h-.93c.26-2.05.48-4.17.63-6.35,0-.19,0-.39,0-.59a118.1,118.1,0,0,0,.09-14.61c-.1-1.68-.23-3.37-.41-5.08a101.46,101.46,0,0,0-22.36-54,1,1,0,0,1,.14-1.39h0a1,1,0,0,1,1.42.14,103.42,103.42,0,0,1,22.35,51.46c.19,1.37.35,2.73.49,4.08A117.62,117.62,0,0,1,152.13,292.32Z"/><path class="cls-5" d="M663.78,320.13V268.62H497.31v52.12a.84.84,0,0,1-.84.84h-5.16a.83.83,0,0,1-.84-.84V266a5,5,0,0,1,5-5H665.62a4.68,4.68,0,0,1,4.68,4.66l.3,54.51a1.45,1.45,0,0,1-1.45,1.46h-3.92A1.45,1.45,0,0,1,663.78,320.13Z"/><rect class="cls-5" x="540.25" y="207.81" width="80.25" height="42.51" rx="5" ry="5"/><rect class="cls-4" x="540.35" y="212.72" width="80.06" height="32.69"/><path class="cls-5" d="M367,114H318a1.91,1.91,0,0,0-1.92,1.91v65.41a1.92,1.92,0,0,0,1.92,1.92h49a1.92,1.92,0,0,0,1.92-1.92V115.92A1.91,1.91,0,0,0,367,114Zm-7.19,59.38a1.13,1.13,0,0,1-1.13,1.12H326.33a1.13,1.13,0,0,1-1.13-1.12V123.86a1.13,1.13,0,0,1,1.13-1.12h32.34a1.13,1.13,0,0,1,1.13,1.12Z"/></g><path class="cls-6" d="M515.89,483.91a1.23,1.23,0,0,1-.38.08h-.16c-1.08,0-2.29-1.09-2.87-2.72-.69-1.9-.26-3.79.94-4.22A1.49,1.49,0,0,1,514,477h.16a3.87,3.87,0,0,1,2.69,2.73C517.52,481.59,517.1,483.47,515.89,483.91Z"/><path class="cls-7" d="M520.76,483.91a1.29,1.29,0,0,1-.39.08h-4.86a1.23,1.23,0,0,0,.38-.08c1.21-.44,1.63-2.32.94-4.22a3.87,3.87,0,0,0-2.69-2.73h4.58c1.12-.07,2.38,1.06,3,2.73C522.38,481.59,522,483.47,520.76,483.91Z"/><path class="cls-6" d="M490.84,455a1.61,1.61,0,0,1-.38.08h-.15c-1.09,0-2.3-1.1-2.88-2.72-.69-1.91-.26-3.79.94-4.23a1.77,1.77,0,0,1,.56-.08h.16a3.89,3.89,0,0,1,2.69,2.73C492.47,452.71,492.05,454.59,490.84,455Z"/><path class="cls-7" d="M495.71,455a1.61,1.61,0,0,1-.38.08h-4.87a1.61,1.61,0,0,0,.38-.08c1.21-.44,1.63-2.32.94-4.23a3.89,3.89,0,0,0-2.69-2.73h4.58c1.12-.06,2.38,1.06,3,2.73C497.34,452.71,496.92,454.59,495.71,455Z"/><path class="cls-6" d="M529.32,462.52l-.7-.78A4.34,4.34,0,0,1,529.32,462.52Z"/><path class="cls-7" d="M531.29,468.61a3.24,3.24,0,0,1-5.57,2.24l-.2-.23a3.11,3.11,0,0,1-.72-2c0-.11,0-.21,0-.32a3.25,3.25,0,0,1,3.23-2.93h.09a3.15,3.15,0,0,1,2.2.94h0A3.24,3.24,0,0,1,531.29,468.61Z"/><path class="cls-6" d="M530.34,466.31a3.15,3.15,0,0,0-2.2-.94h-.09a3.25,3.25,0,0,0-3.23,2.93c0,.11,0,.21,0,.32a3.11,3.11,0,0,0,.72,2l-2.89-3.27-.18-.2a3.24,3.24,0,0,1,2.47-5.33,3.17,3.17,0,0,1,2.1.77l.59.65h0Z"/><path class="cls-7" d="M486.37,468.61a3.24,3.24,0,0,1-5.57,2.24l-.2-.23a3.11,3.11,0,0,1-.72-2c0-.11,0-.21,0-.32a3.25,3.25,0,0,1,3.23-2.93h.09a3.15,3.15,0,0,1,2.2.94h0A3.24,3.24,0,0,1,486.37,468.61Z"/><path class="cls-6" d="M485.42,466.31a3.15,3.15,0,0,0-2.2-.94h-.09a3.25,3.25,0,0,0-3.23,2.93c0,.11,0,.21,0,.32a3.11,3.11,0,0,0,.72,2l-2.89-3.27-.19-.2a3.29,3.29,0,0,1-.76-2.09,3.24,3.24,0,0,1,3.24-3.24,3.19,3.19,0,0,1,2.1.77l.59.65h0Z"/><path class="cls-6" d="M532.44,460.92v3.89a1.45,1.45,0,0,1-1.46,1.45H514.32l-3-3.41Z"/><path class="cls-6" d="M474.89,458.38v2.8a4.06,4.06,0,0,0,1,2.7l.61.67a5.15,5.15,0,0,0,3.83,1.71H503v-3.41h-22.6a5.22,5.22,0,0,1-3.92-1.78Z"/><path class="cls-8" d="M530.55,462.85H480.4a5.17,5.17,0,0,1-3.87-1.75l-1.17-1.34a1.88,1.88,0,0,1,1.42-3.12H526.9a5.22,5.22,0,0,1,3.92,1.78l1.15,1.31A1.88,1.88,0,0,1,530.55,462.85Z"/><path class="cls-9" d="M503,462.85v3.41l11,12.45a5.28,5.28,0,0,0,4,1.78h1.69a2.13,2.13,0,0,0,2.14-2.13v-2.9l-6.21.56Z"/><path class="cls-9" d="M487,443.92v3.32a2.48,2.48,0,0,0,.62,1.64l6.88,7.76h3Z"/><path class="cls-8" d="M520.12,477.08H518a5.23,5.23,0,0,1-3.9-1.75l-11-12.48-5.5-6.21-10.09-11.4a1.7,1.7,0,0,1,1.28-2.83h2.15a5.23,5.23,0,0,1,3.9,1.75l11,12.48,5.49,6.21,10.1,11.4A1.7,1.7,0,0,1,520.12,477.08Z"/><path class="cls-7" d="M507.93,405.86v53.36h0a1,1,0,0,1,0,.17c-.2,1.19-2.27,1.83-4.62,1.44s-3.87-1.51-3.91-2.62h0V404.84Z"/><rect class="cls-7" x="531.79" y="374.79" width="5.18" height="41.05"/><rect class="cls-6" x="529.7" y="374.79" width="5.18" height="41.05"/><rect class="cls-7" x="520.4" y="360.42" width="5.18" height="41.05"/><rect class="cls-6" x="518.31" y="360.42" width="5.18" height="41.05"/><path class="cls-6" d="M539.21,416.81v4.39a4,4,0,0,1-4,3.95H491.9a11.74,11.74,0,0,1-5.68-1.46,11.62,11.62,0,0,1-3.21-2.56l-21.39-24.37a6.13,6.13,0,0,1-1.52-4V388.3l26.12,29.27.32.36Z"/><path class="cls-6" d="M544.88,362.49v19.26a2.57,2.57,0,0,1-2.58,2.58h-5.55l2-24.22-.41-.47L511.65,329h4.81a3.67,3.67,0,0,1,2.75,1.24L543,357.49a7.65,7.65,0,0,1,1.88,5Z"/><path class="cls-9" d="M486.22,417.57v6.12a11.62,11.62,0,0,1-3.21-2.56l-21.39-24.37a6.13,6.13,0,0,1-1.52-4V388.3Z"/><path class="cls-8" d="M515.69,388.61l22.7,25.9a3.29,3.29,0,0,1-2.47,5.46H491a9.75,9.75,0,0,1-7.33-3.32l-22.7-25.9a3.29,3.29,0,0,1,2.48-5.46h44.95A9.75,9.75,0,0,1,515.69,388.61Z"/><path class="cls-7" d="M544.88,362.49v19.26a2.57,2.57,0,0,1-2.58,2.58h-5.55l2-24.22-.41-.47h5.93A7.46,7.46,0,0,1,544.88,362.49Z"/><path class="cls-9" d="M535.4,383.49l-24.78-28.27a5.32,5.32,0,0,1-1.31-3.49V331.49a2.46,2.46,0,0,1,4.31-1.62l24.77,28.26a5.31,5.31,0,0,1,1.32,3.5v20.23A2.46,2.46,0,0,1,535.4,383.49Z"/><circle class="cls-10" cx="419.63" cy="318.14" r="12.96"/><g class="cls-11"><rect class="cls-1" x="-20.42" y="-206.7" width="600" height="1062"/><circle class="cls-12" cx="453.5" cy="323.65" r="41.73"/></g><path class="cls-13" d="M474.14,288.08a46,46,0,0,1-31.9,74.78c3.49,2.16,16.27,2.47,16.27,2.47l8.48,8.84,4.33-13s7.65-4.18,8.37-4.76a41.18,41.18,0,0,0-3.1-66.69c-.87-.59-1.71-1-2.62-1.52"/><circle class="cls-10" cx="487.28" cy="318.14" r="12.96"/><path class="cls-10" d="M489.83,314.45h-4c0-18.31-15.65-33.2-34.89-33.2s-34.89,14.89-34.89,33.2h-4c0-20.51,17.45-37.2,38.89-37.2S489.83,293.94,489.83,314.45Z"/><path class="cls-12" d="M432.26,321.31c2.52-.48,5-.83,7.54-1.12.95-1,1.87-2,2.78-3,.31-.54.62-1.08.91-1.62-.07-2.24-.22-4.47-.3-6.72-.34-10,3.73-19.3,9.78-26.94A41.71,41.71,0,0,0,412.84,333C418.23,327.4,425.35,322.63,432.26,321.31Z"/><circle class="cls-14" cx="435.88" cy="311.17" r="3.29"/><circle class="cls-14" cx="457.4" cy="311.17" r="3.29"/><path class="cls-14" d="M455,321.79a8.37,8.37,0,1,1-16.64,0Z"/><path class="cls-10" d="M452.34,344.41a1.5,1.5,0,0,1-.37-3l13.6-3.51A25.65,25.65,0,0,0,480.75,327L486,318.9a1.5,1.5,0,1,1,2.51,1.63l-5.26,8.13a28.63,28.63,0,0,1-16.95,12.2l-13.6,3.5A1.73,1.73,0,0,1,452.34,344.41Z"/><rect class="cls-10" x="445.77" y="339.96" width="13.02" height="5.9" rx="2.73" ry="2.73" transform="translate(-71.99 125.47) rotate(-14.64)"/><path class="cls-9" d="M247.69,424.28l-2.16-2.45-3.84-4.35a9.58,9.58,0,0,1-1-1.42,10.21,10.21,0,0,1-1.51-5.34V347.41a1.27,1.27,0,0,1,0-.2,3.63,3.63,0,0,1,5.32-3Z"/><path class="cls-9" d="M322.16,431.83l3.44,80.57-6.91-7.83a13.24,13.24,0,0,1-3.3-8.73V424.59Z"/><path class="cls-7" d="M381.36,428.55H257.24a12.8,12.8,0,0,1-12.8-12.79V344.59l135.92,4Z"/><path class="cls-9" d="M322.16,431.83v9.35l-83-94a3.62,3.62,0,0,1,3.59-3.43h.06a3.52,3.52,0,0,1,2.67,1.23l71.78,81.26,1.05,1.18.15.18a15.13,15.13,0,0,1,2.56,4.2Z"/><path class="cls-6" d="M459.08,436v67.63a12.88,12.88,0,0,1-12.88,12.88H335a12.88,12.88,0,0,1-12.88-12.88v-66a15.28,15.28,0,0,0-1.15-5.84H458A15,15,0,0,1,459.08,436Z"/><path class="cls-8" d="M458,431.83H321a15.13,15.13,0,0,0-2.56-4.2l-.15-.18-1-1.18h0L245.47,345a3.52,3.52,0,0,0-2.67-1.23H371.35a24.51,24.51,0,0,1,18.51,8.44l63.52,73.06,2.57,3A15.37,15.37,0,0,1,458,431.83Z"/><polygon class="cls-8" points="323.56 431.31 322.51 430.13 322.52 430.13 323.56 431.31"/><polygon class="cls-8" points="381.41 370.74 401.4 393.24 384.25 393.24 364.26 370.74 381.41 370.74"/><polygon class="cls-9" points="315.94 390.49 300.62 373.2 300.62 357.67 315.94 374.95 315.94 390.49"/><path class="cls-7" d="M399.29,389.32v2.08a1.42,1.42,0,0,1-.08.5,1.81,1.81,0,0,1-1.76,1.34H387.09a7.17,7.17,0,0,1-2.84-.72v-3.43l12.81.2Z"/><path class="cls-6" d="M342.2,360.47v35.95a3.44,3.44,0,0,1-3.45,3.45h-5.9l2.5-44,0-.49-44.69-50.3h4.22a5.93,5.93,0,0,1,4.43,2l39.47,44.47a13.53,13.53,0,0,1,3.39,9Z"/><path class="cls-9" d="M384.25,389.37v3.15a6.43,6.43,0,0,1-2-1.55l-15-16.89a3.43,3.43,0,0,1-.82-1.84h0a3,3,0,0,1,0-.42v-2.36l1.35,1.51Z"/><path class="cls-6" d="M382.66,370.07l16.23,18.27a1.57,1.57,0,0,1-1.26,2.62l-10.35-.56a7.25,7.25,0,0,1-5-2.43l-15.47-17.41a1.58,1.58,0,0,1,1.26-2.62l11.51.63A4.47,4.47,0,0,1,382.66,370.07Z"/><path class="cls-7" d="M342.2,360.47v35.95a3.44,3.44,0,0,1-3.45,3.45h-5.9l2.5-44h6A13.44,13.44,0,0,1,342.2,360.47Z"/><path class="cls-9" d="M330,398.46l-39.55-44.6a15.12,15.12,0,0,1-3.8-10V309.21a4.15,4.15,0,0,1,7.26-2.75l39.55,44.6a15.12,15.12,0,0,1,3.8,10v34.64A4.15,4.15,0,0,1,330,398.46Z"/><path class="cls-6" d="M315.51,365.19H311.9l-12.59-14.51h2.77a2.12,2.12,0,0,1,1.58.71l10.06,11.3.78.88,0,0A5.78,5.78,0,0,1,315.51,365.19Z"/><path class="cls-9" d="M314.93,394.17l-14.16-15.95a12.46,12.46,0,0,1-3.15-8.29V352.38a1.7,1.7,0,0,1,1.69-1.7h0a1.65,1.65,0,0,1,1.26.57l11,12.4a5.4,5.4,0,0,1,.64.89h0a4.25,4.25,0,0,1,.32.64,5.45,5.45,0,0,1,.4,2V379.7Z"/><path class="cls-7" d="M328.5,396.84h-8a8,8,0,0,1-4.52-1.7,9.17,9.17,0,0,1-1-1l-.28-.33a7.94,7.94,0,0,1-1.71-4.93V367.23a5.45,5.45,0,0,0-.4-2h3a5.71,5.71,0,0,1,.43,2.17v21a5.51,5.51,0,0,0,5.51,5.51h4.33Z"/><path class="cls-7" d="M405.91,403.63v1.67a1.55,1.55,0,0,1-1.55,1.55h-4.7a3.21,3.21,0,0,1-1.44-.34v-1.85Z"/><path class="cls-9" d="M398.22,404.46v2.05a3.07,3.07,0,0,1-.94-.71l0,0a1.34,1.34,0,0,1-.36-.91v-1.76Z"/><path class="cls-6" d="M405.52,402.85l0,0a1.37,1.37,0,0,1-1,2.28h-4.89a3.24,3.24,0,0,1-2.38-1.06l0,0a1.36,1.36,0,0,1,1-2.27h4.88A3.21,3.21,0,0,1,405.52,402.85Z"/><path class="cls-7" d="M400.4,403.36h0a.27.27,0,0,1-.2.45h-1a.67.67,0,0,1-.48-.21h0a.27.27,0,0,1,.2-.45h1A.61.61,0,0,1,400.4,403.36Z"/><ellipse class="cls-6" cx="311.79" cy="346.93" rx="2.78" ry="4.38" transform="translate(-99.03 126.02) rotate(-19.79)"/></svg>