<svg xmlns="http://www.w3.org/2000/svg" xmlns:xlink="http://www.w3.org/1999/xlink" width="134" height="134" viewBox="0 0 134 134">
  <defs>
    <polygon id="timeoutillustrationlg@1x-a" points="0 .333 134 .333 134 95 0 95"/>
    <polygon id="timeoutillustrationlg@1x-c" points="0 134 134 134 134 0 0 0"/>
  </defs>
  <g fill="none" fill-rule="evenodd">
    <path fill="#74C8E9" d="M134,30 L134,104 C134,120.561 120.57,134 104,134 L30,134 C13.43,134 0,120.561 0,104 L0,0 L104,0 C120.57,0 134,13.431 134,30"/>
    <g transform="translate(0 39)">
      <mask id="timeoutillustrationlg@1x-b" fill="#fff">
        <use xlink:href="#timeoutillustrationlg@1x-a"/>
      </mask>
      <path fill="#49B8E6" d="M134,9.1504 L134,65.0004 C134,81.5604 120.57,95.0004 104,95.0004 L30,95.0004 C13.43,95.0004 0,81.5604 0,65.0004 L0,9.1504 C10.7,15.0404 19.68,16.9104 25.47,17.6104 C60.11,21.7604 79.34,-4.3196 112.25,1.0704 C122.149,2.6904 129.7,6.5704 134,9.1504" mask="url(#timeoutillustrationlg@1x-b)"/>
    </g>
    <polygon fill="#FFF" points="39.614 39.721 33.529 45.805 29.031 41.308 35.116 35.223"/>
    <path fill="#153051" d="M36.8379,34.4619 L28.2709,43.0289 C27.5889,43.7119 26.4829,43.7119 25.8009,43.0289 C25.1179,42.3469 25.1179,41.2409 25.8009,40.5589 L34.3679,31.9919 C35.0499,31.3099 36.1559,31.3099 36.8379,31.9919 C37.5209,32.6739 37.5209,33.7799 36.8379,34.4619"/>
    <mask id="timeoutillustrationlg@1x-d" fill="#fff">
      <use xlink:href="#timeoutillustrationlg@1x-c"/>
    </mask>
    <polygon fill="#FFF" points="60.006 34.02 74.205 34.02 74.205 19.151 60.006 19.151" mask="url(#timeoutillustrationlg@1x-d)"/>
    <path fill="#E6F4FB" d="M111.498,74 C111.498,98.575 91.575,118.497 67,118.497 C42.425,118.497 22.503,98.575 22.503,74 C22.503,49.425 42.425,29.503 67,29.503 C91.575,29.503 111.498,49.425 111.498,74" mask="url(#timeoutillustrationlg@1x-d)"/>
    <path fill="#E6F4FB" d="M111.498,74 C111.498,98.575 91.575,118.497 67,118.497 C42.425,118.497 22.503,98.575 22.503,74 C22.503,49.425 42.425,29.503 67,29.503 C91.575,29.503 111.498,49.425 111.498,74" mask="url(#timeoutillustrationlg@1x-d)"/>
    <path fill="#FFF" d="M104.7158,74 C104.7158,94.829 87.8298,111.716 66.9998,111.716 C46.1708,111.716 29.2838,94.829 29.2838,74 C29.2838,53.17 46.1708,36.284 66.9998,36.284 C87.8298,36.284 104.7158,53.17 104.7158,74" mask="url(#timeoutillustrationlg@1x-d)"/>
    <path fill="#153051" d="M79.3594,17.2002 C79.3594,17.9802 79.0394,18.6902 78.5394,19.2002 C78.0194,19.7112 77.3194,20.0302 76.5394,20.0302 L57.4604,20.0302 C55.8994,20.0302 54.6394,18.7612 54.6394,17.2002 C54.6394,16.4202 54.9604,15.7212 55.4604,15.2112 C55.9794,14.7002 56.6784,14.3812 57.4604,14.3812 L76.5394,14.3812 C78.0994,14.3812 79.3594,15.6502 79.3594,17.2002" mask="url(#timeoutillustrationlg@1x-d)"/>
    <path fill="#A4BDC9" d="M67.1055 108.459C66.5525 108.459 66.1055 108.012 66.1055 107.459L66.1055 101.932C66.1055 101.379 66.5525 100.932 67.1055 100.932 67.6585 100.932 68.1055 101.379 68.1055 101.932L68.1055 107.459C68.1055 108.012 67.6585 108.459 67.1055 108.459M39.1738 75L33.6468 75C33.0938 75 32.6468 74.553 32.6468 74 32.6468 73.447 33.0938 73 33.6468 73L39.1738 73C39.7268 73 40.1738 73.447 40.1738 74 40.1738 74.553 39.7268 75 39.1738 75M100.5645 75L95.0375 75C94.4845 75 94.0375 74.553 94.0375 74 94.0375 73.447 94.4845 73 95.0375 73L100.5645 73C101.1175 73 101.5645 73.447 101.5645 74 101.5645 74.553 101.1175 75 100.5645 75M47.3545 55.249C47.0985 55.249 46.8425 55.151 46.6475 54.956L42.7395 51.048C42.3485 50.657 42.3485 50.024 42.7395 49.634 43.1295 49.243 43.7625 49.243 44.1535 49.634L48.0615 53.542C48.4525 53.933 48.4525 54.565 48.0615 54.956 47.8665 55.151 47.6105 55.249 47.3545 55.249M90.7646 98.6592C90.5086 98.6592 90.2526 98.5612 90.0576 98.3662L86.1496 94.4582C85.7586 94.0672 85.7586 93.4342 86.1496 93.0442 86.5396 92.6532 87.1726 92.6532 87.5636 93.0442L91.4716 96.9522C91.8626 97.3432 91.8626 97.9752 91.4716 98.3662 91.2766 98.5612 91.0206 98.6592 90.7646 98.6592M43.4463 98.6592C43.1903 98.6592 42.9343 98.5612 42.7393 98.3662 42.3483 97.9752 42.3483 97.3432 42.7393 96.9522L46.6473 93.0442C47.0383 92.6532 47.6713 92.6532 48.0613 93.0442 48.4523 93.4342 48.4523 94.0672 48.0613 94.4582L44.1533 98.3662C43.9583 98.5612 43.7023 98.6592 43.4463 98.6592M86.8564 55.249C86.6004 55.249 86.3444 55.151 86.1494 54.956 85.7584 54.565 85.7584 53.933 86.1494 53.542L90.0574 49.634C90.4484 49.243 91.0814 49.243 91.4714 49.634 91.8624 50.024 91.8624 50.657 91.4714 51.048L87.5634 54.956C87.3684 55.151 87.1124 55.249 86.8564 55.249" mask="url(#timeoutillustrationlg@1x-d)"/>
    <path fill="#153051" d="M67,75.2861 C65.896,75.2861 65,74.3901 65,73.2861 L65,43.9311 C65,42.8261 65.896,41.9311 67,41.9311 C68.104,41.9311 69,42.8261 69,43.9311 L69,73.2861 C69,74.3901 68.104,75.2861 67,75.2861" mask="url(#timeoutillustrationlg@1x-d)"/>
    <path fill="#ED2D22" d="M111.8633,101.2979 C111.8633,109.4519 105.2533,116.0629 97.0983,116.0629 C88.9443,116.0629 82.3333,109.4519 82.3333,101.2979 C82.3333,93.1439 88.9443,86.5329 97.0983,86.5329 C105.2533,86.5329 111.8633,93.1439 111.8633,101.2979" mask="url(#timeoutillustrationlg@1x-d)"/>
    <path fill="#FFF" d="M98.9756,102.5996 C98.9166,103.2046 98.4066,103.6636 97.8006,103.6636 L96.3956,103.6636 C95.7886,103.6636 95.2796,103.2046 95.2196,102.5996 L94.2736,93.1346 C94.2066,92.4396 94.7536,91.8326 95.4496,91.8326 L98.7466,91.8326 C99.4496,91.8326 99.9966,92.4396 99.9226,93.1346 L98.9756,102.5996 Z M97.0976,110.7626 C95.7886,110.7626 94.7316,109.7046 94.7316,108.3966 C94.7316,107.0876 95.7886,106.0306 97.0976,106.0306 C98.4066,106.0306 99.4636,107.0876 99.4636,108.3966 C99.4636,109.7046 98.4066,110.7626 97.0976,110.7626 L97.0976,110.7626 Z" mask="url(#timeoutillustrationlg@1x-d)"/>
  </g>
</svg>
