<svg xmlns="http://www.w3.org/2000/svg" xmlns:xlink="http://www.w3.org/1999/xlink" viewBox="0 0 70 70"><defs><style>.cls-1{fill:none;}.cls-2{fill:#ffbd4c;}.cls-3{clip-path:url(#clip-path);}.cls-4{fill:#fff2eb;}.cls-5{fill:#f7e5d0;}</style><clipPath id="clip-path"><circle class="cls-1" cx="35" cy="35" r="34.82"/></clipPath></defs><title>userAvatar</title><g id="cept_1" data-name="cept 1"><path class="cls-2" d="M15.36,63.76a31,31,0,0,1,20.41-8.14,29.2,29.2,0,0,1,19.71,7.54,34.81,34.81,0,1,0-40.12.6Z"/><g class="cls-3"><path class="cls-4" d="M47.3,54.48a22,22,0,0,0-3.9-2h0c-.22-.09-.45-.16-.67-.24h0a.14.14,0,0,0,0-.1,21.3,21.3,0,0,0-2.49-.68V49.53a10.25,10.25,0,0,1-1.11.17c-.21,0-.44,0-.67.06s-.29,0-.44,0h-.24l-2.27.05h-.18l2.19-.05h.23c.36,0,.71,0,1.07-.09a10.14,10.14,0,0,0,1.06-.17A15.46,15.46,0,0,0,52.07,38.16a3.63,3.63,0,0,0,.87.1,3.81,3.81,0,0,0,1.84-7.14V31C54.65,29,53.58,19,45.16,13.38,38.86,9.15,31.05,8.59,25.26,12c-2.09,1.21-5.62,3.79-5.83,7.44a2.06,2.06,0,0,0,0,.35c-3.54,1.12-5,7-4.72,10.86a5.87,5.87,0,0,0,.08.72,3.8,3.8,0,0,0,.06,6.12,3.74,3.74,0,0,0,2.23.73,4,4,0,0,0,.6,0,5.09,5.09,0,0,0,.59-.14A15.7,15.7,0,0,0,30.5,49.53c.17,0,.35.06.53.09l-.56-.09v1.89h0A20.74,20.74,0,0,0,28.4,52v0a11.47,11.47,0,0,0-1.43.49,21.44,21.44,0,0,0-3.88,2A22.36,22.36,0,0,0,14.29,65a5.91,5.91,0,0,0,3.17,7.61,34,34,0,0,0,4,1.4c.95.28,1.92.52,2.91.73l.18,0h.1l.84.16v0c.78.15,1.58.27,2.38.37a55.46,55.46,0,0,0,7.47.49,56.87,56.87,0,0,0,7.8-.52c.8-.12,1.61-.24,2.39-.38a.49.49,0,0,0,0-.12l.28-.06.18,0c1-.21,2-.46,2.92-.73a33.76,33.76,0,0,0,3.94-1.4,5.91,5.91,0,0,0,3.6-5.44A5.71,5.71,0,0,0,56,65,22.3,22.3,0,0,0,47.3,54.48Z"/><path class="cls-5" d="M57.2,65.73A6.53,6.53,0,0,1,57.64,68a6.27,6.27,0,0,1-3.78,5.73c-.85.36-1.73.69-2.65,1a11.63,11.63,0,0,0-.3-1.31c-.06-.28-.14-.57-.21-.86-.15-.56-.33-1.15-.53-1.77a33.23,33.23,0,0,0-5-9.59q-.24-.3-.48-.63a3.36,3.36,0,0,0-.24-.29,32.83,32.83,0,0,0-4.4-4.52l-.11-.1-.91-.74-.67-.5V47.73a3.84,3.84,0,0,0,.27-.29,36.23,36.23,0,0,0,8.9-17.88c.08-.45.15-.89.22-1.32s.12-1,.17-1.45a36.62,36.62,0,0,0,.18-5.13c0-.65,0-1.26-.09-1.85,0-.2,0-.41,0-.61,0-.4-.1-.8-.15-1.16s-.06-.56-.08-.62A18.17,18.17,0,0,0,47.21,15a19.76,19.76,0,0,1,3.46,3.5s0,0,0,0c.26.35.52.72.77,1.11a23.79,23.79,0,0,1,1.41,2.52.19.19,0,0,1,0,.09,23.39,23.39,0,0,1,2.22,8.27,4,4,0,0,1-1.22,7.81,3.42,3.42,0,0,1-.9-.12l-.15,0a10.38,10.38,0,0,1-.43,1.22,16.09,16.09,0,0,1-3.8,5.76,16.31,16.31,0,0,1-8.45,4.34v2a21.3,21.3,0,0,1,2.49.68A23.43,23.43,0,0,1,57.2,65.73Z"/></g></g></svg>