<svg id="Layer_1" data-name="Layer 1" xmlns="http://www.w3.org/2000/svg" xmlns:xlink="http://www.w3.org/1999/xlink" viewBox="0 0 242.62 242.26"><defs><style>.cls-1{fill:none;}.cls-2{fill:#e5f8fa;}.cls-3{fill:#a1d669;}.cls-4{fill:#fff5e5;}.cls-5{fill:#99c961;}.cls-6{fill:#99bbc5;}.cls-7{fill:#fff;}.cls-8{fill:#00566f;}.cls-9{fill:#006752;}.cls-10{fill:#ffbd4c;}.cls-11{opacity:0.14;}.cls-12{clip-path:url(#clip-path);}.cls-13{fill:#fff8fa;}</style><clipPath id="clip-path"><path class="cls-1" d="M231.15,116.13v9.37a126.35,126.35,0,0,1-61.73,108.3l-4.71,2.79a1.32,1.32,0,0,1-1.3,0l-4.71-2.79A126.35,126.35,0,0,1,97,125.5v-9.37a1.27,1.27,0,0,1,1-1.25,232.39,232.39,0,0,0,33.12-10.82,232,232,0,0,0,32.33-16.42,1.29,1.29,0,0,1,1.34,0,246.24,246.24,0,0,0,32.78,16.44,246,246,0,0,0,32.69,10.82A1.27,1.27,0,0,1,231.15,116.13Z"/></clipPath></defs><title>verifySpot</title><path class="cls-2" d="M16.5,133.58c8.25,5,19.57,6.06,28.88,13,9.63,7.21,16,17.84,23.77,26.78,29.66,33.91,73.65,51.35,118.26,32.41,15.6-6.62,29.91-17.24,39.05-31.53,30.4-47.55,1.64-112.56-37.86-143.21C158.92,8,117.64-.51,81,11.08,39,24.34-.73,69.91,5.63,115.62,7,125.23,11.07,130.27,16.5,133.58Z"/><path class="cls-3" d="M140.48,57.79a29.32,29.32,0,0,1-29.33,29.33,27.29,27.29,0,0,1-3.69-.26l-.16,0-.06.07,0,0-2.47,2.8-3.2,3.65L100,88.78l-1.55-4.6a29.06,29.06,0,0,1-7.05-4.76,29.79,29.79,0,0,1-9.57-21.65,29.31,29.31,0,0,1,39.4-27.54c.24.1.48.18.72.29l.37.16.17.07L123,31h0a29.82,29.82,0,0,1,15.29,15.64A29.28,29.28,0,0,1,140.35,55C140.44,55.92,140.48,56.85,140.48,57.79Z"/><path class="cls-4" d="M108.82,51.43a2.26,2.26,0,1,1-4.35-1.19,2.21,2.21,0,0,1,1.39-1.39A2.27,2.27,0,0,1,108.82,51.43Z"/><path class="cls-4" d="M121.37,53.21a2.26,2.26,0,1,1,1.19-4.35A2.21,2.21,0,0,1,124,50.25,2.27,2.27,0,0,1,121.37,53.21Z"/><path class="cls-5" d="M107.18,86.92l.06,0,0,0Z"/><path class="cls-5" d="M140.48,57.79a29.32,29.32,0,0,1-29.33,29.33,27.29,27.29,0,0,1-3.69-.26,33.68,33.68,0,0,0,24.25-23.51,32.23,32.23,0,0,0,1-10.88A34.13,34.13,0,0,0,130.92,44a32.83,32.83,0,0,0-8.4-13.21L123,31h0a29.82,29.82,0,0,1,15.29,15.64A29.28,29.28,0,0,1,140.35,55C140.44,55.92,140.48,56.85,140.48,57.79Z"/><path class="cls-6" d="M82.89,83.67c-.13,3.46-2,7.19-5.32,8.1-2.59.71-5.34-.48-7.5-2.07s-4-3.6-6.35-4.94-5.41-1.89-7.64-.39a18.51,18.51,0,0,0-2,1.8,9.09,9.09,0,0,1-4.7,2.29c1.79-1.83,2.28-5.16,3.64-7.6,2.2-3.92,9.15-3.4,13.07-5a18.35,18.35,0,0,0,7.79-5.67c1.92-2.54,2.64-5.43,4.85-7.86.86-1,2.69-2.07,3.68-3.34l-.5,2.31a30.83,30.83,0,0,0-.53,12.16C81.91,76.86,83,80.22,82.89,83.67Z"/><path class="cls-7" d="M108.42,59.08c0-.08,0-.16,0-.24H119.9c0,.08,0,.16,0,.24a5.77,5.77,0,1,1-11.49,0Z"/><path class="cls-8" d="M83.06,57.45a1.66,1.66,0,0,1-.5.8L82.4,59c-1,1.28-2.82,2.39-3.68,3.34-2.21,2.43-2.92,5.33-4.85,7.86a18.35,18.35,0,0,1-7.79,5.67c-3.92,1.62-10.87,1.1-13.07,5-1.36,2.43-1.85,5.77-3.64,7.6a4.8,4.8,0,0,1-4.25,1.29c-3.07-.34-5.84-2.25-8.91-2.76-4.83-.82-9.46.4-13.88,2.25-1.41.58-2.63-1.62-1.49-2.57,2.1-1.76,4-3.7,6.28-5.31,3.77-2.7,8.09-4.45,11.71-7.36,4.89-3.93,7.72-8.55,14.38-9.2,3.76-.38,7.93,0,11.61-.89,3-.77,5.44-3.06,7.9-4.89s6.52-4.58,9.62-3.15A1.23,1.23,0,0,1,83.06,57.45Z"/><path class="cls-8" d="M83.06,57.45a.89.89,0,0,1,0,.16A3,3,0,0,1,82.4,59l.15-.73A1.66,1.66,0,0,0,83.06,57.45Z"/><path class="cls-9" d="M130.59,55.93q-6.69.29-13.61.38-9.78.12-19.13-.2c-2.18-.07-3.89-2.56-3.76-5.5a.57.57,0,0,0,0-.1c.14-2.78,1.87-4.92,3.93-4.86q9.43.27,19.23.17c4.57,0,8.7-.15,13-.32a4.87,4.87,0,0,1,4.81,4C135.77,52.66,133.62,55.79,130.59,55.93Z"/><path class="cls-9" d="M97.6,51.59h0c-4.74-.16-9.53-.42-14.25-.75a1,1,0,1,1,.14-2c4.69.33,9.46.59,14.18.75a1,1,0,0,1,0,2Z"/><path class="cls-9" d="M129.48,52a1,1,0,0,1,0-2c3.61-.13,6.66-.28,10.21-.5a1,1,0,1,1,.13,2c-3.57.22-6.64.37-10.27.5Z"/><path class="cls-9" d="M82.24,51.5a1,1,0,0,1-.34-2l.24-.09-1-1.18A1,1,0,0,1,82.78,47l1.86,2.3a1,1,0,0,1-.45,1.61l-1.6.57A1,1,0,0,1,82.24,51.5Z"/><path class="cls-7" d="M109,51.28a2.25,2.25,0,1,1-4.33-1.18A2.2,2.2,0,0,1,106,48.71,2.25,2.25,0,0,1,109,51.28Z"/><path class="cls-7" d="M121.44,53a2.25,2.25,0,1,1,1.18-4.33A2.2,2.2,0,0,1,124,50.1,2.25,2.25,0,0,1,121.44,53Z"/><rect class="cls-10" x="196.85" y="71.27" width="2.74" height="14" rx="1.37" ry="1.37"/><rect class="cls-10" x="196.85" y="71.27" width="2.74" height="14" rx="1.37" ry="1.37" transform="translate(119.95 276.49) rotate(-90)"/><rect class="cls-10" x="65.53" y="121.86" width="3.34" height="17.12" rx="1.67" ry="1.67"/><rect class="cls-10" x="65.53" y="121.86" width="3.34" height="17.12" rx="1.67" ry="1.67" transform="matrix(0, -1, 1, 0, -63.21, 197.62)"/><rect class="cls-10" x="160.41" y="37.1" width="2.14" height="10.95" rx="1.07" ry="1.07"/><rect class="cls-10" x="160.41" y="37.1" width="2.14" height="10.95" rx="1.07" ry="1.07" transform="translate(118.9 204.05) rotate(-90)"/><path class="cls-10" d="M231.15,116.13v9.37a126.35,126.35,0,0,1-61.73,108.3l-4.71,2.79a1.32,1.32,0,0,1-1.3,0l-4.71-2.79A126.35,126.35,0,0,1,97,125.5v-9.37a1.27,1.27,0,0,1,1-1.25,232.39,232.39,0,0,0,33.12-10.82,232,232,0,0,0,32.33-16.42,1.29,1.29,0,0,1,1.34,0,246.24,246.24,0,0,0,32.78,16.44,246,246,0,0,0,32.69,10.82A1.27,1.27,0,0,1,231.15,116.13Z"/><g class="cls-11"><g class="cls-12"><polygon class="cls-13" points="127.98 227.56 99.29 227.56 159.6 70.39 188.28 70.39 127.98 227.56"/><polygon class="cls-13" points="147.7 241.39 133.88 241.39 194.18 84.21 208.01 84.21 147.7 241.39"/></g></g><circle class="cls-7" cx="164.06" cy="156.26" r="20.95"/><path class="cls-8" d="M161.36,163.57a1.51,1.51,0,0,1-1.07-.44l-6.2-6.2a1.51,1.51,0,1,1,2.14-2.14l5.13,5.13,10.52-10.52a1.51,1.51,0,0,1,2.14,2.14l-11.59,11.59A1.51,1.51,0,0,1,161.36,163.57Z"/></svg>