<?xml version="1.0" encoding="UTF-8"?>
<svg width="31px" height="31px" viewBox="0 0 31 31" version="1.1" xmlns="http://www.w3.org/2000/svg" xmlns:xlink="http://www.w3.org/1999/xlink">
    <!-- Generator: Sketch 52.6 (67491) - http://www.bohemiancoding.com/sketch -->
    <title>Group</title>
    <desc>Created with Sketch.</desc>
    <g id="Symbols" stroke="none" stroke-width="1" fill="none" fill-rule="evenodd">
        <g id="icons-/-stroke-icons-/-allergy" transform="translate(-10.000000, -9.000000)" fill="#157EA8" fill-rule="nonzero">
            <g id="Group" transform="translate(9.000000, 9.000000)">
                <path d="M13.7067903,6.20413923 C8.08759094,6.73886438 3.69230769,11.4715301 3.69230769,17.2307692 C3.69230769,23.3483849 8.65161508,28.3076923 14.7692308,28.3076923 C18.63887,28.3076923 22.1417765,26.3054597 24.1383209,23.1445436 C21.5704868,22.4043071 19.6923077,20.0368743 19.6923077,17.2307692 C19.6923077,14.4249881 21.5700532,12.0577779 24.1374317,11.3172512 C23.4876953,10.2903351 22.6718912,9.3745254 21.7247497,8.60936113 C20.856051,9.37893306 19.7133573,9.84615385 18.4615385,9.84615385 C16.1857312,9.84615385 14.2705966,8.30193046 13.7067903,6.20413923 Z M13.682709,3.73527293 C14.2141347,1.59014997 16.1521369,0 18.4615385,0 C21.1804788,0 23.3846154,2.20413662 23.3846154,4.92307692 C23.3846154,5.4977802 23.2861403,6.04948338 23.1051432,6.56223329 C24.6831313,7.79674204 25.9738007,9.36892252 26.8745233,11.162467 C29.783656,11.651876 32,14.1824952 32,17.2307692 C32,20.278978 29.7837509,22.8095541 26.8747102,23.29904 C24.6039191,27.8254142 19.9558035,30.7692308 14.7692308,30.7692308 C7.29214493,30.7692308 1.23076923,24.7078551 1.23076923,17.2307692 C1.23076923,10.1194259 6.7136621,4.28868086 13.682709,3.73527293 Z M9.84615385,20.9230769 C7.80694862,20.9230769 6.15384615,19.2699745 6.15384615,17.2307692 C6.15384615,15.191564 7.80694862,13.5384615 9.84615385,13.5384615 C11.8853591,13.5384615 13.5384615,15.191564 13.5384615,17.2307692 C13.5384615,19.2699745 11.8853591,20.9230769 9.84615385,20.9230769 Z M9.84615385,18.4615385 C10.5258889,18.4615385 11.0769231,17.9105043 11.0769231,17.2307692 C11.0769231,16.5510342 10.5258889,16 9.84615385,16 C9.16641877,16 8.61538462,16.5510342 8.61538462,17.2307692 C8.61538462,17.9105043 9.16641877,18.4615385 9.84615385,18.4615385 Z M25.8461538,20.9230769 C27.8853591,20.9230769 29.5384615,19.2699745 29.5384615,17.2307692 C29.5384615,15.191564 27.8853591,13.5384615 25.8461538,13.5384615 C23.8069486,13.5384615 22.1538462,15.191564 22.1538462,17.2307692 C22.1538462,19.2699745 23.8069486,20.9230769 25.8461538,20.9230769 Z M18.4615385,7.38461538 C19.8210086,7.38461538 20.9230769,6.28254708 20.9230769,4.92307692 C20.9230769,3.56360677 19.8210086,2.46153846 18.4615385,2.46153846 C17.1020683,2.46153846 16,3.56360677 16,4.92307692 C16,6.28254708 17.1020683,7.38461538 18.4615385,7.38461538 Z" id="Combined-Shape"></path>
            </g>
        </g>
    </g>
</svg>