<svg id="Layer_1" data-name="Layer 1" xmlns="http://www.w3.org/2000/svg" viewBox="0 0 60 60"><defs><style>.cls-1{fill:#fff;}.cls-2{fill:#f74a2a;}.cls-3{fill:none;stroke:#333;stroke-linecap:round;stroke-linejoin:round;stroke-width:2px;}</style></defs><title>allegianceIcon</title><ellipse class="cls-1" cx="31" cy="30" rx="26.21" ry="26.03"/><path class="cls-2" d="M8.74,42l.3.55L9.28,42Zm44.12.34.1.21.11-.21Z"/><path class="cls-2" d="M46.66,49.84a25.34,25.34,0,0,1-31.34,0l3.36-7.75,24.7.18Z"/><path class="cls-2" d="M56.3,30a25.23,25.23,0,0,1-3.24,12.39h-.21l-3.79-8.76L36.81,5.33A25.32,25.32,0,0,1,56.3,30Z"/><line class="cls-2" x1="52.95" y1="42.56" x2="52.86" y2="42.35"/><polygon class="cls-2" points="39.59 33.52 22.46 33.39 31 13.69 39.59 33.52"/><path class="cls-2" d="M25.18,5.33,13,33.32,9.28,42H8.74a25.18,25.18,0,0,1-2.83-8.75A24.72,24.72,0,0,1,5.69,30,25.32,25.32,0,0,1,25.18,5.33Z"/><polyline class="cls-2" points="9.04 42.57 9.04 42.56 9.28 42.02"/><path class="cls-3" d="M8.74,42l.3.55L9.28,42Zm44.12.34.1.21.11-.21Z"/><path class="cls-3" d="M46.66,49.84a25.34,25.34,0,0,1-31.34,0l3.36-7.75,24.7.18Z"/><path class="cls-3" d="M56.3,30a25.23,25.23,0,0,1-3.24,12.39h-.21l-3.79-8.76L36.81,5.33A25.32,25.32,0,0,1,56.3,30Z"/><line class="cls-3" x1="52.95" y1="42.56" x2="52.86" y2="42.35"/><polygon class="cls-3" points="39.59 33.52 22.46 33.39 31 13.69 39.59 33.52"/><path class="cls-3" d="M25.18,5.33,13,33.32,9.28,42H8.74a25.18,25.18,0,0,1-2.83-8.75A24.72,24.72,0,0,1,5.69,30,25.32,25.32,0,0,1,25.18,5.33Z"/><polyline class="cls-3" points="9.04 42.57 9.04 42.56 9.28 42.02"/></svg>