<?xml version="1.0" encoding="UTF-8"?>
<svg width="70px" height="64px" viewBox="0 0 70 64" version="1.1" xmlns="http://www.w3.org/2000/svg" xmlns:xlink="http://www.w3.org/1999/xlink">
    <!-- Generator: Sketch 51.2 (57519) - http://www.bohemiancoding.com/sketch -->
    <title>Icon / 70 x 64 / Family</title>
    <desc>Created with Sketch.</desc>
    <defs></defs>
    <g id="Icon-/-70-x-64-/-Family" stroke="none" stroke-width="1" fill="none" fill-rule="evenodd">
        <g id="kids" transform="translate(0.000000, 7.000000)" fill-rule="nonzero">
            <path d="M34.9054054,4.35135135 C29.8918919,4.35135135 25.7297297,8.41891892 25.7297297,13.527027 C25.7297297,18.5405405 29.7972973,22.7027027 34.9054054,22.7027027 C39.9189189,22.7027027 44.0810811,18.6351351 44.0810811,13.527027 C44.0810811,8.41891892 40.0135135,4.35135135 34.9054054,4.35135135" id="Shape" fill="#D8B87F"></path>
            <circle id="Oval" fill="#FFF5E5" cx="58.0810811" cy="25.6351351" r="8.22972973"></circle>
            <path d="M4.16216216,19.9594595 C3.40540541,19.5810811 2.83783784,19.6756757 2.64864865,19.7702703 C0.945945946,20.3378378 0.851351351,23.7432432 1.13513514,25.1621622 C1.13513514,25.2567568 1.32432432,26.2027027 1.89189189,26.8648649 C2.17567568,27.2432432 2.45945946,27.4324324 2.64864865,27.527027 C2.83783784,27.6216216 3.02702703,27.7162162 3.21621622,27.7162162 C4.06756757,27.8108108 5.01351351,27.9054054 5.67567568,27.4324324 C6.05405405,27.1486486 6.33783784,26.6756757 6.62162162,26.2972973 C7,25.7297297 7.47297297,24.8783784 8.04054054,23.9324324" id="Shape" fill="#B25828"></path>
            <polygon id="Shape" fill="#D8B87F" points="45.4054054 32.6351351 42.8513514 34.9054054 35.472973 36.0405405 27.0540541 34.6216216 24.4054054 32.6351351 25.8243243 28.6621622 28.9459459 25.4459459 32.9189189 23.8378378 33.1081081 22.2297297 36.7972973 22.2297297 37.1756757 23.8378378 41.0540541 25.7297297 44.6486486 29.3243243"></polygon>
            <path d="M21.6621622,42.7567568 C22.1351351,43.9864865 21.5675676,45.5 20.3378378,46.0675676 C17.8783784,47.1081081 14.7567568,47.6756757 11.3513514,47.6756757 C7.94594595,47.6756757 4.72972973,47.0135135 2.36486486,46.0675676 C1.13513514,45.5 0.472972973,44.0810811 1.04054054,42.7567568 C2.74324324,38.6891892 6.71621622,35.7567568 11.4459459,35.7567568 C15.9864865,35.6621622 19.9594595,38.5945946 21.6621622,42.7567568 Z" id="Shape" fill="#9DDE6E"></path>
            <path d="M68.4864865,42.472973 C68.9594595,43.7027027 68.3918919,45.2162162 67.1621622,45.7837838 C64.7027027,46.8243243 61.5810811,47.3918919 58.1756757,47.3918919 C54.7702703,47.3918919 51.5540541,46.7297297 49.1891892,45.7837838 C47.9594595,45.2162162 47.2972973,43.7972973 47.8648649,42.472973 C49.5675676,38.4054054 53.5405405,35.472973 58.2702703,35.472973 C62.8108108,35.472973 66.7837838,38.4054054 68.4864865,42.472973 Z" id="Shape" fill="#F6EA83"></path>
            <circle id="Oval" fill="#F6EA83" cx="64.4189189" cy="17.027027" r="3.21621622"></circle>
            <path d="M64.4189189,20.9054054 C62.2432432,20.9054054 60.5405405,19.1081081 60.5405405,17.027027 C60.5405405,14.9459459 62.3378378,13.1486486 64.4189189,13.1486486 C66.5,13.1486486 68.2972973,14.9459459 68.2972973,17.027027 C68.2972973,19.1081081 66.5945946,20.9054054 64.4189189,20.9054054 Z M64.4189189,14.5675676 C63,14.5675676 61.9594595,15.7027027 61.9594595,17.027027 C61.9594595,18.3513514 63.0945946,19.4864865 64.4189189,19.4864865 C65.7432432,19.4864865 66.8783784,18.3513514 66.8783784,17.027027 C66.8783784,15.7027027 65.7432432,14.5675676 64.4189189,14.5675676 Z" id="Shape" fill="#333333"></path>
            <path d="M58.0810811,48.1486486 C54.6756757,48.1486486 51.3648649,47.5810811 48.8108108,46.4459459 C47.2027027,45.7837838 46.4459459,43.8918919 47.1081081,42.2837838 C48.9054054,37.7432432 53.2567568,34.8108108 58.1756757,34.8108108 C63.0945946,34.8108108 67.4459459,37.7432432 69.2432432,42.2837838 C69.9054054,43.8918919 69.1486486,45.7837838 67.5405405,46.4459459 C64.7972973,47.4864865 61.4864865,48.1486486 58.0810811,48.1486486 Z M58.0810811,36.1351351 C53.7297297,36.1351351 49.9459459,38.6891892 48.3378378,42.6621622 C47.9594595,43.6081081 48.4324324,44.6486486 49.2837838,45.027027 C51.7432432,46.0675676 54.7702703,46.6351351 58.0810811,46.6351351 C61.2972973,46.6351351 64.4189189,46.0675676 66.8783784,45.027027 C67.8243243,44.6486486 68.2027027,43.6081081 67.8243243,42.6621622 C66.2162162,38.7837838 62.3378378,36.1351351 58.0810811,36.1351351 Z" id="Shape" fill="#333333"></path>
            <path d="M59.972973,33.7702703 L59.972973,36.8918919 C59.972973,37.9324324 59.1216216,38.7837838 58.0810811,38.7837838 C57.0405405,38.7837838 56.1891892,37.9324324 56.1891892,36.8918919 L56.1891892,33.7702703" id="Shape" fill="#FFF5E5"></path>
            <path d="M58.0810811,39.4459459 C56.6621622,39.4459459 55.527027,38.3108108 55.527027,36.8918919 L55.527027,33.7702703 C55.527027,33.3918919 55.8108108,33.0135135 56.2837838,33.0135135 C56.7567568,33.0135135 57.0405405,33.2972973 57.0405405,33.7702703 L57.0405405,36.8918919 C57.0405405,37.5540541 57.6081081,38.027027 58.1756757,38.027027 C58.7432432,38.027027 59.3108108,37.4594595 59.3108108,36.8918919 L59.3108108,33.7702703 C59.3108108,33.3918919 59.5945946,33.0135135 60.0675676,33.0135135 C60.5405405,33.0135135 60.7297297,33.2972973 60.7297297,33.7702703 L60.7297297,36.8918919 C60.6351351,38.3108108 59.5,39.4459459 58.0810811,39.4459459 Z" id="Shape" fill="#333333"></path>
            <path d="M57.9864865,34.527027 C57.6081081,34.527027 57.3243243,34.527027 56.9459459,34.527027 C52.5945946,34.4324324 49,30.8378378 48.8108108,26.4864865 L48.8108108,25.9189189 C48.8108108,25.4459459 48.8108108,25.1621622 48.8108108,24.972973 C48.9054054,20.0540541 52.8783784,16.0810811 57.7972973,16.0810811 L58.2702703,16.0810811 L58.3648649,16.8378378 L58.3648649,16.0810811 C63.3783784,16.1756757 67.3513514,20.2432432 67.2567568,25.2567568 C67.2567568,25.8243243 67.2567568,26.2972973 67.1621622,26.7702703 C66.8783784,31.027027 63.472973,34.4324324 59.1216216,34.6216216 C58.7432432,34.6216216 58.3648649,34.6216216 57.9864865,34.6216216 C58.0810811,34.527027 57.9864865,34.527027 57.9864865,34.527027 Z M57.7972973,17.4054054 C53.6351351,17.4054054 50.2297297,20.8108108 50.2297297,24.8783784 C50.2297297,25.0675676 50.2297297,25.3513514 50.2297297,25.8243243 L50.2297297,26.3918919 C50.3243243,29.9864865 53.3513514,32.9189189 56.9459459,33.1081081 C57.3243243,33.1081081 57.7027027,33.1081081 58.0810811,33.1081081 C58.4594595,33.1081081 58.8378378,33.1081081 59.2162162,33.1081081 C62.8108108,33.0135135 65.6486486,30.1756757 65.8378378,26.6756757 C65.8378378,26.6756757 65.8378378,26.6756757 65.8378378,26.6756757 C65.8378378,26.2027027 65.8378378,25.7297297 65.8378378,25.2567568 C65.8378378,21 62.527027,17.5 58.2702703,17.5 L58.0810811,17.5 L57.7972973,17.4054054 Z" id="Shape" fill="#333333"></path>
            <path d="M67.3513514,24.972973 C65.8378378,24.7837838 64.9864865,24.3108108 64.4189189,23.8378378 C63.5675676,23.0810811 62.7162162,21.6621622 62.7162162,21.6621622 C61.7702703,22.3243243 60.6351351,23.0810811 59.2162162,23.6486486 C54.8648649,25.5405405 50.7972973,25.2567568 48.6216216,24.972973 L48.6216216,24.8783784 C48.7162162,19.9594595 52.6891892,15.9864865 57.7027027,15.9864865 C57.8918919,15.9864865 58.0810811,15.9864865 58.1756757,15.9864865 L58.3648649,15.9864865 C63.3783784,15.9864865 67.3513514,20.0540541 67.3513514,24.972973 Z" id="Shape" fill="#F6EA83"></path>
            <path d="M11.2567568,48.3378378 C7.85135135,48.3378378 4.54054054,47.7702703 1.98648649,46.6351351 C0.378378378,45.972973 -0.378378378,44.0810811 0.283783784,42.472973 C2.08108108,37.9324324 6.33783784,35 11.2567568,35 C16.1756757,35 20.527027,37.9324324 22.3243243,42.472973 C22.9864865,44.0810811 22.2297297,45.972973 20.6216216,46.6351351 C17.972973,47.7702703 14.6621622,48.3378378 11.2567568,48.3378378 Z M11.2567568,36.4189189 C6.90540541,36.4189189 3.12162162,38.972973 1.51351351,42.9459459 C1.13513514,43.8918919 1.60810811,44.9324324 2.45945946,45.3108108 C4.91891892,46.3513514 7.94594595,46.9189189 11.2567568,46.9189189 C14.472973,46.9189189 17.5945946,46.3513514 20.0540541,45.3108108 C21,44.9324324 21.3783784,43.8918919 21,42.9459459 C19.3918919,38.972973 15.6081081,36.4189189 11.2567568,36.4189189 Z" id="Shape" fill="#333333"></path>
            <path d="M11.2567568,48.3378378 C7.85135135,48.3378378 4.54054054,47.7702703 1.98648649,46.6351351 C0.378378378,45.972973 -0.378378378,44.0810811 0.283783784,42.472973 C2.08108108,37.9324324 6.33783784,35 11.2567568,35 C16.1756757,35 20.527027,37.9324324 22.3243243,42.472973 C22.9864865,44.0810811 22.2297297,45.972973 20.6216216,46.6351351 C17.972973,47.7702703 14.6621622,48.3378378 11.2567568,48.3378378 Z M11.2567568,36.4189189 C6.90540541,36.4189189 3.12162162,38.972973 1.51351351,42.9459459 C1.13513514,43.8918919 1.60810811,44.9324324 2.45945946,45.3108108 C4.91891892,46.3513514 7.94594595,46.9189189 11.2567568,46.9189189 C14.472973,46.9189189 17.5945946,46.3513514 20.0540541,45.3108108 C21,44.9324324 21.3783784,43.8918919 21,42.9459459 C19.3918919,38.972973 15.6081081,36.4189189 11.2567568,36.4189189 Z" id="Shape" fill="#333333"></path>
            <path d="M13.1486486,34.0540541 L13.1486486,37.1756757 C13.1486486,38.2162162 12.2972973,39.0675676 11.2567568,39.0675676 C10.2162162,39.0675676 9.36486486,38.2162162 9.36486486,37.1756757 L9.36486486,34.0540541" id="Shape" fill="#D8AB93"></path>
            <path d="M11.2567568,39.6351351 C9.83783784,39.6351351 8.7027027,38.5 8.7027027,37.0810811 L8.7027027,34.0540541 C8.7027027,33.6756757 8.98648649,33.2972973 9.45945946,33.2972973 C9.93243243,33.2972973 10.2162162,33.5810811 10.2162162,34.0540541 L10.2162162,37.1756757 C10.2162162,37.8378378 10.7837838,38.3108108 11.3513514,38.3108108 C11.9189189,38.3108108 12.4864865,37.7432432 12.4864865,37.1756757 L12.4864865,34.0540541 C12.4864865,33.6756757 12.7702703,33.2972973 13.2432432,33.2972973 C13.7162162,33.2972973 14,33.5810811 14,34.0540541 L14,37.1756757 C13.9054054,38.5 12.6756757,39.6351351 11.2567568,39.6351351 Z" id="Shape" fill="#333333"></path>
            <path d="M4.06756757,28.5675676 C3.68918919,28.5675676 3.31081081,28.5675676 2.93243243,28.472973 C2.64864865,28.472973 2.36486486,28.3783784 2.17567568,28.1891892 C1.7972973,28 1.51351351,27.7162162 1.22972973,27.3378378 C0.567567568,26.4864865 0.378378378,25.5405405 0.378378378,25.2567568 C0.0945945946,23.9324324 2.77555756e-17,19.8648649 2.36486486,19.1081081 C2.93243243,18.9189189 3.68918919,19.0135135 4.44594595,19.2972973 C4.82432432,19.4864865 4.91891892,19.8648649 4.82432432,20.2432432 C4.72972973,20.6216216 4.25675676,20.7162162 3.87837838,20.6216216 C3.59459459,20.527027 3.21621622,20.3378378 2.83783784,20.4324324 C1.7972973,20.8108108 1.51351351,23.4594595 1.7972973,25.0675676 C1.7972973,25.1621622 1.98648649,25.9189189 2.36486486,26.4864865 C2.55405405,26.6756757 2.64864865,26.8648649 2.83783784,26.9594595 C2.93243243,27.0540541 3.02702703,27.0540541 3.21621622,27.0540541 C3.87837838,27.1486486 4.63513514,27.2432432 5.10810811,26.8648649 C5.2972973,26.6756757 5.48648649,26.3918919 5.67567568,26.1081081 C5.77027027,26.0135135 5.77027027,25.9189189 5.86486486,25.8243243 C6.24324324,25.2567568 6.71621622,24.5 7.28378378,23.5540541 L8.51351351,24.3108108 C7.94594595,25.2567568 7.47297297,26.1081081 7,26.7702703 L6.81081081,27.0540541 C6.52702703,27.4324324 6.33783784,27.8108108 5.86486486,28.0945946 C5.39189189,28.472973 4.72972973,28.5675676 4.06756757,28.5675676 Z" id="Shape" fill="#333333"></path>
            <path d="M11.1621622,16.9324324 C10.8783784,16.9324324 10.5,16.9324324 10.2162162,16.9324324 C6.14864865,17.027027 2.83783784,20.2432432 2.74324324,24.3108108 C2.74324324,25.1621622 2.74324324,25.2567568 2.74324324,26.1081081 C2.74324324,26.2972973 2.74324324,26.4864865 2.74324324,26.6756757 C2.93243243,30.7432432 6.14864865,33.9594595 10.1216216,34.0540541 C10.4054054,34.0540541 10.7837838,34.0540541 11.1621622,34.0540541 C11.2567568,34.0540541 11.2567568,34.0540541 11.3513514,34.0540541 C11.7297297,34.0540541 12.1081081,34.0540541 12.4864865,34.0540541 C16.3648649,33.9594595 19.5810811,30.8378378 19.8648649,26.8648649 C19.8648649,26.3918919 19.8648649,25.9189189 19.8648649,25.4459459 C19.8648649,24.7837838 19.8648649,24.8783784 19.8648649,24.2162162 C19.6756757,20.2432432 16.4594595,17.027027 12.5810811,16.9324324 C12.2027027,16.9324324 11.9189189,16.9324324 11.5405405,16.9324324 C11.3513514,16.9324324 11.2567568,16.9324324 11.1621622,16.9324324" id="Shape" fill="#D8AB93"></path>
            <path d="M11.1621622,34.7162162 C10.7837838,34.7162162 10.5,34.7162162 10.1216216,34.7162162 C5.77027027,34.6216216 2.17567568,31.027027 1.98648649,26.6756757 L1.98648649,26.1081081 C1.98648649,25.2567568 1.98648649,25.1621622 1.98648649,24.4054054 L1.98648649,24.3108108 C2.17567568,19.9594595 5.77027027,16.4594595 10.1216216,16.2702703 C10.5945946,16.2702703 10.972973,16.2702703 11.4459459,16.2702703 C11.8243243,16.2702703 12.1081081,16.2702703 12.4864865,16.2702703 C16.7432432,16.3648649 20.2432432,19.8648649 20.527027,24.2162162 L20.527027,24.5945946 C20.527027,24.8783784 20.527027,24.972973 20.527027,25.4459459 C20.527027,25.9189189 20.527027,26.3918919 20.4324324,26.8648649 C20.1486486,31.1216216 16.7432432,34.527027 12.3918919,34.7162162 C12.0135135,34.7162162 11.6351351,34.7162162 11.2567568,34.7162162 C11.2567568,34.7162162 11.1621622,34.7162162 11.1621622,34.7162162 Z M11.1621622,17.6891892 C10.7837838,17.6891892 10.5,17.6891892 10.2162162,17.6891892 C6.52702703,17.7837838 3.59459459,20.7162162 3.40540541,24.3108108 L3.40540541,24.4054054 C3.40540541,25.0675676 3.40540541,25.2567568 3.40540541,26.0135135 L3.40540541,26.5810811 C3.5,30.2702703 6.52702703,33.1081081 10.1216216,33.2972973 C10.5,33.2972973 10.8783784,33.2972973 11.2567568,33.2972973 C11.6351351,33.2972973 12.0135135,33.2972973 12.3918919,33.2972973 C15.9864865,33.2027027 18.8243243,30.3648649 19.0135135,26.8648649 C19.0135135,26.3918919 19.0135135,25.9189189 19.0135135,25.4459459 C19.0135135,24.972973 19.0135135,24.8783784 19.0135135,24.6891892 L19.0135135,24.3108108 C18.8243243,20.7162162 15.8918919,17.7837838 12.3918919,17.6891892 C12.1081081,17.6891892 11.7297297,17.6891892 11.3513514,17.6891892 C11.3513514,17.6891892 11.2567568,17.6891892 11.1621622,17.6891892 Z" id="Shape" fill="#333333"></path>
            <path d="M5.67567568,22.5135135 C5.67567568,22.5135135 5.77027027,22.5135135 5.77027027,22.6081081 C7.18918919,23.3648649 8.7027027,23.8378378 10.2162162,24.027027 C10.6891892,24.1216216 12.9594595,24.2162162 12.9594595,24.2162162 C12.9594595,24.2162162 13.4324324,23.3648649 13.7162162,22.9864865 C14,23.2702703 14.3783784,23.6486486 14.8513514,24.027027 C15.4189189,24.4054054 15.8918919,24.6891892 16.2702703,24.7837838 L17.2162162,24.027027 C17.5,24.3108108 18.0675676,24.5945946 18.7297297,24.8783784 C19.4864865,25.0675676 20.0540541,25.1621622 20.4324324,25.1621622 C20.3378378,24.5 19.9594595,19.2972973 15.6081081,16.3648649 C12.7702703,14.472973 8.89189189,13.9054054 5.77027027,15.6081081 C4.54054054,16.3648649 3.12162162,17.5 3.02702703,19.0135135 C3.12162162,20.6216216 4.35135135,21.7567568 5.67567568,22.5135135 Z" id="Shape" fill="#B25828"></path>
            <path d="M20.3378378,25.7297297 C19.7702703,25.7297297 19.2027027,25.6351351 18.6351351,25.4459459 C18.1621622,25.2567568 17.6891892,25.0675676 17.3108108,24.7837838 L16.7432432,25.2567568 C16.5540541,25.4459459 16.2702703,25.4459459 15.9864865,25.3513514 C15.4189189,25.1621622 14.8513514,24.7837838 14.3783784,24.5 C14.1891892,24.3108108 14,24.2162162 13.8108108,24.027027 L13.527027,24.5 C13.4324324,24.6891892 13.1486486,24.8783784 12.8648649,24.8783784 C12.7702703,24.8783784 10.5945946,24.7837838 10.1216216,24.6891892 C8.51351351,24.5 6.81081081,23.9324324 5.39189189,23.1756757 L5.2972973,23.0810811 C3.40540541,22.0405405 2.36486486,20.527027 2.45945946,18.9189189 C2.55405405,16.9324324 4.44594595,15.5135135 5.58108108,14.9459459 C8.7027027,13.1486486 12.7702703,13.4324324 16.1756757,15.7027027 C20.6216216,18.7297297 21.1891892,23.9324324 21.2837838,24.972973 C21.2837838,25.1621622 21.1891892,25.3513514 21.0945946,25.5405405 C21,25.7297297 20.8108108,25.7297297 20.6216216,25.7297297 C20.527027,25.7297297 20.4324324,25.7297297 20.3378378,25.7297297 Z M17.2162162,23.2702703 C17.4054054,23.2702703 17.5,23.3648649 17.6891892,23.4594595 C18.0675676,23.7432432 18.5405405,24.027027 19.0135135,24.2162162 C19.2027027,24.3108108 19.4864865,24.3108108 19.7702703,24.4054054 C19.4864865,22.7027027 18.6351351,19.1081081 15.4189189,17.027027 C12.4864865,15.0405405 8.98648649,14.8513514 6.33783784,16.3648649 C5.67567568,16.7432432 3.97297297,17.8783784 3.87837838,19.2027027 C3.78378378,20.527027 5.2027027,21.5675676 5.95945946,22.0405405 L6.05405405,22.1351351 C7.37837838,22.7972973 8.7972973,23.2702703 10.3108108,23.4594595 C10.5945946,23.4594595 11.8243243,23.5540541 12.5810811,23.6486486 L13.0540541,22.7972973 C13.1486486,22.6081081 13.3378378,22.5135135 13.6216216,22.4189189 C13.8108108,22.4189189 14.0945946,22.5135135 14.1891892,22.6081081 C14.472973,22.9864865 14.8513514,23.2702703 15.2297297,23.5540541 C15.5135135,23.7432432 15.7972973,23.9324324 16.1756757,24.1216216 L16.8378378,23.6486486 C16.9324324,23.2702703 17.1216216,23.2702703 17.2162162,23.2702703 Z" id="Shape" fill="#333333"></path>
            <path d="M13.0540541,30.0810811 C13.0540541,30.0810811 13.0540541,30.0810811 13.0540541,30.0810811 C13.0540541,31.1216216 12.2972973,31.972973 11.2567568,31.972973 C10.3108108,31.972973 9.45945946,31.1216216 9.45945946,30.1756757 C9.45945946,30.1756757 9.45945946,30.1756757 9.45945946,30.0810811 C9.45945946,30.0810811 9.45945946,30.0810811 9.45945946,30.0810811 C9.45945946,29.9864865 9.45945946,29.9864865 9.55405405,29.9864865 L12.9594595,29.9864865 C13.0540541,29.8918919 13.0540541,29.9864865 13.0540541,30.0810811 Z" id="Shape" fill="#333333"></path>
            <path d="M7.75675676,27.527027 C7.75675676,27.9054054 7.37837838,28.2837838 7,28.2837838 C6.62162162,28.2837838 6.24324324,27.9054054 6.24324324,27.527027 C6.24324324,27.1486486 6.62162162,26.7702703 7,26.7702703 C7.37837838,26.7702703 7.75675676,27.1486486 7.75675676,27.527027 Z" id="Shape" fill="#333333"></path>
            <path d="M16.3648649,27.527027 C16.3648649,27.9054054 15.9864865,28.2837838 15.6081081,28.2837838 C15.2297297,28.2837838 14.8513514,27.9054054 14.8513514,27.527027 C14.8513514,27.1486486 15.2297297,26.7702703 15.6081081,26.7702703 C15.9864865,26.7702703 16.3648649,27.1486486 16.3648649,27.527027 Z" id="Shape" fill="#333333"></path>
            <path d="M59.8783784,30.1756757 C59.8783784,30.1756757 59.8783784,30.2702703 59.8783784,30.1756757 C59.8783784,31.2162162 59.1216216,32.0675676 58.0810811,32.0675676 C57.1351351,32.0675676 56.2837838,31.2162162 56.2837838,30.2702703 C56.2837838,30.2702703 56.2837838,30.2702703 56.2837838,30.1756757 C56.2837838,30.1756757 56.2837838,30.1756757 56.2837838,30.1756757 C56.2837838,30.0810811 56.2837838,30.0810811 56.3783784,30.0810811 L59.7837838,30.0810811 C59.7837838,30.0810811 59.8783784,30.0810811 59.8783784,30.1756757 Z" id="Shape" fill="#333333"></path>
            <path d="M54.5810811,27.7162162 C54.5810811,28.0945946 54.2027027,28.472973 53.8243243,28.472973 C53.4459459,28.472973 53.0675676,28.0945946 53.0675676,27.7162162 C53.0675676,27.3378378 53.4459459,26.9594595 53.8243243,26.9594595 C54.2027027,26.9594595 54.5810811,27.3378378 54.5810811,27.7162162 Z" id="Shape" fill="#333333"></path>
            <path d="M63.0945946,27.7162162 C63.0945946,28.0945946 62.7162162,28.472973 62.3378378,28.472973 C61.9594595,28.472973 61.5810811,28.0945946 61.5810811,27.7162162 C61.5810811,27.3378378 61.9594595,26.9594595 62.3378378,26.9594595 C62.8108108,26.9594595 63.0945946,27.3378378 63.0945946,27.7162162 Z" id="Shape" fill="#333333"></path>
            <path d="M51.8378378,25.9189189 C50.7972973,25.9189189 49.6621622,25.8243243 48.6216216,25.6351351 C48.2432432,25.5405405 48.0540541,25.2567568 48.0540541,24.972973 C48.0540541,24.972973 48.0540541,24.8783784 48.0540541,24.8783784 C48.1486486,19.5810811 52.5,15.3243243 57.7972973,15.2297297 C57.9864865,15.2297297 58.1756757,15.2297297 58.3648649,15.2297297 L58.5540541,15.2297297 C63.7567568,15.3243243 68.1081081,19.6756757 68.1081081,24.972973 C68.1081081,25.1621622 68.0135135,25.3513514 67.9189189,25.5405405 C67.8243243,25.7297297 67.5405405,25.7297297 67.3513514,25.7297297 C66.027027,25.5405405 64.8918919,25.1621622 64.0405405,24.4054054 C63.472973,23.9324324 63,23.2702703 62.6216216,22.7027027 C61.6756757,23.3648649 60.6351351,23.9324324 59.5945946,24.4054054 C57.2297297,25.3513514 54.5810811,25.9189189 51.8378378,25.9189189 Z M49.472973,24.3108108 C51.9324324,24.5945946 55.4324324,24.5945946 59.1216216,22.9864865 C60.2567568,22.5135135 61.3918919,21.8513514 62.4324324,21 C62.6216216,20.9054054 62.8108108,20.8108108 63,20.9054054 C63.1891892,20.9054054 63.3783784,21.0945946 63.472973,21.1891892 C63.472973,21.1891892 64.3243243,22.5135135 65.0810811,23.1756757 C65.5540541,23.5540541 66.027027,23.8378378 66.7837838,24.027027 C66.3108108,19.8648649 62.8108108,16.6486486 58.5540541,16.5540541 L58.3648649,16.5540541 C58.1756757,16.5540541 57.9864865,16.5540541 57.8918919,16.5540541 C53.4459459,16.6486486 49.8513514,20.0540541 49.472973,24.3108108 Z" id="Shape" fill="#333333"></path>
            <path d="M42.6621622,26.2972973 L42.6621622,35.2837838 C42.472973,35.3783784 42.2837838,35.3783784 42.0945946,35.472973 C42.0945946,35.472973 42,35.472973 41.9054054,35.472973 C39.8243243,36.0405405 37.3648649,36.3243243 34.9054054,36.3243243 C32.2567568,36.3243243 29.7027027,35.9459459 27.4324324,35.2837838 L27.4324324,26.0135135 C28.2837838,25.3513514 29.1351351,24.8783784 30.0810811,24.4054054 C30.0810811,24.4054054 30.0810811,24.4054054 30.0810811,24.4054054 C30.1756757,24.4054054 30.1756757,24.3108108 30.2702703,24.3108108 C30.4594595,24.2162162 30.7432432,24.1216216 30.9324324,24.027027 C31.027027,24.2162162 31.1216216,24.4054054 31.2162162,24.5945946 C31.5,25.1621622 31.972973,25.7297297 32.5405405,26.1081081 C32.6351351,26.2027027 32.7297297,26.2027027 32.8243243,26.2972973 C32.9189189,26.3918919 33.1081081,26.3918919 33.2027027,26.4864865 C33.2972973,26.5810811 33.4864865,26.5810811 33.5810811,26.6756757 C33.6756757,26.6756757 33.8648649,26.7702703 33.9594595,26.7702703 C34.2432432,26.8648649 34.527027,26.8648649 34.8108108,26.8648649 C35.1891892,26.8648649 35.472973,26.8648649 35.7567568,26.7702703 C35.8513514,26.7702703 35.9459459,26.6756757 36.0405405,26.6756757 C36.2297297,26.5810811 36.5135135,26.4864865 36.7027027,26.3918919 C36.7972973,26.2972973 36.8918919,26.2972973 36.9864865,26.2027027 C37.0810811,26.1081081 37.1756757,26.1081081 37.2702703,26.0135135 C37.3648649,25.9189189 37.4594595,25.9189189 37.5540541,25.8243243 C37.8378378,25.6351351 38.027027,25.3513514 38.2162162,25.0675676 C38.2162162,25.0675676 38.2162162,24.972973 38.3108108,24.972973 C38.4054054,24.8783784 38.4054054,24.7837838 38.5,24.6891892 C38.5,24.6891892 38.5,24.6891892 38.5,24.6891892 C38.5945946,24.5 38.6891892,24.2162162 38.7837838,24.027027 C38.972973,24.1216216 39.2567568,24.2162162 39.4459459,24.3108108 C39.5405405,24.3108108 39.5405405,24.3108108 39.6351351,24.4054054 C40.4864865,24.7837838 41.3378378,25.2567568 42.0945946,25.8243243 C42.1891892,25.8243243 42.1891892,25.9189189 42.2837838,25.9189189 C42.472973,26.2027027 42.5675676,26.2972973 42.6621622,26.2972973 Z" id="Shape" fill="#00BCD3"></path>
            <g id="Group" transform="translate(22.702703, 0.945946)" fill="#333333">
                <path d="M12.2027027,19.6756757 C13.2432432,19.6756757 14.0945946,18.8243243 14.0945946,17.7837838 L14.0945946,17.6891892 C14.0945946,17.5945946 14,17.5945946 14,17.5945946 L10.5,17.5945946 C10.4054054,17.5945946 10.4054054,17.6891892 10.4054054,17.6891892 C10.4054054,17.6891892 10.4054054,17.6891892 10.4054054,17.7837838 C10.4054054,18.8243243 11.2567568,19.6756757 12.2027027,19.6756757 Z" id="Shape"></path>
                <circle id="Oval" cx="7.85135135" cy="14.3783784" r="1"></circle>
                <circle id="Oval" cx="16.6486486" cy="14.3783784" r="1"></circle>
                <path d="M6.90540541,25.1621622 C7.09459459,25.0675676 7.28378378,24.972973 7.47297297,24.8783784 C8.51351351,26.4864865 10.3108108,27.4324324 12.2027027,27.4324324 C14.0945946,27.4324324 15.8918919,26.4864865 16.9324324,24.972973 C17.5,25.2567568 17.972973,25.5405405 18.4459459,25.9189189 L18.4459459,33.4864865 C16.5540541,33.9594595 14.3783784,34.2432432 12.2027027,34.2432432 C10.1216216,34.2432432 8.04054054,33.9594595 6.14864865,33.5810811 L6.14864865,25.8243243 C6.33783784,25.7297297 6.52702703,25.5405405 6.71621622,25.4459459 C6.81081081,25.2567568 6.90540541,25.2567568 6.90540541,25.1621622 Z M4.44594595,12.7702703 C5.39189189,12.3918919 5.95945946,11.2567568 5.95945946,9.93243243 C6.90540541,9.83783784 7.85135135,9.64864865 8.7027027,9.27027027 C9.55405405,8.89189189 10.3108108,8.32432432 10.8783784,7.66216216 C11.9189189,8.22972973 13.1486486,8.13513514 13.9054054,7.47297297 C14.0945946,7.28378378 14.2837838,7.09459459 14.472973,6.81081081 C15.3243243,7.37837838 16.2702703,7.56756757 17.1216216,7.37837838 C17.7837838,7.28378378 18.4459459,7.09459459 18.8243243,6.71621622 C19.7702703,7.94594595 20.3378378,9.36486486 20.4324324,10.972973 C20.4324324,11.0675676 20.4324324,11.1621622 20.4324324,11.1621622 C20.4324324,11.2567568 20.4324324,11.3513514 20.4324324,11.3513514 C20.4324324,11.5405405 20.4324324,11.6351351 20.4324324,12.1081081 L20.4324324,12.2972973 C20.4324324,12.6756757 20.4324324,13.1486486 20.4324324,13.527027 C20.2432432,17.3108108 17.2162162,20.2432432 13.4324324,20.3378378 C13.0540541,20.3378378 12.6756757,20.3378378 12.2972973,20.3378378 C11.9189189,20.3378378 11.5405405,20.3378378 11.0675676,20.3378378 C7.28378378,20.2432432 4.16216216,17.1216216 3.97297297,13.3378378 C3.97297297,13.1486486 3.97297297,12.9594595 3.97297297,12.7702703 C4.16216216,12.8648649 4.25675676,12.8648649 4.44594595,12.7702703 Z M10.5,23.8378378 C10.5945946,23.8378378 10.5945946,23.8378378 10.5,23.8378378 C10.5945946,23.8378378 10.5945946,23.8378378 10.6891892,23.7432432 C10.6891892,23.7432432 10.7837838,23.7432432 10.7837838,23.6486486 C10.7837838,23.6486486 10.8783784,23.5540541 10.8783784,23.5540541 C10.8783784,23.5540541 10.972973,23.4594595 10.972973,23.4594595 C10.972973,23.4594595 10.972973,23.3648649 11.0675676,23.3648649 C11.0675676,23.2702703 11.0675676,23.2702703 11.0675676,23.1756757 C11.0675676,23.1756757 11.0675676,23.1756757 11.0675676,23.1756757 C11.0675676,23.1756757 11.0675676,23.1756757 11.0675676,23.0810811 L11.0675676,21.5675676 C11.4459459,21.5675676 11.7297297,21.5675676 12.1081081,21.5675676 L12.2972973,21.5675676 C12.6756757,21.5675676 12.9594595,21.5675676 13.3378378,21.5675676 L13.4324324,21.5675676 L13.4324324,23.0810811 C13.4324324,23.0810811 13.4324324,23.0810811 13.4324324,23.0810811 C13.4324324,23.0810811 13.4324324,23.0810811 13.4324324,23.0810811 C13.4324324,23.1756757 13.4324324,23.1756757 13.4324324,23.2702703 C13.4324324,23.2702703 13.4324324,23.3648649 13.527027,23.3648649 C13.527027,23.4594595 13.6216216,23.4594595 13.6216216,23.4594595 C13.6216216,23.4594595 13.7162162,23.5540541 13.7162162,23.5540541 C13.7162162,23.5540541 13.8108108,23.6486486 13.8108108,23.6486486 C13.8108108,23.6486486 13.9054054,23.6486486 13.9054054,23.7432432 C13.9054054,23.7432432 13.9054054,23.7432432 13.9054054,23.7432432 C13.9054054,23.7432432 13.9054054,23.7432432 14,23.7432432 C14.472973,23.8378378 15.0405405,23.9324324 15.6081081,24.2162162 C14.7567568,25.2567568 13.527027,25.8243243 12.2027027,25.8243243 C10.8783784,25.8243243 9.64864865,25.2567568 8.7972973,24.2162162 C9.45945946,24.1216216 10.027027,23.9324324 10.5,23.8378378 C10.5,23.8378378 10.5,23.8378378 10.5,23.8378378 Z M4.44594595,5.67567568 C4.44594595,5.67567568 4.44594595,5.67567568 4.44594595,5.67567568 C4.63513514,5.77027027 4.91891892,5.77027027 5.10810811,5.67567568 C5.10810811,5.67567568 5.10810811,5.67567568 5.10810811,5.67567568 C5.10810811,5.67567568 5.10810811,5.67567568 5.10810811,5.67567568 C5.10810811,5.67567568 5.10810811,5.67567568 5.10810811,5.67567568 C5.10810811,5.67567568 5.10810811,5.67567568 5.2027027,5.58108108 C5.2972973,5.48648649 5.2972973,5.2972973 5.2972973,5.10810811 C5.2972973,4.91891892 5.2027027,4.63513514 5.2027027,4.44594595 C5.2027027,3.02702703 6.52702703,1.22972973 8.22972973,1.13513514 L8.32432432,1.13513514 C9.74324324,1.13513514 10.6891892,2.27027027 10.972973,2.64864865 C10.972973,2.64864865 10.972973,2.64864865 10.972973,2.64864865 C11.1621622,2.74324324 11.1621622,2.83783784 11.2567568,2.83783784 C11.3513514,2.93243243 11.4459459,2.93243243 11.5405405,2.93243243 C11.6351351,2.93243243 11.8243243,2.93243243 11.9189189,2.83783784 C12.0135135,2.74324324 12.0135135,2.74324324 12.1081081,2.64864865 C12.1081081,2.64864865 12.5810811,1.98648649 13.4324324,1.98648649 C13.4324324,1.98648649 13.4324324,1.98648649 13.527027,1.98648649 C14.0945946,1.98648649 14.6621622,2.36486486 14.9459459,2.93243243 C14.9459459,3.02702703 15.0405405,3.02702703 15.0405405,3.12162162 C15.1351351,3.31081081 15.2297297,3.40540541 15.4189189,3.5 C15.6081081,3.59459459 15.7972973,3.5 15.9864865,3.40540541 C15.9864865,3.40540541 16.0810811,3.31081081 16.1756757,3.21621622 C16.5540541,3.02702703 17.027027,2.83783784 17.5945946,3.02702703 C18.0675676,3.21621622 18.4459459,3.5 18.7297297,3.97297297 C18.8243243,4.25675676 18.9189189,4.44594595 18.9189189,4.72972973 C18.9189189,4.82432432 18.9189189,4.91891892 18.8243243,5.01351351 C18.8243243,5.10810811 18.7297297,5.2027027 18.7297297,5.2972973 C18.6351351,5.48648649 18.4459459,5.58108108 18.2567568,5.67567568 C17.972973,5.86486486 17.5945946,5.95945946 17.2162162,6.05405405 C17.1216216,6.05405405 16.9324324,6.05405405 16.8378378,6.05405405 C15.7027027,6.05405405 14.9459459,5.39189189 14.7567568,5.2027027 C14.5675676,5.01351351 14.3783784,5.01351351 14.1891892,5.10810811 C14,5.2027027 13.8108108,5.39189189 13.8108108,5.58108108 C13.7162162,5.95945946 13.6216216,6.24324324 13.3378378,6.43243243 C12.8648649,6.81081081 11.9189189,6.81081081 11.2567568,6.24324324 C10.972973,6.05405405 10.6891892,6.14864865 10.4054054,6.33783784 C10.027027,6.81081081 9.27027027,7.56756757 8.32432432,8.04054054 C7.37837838,8.51351351 6.43243243,8.60810811 5.77027027,8.60810811 C5.67567568,8.60810811 5.58108108,8.60810811 5.48648649,8.60810811 C5.48648649,8.60810811 5.48648649,8.60810811 5.48648649,8.60810811 C5.2972973,8.60810811 5.2027027,8.7027027 5.01351351,8.7972973 C4.91891892,8.89189189 4.82432432,9.08108108 4.91891892,9.27027027 C5.10810811,10.4054054 4.72972973,11.2567568 4.25675676,11.4459459 C4.06756757,11.5405405 3.78378378,11.4459459 3.68918919,11.4459459 C3.59459459,11.4459459 3.59459459,11.4459459 3.59459459,11.4459459 C3.40540541,11.3513514 3.21621622,11.1621622 3.12162162,10.972973 C2.93243243,10.5945946 2.93243243,10.1216216 3.02702703,9.74324324 C3.12162162,9.55405405 3.21621622,9.36486486 3.31081081,9.27027027 C3.40540541,9.17567568 3.5,9.08108108 3.59459459,8.98648649 C3.78378378,8.89189189 3.87837838,8.7027027 3.87837838,8.41891892 C3.87837838,8.32432432 3.78378378,8.13513514 3.68918919,8.04054054 C3.68918919,7.94594595 3.59459459,7.94594595 3.5,7.94594595 C2.83783784,7.66216216 2.55405405,6.90540541 2.83783784,6.24324324 C2.93243243,5.86486486 3.21621622,5.58108108 3.59459459,5.48648649 C3.78378378,5.39189189 3.97297297,5.39189189 4.16216216,5.39189189 C4.06756757,5.58108108 4.25675676,5.58108108 4.44594595,5.67567568 Z M2.83783784,12.7702703 C2.83783784,13.0540541 2.83783784,13.2432432 2.83783784,13.4324324 C2.83783784,13.7162162 2.83783784,14.0945946 2.93243243,14.472973 L3.21621622,15.6081081 C3.68918919,17.027027 4.54054054,18.3513514 5.58108108,19.3918919 C6.71621622,20.4324324 8.13513514,21.0945946 9.55405405,21.472973 L9.55405405,22.6081081 C8.7972973,22.7972973 8.04054054,22.9864865 7.47297297,23.2702703 C7.47297297,23.2702703 7.47297297,23.2702703 7.47297297,23.2702703 C7.47297297,23.2702703 7.47297297,23.2702703 7.37837838,23.2702703 C7.37837838,23.2702703 7.37837838,23.2702703 7.37837838,23.2702703 C7.37837838,23.2702703 7.37837838,23.2702703 7.37837838,23.2702703 C7.37837838,23.2702703 7.37837838,23.2702703 7.37837838,23.2702703 C4.54054054,24.5 2.27027027,26.8648649 1.13513514,29.7027027 C0.472972973,31.3108108 1.22972973,33.2027027 2.93243243,33.9594595 C5.48648649,35.0945946 8.7972973,35.6621622 12.2972973,35.6621622 C15.7972973,35.6621622 19.0135135,35.0945946 21.6621622,33.9594595 C23.2702703,33.2972973 24.027027,31.4054054 23.4594595,29.7027027 C22.7027027,27.8108108 21.472973,26.2027027 19.8648649,24.8783784 C19.8648649,24.8783784 19.8648649,24.8783784 19.8648649,24.8783784 C19.8648649,24.8783784 19.8648649,24.8783784 19.8648649,24.8783784 C19.1081081,24.2162162 18.1621622,23.7432432 17.3108108,23.2702703 C17.3108108,23.2702703 17.3108108,23.2702703 17.3108108,23.2702703 C17.3108108,23.2702703 17.3108108,23.2702703 17.3108108,23.2702703 C17.3108108,23.2702703 17.3108108,23.2702703 17.3108108,23.2702703 C16.6486486,22.9864865 15.9864865,22.7027027 15.1351351,22.6081081 L15.1351351,21.472973 C16.7432432,21.1891892 18.2567568,20.4324324 19.3918919,19.2972973 C20.4324324,18.3513514 21.1891892,17.1216216 21.5675676,15.7027027 C21.6621622,15.5135135 21.6621622,15.3243243 21.7567568,15.1351351 C21.7567568,14.9459459 21.8513514,14.7567568 21.8513514,14.5675676 C21.8513514,14.2837838 21.9459459,14 21.9459459,13.7162162 C21.9459459,13.4324324 21.9459459,13.1486486 21.9459459,12.8648649 L21.9459459,12.7702703 L21.9459459,11.5405405 C21.9459459,11.4459459 21.9459459,11.3513514 21.9459459,11.2567568 C21.9459459,11.1621622 21.9459459,11.1621622 21.9459459,11.0675676 C21.9459459,10.972973 21.9459459,10.972973 21.9459459,10.8783784 C21.8513514,8.98648649 21.0945946,7.18918919 19.9594595,5.77027027 C19.9594595,5.67567568 20.0540541,5.67567568 20.0540541,5.58108108 C20.2432432,4.91891892 20.2432432,4.25675676 19.8648649,3.59459459 C19.4864865,2.83783784 18.8243243,2.27027027 18.0675676,1.98648649 C17.2162162,1.7027027 16.4594595,1.89189189 15.9864865,2.17567568 C15.5135135,1.41891892 14.6621622,0.851351351 13.7162162,0.851351351 C12.8648649,0.851351351 12.2972973,1.13513514 11.9189189,1.51351351 C10.972973,0.756756757 9.83783784,0 8.41891892,0 C8.41891892,0 8.32432432,0 8.32432432,0 C7.18918919,0 6.14864865,0.567567568 5.2972973,1.51351351 C4.54054054,2.36486486 4.06756757,3.40540541 4.06756757,4.44594595 C3.97297297,4.44594595 3.97297297,4.44594595 3.87837838,4.44594595 C3.5,4.44594595 3.12162162,4.54054054 2.83783784,4.72972973 C2.17567568,5.01351351 1.7027027,5.48648649 1.51351351,6.14864865 C1.13513514,7.09459459 1.41891892,8.13513514 2.08108108,8.89189189 C1.89189189,9.08108108 1.7972973,9.36486486 1.60810811,9.64864865 C1.32432432,10.3108108 1.41891892,11.1621622 1.7972973,11.9189189 C1.89189189,12.1081081 2.08108108,12.2972973 2.17567568,12.4864865 C2.45945946,12.4864865 2.64864865,12.6756757 2.83783784,12.7702703 Z M19.9594595,33.0135135 L19.9594595,27.1486486 C20.8108108,28.0945946 21.472973,29.1351351 21.9459459,30.2702703 C22.3243243,31.1216216 21.8513514,32.1621622 21,32.5405405 C20.7162162,32.7297297 20.3378378,32.8243243 19.9594595,33.0135135 Z M4.72972973,26.8648649 L4.72972973,33.0135135 C4.25675676,32.8243243 3.87837838,32.7297297 3.5,32.5405405 C2.64864865,32.1621622 2.17567568,31.1216216 2.55405405,30.2702703 C3.02702703,29.0405405 3.78378378,27.9054054 4.72972973,26.8648649 Z" id="Shape"></path>
            </g>
            <path d="M41.4324324,5.86486486 C41.4324324,5.95945946 41.4324324,6.05405405 41.3378378,6.14864865 C41.3378378,6.24324324 41.2432432,6.33783784 41.1486486,6.43243243 C41.0540541,6.62162162 40.8648649,6.71621622 40.6756757,6.81081081 C40.2972973,7 39.8243243,7.09459459 39.5405405,7.18918919 C38.3108108,7.37837838 37.3648649,6.62162162 37.0810811,6.33783784 C36.8918919,6.14864865 36.7027027,6.14864865 36.5135135,6.24324324 C36.3243243,6.33783784 36.1351351,6.43243243 36.1351351,6.71621622 C36.0405405,7 35.9459459,7.28378378 35.6621622,7.56756757 C35.1891892,7.94594595 34.2432432,7.94594595 33.5810811,7.37837838 C33.2972973,7.18918919 33.0135135,7.28378378 32.8243243,7.47297297 C32.4459459,7.94594595 31.6891892,8.7027027 30.6486486,9.17567568 C29.5135135,9.74324324 28.472973,9.74324324 27.8108108,9.74324324 C27.6216216,9.74324324 27.4324324,9.83783784 27.3378378,9.93243243 C27.2432432,10.027027 27.1486486,10.2162162 27.2432432,10.4054054 C27.4324324,11.5405405 27.0540541,12.4864865 26.5810811,12.5810811 C26.3918919,12.6756757 26.1081081,12.5810811 26.0135135,12.5810811 C25.9189189,12.5810811 25.9189189,12.5810811 25.9189189,12.5810811 C25.7297297,12.4864865 25.5405405,12.2972973 25.4459459,12.1081081 C25.2567568,11.7297297 25.1621622,11.2567568 25.3513514,10.8783784 C25.4459459,10.6891892 25.5405405,10.5 25.6351351,10.4054054 C25.7297297,10.3108108 25.8243243,10.2162162 25.9189189,10.1216216 C26.1081081,10.027027 26.2027027,9.83783784 26.2027027,9.64864865 C26.2027027,9.55405405 26.1081081,9.36486486 26.0135135,9.27027027 C26.0135135,9.27027027 25.9189189,9.17567568 25.8243243,9.17567568 C25.1621622,8.7972973 24.8783784,8.13513514 25.1621622,7.47297297 C25.2567568,7.09459459 25.5405405,6.81081081 25.9189189,6.71621622 C26.1081081,6.62162162 26.2972973,6.62162162 26.4864865,6.62162162 C26.6756757,6.62162162 26.8648649,6.62162162 26.9594595,6.71621622 C26.9594595,6.71621622 26.9594595,6.71621622 26.9594595,6.71621622 C27.1486486,6.81081081 27.4324324,6.81081081 27.527027,6.71621622 C27.527027,6.71621622 27.527027,6.71621622 27.527027,6.71621622 C27.527027,6.71621622 27.527027,6.71621622 27.527027,6.71621622 L27.6216216,6.62162162 C27.7162162,6.52702703 27.7162162,6.33783784 27.7162162,6.14864865 C27.7162162,5.95945946 27.6216216,5.67567568 27.6216216,5.48648649 C27.6216216,4.06756757 29.0405405,2.27027027 30.7432432,2.17567568 L30.8378378,2.17567568 C32.4459459,2.17567568 33.4864865,3.68918919 33.4864865,3.68918919 C33.8648649,3.68918919 33.8648649,3.78378378 33.9594595,3.78378378 C34.0540541,3.78378378 34.1486486,3.87837838 34.2432432,3.87837838 C34.3378378,3.87837838 34.4324324,3.87837838 34.527027,3.78378378 C34.6216216,3.78378378 34.6216216,3.68918919 34.7162162,3.59459459 C34.7162162,3.59459459 35.2837838,2.83783784 36.1351351,2.93243243 C36.7027027,2.93243243 37.2702703,3.31081081 37.5540541,3.87837838 C37.5540541,3.97297297 37.6486486,3.97297297 37.6486486,4.06756757 C37.7432432,4.25675676 37.8378378,4.35135135 38.027027,4.44594595 C38.2162162,4.54054054 38.4054054,4.44594595 38.5,4.35135135 C38.5,4.35135135 38.5945946,4.25675676 38.6891892,4.16216216 C38.972973,3.97297297 39.5405405,3.78378378 40.1081081,3.97297297 C40.5810811,4.06756757 40.9594595,4.44594595 41.2432432,4.91891892 C41.3378378,5.2972973 41.4324324,5.58108108 41.4324324,5.86486486 Z" id="Shape" fill="#B27100"></path>
            <g id="Group" transform="translate(23.648649, 0.000000)" fill="#333333">
                <path d="M11.2567568,20.6216216 C12.2972973,20.6216216 13.1486486,19.7702703 13.1486486,18.7297297 L13.1486486,18.6351351 C13.1486486,18.5405405 13.0540541,18.5405405 13.0540541,18.5405405 L9.55405405,18.5405405 C9.45945946,18.5405405 9.36486486,18.6351351 9.36486486,18.7297297 C9.36486486,18.7297297 9.36486486,18.8243243 9.36486486,18.8243243 C9.36486486,19.7702703 10.2162162,20.6216216 11.2567568,20.6216216 Z" id="Shape"></path>
                <circle id="Oval" cx="6.90540541" cy="15.3243243" r="1"></circle>
                <circle id="Oval" cx="15.7027027" cy="15.3243243" r="1"></circle>
                <path d="M20.7162162,12.2027027 C20.7162162,12.1081081 20.7162162,12.1081081 20.7162162,12.0135135 C20.7162162,12.0135135 20.7162162,11.9189189 20.7162162,11.9189189 L20.7162162,11.8243243 C20.6216216,9.93243243 19.9594595,8.13513514 18.7297297,6.71621622 C18.7297297,6.62162162 18.8243243,6.62162162 18.8243243,6.52702703 C19.0135135,5.86486486 19.0135135,5.10810811 18.6351351,4.44594595 C18.2567568,3.68918919 17.5945946,3.12162162 16.8378378,2.83783784 C15.9864865,2.55405405 15.2297297,2.74324324 14.7567568,3.02702703 C14.2837838,2.27027027 13.4324324,1.7027027 12.4864865,1.7027027 C12.3918919,1.7027027 12.3918919,1.7027027 12.2972973,1.7027027 C11.5405405,1.7027027 10.972973,1.98648649 10.5945946,2.27027027 C9.93243243,1.60810811 8.89189189,0.756756757 7.37837838,0.756756757 C7.37837838,0.756756757 7.28378378,0.756756757 7.28378378,0.756756757 C6.14864865,0.756756757 5.10810811,1.32432432 4.25675676,2.27027027 C3.5,3.12162162 3.02702703,4.16216216 3.02702703,5.2027027 C2.93243243,5.2027027 2.93243243,5.2027027 2.83783784,5.2027027 C2.45945946,5.2027027 2.08108108,5.2972973 1.7972973,5.48648649 C1.13513514,5.77027027 0.662162162,6.24324324 0.472972973,6.90540541 C0.472972973,7 0.472972973,7.09459459 0.378378378,7.18918919 C0.378378378,7.18918919 0.378378378,7.28378378 0.378378378,7.28378378 C0.378378378,7.47297297 0.283783784,7.75675676 0.378378378,7.94594595 C0.378378378,7.94594595 0.378378378,7.94594595 0.378378378,8.04054054 C0.378378378,8.22972973 0.472972973,8.51351351 0.567567568,8.7027027 C0.567567568,8.7027027 0.567567568,8.7027027 0.567567568,8.7972973 C0.662162162,8.98648649 0.756756757,9.17567568 0.851351351,9.36486486 C0.851351351,9.36486486 0.851351351,9.36486486 0.851351351,9.45945946 C0.945945946,9.55405405 0.945945946,9.64864865 1.04054054,9.74324324 C0.851351351,9.93243243 0.756756757,10.2162162 0.662162162,10.5 C0.378378378,11.1621622 0.472972973,12.1081081 0.851351351,12.7702703 C0.945945946,12.9594595 1.13513514,13.1486486 1.32432432,13.3378378 C1.51351351,13.527027 1.7027027,13.7162162 1.89189189,13.8108108 L1.89189189,13.9054054 C1.89189189,14.0945946 1.89189189,14.2837838 1.89189189,14.3783784 L1.89189189,14.472973 C1.89189189,14.7567568 1.89189189,15.1351351 1.98648649,15.5135135 L2.27027027,16.6486486 C2.74324324,18.0675676 3.59459459,19.3918919 4.72972973,20.4324324 C5.86486486,21.472973 7.28378378,22.1351351 8.7027027,22.5135135 L8.7027027,24.027027 L9.27027027,24.027027 L10.2162162,22.7027027 C10.5945946,22.7027027 10.8783784,22.7027027 11.2567568,22.7027027 L11.3513514,22.7027027 C11.6351351,22.7027027 12.0135135,22.7027027 12.2972973,22.7027027 L12.3918919,22.7027027 L13.3378378,24.027027 L13.9054054,24.027027 L13.9054054,22.5135135 C15.5135135,22.2297297 17.027027,21.3783784 18.1621622,20.3378378 C19.2027027,19.3918919 19.9594595,18.1621622 20.3378378,16.7432432 C20.4324324,16.5540541 20.4324324,16.3648649 20.527027,16.1756757 C20.527027,15.9864865 20.6216216,15.7972973 20.6216216,15.6081081 C20.6216216,15.3243243 20.7162162,15.1351351 20.7162162,14.7567568 C20.7162162,14.472973 20.7162162,14.1891892 20.7162162,13.9054054 L20.7162162,12.5810811 C20.7162162,12.3918919 20.7162162,12.2972973 20.7162162,12.2027027 Z M1.7972973,10.8783784 C1.89189189,10.6891892 1.98648649,10.5 2.08108108,10.4054054 C2.17567568,10.3108108 2.27027027,10.2162162 2.36486486,10.1216216 C2.55405405,10.027027 2.64864865,9.74324324 2.64864865,9.55405405 C2.64864865,9.45945946 2.55405405,9.27027027 2.45945946,9.17567568 C2.45945946,9.08108108 2.36486486,9.08108108 2.27027027,9.08108108 C1.7027027,8.7972973 1.41891892,8.04054054 1.60810811,7.37837838 C1.7027027,7 1.98648649,6.81081081 2.27027027,6.62162162 C2.45945946,6.52702703 2.64864865,6.52702703 2.83783784,6.52702703 C3.02702703,6.52702703 3.21621622,6.52702703 3.31081081,6.62162162 C3.31081081,6.62162162 3.31081081,6.62162162 3.31081081,6.62162162 C3.5,6.71621622 3.78378378,6.71621622 3.97297297,6.62162162 C3.97297297,6.62162162 3.97297297,6.62162162 3.97297297,6.62162162 C3.97297297,6.62162162 3.97297297,6.62162162 3.97297297,6.62162162 C3.97297297,6.62162162 3.97297297,6.62162162 3.97297297,6.62162162 C3.97297297,6.62162162 3.97297297,6.62162162 3.97297297,6.62162162 C4.06756757,6.52702703 4.16216216,6.33783784 4.06756757,6.14864865 C4.06756757,5.95945946 3.97297297,5.77027027 3.97297297,5.48648649 C3.97297297,4.06756757 5.2972973,2.27027027 7,2.27027027 L7.09459459,2.27027027 C8.51351351,2.27027027 9.45945946,3.40540541 9.74324324,3.78378378 C9.74324324,3.78378378 9.74324324,3.78378378 9.74324324,3.78378378 C10.1216216,3.68918919 10.2162162,3.78378378 10.3108108,3.78378378 C10.4054054,3.87837838 10.5,3.87837838 10.5945946,3.87837838 C10.5945946,3.87837838 10.5945946,3.87837838 10.5945946,3.87837838 C10.5945946,3.87837838 10.5945946,3.87837838 10.5945946,3.87837838 C10.6891892,3.87837838 10.7837838,3.78378378 10.8783784,3.78378378 C10.972973,3.68918919 10.972973,3.68918919 11.0675676,3.59459459 C11.0675676,3.59459459 11.5405405,2.93243243 12.2972973,2.93243243 C12.2972973,2.93243243 12.2972973,2.93243243 12.3918919,2.93243243 C12.9594595,2.93243243 13.527027,3.31081081 13.7162162,3.87837838 C13.7162162,3.97297297 13.8108108,3.97297297 13.8108108,4.06756757 C13.9054054,4.25675676 14,4.44594595 14.1891892,4.44594595 C14.3783784,4.54054054 14.5675676,4.44594595 14.7567568,4.35135135 C14.7567568,4.35135135 14.8513514,4.25675676 14.9459459,4.16216216 C15.3243243,3.97297297 15.7972973,3.78378378 16.3648649,3.97297297 C16.8378378,4.06756757 17.2162162,4.44594595 17.4054054,4.91891892 C17.5,5.2027027 17.5945946,5.39189189 17.5945946,5.67567568 C17.5945946,5.77027027 17.5945946,5.86486486 17.5,5.95945946 C17.5,6.05405405 17.4054054,6.14864865 17.4054054,6.14864865 C17.3108108,6.33783784 17.1216216,6.43243243 16.9324324,6.52702703 C16.6486486,6.71621622 16.2702703,6.81081081 15.8918919,6.90540541 C15.7972973,6.90540541 15.7027027,6.90540541 15.5135135,6.90540541 C14.3783784,6.90540541 13.6216216,6.24324324 13.4324324,6.05405405 C13.2432432,5.86486486 13.0540541,5.86486486 12.8648649,5.95945946 C12.6756757,6.05405405 12.4864865,6.24324324 12.4864865,6.43243243 C12.3918919,6.81081081 12.2972973,7.09459459 12.0135135,7.18918919 C11.5405405,7.56756757 10.6891892,7.47297297 9.93243243,7 C9.64864865,6.81081081 9.27027027,6.90540541 9.08108108,7.09459459 C8.7027027,7.56756757 7.94594595,8.32432432 7,8.7972973 C5.95945946,9.27027027 5.01351351,9.36486486 4.44594595,9.36486486 C4.35135135,9.36486486 4.25675676,9.36486486 4.16216216,9.36486486 C3.97297297,9.36486486 3.78378378,9.45945946 3.68918919,9.55405405 C3.59459459,9.64864865 3.5,9.83783784 3.5,10.027027 C3.68918919,11.1621622 3.31081081,12.0135135 2.83783784,12.2027027 C2.64864865,12.2972973 2.36486486,12.2027027 2.27027027,12.2027027 C2.17567568,12.2027027 2.17567568,12.2027027 2.17567568,12.2027027 C1.98648649,12.1081081 1.89189189,11.9189189 1.7027027,11.7297297 C1.7972973,11.7297297 1.7027027,11.2567568 1.7972973,10.8783784 Z M3.5,13.7162162 C4.44594595,13.3378378 5.01351351,12.2027027 5.01351351,10.8783784 C5.95945946,10.7837838 6.90540541,10.5945946 7.66216216,10.2162162 C8.51351351,9.83783784 9.27027027,9.27027027 9.83783784,8.60810811 C10.8783784,9.17567568 12.1081081,9.08108108 12.8648649,8.41891892 C13.0540541,8.22972973 13.2432432,8.04054054 13.4324324,7.75675676 C14.2837838,8.22972973 15.2297297,8.51351351 16.0810811,8.32432432 C16.7432432,8.22972973 17.4054054,8.04054054 17.7837838,7.66216216 C18.7297297,8.89189189 19.2972973,10.3108108 19.3918919,11.8243243 C19.3918919,11.9189189 19.3918919,12.0135135 19.3918919,12.0135135 C19.3918919,12.1081081 19.3918919,12.1081081 19.3918919,12.2027027 C19.3918919,12.3918919 19.3918919,12.4864865 19.3918919,12.9594595 L19.3918919,13.2432432 C19.3918919,13.6216216 19.3918919,14.0945946 19.3918919,14.472973 C19.2027027,18.1621622 16.1756757,21.0945946 12.3918919,21.2837838 C12.0135135,21.2837838 11.6351351,21.2837838 11.2567568,21.2837838 C10.8783784,21.2837838 10.5,21.2837838 10.027027,21.2837838 C6.24324324,21.1891892 3.12162162,18.0675676 3.02702703,14.2837838 C3.02702703,14.0945946 3.02702703,13.9054054 3.02702703,13.8108108 C3.21621622,13.8108108 3.31081081,13.8108108 3.5,13.7162162 Z" id="Shape"></path>
            </g>
        </g>
    </g>
</svg>