<svg id="Layer_1" data-name="Layer 1" xmlns="http://www.w3.org/2000/svg" viewBox="0 0 60 60"><defs><style>.cls-1{fill:#ebf2f3;}.cls-2,.cls-4{fill:#333;}.cls-3{fill:#fff;}.cls-4{stroke:#333;stroke-miterlimit:10;stroke-width:0.5px;}.cls-5{fill:#f74a2a;}</style></defs><title>locationIcons</title><path class="cls-1" d="M54.91,11.8V51.65a4.51,4.51,0,0,0-2.58-.8H7.68a2.59,2.59,0,0,1-2.59-2.59,1.86,1.86,0,0,1,0-.32,2.7,2.7,0,0,1,2.72-2.27h4.84a1,1,0,0,0,1-1V18.79a8.82,8.82,0,0,1,2.43.94.75.75,0,0,0,.34.08.67.67,0,0,0,.33-1.25,10.52,10.52,0,0,0-3.09-1.13V9.18H52.28A2.62,2.62,0,0,1,54.91,11.8Z"/><path class="cls-2" d="M56.91,53.78v-42a4.64,4.64,0,0,0-4.63-4.63H13.66V1a1,1,0,0,0-1-1h-5A4.64,4.64,0,0,0,3.08,4.64V48.27a4.59,4.59,0,0,0,4.59,4.58H46.33V59a1,1,0,0,0,1,1h5a4.49,4.49,0,0,0,2.84-1,5,5,0,0,0,1-1.1A7.38,7.38,0,0,0,56.91,53.78ZM5.09,4.64A2.62,2.62,0,0,1,7.71,2h4V43.67H7.82a4.74,4.74,0,0,0-2.73.84Zm49.81,47a4.56,4.56,0,0,0-2.58-.8H7.67a2.58,2.58,0,0,1-2.58-2.58c0-.11,0-.22,0-.32a2.7,2.7,0,0,1,2.72-2.27h4.84a1,1,0,0,0,1-1V18.79a8.9,8.9,0,0,1,2.43.94.72.72,0,0,0,.34.09.68.68,0,0,0,.58-.34.67.67,0,0,0-.25-.91,10.55,10.55,0,0,0-3.1-1.14V9.17H52.28A2.62,2.62,0,0,1,54.9,11.8Z"/><path class="cls-3" d="M11.67,2V43.67H7.82a4.74,4.74,0,0,0-2.73.84V4.64A2.62,2.62,0,0,1,7.71,2Z"/><path class="cls-4" d="M22.09,24.88a18.62,18.62,0,0,0-2.16-3.53.66.66,0,1,0-1,.82,17.61,17.61,0,0,1,2,3.29.66.66,0,0,0,.6.37.65.65,0,0,0,.29-.07A.67.67,0,0,0,22.09,24.88Zm3,7.51c-.26-.71-.53-1.42-.8-2.15l-.59-1.61a.66.66,0,0,0-.86-.38.66.66,0,0,0-.38.85L23,30.7c.26.72.53,1.44.81,2.16a.64.64,0,0,0,.62.43.52.52,0,0,0,.23,0A.65.65,0,0,0,25,32.39Zm3.65,6.82A16.3,16.3,0,0,1,26.61,36a.67.67,0,0,0-1.19.6,17.19,17.19,0,0,0,2.27,3.48.63.63,0,0,0,.5.23.71.71,0,0,0,.44-.16A.66.66,0,0,0,28.69,39.22Zm6.46,3.34a10.14,10.14,0,0,1-3.57-1,.66.66,0,0,0-.89.29.67.67,0,0,0,.28.9,11.64,11.64,0,0,0,4,1.16h.08a.67.67,0,0,0,.07-1.33Z"/><path class="cls-5" d="M43.1,22.43a9.06,9.06,0,0,0-9.41,9.06v.12a7.48,7.48,0,0,0,1.72,4.53l6.78,7.31a.75.75,0,0,0,1.1,0l6.81-7.34a7.23,7.23,0,0,0,1.67-4,.45.45,0,0,0,0-.09A9.18,9.18,0,0,0,43.1,22.43Zm-.36,12a3.2,3.2,0,1,1,3.21-3.2A3.21,3.21,0,0,1,42.74,34.38Z"/><path class="cls-4" d="M13.62,18.79a8.9,8.9,0,0,1,2.43.94.72.72,0,0,0,.34.09.68.68,0,0,0,.58-.34.67.67,0,0,0-.25-.91,10.55,10.55,0,0,0-3.1-1.14Z"/></svg>