<svg id="Layer_1" data-name="Layer 1" xmlns="http://www.w3.org/2000/svg" viewBox="0 0 60 60"><defs><style>.cls-1{fill:#fff;}.cls-2{fill:#9dde6e;}.cls-3{fill:#ebf2f3;}.cls-4,.cls-6{fill:none;stroke:#333;stroke-linecap:round;stroke-linejoin:round;}.cls-4{stroke-width:2px;}.cls-5{fill:#00bcd3;}.cls-6{stroke-width:1.75px;}</style></defs><title>searchDoctorNEWIcon</title><circle class="cls-1" cx="12.79" cy="39.68" r="4.46"/><path class="cls-2" d="M39.29,33.94a3.69,3.69,0,1,1-7.39,0"/><circle class="cls-3" cx="12.79" cy="39.68" r="2.41"/><path class="cls-4" d="M44.69,6.58h3a4,4,0,0,1,4,4v7.29a16.08,16.08,0,1,1-32.15,0V10.57a4,4,0,0,1,4-4h3"/><rect class="cls-2" x="41.98" y="3.61" width="2.64" height="6.08" rx="1.32" ry="1.32"/><rect class="cls-2" x="26.68" y="3.61" width="2.64" height="6.08" rx="1.32" ry="1.32"/><rect class="cls-5" x="41.98" y="3.61" width="2.64" height="6.08" rx="1.32" ry="1.32"/><rect class="cls-5" x="26.68" y="3.61" width="2.64" height="6.08" rx="1.32" ry="1.32"/><path class="cls-4" d="M35.6,37.94V51.25a5.13,5.13,0,0,1-5.13,5.13h0a5.13,5.13,0,0,1-5.13-5.13V44.8a5.13,5.13,0,0,0-5.13-5.13H17.94"/><circle class="cls-4" cx="12.79" cy="39.68" r="4.46"/><path class="cls-6" d="M39.29,33.94a3.69,3.69,0,1,1-7.39,0"/></svg>