<?xml version="1.0" encoding="utf-8"?>
<!-- Generator: Adobe Illustrator 22.0.1, SVG Export Plug-In . SVG Version: 6.00 Build 0)  -->
<svg version="1.1" xmlns="http://www.w3.org/2000/svg" xmlns:xlink="http://www.w3.org/1999/xlink" x="0px" y="0px"
	 viewBox="0 0 63.7 60" style="enable-background:new 0 0 63.7 60;" xml:space="preserve">
<style type="text/css">
	.st0{display:none;}
	.st1{fill:#9DDE6E;}
	.st2{fill:#F6EA83;}
	.st3{fill:#EBF2F3;}
	.st4{fill:none;stroke:#333333;stroke-width:1.5;stroke-linecap:round;stroke-linejoin:round;stroke-miterlimit:10;}
	.st5{fill:#FFFFFF;stroke:#333333;stroke-width:1.5;stroke-linecap:round;stroke-linejoin:round;stroke-miterlimit:10;}
	.st6{fill:#00BCD3;}
	.st7{fill:#EBF2F3;stroke:#333333;stroke-width:1.5;stroke-linecap:round;stroke-linejoin:round;stroke-miterlimit:10;}
	.st8{fill:#FFFFFF;}
	.st9{fill:none;stroke:#333333;stroke-width:2;stroke-linecap:round;stroke-linejoin:round;stroke-miterlimit:10;}
	.st10{fill:#EBEEF0;}
	.st11{fill:none;stroke:#D1EBF5;stroke-miterlimit:10;}
	.st12{fill:#F74A2A;}
	.st13{fill:#333333;stroke:#333333;stroke-width:0.5;stroke-miterlimit:10;}
	.st14{fill:#333333;}
	.st15{fill:none;stroke:#2A413D;stroke-miterlimit:10;}
	.st16{fill:#5D5D5D;}
	.st17{opacity:0.1;fill:none;stroke:#5D5D5D;stroke-miterlimit:10;}
	.st18{fill:#44BDD1;}
	.st19{fill:#3E615B;}
	.st20{fill:#54C500;}
	.st21{opacity:0.3;fill:#F6EA83;}
	.st22{fill:none;stroke:#333333;stroke-width:1.75;stroke-linecap:round;stroke-linejoin:round;stroke-miterlimit:10;}
	.st23{fill:none;stroke:#00BCD3;stroke-linecap:round;stroke-linejoin:round;stroke-miterlimit:10;}
	.st24{fill:#FCF9DA;}
	.st25{fill:#E5F8FA;}
	.st26{fill:#F67280;}
	.st27{fill:none;stroke:#004545;stroke-width:2.5;stroke-linecap:round;stroke-linejoin:round;stroke-miterlimit:10;}
	.st28{fill:none;stroke:#333333;stroke-width:1.74;stroke-linecap:round;stroke-linejoin:round;stroke-miterlimit:10;}
	.st29{fill:#BCCB00;}
	.st30{fill:#00566F;}
	.st31{fill:#006752;}
	.st32{fill:#F6EA85;}
	.st33{fill:#FFA000;}
	.st34{fill:#FF7E3A;}
	.st35{fill:#D0DA4C;}
	.st36{fill:#4C889A;}
	.st37{fill:#4CCEE0;}
	.st38{fill:#4C9485;}
	.st39{fill:#88D64C;}
	.st40{fill:#F8F1A9;}
	.st41{fill:#FFBD4C;}
	.st42{fill:#FFA575;}
	.st43{fill:#E4EA99;}
	.st44{fill:#99BBC5;}
	.st45{fill:#99E3ED;}
	.st46{fill:#99C2B9;}
	.st47{fill:#BBE799;}
	.st48{fill:#FBF7CE;}
	.st49{fill:#FFD999;}
	.st50{fill:#FFCBB0;}
	.st51{fill:#F8F9E5;}
	.st52{fill:#E5EEF0;}
	.st53{fill:#E5EFED;}
	.st54{fill:#EEF9E5;}
	.st55{fill:#FEFDF2;}
	.st56{fill:#FFF5E5;}
	.st57{fill:#FFF2EB;}
	.st58{fill:#ED9872;}
	.st59{fill:#E6764A;}
	.st60{fill:#848E00;}
	.st61{fill:#003B4D;}
	.st62{fill:#008293;}
	.st63{fill:#004839;}
	.st64{fill:#3B8900;}
	.st65{fill:#DDD377;}
	.st66{fill:#B27100;}
	.st67{fill:#B25828;}
	.st68{fill:#F26838;}
	.st69{fill:none;stroke:#9DDE6E;stroke-miterlimit:10;}
	.st70{opacity:9.000000e-02;fill:#FFFFFF;}
	.st71{opacity:9.000000e-02;}
	.st72{opacity:0.3;}
	.st73{fill:none;stroke:#333333;stroke-width:2.6;stroke-linecap:round;stroke-linejoin:round;stroke-miterlimit:10;}
	.st74{fill:none;stroke:#333333;stroke-width:1.25;stroke-linecap:round;stroke-linejoin:round;stroke-miterlimit:10;}
	.st75{fill:#333333;stroke:#333333;stroke-width:0.25;stroke-miterlimit:10;}
	.st76{fill:url(#SVGID_1_);}
	.st77{fill:url(#SVGID_2_);}
	.st78{fill:url(#SVGID_3_);}
	.st79{fill:url(#SVGID_4_);}
	.st80{fill:url(#SVGID_5_);}
	.st81{fill:#383838;}
	.st82{fill:url(#SVGID_6_);}
	.st83{fill:url(#SVGID_7_);}
	.st84{opacity:8.000000e-02;fill:#FFFFFF;}
	.st85{fill:#79D249;}
</style>
<g id="Layer_2" class="st0">
</g>
<g id="Layer_1">
	<g>
		<g>
			<path class="st2" d="M42.5,47.6c-0.1-0.2-0.3-0.3-0.4-0.5l-4.4-5.7l-2.2-2.9L34.4,37c-0.9-1.2-1-2.8-0.1-3.7
				c0.9-0.9,2.5-0.8,3.7,0.2l1.4,1.2l2.7,2.3l5.5,4.7c2.2,1.9,2.7,5,1,6.6C47.1,49.9,44.3,49.5,42.5,47.6z"/>
		</g>
		<g>
			<path class="st14" d="M46.2,50.3c-1.5,0-3.2-0.7-4.5-2c-0.2-0.2-0.3-0.4-0.5-0.6l-7.7-10.1c-1.2-1.6-1.2-3.8,0.1-5
				c1.3-1.2,3.4-1.1,5,0.2l9.6,8.2c1.4,1.2,2.3,3,2.3,4.7c0,1.3-0.4,2.6-1.3,3.4C48.5,49.9,47.4,50.3,46.2,50.3z M35.9,33.8
				c-0.3,0-0.6,0.1-0.8,0.3c-0.5,0.5-0.5,1.5,0.2,2.3l7.7,10.1c0.1,0.1,0.2,0.3,0.3,0.4v0c1.4,1.5,3.6,1.9,4.7,0.8
				c0.6-0.6,0.7-1.4,0.7-1.9c0-1.2-0.6-2.3-1.6-3.2l-9.6-8.2C36.9,34,36.4,33.8,35.9,33.8z"/>
		</g>
		<g>
			<path class="st14" d="M46.2,50.3c-1.5,0-3.2-0.7-4.5-2c-0.2-0.2-0.3-0.4-0.5-0.6l-7.7-10.1c-1.2-1.6-1.2-3.8,0.1-5
				c1.3-1.2,3.4-1.1,5,0.2l9.6,8.2c1.4,1.2,2.3,3,2.3,4.7c0,1.3-0.4,2.6-1.3,3.4C48.5,49.9,47.4,50.3,46.2,50.3z M35.9,33.8
				c-0.3,0-0.6,0.1-0.8,0.3c-0.5,0.5-0.5,1.5,0.2,2.3l7.7,10.1c0.1,0.1,0.2,0.3,0.3,0.4v0c1.4,1.5,3.6,1.9,4.7,0.8
				c0.6-0.6,0.7-1.4,0.7-1.9c0-1.2-0.6-2.3-1.6-3.2l-9.6-8.2C36.9,34,36.4,33.8,35.9,33.8z"/>
		</g>
		<g>
			<circle class="st8" cx="27.7" cy="25.9" r="16.3"/>
		</g>
		<g>
			<path class="st14" d="M27.7,43.2c-9.5,0-17.3-7.8-17.3-17.3S18.2,8.6,27.7,8.6c9.5,0,17.3,7.8,17.3,17.3S37.3,43.2,27.7,43.2z
				 M27.7,10.6c-8.4,0-15.3,6.9-15.3,15.3s6.9,15.3,15.3,15.3S43,34.4,43,25.9S36.2,10.6,27.7,10.6z"/>
		</g>
		<g>
			<path class="st2" d="M42.5,47.6c-0.1-0.2-0.3-0.3-0.4-0.5l-4.4-5.7l-2.2-2.9L34.4,37c-0.9-1.2-1-2.8-0.1-3.7
				c0.9-0.9,2.5-0.8,3.7,0.2l1.4,1.2l2.7,2.3l5.5,4.7c2.2,1.9,2.7,5,1,6.6C47.1,49.9,44.3,49.5,42.5,47.6z"/>
		</g>
		<g>
			<path class="st14" d="M46.2,50.3c-1.5,0-3.2-0.7-4.5-2c-0.2-0.2-0.3-0.4-0.5-0.6l-7.7-10.1c-1.2-1.6-1.2-3.8,0.1-5
				c1.3-1.2,3.4-1.1,5,0.2l9.6,8.2c1.4,1.2,2.3,3,2.3,4.7c0,1.3-0.4,2.6-1.3,3.4C48.5,49.9,47.4,50.3,46.2,50.3z M35.9,33.8
				c-0.3,0-0.6,0.1-0.8,0.3c-0.5,0.5-0.5,1.5,0.2,2.3l7.7,10.1c0.1,0.1,0.2,0.3,0.3,0.4v0c1.4,1.5,3.6,1.9,4.7,0.8
				c0.6-0.6,0.7-1.4,0.7-1.9c0-1.2-0.6-2.3-1.6-3.2l-9.6-8.2C36.9,34,36.4,33.8,35.9,33.8z"/>
		</g>
		<g>
			<path class="st14" d="M46.2,50.3c-1.5,0-3.2-0.7-4.5-2c-0.2-0.2-0.3-0.4-0.5-0.6l-7.7-10.1c-1.2-1.6-1.2-3.8,0.1-5
				c1.3-1.2,3.4-1.1,5,0.2l9.6,8.2c1.4,1.2,2.3,3,2.3,4.7c0,1.3-0.4,2.6-1.3,3.4C48.5,49.9,47.4,50.3,46.2,50.3z M35.9,33.8
				c-0.3,0-0.6,0.1-0.8,0.3c-0.5,0.5-0.5,1.5,0.2,2.3l7.7,10.1c0.1,0.1,0.2,0.3,0.3,0.4v0c1.4,1.5,3.6,1.9,4.7,0.8
				c0.6-0.6,0.7-1.4,0.7-1.9c0-1.2-0.6-2.3-1.6-3.2l-9.6-8.2C36.9,34,36.4,33.8,35.9,33.8z"/>
		</g>
		<g>
			<circle class="st8" cx="27.7" cy="25.9" r="16.3"/>
		</g>
		<g>
			<path class="st14" d="M27.7,43.2c-9.5,0-17.3-7.8-17.3-17.3S18.2,8.6,27.7,8.6c9.5,0,17.3,7.8,17.3,17.3S37.3,43.2,27.7,43.2z
				 M27.7,10.6c-8.4,0-15.3,6.9-15.3,15.3s6.9,15.3,15.3,15.3S43,34.4,43,25.9S36.2,10.6,27.7,10.6z"/>
		</g>
		<g>
			<circle class="st3" cx="27.6" cy="25.9" r="11.8"/>
		</g>
	</g>
</g>
</svg>
