<svg id="Layer_1" data-name="Layer 1" xmlns="http://www.w3.org/2000/svg" viewBox="0 0 60 60"><defs><style>.cls-1{fill:#ebf2f3;}.cls-2,.cls-5,.cls-6{fill:none;stroke-linecap:round;stroke-linejoin:round;}.cls-2,.cls-5{stroke:#333;}.cls-2{stroke-width:2px;}.cls-3{fill:#fff;}.cls-4{fill:#f74a2a;}.cls-5{stroke-width:1.75px;}.cls-6{stroke:#00bcd3;}.cls-7{fill:#333;}</style></defs><title>dashboardIconHealthRecords</title><path class="cls-1" d="M53.39,18.1H50.78V40.4a1.7,1.7,0,0,1-.62,1.37,1.72,1.72,0,0,1-1.43.67H34.2c-5.25.14-6.75.22-12,0H6V45.8a5.28,5.28,0,0,0,5.28,5.28H53.39a5.28,5.28,0,0,0,5.28-5.28V23.38A5.28,5.28,0,0,0,53.39,18.1Z"/><path class="cls-2" d="M53.39,18.1H50.78V40.4a1.7,1.7,0,0,1-.62,1.37,1.72,1.72,0,0,1-1.43.67H34.2c-5.25.14-6.75.22-12,0H6V45.8a5.28,5.28,0,0,0,5.28,5.28H53.39a5.28,5.28,0,0,0,5.28-5.28V23.38A5.28,5.28,0,0,0,53.39,18.1Z"/><path class="cls-3" d="M48.69,46.38H6.61A5.28,5.28,0,0,1,1.33,41.1V18.68A5.28,5.28,0,0,1,6.61,13.4H48.69A5.28,5.28,0,0,1,54,18.68V41.1A5.28,5.28,0,0,1,48.69,46.38Z"/><path class="cls-4" d="M20.89,32.34c-1.32,3.76-5.88,4.77-6.39,4.87h0c-.51-.11-5.07-1.11-6.39-4.87a6.59,6.59,0,0,1-.31-2.77,3.3,3.3,0,0,1,.88-1.79,3.45,3.45,0,0,1,2.48-1,3.49,3.49,0,0,1,2.31.91,3.85,3.85,0,0,1,.93,1.51.11.11,0,0,0,.22,0,3.46,3.46,0,0,1,.94-1.5,3.53,3.53,0,0,1,2.32-.91,3.45,3.45,0,0,1,2.48,1,3.37,3.37,0,0,1,.88,1.79A6.46,6.46,0,0,1,20.89,32.34Z"/><path class="cls-2" d="M21.58,13.4H48.69A5.28,5.28,0,0,1,54,18.68V41.1a5.28,5.28,0,0,1-5.28,5.28H6.61A5.28,5.28,0,0,1,1.33,41.1V18.68A5.28,5.28,0,0,1,6.61,13.4h15Z"/><line class="cls-5" x1="27.64" y1="23.43" x2="27.64" y2="40.54"/><line class="cls-5" x1="34.98" y1="26.4" x2="46.2" y2="26.4"/><line class="cls-5" x1="34.98" y1="32.1" x2="46.2" y2="32.1"/><path class="cls-6" d="M36.3,41.06a4.13,4.13,0,0,1-.25-3.1c.54-1.5,2.05-2.42,2.34-2.2s-.24.81-.55,2.66c-.21,1.21-.1,1.39,0,1.42.26.1.88-1.12,1.14-1s-.06.85.17,1,1-1.15,1.71-1c.36.07.29.43.7.59.59.23,1.06-.38,2.2-.51a3.68,3.68,0,0,1,.84,0"/><path class="cls-7" d="M37.55,12.59V10.32a1.4,1.4,0,0,0-1.39-1.39h-.23a1.4,1.4,0,0,0-1.4,1.39v6.16a1.41,1.41,0,0,0,1.4,1.41h.23a1.4,1.4,0,0,0,1.39-1.41V12.59Z"/><path class="cls-7" d="M17.75,12.59V10.32a1.4,1.4,0,0,1,1.4-1.39h.22a1.4,1.4,0,0,1,1.4,1.39v6.16a1.4,1.4,0,0,1-1.4,1.41h-.22a1.4,1.4,0,0,1-1.4-1.41V12.59Z"/></svg>