<?xml version="1.0" encoding="UTF-8"?>
<svg width="49px" height="49px" viewBox="0 0 49 49" version="1.1" xmlns="http://www.w3.org/2000/svg" xmlns:xlink="http://www.w3.org/1999/xlink">
    <!-- Generator: Sketch 49.3 (51167) - http://www.bohemiancoding.com/sketch -->
    <title>helpIcon@2x</title>
    <desc>Created with Sketch.</desc>
    <defs></defs>
    <g id="Bill-Pay-/-P2p-Delegation" stroke="none" stroke-width="1" fill="none" fill-rule="evenodd">
        <g id="SSO-from-email-error" transform="translate(-53.000000, -584.000000)">
            <g id="Group-3" transform="translate(50.000000, 190.000000)">
                <g id="Group-2">
                    <g id="helpIcon" transform="translate(4.000000, 395.000000)">
                        <path d="M45.9294444,16.9809259 C43.0367347,6.99764102 33.8939284,0.127939257 23.5,0.127939257 C13.1060716,0.127939257 3.96326525,6.99764102 1.07055556,16.9809259 C-0.168768735,21.2445438 -0.168768735,25.7728636 1.07055556,30.0364815 C3.30632008,37.7087267 9.30745841,43.7065822 16.9809259,45.9381481 C21.2448167,47.1755542 25.7725907,47.1755542 30.0364815,45.9381481 C37.7083659,43.6996381 43.7035315,37.6946228 45.9294444,30.0190741 C47.1687687,25.7554562 47.1687687,21.2271364 45.9294444,16.9635185 L45.9294444,16.9809259 Z M27.407963,36.9472222 C22.5034304,38.3660752 17.2153474,37.0051212 13.6051131,33.3948869 C9.99487877,29.7846526 8.63392475,24.4965696 10.0527778,19.592037 C11.7919073,13.6115083 17.2717342,9.4982115 23.5,9.4982115 C29.7282658,9.4982115 35.2080927,13.6115083 36.9472222,19.592037 C37.9821682,23.1631284 37.5545511,26.9991999 35.7586239,30.2547262 C33.9626966,33.5102525 30.9458887,35.9179841 27.3731481,36.9472222 L27.407963,36.9472222 Z" id="Shape" fill="#FFFFFF" fill-rule="nonzero"></path>
                        <path d="M30.0190741,45.9381481 C25.7551833,47.1755542 21.2274093,47.1755542 16.9635185,45.9381481 L19.5746296,36.9559259 C22.1335981,37.6938965 24.8489945,37.6938965 27.407963,36.9559259 L30.0190741,45.9381481 Z" id="Shape" fill="#00BCD3" fill-rule="nonzero"></path>
                        <path d="M9.50444444,23.5 C9.50450036,24.8218222 9.68905877,26.137167 10.0527778,27.407963 L1.07055556,30.0190741 C-0.168768735,25.7554562 -0.168768735,21.2271364 1.07055556,16.9635185 L10.0527778,19.5746296 C9.68745097,20.8510309 9.50287681,22.1723474 9.50444444,23.5 Z" id="Shape" fill="#00BCD3" fill-rule="nonzero"></path>
                        <path d="M30.0190741,1.06185185 L27.407963,10.0440741 C24.8489945,9.30610352 22.1335981,9.30610352 19.5746296,10.0440741 L16.9635185,1.06185185 C21.2274093,-0.175554195 25.7551833,-0.175554195 30.0190741,1.06185185 Z" id="Shape" fill="#00BCD3" fill-rule="nonzero"></path>
                        <path d="M46.852037,23.5 C46.857726,25.7030977 46.5470242,27.8955968 45.9294444,30.0103704 L36.9472222,27.3992593 C37.6851928,24.8402908 37.6851928,22.1248944 36.9472222,19.5659259 L45.9294444,16.9548148 C46.5495018,19.0809591 46.8602201,21.2853006 46.852037,23.5 Z" id="Shape" fill="#00BCD3" fill-rule="nonzero"></path>
                        <path d="M45.9294444,16.9809259 C43.0367347,6.99764102 33.8939284,0.127939257 23.5,0.127939257 C13.1060716,0.127939257 3.96326525,6.99764102 1.07055556,16.9809259 C-0.168768735,21.2445438 -0.168768735,25.7728636 1.07055556,30.0364815 C3.30632008,37.7087267 9.30745841,43.7065822 16.9809259,45.9381481 C21.2448167,47.1755542 25.7725907,47.1755542 30.0364815,45.9381481 C37.7083659,43.6996381 43.7035315,37.6946228 45.9294444,30.0190741 C47.1687687,25.7554562 47.1687687,21.2271364 45.9294444,16.9635185 L45.9294444,16.9809259 Z M27.407963,36.9472222 C22.5034304,38.3660752 17.2153474,37.0051212 13.6051131,33.3948869 C9.99487877,29.7846526 8.63392475,24.4965696 10.0527778,19.592037 C11.7919073,13.6115083 17.2717342,9.4982115 23.5,9.4982115 C29.7282658,9.4982115 35.2080927,13.6115083 36.9472222,19.592037 C37.9821682,23.1631284 37.5545511,26.9991999 35.7586239,30.2547262 C33.9626966,33.5102525 30.9458887,35.9179841 27.3731481,36.9472222 L27.407963,36.9472222 Z" id="Shape" stroke="#333333" stroke-width="2" stroke-linecap="round" stroke-linejoin="round"></path>
                    </g>
                </g>
            </g>
        </g>
    </g>
</svg>