<svg xmlns="http://www.w3.org/2000/svg" viewBox="0 0 60 60"><defs><style>.cls-1{fill:#333;}.cls-2{fill:#fff;}.cls-3{fill:#3bbad1;}</style></defs><title>schedulingIcons3_Lab</title><g id="final"><path class="cls-1" d="M47.88,44.88,37.58,18.42A9.23,9.23,0,0,1,37,15.06V7.61a2.63,2.63,0,0,0,1.31-2.29,2.68,2.68,0,0,0-2.68-2.68H22.93a2.69,2.69,0,0,0-2.69,2.68,2.63,2.63,0,0,0,1.31,2.29v7.45a9.43,9.43,0,0,1-.62,3.36L10.63,44.88a9.15,9.15,0,0,0,8.53,12.47H39.34a9.15,9.15,0,0,0,8.54-12.47Zm-25-40.34H35.58a.78.78,0,0,1,0,1.55H22.93a.78.78,0,0,1,0-1.55ZM45.32,52.3a7.16,7.16,0,0,1-6,3.16H19.16a7.25,7.25,0,0,1-6.75-9.88l10.3-26.46a11.24,11.24,0,0,0,.76-4V8H35v7.06a11.45,11.45,0,0,0,.75,4L46.1,45.57A7.13,7.13,0,0,1,45.32,52.3Z"/><path class="cls-2" d="M36.35,5.32a.77.77,0,0,1-.77.77H22.93a.78.78,0,0,1,0-1.55H35.58A.77.77,0,0,1,36.35,5.32Z"/><path class="cls-2" d="M46.1,45.57,35.79,19.11a11.45,11.45,0,0,1-.75-4V8H23.47v7.06a11.24,11.24,0,0,1-.76,4L12.41,45.57a7.25,7.25,0,0,0,6.75,9.88H39.34a7.26,7.26,0,0,0,6.76-9.88ZM25.61,11.77h2.74a.72.72,0,0,1,0,1.44H25.61a.72.72,0,1,1,0-1.44Zm0,3.57h2.74a.72.72,0,0,1,0,1.44H25.61a.72.72,0,1,1,0-1.44ZM43.27,49.67A3.45,3.45,0,0,1,40,52.36c-2.93.28-15.92,0-19.45,0h-2.4A3.34,3.34,0,0,1,15,47.79l5.1-13.11c.94-2.47,1.59-3.19,2.29-3.72,4.41-3.34,13.19-1.79,17.19,5.88.5,1,1.2,2.36,2.44,5.22C43.13,44.52,44,46.94,43.27,49.67Z"/><path class="cls-1" d="M29.07,12.49a.72.72,0,0,1-.72.72H25.61a.72.72,0,1,1,0-1.44h2.74A.72.72,0,0,1,29.07,12.49Z"/><path class="cls-1" d="M29.07,16.06a.72.72,0,0,1-.72.72H25.61a.72.72,0,1,1,0-1.44h2.74A.72.72,0,0,1,29.07,16.06Z"/><path class="cls-3" d="M43.27,49.67A3.45,3.45,0,0,1,40,52.36c-2.93.28-15.92,0-19.45,0h-2.4A3.34,3.34,0,0,1,15,47.79l5.1-13.11c.94-2.47,1.59-3.19,2.29-3.72,4.41-3.34,13.19-1.79,17.19,5.88.5,1,1.2,2.36,2.44,5.22C43.13,44.52,44,46.94,43.27,49.67Z"/></g></svg>