<svg id="Layer_1" data-name="Layer 1" xmlns="http://www.w3.org/2000/svg" viewBox="0 0 60 60"><defs><style>.cls-1{fill:#fff;}.cls-2{fill:#ebf2f3;}.cls-3{fill:#00bcd3;}.cls-4{fill:none;stroke:#333;stroke-linecap:round;stroke-linejoin:round;stroke-width:2px;}</style></defs><title>dashboardIconMessaging</title><path class="cls-1" d="M54.39,25.86V38.8H5.61V26.1l3.82-3.36V10.91a2.15,2.15,0,0,1,2.09-2.22H25.44l2.43-2.14a3.38,3.38,0,0,1,4.46,0l2.44,2.14H48.49a2.16,2.16,0,0,1,2.09,2.22V22.53Z"/><path class="cls-2" d="M35.19,9.06H25l.42-.37,2.43-2.14a3.38,3.38,0,0,1,4.46,0l2.44,2.14Z"/><polygon class="cls-2" points="9.5 22.68 9.5 27.69 8.27 27.69 5.61 26.1 9.43 22.74 9.5 22.68"/><polygon class="cls-2" points="54.39 25.86 51.4 27.69 50.17 27.69 50.17 22.17 50.58 22.53 54.39 25.86"/><path class="cls-2" d="M50.58,24.3V44.94H9.43V21c4.22,3.66,10.74,7.84,19,8.39,7,.48,13.62-1.81,16.7-2.88a49.69,49.69,0,0,0,5.06-2Z"/><path class="cls-3" d="M54.39,25.86v24.2a5.07,5.07,0,0,1-.72,2.63,3.87,3.87,0,0,1-3.27,2H9.61a3.88,3.88,0,0,1-3.28-2,5.07,5.07,0,0,1-.72-2.63v-24l2.66,1.59,1.16.7L26.76,38.8l.2.12H33l.2-.12L50.58,28.19l.82-.5Z"/><line class="cls-4" x1="8.97" y1="23.04" x2="5.79" y2="25.86"/><path class="cls-4" d="M34.35,8.07l-2-1.82a3.13,3.13,0,0,0-4.41,0l-2,1.82"/><line class="cls-4" x1="54.39" y1="25.86" x2="51.03" y2="22.88"/><path class="cls-4" d="M53.67,52.69,32.15,38.52a3.85,3.85,0,0,0-4.3,0L6.33,52.69"/><path class="cls-4" d="M27,38.92l-.2-.12L9.43,28.39l-1.16-.7L5.61,26.1v24a5.07,5.07,0,0,0,.72,2.63,3.88,3.88,0,0,0,3.28,2H50.4a3.87,3.87,0,0,0,3.27-2,5.07,5.07,0,0,0,.72-2.63V25.86l-3,1.83-.82.5L33.25,38.8l-.2.12"/><path class="cls-4" d="M50.58,27.94v-17a2.16,2.16,0,0,0-2.09-2.22h-37a2.15,2.15,0,0,0-2.09,2.22v17"/><line class="cls-4" x1="40.01" y1="17.01" x2="43.26" y2="17.01"/><line class="cls-4" x1="16.74" y1="17.01" x2="36.14" y2="17.01"/><line class="cls-4" x1="28.28" y1="24.44" x2="43.26" y2="24.44"/><line class="cls-4" x1="16.74" y1="24.44" x2="23.97" y2="24.44"/><line class="cls-4" x1="22.96" y1="31.88" x2="37.04" y2="31.88"/></svg>