<?xml version="1.0" encoding="utf-8"?>
<!-- Generator: Adobe Illustrator 22.0.1, SVG Export Plug-In . SVG Version: 6.00 Build 0)  -->
<svg version="1.1" xmlns="http://www.w3.org/2000/svg" xmlns:xlink="http://www.w3.org/1999/xlink" x="0px" y="0px"
	 viewBox="0 0 60 60" style="enable-background:new 0 0 60 60;" xml:space="preserve">
<style type="text/css">
	.st0{display:none;}
	.st1{fill:#9DDE6E;}
	.st2{fill:#F6EA83;}
	.st3{fill:#EBF2F3;}
	.st4{fill:none;stroke:#333333;stroke-width:1.5;stroke-linecap:round;stroke-linejoin:round;stroke-miterlimit:10;}
	.st5{fill:#FFFFFF;stroke:#333333;stroke-width:1.5;stroke-linecap:round;stroke-linejoin:round;stroke-miterlimit:10;}
	.st6{fill:#00BCD3;}
	.st7{fill:#EBF2F3;stroke:#333333;stroke-width:1.5;stroke-linecap:round;stroke-linejoin:round;stroke-miterlimit:10;}
	.st8{fill:#FFFFFF;}
	.st9{fill:none;stroke:#333333;stroke-width:2;stroke-linecap:round;stroke-linejoin:round;stroke-miterlimit:10;}
	.st10{fill:#EBEEF0;}
	.st11{fill:none;stroke:#D1EBF5;stroke-miterlimit:10;}
	.st12{fill:#F74A2A;}
	.st13{fill:#333333;stroke:#333333;stroke-width:0.5;stroke-miterlimit:10;}
	.st14{fill:#333333;}
	.st15{fill:none;stroke:#2A413D;stroke-miterlimit:10;}
	.st16{fill:#5D5D5D;}
	.st17{opacity:0.1;fill:none;stroke:#5D5D5D;stroke-miterlimit:10;}
	.st18{fill:#44BDD1;}
	.st19{fill:#3E615B;}
	.st20{fill:#54C500;}
	.st21{opacity:0.3;fill:#F6EA83;}
	.st22{fill:none;stroke:#333333;stroke-width:1.75;stroke-linecap:round;stroke-linejoin:round;stroke-miterlimit:10;}
	.st23{fill:none;stroke:#00BCD3;stroke-linecap:round;stroke-linejoin:round;stroke-miterlimit:10;}
	.st24{fill:#FCF9DA;}
	.st25{fill:#E5F8FA;}
	.st26{fill:#F67280;}
	.st27{fill:none;stroke:#004545;stroke-width:2.5;stroke-linecap:round;stroke-linejoin:round;stroke-miterlimit:10;}
	.st28{fill:none;stroke:#333333;stroke-width:1.74;stroke-linecap:round;stroke-linejoin:round;stroke-miterlimit:10;}
	.st29{fill:#BCCB00;}
	.st30{fill:#00566F;}
	.st31{fill:#006752;}
	.st32{fill:#F6EA85;}
	.st33{fill:#FFA000;}
	.st34{fill:#FF7E3A;}
	.st35{fill:#D0DA4C;}
	.st36{fill:#4C889A;}
	.st37{fill:#4CCEE0;}
	.st38{fill:#4C9485;}
	.st39{fill:#88D64C;}
	.st40{fill:#F8F1A9;}
	.st41{fill:#FFBD4C;}
	.st42{fill:#FFA575;}
	.st43{fill:#E4EA99;}
	.st44{fill:#99BBC5;}
	.st45{fill:#99E3ED;}
	.st46{fill:#99C2B9;}
	.st47{fill:#BBE799;}
	.st48{fill:#FBF7CE;}
	.st49{fill:#FFD999;}
	.st50{fill:#FFCBB0;}
	.st51{fill:#F8F9E5;}
	.st52{fill:#E5EEF0;}
	.st53{fill:#E5EFED;}
	.st54{fill:#EEF9E5;}
	.st55{fill:#FEFDF2;}
	.st56{fill:#FFF5E5;}
	.st57{fill:#FFF2EB;}
	.st58{fill:#ED9872;}
	.st59{fill:#E6764A;}
	.st60{fill:#848E00;}
	.st61{fill:#003B4D;}
	.st62{fill:#008293;}
	.st63{fill:#004839;}
	.st64{fill:#3B8900;}
	.st65{fill:#DDD377;}
	.st66{fill:#B27100;}
	.st67{fill:#B25828;}
	.st68{fill:#F26838;}
	.st69{fill:none;stroke:#9DDE6E;stroke-miterlimit:10;}
	.st70{opacity:9.000000e-02;fill:#FFFFFF;}
	.st71{opacity:9.000000e-02;}
	.st72{opacity:0.3;}
	.st73{fill:none;stroke:#333333;stroke-width:2.6;stroke-linecap:round;stroke-linejoin:round;stroke-miterlimit:10;}
	.st74{fill:none;stroke:#333333;stroke-width:1.25;stroke-linecap:round;stroke-linejoin:round;stroke-miterlimit:10;}
	.st75{fill:#333333;stroke:#333333;stroke-width:0.25;stroke-miterlimit:10;}
	.st76{fill:url(#SVGID_1_);}
	.st77{fill:url(#SVGID_2_);}
	.st78{fill:url(#SVGID_3_);}
	.st79{fill:url(#SVGID_4_);}
	.st80{fill:url(#SVGID_5_);}
	.st81{fill:#383838;}
	.st82{fill:url(#SVGID_6_);}
	.st83{fill:url(#SVGID_7_);}
	.st84{opacity:8.000000e-02;fill:#FFFFFF;}
	.st85{fill:#79D249;}
</style>
<g id="Layer_2" class="st0">
</g>
<g id="Layer_1">
	<g>
		<g>
			<path class="st8" d="M55,5.3v49.5c0,0.8-0.9,1.2-1.5,0.8l-2.9-2.1c-0.7-0.5-1.7-0.5-2.4,0l-3.3,2.3c-0.7,0.5-1.7,0.5-2.4,0
				l-3.2-2.3c-0.7-0.5-1.7-0.5-2.4,0l-3.3,2.3c-0.7,0.5-1.7,0.5-2.4,0l-0.6-0.4l-1.4-1L29,54.1l-1-0.7c-0.7-0.5-1.6-0.5-2.4,0
				l-0.3,0.2l-2.6,1.9c0,0-0.1,0-0.1,0.1c-0.6,0.3-1.4-0.1-1.4-0.8v-5.3c-0.4,0-0.8,0.1-1.2,0.1c-0.4,0-0.9,0-1.3-0.1
				c-0.2,0-0.4,0-0.5-0.1c-0.1,0-0.2,0-0.2-0.1c-0.1,0-0.2,0-0.2-0.1V32.6c0.1,0,0.2-0.1,0.3-0.1c0.1,0,0.1,0,0.2-0.1
				c0,0,0.1,0,0.1,0c0.6-0.1,1.2-0.2,1.8-0.2c0.4,0,0.8,0,1.2,0.1v-27c0-0.8,0.9-1.2,1.5-0.8l2.9,2.1c0.7,0.5,1.7,0.5,2.4,0l3.3-2.3
				c0.7-0.5,1.7-0.5,2.4,0l3.3,2.3c0.7,0.5,1.7,0.5,2.4,0l3.3-2.3c0.7-0.5,1.6-0.5,2.4,0l3.3,2.3c0.7,0.5,1.7,0.5,2.4,0l2.9-2.1
				C54.1,4,55,4.5,55,5.3z"/>
		</g>
		<g>
			<g>
				<path class="st3" d="M36.5,40.9c0,5.6-2.8,10.6-7.2,13.5L29,54.1l-1-0.7c-0.7-0.5-1.6-0.5-2.4,0l-0.3,0.2l-2.6,1.9
					c0,0-0.1,0-0.1,0.1c-0.6-0.3-1.1-0.8-1.4-1.1V24.6c3,0.2,5.8,1.2,8.2,2.8C33.6,30.3,36.5,35.2,36.5,40.9z"/>
			</g>
			<g>
				<circle class="st2" cx="13.6" cy="40.9" r="8.6"/>
			</g>
			<g>
				<path class="st14" d="M13.6,50.5c-5.3,0-9.6-4.3-9.6-9.6s4.3-9.6,9.6-9.6s9.6,4.3,9.6,9.6S18.9,50.5,13.6,50.5z M13.6,33.2
					c-4.2,0-7.6,3.4-7.6,7.6s3.4,7.6,7.6,7.6s7.6-3.4,7.6-7.6S17.8,33.2,13.6,33.2z"/>
			</g>
			<g>
				<path class="st14" d="M32.4,57.1c-0.6,0-1.2-0.2-1.8-0.6l-3.3-2.3c-0.4-0.3-0.8-0.3-1.2,0l-2.9,2.1c0,0-0.1,0.1-0.1,0.1L23,56.5
					c-0.6,0.3-1.3,0.3-1.9,0c-0.6-0.4-1-1-1-1.7V5.3c0-0.7,0.4-1.4,1.1-1.7c0.7-0.3,1.4-0.3,2,0.1l2.9,2.1c0.4,0.3,0.8,0.3,1.2,0
					l3.3-2.3c1.1-0.8,2.5-0.8,3.6,0l3.3,2.3c0.4,0.3,0.8,0.3,1.2,0l3.3-2.3c1.1-0.8,2.5-0.8,3.6,0l3.3,2.3c0.4,0.3,0.8,0.3,1.2,0
					l2.9-2.1c0.6-0.4,1.4-0.5,2-0.2c0.7,0.3,1.1,1,1.1,1.8v49.5c0,0.7-0.4,1.4-1.1,1.7c-0.7,0.3-1.4,0.3-2-0.1L50,54.2
					c-0.4-0.3-0.8-0.3-1.2,0l-3.3,2.3c-1.1,0.8-2.5,0.8-3.5,0l-3.3-2.3c-0.4-0.3-0.8-0.3-1.2,0l-3.3,2.3
					C33.7,56.9,33.1,57.1,32.4,57.1z M26.8,52c0.6,0,1.2,0.2,1.8,0.6l3.3,2.3c0.4,0.3,0.8,0.3,1.2,0l3.3-2.3c1.1-0.8,2.5-0.8,3.6,0
					l3.3,2.3c0.4,0.3,0.9,0.3,1.2,0l3.3-2.3c1.1-0.8,2.5-0.8,3.6,0l2.9,2.1L54,5.3h1l-1,0l-2.9,2.1c-1.1,0.8-2.5,0.8-3.5,0l-3.3-2.3
					c-0.4-0.3-0.8-0.3-1.2,0l-3.3,2.3c-1.1,0.8-2.5,0.8-3.6,0L33,5.1c-0.4-0.3-0.8-0.3-1.2,0l-3.3,2.3c-1.1,0.8-2.5,0.8-3.6,0
					l-2.9-2.1l0.1,49.4l2.9-2.1C25.6,52.2,26.2,52,26.8,52z"/>
			</g>
			<g>
				<path class="st14" d="M47.2,17.9h-8.7c-0.6,0-1-0.4-1-1s0.4-1,1-1h8.7c0.6,0,1,0.4,1,1S47.7,17.9,47.2,17.9z"/>
			</g>
			<g>
				<path class="st14" d="M34.1,17.9H29c-0.6,0-1-0.4-1-1s0.4-1,1-1h5.1c0.6,0,1,0.4,1,1S34.6,17.9,34.1,17.9z"/>
			</g>
			<g>
				<path class="st14" d="M47.2,28.4h-2c-0.6,0-1-0.4-1-1s0.4-1,1-1h2c0.6,0,1,0.4,1,1S47.7,28.4,47.2,28.4z"/>
			</g>
			<g>
				<path class="st14" d="M40.8,28.4H29c-0.6,0-1-0.4-1-1s0.4-1,1-1h11.8c0.6,0,1,0.4,1,1S41.4,28.4,40.8,28.4z"/>
			</g>
			<g>
				<path class="st14" d="M47.2,38.8H36.5c-0.6,0-1-0.4-1-1s0.4-1,1-1h10.6c0.6,0,1,0.4,1,1S47.7,38.8,47.2,38.8z"/>
			</g>
			<g>
				<path class="st2" d="M28.6,40.9c0,4.4-3.2,8-7.5,8.5c-0.4,0-0.8,0.1-1.2,0.1c-0.4,0-0.9,0-1.3-0.1c-0.3,0-0.5-0.1-0.8-0.2
					c-0.1,0-0.2,0-0.2-0.1c-0.3-0.1-0.6-0.2-0.9-0.3c-0.2-0.1-0.4-0.1-0.5-0.2c-0.2-0.1-0.3-0.1-0.4-0.2c-0.4-0.2-0.8-0.5-1.2-0.8
					c-0.2-0.2-0.5-0.4-0.7-0.6c-0.1-0.1-0.2-0.2-0.3-0.3c-0.2-0.2-0.4-0.4-0.5-0.7c-0.1-0.1-0.2-0.2-0.2-0.3c0,0-0.1-0.1-0.1-0.1
					c-0.1-0.1-0.2-0.2-0.2-0.4c-0.1-0.2-0.2-0.4-0.3-0.6c-0.1-0.1-0.1-0.2-0.2-0.4c-0.2-0.4-0.3-0.8-0.4-1.2
					c-0.1-0.2-0.1-0.4-0.1-0.6c-0.1-0.3-0.1-0.6-0.1-0.9c0-0.2,0-0.4,0-0.7c0-0.2,0-0.5,0-0.7v-0.1c0-0.2,0-0.3,0.1-0.5
					c0-0.1,0-0.2,0-0.2c0-0.2,0.1-0.4,0.1-0.6c0.1-0.5,0.3-1.1,0.6-1.6c0.1-0.2,0.2-0.3,0.3-0.5c0.1-0.2,0.2-0.4,0.3-0.5
					c0.2-0.2,0.3-0.5,0.5-0.7c0.1-0.2,0.3-0.3,0.4-0.5c0.1,0,0.1-0.1,0.2-0.2c0.1-0.1,0.3-0.3,0.4-0.4c0.1-0.1,0.3-0.3,0.5-0.4
					c0.2-0.2,0.4-0.3,0.7-0.5c0.1-0.1,0.3-0.2,0.4-0.2c0.3-0.2,0.6-0.3,0.9-0.4c0,0,0,0,0,0c0.1-0.1,0.2-0.1,0.4-0.1
					c0.1,0,0.3-0.1,0.4-0.1c0.1,0,0.2-0.1,0.3-0.1c0.1,0,0.2,0,0.3-0.1c0.6-0.1,1.2-0.2,1.8-0.2c0.4,0,0.8,0,1.2,0.1
					C25.4,32.9,28.6,36.5,28.6,40.9z"/>
			</g>
			<g>
				<path class="st14" d="M20,50.5c-0.5,0-1,0-1.5-0.1c-0.2,0-0.4-0.1-0.6-0.1c-0.1,0-0.2,0-0.3-0.1c-0.1,0-0.2,0-0.3-0.1
					c-0.3-0.1-0.6-0.2-0.9-0.3c-0.2-0.1-0.4-0.2-0.6-0.3c-0.2-0.1-0.3-0.2-0.5-0.3c-0.5-0.3-0.9-0.6-1.4-0.9
					c-0.2-0.2-0.5-0.4-0.8-0.7l-0.3-0.3c-0.3-0.3-0.5-0.5-0.7-0.8c-0.1-0.1-0.1-0.2-0.2-0.3c-0.1-0.1-0.1-0.2-0.2-0.2
					c-0.1-0.1-0.2-0.2-0.2-0.4c-0.1-0.2-0.2-0.4-0.3-0.7c-0.1-0.1-0.1-0.3-0.2-0.4c-0.2-0.4-0.3-0.8-0.4-1.3
					c-0.1-0.2-0.1-0.4-0.1-0.7c-0.1-0.3-0.1-0.6-0.1-1c0-0.2,0-0.5,0-0.7c0-0.3,0-0.5,0-0.8c0,0,0-0.1,0-0.1c0-0.2,0-0.4,0.1-0.6
					c0,0,0-0.1,0-0.1c0,0,0-0.1,0-0.1l0-0.1c0-0.2,0.1-0.4,0.1-0.5c0.1-0.6,0.4-1.2,0.6-1.8c0.1-0.2,0.2-0.4,0.3-0.6
					c0.1-0.2,0.2-0.4,0.4-0.6c0.2-0.2,0.3-0.5,0.5-0.7c0.2-0.2,0.3-0.4,0.5-0.5c0,0,0.1-0.1,0.1-0.1c0.2-0.2,0.4-0.4,0.5-0.5
					c0.2-0.1,0.3-0.3,0.5-0.4c0.2-0.2,0.5-0.4,0.8-0.5c0.1-0.1,0.3-0.2,0.5-0.3c0.4-0.2,0.7-0.4,1-0.5c0,0,0.1,0,0.1,0
					c0.1-0.1,0.2-0.1,0.3-0.1c0.2-0.1,0.3-0.1,0.5-0.2c0,0,0.2-0.1,0.3-0.1c0,0,0.1,0,0.2,0c0,0,0.1,0,0.2,0c0,0,0,0,0,0
					c1-0.2,2.1-0.3,3.2-0.1c4.8,0.6,8.3,4.7,8.3,9.5c0,4.8-3.6,8.9-8.3,9.5C20.8,50.4,20.4,50.5,20,50.5z M13.6,45.1
					C13.6,45.1,13.7,45.1,13.6,45.1c0.1,0.2,0.2,0.3,0.3,0.4c0.1,0.2,0.3,0.4,0.5,0.6l0.2,0.2c0.2,0.2,0.4,0.4,0.6,0.6
					c0.3,0.3,0.7,0.5,1.1,0.7c0.1,0.1,0.2,0.1,0.3,0.2c0,0,0.1,0,0.1,0.1c0.1,0.1,0.3,0.1,0.4,0.2c0.2,0.1,0.5,0.2,0.8,0.2
					c0,0,0.1,0,0.1,0c0.1,0,0.1,0,0.2,0l0.1,0c0.2,0,0.3,0.1,0.5,0.1c0.7,0.1,1.4,0.1,2.2,0c3.8-0.5,6.6-3.7,6.6-7.5
					c0-3.8-2.8-7-6.6-7.5c-1-0.1-1.8-0.1-2.6,0.1v0c0,0-0.1,0-0.1,0c0,0-0.1,0-0.1,0c-0.1,0-0.2,0.1-0.3,0.1c0,0-0.1,0-0.1,0
					c-0.1,0-0.2,0.1-0.3,0.1c0,0-0.1,0-0.1,0c-0.1,0-0.2,0.1-0.3,0.1c0,0,0,0,0,0c0,0,0,0,0,0c-0.2,0.1-0.5,0.2-0.8,0.4
					c-0.1,0.1-0.3,0.1-0.4,0.2c-0.2,0.1-0.4,0.3-0.6,0.4c-0.2,0.1-0.3,0.2-0.4,0.3c-0.1,0.1-0.2,0.2-0.4,0.3c0,0-0.1,0.1-0.2,0.2
					c-0.1,0.1-0.2,0.3-0.4,0.4c-0.1,0.2-0.3,0.4-0.4,0.6c-0.1,0.2-0.2,0.3-0.3,0.4c-0.1,0.2-0.2,0.3-0.2,0.5c-0.2,0.5-0.4,1-0.5,1.4
					c0,0.1-0.1,0.3-0.1,0.4l0,0.1c0,0,0,0,0,0.1c0,0,0,0.1,0,0.1c0,0.1,0,0.3-0.1,0.4c0,0,0,0.1,0,0.1c0,0.2,0,0.4,0,0.6
					c0,0.2,0,0.4,0,0.6c0,0.3,0.1,0.5,0.1,0.8c0,0.2,0.1,0.3,0.1,0.5c0.1,0.4,0.2,0.8,0.4,1.1c0.1,0.1,0.1,0.2,0.1,0.3
					c0.1,0.2,0.2,0.4,0.3,0.5c0.1,0.1,0.1,0.2,0.2,0.3C13.6,45,13.6,45,13.6,45.1z M13.6,45C13.6,45,13.6,45,13.6,45
					C13.6,45,13.6,45,13.6,45z M18.4,33.4C18.4,33.4,18.4,33.4,18.4,33.4C18.4,33.4,18.4,33.4,18.4,33.4L18.4,33.4z"/>
			</g>
			<g>
				<g>
					<path class="st14" d="M22.2,40.7c-0.3-0.2-0.7-0.3-1.1-0.5c-0.2,0-0.3-0.1-0.5-0.1v-1.9c0.2,0,0.3,0.1,0.5,0.1
						c0.1,0,0.2,0.1,0.3,0.1c0.2,0.1,0.3,0.2,0.5,0.3c0,0,0,0,0,0c0.1,0.1,0.3,0.2,0.4,0.2c0.2,0,0.4-0.1,0.5-0.2
						c0.2-0.2,0.2-0.6,0-0.8c-0.4-0.5-1-0.7-1.6-0.9v0c-0.1,0-0.2,0-0.2,0c-0.2,0-0.3-0.1-0.5-0.1v-0.4c0-0.3-0.2-0.5-0.5-0.5
						c-0.3,0-0.5,0.2-0.5,0.5V37c-0.8,0.1-1.6,0.5-2,1.2c-0.2,0.3-0.3,0.6-0.3,1c0,0.3,0,0.6,0.2,0.8c0,0.1,0.1,0.1,0.1,0.2
						c0.2,0.4,0.7,0.7,1.1,0.9c0.3,0.1,0.6,0.2,0.9,0.3v2.1c-0.5-0.1-0.9-0.2-1.3-0.5c-0.2-0.2-0.4-0.4-0.7-0.5c0,0,0,0-0.1,0
						c-0.2,0-0.5,0-0.6,0.2c-0.4,0.5,0.2,1,0.6,1.3c0.1,0,0.1,0.1,0.2,0.1c0.6,0.3,1.2,0.5,1.8,0.6v0.4c0,0.3,0.2,0.5,0.5,0.5
						c0.3,0,0.5-0.2,0.5-0.5v-0.4c0.2,0,0.3,0,0.5-0.1c0.1,0,0.2,0,0.2-0.1c0.4-0.1,0.8-0.3,1.2-0.6c0.4-0.4,0.6-1,0.6-1.5
						c0-0.2,0-0.5-0.1-0.7C22.9,41.3,22.6,41,22.2,40.7z M19.7,39.9c0,0-0.1,0-0.1,0c-0.4-0.1-0.8-0.3-0.8-0.8
						c0-0.6,0.4-0.8,0.9-0.9V39.9z M21.1,43.4c-0.1,0.1-0.3,0.1-0.4,0.1c0,0,0,0-0.1,0v-1.9c0.1,0,0.2,0.1,0.3,0.1c0,0,0.1,0,0.1,0
						c0.3,0.1,0.6,0.4,0.6,0.8C21.8,42.9,21.5,43.2,21.1,43.4z"/>
				</g>
			</g>
		</g>
	</g>
</g>
</svg>
