<svg id="Layer_1" data-name="Layer 1" xmlns="http://www.w3.org/2000/svg" viewBox="0 0 60 60"><defs><style>.cls-1{fill:#ebf2f3;}.cls-2{fill:#f6ea83;}.cls-3{fill:#fff;}.cls-4{fill:#333;}.cls-5{fill:#00bcd3;}</style></defs><title>fillPerscriptionIcon</title><path class="cls-1" d="M8,5.8V4.73a2.94,2.94,0,0,1,2.94-2.94h25a2.94,2.94,0,0,1,2.94,2.94V5.8"/><rect class="cls-2" x="7.34" y="10.92" width="32.18" height="43.88" rx="2.47" ry="2.47"/><path class="cls-3" d="M7.34,24.47H30.77A3.22,3.22,0,0,1,34,27.69V50.47a0,0,0,0,1,0,0H7.34a0,0,0,0,1,0,0v-26A0,0,0,0,1,7.34,24.47Z"/><path class="cls-4" d="M37,55.79H9.81a3.48,3.48,0,0,1-3.47-3.47V13.39A3.48,3.48,0,0,1,9.81,9.92H37a3.48,3.48,0,0,1,3.47,3.47V52.32A3.48,3.48,0,0,1,37,55.79ZM9.81,11.92a1.47,1.47,0,0,0-1.47,1.47V52.32a1.47,1.47,0,0,0,1.47,1.47H37a1.47,1.47,0,0,0,1.47-1.47V13.39A1.47,1.47,0,0,0,37,11.92Z"/><rect class="cls-3" x="4.8" y="5.8" width="37.25" height="9.6" rx="2.47" ry="2.47"/><path class="cls-4" d="M39.58,16.4H7.28A3.48,3.48,0,0,1,3.8,12.92V8.27A3.48,3.48,0,0,1,7.28,4.8H39.58a3.48,3.48,0,0,1,3.47,3.47v4.65A3.48,3.48,0,0,1,39.58,16.4ZM7.28,6.8A1.47,1.47,0,0,0,5.8,8.27v4.65A1.47,1.47,0,0,0,7.28,14.4H39.58a1.47,1.47,0,0,0,1.47-1.47V8.27A1.47,1.47,0,0,0,39.58,6.8Z"/><path class="cls-4" d="M38.88,6.8a1,1,0,0,1-1-1V4.73a1.94,1.94,0,0,0-1.94-1.94h-25A1.94,1.94,0,0,0,9,4.73V5.8a1,1,0,0,1-2,0V4.73A4,4,0,0,1,10.92.79h25a4,4,0,0,1,3.94,3.94V5.8A1,1,0,0,1,38.88,6.8Z"/><path class="cls-4" d="M24.37,10.29a.87.87,0,0,1-.87-.87V6.17a.87.87,0,0,1,1.74,0V9.42A.87.87,0,0,1,24.37,10.29Z"/><path class="cls-4" d="M18.15,11.79a.87.87,0,0,1-.87-.87V6.16a.87.87,0,0,1,1.74,0v4.76A.87.87,0,0,1,18.15,11.79Z"/><path class="cls-4" d="M10.78,10.25a.87.87,0,0,1-.87-.87V6.08a.87.87,0,1,1,1.74,0v3.3A.87.87,0,0,1,10.78,10.25Z"/><path class="cls-4" d="M36.06,12.21a.87.87,0,0,1-.87-.87V6.42a.87.87,0,1,1,1.74,0v4.92A.87.87,0,0,1,36.06,12.21Z"/><path class="cls-4" d="M30.45,10.7a.87.87,0,0,1-.87-.87v-4a.87.87,0,1,1,1.74,0v4A.87.87,0,0,1,30.45,10.7Z"/><path class="cls-4" d="M17.84,35.49c-.35-.47-.72-1-1.08-1.53-.15-.21-.29-.43-.44-.63l1.47-2.07a.06.06,0,0,0,0-.05H16.24l-.71,1.11-.69-1.05A1.81,1.81,0,0,0,16,29.52a1.91,1.91,0,0,0-2-2H11.57a.05.05,0,0,0-.05.05v6.11a0,0,0,0,0,.05,0h1.36a0,0,0,0,0,0,0V31.49h.36l.15.22,1.16,1.68-.21.3-1.24,1.8a0,0,0,0,0,0,.05,0,0,0,0,0,0,0h1.44a0,0,0,0,0,0,0c.1-.15.21-.31.32-.49s.3-.47.43-.66l.76,1.15a0,0,0,0,0,0,0H17.8l0,0A.06.06,0,0,0,17.84,35.49ZM13,28.83h.76c.52,0,.81.26.81.7s-.31.69-.81.69H13Z"/><path class="cls-3" d="M51.26,58.26l-10.35.08A4.87,4.87,0,0,1,36,53.49h0a4.87,4.87,0,0,1,4.84-4.9l10.35-.08a4.87,4.87,0,0,1,4.9,4.84h0A4.87,4.87,0,0,1,51.26,58.26Z"/><path class="cls-5" d="M56.1,53.37v0a4.88,4.88,0,0,1-4.84,4.88l-5.17,0A12.51,12.51,0,0,0,46,48.57l5.17,0A4.86,4.86,0,0,1,56.1,53.37Z"/><path class="cls-4" d="M40.88,59.21a5.75,5.75,0,0,1,0-11.49l10.35-.08h0a5.75,5.75,0,0,1,0,11.49l-10.35.08Zm10.35-9.82h0l-10.35.08a4,4,0,0,0,0,8h0l10.35-.08h0a4,4,0,0,0,0-8Z"/><path class="cls-3" d="M30.53,48.63l9.31-4.52a4.87,4.87,0,0,1,6.51,2.26h0a4.87,4.87,0,0,1-2.26,6.51L34.78,57.4a4.87,4.87,0,0,1-6.51-2.26h0A4.87,4.87,0,0,1,30.53,48.63Z"/><path class="cls-5" d="M28.27,55.12v0a4.88,4.88,0,0,1,2.28-6.49l4.66-2.25a12.51,12.51,0,0,0,4.24,8.76l-4.65,2.26A4.86,4.86,0,0,1,28.27,55.12Z"/><path class="cls-4" d="M32.66,58.76a5.75,5.75,0,0,1-2.51-10.92l9.32-4.52a5.75,5.75,0,0,1,5,10.35l-9.31,4.52A5.73,5.73,0,0,1,32.66,58.76ZM42,44.49a4,4,0,0,0-1.74.4l-9.31,4.52h0a4,4,0,0,0,3.48,7.2l9.31-4.52A4,4,0,0,0,42,44.49ZM30.53,48.63h0Z"/><path class="cls-4" d="M26.14,41.44H19.2a.88.88,0,0,1,0-1.75h6.94a.88.88,0,1,1,0,1.75Z"/><path class="cls-4" d="M15.16,41.44H12.52a.88.88,0,0,1,0-1.75h2.64a.87.87,0,0,1,0,1.75Z"/><path class="cls-4" d="M18.32,45.89h-5.8a.88.88,0,0,1,0-1.75h5.8a.88.88,0,0,1,0,1.75Z"/><path class="cls-4" d="M23.32,45.89h-2a.88.88,0,0,1,0-1.75h2a.88.88,0,0,1,0,1.75Z"/></svg>