<svg id="Layer_1" data-name="Layer 1" xmlns="http://www.w3.org/2000/svg" viewBox="0 0 60 60"><defs><style>.cls-1{fill:#fff;}.cls-2{fill:#00bcd3;}.cls-3{fill:#f6ea83;}.cls-4{fill:none;stroke:#333;stroke-linecap:round;stroke-linejoin:round;stroke-width:2px;}.cls-5{fill:#ebf2f3;}.cls-6{fill:#333;}</style></defs><title>dashboardIconFindCare</title><path class="cls-1" d="M3.68,48.79H44.95V2H13.52l-.23.25a5,5,0,0,1-.53.7c-2.4,2.63-4.68,5.41-7.21,7.92-1.08,1.06-2.2,2.07-3.33,3.08v33.9A4.42,4.42,0,0,1,3.68,48.79Z"/><path class="cls-2" d="M2.07,14.51H11a4,4,0,0,0,4-4V1.64Z"/><path class="cls-3" d="M51.21,56.74a6.05,6.05,0,0,1-.39-.47l-4.1-5.37-2-2.68-1.07-1.4A2.35,2.35,0,1,1,47,43.6l1.34,1.14,2.57,2.18,5.15,4.38c2.08,1.76,2.51,4.69.91,6.2S52.9,58.52,51.21,56.74Z"/><path class="cls-4" d="M51.21,56.74a6.05,6.05,0,0,1-.39-.47l-4.1-5.37-2-2.68-1.07-1.4A2.35,2.35,0,1,1,47,43.6l1.34,1.14,2.57,2.18,5.15,4.38c2.08,1.76,2.51,4.69.91,6.2S52.9,58.52,51.21,56.74Z"/><path class="cls-4" d="M51.21,56.74a6.05,6.05,0,0,1-.39-.47l-4.1-5.37-2-2.68-1.07-1.4A2.35,2.35,0,1,1,47,43.6l1.34,1.14,2.57,2.18,5.15,4.38c2.08,1.76,2.51,4.69.91,6.2S52.9,58.52,51.21,56.74Z"/><circle class="cls-1" cx="37.32" cy="36.41" r="15.32"/><circle class="cls-5" cx="37.32" cy="36.41" r="12.61"/><circle class="cls-4" cx="37.32" cy="36.41" r="15.32"/><path class="cls-4" d="M28.72,49.08H6a4,4,0,0,1-4-4V14.51"/><path class="cls-4" d="M14.92,1.64H41.56a4,4,0,0,1,4,4v17"/><path class="cls-4" d="M9.73,25H20.48"/><path class="cls-4" d="M21.09,15.45H20"/><line class="cls-4" x1="36.96" y1="15.45" x2="24.51" y2="15.45"/><path class="cls-4" d="M16.11,35.59h1.25"/><path class="cls-4" d="M9.73,35.59h3.18"/><path class="cls-6" d="M43.74,42.1a6.51,6.51,0,0,0-12.83,0h0a7,7,0,0,0-.09,1.07v.51a.31.31,0,0,0,.31.31c1.88.18,3.95.3,6.18.3s4.32-.12,6.21-.3a.31.31,0,0,0,.22-.09.31.31,0,0,0,.09-.22v-.51A7.08,7.08,0,0,0,43.74,42.1Z"/><circle class="cls-6" cx="37.33" cy="31.23" r="3.39"/><path class="cls-4" d="M2.07,14.51H11a4,4,0,0,0,4-4V1.64Z"/></svg>