<svg id="Layer_1" data-name="Layer 1" xmlns="http://www.w3.org/2000/svg" viewBox="0 0 63.66 60"><defs><style>.cls-1{fill:#9dde6e;}.cls-2{fill:#00bcd3;}.cls-3{fill:#333;}.cls-4{fill:#ebf2f3;}.cls-5{fill:#f6ea83;}.cls-6{fill:#f74a2a;}</style></defs><title>scheduleApptIcon</title><rect class="cls-1" x="39.66" y="28.81" width="5.47" height="5.47" rx="2.74" ry="2.74"/><rect class="cls-1" x="10.65" y="41.66" width="5.47" height="5.47" rx="2.74" ry="2.74"/><path class="cls-2" d="M5.69,11.93H50a4.21,4.21,0,0,1,4.21,4.21v6.42a0,0,0,0,1,0,0H1.48a0,0,0,0,1,0,0V16.14A4.21,4.21,0,0,1,5.69,11.93Z"/><path class="cls-3" d="M48,55.9H7.75A7.27,7.27,0,0,1,.48,48.64V18.19a7.27,7.27,0,0,1,7.27-7.26H48a7.27,7.27,0,0,1,7.27,7.26V48.64A7.27,7.27,0,0,1,48,55.9Zm-40.22-43a5.27,5.27,0,0,0-5.27,5.26V48.64A5.27,5.27,0,0,0,7.75,53.9H48a5.27,5.27,0,0,0,5.27-5.26V18.19A5.27,5.27,0,0,0,48,12.93Z"/><path class="cls-3" d="M39.31,12.28V8.47a1.11,1.11,0,0,0-1.11-1.1H38a1.11,1.11,0,0,0-1.12,1.1v6.9A1.12,1.12,0,0,0,38,16.49h.17a1.12,1.12,0,0,0,1.11-1.12V12.28Z"/><path class="cls-3" d="M38.21,16.61H38a1.24,1.24,0,0,1-1.24-1.24V8.47A1.23,1.23,0,0,1,38,7.24h.18a1.24,1.24,0,0,1,1.23,1.23v6.9A1.24,1.24,0,0,1,38.21,16.61ZM38,7.49a1,1,0,0,0-1,1v6.9a1,1,0,0,0,1,1h.18a1,1,0,0,0,1-1V8.47a1,1,0,0,0-1-1Z"/><path class="cls-3" d="M16.52,12.28V8.47a1.11,1.11,0,0,1,1.11-1.1h.18a1.11,1.11,0,0,1,1.11,1.1v6.9a1.11,1.11,0,0,1-1.11,1.12h-.18a1.11,1.11,0,0,1-1.11-1.12V12.28Z"/><path class="cls-3" d="M17.81,16.61h-.18a1.24,1.24,0,0,1-1.23-1.24V8.47a1.23,1.23,0,0,1,1.23-1.23h.18A1.23,1.23,0,0,1,19,8.47v6.9A1.24,1.24,0,0,1,17.81,16.61Zm-.18-9.12a1,1,0,0,0-1,1v6.9a1,1,0,0,0,1,1h.18a1,1,0,0,0,1-1V8.47a1,1,0,0,0-1-1Z"/><rect class="cls-4" x="10.65" y="28.81" width="5.47" height="5.47" rx="2.74" ry="2.74"/><rect class="cls-4" x="25.18" y="28.81" width="5.47" height="5.47" rx="2.74" ry="2.74"/><rect class="cls-4" x="25.18" y="41.66" width="5.47" height="5.47" rx="2.74" ry="2.74"/><rect class="cls-4" x="39.66" y="41.66" width="5.47" height="5.47" rx="2.74" ry="2.74"/><path class="cls-3" d="M42.39,35a3.49,3.49,0,1,1,3.49-3.48A3.48,3.48,0,0,1,42.39,35Zm0-5.47a2,2,0,1,0,2,2A2,2,0,0,0,42.39,29.56Z"/><path class="cls-3" d="M13.38,47.88a3.49,3.49,0,1,1,3.49-3.48A3.48,3.48,0,0,1,13.38,47.88Zm0-5.47a2,2,0,1,0,2,2A2,2,0,0,0,13.38,42.41Z"/><path class="cls-3" d="M13.38,35a3.49,3.49,0,1,1,3.49-3.48A3.48,3.48,0,0,1,13.38,35Zm0-5.47a2,2,0,1,0,2,2A2,2,0,0,0,13.38,29.56Z"/><path class="cls-3" d="M27.92,35a3.49,3.49,0,1,1,3.48-3.48A3.48,3.48,0,0,1,27.92,35Zm0-5.47a2,2,0,1,0,2,2A2,2,0,0,0,27.92,29.56Z"/><path class="cls-3" d="M27.92,47.88A3.49,3.49,0,1,1,31.4,44.4,3.48,3.48,0,0,1,27.92,47.88Zm0-5.47a2,2,0,1,0,2,2A2,2,0,0,0,27.92,42.41Z"/><path class="cls-3" d="M42.39,47.88a3.49,3.49,0,1,1,3.49-3.48A3.48,3.48,0,0,1,42.39,47.88Zm0-5.47a2,2,0,1,0,2,2A2,2,0,0,0,42.39,42.41Z"/><polygon class="cls-5" points="48.86 43.33 42.39 44.21 44.17 37.93 52.76 30.45 57.45 35.85 48.86 43.33"/><path class="cls-6" d="M58.06,27.37h2.14a2.5,2.5,0,0,1,2.5,2.5v2.07a0,0,0,0,1,0,0H55.56a0,0,0,0,1,0,0V29.87A2.5,2.5,0,0,1,58.06,27.37Z" transform="translate(42.73 -34.43) rotate(49.01)"/><rect class="cls-4" x="54.73" y="28.58" width="3.05" height="7.15" transform="translate(-7.3 44.78) rotate(-40.99)"/><polygon class="cls-3" points="46.05 43.71 42.39 44.21 43.4 40.66 46.05 43.71"/><path class="cls-3" d="M42.39,45.08a.85.85,0,0,1-.66-.3.88.88,0,0,1-.18-.81l1.78-6.28a.81.81,0,0,1,.26-.42l8.59-7.48a1,1,0,0,1,.64-.21.91.91,0,0,1,.6.3l4.69,5.4A.86.86,0,0,1,58,36.51L49.43,44a.84.84,0,0,1-.45.2l-6.47.89Zm6.47-1.75h0Zm-3.92-4.91L43.6,43.16l4.88-.66,7.73-6.73-3.54-4.08Z"/><path class="cls-3" d="M59.75,34.72a.88.88,0,0,1-.66-.3L54.4,29a.87.87,0,0,1,.09-1.23l1.56-1.36a3.37,3.37,0,0,1,2.45-.82,3.43,3.43,0,0,1,2.32,1.16l1.4,1.62a3.39,3.39,0,0,1-.33,4.77l-1.56,1.35A.9.9,0,0,1,59.75,34.72ZM56.3,28.54l3.54,4.08.9-.79a1.6,1.6,0,0,0,.56-1.11,1.58,1.58,0,0,0-.4-1.18h0l-1.4-1.62a1.64,1.64,0,0,0-1.12-.56,1.55,1.55,0,0,0-1.18.4Z"/><path class="cls-3" d="M57.45,36.73h-.06a.91.91,0,0,1-.6-.3L52.1,31a.88.88,0,0,1,.08-1.24l2.31-2a.86.86,0,0,1,.63-.21.82.82,0,0,1,.6.3l4.69,5.4a.87.87,0,0,1-.08,1.23l-2.31,2A.87.87,0,0,1,57.45,36.73ZM54,30.54l3.55,4.08,1-.86L55,29.69Z"/></svg>