<?xml version="1.0" encoding="UTF-8"?>
<svg width="70px" height="64px" viewBox="0 0 70 64" version="1.1" xmlns="http://www.w3.org/2000/svg" xmlns:xlink="http://www.w3.org/1999/xlink">
    <!-- Generator: Sketch 51.2 (57519) - http://www.bohemiancoding.com/sketch -->
    <title>Icon / 70 x 64 / My Records</title>
    <desc>Created with Sketch.</desc>
    <defs></defs>
    <g id="Icon-/-70-x-64-/-My-Records" stroke="none" stroke-width="1" fill="none" fill-rule="evenodd">
        <g id="self" transform="translate(20.000000, 8.000000)" fill-rule="nonzero">
            <path d="M29.3466667,39.4733333 C30.07,41.23 29.2433333,43.1933333 27.4866667,43.9166667 C24.18,45.26 19.9433333,46.19 15.2933333,46.19 C10.6433333,46.19 6.30333333,45.3633333 3.1,43.9166667 C1.34333333,43.1933333 0.516666667,41.23 1.24,39.4733333 C3.51333333,33.8933333 8.88666667,29.9666667 15.2933333,29.9666667 C21.7,29.9666667 27.1766667,33.8933333 29.3466667,39.4733333 Z" id="Shape" fill="#EBF2F3"></path>
            <path d="M15.2933333,46.81 C10.7466667,46.81 6.30333333,45.9833333 2.79,44.5366667 C0.723333333,43.6066667 -0.31,41.23 0.516666667,39.1633333 C2.99666667,33.0666667 8.78333333,29.2433333 15.2933333,29.2433333 C21.8033333,29.2433333 27.59,33.17 30.07,39.1633333 C30.8966667,41.23 29.8633333,43.71 27.7966667,44.5366667 C24.3866667,46.0866667 19.9433333,46.81 15.2933333,46.81 Z M15.2933333,30.69 C9.40333333,30.69 4.13333333,34.2033333 1.96333333,39.68 C1.44666667,41.0233333 2.06666667,42.5733333 3.41,43.09 C6.71666667,44.5366667 10.9533333,45.26 15.2933333,45.26 C19.6333333,45.26 23.87,44.5366667 27.1766667,43.09 C28.52,42.5733333 29.14,41.0233333 28.6233333,39.68 C26.4533333,34.2033333 21.1833333,30.69 15.2933333,30.69 Z" id="Shape" fill="#333333"></path>
            <path d="M17.8766667,27.6933333 L17.8766667,31.8266667 C17.8766667,33.2733333 15.2933333,34.41 15.2933333,34.41 C15.2933333,34.41 12.71,33.2733333 12.71,31.8266667 L12.71,27.6933333" id="Shape" fill="#FFFFFF"></path>
            <path d="M17.8766667,27.6933333 L17.8766667,31.8266667 C17.8766667,33.2733333 15.2933333,34.41 15.2933333,34.41 C15.2933333,34.41 12.71,33.2733333 12.71,31.8266667 L12.71,27.6933333" id="Shape" fill="#FFF5E5"></path>
            <path d="M15.2933333,35.1333333 C15.19,35.1333333 15.0866667,35.1333333 14.9833333,35.03 C14.4666667,34.8233333 11.9866667,33.5833333 11.9866667,31.8266667 L11.9866667,27.6933333 C11.9866667,27.28 12.2966667,26.97 12.71,26.97 C13.1233333,26.97 13.4333333,27.28 13.4333333,27.6933333 L13.4333333,31.8266667 C13.4333333,32.3433333 14.3633333,33.0666667 15.19,33.5833333 C16.0166667,33.17 16.9466667,32.4466667 16.9466667,31.8266667 L16.9466667,27.6933333 C16.9466667,27.28 17.2566667,26.97 17.67,26.97 C18.0833333,26.97 18.3933333,27.28 18.3933333,27.6933333 L18.3933333,31.8266667 C18.3933333,33.5833333 15.9133333,34.8233333 15.3966667,35.03 C15.5,35.1333333 15.3966667,35.1333333 15.2933333,35.1333333 Z" id="Shape" fill="#333333"></path>
            <path d="M26.8666667,17.98 C26.5566667,23.25 22.2166667,27.4866667 16.9466667,27.6933333 C16.43,27.6933333 15.9133333,27.6933333 15.3966667,27.6933333 C14.88,27.6933333 14.3633333,27.6933333 13.8466667,27.6933333 C8.37,27.59 4.03,23.1466667 3.82333333,17.7733333 C3.82333333,17.4633333 3.82333333,17.2566667 3.82333333,16.9466667 C3.82333333,15.81 3.82333333,15.6033333 3.82333333,14.57 C4.03,9.09333333 8.47333333,4.75333333 13.95,4.65 C14.4666667,4.65 15.0866667,4.65 15.7066667,4.65 C16.12,4.65 16.6366667,4.65 17.05,4.65 C22.4233333,4.85666667 26.66,9.09333333 26.97,14.4666667 C26.97,15.2933333 27.0733333,15.19 26.97,16.12 C26.8666667,16.74 26.8666667,17.36 26.8666667,17.98 Z" id="Shape" fill="#FFF5E5"></path>
            <path d="M15.19,28.4166667 C14.6733333,28.4166667 14.26,28.4166667 13.7433333,28.4166667 C7.95666667,28.21 3.20333333,23.56 2.99666667,17.7733333 C2.99666667,17.4633333 2.99666667,17.2566667 2.99666667,16.9466667 C2.99666667,15.81 2.99666667,15.6033333 2.99666667,14.6733333 L2.99666667,14.4666667 C3.20333333,8.68 7.95666667,4.03 13.8466667,3.82333333 C14.4666667,3.82333333 14.9833333,3.82333333 15.6033333,3.82333333 C16.12,3.82333333 16.5333333,3.82333333 16.9466667,3.82333333 C22.63,4.03 27.28,8.68 27.59,14.3633333 C27.59,14.57 27.59,14.7766667 27.59,14.88 C27.59,15.19 27.59,15.3966667 27.59,16.0166667 C27.59,16.6366667 27.59,17.36 27.4866667,17.98 C27.4866667,17.98 27.4866667,17.98 27.4866667,17.98 C27.1766667,23.6633333 22.63,28.1066667 16.8433333,28.3133333 C16.3266667,28.3133333 15.81,28.3133333 15.2933333,28.3133333 C15.2933333,28.4166667 15.2933333,28.4166667 15.19,28.4166667 Z M15.19,5.37333333 C14.7766667,5.37333333 14.3633333,5.37333333 13.8466667,5.37333333 C8.78333333,5.47666667 4.65,9.50666667 4.44333333,14.57 L4.44333333,14.7766667 C4.44333333,15.7066667 4.44333333,15.9133333 4.44333333,16.9466667 C4.44333333,17.2566667 4.44333333,17.4633333 4.44333333,17.7733333 C4.65,22.8366667 8.68,26.8666667 13.7433333,26.97 C14.26,26.97 14.7766667,26.97 15.2933333,26.97 C15.81,26.97 16.3266667,26.97 16.8433333,26.97 C21.8033333,26.7633333 25.8333333,22.94 26.04,17.98 C26.04,17.36 26.1433333,16.74 26.1433333,16.12 C26.1433333,15.5 26.1433333,15.3966667 26.1433333,15.0866667 C26.1433333,14.9833333 26.1433333,14.7766667 26.1433333,14.57 C25.9366667,9.61 21.9066667,5.58 16.9466667,5.47666667 C16.5333333,5.47666667 16.0166667,5.47666667 15.6033333,5.47666667 C15.3966667,5.37333333 15.2933333,5.37333333 15.19,5.37333333 Z" id="Shape" fill="#333333"></path>
            <path d="M17.7733333,23.3533333 C17.7733333,23.3533333 17.7733333,23.3533333 17.7733333,23.3533333 C17.7733333,24.8 16.6366667,25.8333333 15.3966667,25.8333333 C14.0533333,25.8333333 12.9166667,24.6966667 12.9166667,23.3533333 C12.9166667,23.3533333 12.9166667,23.3533333 12.9166667,23.25 C12.9166667,23.25 12.9166667,23.25 12.9166667,23.25 C12.9166667,23.1466667 13.02,23.1466667 13.02,23.1466667 L17.5666667,23.1466667 C17.67,23.1466667 17.7733333,23.25 17.7733333,23.3533333 Z" id="Shape" fill="#333333"></path>
            <path d="M25.6266667,3.61666667 C24.2833333,2.79 22.5266667,2.58333333 20.9766667,2.68666667 C20.15,2.79 19.3233333,2.99666667 18.6,3.20333333 C18.4966667,3.20333333 18.3933333,3.30666667 18.29,3.30666667 C18.3933333,2.99666667 18.6,2.68666667 18.91,2.37666667 C19.3233333,1.86 19.84,1.55 20.2533333,1.34333333 C18.7033333,1.34333333 16.5333333,1.44666667 14.0533333,2.06666667 C11.2633333,2.79 9.19666667,3.92666667 7.85333333,4.75333333 C7.95666667,4.13333333 8.16333333,3.51333333 8.26666667,2.89333333 C7.44,3.30666667 5.27,4.65 4.03,7.44 C2.37666667,10.85 3.20333333,13.95 3.41,14.7766667 C3.92666667,15.0866667 4.75333333,15.5 5.47666667,15.19 C5.89,14.9833333 5.99333333,14.6733333 6.2,14.26 C6.71666667,12.9166667 7.33666667,11.78 8.26666667,10.7466667 C12.09,12.09 15.3966667,12.5033333 17.67,12.5033333 C19.53,12.6066667 21.4933333,12.6066667 23.4566667,12.2966667 C24.5933333,12.09 25.73,11.5733333 26.66,10.85 C27.3833333,10.23 27.7966667,9.40333333 28.1066667,8.47333333 C28.3133333,7.64666667 28.3133333,6.82 28.0033333,5.99333333 C27.28,4.96 26.5566667,4.13333333 25.6266667,3.61666667 Z" id="Shape" fill="#B27100"></path>
            <path d="M10.6433333,19.22 C10.6433333,19.7366667 10.23,20.2533333 9.61,20.2533333 C8.99,20.2533333 8.57666667,19.84 8.57666667,19.22 C8.57666667,18.7033333 8.99,18.1866667 9.61,18.1866667 C10.23,18.1866667 10.6433333,18.6 10.6433333,19.22 Z" id="Shape" fill="#333333"></path>
            <path d="M22.2166667,19.22 C22.2166667,19.7366667 21.8033333,20.2533333 21.1833333,20.2533333 C20.6666667,20.2533333 20.15,19.84 20.15,19.22 C20.15,18.7033333 20.5633333,18.1866667 21.1833333,18.1866667 C21.7,18.1866667 22.2166667,18.6 22.2166667,19.22 Z" id="Shape" fill="#333333"></path>
            <path d="M4.75333333,16.12 C4.13333333,16.12 3.51333333,15.9133333 2.89333333,15.5 C2.68666667,15.3966667 2.58333333,15.2933333 2.58333333,15.0866667 C2.27333333,13.8466667 1.55,10.6433333 3.20333333,7.23333333 C4.54666667,4.54666667 6.61333333,2.99666667 7.75,2.37666667 C7.95666667,2.27333333 8.37,2.27333333 8.57666667,2.48 C8.78333333,2.68666667 8.88666667,2.99666667 8.88666667,3.20333333 L8.88666667,3.41 C10.4366667,2.58333333 12.09,1.96333333 13.8466667,1.44666667 C15.9133333,0.93 18.0833333,0.62 20.2533333,0.723333333 C20.5633333,0.723333333 20.8733333,0.93 20.9766667,1.34333333 C21.08,1.55 20.9766667,1.86 20.77,2.06666667 C20.8733333,2.06666667 20.8733333,2.06666667 20.9766667,2.06666667 C22.7333333,1.86 24.6966667,2.27333333 26.04,3.1 C27.1766667,3.82333333 28.1066667,4.75333333 28.52,5.89 C28.83,6.82 28.9333333,7.85333333 28.6233333,8.78333333 C28.3133333,9.81666667 27.7966667,10.7466667 26.97,11.47 C26.04,12.2966667 24.9033333,12.8133333 23.4566667,13.1233333 C21.5966667,13.5366667 19.7366667,13.4333333 17.98,13.33 L17.5666667,13.33 C14.4666667,13.2266667 11.47,12.71 8.47333333,11.6766667 C7.85333333,12.4 7.33666667,13.33 6.82,14.57 C6.71666667,14.9833333 6.40666667,15.6033333 5.78666667,15.9133333 C5.37333333,16.0166667 5.06333333,16.12 4.75333333,16.12 Z M3.82333333,14.3633333 C4.34,14.57 4.75333333,14.6733333 4.96,14.57 C5.06333333,14.4666667 5.16666667,14.26 5.27,14.0533333 C5.78666667,12.9166667 6.40666667,11.5733333 7.54333333,10.3333333 C7.75,10.1266667 8.06,10.0233333 8.37,10.1266667 C11.3666667,11.16 14.4666667,11.78 17.4633333,11.8833333 L17.8766667,11.8833333 C19.6333333,11.8833333 21.39,11.9866667 23.0433333,11.6766667 C24.18,11.47 25.11,11.0566667 25.8333333,10.3333333 C26.4533333,9.81666667 26.8666667,9.09333333 27.0733333,8.37 C27.28,7.64666667 27.28,6.92333333 27.0733333,6.30333333 C26.7633333,5.47666667 26.1433333,4.75333333 25.3166667,4.23666667 C25.3166667,4.23666667 25.3166667,4.23666667 25.3166667,4.23666667 C24.18,3.61666667 22.63,3.30666667 21.08,3.41 C20.3566667,3.51333333 19.6333333,3.61666667 18.91,3.92666667 C18.8066667,3.92666667 18.7033333,4.03 18.6,4.03 C18.29,4.13333333 17.98,4.03 17.7733333,3.82333333 C17.5666667,3.61666667 17.5666667,3.30666667 17.67,2.99666667 C17.7733333,2.68666667 17.98,2.48 18.1866667,2.17 C16.8433333,2.27333333 15.6033333,2.48 14.26,2.79 C12.09,3.30666667 10.1266667,4.23666667 8.26666667,5.37333333 C8.06,5.58 7.64666667,5.47666667 7.44,5.37333333 C7.23333333,5.16666667 7.02666667,4.85666667 7.13,4.65 C6.30333333,5.37333333 5.37333333,6.40666667 4.65,7.85333333 C3.20333333,10.54 3.51333333,13.1233333 3.82333333,14.3633333 Z" id="Shape" fill="#333333"></path>
        </g>
    </g>
</svg>