<svg id="Layer_1" data-name="Layer 1" xmlns="http://www.w3.org/2000/svg" viewBox="0 0 60 60"><defs><style>.cls-1{fill:#fff;}.cls-2{fill:#f74a2a;}.cls-3{fill:#ebf2f3;}.cls-4{fill:#333;}</style></defs><title>dashboardIconAppointments</title><path class="cls-1" d="M18.94,32.65a.67.67,0,0,1-.67.67h-4a.67.67,0,0,1,0-1.34h4A.68.68,0,0,1,18.94,32.65Z"/><path class="cls-1" d="M21.6,32.65a.67.67,0,0,1,.66-.67h4a.67.67,0,0,1,0,1.34h-4A.67.67,0,0,1,21.6,32.65Z"/><path class="cls-1" d="M25.4,25.76a4.69,4.69,0,1,1,4.69,4.69A4.69,4.69,0,0,1,25.4,25.76Z"/><path class="cls-1" d="M34.88,32.65a.67.67,0,0,1-.66.67h-4a.67.67,0,0,1,0-1.34h4A.67.67,0,0,1,34.88,32.65Z"/><path class="cls-1" d="M39.21,42.23v1.83a.7.7,0,0,1-.67.7c-2.76.11-5.63.18-8.6.18s-5.75-.06-8.47-.18a.7.7,0,0,1-.67-.7V42.23c0-3.84,4.12-7,9.21-7S39.21,38.39,39.21,42.23Z"/><path class="cls-1" d="M42.85,32.65a.67.67,0,0,1-.66.67h-4a.67.67,0,0,1,0-1.34h4A.67.67,0,0,1,42.85,32.65Z"/><path class="cls-1" d="M50.82,32.65a.67.67,0,0,1-.66.67h-4a.67.67,0,1,1,0-1.34h4A.67.67,0,0,1,50.82,32.65Z"/><path class="cls-2" d="M52.77,16.47v2.82H7.31V16.47a7.4,7.4,0,0,1,7.41-7.4h3.72v1.82a1.38,1.38,0,0,0,1.38,1.39H20a1.38,1.38,0,0,0,1.38-1.39V9.07H38.63v1.82A1.38,1.38,0,0,0,40,12.28h.22a1.38,1.38,0,0,0,1.37-1.39V9.07h3.77a7.39,7.39,0,0,1,4.54,1.55,7.71,7.71,0,0,1,1.47,1.53,7.09,7.09,0,0,1,.93,1.76,6.52,6.52,0,0,1,.41,1.74A5.66,5.66,0,0,1,52.77,16.47Z"/><path class="cls-3" d="M52.71,48a6.89,6.89,0,0,1-.48,1.87,10.55,10.55,0,0,1-1,1.65A11.39,11.39,0,0,1,49.85,53a7.38,7.38,0,0,1-2.24,1.16,7.62,7.62,0,0,1-2.24.34H14.72a7.42,7.42,0,0,1-5.49-2.44,7.52,7.52,0,0,1-1.61-2.87A6.69,6.69,0,0,1,7.37,48h0a5.89,5.89,0,0,0,1.12.1H51.6A5.83,5.83,0,0,0,52.71,48Z"/><path class="cls-4" d="M18.27,32h-4a.67.67,0,0,0,0,1.34h4a.67.67,0,0,0,0-1.34Zm8,0h-4a.67.67,0,0,0,0,1.34h4a.67.67,0,0,0,0-1.34Zm8,0h-4a.67.67,0,0,0,0,1.34h4a.67.67,0,0,0,0-1.34Zm8,0h-4a.67.67,0,0,0,0,1.34h4a.67.67,0,0,0,0-1.34Zm8,0h-4a.67.67,0,1,0,0,1.34h4a.67.67,0,0,0,0-1.34Z"/><path class="cls-4" d="M57.26,39.56a25.8,25.8,0,0,0-.94-2.83c-.06-.18-.15-.37-.2-.53l-1.35-3.73v-16a7.43,7.43,0,0,0-.06-1.05,9,9,0,0,0-.52-2.2A8.76,8.76,0,0,0,53,11a9,9,0,0,0-1.86-1.94,9.31,9.31,0,0,0-5.76-2H41.6V4.84a1.38,1.38,0,0,0-1.37-1.37H40a1.38,1.38,0,0,0-1.38,1.37V7.08H21.4V4.84A1.37,1.37,0,0,0,20,3.48h-.21a1.37,1.37,0,0,0-1.38,1.37V7.08H14.72A9.41,9.41,0,0,0,7.09,11a9.27,9.27,0,0,0-1.76,5.48v16L2.66,39.82a6.2,6.2,0,0,0,2.66,7.43,8.94,8.94,0,0,0,.07,1,9.58,9.58,0,0,0,.3,1.49,9.44,9.44,0,0,0,9,6.74H45.36a9.44,9.44,0,0,0,5.73-1.94l.06-.06a14.31,14.31,0,0,0,1.63-1.78,14.11,14.11,0,0,0,1.25-2,.18.18,0,0,1,0-.07,9.77,9.77,0,0,0,.69-3.45,6.18,6.18,0,0,0,2-1.85,5.31,5.31,0,0,0,1-2.76A10.08,10.08,0,0,0,57.26,39.56ZM52.71,48a6.92,6.92,0,0,1-.47,1.87c-.15.29-.3.57-.48.85s-.26.4-.4.59-.1.15-.16.21a12.82,12.82,0,0,1-1,1.14l-.37.34a7.55,7.55,0,0,1-1.07.68,8.12,8.12,0,0,1-1.16.48,7.64,7.64,0,0,1-2.24.34H14.72a7.41,7.41,0,0,1-4.94-1.88q-.29-.26-.55-.55a7.11,7.11,0,0,1-.75-1,7.39,7.39,0,0,1-.86-1.88c-.06-.18-.1-.37-.15-.57s-.06-.4-.09-.61v0a4.32,4.32,0,0,0,.48.07h.07l.56,0H51.6l.55,0,.55-.08Zm2.37-3.75a4.25,4.25,0,0,1-2,1.58h0l0,0h0a4.3,4.3,0,0,1-1.38.23H8.49a4,4,0,0,1-1.38-.23l0,0H7a4.21,4.21,0,0,1-2.5-5.38l2.6-7.19h3.18a.67.67,0,0,0,0-1.34h-3V16.47a7.4,7.4,0,0,1,7.41-7.4h3.72v1.82a1.38,1.38,0,0,0,1.38,1.39H20a1.38,1.38,0,0,0,1.38-1.39V9.07H38.63v1.82A1.38,1.38,0,0,0,40,12.28h.22a1.38,1.38,0,0,0,1.37-1.39V9.07h3.77a7.39,7.39,0,0,1,4.54,1.55,7.71,7.71,0,0,1,1.47,1.53,7.09,7.09,0,0,1,.93,1.76,6.52,6.52,0,0,1,.41,1.74,5.66,5.66,0,0,1,.06.82V32.64a.48.48,0,0,0,0,.17.44.44,0,0,0,0,.17h0V33l1.4,3.87c.07.17.14.35.22.54a25,25,0,0,1,.86,2.6,8.72,8.72,0,0,1,.38,2.47A3.3,3.3,0,0,1,55.08,44.28Z"/><path class="cls-1" d="M55.33,40.05a25,25,0,0,0-.86-2.6c-.08-.18-.15-.37-.22-.54L52.85,33V33h0a.44.44,0,0,1,0-.17.48.48,0,0,1,0-.17V19.29H7.31V32h3a.67.67,0,0,1,0,1.34H7.13L4.53,40.5A4.21,4.21,0,0,0,7,45.87h0l0,0a4,4,0,0,0,1.38.23H51.6A4.3,4.3,0,0,0,53,45.9h0l0,0h0a4.25,4.25,0,0,0,2-1.58,3.3,3.3,0,0,0,.63-1.76A8.72,8.72,0,0,0,55.33,40.05Zm-25.24-19a4.69,4.69,0,1,1-4.69,4.69A4.7,4.7,0,0,1,30.1,21.06Zm4.78,11.58a.67.67,0,0,1-.66.67h-4a.67.67,0,0,1,0-1.34h4A.67.67,0,0,1,34.88,32.65ZM22.25,32h4a.67.67,0,0,1,0,1.34h-4a.67.67,0,0,1,0-1.34Zm-4,1.34h-4a.67.67,0,0,1,0-1.34h4a.67.67,0,0,1,0,1.34ZM39.21,44.06a.7.7,0,0,1-.67.7c-2.76.11-5.63.18-8.6.18s-5.75-.06-8.47-.18a.7.7,0,0,1-.67-.7V42.23c0-3.84,4.12-7,9.21-7s9.21,3.11,9.21,7Zm3-10.75h-4a.67.67,0,0,1,0-1.34h4a.67.67,0,0,1,0,1.34Zm8,0h-4a.67.67,0,1,1,0-1.34h4a.67.67,0,0,1,0,1.34Z"/><path class="cls-4" d="M38.72,50a.89.89,0,0,1-.84.88Q34,51,29.95,51c-2.69,0-5.3-.05-7.82-.15a.89.89,0,0,1-.84-.88V46.4H37.06a1.68,1.68,0,0,1,1.68,1.69C38.73,49,38.72,50,38.72,50Z"/><path class="cls-4" d="M39.21,42.23v1.83a.7.7,0,0,1-.67.7c-2.76.11-5.63.18-8.6.18s-5.75-.06-8.47-.18a.7.7,0,0,1-.67-.7V42.23c0-3.84,4.12-7,9.21-7S39.21,38.39,39.21,42.23Z"/><path class="cls-4" d="M34.79,25.76a4.69,4.69,0,1,1-4.69-4.69A4.69,4.69,0,0,1,34.79,25.76Z"/></svg>