<svg xmlns="http://www.w3.org/2000/svg" viewBox="0 0 60 60"><defs><style>.cls-1,.cls-3{fill:#f5eb92;}.cls-2{fill:#fff;}.cls-3{opacity:0.3;}.cls-4{fill:#333;}</style></defs><title>schedulingIcons3_Urgent</title><g id="final"><path class="cls-1" d="M38.12,3.88h.28A12.07,12.07,0,0,1,50.46,16v34.3a1.68,1.68,0,0,1-1.68,1.68H28.1a2,2,0,0,1-2-2V16A12.07,12.07,0,0,1,38.12,3.88Z" transform="translate(30.94 -18.87) rotate(45)"/><rect class="cls-2" x="22.04" y="28.26" width="15.94" height="15.94" rx="2.14" ry="2.14" transform="translate(34.41 -10.61) rotate(45)"/><rect class="cls-3" x="22.04" y="28.26" width="15.94" height="15.94" rx="2.14" ry="2.14" transform="translate(34.41 -10.61) rotate(45)"/><circle class="cls-4" cx="49.88" cy="16.28" r="1.09" transform="translate(3.1 40.04) rotate(-45)"/><circle class="cls-4" cx="43.54" cy="16.82" r="1.09" transform="translate(0.86 35.71) rotate(-45)"/><circle class="cls-4" cx="49.35" cy="22.62" r="1.09" transform="translate(-1.54 41.52) rotate(-45)"/><path class="cls-4" d="M10.91,17a1.08,1.08,0,1,1,0-1.53A1.08,1.08,0,0,1,10.91,17Z"/><path class="cls-4" d="M11.45,23.39a1.08,1.08,0,1,1,0-1.53A1.08,1.08,0,0,1,11.45,23.39Z"/><path class="cls-4" d="M17.26,17.58a1.08,1.08,0,1,1,0-1.53A1.08,1.08,0,0,1,17.26,17.58Z"/><path class="cls-4" d="M56.29,10.59l-.71-.71a12.7,12.7,0,0,0-17.92,0l-7.76,7.76-7.4-7.4A13.18,13.18,0,1,0,3.86,28.87l9.25,9.25a.5.5,0,0,0,.1.06,1.24,1.24,0,0,0,.15.17l14.7,14.7a2.59,2.59,0,0,0,3.68,0L56.29,28.51a12.67,12.67,0,0,0,0-17.92ZM29.43,51.69,14.72,37a1,1,0,0,1-.29-.67v-.1a1.38,1.38,0,0,1,.06-.29l0-.11a1.13,1.13,0,0,1,.17-.26l.07-.07,15.8-15.8L39,11.25a10.74,10.74,0,0,1,15.18,0l.71.71a10.71,10.71,0,0,1,0,15.18L30.36,51.69A.65.65,0,0,1,29.43,51.69ZM13.26,34.3a2.29,2.29,0,0,0-.19.22,2.75,2.75,0,0,0-.25.43l0,.08L5.24,27.5A11.24,11.24,0,0,1,21.12,11.6l7.4,7.4L13.36,34.17A1.08,1.08,0,0,0,13.26,34.3Z"/><path class="cls-2" d="M21.12,11.6A11.24,11.24,0,1,0,5.24,27.5L12.76,35l0-.08a2.75,2.75,0,0,1,.25-.43,2.29,2.29,0,0,1,.19-.22,1.08,1.08,0,0,1,.1-.13L28.53,19ZM9.38,15.51a1.08,1.08,0,1,1,0,1.53A1.08,1.08,0,0,1,9.38,15.51Zm2.07,7.88a1.08,1.08,0,1,1,0-1.53A1.08,1.08,0,0,1,11.45,23.39Zm5.81-5.81a1.08,1.08,0,1,1,0-1.53A1.08,1.08,0,0,1,17.26,17.58Z"/></g></svg>