<svg id="Layer_1" data-name="Layer 1" xmlns="http://www.w3.org/2000/svg" viewBox="0 0 60 60"><defs><style>.cls-1{fill:#fff;}.cls-2{fill:#ebf2f3;}.cls-3{fill:#333;}.cls-4{fill:#3e615b;}.cls-5{fill:#54c500;}</style></defs><title>videoVisitIcon</title><path class="cls-1" d="M20.44,7.36a.73.73,0,0,1,.73-.72h4.3a.72.72,0,1,1,0,1.44h-4.3A.73.73,0,0,1,20.44,7.36Z"/><path class="cls-2" d="M32,21.52V29h5.16V47.85h-4.1V48a9.74,9.74,0,0,0-19.48,0v-.1H9.48V11.56H37.15v2.88A7.44,7.44,0,0,0,32,21.52Z"/><path class="cls-3" d="M25,52.75a1.66,1.66,0,1,1-1.66-1.66A1.66,1.66,0,0,1,25,52.75Z"/><path class="cls-3" d="M37.15,14.43a7,7,0,0,1,.93-.24,8,8,0,0,1,1-.12V9.94a7,7,0,0,0-7-7H14.58a7,7,0,0,0-7,7V51.09a7,7,0,0,0,7,7H32.06a7,7,0,0,0,7-7V29H37.15V47.85H33.06V46.62a9.75,9.75,0,0,0-19.49,0v1.23H9.48V11.55H37.15Zm0,35.31v1.35a5.1,5.1,0,0,1-5.09,5.1H14.58a5.1,5.1,0,0,1-5.1-5.1V49.74ZM9.5,9.66a5.09,5.09,0,0,1,5.08-4.82H32.06a5.08,5.08,0,0,1,5.07,4.82Z"/><path class="cls-1" d="M9.48,49.74v1.35a5.1,5.1,0,0,0,5.1,5.1H32.06a5.1,5.1,0,0,0,5.09-5.1V49.74Zm13.84,4.67A1.66,1.66,0,1,1,25,52.75,1.66,1.66,0,0,1,23.32,54.41Z"/><path class="cls-1" d="M32.06,4.84H14.58A5.09,5.09,0,0,0,9.5,9.66H37.13A5.08,5.08,0,0,0,32.06,4.84ZM25.47,8.08h-4.3a.72.72,0,1,1,0-1.44h4.3a.72.72,0,1,1,0,1.44Z"/><path class="cls-3" d="M7.58,10.34v.53a.85.85,0,0,1,0-.53Z"/><path class="cls-4" d="M7.58,48.53v.53a.85.85,0,0,1,0-.53Z"/><path class="cls-5" d="M55.44,21.52A7.47,7.47,0,0,1,48,29H32V21.52a7.44,7.44,0,0,1,5.15-7.08,6.71,6.71,0,0,1,.93-.24,7.33,7.33,0,0,1,1-.12H48A7.46,7.46,0,0,1,55.44,21.52Z"/><circle class="cls-3" cx="23.31" cy="28.74" r="5.08"/><path class="cls-3" d="M26.19,7.36a.72.72,0,0,1-.72.72h-4.3a.72.72,0,1,1,0-1.44h4.3A.72.72,0,0,1,26.19,7.36Z"/></svg>