<?xml version="1.0" encoding="UTF-8"?>
<svg width="1280px" height="512px" viewBox="0 0 1280 512" version="1.1" xmlns="http://www.w3.org/2000/svg" xmlns:xlink="http://www.w3.org/1999/xlink">
    <!-- Generator: Sketch 48.2 (47327) - http://www.bohemiancoding.com/sketch -->
    <title>landingPageContainer</title>
    <desc>Created with Sketch.</desc>
    <defs></defs>
    <g id="Homepage---Amita" stroke="none" stroke-width="1" fill="none" fill-rule="evenodd" transform="translate(0.000000, -1554.000000)">
        <g id="landingPageContainer" transform="translate(0.000000, 1554.000000)">
            <g id="bg" fill-rule="nonzero">
                <rect id="Rectangle-path" fill="#00B3E3" x="0" y="0" width="1281" height="511.392542"></rect>
                <path d="M372.45075,511.392542 L0,511.392542 L0,354.30133 L44.9350781,329.095176 C48.4178741,327.160372 52.6576681,327.185682 56.1171406,329.16193 L75.4989375,340.329804 L82.0106875,344.081356 L87.0079219,346.965111 L93.4129219,350.656584 L219.911672,423.531473 L303.143312,471.473898 L339.465,492.401147 L363.210203,506.078957 L372.45075,511.392542 Z" id="Shape" fill="#09A9D5"></path>
                <path d="M72.3164531,357.084954 L79.1351094,321.171525 C79.2635479,320.448226 79.8920307,319.921286 80.6262734,319.921286 C81.3605161,319.921286 81.988999,320.448226 82.1174375,321.171525 L93.8732813,383.052099 L67.3859375,383.052099 L71.0888281,363.560052 L72.3164531,357.084954 Z" id="Shape" fill="#09A9D5"></path>
                <path d="M93.8732813,383.052099 L83.7720625,383.052099 L80.9498594,320.490639 C80.9329549,320.355912 80.9707356,320.220027 81.0547486,320.113388 C81.1387615,320.006749 81.2619943,319.938256 81.396875,319.923233 C81.5322691,319.906254 81.6688522,319.943866 81.7764947,320.02777 C81.8841371,320.111675 81.9539944,320.234979 81.9706562,320.370482 L93.8732813,383.052099 Z" id="Shape" fill="#09A9D5"></path>
                <path d="M1281,0 L1281,303.76219 C1232.42208,301.946493 1183.44384,301.485893 1134.63241,303.027901 C1133.17794,303.067953 1131.72347,303.114681 1130.269,303.168083 C1102.42059,304.115984 1074.67004,305.762573 1047.01734,308.107849 L1041.78659,308.568449 C1036.95616,309.013472 1032.13461,309.474072 1027.32197,309.950248 C994.80325,313.221173 962.604781,318.755046 930.473031,325.16339 L926.610016,325.937731 C891.189031,333.080365 855.888141,341.230978 820.527203,348.500443 L819.526422,348.700704 C815.02513,349.626354 810.517167,350.534203 806.002531,351.42425 C801.906,352.238644 797.805021,353.033012 793.699594,353.807353 L791.404469,354.234576 C762.395156,359.674993 733.26575,364.187536 703.889484,366.750874 C688.744328,368.085945 673.572484,368.866962 658.387297,369.214081 C643.202109,369.561199 628.043609,369.467744 612.905125,368.980443 C581.820859,367.99249 550.856687,365.395776 519.899187,361.817784 C509.019583,360.562816 498.144427,359.194368 487.273719,357.712438 L484.745078,357.365319 L480.788656,356.81794 C413.729641,347.519166 347.004219,334.84266 280.21875,325.16339 C259.197896,322.119426 238.123667,319.424807 216.996062,317.079531 L216.388922,317.012777 L209.049859,316.205059 C201.270453,315.359513 193.486599,314.55402 185.698297,313.788579 C170.330745,312.275498 154.952073,310.893698 139.562281,309.643181 C93.086,305.851578 46.5029687,303.134707 0,300.798331 L0,0 L1281,0 Z" id="Shape" fill="#FFFFFF" opacity="0.1"></path>
                <path d="M1281,0 L1281,239.425085 C1268.10104,238.980061 1255.16872,238.644068 1242.20305,238.417106 L1241.84944,238.417106 C1238.42009,238.350352 1234.9863,238.292499 1231.54806,238.243546 C1218.11091,238.034385 1204.66485,237.943155 1191.20991,237.969857 C1136.36709,238.056636 1081.46423,240.085945 1027.33531,244.878853 C918.456984,254.544772 812.874562,286.566467 703.836109,294.944042 C688.682057,296.087753 673.514661,296.813142 658.333922,297.120209 C654.980193,297.186962 651.62424,297.23369 648.266062,297.260391 C645.777453,297.260391 643.295516,297.300443 640.806906,297.300443 C543.397531,297.353846 447.028969,281.993846 350.733797,268.022321 L349.592906,267.862112 L343.588219,266.994316 C340.754896,266.580443 337.917125,266.173246 335.074906,265.772725 L328.803344,264.878227 L327.468969,264.691317 L322.478406,263.990404 L318.128344,263.376271 L317.281016,263.26279 L312.610703,262.595254 L307.806953,261.927718 L306.659391,261.774185 C297.839172,260.56817 289.018953,259.399983 280.198734,258.269622 C260.832505,255.799739 241.419573,253.590196 221.959937,251.640991 C220.525484,251.494133 219.084359,251.347275 217.643234,251.213768 C159.064172,245.392855 100.171531,241.647979 41.2989062,238.724172 L32.2385,238.3103 C21.4923333,237.776271 10.7461667,237.273394 0,236.801669 L0,0 L1281,0 Z" id="Shape" fill="#FFFFFF" opacity="0.1"></path>
                <path d="M1281,477.014446 L1281,511.392542 L873.168297,511.392542 L878.312312,506.960104 L916.608875,473.957132 L1003.15644,399.386701 L1013.87814,390.148005 L1023.37222,381.970691 L1028.08923,377.898722 L1034.35412,372.505033 L1092.30603,322.573351 C1096.40383,319.041445 1102.47938,319.081362 1106.53047,322.666806 L1152.78658,363.600104 L1194.65927,400.648344 L1213.02027,416.889492 L1226.29062,428.591395 L1237.71955,438.704563 L1246.74659,446.714993 L1263.37291,461.400782 L1277.77081,474.144042 L1281,477.014446 Z" id="Shape" fill="#09A9D5"></path>
                <path d="M886.845641,511.392542 L224.268406,511.392542 L300.07425,473.035932 L303.156656,471.473898 L347.738125,448.911186 L352.341719,446.581486 L363.864047,440.753898 L372.057109,436.608501 L460.399406,391.883598 L466.957859,388.545919 L470.293797,386.857053 L475.437812,384.253664 L485.592406,379.113638 L490.723078,376.516923 L519.779094,361.831134 L555.240109,343.887771 C558.178868,342.392332 561.659249,342.41223 564.580734,343.941173 L612.785031,368.993794 L730.476906,430.160104 L736.821859,433.457731 L741.598922,435.940965 L777.133328,454.411682 L780.429234,456.127249 L783.458266,457.702634 L788.208641,460.165841 L801.332219,466.981382 L821.054281,477.234733 L831.389016,482.57502 L835.872516,484.911395 L878.23225,506.940078 L886.845641,511.392542 Z" id="Shape" fill="#09A9D5"></path>
                <path d="M962.2445,511.392542 L711.315281,511.392542 L776.239297,459.531682 L780.502625,456.127249 L783.358188,453.844276 L786.614063,451.254237 L807.610453,434.479061 L818.825875,425.52073 L823.909844,421.455437 L831.622531,415.294081 C835.608983,412.106007 841.280986,412.142188 845.226484,415.38086 L880.780906,444.578879 L916.608875,473.950456 L962.2445,511.392542 Z" id="Shape" fill="#09A9D5"></path>
                <path d="M420.087938,511.392542 L0,511.392542 L0,433.711395 L69.5009219,371.924276 L82.73125,360.155619 L88.5357813,354.995567 L93.40625,350.656584 L139.535594,309.643181 L170.226219,282.367666 C171.675997,281.313423 173.417962,280.737131 175.210109,280.718853 C175.483656,280.718853 175.750531,280.718853 176.024078,280.718853 C177.707926,280.802636 179.330869,281.375601 180.694391,282.367666 L216.976047,317.079531 L303.943938,400.281199 L313.051047,408.992542 L316.914063,412.690691 L321.177391,416.769335 L348.818969,443.243807 L352.341719,446.581486 L364.658,458.363494 L376.960938,470.138827 L378.749,471.854394 L399.531891,491.753638 L420.087938,511.392542 Z" id="Shape" fill="#005872"></path>
                <path d="M1148.62333,479.744668 L1123.99744,511.392542 L794.159953,511.392542 L797.495891,508.802503 L821.688109,490.111499 L831.469078,482.628422 L834.991828,479.911551 L880.780906,444.578879 L984.101562,364.835046 C986.567106,362.914429 989.603587,361.873544 992.728297,361.877862 L993.188656,361.877862 C996.181328,361.964883 999.068071,363.005589 1001.42842,364.848396 L1016.44681,376.570326 L1023.3522,381.95734 L1028.43617,385.922503 L1030.02408,387.157445 L1038.35725,393.659244 L1095.00814,437.90352 L1148.62333,479.744668 Z" id="Shape" fill="#005872"></path>
                <path d="M345.883344,458.670561 L358.339734,393.105189 C358.591253,391.797928 359.734628,390.853169 361.065195,390.853169 C362.395762,390.853169 363.539138,391.797928 363.790656,393.105189 L385.254078,506.078957 L336.876312,506.078957 L343.641594,470.492621 L345.883344,458.670561 Z" id="Shape" fill="#FFB926"></path>
                <path d="M385.254078,506.078957 L366.806344,506.078957 L361.655656,391.843546 C361.605036,391.336693 361.969423,390.882635 362.474985,390.82259 C362.980547,390.762546 363.441053,391.118635 363.510437,391.623259 L385.254078,506.078957 Z" id="Shape" fill="#FF9900"></path>
                <path d="M766.384937,511.392542 L767.052125,508.054863 L776.272656,459.531682 L777.240078,454.411682 L779.508516,442.482816 C779.722874,441.367006 780.595007,440.494418 781.710234,440.279948 C783.184362,440.002796 784.612722,440.944706 784.939422,442.409387 L784.939422,442.482816 L786.614062,451.254237 L788.302047,460.159166 L795.507672,498.101904 L797.509234,508.782477 L798.002953,511.372516 L766.384937,511.392542 Z" id="Shape" fill="#FFB926"></path>
                <path d="M785.946875,511.392542 L783.524984,457.702634 L783.351516,453.844276 L782.784406,441.247875 C782.752571,440.922797 782.891461,440.604447 783.151359,440.40678 C783.279583,440.313138 783.428233,440.25136 783.585031,440.226545 C783.831078,440.19237 784.080595,440.257662 784.278415,440.407983 C784.476235,440.558304 784.60606,440.781272 784.639187,441.027588 L784.899391,442.409387 L784.899391,442.482816 L786.614062,451.254237 L788.302047,460.159166 L795.514344,498.108579 L797.515906,508.789153 L798.009625,511.379192 L785.946875,511.392542 Z" id="Shape" fill="#FF9900"></path>
                <path d="M1281,491.186232 L1281,506.078957 L1235.45111,506.078957 L1235.738,504.577001 L1242.20972,470.492621 L1244.45814,458.670561 L1246.73325,446.694967 L1250.8498,425.026754 L1256.91453,393.105189 C1257.20387,391.599229 1258.65852,390.613016 1260.16373,390.902321 C1260.30203,390.929945 1260.43807,390.967878 1260.57072,391.015802 C1261.49463,391.346111 1262.17485,392.140954 1262.35878,393.105189 L1273.86109,453.657366 L1277.7508,474.137366 L1281,491.186232 Z" id="Shape" fill="#FFB926"></path>
                <path d="M1281,491.186232 L1281,506.078957 L1265.37447,506.078957 L1263.37291,461.407458 L1262.38547,439.378774 L1260.23045,391.843546 C1260.19955,391.528231 1260.32703,391.218123 1260.57072,391.015802 C1260.71182,390.907052 1260.88054,390.839993 1261.05777,390.822216 C1261.55914,390.767059 1262.01264,391.122932 1262.07856,391.623259 L1262.35878,393.105189 L1273.86109,453.657366 L1277.7508,474.137366 L1281,491.186232 Z" id="Shape" fill="#FF9900"></path>
                <path d="M72.2564062,511.392542 L40.6250469,511.392542 L41.2922344,508.054863 L53.748625,442.489492 C53.962983,441.373682 54.8351163,440.501093 55.9503437,440.286623 C57.4539512,440.005065 58.9036091,440.987892 59.1995469,442.489492 L72.2564062,511.392542 Z" id="Shape" fill="#FFB926"></path>
                <path d="M72.2564062,511.392542 L60.1936562,511.392542 L57.0311875,441.241199 C57.0022421,440.923315 57.1351488,440.612201 57.3847969,440.413455 C57.5148611,440.311837 57.6687439,440.245196 57.8318125,440.21987 C58.3432825,440.152527 58.8135453,440.509875 58.8859688,441.020913 L59.1661875,442.496167 L72.2564062,511.392542 Z" id="Shape" fill="#FF9900"></path>
                <path d="M840.9765,511.392542 L792.939,511.392542 L795.460969,498.115254 L797.349109,488.162295 L799.87775,474.878331 L801.378922,466.988057 L807.557078,434.485737 L813.888687,401.189048 C814.172173,399.722829 815.45512,398.663725 816.947742,398.663725 C818.440364,398.663725 819.723311,399.722829 820.006797,401.189048 L823.856469,421.462112 L834.958469,479.891525 L835.919219,484.944772 L840.9765,511.392542 Z" id="Shape" fill="#FFB926"></path>
                <path d="M840.9765,511.392542 L822.675547,511.392542 L821.714797,490.131525 L821.134344,477.241408 L818.805859,425.527405 L817.644953,399.807249 C817.625739,399.435476 817.806341,399.081717 818.118656,398.879374 C818.234234,398.803935 818.363413,398.751783 818.498953,398.725841 C818.773395,398.671099 819.05832,398.728505 819.290195,398.885259 C819.522069,399.042013 819.681613,399.28508 819.73325,399.560261 L820.040156,401.189048 L823.889828,421.462112 L834.985156,479.891525 L835.945906,484.944772 L840.9765,511.392542 Z" id="Shape" fill="#FF9900"></path>
                <path d="M457.510484,407.050013 L464.3625,371.149935 C464.490938,370.426636 465.119421,369.899696 465.853664,369.899696 C466.587907,369.899696 467.21639,370.426636 467.344828,371.149935 L479.100672,433.030508 L452.579969,433.030508 L456.282859,413.538462 L457.510484,407.050013 Z" id="Shape" fill="#09A9D5"></path>
                <path d="M479.073984,433.017158 L468.972766,433.017158 L466.150562,370.482399 C466.148612,370.220451 466.343866,369.99894 466.603868,369.968134 C466.86387,369.937328 467.105433,370.107084 467.164687,370.362243 L479.073984,433.017158 Z" id="Shape" fill="#09A9D5"></path>
                <path d="M302.676281,406.976584 L309.494937,371.063155 C309.631215,370.344868 310.258705,369.825014 310.989437,369.825014 C311.72017,369.825014 312.34766,370.344868 312.483937,371.063155 L324.253125,432.943729 L297.739094,432.943729 L301.441984,413.451682 L302.676281,406.976584 Z" id="Shape" fill="#09A9D5"></path>
                <path d="M324.253125,432.943729 L314.131891,432.943729 L311.309687,370.382269 C311.292717,370.246804 311.330309,370.110149 311.41417,370.002451 C311.498031,369.894752 311.621271,369.824858 311.756703,369.808188 C312.039916,369.776813 312.295684,369.979154 312.330484,370.262112 L324.253125,432.943729 Z" id="Shape" fill="#09A9D5"></path>
                <path d="M474.517094,389.333611 L482.183078,348.974394 C482.35562,348.191125 483.049398,347.633314 483.851047,347.633314 C484.652696,347.633314 485.346474,348.191125 485.519016,348.974394 L498.749344,418.54498 L468.972766,418.54498 L473.136016,396.643129 L474.517094,389.333611 Z" id="Shape" fill="#09A9D5"></path>
                <path d="M498.749344,418.54498 L487.407156,418.54498 L484.238016,348.240104 C484.21131,348.084514 484.249823,347.924787 484.344494,347.798492 C484.439165,347.672198 484.58164,347.590483 484.738406,347.572568 C484.89466,347.547883 485.054216,347.588073 485.18016,347.683841 C485.306105,347.779609 485.387529,347.922658 485.405594,348.079896 L498.749344,418.54498 Z" id="Shape" fill="#09A9D5"></path>
                <path d="M727.234375,447.48266 L734.059703,411.569231 C734.188142,410.845932 734.816624,410.318992 735.550867,410.318992 C736.28511,410.318992 736.913593,410.845932 737.042031,411.569231 L748.797875,473.449804 L722.303859,473.449804 L726.00675,453.957757 L727.234375,447.48266 Z" id="Shape" fill="#09A9D5"></path>
                <path d="M748.777859,473.449804 L738.676641,473.449804 L735.854437,410.888344 C735.821275,410.606312 736.022904,410.350781 736.304789,410.317601 C736.586674,410.284421 736.842071,410.486155 736.875234,410.768188 L748.777859,473.449804 Z" id="Shape" fill="#09A9D5"></path>
                <path d="M1213.95433,412.069883 L1221.62031,371.710665 C1221.79285,370.927396 1222.48663,370.369585 1223.28828,370.369585 C1224.08993,370.369585 1224.78371,370.927396 1224.95625,371.710665 L1238.18658,441.241199 L1208.41,441.241199 L1212.56658,419.332673 L1213.95433,412.069883 Z" id="Shape" fill="#09A9D5"></path>
                <path d="M1238.18658,441.241199 L1226.84439,441.241199 L1223.68192,370.929648 C1223.66315,370.778968 1223.70552,370.627045 1223.79956,370.507864 C1223.8936,370.388682 1224.03147,370.312187 1224.18231,370.295489 C1224.33782,370.26877 1224.49747,370.307302 1224.62369,370.402023 C1224.74992,370.496744 1224.83159,370.639293 1224.8495,370.796141 L1238.18658,441.241199 Z" id="Shape" fill="#09A9D5"></path>
                <path d="M1016.46016,376.623729 L1024.13281,336.264511 C1024.30535,335.481242 1024.99913,334.923431 1025.80078,334.923431 C1026.60243,334.923431 1027.29621,335.481242 1027.46875,336.264511 L1040.67906,405.808396 L1010.90248,405.808396 L1015.06573,383.89987 L1016.46016,376.623729 Z" id="Shape" fill="#09A9D5"></path>
                <path d="M1040.69241,405.808396 L1029.35022,405.808396 L1026.18108,335.496845 C1026.15437,335.341254 1026.19289,335.181527 1026.28756,335.055233 C1026.38223,334.928939 1026.5247,334.847224 1026.68147,334.829309 C1026.83772,334.804624 1026.99728,334.844814 1027.12322,334.940582 C1027.24917,335.03635 1027.33059,335.179399 1027.34866,335.336636 L1040.69241,405.808396 Z" id="Shape" fill="#09A9D5"></path>
                <path d="M1148.60331,479.744668 L1123.97742,511.392542 L1069.82848,511.392542 C1065.3183,503.589048 1060.70136,495.945763 1055.73081,488.389257 C1048.42214,477.212623 1040.36637,466.543309 1031.61866,456.454342 C1016.94053,439.545658 1009.14778,419.94013 1003.15644,399.386701 C999.573641,387.097366 996.631344,374.474263 993.208672,361.884537 C996.201344,361.971559 999.088087,363.012264 1001.44844,364.855072 L1016.46683,376.577001 L1023.37222,381.964016 L1028.45619,385.929179 L1030.04409,387.16412 L1038.37727,393.672595 L1095.00814,437.90352 L1148.60331,479.744668 Z" id="Shape" fill="#DFF8FA"></path>
                <path d="M1281,462.535593 L1281,511.392542 L1037.81016,511.392542 L1055.73081,488.389257 L1082.0647,454.531838 L1082.84531,453.53721 L1095.00814,437.90352 L1152.79325,363.593429 L1172.24844,338.58086 C1173.85636,336.511499 1176.04473,335.757184 1178.0463,336.284537 C1179.3885,336.656125 1180.56473,337.472858 1181.38223,338.600887 L1219.01828,385.421851 L1224.64934,392.430978 L1230.21369,399.353325 L1250.81644,424.986701 L1262.33877,439.318696 L1273.83441,453.617314 L1281,462.535593 Z" id="Shape" fill="#005872"></path>
                <path d="M1281,462.535593 L1281,511.392542 L1243.23719,511.392542 C1241.31569,509.612447 1239.37862,507.832351 1237.42598,506.052256 L1235.738,504.5503 C1231.97506,501.19927 1228.1543,497.914993 1224.27572,494.697471 C1218.79144,490.131525 1213.08698,485.578931 1209.24398,479.624511 C1202.31858,468.877184 1202.49872,455.426336 1201.59134,442.743155 C1200.57055,428.531317 1197.91514,414.519739 1194.67261,400.608292 C1192.85786,392.804798 1190.8563,385.034681 1188.86141,377.284589 L1179.22722,339.842503 C1179.06709,339.208344 1178.56003,337.873272 1178.0463,336.257836 C1179.3885,336.629424 1180.56473,337.446157 1181.38223,338.574185 L1219.01828,385.39515 L1224.64934,392.404276 L1230.21369,399.326623 L1250.81644,424.96 L1262.33877,439.291995 L1273.83441,453.590613 L1281,462.535593 Z" id="Shape" fill="#DFF8FA"></path>
                <path d="M420.087937,511.392542 L328.563156,511.392542 C330.311187,508.054863 331.859062,503.976219 329.103578,498.662634 C324.693469,490.191604 317.614609,482.922138 308.787719,477.508422 C305.987296,475.822811 303.076168,474.328573 300.07425,473.035932 C293.052919,469.977104 285.597451,468.033436 277.977,467.275098 L275.341609,466.981382 C247.826797,464.044224 226.003094,447.48266 220.585531,426.121512 L219.918344,423.531473 C218.790797,419.072334 217.623219,414.61987 216.235469,410.220808 L185.691625,313.788579 L175.216781,280.718853 C175.490328,280.718853 175.757203,280.718853 176.03075,280.718853 C177.714598,280.802636 179.337541,281.375601 180.701062,282.367666 L216.982719,317.079531 L303.943937,400.281199 L313.051047,408.992542 L316.914062,412.690691 L321.177391,416.769335 L348.818969,443.243807 L352.341719,446.581486 L364.658,458.363494 L376.960937,470.138827 L378.749,471.854394 L399.531891,491.753638 L420.087937,511.392542 Z" id="Shape" fill="#DFF8FA"></path>
                <path d="M1281,289.156506 L1281,290.197862 C1232.9625,287.320782 1184.7115,283.288866 1137.00092,278.182216 C1135.71992,278.053159 1134.44115,277.915202 1133.16459,277.768344 C1132.7843,277.734967 1132.404,277.694915 1132.03037,277.648188 L1129.36162,277.361147 L1128.64773,277.281043 L1128.21406,277.481304 C1127.3267,277.895176 1126.43267,278.302373 1125.54531,278.702894 C1125.1917,278.869778 1124.83809,279.036662 1124.48448,279.190196 C1123.64383,279.577366 1122.7965,279.957862 1121.94917,280.331682 C1097.62311,291.258387 1072.59454,300.546696 1047.03069,308.13455 L1044.45534,308.902216 C1016.02039,317.197698 987.012373,323.382522 957.667594,327.40631 L957.000406,327.499765 L955.599312,327.686675 L955.239031,327.733403 L954.978828,327.733403 L953.38425,327.633272 L952.717062,327.599896 C951.956469,327.553168 951.189203,327.513116 950.428609,327.459713 C942.497974,327.014689 934.558443,326.520713 926.610016,325.977784 C887.468349,323.427797 848.275531,320.312629 809.031562,316.632282 C808.277641,316.565528 807.517047,316.498774 806.763125,316.41867 C806.009203,316.338566 805.208578,316.278488 804.434641,316.198383 C749.725266,311.000504 695.182687,304.718992 640.806906,297.353846 C621.204937,294.683703 601.649672,291.891178 582.141109,288.976271 C463.381734,271.153064 344.041906,247.822686 227.297437,219.645997 L226.263297,219.392334 C225.456,219.205424 224.648703,219.005163 223.841406,218.811578 L223.394391,218.704772 L222.793922,218.798227 L220.198562,219.192073 L219.184437,219.345606 C160.187271,228.250535 100.898766,234.714507 41.3189219,238.737523 C27.5615156,239.667623 13.7885417,240.464216 0,241.127301 L0,240.085945 C10.7550625,239.569718 21.5012292,238.97116 32.2385,238.290274 C94.7762083,234.334011 157.047042,227.658653 219.051,218.264198 L220.071797,218.110665 L222.940703,217.676767 L223.314328,217.616688 L223.521156,217.616688 L223.981516,217.730169 L226.703641,218.397705 L227.737781,218.644694 C344.402187,246.78133 463.695312,270.078331 582.294562,287.894863 C604.218344,291.19249 626.208844,294.307658 648.266062,297.240365 C700.08874,304.164937 752.129365,310.112681 804.387937,315.083598 C806.029219,315.243807 807.6705,315.404016 809.311781,315.550874 C849.721104,319.346927 890.114859,322.546649 930.493047,325.150039 C937.792078,325.595063 945.091109,326.040087 952.390141,326.485111 L953.057328,326.525163 L954.938797,326.631969 L955.225687,326.631969 L955.559281,326.585241 L957.273953,326.351604 C957.494125,326.351604 957.714297,326.298201 957.941141,326.258149 C986.288524,322.359548 1014.32001,316.432206 1041.81995,308.521721 L1044.1818,307.854185 C1071.31937,299.917701 1097.86368,290.076055 1123.61714,278.402503 L1124.14422,278.16219 L1125.20505,277.674889 C1125.38519,277.60146 1125.55866,277.521356 1125.73212,277.434576 C1126.53942,277.074107 1127.34005,276.700287 1128.14067,276.326467 L1128.36752,276.226336 L1128.50095,276.166258 L1128.64106,276.166258 L1129.30825,276.239687 L1131.977,276.526728 L1132.28391,276.560104 C1132.65753,276.606832 1133.03783,276.646884 1133.41812,276.680261 C1133.99191,276.75369 1134.56569,276.813768 1135.14614,276.867171 C1183.4305,282.140704 1232.29531,286.239374 1281,289.156506 Z" id="Shape" fill="#09A9D5"></path>
            </g>
            <g id="records" transform="translate(304.000000, 251.000000)" fill-rule="nonzero">
                <path d="M48.3866667,15.402 L46.5466667,25.16 C46.1848961,27.0710779 45.1273861,28.7716683 43.5866667,29.92 L43.1066667,30.26 L43.04,30.3008 L42.1,30.9808 L42.0533333,30.838 C40.6701252,31.4383703 39.1427489,31.6041068 37.6666667,31.314 L10.08,25.874 C5.97163605,25.0618247 3.28583768,21.0073434 4.08,16.8164 L5.92,7.0788 C6.19427523,5.64388175 6.85974816,4.31695646 7.84,3.2504 L7.84,3.026 L9.02,2.21 L9.07333333,2.176 C10.7458366,0.999430539 12.8119546,0.558338381 14.8066667,0.952 L42.3933333,6.392 C46.4771876,7.20804066 49.1523842,11.2297628 48.3866667,15.402 Z" id="Shape" fill="#DFF8FA"></path>
                <rect id="Rectangle-path" fill="#049CB5" transform="translate(24.885900, 17.021114) rotate(-79.080000) translate(-24.885900, -17.021114) " x="12.442567" y="-5.03808562" width="24.8866667" height="44.1184" rx="11.37"></rect>
                <path d="M19.5666667,16.1772 C17.96,18.9856 14.2333333,19.0808 13.82,19.0876 L13.7866667,19.0876 C13.4066667,18.9244 9.98666667,17.4216 9.51333333,14.2052 C9.41292344,13.4459813 9.47432087,12.6736017 9.69333333,11.9408 C9.87714601,11.420615 10.2120233,10.969926 10.6533333,10.6488 C11.8863593,9.80659963 13.5512193,10.1066274 14.4266667,11.3288 C14.6936703,11.7368714 14.8647741,12.2022737 14.9266667,12.6888 C14.9452809,12.737423 14.9988096,12.7616894 15.0466667,12.7432 C15.072925,12.7364963 15.0934277,12.7155835 15.1,12.6888 C15.6581004,11.6085342 16.8456398,11.0305441 18.02,11.2676 C18.7506046,11.4014724 19.3972626,11.8305745 19.8133333,12.4576 C20.105978,12.9232498 20.2524908,13.4688354 20.2333333,14.0216 C20.1676246,14.7810717 19.9401017,15.5167443 19.5666667,16.1772 Z" id="Shape" fill="#DFF8FA"></path>
                <path d="M23.4866667,24.4256 C23.1320304,24.3504161 22.901133,24.0001625 22.9666667,23.6368 L25.5533333,9.962 C25.6646931,9.64774567 25.9833982,9.46258763 26.3051981,9.52518933 C26.626998,9.58779102 26.8565191,9.87959883 26.8466667,10.2136 L24.26,23.902 C24.1832332,24.2609715 23.8407937,24.4928267 23.4866667,24.4256 Z" id="Shape" fill="#005872"></path>
                <path d="M40.18,15.98 L31.38,14.28 C31.034009,14.1521917 30.8549746,13.762613 30.98,13.4096 C31.0800341,13.1257363 31.3514505,12.9430187 31.6466667,12.9608 L40.4466667,14.6948 C40.8148565,14.6948 41.1133333,14.9992464 41.1133333,15.3748 C41.1133333,15.7503536 40.8148565,16.0548 40.4466667,16.0548 C40.3621384,16.0560662 40.2782329,16.0398747 40.2,16.0072 L40.18,15.98 Z" id="Shape" fill="#005872"></path>
                <path d="M39.32,20.5428 L30.5133333,18.8088 C30.1451435,18.8088 29.8466667,18.5043536 29.8466667,18.1288 C29.8466667,17.7532464 30.1451435,17.4488 30.5133333,17.4488 C30.5932803,17.4502654 30.6723169,17.4663889 30.7466667,17.4964 L39.5466667,19.2236 C39.9013029,19.2987839 40.1322003,19.6490375 40.0666667,20.0124 C39.9931341,20.3618916 39.666876,20.5936514 39.32,20.5428 Z" id="Shape" fill="#005872"></path>
                <path d="M30.2533333,25.9012 C30.1115339,25.8727238 29.9978453,25.764668 29.96,25.6224 C29.699372,24.6798554 29.8143875,23.6704508 30.28,22.814 C30.7665872,21.9770464 31.573778,21.3854287 32.5066667,21.182 C32.7024749,21.1541951 32.9002826,21.2164679 33.0466667,21.352 C33.2866667,21.6308 33.1333333,21.9232 32.92,22.338 C32.6682824,22.806095 32.4456223,23.2898463 32.2533333,23.7864 L32.1866667,23.9836 C32.4266667,23.7932 32.68,23.6708 32.9266667,23.8408 C33.0904577,23.9553148 33.169611,24.159847 33.1266667,24.3576 C33.4587782,24.0613877 33.9130365,23.9519165 34.34,24.0652 C34.5378912,24.1516964 34.6905305,24.319745 34.76,24.5276 C34.8,24.616 34.8133333,24.6432 34.86,24.6704 C35.0266985,24.7096369 35.1999682,24.7096369 35.3666667,24.6704 C35.7344739,24.5752582 36.1148474,24.540822 36.4933333,24.5684 C36.7443663,24.5883403 36.9925082,24.636225 37.2333333,24.7112 C37.4311744,24.7762341 37.5410738,24.9913399 37.48,25.194 C37.450967,25.2903056 37.3850667,25.370589 37.2972227,25.4166695 C37.2093786,25.4627499 37.1070225,25.4707291 37.0133333,25.4388 C36.8257054,25.3855183 36.6338603,25.3491123 36.44,25.33 C36.1351827,25.3148444 35.8298159,25.3446177 35.5333333,25.4184 C35.183116,25.5463343 34.796424,25.5192175 34.4666667,25.3436 C34.2873738,25.2264504 34.1513518,25.0518263 34.08,24.8472 L34.08,24.7792 C33.858968,24.8454922 33.6512798,24.9514132 33.4666667,25.092 C33.1666667,25.296 32.8,25.5272 32.5133333,25.2824 C32.4009876,25.1941348 32.3326557,25.0597161 32.3266667,24.9152 C32.06,25.1328 31.7933333,25.3096 31.5133333,25.1328 C31.2333333,24.956 31.26,24.4528 31.5933333,23.5348 C31.7855763,23.033819 32.0082297,22.5455401 32.26,22.0728 C31.7096894,22.3092835 31.2441415,22.7129135 30.9266667,23.2288 C30.5751132,23.9105097 30.4916658,24.7033075 30.6933333,25.4456 C30.7443807,25.6499518 30.6258908,25.8584348 30.4266667,25.9148 C30.3685612,25.9212208 30.3097924,25.9166098 30.2533333,25.9012 Z" id="Shape" fill="#DFF8FA"></path>
            </g>
            <g id="records" transform="translate(1050.601562, 330.812500) rotate(-28.000000) translate(-1050.601562, -330.812500) translate(1026.101562, 313.812500)" fill-rule="nonzero">
                <path d="M48.3866667,15.402 L46.5466667,25.16 C46.1848961,27.0710779 45.1273861,28.7716683 43.5866667,29.92 L43.1066667,30.26 L43.04,30.3008 L42.1,30.9808 L42.0533333,30.838 C40.6701252,31.4383703 39.1427489,31.6041068 37.6666667,31.314 L10.08,25.874 C5.97163605,25.0618247 3.28583768,21.0073434 4.08,16.8164 L5.92,7.0788 C6.19427523,5.64388175 6.85974816,4.31695646 7.84,3.2504 L7.84,3.026 L9.02,2.21 L9.07333333,2.176 C10.7458366,0.999430539 12.8119546,0.558338381 14.8066667,0.952 L42.3933333,6.392 C46.4771876,7.20804066 49.1523842,11.2297628 48.3866667,15.402 Z" id="Shape" fill="#DFF8FA"></path>
                <rect id="Rectangle-path" fill="#049CB5" transform="translate(24.885900, 17.021114) rotate(-79.080000) translate(-24.885900, -17.021114) " x="12.442567" y="-5.03808562" width="24.8866667" height="44.1184" rx="11.37"></rect>
                <path d="M19.5666667,16.1772 C17.96,18.9856 14.2333333,19.0808 13.82,19.0876 L13.7866667,19.0876 C13.4066667,18.9244 9.98666667,17.4216 9.51333333,14.2052 C9.41292344,13.4459813 9.47432087,12.6736017 9.69333333,11.9408 C9.87714601,11.420615 10.2120233,10.969926 10.6533333,10.6488 C11.8863593,9.80659963 13.5512193,10.1066274 14.4266667,11.3288 C14.6936703,11.7368714 14.8647741,12.2022737 14.9266667,12.6888 C14.9452809,12.737423 14.9988096,12.7616894 15.0466667,12.7432 C15.072925,12.7364963 15.0934277,12.7155835 15.1,12.6888 C15.6581004,11.6085342 16.8456398,11.0305441 18.02,11.2676 C18.7506046,11.4014724 19.3972626,11.8305745 19.8133333,12.4576 C20.105978,12.9232498 20.2524908,13.4688354 20.2333333,14.0216 C20.1676246,14.7810717 19.9401017,15.5167443 19.5666667,16.1772 Z" id="Shape" fill="#DFF8FA"></path>
                <path d="M23.4866667,24.4256 C23.1320304,24.3504161 22.901133,24.0001625 22.9666667,23.6368 L25.5533333,9.962 C25.6646931,9.64774567 25.9833982,9.46258763 26.3051981,9.52518933 C26.626998,9.58779102 26.8565191,9.87959883 26.8466667,10.2136 L24.26,23.902 C24.1832332,24.2609715 23.8407937,24.4928267 23.4866667,24.4256 Z" id="Shape" fill="#005872"></path>
                <path d="M40.18,15.98 L31.38,14.28 C31.034009,14.1521917 30.8549746,13.762613 30.98,13.4096 C31.0800341,13.1257363 31.3514505,12.9430187 31.6466667,12.9608 L40.4466667,14.6948 C40.8148565,14.6948 41.1133333,14.9992464 41.1133333,15.3748 C41.1133333,15.7503536 40.8148565,16.0548 40.4466667,16.0548 C40.3621384,16.0560662 40.2782329,16.0398747 40.2,16.0072 L40.18,15.98 Z" id="Shape" fill="#005872"></path>
                <path d="M39.32,20.5428 L30.5133333,18.8088 C30.1451435,18.8088 29.8466667,18.5043536 29.8466667,18.1288 C29.8466667,17.7532464 30.1451435,17.4488 30.5133333,17.4488 C30.5932803,17.4502654 30.6723169,17.4663889 30.7466667,17.4964 L39.5466667,19.2236 C39.9013029,19.2987839 40.1322003,19.6490375 40.0666667,20.0124 C39.9931341,20.3618916 39.666876,20.5936514 39.32,20.5428 Z" id="Shape" fill="#005872"></path>
                <path d="M30.2533333,25.9012 C30.1115339,25.8727238 29.9978453,25.764668 29.96,25.6224 C29.699372,24.6798554 29.8143875,23.6704508 30.28,22.814 C30.7665872,21.9770464 31.573778,21.3854287 32.5066667,21.182 C32.7024749,21.1541951 32.9002826,21.2164679 33.0466667,21.352 C33.2866667,21.6308 33.1333333,21.9232 32.92,22.338 C32.6682824,22.806095 32.4456223,23.2898463 32.2533333,23.7864 L32.1866667,23.9836 C32.4266667,23.7932 32.68,23.6708 32.9266667,23.8408 C33.0904577,23.9553148 33.169611,24.159847 33.1266667,24.3576 C33.4587782,24.0613877 33.9130365,23.9519165 34.34,24.0652 C34.5378912,24.1516964 34.6905305,24.319745 34.76,24.5276 C34.8,24.616 34.8133333,24.6432 34.86,24.6704 C35.0266985,24.7096369 35.1999682,24.7096369 35.3666667,24.6704 C35.7344739,24.5752582 36.1148474,24.540822 36.4933333,24.5684 C36.7443663,24.5883403 36.9925082,24.636225 37.2333333,24.7112 C37.4311744,24.7762341 37.5410738,24.9913399 37.48,25.194 C37.450967,25.2903056 37.3850667,25.370589 37.2972227,25.4166695 C37.2093786,25.4627499 37.1070225,25.4707291 37.0133333,25.4388 C36.8257054,25.3855183 36.6338603,25.3491123 36.44,25.33 C36.1351827,25.3148444 35.8298159,25.3446177 35.5333333,25.4184 C35.183116,25.5463343 34.796424,25.5192175 34.4666667,25.3436 C34.2873738,25.2264504 34.1513518,25.0518263 34.08,24.8472 L34.08,24.7792 C33.858968,24.8454922 33.6512798,24.9514132 33.4666667,25.092 C33.1666667,25.296 32.8,25.5272 32.5133333,25.2824 C32.4009876,25.1941348 32.3326557,25.0597161 32.3266667,24.9152 C32.06,25.1328 31.7933333,25.3096 31.5133333,25.1328 C31.2333333,24.956 31.26,24.4528 31.5933333,23.5348 C31.7855763,23.033819 32.0082297,22.5455401 32.26,22.0728 C31.7096894,22.3092835 31.2441415,22.7129135 30.9266667,23.2288 C30.5751132,23.9105097 30.4916658,24.7033075 30.6933333,25.4456 C30.7443807,25.6499518 30.6258908,25.8584348 30.4266667,25.9148 C30.3685612,25.9212208 30.3097924,25.9166098 30.2533333,25.9012 Z" id="Shape" fill="#DFF8FA"></path>
            </g>
            <g id="chat" transform="translate(555.000000, 297.000000)" fill-rule="nonzero">
                <path d="M37.3333333,14.3956098 L35.86,25.3865854 L34,26.7958537 L33.5933333,25.0902439 L12,22.2717073 C8.02601575,21.7529315 4.6340833,19.1793224 3.10191076,15.5203336 C1.56973822,11.8613448 2.13009905,7.67286371 4.57191076,4.53265067 C7.01372246,1.39243763 10.9660158,-0.222434315 14.94,0.296341463 L27.6866667,1.97560976 L28.28,2.06121951 C28.7621409,2.1577892 29.2384396,2.28090811 29.7066667,2.43 C30.1615216,2.58381952 30.6067468,2.76413572 31.04,2.97 C35.4205789,5.03113921 37.9607683,9.64287869 37.3333333,14.3956098 Z" id="Shape" fill="#DFF8FA"></path>
                <path d="M0.5,11.2346341 C-0.312472944,17.3120968 4.00920986,22.8921154 10.16,23.7073171 L34,26.802439 L35.4666667,15.804878 C36.1056864,11.0484182 33.5661745,6.42769935 29.18,4.36609756 C28.7501096,4.15467398 28.3043415,3.97633955 27.8466667,3.83268293 C27.3814408,3.67362849 26.9044645,3.55033442 26.42,3.46390244 C26.2133333,3.42439024 26.02,3.39804878 25.8333333,3.37170732 L13.1066667,1.71219512 C6.96519082,0.909531202 1.32517484,5.1697143 0.5,11.2346341 Z" id="Shape" fill="#049CB5"></path>
                <path d="M14.2733333,13.1707317 C14.1723763,13.9394654 13.6125199,14.5724067 12.8548742,14.7743597 C12.0972285,14.9763127 11.2910341,14.7074969 10.81229,14.0932846 C10.3335458,13.4790722 10.2765546,12.6404505 10.6678964,11.9685421 C11.0592381,11.2966337 11.8218265,10.9237907 12.6,11.0239024 C13.6620826,11.1605389 14.4111236,12.1215329 14.2733333,13.1707317 Z" id="Shape" fill="#DFF8FA"></path>
                <path d="M20.5066667,14.0070732 C20.3647448,15.0560138 19.388931,15.7927495 18.3270218,15.6526966 C17.2651125,15.5126438 16.5191527,14.5488274 16.6607945,13.4998498 C16.8024364,12.4508722 17.7780534,11.7138824 18.84,11.8536585 C19.9003524,11.9968725 20.644812,12.9587507 20.5066667,14.0070732 Z" id="Shape" fill="#DFF8FA"></path>
                <path d="M26.74,14.8236585 C26.5986526,15.8719305 25.6243691,16.6089466 24.5629981,16.4704949 C23.5016272,16.3320432 22.7544234,15.3704658 22.8933978,14.3218842 C23.0323722,13.2733027 24.004985,12.5341367 25.0666667,12.6702439 C26.1297169,12.810191 26.8779461,13.773088 26.74,14.8236585 Z" id="Shape" fill="#DFF8FA"></path>
                <path d="M13.8866667,13.5131707 C13.7453192,14.5614427 12.7710358,15.2984588 11.7096648,15.1600071 C10.6482938,15.0215554 9.90109007,14.059978 10.0400644,13.0113964 C10.1790388,11.9628149 11.1516516,11.2236488 12.2133333,11.3597561 C13.2763836,11.4997032 14.0246128,12.4626002 13.8866667,13.5131707 Z" id="Shape" fill="#005872"></path>
                <path d="M20.12,14.3297561 C19.9786526,15.3780281 19.0043691,16.1150442 17.9429981,15.9765925 C16.8816272,15.8381408 16.1344234,14.8765633 16.2733978,13.8279818 C16.4123722,12.7794003 17.384985,12.0402342 18.4466667,12.1763415 C19.5097169,12.3162886 20.2579461,13.2791855 20.12,14.3297561 Z" id="Shape" fill="#005872"></path>
                <path d="M26.3533333,15.1463415 C26.2523763,15.9150752 25.6925199,16.5480164 24.9348742,16.7499695 C24.1772285,16.9519225 23.3710341,16.6831067 22.89229,16.0688943 C22.4135458,15.454682 22.3565546,14.6160603 22.7478964,13.9441519 C23.1392381,13.2722435 23.9018265,12.8994005 24.68,12.9995122 C25.7401063,13.1395351 26.4873041,14.0981642 26.3533333,15.1463415 Z" id="Shape" fill="#005872"></path>
            </g>
            <g id="shield" transform="translate(786.000000, 326.000000)" fill-rule="nonzero">
                <path d="M38.8251724,7.60169492 C38.0182759,20.8947458 30.2653448,30.8033898 19.9975862,36.5476271 L18.6527586,37.3077966 L18.4712069,37.3540678 L18.3031034,37.2879661 L17.0389655,36.3757627 L16.8843103,36.2567797 L15.9967241,35.5957627 C15.8824138,35.5032203 15.7681034,35.4305085 15.6739655,35.3445763 C13.9466971,34.0001047 12.330121,32.5236515 10.8393103,30.9289831 C10.0660345,30.0828814 9.33310345,29.2235593 8.64051724,28.3311864 C4.02769175,22.3797115 1.5986097,15.0692088 1.74827586,7.58847458 L1.26413793,7.8 L0.349655172,6.4779661 L1.96344828,5.07661017 C2.09818924,4.95781405 2.26759698,4.88379786 2.44758621,4.86508475 L20.7237931,0.158644068 L20.9994828,0.271016949 L26.667931,2.45898305 L27.7034483,2.85559322 L27.8648276,2.92169492 L29.0818966,3.39762712 L38.3074138,6.96050847 C38.657069,7.1059322 38.8789655,7.27118644 38.8587931,7.62152542 L38.8251724,7.60169492 Z" id="Shape" fill="#DFF8FA"></path>
                <path d="M37.197931,9.01627119 C36.3910345,22.309322 28.6381034,32.2245763 18.3703448,37.9622034 L17.0255172,38.7289831 L16.8439655,38.7752542 L16.6758621,38.7091525 L15.4117241,37.790339 L15.257069,37.6779661 L14.3694828,37.0169492 C14.2551724,36.9244068 14.1475862,36.8516949 14.0467241,36.7657627 C12.3225801,35.4177158 10.7062774,33.9415123 9.21206897,32.3501695 C8.4387931,31.5040678 7.70586207,30.6447458 7.00655172,29.7457627 C2.29965517,23.6908475 -0.692586207,16.0957627 0.195,6.8679661 C0.195,6.50440678 0.396724138,6.37881356 0.820344828,6.29288136 L19.0965517,1.58644068 L19.3722414,1.69220339 L25.0406897,3.88677966 L26.0762069,4.28338983 L26.2375862,4.34949153 L27.4546552,4.82542373 L36.6801724,8.38830508 C37.0298276,8.52711864 37.2517241,8.69898305 37.2315517,9.04932203 L37.197931,9.01627119 Z" id="Shape" fill="#049CB5"></path>
                <path d="M36.6465517,8.37508475 C36.9558621,8.50067797 37.1643103,8.64610169 37.1912069,8.91711864 C37.1444874,8.64141207 36.9264175,8.42439167 36.6465517,8.37508475 Z" id="Shape" fill="#9FE8F7"></path>
                <path d="M25.007069,3.87355932 C24.3274141,12.1810011 22.2316454,20.3169663 18.8074138,27.9411864 C17.4625862,31.0281356 15.9563793,34.0489831 14.3358621,37.0037288 L15.2234483,37.6647458 L15.3781034,37.7771186 L16.6422414,38.6959322 L16.8103448,38.7620339 L16.9918966,38.7157627 L18.3367241,37.9489831 C28.617931,32.2113559 36.3708621,22.2961017 37.1643103,9.00305085 L37.1643103,8.90389831 C37.1643103,8.63288136 36.9289655,8.48745763 36.6196552,8.36186441 L32.1817241,6.64983051 L27.3941379,4.79898305 L26.177069,4.32305085 L26.0156897,4.25694915 L24.9801724,3.86033898 L25.007069,3.87355932 Z" id="Shape" fill="#08A9C7"></path>
                <path d="M23.6622414,19.1166102 C23.4712646,22.1756871 20.7951094,24.5041388 17.6831365,24.3188709 C14.5711636,24.1336029 12.2004044,21.5046887 12.3863519,18.4453124 C12.5722994,15.3859361 15.2446231,13.0532357 18.3568966,13.2335593 C19.8546857,13.3203405 21.2558058,13.9893867 22.251121,15.0930831 C23.2464363,16.1967795 23.7541494,17.6444219 23.6622414,19.1166102 Z" id="Shape" fill="#DFF8FA"></path>
                <path d="M17.1801724,20.6766102 L16.8977586,20.5444068 L15.3243103,18.8059322 C15.2210113,18.7032032 15.1813093,18.5541024 15.2201596,18.4147946 C15.2590098,18.2754867 15.3705102,18.1671361 15.5126596,18.1305573 C15.6548089,18.0939784 15.8060113,18.1347286 15.9093103,18.2374576 L17.207069,19.6784746 L20.2127586,17.0344068 C20.3831155,16.9005857 20.6302063,16.921196 20.7751919,17.0813203 C20.9201775,17.2414446 20.9123671,17.4850993 20.7574138,17.6359322 L17.4827586,20.5576271 L17.1801724,20.6766102 Z" id="Shape" fill="#005872"></path>
            </g>
            <g id="handle" transform="translate(804.000000, 313.000000)">
                <ellipse id="Oval" fill="#005872" fill-rule="nonzero" cx="2.675" cy="3.11590909" rx="2.325" ry="2.53636364"></ellipse>
                <path d="M2.675,3.11590909 L2.0375,14.9045455" id="Shape" stroke="#005872" stroke-width="1.5" stroke-linecap="round" stroke-linejoin="round"></path>
            </g>
            <g id="towers" transform="translate(207.000000, 215.000000)" fill-rule="nonzero">
                <path d="M8.14196745,110.781788 C8.10001494,111.21717 7.79079909,111.579975 7.36781316,111.690109 C5.22443203,112.255925 2.94832095,112.018402 0.967692852,111.022226 C0.569675831,110.827589 0.3410648,110.399626 0.400424628,109.960292 C4.66272234,77.8262044 8.92502005,45.6965693 13.1873178,13.5713869 L16.4441047,13.925365 L8.14196745,110.781788 Z" id="Shape" fill="#005872"></path>
                <rect id="Rectangle-path" fill="#005872" transform="translate(14.852150, 13.280799) rotate(-83.770000) translate(-14.852150, -13.280799) " x="6.96712133" y="5.3930986" width="15.7700566" height="15.7754015" rx="7.79"></rect>
                <path d="M12.8736518,5.78386861 L12.4198372,1.46934307 L19.8009979,2.27748175 L17.5652937,6.86583942 C17.462658,7.11985353 17.5741803,7.41001838 17.8204534,7.52972793 C18.0667265,7.64943748 18.363568,7.55777197 18.4996178,7.32 L21.0556617,2.07043796 C21.1351581,1.92001752 21.1351581,1.73998248 21.0556617,1.58956204 C20.9751238,1.44219083 20.8285225,1.34272437 20.6619108,1.32240876 L11.905959,0.367335766 C11.7492969,0.354212056 11.5943274,0.40752344 11.4788393,0.514270073 C11.3657118,0.625879867 11.31137,0.784085489 11.332017,0.941715328 L11.852569,5.89072993 C11.8942088,6.16567372 12.1442903,6.35941349 12.4206935,6.33085979 C12.6970968,6.30230609 12.9023588,6.06152728 12.8869993,5.78386861 L12.8736518,5.78386861 Z" id="Shape" fill="#005872"></path>
                <path d="M15.6966454,1.28233577 L14.4419816,9.23014599 C14.3848516,9.51232518 14.5671158,9.78742493 14.84908,9.84459849 C15.1310442,9.90177205 15.4059344,9.71936897 15.4630644,9.43718978 C15.4630644,9.43718978 15.4630644,9.40379562 15.4630644,9.39043796 L16.7177282,1.44262774 C16.7489165,1.16528191 16.5561568,0.912609931 16.280599,0.869633128 C16.0050413,0.826656324 15.7445939,1.00864476 15.6899717,1.28233577 L15.6966454,1.28233577 Z" id="Shape" fill="#005872"></path>
                <rect id="Rectangle-path" fill="#09A9D5" transform="translate(14.878952, 13.310973) rotate(-83.770000) translate(-14.878952, -13.310973) " x="10.8246522" y="9.2535829" width="8.10859873" height="8.11478102" rx="3.23"></rect>
                <path d="M757.236341,175.960511 C757.269702,176.219478 757.135876,176.471262 756.902654,176.588321 C755.717415,177.19161 754.352902,177.341227 753.065251,177.009088 C752.809997,176.942926 752.623328,176.724089 752.598089,176.461423 C750.956348,157.106168 749.316832,137.753139 747.67954,118.402336 L749.628273,118.188613 L757.236341,175.960511 Z" id="Shape" fill="#005872"></path>
                <rect id="Rectangle-path" fill="#005872" transform="translate(748.642801, 117.975681) rotate(-6.180000) translate(-748.642801, -117.975681) " x="743.91779" y="113.247067" width="9.45002123" height="9.45722628" rx="4.67"></rect>
                <path d="M746.491614,113.900803 L745.670743,111.436314 L750.095435,110.955438 L749.381345,113.934197 C749.339108,114.098319 749.437651,114.265671 749.601578,114.308212 C749.768668,114.346576 749.936322,114.246496 749.981982,114.081131 L750.796178,110.674927 C750.838415,110.510805 750.739872,110.343453 750.575945,110.300912 C750.538416,110.294297 750.50002,110.294297 750.462491,110.300912 L745.216929,110.868613 C745.13587,110.875313 745.060994,110.914629 745.009422,110.97757 C744.957849,111.040511 744.933992,111.121694 744.943305,111.202555 C744.939544,111.226899 744.939544,111.251677 744.943305,111.276022 L745.884303,114.107847 C745.941095,114.268815 746.116012,114.354857 746.278054,114.301533 C746.438004,114.247607 746.524455,114.074574 746.471592,113.914161 L746.491614,113.900803 Z" id="Shape" fill="#005872"></path>
                <path d="M747.57276,110.902007 L747.859731,115.717445 C747.863195,115.798954 747.898911,115.875736 747.959004,115.930863 C748.019097,115.98599 748.098631,116.014935 748.180071,116.011314 C748.350724,116.000561 748.48133,115.855003 748.473715,115.684051 L748.186745,110.868613 C748.201488,110.695248 748.073006,110.542747 747.899774,110.527993 C747.726541,110.513238 747.574156,110.641817 747.559413,110.815182 C747.555852,110.844014 747.555852,110.873175 747.559413,110.902007 L747.57276,110.902007 Z" id="Shape" fill="#005872"></path>
                <rect id="Rectangle-path" fill="#09A9D5" transform="translate(744.788608, 117.095489) rotate(-6.340192) translate(-744.788608, -117.095489) " x="742.378829" y="114.683873" width="4.81955731" height="4.82323192" rx="1.93"></rect>
                <path d="M942.446079,180.328467 C942.52688,180.811794 942.290569,181.292838 941.85879,181.523978 C939.68763,182.718702 937.154061,183.075146 934.737905,182.525803 C934.253858,182.42448 933.890097,182.02269 933.83695,181.530657 L921.343701,73.7009124 L924.96087,73.1933212 L942.446079,180.328467 Z" id="Shape" fill="#005872"></path>
                <rect id="Rectangle-path" fill="#005872" transform="translate(923.152184, 70.748384) rotate(-8.050000) translate(-923.152184, -70.748384) " x="914.352852" y="61.9423439" width="17.5986624" height="17.6120803" rx="8.7"></rect>
                <path d="M918.88109,65.3724088 L917.212654,60.8308029 L925.421359,59.6820438 L924.260127,65.2655474 C924.230711,65.4134757 924.261326,65.5670382 924.345216,65.6923425 C924.429106,65.8176467 924.559374,65.9043912 924.707268,65.9334307 C925.013575,65.9872026 925.307829,65.7899022 925.374643,65.4859489 L926.709391,59.1009854 C926.743552,58.9160144 926.689219,58.7257054 926.562569,58.5867153 C926.435978,58.4471871 926.248448,58.3796251 926.062038,58.4063869 L916.318372,59.7421533 C916.144656,59.7620375 915.990892,59.8637976 915.9046,60.0159854 C915.812902,60.1668882 915.795674,60.3516194 915.857884,60.5168978 L917.773248,65.7330657 C917.827203,65.8774523 917.936278,65.9944652 918.076464,66.0583485 C918.21665,66.1222317 918.376456,66.1277491 918.520708,66.0736861 C918.664023,66.0225353 918.780797,65.9159104 918.844799,65.7777633 C918.9088,65.6396161 918.914662,65.4815292 918.861069,65.3390146 L918.88109,65.3724088 Z" id="Shape" fill="#005872"></path>
                <path d="M920.716369,59.7287956 L921.523892,68.6784307 C921.569072,68.9836322 921.844723,69.2002821 922.15171,69.1718685 C922.458697,69.143455 922.689969,68.8798864 922.67845,68.5715693 L921.864253,59.6219343 C921.834767,59.3047133 921.553901,59.0714766 921.236921,59.1009855 C920.919942,59.1304944 920.686883,59.4115746 920.716369,59.7287956 Z" id="Shape" fill="#005872"></path>
                <rect id="Rectangle-path" fill="#09A9D5" transform="translate(923.154216, 70.761576) rotate(-7.940000) translate(-923.154216, -70.761576) " x="918.629417" y="66.2333283" width="9.0495966" height="9.05649635" rx="3.61"></rect>
            </g>
            <g id="arm" transform="translate(156.000000, 255.000000)" fill="#FF9F6B" fill-rule="nonzero">
                <path d="M0.426363636,14.28 C0.367684595,14.3655948 0.31858653,14.4577153 0.28,14.5546154 C0.13312355,14.9844729 0.177786928,15.45896 0.402115953,15.8519299 C0.626444978,16.2448997 1.00770902,16.5165337 1.44454545,16.5946154 C2.26545455,16.7842308 2.99090909,16.2088462 3.64,15.6857692 C4.33291688,15.0736768 4.931534,14.357206 5.41545455,13.5607692 C5.96272727,12.7565385 6.38272727,12.0634615 6.68818182,11.5665385 C6.83467824,8.73014815 6.50972492,5.88884628 5.72727273,3.16461538 L4.97,3.64192308 C4.95097087,4.0373856 4.97015564,4.43381239 5.02727273,4.82538462 L5.02727273,6.19846154 C4.92651101,7.80007172 4.49250284,9.36083187 3.75454545,10.7753846 L1.72454545,12.8742308 C1.23945985,13.2886704 0.803714056,13.7605289 0.426363636,14.28 Z" id="Shape"></path>
                <path d="M5.12272727,4.27615385 C5.41983158,4.32688996 5.72342516,4.23810873 5.95,4.03423077 C6.13833422,3.79585917 6.19366533,3.47452629 6.09636364,3.18423077 C5.99454545,2.87692308 5.77818182,2.83115385 5.35181818,2.47153846 C4.91986776,2.11081595 4.54802375,1.68017085 4.25090909,1.19653846 C3.90090909,0.595 3.92636364,0.281153846 3.71,0.241923077 C3.39818182,0.183076923 2.96545455,0.738846154 2.84454545,1.28807692 C2.7634442,1.8659348 2.90751111,2.45333477 3.24545455,2.92269231 C3.53149851,3.39553266 3.93297562,3.78324388 4.41,4.04730769 C4.62894416,4.17501048 4.87197203,4.25304312 5.12272727,4.27615385 Z" id="Shape"></path>
            </g>
            <g id="man" transform="translate(150.000000, 265.000000)" fill-rule="nonzero">
                <path d="M7.875,20.4533333 C8.4196875,20.9933333 9.03,21.58 9.7059375,22.22 C10.0996875,22.6066667 10.52625,22.9933333 10.9659375,23.4133333 C11.13,23.5733333 11.8190625,24.2066667 12.744375,25.04 C13.6696875,25.8733333 14.9296875,27.1533333 16.0846875,28.2 C16.2290625,28.34 16.3734375,28.46 16.5046875,28.58 C16.760625,28.18 16.93125,27.72 17.1609375,27.3266667 C17.075625,27.2133333 16.8984375,26.96 16.708125,26.66 C16.5178125,26.36 16.1765625,25.8666667 16.0125,25.62 C15.2315625,24.3933333 14.7,23.3933333 14.004375,22.1066667 C12.901875,20.0133333 12.691875,19.4933333 11.6484375,17.54 C11.326875,16.92 10.9921875,16.3733333 10.7690625,15.8933333 C10.605,15.5733333 10.4475,15.2933333 10.3228125,15.0533333 C10.2714706,14.9849606 10.2274707,14.9112083 10.1915625,14.8333333 L9.6009375,15.3333333 L6.9759375,17.5933333 C6.63549396,17.9089567 6.43642532,18.3519334 6.4246875,18.82 C6.48181745,19.6380635 7.07984849,20.3115625 7.875,20.4533333 Z" id="Shape" fill="#DFF8FA"></path>
                <path d="M16.1634375,28.4533333 C16.3538422,28.7936884 16.6980133,29.0159558 17.0821875,29.0466667 C17.61375,29.1 17.784375,28.7533333 18.834375,28.1733333 C19.884375,27.5933333 20.4028125,27.5066667 20.58,27.0066667 C20.7406422,26.6181739 20.5655534,26.1705393 20.18625,26 C19.3722853,25.587137 18.4145897,25.587137 17.600625,26 C17.2677923,26.1591164 16.9707073,26.3860342 16.7278125,26.6666667 C16.5787463,26.8245017 16.4507729,27.0015773 16.3471875,27.1933333 C16.1563192,27.4849959 16.0599521,27.8299652 16.0715625,28.18 C16.0821579,28.2768367 16.1135188,28.3701372 16.1634375,28.4533333 Z" id="Shape" fill="#FFB926"></path>
                <path d="M4.1146875,12.2933333 C4.69750178,13.2190994 5.15237809,14.2218041 5.4665625,15.2733333 C6.42826156,15.3257545 7.39267144,15.2878156 8.3475,15.16 C9.24104596,15.0214009 10.1198731,14.7982067 10.9725,14.4933333 C10.9725,14.3066667 11.0053125,14.12 11.0184375,13.9466667 C11.05125,13.6066667 11.0709375,13.28 11.090625,12.94 C11.1496875,12.1666667 11.1890625,11.38 11.1890625,10.5933333 L11.1890625,9.26 C11.1419621,8.47188581 11.0188727,7.69036581 10.8215625,6.92666667 C10.7306808,6.5574395 10.6166992,6.19447983 10.4803125,5.84 C10.2097028,5.1143645 9.8067125,4.44713161 9.2925,3.87333333 C8.24429345,2.80204296 6.72141712,2.36472356 5.27625,2.72 L5.25,2.72 C4.53190227,2.8844297 3.8591823,3.21018278 3.28125,3.67333333 L3.1434375,3.78 L2.9990625,3.92666667 C2.91332346,4.00149555 2.83223061,4.0816491 2.75625,4.16666667 C1.325625,5.72666667 1.2928125,7.82666667 2.375625,9.66666667 C2.848125,10.5933333 3.54375,11.4 4.1146875,12.2933333 Z" id="Shape" fill="#005872"></path>
                <path d="M3.7078125,32 L5.1384375,32.5 C5.1778125,32.4466667 5.2040625,32.3933333 5.236875,32.3466667 L5.893125,31.18 L7.861875,27.5266667 C8.68348398,25.8434258 9.31107541,24.069462 9.7321875,22.24 C9.8240625,21.8533333 9.9225,21.4733333 10.00125,21.1 C10.066875,20.8533333 10.119375,20.6066667 10.171875,20.3466667 C10.4661994,18.8904228 10.6852494,17.4195196 10.828125,15.94 C10.880625,15.5733333 10.906875,15.2066667 10.9396875,14.8533333 L10.9396875,14.54 C10.0879801,14.8479744 9.20885862,15.0712434 8.3146875,15.2066667 C7.3581383,15.3399066 6.39125357,15.3800888 5.4271875,15.3266667 C5.53806778,15.6497678 5.63010242,15.9792282 5.7028125,16.3133333 C6.04150494,17.9023899 6.13229977,19.5356423 5.971875,21.1533333 C5.79528218,23.2718079 5.45961781,25.3734799 4.9678125,27.44 C4.633125,28.7733333 4.3115625,30.16 3.8784375,31.48 C3.8390625,31.6133333 3.78,31.8 3.7078125,32 Z" id="Shape" fill="#B7E2E2"></path>
                <path d="M4.423125,0.52 C4.6659375,0.933333333 4.8890625,1.56666667 5.3025,2.25333333 C6.37875,4.01333333 5.026875,4.76666667 4.475625,4.88 C4.06564899,4.98163379 3.63251207,4.90426902 3.28125,4.66666667 C3.0121875,4.43333333 3.0646875,4.21333333 2.7365625,3.26666667 C2.4084375,2.32 2.3165625,2.36666667 2.3296875,2.12 C2.3428125,1.87333333 2.49375,1.19333333 4.423125,0.52 Z" id="Shape" fill="#FF9F6B"></path>
                <path d="M5.0596875,33.4133333 C5.3615625,33.4933333 5.67,33.62 5.971875,33.68 C6.188219,33.7266113 6.411781,33.7266113 6.628125,33.68 C7.3565625,33.54 7.625625,32.8866667 8.098125,32.4066667 C8.3540625,32.1333333 8.9775,31.7066667 8.544375,31.3 C8.13986984,31.0305465 7.61092157,31.054727 7.231875,31.36 C7.10629983,31.4818681 6.94929507,31.5650839 6.7790625,31.6 C6.63550008,31.6007769 6.49704227,31.5459451 6.391875,31.4466667 C6.11552275,31.1847322 5.80665712,30.960612 5.473125,30.78 C5.4209818,30.7549764 5.3658192,30.7370442 5.3090625,30.7266667 C4.54807034,30.5396398 3.77832478,30.9999656 3.57,31.7666667 C3.51789949,31.9483787 3.50447697,32.1392767 3.530625,32.3266667 C3.5896875,33.14 4.449375,33.2266667 5.0596875,33.4133333 Z" id="Shape" fill="#FFB926"></path>
                <path d="M4.0753125,7.64666667 C4.06743732,7.53859895 4.04986436,7.43148754 4.0228125,7.32666667 C3.78133747,6.55938105 2.97375587,6.13575614 2.218125,6.38 C2.09476112,6.41790609 1.97756594,6.47406431 1.8703125,6.54666667 C1.0959375,6.98 0.879375,7.94 0.6759375,8.80666667 C0.50436285,9.76764842 0.46680687,10.748382 0.564375,11.72 C0.574185239,12.2239279 0.611429641,12.7269185 0.6759375,13.2266667 C0.726470393,13.8117438 0.932922101,14.3717886 1.273125,14.8466667 C2.76242435,16.8744344 4.56925384,18.6401268 6.6215625,20.0733333 L6.93,19.1666667 C6.69666309,18.8516788 6.43997867,18.5552607 6.1621875,18.28 C5.8734375,17.9333333 5.5846875,17.58 5.32875,17.2066667 C4.52221594,16.0060751 3.94969839,14.6595574 3.6421875,13.24 C3.57059987,12.8824091 3.55729791,12.5153032 3.6028125,12.1533333 L3.8784375,9.64 C4.01274551,8.98441618 4.07873426,8.31628887 4.0753125,7.64666667 Z" id="Shape" fill="#FF9F6B"></path>
                <path d="M0.70875,8.20666667 C0.590374117,8.61572144 0.511255139,9.03545669 0.4725,9.46 C1.15755931,9.3201993 1.86104882,9.29990938 2.5528125,9.4 C3.30790733,9.50429398 4.03887007,9.74353995 4.711875,10.1066667 L4.790625,9.68666667 C5.01937688,8.89042332 5.1516046,8.0687925 5.184375,7.24 C5.18023545,7.10300777 5.1626483,6.96677717 5.131875,6.83333333 C4.99110535,6.32221297 4.65612079,5.88889423 4.2006954,5.62880745 C3.74527002,5.36872067 3.20675564,5.30319695 2.70375,5.44666667 C2.59976217,5.47446469 2.49866609,5.51241932 2.401875,5.56 C1.378125,6 1.02375,7.15333333 0.70875,8.20666667 Z" id="Shape" fill="#005872"></path>
                <path d="M6.234375,19.08 C6.04554842,19.2310202 5.93644488,19.4625429 5.9390625,19.7066667 C5.97421341,19.9468181 6.13510305,20.1485686 6.3590625,20.2333333 C6.58875,20.3333333 6.7265625,20.2333333 7.1596875,20.1533333 C7.59420793,20.0799774 8.03766707,20.0799774 8.4721875,20.1533333 C8.9971875,20.2466667 9.1678125,20.4266667 9.305625,20.3133333 C9.4434375,20.2 9.410625,19.6066667 9.1546875,19.2466667 C8.86134206,18.8978431 8.44340253,18.6819582 7.993125,18.6466667 C7.56803501,18.5692996 7.13023803,18.6107785 6.7265625,18.7666667 C6.54152364,18.8324584 6.37334324,18.9395244 6.234375,19.08 Z" id="Shape" fill="#FF9F6B"></path>
            </g>
            <g id="head" transform="translate(145.000000, 257.000000)" fill-rule="nonzero">
                <path d="M5.56470588,10.3178947 C5.69000173,10.6877398 5.66661912,11.0957047 5.5,11.4468421 C5.40534062,11.9032738 5.066919,12.2589468 4.63470071,12.356251 C4.20248243,12.4535551 3.75639634,12.2744962 3.49411765,11.8984211 C3.28183938,11.6408184 3.15663794,11.315861 3.13823529,10.9747368 C3.04328093,10.5601513 3.13659422,10.1224569 3.39058824,9.79105263 C3.68320064,9.51607724 4.08081914,9.4021003 4.46470588,9.48315789 C4.94240303,9.54374909 5.35750106,9.85874692 5.56470588,10.3178947 Z" id="Shape" fill="#FF9F6B"></path>
                <path d="M6.04352941,1.94315789 C7.09528787,1.8233895 8.14534398,2.18437657 8.92941176,2.93526316 C9.59445264,3.70903716 9.92703914,4.73931793 9.84823529,5.78157895 C9.78229865,6.74770019 9.42122381,7.66499609 8.81941176,8.39526316 C8.27845862,9.19343676 7.48754158,9.76310982 6.58705882,10.0031579 C5.29673139,10.2499522 3.9765635,9.78290964 3.08647059,8.76473684 C1.86305729,7.3711862 1.66978729,5.28552462 2.61411765,3.66736842 C3.66235294,2.05263158 5.59058824,1.95684211 6.04352941,1.94315789 Z" id="Shape" fill="#FF9F6B"></path>
                <path d="M8.48294118,5.95947368 C8.62040848,5.79476735 8.76967384,5.64150668 8.92941176,5.50105263 C9.09709154,5.35537533 9.2876215,5.24190401 9.49235294,5.16578947 C9.74759861,5.07671382 10.0279078,5.12526266 10.2429412,5.29578947 C10.5320752,5.62904515 10.6975363,6.06158819 10.7088235,6.51368421 C10.7853503,7.0204607 10.8005706,7.53547553 10.7541176,8.04631579 C10.5953164,9.65580822 9.53562533,11.0058499 8.06882353,11.4673684 C7.74068186,11.5763491 7.39589392,11.6181485 7.05294118,11.5905263 C6.65689663,11.5152108 6.28903875,11.3230932 5.99176471,11.0363158 L5.12470588,10.3521053 C4.88350022,10.1115053 4.57888416,9.95403129 4.25117647,9.90052632 C4.013038,9.90264867 3.78349259,9.99488419 3.60411765,10.1605263 C3.49405112,10.2619818 3.39818936,10.3794739 3.31941176,10.5094737 C3.26117647,10.6189474 3.22882353,10.7489474 3.11882353,10.8105263 C2.90529412,10.9336842 2.54294118,10.7078947 2.47176471,10.6463158 C1.7280967,10.0843645 1.1566609,9.30407897 0.828235294,8.40210526 C0.220228918,7.04989967 0.206028242,5.48322767 0.789411765,4.11894737 C1.04084199,3.58390232 1.40364988,3.11604991 1.85058824,2.75052632 C2.07808554,2.57208807 2.32869633,2.42921855 2.59470588,2.32631579 L3.28058824,2.08684211 C3.19915121,1.95342468 3.0820296,1.84863166 2.94411765,1.78578947 C2.63352941,1.65578947 2.39411765,1.82684211 2.29705882,1.70368421 C2.2,1.58052632 2.29705882,1.14263158 2.55588235,0.841578947 C3.07286026,0.30710302 3.77451786,0.0202179446 4.49705882,0.0478947368 C5.26378347,0.00660336981 6.02487357,0.206610116 6.68411765,0.622631579 C7.07882353,0.889473684 7.57705882,1.23842105 7.68058824,1.75842105 C7.73961259,2.12600093 7.57727932,2.49383059 7.27294118,2.68210526 C6.99958924,2.79945267 6.70737302,2.85985755 6.41235294,2.86 C5.73812256,2.95510368 5.11136619,3.27927115 4.62647059,3.78368421 C3.68770119,4.70390526 3.35031648,6.12288243 3.76588235,7.40315789 C4.1395913,8.47221594 5.08911693,9.19480275 6.16647059,9.23 C6.4500243,9.22990202 6.72380531,9.12042705 6.93647059,8.92210526 C7.2456424,8.4770008 7.47584402,7.97625328 7.61588235,7.44421053 C7.83678469,6.9082859 8.12873491,6.40835528 8.48294118,5.95947368 Z" id="Shape" fill="#005872"></path>
                <path d="M10.0423529,8.03947368 C10.0161947,8.18887774 9.96584798,8.33238735 9.89352941,8.46368421 C9.69988088,8.80252428 9.38877207,9.04802541 9.02647059,9.14789474 C8.8326111,9.21725056 8.62448025,9.22908287 8.42470588,9.18210526 C8.22230372,9.1342289 8.05387227,8.98665854 7.97176471,8.78526316 C7.74529412,8.10105263 8.74823529,7.91631579 8.94882353,7.41684211 C9.02,7.22526316 9.03294118,7.02 9.09764706,6.82157895 C9.14864212,6.62023827 9.30974539,6.47151721 9.50529412,6.44526316 C9.75117647,6.44526316 9.89352941,6.73947368 9.96470588,6.99263158 C10.0612453,7.33166098 10.087726,7.68867482 10.0423529,8.03947368 Z" id="Shape" fill="#FDFCF0"></path>
            </g>
            <g id="wello" transform="translate(1186.000000, 192.000000)" fill-rule="nonzero">
                <path d="M0.341868132,30.1632673 C0.341868132,46.7010787 13.8891412,60.1076238 30.6005495,60.1076238 C31.8742269,60.1022501 33.1461543,60.0136083 34.408022,59.8422772 L34.5689011,59.8422772 L34.6292308,59.9152475 L37.1764835,62.7743564 L40.4812088,66.5024752 L42.09,61.7992079 L43.6853846,57.1092079 C46.3419597,55.8541676 48.7953438,54.2154479 50.9651648,52.2467327 C57.2024575,46.5458399 60.7787824,38.5454813 60.8458242,30.1433663 C60.8476329,20.3637317 56.0235986,11.1994351 47.9242611,5.59606209 C39.8249235,-0.00731095989 29.4709567,-1.34362648 20.1903297,2.01663366 C19.9423077,2.11613861 19.6875824,2.20237624 19.4462637,2.30851485 L19.0641758,2.46772277 L18.8831868,2.54069307 L18.3737363,2.75960396 C11.2618231,5.91223861 5.62444501,11.6190867 2.60087912,18.7268317 C1.46799937,21.4620453 0.749694219,24.3478909 0.469230769,27.2908911 C0.388791209,28.2527723 0.341868132,29.1881188 0.341868132,30.1632673 Z" id="Shape" fill="#91D757"></path>
                <path d="M45.6628571,4.57059406 C53.4479242,14.0768351 55.2831148,27.0638754 50.4318023,38.31885 C45.5804897,49.5738245 34.8380443,57.2514857 22.5163736,58.270099 C25.0435165,59.8356436 34.3342857,60.0479208 34.3342857,60.0479208 L40.4812088,66.389703 L43.671978,57.0428713 C43.671978,57.0428713 49.2223077,54.0311881 49.7451648,53.619901 C57.229539,47.6937402 61.394719,38.5799177 60.9491301,29.1045253 C60.5035413,19.6291329 55.5010447,10.9375183 47.4928571,5.72485149 C46.8627473,5.30693069 46.2527473,4.99514851 45.5824176,4.63029703 L45.6628571,4.57059406 Z" id="Shape" fill="#8ACA4F"></path>
            </g>
            <g id="eyes" transform="translate(1203.000000, 212.000000)" fill="#FFF4E2" fill-rule="nonzero">
                <path d="M3.33967742,4.94666667 C4.47520854,4.69661848 5.25085443,3.66256965 5.15919262,2.52098816 C5.06753082,1.37940667 4.13648634,0.478078492 2.9751424,0.406646622 C1.81379846,0.335214753 0.775961712,1.11544111 0.540578167,2.23690672 C0.305194622,3.35837232 0.943974532,4.47941956 2.03903226,4.86666667 C2.45625493,5.01343471 2.90713225,5.04116724 3.33967742,4.94666667 Z" id="Shape"></path>
                <path d="M18.7712903,4.94666667 C19.9068214,4.69661848 20.6824673,3.66256965 20.5908055,2.52098816 C20.4991437,1.37940667 19.5680992,0.478078492 18.4067553,0.406646622 C17.2454114,0.335214753 16.2075746,1.11544111 15.9721911,2.23690672 C15.7368075,3.35837232 16.3755874,4.47941956 17.4706452,4.86666667 C17.8878678,5.01343471 18.3387452,5.04116724 18.7712903,4.94666667 Z" id="Shape"></path>
                <path d="M10.9809677,15.9266667 C7.66244902,15.9266667 4.97225806,13.2791772 4.97225806,10.0133333 L4.97225806,9.78666667 L16.9354839,9.78666667 L16.9354839,10 C16.9356926,13.2473484 14.280484,15.8901386 10.9809677,15.9266667 Z" id="Shape"></path>
            </g>
            <g id="handle-2" transform="translate(575.000000, 285.000000)">
                <ellipse id="Oval" fill="#005872" fill-rule="nonzero" cx="2.33125" cy="2.83636364" rx="2.325" ry="2.53636364"></ellipse>
                <path d="M2.33125,2.83636364 L1.69375,14.625" id="Shape" stroke="#005872" stroke-width="1.5" stroke-linecap="round" stroke-linejoin="round"></path>
            </g>
            <g id="handle-3" transform="translate(332.000000, 240.000000)">
                <ellipse id="Oval" fill="#005872" fill-rule="nonzero" transform="translate(2.846722, 3.153756) rotate(-84.340000) translate(-2.846722, -3.153756) " cx="2.84672237" cy="3.1537563" rx="2.48" ry="2.53636364"></ellipse>
                <path d="M2.84666667,3.15681818 L1.03333333,14.8159091" id="Shape" stroke="#005872" stroke-width="1.5" stroke-linecap="round" stroke-linejoin="round"></path>
            </g>
            <g id="shield-2" transform="translate(59.000000, 246.000000)" fill-rule="nonzero">
                <path d="M38.5427586,5.4 C39.5917241,18.7933333 33.2912069,29.74 23.9177586,36.8733333 L22.6872414,37.8133333 L22.5191379,37.8866667 L22.3375862,37.84 L20.9927586,37.1 L20.8246552,37 L19.8563793,36.46 C19.7286207,36.3866667 19.6075862,36.3266667 19.5,36.2533333 C17.6099876,35.1446445 15.8112868,33.8896279 14.1206897,32.5 C13.2398276,31.76 12.3925862,31 11.5856897,30.2 C6.18752617,24.8805554 2.76312412,17.9070214 1.86931034,10.4133333 L1.34482759,10.6666667 L0.255517241,9.47333333 L1.66086207,7.85333333 C1.77619784,7.71508572 1.9347273,7.61890431 2.11137931,7.58 L19.5941379,0.4 L19.8832759,0.473333333 L25.8005172,1.88666667 L26.8831034,2.14666667 L27.0512069,2.18666667 L28.3287931,2.5 L37.9577586,4.80666667 C38.3275862,4.90666667 38.5696552,5.04 38.6301724,5.39333333 L38.5427586,5.4 Z" id="Shape" fill="#DFF8FA"></path>
                <path d="M37.1239655,7.03333333 C38.172931,20.4266667 31.8724138,31.38 22.4989655,38.5066667 L21.2751724,39.4533333 L21.1003448,39.5266667 L20.9255172,39.48 L19.547069,38.7333333 L19.3789655,38.64 L18.4039655,38.1 C18.282931,38.0266667 18.1618966,37.9666667 18.0543103,37.8933333 C16.1672504,36.7801212 14.368895,35.5253456 12.675,34.14 C11.7941379,33.4 10.9468966,32.64 10.1265517,31.8333333 C4.65982759,26.42 0.605172414,19.24 0.201724138,9.9 C0.147931034,9.54 0.329482759,9.38666667 0.739655172,9.23333333 L18.2224138,2.05333333 L18.5115517,2.12 L24.4287931,3.54666667 L25.5113793,3.8 L25.6794828,3.84666667 L26.9503448,4.15333333 L36.5860345,6.46 C36.9491379,6.55333333 37.197931,6.69333333 37.2584483,7.04666667 L37.1239655,7.03333333 Z" id="Shape" fill="#049CB5"></path>
                <path d="M36.4918966,6.46666667 C36.8146552,6.55333333 37.0432759,6.66666667 37.1037931,6.93333333 C37.0191815,6.66562537 36.7745817,6.47907979 36.4918966,6.46666667 Z" id="Shape" fill="#9FE8F7"></path>
                <path d="M24.3346552,3.54666667 C24.811113,11.9402067 23.8586602,20.3533746 21.5172414,28.4333333 C20.6162069,31.7 19.547069,34.92 18.3501724,38.0933333 L19.3251724,38.6333333 L19.4932759,38.7266667 L20.8381034,39.4733333 L21.012931,39.5133333 L21.1877586,39.4466667 L22.4115517,38.4933333 C31.8253448,31.3733333 38.0989655,20.4133333 37.0365517,7.02666667 C37.0398343,6.99341277 37.0398343,6.95992056 37.0365517,6.92666667 C36.9962069,6.65333333 36.7474138,6.54 36.4246552,6.46 L31.785,5.34666667 L26.7889655,4.14666667 L25.5181034,3.84 L25.35,3.79333333 L24.2674138,3.54 L24.3346552,3.54666667 Z" id="Shape" fill="#08A9C7"></path>
                <path d="M25.1213793,18.96 C25.2946199,21.2192359 24.0776743,23.3593548 22.038327,24.3818518 C19.9989796,25.4043487 17.5391301,25.1077174 15.8064586,23.6303558 C14.0737871,22.1529942 13.4097558,19.7860498 14.1241785,17.6338565 C14.8386013,15.4816631 16.7906849,13.9683594 19.0696552,13.8 C20.5624722,13.6879454 22.0389981,14.1687713 23.174069,15.1365891 C24.30914,16.1044068 25.0096673,17.4798444 25.1213793,18.96 Z" id="Shape" fill="#DFF8FA"></path>
                <path d="M18.915,21.4 L18.6191379,21.3 L16.8103448,19.78 C16.6246629,19.6419288 16.5870316,19.3807616 16.7262931,19.1966667 C16.8655546,19.0125718 17.1289732,18.9752621 17.3146552,19.1133333 L18.8006897,20.38 L21.4163793,17.3266667 C21.5763541,17.1690366 21.8346804,17.1690366 21.9946552,17.3266667 C22.1427092,17.473877 22.1598641,17.706324 22.035,17.8733333 L19.1637931,21.2066667 L18.915,21.4 Z" id="Shape" fill="#005872"></path>
            </g>
            <g id="handle-4" transform="translate(75.000000, 232.000000)">
                <ellipse id="Oval" fill="#005872" fill-rule="nonzero" transform="translate(2.867581, 3.286660) rotate(-7.860000) translate(-2.867581, -3.286660) " cx="2.86758127" cy="3.28665989" rx="2.48" ry="2.42608696"></ellipse>
                <path d="M2.86,3.29347826 L3.76,14.5565217" id="Shape" stroke="#005872" stroke-width="1.5" stroke-linecap="round" stroke-linejoin="round"></path>
            </g>
            <g id="handle-5" transform="translate(1041.000000, 305.000000)">
                <ellipse id="Oval" fill="#005872" fill-rule="nonzero" transform="translate(3.067707, 3.091181) rotate(-20.422333) translate(-3.067707, -3.091181) " cx="3.06770695" cy="3.09118075" rx="2.37448193" ry="2.41438919"></ellipse>
                <path d="M3.41363636,3.23941176 L6.68454545,13.9417647" id="Shape" stroke="#005872" stroke-width="1.5" stroke-linecap="round" stroke-linejoin="round"></path>
            </g>
            <g id="chat-2" transform="translate(1206.000000, 296.000000)" fill-rule="nonzero">
                <path d="M37.2733333,14.2243902 L35.8,25.2153659 L33.94,26.6246341 L33.5333333,24.9190244 L11.94,22.1004878 C5.79675263,21.2985299 1.47480808,15.7290614 2.28666667,9.66073171 C3.09852525,3.59240199 8.73675263,-0.676835917 14.88,0.125121951 L27.6266667,1.80439024 L28.22,1.89 C28.7028665,1.9834575 29.1793502,2.10662425 29.6466667,2.25878049 C30.1026022,2.40974575 30.5480057,2.59013415 30.98,2.79878049 C35.3605789,4.8599197 37.9007683,9.47165918 37.2733333,14.2243902 Z" id="Shape" fill="#DFF8FA"></path>
                <path d="M0.44,11.0634146 C-0.372472944,17.1408773 3.94920986,22.7208959 10.1,23.5360976 L33.94,26.6312195 L35.4066667,15.6336585 C36.0478665,10.876801 33.5076996,6.25489051 29.12,4.19487805 C28.6926737,3.97788191 28.2464256,3.79935547 27.7866667,3.66146341 C27.3214408,3.50240898 26.8444645,3.3791149 26.36,3.29268293 C26.1533333,3.25317073 25.96,3.22682927 25.7733333,3.2004878 L13.0466667,1.54097561 C6.90519082,0.738311689 1.26517484,4.99849479 0.44,11.0634146 Z" id="Shape" fill="#049CB5"></path>
                <path d="M14.2133333,12.9995122 C14.0719859,14.0477842 13.0977024,14.7848003 12.0363315,14.6463486 C10.9749605,14.5078969 10.2277567,13.5463194 10.3667311,12.4977379 C10.5057055,11.4491564 11.4783183,10.7099903 12.54,10.8460976 C13.0513588,10.9116536 13.5152581,11.1756089 13.8292305,11.5796604 C14.1432029,11.9837119 14.2814133,12.4946121 14.2133333,12.9995122 Z" id="Shape" fill="#DFF8FA"></path>
                <path d="M20.4466667,13.8292683 C20.3047448,14.878209 19.328931,15.6149446 18.2670218,15.4748918 C17.2051125,15.334839 16.4591527,14.3710225 16.6007945,13.3220449 C16.7424364,12.2730673 17.7180534,11.5360775 18.78,11.6758537 C19.8403524,11.8190676 20.584812,12.7809458 20.4466667,13.8292683 Z" id="Shape" fill="#DFF8FA"></path>
                <path d="M26.6666667,14.652439 C26.5253192,15.700711 25.5510358,16.4377271 24.4896648,16.2992754 C23.4282938,16.1608237 22.6810901,15.1992463 22.8200644,14.1506647 C22.9590388,13.1020832 23.9316516,12.3629171 24.9933333,12.4990244 C26.0563836,12.6389715 26.8046128,13.6018685 26.6666667,14.652439 Z" id="Shape" fill="#DFF8FA"></path>
                <path d="M13.8266667,13.3419512 C13.6853192,14.3902232 12.7110358,15.1272393 11.6496648,14.9887876 C10.5882938,14.8503359 9.84109007,13.8887585 9.98006445,12.8401769 C10.1190388,11.7915954 11.0916516,11.0524293 12.1533333,11.1885366 C13.2163836,11.3284837 13.9646128,12.2913807 13.8266667,13.3419512 Z" id="Shape" fill="#005872"></path>
                <path d="M20.06,14.1585366 C19.9186526,15.2068086 18.9443691,15.9438247 17.8829981,15.805373 C16.8216272,15.6669212 16.0744234,14.7053438 16.2133978,13.6567623 C16.3523722,12.6081807 17.324985,11.8690147 18.3866667,12.005122 C19.4497169,12.145069 20.1979461,13.107966 20.06,14.1585366 Z" id="Shape" fill="#005872"></path>
                <path d="M26.2933333,14.975122 C26.1923763,15.7438556 25.6325199,16.3767969 24.8748742,16.5787499 C24.1172285,16.780703 23.3110341,16.5118872 22.83229,15.8976748 C22.3535458,15.2834625 22.2965546,14.4448408 22.6878964,13.7729324 C23.0792381,13.101024 23.8418265,12.728181 24.62,12.8282927 C25.6820826,12.9649292 26.4311236,13.9259231 26.2933333,14.975122 Z" id="Shape" fill="#005872"></path>
            </g>
            <g id="handle-6" transform="translate(1226.000000, 284.000000)">
                <ellipse id="Oval" fill="#005872" fill-rule="nonzero" cx="3.09333333" cy="2.65909091" rx="2.48" ry="2.53636364"></ellipse>
                <path d="M3.09333333,2.65909091 L2.41333333,14.4477273" id="Shape" stroke="#005872" stroke-width="1.5" stroke-linecap="round" stroke-linejoin="round"></path>
            </g>
        </g>
    </g>
</svg>