<?xml version="1.0" encoding="UTF-8"?>
<svg width="1280px" height="489px" viewBox="0 0 1280 489" version="1.1" xmlns="http://www.w3.org/2000/svg" xmlns:xlink="http://www.w3.org/1999/xlink">
    <!-- Generator: Sketch 48.2 (47327) - http://www.bohemiancoding.com/sketch -->
    <title>landingPageContainer2</title>
    <desc>Created with Sketch.</desc>
    <defs></defs>
    <g id="Homepage-v1---Brand" stroke="none" stroke-width="1" fill="none" fill-rule="evenodd" transform="translate(0.000000, -3417.000000)">
        <g id="landingPageContainer2" transform="translate(-1.000000, 3417.000000)" fill-rule="nonzero">
            <g id="bg">
                <rect id="Rectangle-path" fill="#004343" x="0.344694933" y="0.563975577" width="1281.22444" height="488.290054"></rect>
                <polygon id="Shape" fill="#004940" points="1281.56913 0.563975577 1281.56913 458.260014 1270.66484 460.588901 1213.27313 472.850393 1138.35502 488.85403 0.344694933 488.85403 0.344694933 90.4815875 421.217208 0.563975577"></polygon>
                <g id="Group" opacity="0.21" fill="#006959">
                    <path d="M1202.85937,0.563975577 C1189.03843,11.5913569 1174.6209,21.9751425 1160.32269,32.232863 L987.915564,155.922659 C942.024736,188.845563 895.775957,222.000692 844.244064,245.136961 C743.129131,290.613297 629.167684,294.554491 520.00545,313.796011 C436.171665,328.565536 354.200558,352.637341 270.684953,369.231493 C181.534912,386.933691 91.138666,396.017015 0.344694933,400.986635 L0.344694933,90.4683175 L421.217208,0.563975577 L1202.85937,0.563975577 Z" id="Shape"></path>
                </g>
                <path d="M651.354105,488.85403 L197.231789,488.85403 L129.923475,427.327612 L125.734105,423.505848 C124.718152,422.071281 123.995059,420.450113 123.606277,418.735278 L111.044798,363.664722 L122.466132,351.151099 L193.645636,273.169864 L210.131334,255.116011 L294.521934,162.624016 L651.354105,488.85403 Z" id="Shape" fill="#004343" opacity="0.49"></path>
                <path d="M1213.27313,472.850393 L1138.36827,488.85403 L1033.42192,488.85403 L883.453113,349.923623 L878.415264,345.279118 C878.262802,345.066798 878.415264,344.137897 878.826246,342.71137 C881.026991,334.709552 890.274095,311.102198 890.274095,311.102198 L912.506918,286.990583 L913.487973,285.928982 L914.290052,286.187748 C915.640695,284.524478 917.236653,283.076915 919.022978,281.894898 C923.537156,278.78308 930.431055,276.586893 936.257725,277.714844 L1013.36333,292.603799 C1014.74638,292.868301 1016.09898,293.272906 1017.40024,293.81137 L1028.11892,303.584735 L1034.96642,309.848182 C1034.97729,309.850991 1034.9887,309.850991 1034.99957,309.848182 L1038.49954,313.046255 L1213.27313,472.850393 Z" id="Shape" fill="#004343" opacity="0.49"></path>
                <path d="M1281.56913,418.005427 L1055.65475,205.16768 L1052.6917,202.374342 C1046.44912,195.653219 1043.51503,186.501964 1044.68437,177.399933 C1045.85371,168.297901 1051.00542,160.187394 1058.74374,155.265794 C1059.9283,154.999171 1061.15386,154.969856 1062.34978,155.179539 L1097.94616,162.046771 C1098.57761,162.166837 1099.1951,162.35137 1099.78896,162.597476 L1104.74063,167.129186 L1107.90254,170.022049 L1109.51996,171.49502 L1280.01138,327.31152 L1280.01138,403.872863 L1281.60228,406.792266 L1281.56913,418.005427 Z" id="Shape" fill="#004343" opacity="0.49"></path>
                <path d="M1281.56913,364.295047 L1281.56913,488.85403 L1267.29081,488.85403 L1130.86453,360.327313 L1126.76133,356.465739 C1125.97843,354.694863 1125.93074,352.685149 1126.62876,350.879064 L1139.92603,316.609254 L1144.04248,310.763813 L1167.57454,277.396364 L1169.72225,274.350896 L1197.15202,285.000081 C1197.31774,285.066431 1197.48345,285.139417 1197.64254,285.219037 L1200.89063,288.277775 L1281.56913,364.295047 Z" id="Shape" fill="#004343" opacity="0.49"></path>
                <path d="M356.182554,376.71578 L136.976463,426.816716 C134.246292,427.445371 131.387336,427.192188 128.809845,426.093501 L128.955677,426.684016 L128.816474,426.577856 L128.617611,426.431886 L126.23789,424.640434 L125.800393,424.308684 L125.647932,424.195889 C123.286489,422.312967 121.637848,419.679674 120.974664,416.731506 L114.471861,388.240787 L108.413185,361.70076 L89.766515,279.997286 L89.8659462,279.997286 L54.8727818,196.601886 C53.1972739,192.621484 53.3689552,188.102719 55.3416417,184.261184 C57.3143281,180.419649 60.88544,177.649841 65.0943123,176.696866 L312.664819,120.146703 C316.776034,119.203013 321.09404,120.094064 324.497135,122.588385 L324.868345,122.860421 L326.969659,124.446187 L327.712079,125.003528 L327.751851,125.003528 L327.155264,125.049973 C329.163234,127.472503 330.326887,130.48455 330.469638,133.629037 L335.109762,223.924844 L335.010331,223.924844 L335.573775,226.393066 L360.5509,335.870678 L366.205222,360.645794 C367.00686,364.107271 366.401024,367.745739 364.521141,370.759877 C362.641258,373.774014 359.641511,375.916607 356.182554,376.71578 Z" id="Shape" fill="#EAF8E2"></path>
                <path d="M288.350569,381.924261 L283.796618,361.92635 L281.947198,353.825007 C281.46565,351.71655 279.593825,350.219877 277.43302,350.215563 C277.082746,350.216319 276.733662,350.25638 276.392306,350.334993 L201.513961,367.446676 C199.114126,367.99599 197.560575,370.325603 197.974209,372.754681 L198.81606,376.483555 L203.244064,395.897585 L204.37758,400.867205 C204.950032,403.362247 207.431554,404.923195 209.925843,404.357218 L284.830703,387.238901 C287.225488,386.680672 288.76943,384.349476 288.350569,381.924261 Z" id="Shape" fill="#006959"></path>
                <path d="M358.834054,378.706282 L228.910579,408.404573 L139.627963,428.807218 C136.323153,429.575077 132.850001,429.045538 129.923475,427.327612 C129.585408,427.128562 129.2606,426.922877 128.935791,426.664111 L128.796587,426.564586 L128.597725,426.418616 C126.069848,424.525519 124.299884,421.791602 123.606277,418.708738 L116.732265,388.565902 L111.051427,363.677992 L92.8820269,284.05791 L92.4180145,282.014328 L92.5174457,282.014328 L335.613547,226.432877 L337.701603,225.955156 L362.592554,335.028033 L368.903123,362.676106 C370.54495,369.885819 366.036921,377.0627 358.834054,378.706282 Z" id="Shape" fill="#006959"></path>
                <path d="M315.57484,238.860244 L116.712378,284.316676 C114.291549,284.935325 112.82901,287.399935 113.444405,289.823731 L130.58635,364.792673 C131.07938,367.232731 133.44893,368.815899 135.889349,368.335767 L334.75181,322.879335 C337.173541,322.257614 338.635476,319.791052 338.019783,317.365645 L320.92424,242.390068 C320.431209,239.95001 318.06166,238.366842 315.621241,238.846974 L315.57484,238.860244 Z" id="Shape" fill="#29958C"></path>
                <path d="M274.284364,341.118969 L199.39939,358.290366 C196.90698,358.860977 195.488428,362.00597 196.244105,365.316839 L204.636101,402.081411 C205.391779,405.398915 208.023392,407.608372 210.52243,407.037761 L285.427291,389.899539 C287.926329,389.328928 289.338252,386.183935 288.582575,382.873066 L280.190579,346.048779 C279.441531,342.731275 276.809917,340.528453 274.310879,341.092429 L274.284364,341.118969 Z" id="Shape" fill="#29958C"></path>
                <path d="M333.16091,135.632809 C332.96048,131.484955 330.996615,127.621135 327.765109,125.016798 L327.725336,125.016798 L326.982916,124.459457 C323.603916,122.064538 319.365294,121.224701 315.329576,122.150475 L67.7458118,178.674098 C63.5369395,179.627073 59.9658276,182.396881 57.9931411,186.238416 C56.0204547,190.079951 55.8487734,194.598716 57.5242813,198.579118 L92.5174457,281.987788 L335.613547,226.432877 L337.701603,225.955156 L337.801034,225.955156 L333.16091,135.632809 Z M100.823268,265.805007 L70.3310238,193.204763 C70.2386902,193.018772 70.2386902,192.800237 70.3310238,192.614247 C70.421689,192.42915 70.5931568,192.29675 70.7950362,192.255957 L318.365543,135.705794 C318.569507,135.648386 318.788599,135.692029 318.955063,135.823227 C319.121527,135.954425 319.215304,136.157368 319.207394,136.369294 L323.297332,214.97422 L100.823268,265.805007 Z" id="Shape" fill="#006959"></path>
                <polygon id="Shape" fill="#424242" points="337.701603 225.955156 92.5174457 281.994423 92.5174457 281.994423 337.701603 225.955156 337.701603 225.955156"></polygon>
                <path d="M318.418573,135.705794 L70.8480662,192.255957 C70.6461868,192.29675 70.474719,192.42915 70.3840538,192.614247 C70.2917202,192.800237 70.2917202,193.018772 70.3840538,193.204763 L100.876298,265.805007 L323.297332,214.97422 L319.260424,136.362659 C319.268334,136.150733 319.174557,135.94779 319.008093,135.816592 C318.841629,135.685394 318.622537,135.641751 318.418573,135.699159 L318.418573,135.705794 Z" id="Shape" fill="#004343"></path>
                <rect id="Rectangle-path" fill="#004940" transform="translate(218.183434, 270.364104) rotate(-12.880000) translate(-218.183434, -270.364104) " x="117.462911" y="266.127652" width="201.441044" height="8.47290366" rx="2"></rect>
                <rect id="Rectangle-path" fill="#004940" transform="translate(226.119344, 336.231759) rotate(-12.880000) translate(-226.119344, -336.231759) " x="191.981288" y="330.018076" width="68.2761117" height="12.4273677" rx="2"></rect>
                <rect id="Rectangle-path" fill="#004940" transform="translate(183.530220, 345.978660) rotate(-12.880000) translate(-183.530220, -345.978660) " x="175.8475" y="339.764976" width="15.3654395" height="12.4273677" rx="2"></rect>
                <rect id="Rectangle-path" fill="#004940" transform="translate(268.845164, 326.447427) rotate(-12.880000) translate(-268.845164, -326.447427) " x="260.827692" y="320.233743" width="16.0349431" height="12.4273677" rx="2"></rect>
                <rect id="Rectangle-path" fill="#004940" transform="translate(284.090485, 322.954374) rotate(-12.880000) translate(-284.090485, -322.954374) " x="277.882662" y="316.74069" width="12.4156463" height="12.4273677" rx="2"></rect>
                <rect id="Rectangle-path" fill="#004940" transform="translate(295.374291, 319.143926) rotate(-12.778733) translate(-295.374291, -319.143926) " x="289.199769" y="312.963575" width="12.349044" height="12.3607025" rx="2"></rect>
                <rect id="Rectangle-path" fill="#004940" transform="translate(325.004321, 313.597041) rotate(-12.880000) translate(-325.004321, -313.597041) " x="318.796498" y="307.383357" width="12.4156463" height="12.4273677" rx="2"></rect>
                <rect id="Rectangle-path" fill="#004940" transform="translate(311.365828, 316.713503) rotate(-12.880000) translate(-311.365828, -316.713503) " x="305.158005" y="310.499819" width="12.4156463" height="12.4273677" rx="2"></rect>
                <rect id="Rectangle-path" fill="#004940" transform="translate(168.410314, 349.431916) rotate(-12.880000) translate(-168.410314, -349.431916) " x="162.20249" y="343.218232" width="12.4156463" height="12.4273677" rx="2"></rect>
                <rect id="Rectangle-path" fill="#004940" transform="translate(154.576525, 352.604683) rotate(-12.880000) translate(-154.576525, -352.604683) " x="148.368701" y="346.390999" width="12.4156463" height="12.4273677" rx="2"></rect>
                <rect id="Rectangle-path" fill="#004940" transform="translate(140.741258, 355.764346) rotate(-12.880000) translate(-140.741258, -355.764346) " x="134.533435" y="349.550662" width="12.4156463" height="12.4273677" rx="2"></rect>
                <rect id="Rectangle-path" fill="#004940" transform="translate(168.666707, 335.434679) rotate(-12.880000) translate(-168.666707, -335.434679) " x="162.458883" y="329.220996" width="12.4156463" height="12.4273677" rx="2"></rect>
                <rect id="Rectangle-path" fill="#004940" transform="translate(182.261277, 332.320289) rotate(-12.880000) translate(-182.261277, -332.320289) " x="176.053454" y="326.106606" width="12.4156463" height="12.4273677" rx="2"></rect>
                <rect id="Rectangle-path" fill="#004940" transform="translate(195.855848, 329.205899) rotate(-12.880000) translate(-195.855848, -329.205899) " x="189.648025" y="322.992216" width="12.4156463" height="12.4273677" rx="2"></rect>
                <rect id="Rectangle-path" fill="#004940" transform="translate(209.450585, 326.099623) rotate(-12.880000) translate(-209.450585, -326.099623) " x="203.242762" y="319.88594" width="12.4156463" height="12.4273677" rx="2"></rect>
                <rect id="Rectangle-path" fill="#004940" transform="translate(277.410515, 310.537266) rotate(-12.880000) translate(-277.410515, -310.537266) " x="271.202691" y="304.323583" width="12.4156463" height="12.4273677" rx="2"></rect>
                <rect id="Rectangle-path" fill="#004940" transform="translate(291.005252, 307.430990) rotate(-12.880000) translate(-291.005252, -307.430990) " x="284.797429" y="301.217307" width="12.4156463" height="12.4273677" rx="2"></rect>
                <rect id="Rectangle-path" fill="#004940" transform="translate(223.045156, 322.985233) rotate(-12.880000) translate(-223.045156, -322.985233) " x="216.837333" y="316.77155" width="12.4156463" height="12.4273677" rx="2"></rect>
                <rect id="Rectangle-path" fill="#004940" transform="translate(236.633265, 319.872322) rotate(-12.880000) translate(-236.633265, -319.872322) " x="230.425441" y="313.658639" width="12.4156463" height="12.4273677" rx="2"></rect>
                <rect id="Rectangle-path" fill="#004940" transform="translate(250.227835, 316.764567) rotate(-12.880000) translate(-250.227835, -316.764567) " x="244.020012" y="310.550884" width="12.4156463" height="12.4273677" rx="2"></rect>
                <rect id="Rectangle-path" fill="#004940" transform="translate(263.815944, 313.651656) rotate(-12.880000) translate(-263.815944, -313.651656) " x="257.608121" y="307.437973" width="12.4156463" height="12.4273677" rx="2"></rect>
                <rect id="Rectangle-path" fill="#004940" transform="translate(146.338633, 340.547511) rotate(-12.880000) translate(-146.338633, -340.547511) " x="131.28143" y="334.333827" width="30.1144054" height="12.4273677" rx="2"></rect>
                <rect id="Rectangle-path" fill="#004940" transform="translate(313.346250, 302.315201) rotate(-12.880000) translate(-313.346250, -302.315201) " x="298.289047" y="296.101517" width="30.1144054" height="12.4273677" rx="2"></rect>
                <rect id="Rectangle-path" fill="#004940" transform="translate(158.833433, 323.738037) rotate(-12.880000) translate(-158.833433, -323.738037) " x="152.62561" y="317.524353" width="12.4156463" height="12.4273677" rx="2"></rect>
                <rect id="Rectangle-path" fill="#004940" transform="translate(172.428004, 320.630282) rotate(-12.880000) translate(-172.428004, -320.630282) " x="166.220181" y="314.416598" width="12.4156463" height="12.4273677" rx="2"></rect>
                <rect id="Rectangle-path" fill="#004940" transform="translate(186.022574, 317.515892) rotate(-12.880000) translate(-186.022574, -317.515892) " x="179.814751" y="311.302208" width="12.4156463" height="12.4273677" rx="2"></rect>
                <rect id="Rectangle-path" fill="#004940" transform="translate(199.617145, 314.408137) rotate(-12.880000) translate(-199.617145, -314.408137) " x="193.409322" y="308.194453" width="12.4156463" height="12.4273677" rx="2"></rect>
                <rect id="Rectangle-path" fill="#004940" transform="translate(267.596627, 298.849457) rotate(-12.880000) translate(-267.596627, -298.849457) " x="261.388804" y="292.635773" width="12.4156463" height="12.4273677" rx="2"></rect>
                <rect id="Rectangle-path" fill="#004940" transform="translate(281.191197, 295.741702) rotate(-12.880000) translate(-281.191197, -295.741702) " x="274.983374" y="289.528018" width="12.4156463" height="12.4273677" rx="2"></rect>
                <rect id="Rectangle-path" fill="#004940" transform="translate(294.790919, 292.620844) rotate(-12.880000) translate(-294.790919, -292.620844) " x="288.583096" y="286.40716" width="12.4156463" height="12.4273677" rx="2"></rect>
                <rect id="Rectangle-path" fill="#004940" transform="translate(313.631888, 288.312788) rotate(-12.880000) translate(-313.631888, -288.312788) " x="301.96529" y="282.099104" width="23.3331954" height="12.4273677" rx="2"></rect>
                <rect id="Rectangle-path" fill="#004940" transform="translate(140.006699, 328.054758) rotate(-12.880000) translate(-140.006699, -328.054758) " x="128.340101" y="321.841075" width="23.3331954" height="12.4273677" rx="2"></rect>
                <rect id="Rectangle-path" fill="#004940" transform="translate(213.211716, 311.293747) rotate(-12.880000) translate(-213.211716, -311.293747) " x="207.003892" y="305.080063" width="12.4156463" height="12.4273677" rx="2"></rect>
                <rect id="Rectangle-path" fill="#004940" transform="translate(226.812915, 308.185992) rotate(-12.880000) translate(-226.812915, -308.185992) " x="220.605092" y="301.972308" width="12.4156463" height="12.4273677" rx="2"></rect>
                <rect id="Rectangle-path" fill="#004940" transform="translate(240.407486, 305.071602) rotate(-12.880000) translate(-240.407486, -305.071602) " x="234.199662" y="298.857918" width="12.4156463" height="12.4273677" rx="2"></rect>
                <rect id="Rectangle-path" fill="#004940" transform="translate(254.002056, 301.963847) rotate(-12.880000) translate(-254.002056, -301.963847) " x="247.794233" y="295.750163" width="12.4156463" height="12.4273677" rx="2"></rect>
                <rect id="Rectangle-path" fill="#004940" transform="translate(135.332145, 315.183344) rotate(-12.880000) translate(-135.332145, -315.183344) " x="125.352563" y="308.96966" width="19.9591624" height="12.4273677" rx="2"></rect>
                <rect id="Rectangle-path" fill="#004940" transform="translate(152.708132, 311.201343) rotate(-12.880000) translate(-152.708132, -311.201343) " x="146.500309" y="304.987659" width="12.4156463" height="12.4273677" rx="2"></rect>
                <rect id="Rectangle-path" fill="#004940" transform="translate(166.309164, 308.085474) rotate(-12.880000) translate(-166.309164, -308.085474) " x="160.101341" y="301.87179" width="12.4156463" height="12.4273677" rx="2"></rect>
                <rect id="Rectangle-path" fill="#004940" transform="translate(179.910197, 304.976240) rotate(-12.880000) translate(-179.910197, -304.976240) " x="173.702374" y="298.762556" width="12.4156463" height="12.4273677" rx="2"></rect>
                <rect id="Rectangle-path" fill="#004940" transform="translate(193.509752, 301.860538) rotate(-12.880000) translate(-193.509752, -301.860538) " x="187.301929" y="295.646854" width="12.4156463" height="12.4273677" rx="2"></rect>
                <rect id="Rectangle-path" fill="#004940" transform="translate(261.520233, 286.296109) rotate(-12.880000) translate(-261.520233, -286.296109) " x="255.31241" y="280.082425" width="12.4156463" height="12.4273677" rx="2"></rect>
                <rect id="Rectangle-path" fill="#004940" transform="translate(275.121265, 283.186875) rotate(-12.880000) translate(-275.121265, -283.186875) " x="268.913442" y="276.973191" width="12.4156463" height="12.4273677" rx="2"></rect>
                <rect id="Rectangle-path" fill="#004940" transform="translate(207.110951, 298.746148) rotate(-12.880000) translate(-207.110951, -298.746148) " x="200.903128" y="292.532464" width="12.4156463" height="12.4273677" rx="2"></rect>
                <rect id="Rectangle-path" fill="#004940" transform="translate(220.711984, 295.636914) rotate(-12.880000) translate(-220.711984, -295.636914) " x="214.504161" y="289.42323" width="12.4156463" height="12.4273677" rx="2"></rect>
                <rect id="Rectangle-path" fill="#004940" transform="translate(234.313017, 292.527680) rotate(-12.880000) translate(-234.313017, -292.527680) " x="228.105193" y="286.313996" width="12.4156463" height="12.4273677" rx="2"></rect>
                <rect id="Rectangle-path" fill="#004940" transform="translate(247.919200, 289.405343) rotate(-12.880000) translate(-247.919200, -289.405343) " x="241.711377" y="283.191659" width="12.4156463" height="12.4273677" rx="2"></rect>
                <rect id="Rectangle-path" fill="#004940" transform="translate(302.328482, 276.955304) rotate(-12.880000) translate(-302.328482, -276.955304) " x="296.120659" y="270.74162" width="12.4156463" height="12.4273677" rx="2"></rect>
                <rect id="Rectangle-path" fill="#004940" transform="translate(315.923052, 273.847549) rotate(-12.880000) translate(-315.923052, -273.847549) " x="309.715229" y="267.633865" width="12.4156463" height="12.4273677" rx="2"></rect>
                <rect id="Rectangle-path" fill="#004940" transform="translate(288.722298, 280.071006) rotate(-12.880000) translate(-288.722298, -280.071006) " x="282.514475" y="273.857322" width="12.4156463" height="12.4273677" rx="2"></rect>
                <rect id="Rectangle-path" fill="#004940" transform="translate(309.431806, 261.390770) rotate(-12.880000) translate(-309.431806, -261.390770) " x="299.661031" y="255.177086" width="19.5415512" height="12.4273677" rx="2"></rect>
                <rect id="Rectangle-path" fill="#004940" transform="translate(128.634432, 302.771985) rotate(-12.880000) translate(-128.634432, -302.771985) " x="122.426609" y="296.558301" width="12.4156463" height="12.4273677" rx="2"></rect>
                <rect id="Rectangle-path" fill="#004940" transform="translate(142.271281, 299.647576) rotate(-12.880000) translate(-142.271281, -299.647576) " x="136.063458" y="293.433892" width="12.4156463" height="12.4273677" rx="2"></rect>
                <rect id="Rectangle-path" fill="#004940" transform="translate(155.921221, 296.521687) rotate(-12.880000) translate(-155.921221, -296.521687) " x="149.713398" y="290.308004" width="12.4156463" height="12.4273677" rx="2"></rect>
                <rect id="Rectangle-path" fill="#004940" transform="translate(169.564699, 293.397278) rotate(-12.880000) translate(-169.564699, -293.397278) " x="163.356876" y="287.183594" width="12.4156463" height="12.4273677" rx="2"></rect>
                <rect id="Rectangle-path" fill="#004940" transform="translate(237.791339, 277.785210) rotate(-12.880000) translate(-237.791339, -277.785210) " x="231.583516" y="271.571527" width="12.4156463" height="12.4273677" rx="2"></rect>
                <rect id="Rectangle-path" fill="#004940" transform="translate(251.428188, 274.660801) rotate(-12.880000) translate(-251.428188, -274.660801) " x="245.220365" y="268.447117" width="12.4156463" height="12.4273677" rx="2"></rect>
                <rect id="Rectangle-path" fill="#004940" transform="translate(183.209655, 290.279337) rotate(-12.880000) translate(-183.209655, -290.279337) " x="177.001832" y="284.065653" width="12.4156463" height="12.4273677" rx="2"></rect>
                <rect id="Rectangle-path" fill="#004940" transform="translate(196.852966, 287.153449) rotate(-12.880000) translate(-196.852966, -287.153449) " x="190.645143" y="280.939765" width="12.4156463" height="12.4273677" rx="2"></rect>
                <rect id="Rectangle-path" fill="#004940" transform="translate(210.496444, 284.029040) rotate(-12.880000) translate(-210.496444, -284.029040) " x="204.288621" y="277.815356" width="12.4156463" height="12.4273677" rx="2"></rect>
                <rect id="Rectangle-path" fill="#004940" transform="translate(224.139922, 280.904631) rotate(-12.880000) translate(-224.139922, -280.904631) " x="217.932098" y="274.690947" width="12.4156463" height="12.4273677" rx="2"></rect>
                <rect id="Rectangle-path" fill="#004940" transform="translate(278.721606, 268.417139) rotate(-12.880000) translate(-278.721606, -268.417139) " x="272.513783" y="262.203455" width="12.4156463" height="12.4273677" rx="2"></rect>
                <rect id="Rectangle-path" fill="#004940" transform="translate(292.366561, 265.299198) rotate(-12.880000) translate(-292.366561, -265.299198) " x="286.158738" y="259.085514" width="12.4156463" height="12.4273677" rx="2"></rect>
                <rect id="Rectangle-path" fill="#004940" transform="translate(265.071666, 271.543027) rotate(-12.880000) translate(-265.071666, -271.543027) " x="258.863843" y="265.329343" width="12.4156463" height="12.4273677" rx="2"></rect>
                <path d="M1101.45277,197.643582 C1096.74801,205.189239 1089.02403,210.340776 1080.25517,211.781401 C1071.48631,213.222025 1062.52241,210.812118 1055.65475,205.16768 C1054.60738,204.302113 1053.61759,203.369015 1052.6917,202.374342 C1041.79742,190.663669 1041.6454,172.562962 1052.34145,160.67062 C1063.03749,148.778278 1081.03766,147.034602 1093.81354,156.65322 C1106.58942,166.271839 1109.90796,184.065805 1101.4594,197.650217 L1101.45277,197.643582 Z" id="Shape" fill="#006959"></path>
                <path d="M1094.65168,193.410448 C1089.76558,201.257075 1080.638,205.384515 1071.52585,203.867809 C1062.4137,202.351103 1055.11185,195.489005 1053.02576,186.481866 C1050.93967,177.474728 1054.48024,168.096738 1061.99621,162.721612 C1069.51218,157.346485 1079.5231,157.032992 1087.36005,161.927341 C1087.73789,162.166201 1088.1091,162.411696 1088.46705,162.663826 C1098.33614,169.657328 1101.04795,183.139019 1094.65168,193.410448 Z" id="Shape" fill="#004343"></path>
                <path d="M1094.65168,193.410448 C1090.28405,200.419274 1082.47822,204.524031 1074.23411,204.147195 C1065.98999,203.770358 1058.59043,198.970565 1054.87918,191.592456 C1053.67095,189.169624 1052.89691,186.553344 1052.59226,183.862673 C1051.62451,175.159724 1055.70915,166.668269 1063.10967,161.998317 C1070.51019,157.328365 1079.92573,157.3008 1087.35342,161.927341 C1087.73126,162.166201 1088.10247,162.411696 1088.46042,162.663826 C1098.3318,169.655292 1101.0466,183.137354 1094.65168,193.410448 Z" id="Shape" fill="#004343"></path>
                <rect id="Rectangle-path" fill="#006959" transform="translate(1108.076334, 201.179512) rotate(31.900000) translate(-1108.076334, -201.179512) " x="1095.75349" y="194.952558" width="24.6456877" height="12.4539077" rx="6.22695387"></rect>
                <path d="M1030.14069,317.39882 L1024.99016,344.124627 C1024.11604,348.712569 1021.74206,352.87913 1018.24209,355.968114 C1017.75819,356.399389 1017.24778,356.804125 1016.72411,357.188955 L1015.44476,358.071411 C1015.43051,358.091646 1015.40924,358.10584 1015.3851,358.111221 L1015.20612,358.224016 L1013.69477,359.259077 L1012.61428,360.002198 L1012.61428,359.896038 L1012.52148,359.617368 C1009.17721,361.034949 1005.52477,361.567337 1001.91548,361.163324 C1001.34983,361.101398 1000.78638,361.015142 1000.22515,360.904559 L999.522503,360.771859 L992.522544,359.444858 L991.263082,359.199362 L983.553847,357.713121 L979.894778,357.003175 L956.694157,352.51791 L955.819162,352.352035 L955.056856,352.19943 L954.447011,352.086635 L952.909142,351.78806 L950.741541,351.370054 L948.620341,350.958684 L947.049328,350.653474 L933.307932,347.999471 L929.682006,347.29616 L923.152689,346.035509 L922.715191,345.942619 C922.284323,345.856364 921.860083,345.750204 921.442472,345.630773 C910.838689,342.640777 904.28654,332.023482 906.362068,321.194043 L908.403723,310.578033 L911.512606,294.448331 C911.986357,291.977461 912.897797,289.611319 914.203878,287.461669 C914.435884,287.070204 914.687777,286.692008 914.946298,286.320448 C915.526256,285.483318 916.168882,284.691476 916.868635,283.95175 L919.102523,281.841818 C923.616701,278.73 930.5106,276.533813 936.33727,277.661764 L1013.44287,292.550719 C1014.82593,292.815221 1016.17852,293.219826 1017.47978,293.75829 C1022.07231,295.676392 1025.84034,299.156592 1028.11892,303.584735 C1028.70024,304.687264 1029.18165,305.839732 1029.55736,307.028304 C1029.76285,307.691805 1029.9352,308.355305 1030.07441,309.018806 C1030.6575,311.779453 1030.68004,314.629277 1030.14069,317.39882 Z" id="Shape" fill="#EAF8E2"></path>
                <path d="M1028.6426,318.480326 L1024.38694,340.535088 L1023.76384,343.779607 L1023.49206,345.192863 C1022.71104,349.284176 1020.73655,353.052173 1017.81785,356.021194 C1017.08231,356.77654 1016.28886,357.47313 1015.44476,358.104586 C1015.43051,358.124821 1015.40924,358.139015 1015.3851,358.144396 C1014.84217,358.556447 1014.27795,358.939596 1013.69477,359.292252 C1013.32798,359.517843 1012.95677,359.739009 1012.58114,359.955753 C1009.2833,361.698104 1005.58121,362.529456 1001.85582,362.364261 C1001.25923,362.364261 1000.65602,362.29791 1000.0528,362.21829 C999.608676,362.158575 999.16455,362.092225 998.727053,362.00597 L992.098304,360.732049 L990.838842,360.486554 L983.547218,359.073297 L979.894778,358.363351 L961.60606,354.833528 L957.463092,354.037327 L957.250972,353.997517 L952.319183,353.042076 L950.257642,352.643976 L948.182844,352.245875 L932.890321,349.293297 L929.257766,348.589986 L922.675419,347.3227 L921.628077,347.117015 L921.402699,347.07057 C914.08952,345.583738 908.102577,340.345262 905.652792,333.289661 C904.412949,329.754741 904.1361,325.953068 904.850714,322.27555 L907.270207,309.715482 L910.001251,295.556377 C910.5407,292.587104 911.714203,289.769394 913.441572,287.295794 C913.706722,286.917598 913.985129,286.546038 914.276794,286.187748 C915.627437,284.524478 917.223395,283.076915 919.009721,281.894898 C923.630876,278.82285 929.27459,277.695426 934.719855,278.75654 L1011.82546,293.645495 C1018.85448,295.003832 1024.72481,299.819306 1027.43616,306.451058 C1027.68143,307.054844 1027.90018,307.678535 1028.09904,308.30886 C1029.10794,311.60394 1029.29457,315.096322 1028.6426,318.480326 Z" id="Shape" fill="#006959"></path>
                <path d="M951.828656,318.02251 C947.35425,325.725753 936.927229,325.984518 935.767198,325.984518 L935.687653,325.984518 C934.613795,325.533338 925.081655,321.412999 923.755905,312.595075 C923.476511,310.513173 923.646035,308.395516 924.253061,306.384708 C924.749113,304.957393 925.675575,303.719398 926.90456,302.841615 C928.621186,301.672828 930.737317,301.249203 932.771003,301.667218 C934.643552,302.051277 936.309393,303.111714 937.4509,304.646336 C938.196109,305.750472 938.672832,307.013844 938.842937,308.3354 C938.858472,308.446285 938.943496,308.53459 939.053628,308.554221 C939.16376,308.573852 939.274012,308.520355 939.326836,308.421655 C939.957081,307.237206 940.887512,306.239537 942.024736,305.528792 C943.662959,304.534159 945.607064,304.170916 947.493454,304.507001 C949.535229,304.878799 951.34017,306.060895 952.498159,307.784695 C953.318598,309.062182 953.730219,310.559769 953.678077,312.077544 C953.503253,314.170708 952.871951,316.20003 951.828656,318.02251 Z" id="Shape" fill="#EAF8E2"></path>
                <path d="M962.799235,340.647883 C962.321465,340.556362 961.899779,340.278162 961.627372,339.87477 C961.354966,339.471377 961.25427,338.976007 961.347539,338.498141 L968.579504,300.977178 C968.819463,300.033829 969.752658,299.441375 970.707498,299.626187 C971.662338,299.810999 972.307602,300.708967 972.178914,301.673853 L964.946949,339.194817 C964.855514,339.673037 964.577577,340.095122 964.174565,340.367786 C963.771553,340.640449 963.276649,340.74124 962.799235,340.647883 Z" id="Shape" fill="#004343"></path>
                <path d="M1009.45237,317.498345 L984.853082,312.74768 C983.90683,312.517572 983.304607,311.588088 983.480661,310.629453 C983.656714,309.670818 984.549808,309.016468 985.515957,309.138236 L1010.11524,313.888901 C1011.11102,314.081283 1011.76245,315.04524 1011.57025,316.041961 C1011.37805,317.038681 1010.415,317.690726 1009.41922,317.498345 L1009.45237,317.498345 Z" id="Shape" fill="#004343"></path>
                <path d="M1007.0395,329.998697 L982.440217,325.248033 C981.444437,325.055651 980.793007,324.091693 980.985207,323.094973 C981.177407,322.098253 982.140456,321.446207 983.136236,321.638589 L1007.73552,326.389254 C1008.41098,326.474384 1008.98393,326.926598 1009.22417,327.564189 C1009.46441,328.201781 1009.33249,328.920085 1008.88143,329.430478 C1008.43036,329.940872 1007.73419,330.15957 1007.07265,329.998697 L1007.0395,329.998697 Z" id="Shape" fill="#004343"></path>
                <path d="M981.717684,344.695237 C981.3211,344.620624 981.003353,344.323264 980.902347,343.932212 C980.164139,341.353425 980.481343,338.58661 981.783971,336.242239 C983.441158,333.442266 986.477125,331.909579 988.001737,331.763609 C988.551268,331.658535 989.117141,331.832432 989.513092,332.22806 C990.175967,332.977815 989.758356,333.800556 989.175026,334.928507 C988.491918,336.214813 987.894041,337.544683 987.385264,338.909512 C987.305719,339.108562 987.24606,339.294342 987.186401,339.460217 C987.849276,338.929417 988.565181,338.584396 989.267828,339.062117 C989.71555,339.381635 989.92947,339.937827 989.811386,340.475373 C990.772554,339.851682 991.998873,339.181547 993.211934,339.672537 C993.769739,339.9079 994.199535,340.371937 994.391851,340.946459 C994.497911,341.198589 994.524426,341.258304 994.66363,341.344559 C994.922151,341.503799 995.260217,341.457354 996.082182,341.278209 C997.111059,341.022956 998.172892,340.926741 999.230838,340.992904 C999.930745,341.047905 1000.62226,341.181443 1001.29238,341.391004 C1001.83924,341.57685 1002.13483,342.168595 1001.95525,342.718005 C1001.86904,342.983163 1001.68022,343.202654 1001.43105,343.327358 C1001.18188,343.452062 1000.89316,343.471566 1000.6295,343.381506 C1000.11217,343.220943 999.578583,343.118574 999.038604,343.076296 C998.180368,343.026491 997.319587,343.109293 996.486536,343.321791 C995.525367,343.527476 994.497911,343.739796 993.516856,343.109471 C993.017822,342.79794 992.633845,342.332074 992.423113,341.782469 L992.336939,341.583419 C992.01213,341.523704 991.090734,342.134125 990.626722,342.44597 C989.784871,343.003311 988.823702,343.640271 987.975222,342.970136 C987.662903,342.725003 987.469971,342.358086 987.444922,341.961615 C986.709131,342.572035 985.946825,343.043121 985.17789,342.558765 C984.190207,341.948345 984.461986,340.667788 985.396639,338.186296 C985.910537,336.809616 986.510521,335.466688 987.19303,334.165482 C983.553719,335.659821 981.682924,339.711732 982.90423,343.454491 C982.974814,343.723738 982.935518,344.01003 982.795005,344.250247 C982.654492,344.490464 982.424301,344.664882 982.155181,344.735047 C982.008203,344.754369 981.858772,344.740771 981.717684,344.695237 Z" id="Shape" fill="#EAF8E2"></path>
                <path d="M1043.76277,327.304885 L1043.43796,354.508412 C1043.38385,359.850244 1041.30612,364.972402 1037.62455,368.840027 L1036.47115,369.981248 L1036.31206,370.127218 L1034.04503,372.363216 L1033.85279,372.004925 C1030.33183,374.307895 1026.20635,375.511142 1022.00059,375.461764 L943.483061,374.519593 C931.788521,374.366616 922.424209,364.767889 922.549473,353.061981 L922.874281,325.858453 C922.916742,321.851029 924.098564,317.938589 926.281458,314.578942 L928.117622,312.090814 C932.008697,308.22924 938.398811,304.845387 944.311655,304.911737 L1022.81593,305.873813 C1034.50521,306.019555 1043.87327,315.604177 1043.76277,327.304885 Z" id="Shape" fill="#EAF8E2"></path>
                <rect id="Rectangle-path" fill="#006959" transform="translate(981.800409, 341.455263) rotate(-89.320000) translate(-981.800409, -341.455263) " x="947.022679" y="280.947319" width="69.5554602" height="121.015889" rx="31.96"></rect>
                <path d="M966.809628,341.84882 C963.767032,350.222198 953.55213,352.338765 952.418614,352.564355 L952.339069,352.564355 C951.198925,352.312225 941.070196,349.956798 938.206577,341.510434 C937.559539,339.512875 937.349293,337.399385 937.590103,335.313338 C937.829001,333.813473 938.523307,332.423551 939.578728,331.332334 C941.061115,329.879968 943.06647,329.088074 945.140248,329.136147 C947.05186,329.17958 948.880589,329.925934 950.277528,331.232809 C951.204102,332.190033 951.898147,333.347867 952.305926,334.616662 C952.337118,334.724466 952.435747,334.798653 952.547875,334.798653 C952.660003,334.798653 952.758631,334.724466 952.789824,334.616662 C953.206118,333.344689 953.943642,332.201934 954.93091,331.299159 C956.364896,330.022712 958.215488,329.314811 960.134478,329.308657 C962.209352,329.309258 964.195922,330.149143 965.642968,331.637544 C966.669679,332.740477 967.339705,334.128046 967.565305,335.618548 C967.775495,337.725673 967.517438,339.85325 966.809628,341.84882 Z" id="Shape" fill="#EAF8E2"></path>
                <path d="M981.618252,362.158575 C981.131857,362.153335 980.66757,361.954432 980.327998,361.605824 C979.988426,361.257216 979.801526,360.787604 979.808604,360.300773 L980.259359,322.096404 C980.266463,321.439787 980.622999,320.836841 981.194662,320.514691 C981.766326,320.192541 982.466267,320.200129 983.030826,320.534596 C983.595385,320.869064 983.93879,321.479597 983.931686,322.136214 L983.474302,360.347218 C983.459754,361.359683 982.629806,362.169646 981.618252,362.158575 Z" id="Shape" fill="#004343"></path>
                <path d="M1023.41914,331.086839 L998.3691,330.788263 C997.688066,330.819703 997.045694,330.470867 996.700735,329.882266 C996.355775,329.293666 996.365025,328.562213 996.724759,327.982541 C997.084493,327.402869 997.735481,327.07042 998.415502,327.119104 L1023.46554,327.41768 C1024.43528,327.487106 1025.18287,328.301105 1025.17056,329.274156 C1025.15826,330.247207 1024.39032,331.042004 1023.41914,331.086839 Z" id="Shape" fill="#004343"></path>
                <path d="M1023.26668,343.806147 L998.216639,343.507571 C997.246905,343.438145 996.499316,342.624146 996.511621,341.651095 C996.523927,340.678044 997.291861,339.883247 998.26304,339.838412 L1023.31308,340.136988 C1023.99412,340.105548 1024.63649,340.454384 1024.98145,341.042985 C1025.32641,341.631585 1025.31716,342.363038 1024.95742,342.94271 C1024.59769,343.522382 1023.9467,343.854831 1023.26668,343.806147 Z" id="Shape" fill="#004343"></path>
                <path d="M1000.94105,362.782266 C1000.53812,362.775719 1000.17468,362.538357 1000.0064,362.171845 C998.822211,359.763756 998.641024,356.983737 999.502616,354.442062 C1000.63613,351.396594 1003.35392,349.353012 1004.80562,348.928372 C1005.33028,348.733437 1005.91704,348.80778 1006.37663,349.127422 C1007.16545,349.744478 1006.89367,350.620299 1006.51583,351.84114 C1006.07629,353.22645 1005.72427,354.638072 1005.46186,356.067639 C1005.42209,356.273324 1005.38895,356.465739 1005.36243,356.63825 C1005.93913,355.974749 1006.56223,355.536839 1007.35105,355.881859 C1007.84841,356.113398 1008.15909,356.620348 1008.13988,357.16905 C1008.96847,356.386119 1010.05558,355.510299 1011.34156,355.775699 C1011.93131,355.912012 1012.43514,356.293264 1012.72697,356.82403 C1012.8728,357.04962 1012.91257,357.1027 1013.06504,357.162415 C1013.35007,357.27521 1013.67488,357.162415 1014.45044,356.85057 C1015.41489,356.41357 1016.44135,356.129294 1017.49304,356.007924 C1018.19324,355.924986 1018.90078,355.924986 1019.60098,356.007924 C1019.97279,356.055333 1020.29109,356.297687 1020.43598,356.643694 C1020.58087,356.9897 1020.53033,357.386793 1020.3034,357.68539 C1020.07648,357.983987 1019.70764,358.138725 1019.33583,358.091316 C1018.79653,358.024688 1018.25109,358.024688 1017.71179,358.091316 C1016.86147,358.188685 1016.03038,358.412307 1015.24589,358.754817 C1014.33776,359.133012 1013.38984,359.517843 1012.28947,359.079932 C1011.73324,358.857393 1011.26681,358.455888 1010.96372,357.938711 L1010.84441,357.759566 C1010.51297,357.759566 1009.71089,358.522592 1009.31316,358.914057 C1008.584,359.617368 1007.74878,360.413569 1006.78761,359.902673 C1006.45066,359.710671 1006.21004,359.385533 1006.12474,359.006947 C1005.50163,359.736798 1004.83876,360.333948 1003.99691,359.995563 C1002.91642,359.570923 1002.95619,358.257191 1003.43346,355.656269 C1003.69765,354.209645 1004.04963,352.780472 1004.48744,351.376689 C1001.18766,353.494846 1000.06806,357.795547 1001.91548,361.256214 C1002.15564,361.782189 1001.92799,362.40365 1001.40507,362.649566 C1001.26195,362.727215 1001.10356,362.772512 1000.94105,362.782266 Z" id="Shape" fill="#FF9900"></path>
                <path d="M1000.98746,330.808168 C1000.87934,332.612193 1000.54529,334.395484 999.993144,336.116174 L998.786711,339.858318 L998.428759,340.966364 L997.765884,343.122741 L997.666453,343.421316 L992.502658,359.451493 L992.098304,360.705509 L991.674064,362.03251 C990.042071,367.110424 986.545187,371.378943 981.890031,373.975522 L980.524509,374.685468 C980.503274,374.703727 980.478426,374.717293 980.451593,374.725278 L980.25273,374.818168 L979.980951,374.957503 L978.582285,375.687354 L977.521686,376.23806 L977.428883,376.284505 L977.428883,376.23806 L977.428883,376.178345 L977.369224,375.886404 C976.938356,376.012469 976.500858,376.11863 976.043475,376.218155 C972.89657,376.905962 969.634498,376.867388 966.504705,376.10536 C966.007549,375.979294 965.510393,375.839959 965.013237,375.680719 L962.123102,374.745183 L924.710445,362.689376 L922.569359,362.025875 L890.240951,351.555834 C879.117323,347.949732 873.006717,336.01375 876.5791,324.869837 L884.924695,298.993311 C886.153179,295.177249 888.437941,291.788284 891.513671,289.219946 L893.992823,287.395319 C898.851696,284.854111 905.924571,283.51384 911.585522,285.325197 L913.481344,285.935617 L914.283423,286.194383 L914.860124,286.380163 L968.082347,303.558195 L971.595584,304.692782 L973.431748,305.289932 L977.641003,306.650109 L985.370124,309.144871 L986.304778,309.450081 C994.192449,312.016502 999.879764,318.92535 1000.88802,327.16555 C1000.94768,327.729525 1000.99408,328.293501 1001.00734,328.864111 C1001.0206,329.434722 1001.0206,330.144668 1000.98746,330.808168 Z" id="Shape" fill="#EAF8E2"></path>
                <rect id="Rectangle-path" fill="#006959" transform="translate(936.661338, 331.325563) rotate(-72.130000) translate(-936.661338, -331.325563) " x="901.883608" y="270.817619" width="69.5554602" height="121.015889" rx="31.96"></rect>
                <path d="M922.178263,327.238535 C916.802347,334.337992 906.428356,333.342741 905.268325,333.210041 L905.18878,333.210041 C904.18121,332.632795 895.192627,327.384505 894.953992,318.473691 C894.927512,316.373752 895.350162,314.292442 896.193568,312.369484 C896.873181,311.010249 897.956995,309.895278 899.295822,309.178046 C901.14135,308.226237 903.292782,308.061138 905.261696,308.720231 C907.074889,309.327873 908.601419,310.581896 909.550496,312.243419 C910.154032,313.432259 910.47396,314.744978 910.48515,316.078453 C910.488762,316.189942 910.563345,316.286567 910.670211,316.318205 C910.777078,316.349843 910.892171,316.309373 910.955791,316.217788 C911.725771,315.120684 912.767385,314.242707 913.978501,313.669946 C915.727193,312.885006 917.701164,312.7624 919.533392,313.324925 C921.515978,313.941883 923.16542,315.334465 924.107229,317.186499 C924.766127,318.552436 924.997188,320.085814 924.770103,321.585509 C924.325531,323.635551 923.441178,325.564401 922.178263,327.238535 Z" id="Shape" fill="#EAF8E2"></path>
                <path d="M930.331624,351.025034 C929.367684,350.714538 928.836841,349.681532 929.145078,348.716052 L940.864705,312.349579 C941.041797,311.696784 941.56282,311.19412 942.221075,311.041005 C942.879331,310.88789 943.568409,311.109074 944.014941,311.61681 C944.461472,312.124546 944.593273,312.836757 944.358056,313.470896 L932.664943,349.837368 C932.517851,350.308046 932.187314,350.699446 931.748134,350.92299 C931.308953,351.146534 930.798259,351.183324 930.331624,351.025034 Z" id="Shape" fill="#004343"></path>
                <path d="M979.444023,333.694396 L955.580527,325.997788 C954.66008,325.655727 954.171342,324.649404 954.471162,323.71358 C954.770982,322.777756 955.753258,322.243607 956.700786,322.50114 L980.564281,330.197748 C981.498832,330.531412 981.999508,331.547859 981.694893,332.493057 C981.390277,333.438256 980.390574,333.970253 979.437394,333.694396 L979.444023,333.694396 Z" id="Shape" fill="#004343"></path>
                <path d="M975.53969,345.809919 L951.676194,338.113311 C950.713363,337.803668 950.183612,336.771386 950.492963,335.807646 C950.802314,334.843905 951.833621,334.313654 952.796453,334.623297 L976.659948,342.31327 C977.594499,342.646934 978.095175,343.663381 977.79056,344.60858 C977.485944,345.553778 976.486241,346.085775 975.533061,345.809919 L975.53969,345.809919 Z" id="Shape" fill="#004343"></path>
                <path d="M948.613713,357.334925 C948.231471,357.209711 947.953743,356.877668 947.897808,356.479009 C947.479606,353.828854 948.127965,351.120829 949.700827,348.948277 C951.689452,346.367259 954.884509,345.219403 956.41575,345.252578 C956.977999,345.217852 957.520347,345.46687 957.860817,345.916079 C958.437518,346.73882 957.913847,347.501845 957.197942,348.570081 C956.365666,349.761128 955.610645,351.004432 954.937539,352.29232 C954.844736,352.4781 954.751934,352.650611 954.679018,352.809851 C955.414809,352.37194 956.1506,352.113175 956.793588,352.670516 C957.199314,353.040911 957.345346,353.617758 957.164798,354.136852 C958.192254,353.632592 959.491489,353.115061 960.638263,353.752022 C961.161576,354.054328 961.530694,354.566269 961.652461,355.158643 C961.725377,355.417408 961.745264,355.483758 961.87121,355.583284 C962.109845,355.775699 962.45454,355.769064 963.289762,355.696079 C964.340322,355.565397 965.404792,355.598973 966.445047,355.795604 C967.132173,355.935897 967.799874,356.158674 968.433671,356.459104 C968.960849,356.699124 969.193821,357.321463 968.954028,357.849138 C968.714235,358.376814 968.092483,358.610005 967.565305,358.369986 C967.071837,358.143836 966.553414,357.976804 966.020807,357.872361 C965.176545,357.717188 964.313266,357.694802 963.46211,357.806011 C962.481055,357.892266 961.473485,357.985156 960.538831,357.242035 C960.076614,356.861659 959.752733,356.339227 959.617435,355.755794 L959.557777,355.556744 C959.239597,355.457218 958.232027,355.948209 957.754757,356.220244 C956.846618,356.67806 955.819162,357.188955 955.050228,356.419294 C954.769603,356.140238 954.624389,355.752636 954.652503,355.357693 C953.843795,355.868589 953.028459,356.246784 952.325812,355.676174 C951.417673,354.952958 951.841913,353.685672 953.068232,351.356784 C953.74538,350.053494 954.504805,348.794716 955.341892,347.5881 C953.772904,348.066602 952.386003,349.010585 951.364643,350.295183 C949.674312,352.484735 949.833402,355.198453 949.972606,356.266689 C950.012184,356.54237 949.939822,356.822434 949.771679,357.044344 C949.603536,357.266253 949.353615,357.411525 949.077725,357.44772 C948.916614,357.445007 948.75812,357.40648 948.613713,357.334925 Z" id="Shape" fill="#FFB926"></path>
                <g id="Group" opacity="0.04" transform="translate(1051.982420, 158.576662)" fill="#EAF8E2">
                    <path d="M27.5954809,24.3703799 C26.0841262,26.7722524 23.9894416,28.9418996 21.2981696,29.8376255 C18.4809514,30.7797965 15.3985832,30.2290909 12.4885626,29.6120353 C8.94881075,28.8556445 5.38254395,27.9864586 2.19411582,26.2547218 C1.64392968,25.9561465 1.10700103,25.6310312 0.589958635,25.2860109 C-0.802449959,12.7698876 8.1931169,1.48883722 20.6949535,0.0729850746 C22.1977338,0.626137779 23.6165592,1.38534541 24.9108376,2.32888738 C31.4136401,7.19898236 31.9373113,17.4832429 27.5954809,24.3703799 Z" id="Shape"></path>
                </g>
                <path d="M358.834054,378.706282 L228.910579,408.404573 L92.8820269,284.05791 L92.4180145,282.014328 L92.5174457,282.014328 L335.613547,226.432877 L337.701603,225.955156 L362.592554,335.028033 L368.903123,362.676106 C370.54495,369.885819 366.036921,377.0627 358.834054,378.706282 Z" id="Shape" fill="#004343" opacity="0.17"></path>
            </g>
            <g id="midcomp" transform="translate(99.431231, 196.396201)" fill="#FF9900">
                <path d="M94.0155429,6.42268657 L3.49997932,27.1040027 C2.85503585,27.2490631 2.19889449,26.9109011 1.94222337,26.3011669 L0.536928645,22.9504885 C0.413424501,22.6560063 0.42627186,22.3219424 0.57202728,22.0378349 C0.717782701,21.7537274 0.98154035,21.548631 1.292606,21.477517 L92.5041882,0.663500678 C92.8631351,0.571015879 93.2443712,0.633158636 93.555455,0.834860694 C93.8665389,1.03656275 94.0790609,1.35940373 94.1414891,1.72510176 L94.804364,5.1819403 C94.909475,5.73902877 94.5642411,6.2820513 94.0155429,6.42268657 Z" id="Shape"></path>
            </g>
            <g id="btmcomp" transform="translate(105.397104, 205.685210)" fill="#FFB926">
                <path d="M127.092999,5.93169607 L3.41380558,34.1570149 C2.76848484,34.3207439 2.10193281,33.9800556 1.85604964,33.3608141 L0.450754912,30.0035007 C0.327193918,29.70991 0.340111203,29.3765825 0.486021521,29.0934542 C0.631931838,28.8103259 0.895800462,28.6065707 1.20643226,28.5371642 L125.581644,0.152605156 C125.940591,0.0601203563 126.321827,0.122263113 126.632911,0.323965171 C126.943995,0.525667229 127.156517,0.848508205 127.218945,1.21420624 L127.88182,4.67104478 C127.998736,5.23492594 127.65088,5.79085023 127.092999,5.93169607 Z" id="Shape"></path>
            </g>
            <g id="topcomp" transform="translate(92.139607, 162.557666)" fill="#FFB926">
                <path d="M169.338014,6.46913161 L3.49997932,44.3550204 C2.85503585,44.5000807 2.19889449,44.1619188 1.94222337,43.5521845 L0.536928645,40.2015061 C0.413424501,39.9070239 0.42627186,39.57296 0.57202728,39.2888526 C0.717782701,39.0047451 0.98154035,38.7996486 1.292606,38.7285346 L168.337073,0.570610583 C168.729152,0.484510112 169.139236,0.574572008 169.459284,0.817068641 C169.779333,1.05956527 169.977249,1.43017667 170.000889,1.83126187 L170.179866,5.36108548 C170.208363,5.88699964 169.851948,6.35611417 169.338014,6.46913161 Z" id="Shape"></path>
            </g>
            <g id="phone" transform="translate(1125.561531, 272.035278)">
                <path d="M34.7280145,1.47297151 L33.9060496,2.01040706 C34.164426,1.80840873 34.4393924,1.62862403 34.7280145,1.47297151 Z" id="Shape" fill="#EAF8E2"></path>
                <path d="M75.7135677,22.3931479 L48.1512306,93.4607056 C47.570016,94.9712742 46.498448,96.2424797 45.108635,97.0701493 L42.1190693,99.0606513 L42.1190693,98.0853053 C40.968504,98.2129284 39.8041656,98.06042 38.7251499,97.6407598 L8.06055843,85.6977476 C4.33698982,84.2353691 2.4855228,80.0434324 3.91096174,76.302578 L18.4942089,38.7550746 L31.4998139,5.22838535 C31.6549339,4.82725232 31.845724,4.44087065 32.0698862,4.07389417 L31.4070114,3.68242877 L33.9325646,2.03694708 L34.7545295,1.49951153 C36.643089,0.443960228 38.9040506,0.288220275 40.9192658,1.0748711 L44.1739814,2.34215739 L71.590486,12.9648033 C71.7562048,13.0311533 71.9219235,13.1041384 72.0810134,13.1837585 C75.5152777,14.8269948 77.1089067,18.8379463 75.7400827,22.3931479 L75.7135677,22.3931479 Z" id="Shape" fill="#EAF8E2"></path>
                <path d="M72.5383971,24.47654 L70.1454188,30.6404613 L44.9561737,95.5440977 C43.4978174,99.2917134 39.2853823,101.152157 35.5367218,99.7042469 L4.95830403,87.8209498 L4.86550155,87.7877748 C4.11647985,87.5000834 3.42165,87.0872789 2.81058945,86.5669335 C1.95576807,85.8601276 1.27526778,84.9655601 0.82196484,83.9527408 C0.0354072094,82.1780422 -0.0123024546,80.1627936 0.689389866,78.3527951 L14.0131748,44.003365 L28.304757,7.29850746 C29.7657522,3.55350478 33.9774008,1.6963752 37.7242089,3.14499322 L41.7743744,4.71748982 L68.3888004,15.0614654 C72.123097,16.5238527 73.9769065,20.7299853 72.5383971,24.47654 Z" id="Shape" fill="#006959"></path>
                <rect id="Rectangle-path" fill="#004343" transform="translate(37.084947, 50.441668) rotate(-68.780000) translate(-37.084947, -50.441668) " x="2.23761536" y="26.6916616" width="69.6946639" height="47.5000136"></rect>
                <rect id="Rectangle-path" fill="#004343" transform="translate(50.090106, 9.643253) rotate(21.161260) translate(-50.090106, -9.643253) " x="39.7612088" y="8.84924427" width="20.6577954" height="1.58801649" rx="0.794008243"></rect>
                <rect id="Rectangle-path" fill="#004343" transform="translate(22.359329, 88.187060) rotate(21.280000) translate(-22.359329, -88.187060) " x="18.9057509" y="84.7302215" width="6.90715615" height="6.91367707" rx="2.63"></rect>
            </g>
            <g id="popup" transform="translate(1142.133402, 301.892809)" fill="#EAF8E2">
                <rect id="Rectangle-path" transform="translate(21.754851, 17.285794) rotate(21.280000) translate(-21.754851, -17.285794) " x="2.6176535" y="6.49063778" width="38.274395" height="21.5903121" rx="4.65"></rect>
            </g>
            <g id="midnoti" transform="translate(1149.425026, 312.508820)" fill="#FF9900">
                <rect id="Rectangle-path" transform="translate(8.424123, 4.311563) rotate(21.280000) translate(-8.424123, -4.311563) " x="-0.0209029847" y="3.52199672" width="16.8900517" height="1.57913161" rx="0.789565807"></rect>
            </g>
            <g id="btmnoti" transform="translate(1147.436401, 317.816825)" fill="#FFB926">
                <rect id="Rectangle-path" transform="translate(11.729572, 5.426513) rotate(21.280000) translate(-11.729572, -5.426513) " x="-0.271777845" y="4.63694726" width="24.0026991" height="1.57913161" rx="0.789565807"></rect>
            </g>
            <g id="topnoti" transform="translate(1151.413650, 307.864315)" fill="#FFB926">
                <rect id="Rectangle-path" transform="translate(14.475476, 6.173452) rotate(21.280000) translate(-14.475476, -6.173452) " x="-0.455780212" y="5.38388598" width="29.8625129" height="1.57913161" rx="0.789565807"></rect>
            </g>
            <g id="glaze" transform="translate(1125.561531, 274.025780)" fill="#EAF8E2" opacity="0.04">
                <g id="Group">
                    <path d="M72.5383971,22.486038 L70.1454188,28.6499593 C67.9380455,29.5523202 65.7505584,30.4812212 63.6359876,31.5096472 C55.3507543,35.5571107 48.0119713,41.3088773 42.099183,48.3891045 C32.2952637,60.1463365 25.825605,75.9840977 11.8124302,82.134749 C8.94647202,83.3628238 5.92334325,84.1846406 2.8304757,84.5764315 C0.452307379,82.5665145 -0.389049974,79.2671988 0.735791107,76.3622931 L28.304757,5.30800543 C29.7657522,1.56300274 33.9774008,-0.294126832 37.7242089,1.15449118 L68.3888004,13.0975034 C72.1088017,14.5598716 73.9594907,18.7470876 72.5383971,22.486038 Z" id="Shape"></path>
                </g>
            </g>
        </g>
    </g>
</svg>