<?xml version="1.0" encoding="utf-8"?>
<!-- Generator: Adobe Illustrator 23.0.4, SVG Export Plug-In . SVG Version: 6.00 Build 0)  -->
<svg 
	version="1.1" 
	id="Layer_1"
	xmlns="http://www.w3.org/2000/svg" 
	xmlns:xlink="http://www.w3.org/1999/xlink" 
	x="0px" 
	y="0px"
	viewBox="0 0 16 15.4"
	style="enable-background:new 0 0 16 15.4;"
	xml:space="preserve"
>
<style type="text/css">
	.st0{fill:#FFFFFF;}
</style>
<!-- <path class="st0" d="..." /> THIS CLASS IS BREAKING IT -->
   <path d="M13.6,0H2.4C1.1,0,0,1.1,0,2.4v6.8c0,1.3,1.1,2.4,2.4,2.4h3.2v0.9H4.1c-0.6,0-1,0.5-1,1v0.8c0,0.6,0.5,1,1,1
	h7.8c0.6,0,1-0.5,1-1v-0.8c0-0.6-0.5-1-1-1h-1.5v-0.9h3.2c1.3,0,2.4-1.1,2.4-2.4V2.4C16,1.1,15,0,13.6,0z M12,13.5v0.8c0,0,0,0,0,0
	l-7.9,0l0-0.9L12,13.5z M6.6,12.5v-0.9h2.8v0.9H6.6z M5,10.5V10c0-1.4,1.1-2.5,2.5-2.5h1C9.9,7.5,11,8.6,11,10v0.5H5z M15,9.2
	c0,0.8-0.6,1.4-1.4,1.4H12V10c0-2-1.5-3.5-3.5-3.5H8c1.4,0,2.5-1.1,2.5-2.5c0-1.4-1.1-2.5-2.5-2.5S5.5,2.7,5.5,4
	c0,1.4,1.1,2.5,2.5,2.5H7.5C5.6,6.5,4,8.1,4,10v0.5H2.4C1.6,10.6,1,9.9,1,9.2V2.4C1,1.6,1.6,1,2.4,1h11.2C14.4,1,15,1.6,15,2.4V9.2z
	 M8,5.5C7.2,5.5,6.5,4.9,6.5,4c0-0.8,0.7-1.5,1.5-1.5c0.8,0,1.5,0.7,1.5,1.5C9.5,4.9,8.8,5.5,8,5.5z"/>
</svg>