<?xml version="1.0" encoding="utf-8"?>
<!-- Generator: Adobe Illustrator 23.0.4, SVG Export Plug-In . SVG Version: 6.00 Build 0)  -->
<svg version="1.1" id="Layer_1" xmlns="http://www.w3.org/2000/svg" xmlns:xlink="http://www.w3.org/1999/xlink" x="0px" y="0px"
	 viewBox="0 0 16 16" style="enable-background:new 0 0 16 16;" xml:space="preserve">
<style type="text/css">
	.st0{fill-rule:evenodd;clip-rule:evenodd;fill:#FFFFFF;}
</style>
<!-- <path class="st0" d="..." /> THIS CLASS IS BREAKING IT -->
<path d="M10.8,3c-0.1-0.4-0.3-0.7-0.6-1C9.7,1.4,8.9,1,8,1S6.3,1.4,5.8,2C5.5,2.3,5.3,2.6,5.2,3C5.1,3.3,5,3.6,5,4
	c0,1.7,1.3,3,3,3s3-1.3,3-3C11,3.6,10.9,3.3,10.8,3z M11.5,2H15c0.6,0,1,0.4,1,1v12c0,0.6-0.4,1-1,1H1c-0.6,0-1-0.4-1-1V3
	c0-0.6,0.4-1,1-1h3.5c0.7-1.2,2-2,3.5-2S10.8,0.8,11.5,2z M4.1,3H1v12h4v-4c0-0.6,0.4-1,1-1h4c0.6,0,1,0.4,1,1v4h4V3h-3.1
	C12,3.3,12,3.7,12,4c0,2.2-1.8,4-4,4S4,6.2,4,4C4,3.7,4,3.3,4.1,3z M7.5,11H6v4h1.5V11z M10,15v-4H8.5v4H10z M7.5,2.5
	C7.5,2.2,7.7,2,8,2c0.3,0,0.5,0.2,0.5,0.5v1h1C9.8,3.5,10,3.7,10,4S9.8,4.5,9.5,4.5h-1v1C8.5,5.8,8.3,6,8,6C7.7,6,7.5,5.8,7.5,5.5
	v-1h-1C6.2,4.5,6,4.3,6,4s0.2-0.5,0.5-0.5h1V2.5z"/>
</svg>
