<?xml version="1.0" encoding="UTF-8"?>
<svg width="43px" height="54px" viewBox="0 0 43 54" version="1.1" xmlns="http://www.w3.org/2000/svg" xmlns:xlink="http://www.w3.org/1999/xlink">
    <!-- Generator: Sketch 52.2 (67145) - http://www.bohemiancoding.com/sketch -->
    <title>Icon / 70 x 64 / beaker</title>
    <desc>Created with Sketch.</desc>
    <g id="WIP" stroke="none" stroke-width="1" fill="none" fill-rule="evenodd">
        <g id="Labs-&amp;-Mammo---Lab-Appointment-Type" transform="translate(-368.000000, -328.000000)">
            <g id="Icon-/-70-x-64-/-beaker" transform="translate(354.000000, 323.000000)">
                <g id="beakerIcon-25" transform="translate(14.000000, 5.000000)">
                    <path d="M41.3,33.6535714 C41.3,44.3571429 32.3,52.9392857 21.3,52.9392857 C10.3,52.9392857 1.3,44.2607143 1.3,33.6535714 C1.3,25.2642857 6.9,18.0321429 14.7,15.4285714 L14.7,4.62857143 L28,4.62857143 L28,15.4285714 C35.7,18.0321429 41.3,25.2642857 41.3,33.6535714 Z" id="Path" fill="#FFFFFF"></path>
                    <g id="Group">
                        <path d="M14.7,4.725 L27.8,4.725 C28.8,4.725 29.6,3.95357143 29.6,2.98928571 L29.6,2.7 C29.6,1.73571429 28.8,0.964285714 27.8,0.964285714 L14.7,0.964285714 C13.7,0.964285714 12.9,1.73571429 12.9,2.7 L12.9,2.98928571 C13,3.95357143 13.8,4.725 14.7,4.725 Z" id="Path" fill="#EBF2F3"></path>
                        <path d="M27.9,5.49642857 L14.7,5.49642857 C13.2,5.49642857 12,4.33928571 12,2.89285714 L12,2.7 C12,1.25357143 13.2,0.0964285714 14.7,0.0964285714 L27.8,0.0964285714 C29.3,0.0964285714 30.5,1.25357143 30.5,2.7 L30.5,2.98928571 C30.5,4.33928571 29.3,5.49642857 27.9,5.49642857 Z M14.7,1.83214286 C14.2,1.83214286 13.8,2.21785714 13.8,2.7 L13.8,2.98928571 C13.8,3.47142857 14.2,3.85714286 14.7,3.85714286 L27.8,3.85714286 C28.3,3.85714286 28.7,3.47142857 28.7,2.98928571 L28.7,2.7 C28.7,2.21785714 28.3,1.83214286 27.8,1.83214286 L14.7,1.83214286 Z" id="Shape" fill="#333333" fill-rule="nonzero"></path>
                        <g fill="#333333">
                            <path d="M29,14.7535714 L29,5.4 C30,5.01428571 30.7,4.05 30.7,2.98928571 L30.7,2.7 C30.7,1.25357143 29.5,0 27.9,0 L14.7,0 C13.2,0 12,1.25357143 12,2.7 L12,2.98928571 C12,4.05 12.7,5.01428571 13.7,5.49642857 L13.7,14.85 C5.7,17.8392857 0.3,25.4571429 0.3,33.75 C0.3,44.9357143 9.7,54 21.3,54 C32.9,54 42.3,44.9357143 42.3,33.75 C42.3,25.3607143 37,17.7428571 29,14.7535714 Z M28.6,2.98928571 C28.6,3.27857143 28.4,3.56785714 28,3.66428571 C28,3.66428571 28,3.66428571 28,3.66428571 C28,3.66428571 27.9,3.66428571 27.9,3.66428571 L14.7,3.66428571 C14.7,3.66428571 14.6,3.66428571 14.6,3.66428571 C14.6,3.66428571 14.6,3.66428571 14.6,3.66428571 C14.2,3.56785714 14,3.27857143 14,2.98928571 L14,2.7 C14,2.31428571 14.3,1.92857143 14.7,1.92857143 L27.8,1.92857143 C28.2,1.92857143 28.6,2.31428571 28.6,2.7 L28.6,2.98928571 Z M15,16.2964286 C15.4,16.2 15.7,15.8142857 15.7,15.4285714 L15.7,5.68928571 L27,5.68928571 L27,15.4285714 C27,15.8142857 27.3,16.2 27.7,16.2964286 C35.3,18.9 40.4,25.8428571 40.4,33.5571429 C40.4,43.6821429 31.9,51.8785714 21.4,51.8785714 C10.9,51.8785714 2.4,43.6821429 2.4,33.5571429 C2.3,25.8428571 7.4,18.9 15,16.2964286 Z" id="Shape" fill-rule="nonzero"></path>
                            <path d="M18.2,9.83571429 L20.8,9.83571429 C21.4,9.83571429 21.8,9.45 21.8,8.87142857 C21.8,8.29285714 21.4,7.90714286 20.8,7.90714286 L18.2,7.90714286 C17.6,7.90714286 17.2,8.29285714 17.2,8.87142857 C17.2,9.45 17.6,9.83571429 18.2,9.83571429 Z" id="Path"></path>
                            <path d="M18.2,12.7285714 L20.8,12.7285714 C21.4,12.7285714 21.8,12.3428571 21.8,11.7642857 C21.8,11.1857143 21.4,10.8 20.8,10.8 L18.2,10.8 C17.6,10.8 17.2,11.1857143 17.2,11.7642857 C17.2,12.3428571 17.6,12.7285714 18.2,12.7285714 Z" id="Path"></path>
                        </g>
                        <path d="M38.5,33.5571429 C38.5,40.5 31.7,50.1428571 21.3,50.1428571 C11.2,50.1428571 4.3,40.8857143 4.1,33.5571429 C4.1,32.9785714 4,26.5178571 7.9,24.3964286 C11.6,22.4678571 14.4,26.7107143 22.7,27.0964286 C29.8,27.3857143 33.1,24.5892857 36.1,26.9035714 C38.6,28.7357143 38.6,32.4964286 38.5,33.5571429 Z" id="Path" fill="#F6EA83"></path>
                    </g>
                </g>
            </g>
        </g>
    </g>
</svg>