<?xml version="1.0" encoding="UTF-8"?>
<svg width="31px" height="49px" viewBox="0 0 31 49" version="1.1" xmlns="http://www.w3.org/2000/svg" xmlns:xlink="http://www.w3.org/1999/xlink">
    <!-- Generator: Sketch 52.2 (67145) - http://www.bohemiancoding.com/sketch -->
    <title>Icon / 70 x 64 / blood</title>
    <desc>Created with Sketch.</desc>
    <g id="WIP" stroke="none" stroke-width="1" fill="none" fill-rule="evenodd">
        <g id="Labs-&amp;-Mammo---Lab-Appointment-Type" transform="translate(-129.000000, -331.000000)">
            <g id="Icon-/-70-x-64-/-blood" transform="translate(109.000000, 323.000000)">
                <g id="blood" transform="translate(21.000000, 9.000000)">
                    <path d="M14.3846154,46.75 C22.3290191,46.75 28.7692308,40.3097883 28.7692308,32.3653846 C28.7692308,27.0691155 23.974359,16.4546866 14.3846154,0.522097857 C4.79487179,16.4546866 0,27.0691155 0,32.3653846 C0,40.3097883 6.44021168,46.75 14.3846154,46.75 Z" id="Oval-9" stroke="#333333" stroke-width="2" fill="#FFFFFF" stroke-linecap="round" stroke-linejoin="round"></path>
                    <path d="M14.6220907,43.1485075 C20.7115474,43.1485075 25.6480275,38.2120274 25.6480275,32.1225707 C25.6480275,28.2244425 22.259337,20.5677994 15.4819562,9.15264143 L15.4819542,9.15264265 C15.2000034,8.67775238 14.5864626,8.52134398 14.1115723,8.80329472 C13.967737,8.88869229 13.8476219,9.00880733 13.7622244,9.15264265 C6.98484402,20.5678 3.59615385,28.2244426 3.59615385,32.1225707 C3.59615385,38.2120274 8.5326339,43.1485075 14.6220907,43.1485075 Z" id="Oval-9" fill="#F74A2A"></path>
                </g>
            </g>
        </g>
    </g>
</svg>