<?xml version="1.0" encoding="UTF-8"?>
<svg width="39px" height="56px" viewBox="0 0 39 56" version="1.1" xmlns="http://www.w3.org/2000/svg" xmlns:xlink="http://www.w3.org/1999/xlink">
    <!-- Generator: Sketch 52.2 (67145) - http://www.bohemiancoding.com/sketch -->
    <title>Icon / 70 x 64 / Lab</title>
    <desc>Created with Sketch.</desc>
    <g id="WIP" stroke="none" stroke-width="1" fill="none" fill-rule="evenodd">
        <g id="Labs-&amp;-Mammo---select-exam" transform="translate(-345.000000, -271.000000)">
            <g id="Icon-/-70-x-64-/-Lab" transform="translate(329.000000, 267.000000)">
                <g id="labIcon" transform="translate(16.000000, 4.000000)">
                    <path d="M37.88,42.88 L27.58,16.42 C27.1796773,15.3457391 26.9829885,14.2063007 27,13.06 L27,5.61 C27.815635,5.13672214 28.3154578,4.26298596 28.31,3.32 C28.31,1.83987687 27.1101231,0.64 25.63,0.64 L12.93,0.64 C11.4482505,0.639989761 10.2455084,1.83826076 10.24,3.32 C10.2345422,4.26298596 10.734365,5.13672214 11.55,5.61 L11.55,13.06 C11.5496521,14.2084091 11.3395372,15.3470961 10.93,16.42 L0.63,42.88 C-0.466485056,45.695996 -0.101873791,48.8717659 1.6042795,51.36599 C3.3104328,53.8602141 6.13806163,55.3511774 9.16,55.35 L29.34,55.35 C32.3637067,55.3544839 35.1943858,53.8648764 36.9029019,51.3701229 C38.6114179,48.8753693 38.9771309,45.6976455 37.88,42.88 Z M12.88,2.54 L25.58,2.54 C25.9741219,2.58484139 26.271824,2.91833539 26.271824,3.315 C26.271824,3.71166461 25.9741219,4.04515861 25.58,4.09 L12.93,4.09 C12.5358781,4.04515861 12.238176,3.71166461 12.238176,3.315 C12.238176,2.91833539 12.5358781,2.58484139 12.93,2.54 L12.88,2.54 Z M35.32,50.3 C33.9772245,52.2937033 31.7236378,53.4805923 29.32,53.46 L9.16,53.46 C6.76727013,53.4579697 4.52962599,52.2755025 3.17985179,50.299833 C1.83007759,48.3241635 1.54201544,45.8097451 2.41,43.58 L12.71,17.12 C13.2047269,15.8440506 13.462285,14.4884816 13.47,13.12 L13.47,6 L25,6 L25,13.06 C25.009138,14.4274216 25.2631495,15.7821495 25.75,17.06 L36.1,43.57 C36.9905091,45.8014675 36.6972962,48.3313688 35.32,50.3 Z" id="Shape" fill="#333333" fill-rule="nonzero"></path>
                    <path d="M26.35,3.32 C26.35,3.5242167 26.2688752,3.72006921 26.1244722,3.86447222 C25.9800692,4.00887523 25.7842167,4.09 25.58,4.09 L12.93,4.09 C12.5358781,4.04515861 12.238176,3.71166461 12.238176,3.315 C12.238176,2.91833539 12.5358781,2.58484139 12.93,2.54 L25.58,2.54 C25.7859612,2.53998263 25.9833445,2.62247867 26.1280385,2.76905176 C26.2727324,2.91562484 26.3526748,3.11405619 26.35,3.32 Z" id="Shape" fill="#FFFFFF" fill-rule="nonzero"></path>
                    <path d="M36.1,43.57 L25.79,17.11 C25.3031495,15.8321495 25.049138,14.4774216 25.04,13.11 L25.04,6 L13.47,6 L13.47,13.06 C13.462285,14.4284816 13.2047269,15.7840506 12.71,17.06 L2.41,43.57 C1.54201544,45.7997451 1.83007759,48.3141635 3.17985179,50.289833 C4.52962599,52.2655025 6.76727013,53.4479697 9.16,53.45 L29.34,53.45 C31.7326309,53.4464547 33.9698914,52.2642711 35.3209731,50.2896132 C36.6720548,48.3149553 36.9634599,45.801397 36.1,43.57 Z M15.61,9.77 L18.35,9.77 C18.747645,9.77 19.07,10.092355 19.07,10.49 C19.07,10.887645 18.747645,11.21 18.35,11.21 L15.61,11.21 C15.212355,11.21 14.89,10.887645 14.89,10.49 C14.89,10.092355 15.212355,9.77 15.61,9.77 Z M15.61,13.34 L18.35,13.34 C18.747645,13.34 19.07,13.662355 19.07,14.06 C19.07,14.457645 18.747645,14.78 18.35,14.78 L15.61,14.78 C15.212355,14.78 14.89,14.457645 14.89,14.06 C14.89,13.662355 15.212355,13.34 15.61,13.34 Z M33.27,47.67 C32.9231227,49.2087743 31.5767821,50.3163144 30,50.36 C27.07,50.64 14.08,50.36 10.55,50.36 L8.15,50.36 C7.03580126,50.3749628 5.9875247,49.8332931 5.35513491,48.915826 C4.72274512,47.998359 4.58954384,46.8259481 5,45.79 L10.1,32.68 C11.04,30.21 11.69,29.49 12.39,28.96 C16.8,25.62 25.58,27.17 29.58,34.84 C30.08,35.84 30.78,37.2 32.02,40.06 C33.13,42.52 34,44.94 33.27,47.67 Z" id="Shape" fill="#FFFFFF" fill-rule="nonzero"></path>
                    <path d="M19.07,10.49 C19.07,10.887645 18.747645,11.21 18.35,11.21 L15.61,11.21 C15.212355,11.21 14.89,10.887645 14.89,10.49 C14.89,10.092355 15.212355,9.77 15.61,9.77 L18.35,9.77 C18.747645,9.77 19.07,10.092355 19.07,10.49 Z" id="Shape" fill="#333333" fill-rule="nonzero"></path>
                    <path d="M19.07,14.06 C19.07,14.457645 18.747645,14.78 18.35,14.78 L15.61,14.78 C15.212355,14.78 14.89,14.457645 14.89,14.06 C14.89,13.662355 15.212355,13.34 15.61,13.34 L18.35,13.34 C18.5409559,13.34 18.7240907,13.4158569 18.8591169,13.5508831 C18.9941431,13.6859093 19.07,13.8690441 19.07,14.06 Z" id="Shape" fill="#333333" fill-rule="nonzero"></path>
                    <path d="M33.27,47.67 C32.9231227,49.2087743 31.5767821,50.3163144 30,50.36 C27.07,50.64 14.08,50.36 10.55,50.36 L8.15,50.36 C7.03580126,50.3749628 5.9875247,49.8332931 5.35513491,48.915826 C4.72274512,47.998359 4.58954384,46.8259481 5,45.79 L10.1,32.68 C11.04,30.21 11.69,29.49 12.39,28.96 C16.8,25.62 25.58,27.17 29.58,34.84 C30.08,35.84 30.78,37.2 32.02,40.06 C33.13,42.52 34,44.94 33.27,47.67 Z" id="Shape" fill="#3BBAD1" fill-rule="nonzero"></path>
                </g>
            </g>
        </g>
    </g>
</svg>