<?xml version="1.0" encoding="UTF-8"?>
<svg width="40px" height="64px" viewBox="0 0 40 64" version="1.1" xmlns="http://www.w3.org/2000/svg" xmlns:xlink="http://www.w3.org/1999/xlink">
    <!-- Generator: Sketch 52.2 (67145) - http://www.bohemiancoding.com/sketch -->
    <title>Icon / 70 x 64 / mammo</title>
    <desc>Created with Sketch.</desc>
    <g id="WIP" stroke="none" stroke-width="1" fill="none" fill-rule="evenodd">
        <g id="Labs-&amp;-Mammo---select-exam" transform="translate(-631.000000, -267.000000)">
            <g id="Icon-/-70-x-64-/-mammo" transform="translate(616.000000, 267.000000)">
                <g id="mammoIcon-08" transform="translate(15.000000, 0.000000)">
                    <path d="M33.4933333,42.24 C31.8933333,44.16 30.08,45.44 28.2666667,46.4 C25.3866667,47.8933333 22.6133333,48.32 21.2266667,48.4266667 L21.12,48.4266667 L21.0133333,48.4266667 C20.8,48.4266667 20.48,48.4266667 20.2666667,48.4266667 L2.24,48.4266667 L2.24,42.7733333 C2.24,36.2666667 6.50666667,30.4 12.5866667,28.3733333 C16,27.2 20.3733333,27.0933333 23.8933333,27.84 C26.7733333,28.48 29.3333333,30.2933333 30.9333333,32.8533333 C31.04,32.96 31.04,33.0666667 31.1466667,33.1733333 C31.68,34.1333333 32,35.0933333 32.2133333,36.16 C33.8133333,32.2133333 33.28,27.6266667 30.72,24.5333333 C29.3333333,22.8266667 27.4133333,21.5466667 25.3866667,20.2666667 C24.5333333,19.7333333 23.7866667,19.2 22.9333333,18.56 C21.2266667,17.3866667 20.16,15.68 19.6266667,13.8666667 C18.7733333,10.88 19.9466667,8.21333333 20.2666667,7.46666667 C21.76,4.48 24.64,2.34666667 27.84,1.81333333 C29.44,1.6 30.72,1.81333333 31.5733333,2.02666667 C32.4266667,2.24 33.28,2.66666667 33.8133333,3.30666667 C34.3466667,3.94666667 34.6666667,4.8 34.6666667,5.76 C34.6666667,7.89333333 32.96,9.6 30.8266667,9.6 C29.6533333,9.6 28.6933333,9.06666667 27.9466667,8.32 C27.7333333,8.10666667 27.4133333,8 27.0933333,7.89333333 C25.8133333,7.89333333 24.64,8.42666667 24,9.38666667 C23.04,10.7733333 23.4666667,12.3733333 23.5733333,12.8 C23.8933333,13.76 24.4266667,14.6133333 25.3866667,15.2533333 C26.1333333,15.7866667 26.88,16.32 27.6266667,16.8533333 C29.76,18.24 32.1066667,19.7333333 33.92,21.9733333 C38.72,27.6266667 38.5066667,36.16 33.4933333,42.24 Z" id="Path" fill="#F67280"></path>
                    <path d="M27.6266667,55.68 C27.52,55.8933333 27.2,56.1066667 26.88,56.1066667 L18.4533333,56.1066667 L18.4533333,61.8666667 C18.6666667,61.8666667 18.7733333,61.76 18.9866667,61.76 C20.16,61.76 21.12,62.72 21.12,63.8933333 L17.6,63.8933333 C17.1733333,63.8933333 16.7466667,63.5733333 16.7466667,63.04 L16.7466667,55.8933333 L10.88,55.8933333 C10.88,56.1066667 10.9866667,56.32 10.9866667,56.4266667 C10.9866667,57.6 10.0266667,58.56 8.85333333,58.56 L8.85333333,55.04 C8.85333333,54.6133333 9.17333333,54.1866667 9.70666667,54.1866667 L16.8533333,54.1866667 L16.8533333,48.2133333 C16.8533333,47.7866667 17.1733333,47.36 17.7066667,47.36 C18.1333333,47.36 18.56,47.68 18.56,48.2133333 L18.56,54.4 L25.4933333,54.4 L20.5866667,48.96 C20.3733333,48.64 20.48,48.1066667 20.8,47.8933333 C21.12,47.68 21.6533333,47.7866667 21.8666667,48.1066667 L27.6266667,54.8266667 C27.84,55.04 27.84,55.36 27.6266667,55.68 Z" id="Path" fill="#333333"></path>
                    <path d="M39.1466667,31.5733333 C39.1466667,35.84 37.6533333,40 34.7733333,43.3066667 C33.1733333,45.2266667 31.2533333,46.72 29.0133333,47.8933333 C26.0266667,49.4933333 23.1466667,49.92 21.2266667,50.1333333 L21.0133333,50.1333333 L20.8,50.1333333 C20.48,50.1333333 20.2666667,50.1333333 20.0533333,50.1333333 L2.24,50.1333333 C1.81333333,50.1333333 1.38666667,49.92 1.06666667,49.6 C0.746666667,49.28 0.533333333,48.8533333 0.533333333,48.4266667 L0.533333333,42.7733333 C0.533333333,35.52 5.12,29.12 12.0533333,26.7733333 C12.0533333,26.7733333 12.0533333,26.7733333 12.16,26.7733333 C15.68,25.6 20.3733333,25.3866667 24.32,26.24 C27.0933333,26.7733333 29.6533333,28.3733333 31.36,30.5066667 C31.1466667,28.6933333 30.5066667,26.9866667 29.3333333,25.7066667 C28.0533333,24.2133333 26.24,22.9333333 24.32,21.76 C23.4666667,21.2266667 22.6133333,20.6933333 21.8666667,20.0533333 C19.9466667,18.6666667 18.6666667,16.8533333 17.92,14.6133333 C17.92,14.6133333 17.92,14.5066667 17.92,14.5066667 C17.7066667,13.5466667 17.4933333,12.6933333 17.4933333,11.7333333 C17.4933333,9.6 18.1333333,7.78666667 18.56,6.93333333 C18.56,6.93333333 18.56,6.82666667 18.56,6.82666667 C20.2666667,3.30666667 23.5733333,0.853333333 27.4133333,0.213333333 C27.4133333,0.213333333 27.52,0.213333333 27.52,0.213333333 C28.16,0 28.6933333,0 29.2266667,0 C30.1866667,0 31.04,0.106666667 32,0.32 C32,0.32 32,0.32 32,0.32 C33.1733333,0.533333333 34.3466667,1.17333333 35.0933333,2.13333333 C35.9466667,3.09333333 36.3733333,4.37333333 36.3733333,5.65333333 C36.3733333,8.64 33.92,11.2 30.8266667,11.2 C29.3333333,11.2 27.9466667,10.56 26.88,9.49333333 C26.24,9.49333333 25.8133333,9.81333333 25.4933333,10.1333333 C25.4933333,10.1333333 25.4933333,10.24 25.3866667,10.24 C25.1733333,10.4533333 25.0666667,10.7733333 25.0666667,11.2 C25.0666667,11.52 25.1733333,11.84 25.1733333,12.0533333 C25.1733333,12.0533333 25.1733333,12.16 25.1733333,12.16 C25.3866667,12.8 25.7066667,13.3333333 26.3466667,13.76 C26.9866667,14.2933333 27.7333333,14.72 28.48,15.2533333 C30.6133333,16.64 33.0666667,18.24 35.0933333,20.6933333 C36.3733333,22.1866667 37.3333333,23.8933333 37.9733333,25.7066667 C38.72,27.6266667 39.1466667,29.5466667 39.1466667,31.5733333 Z" id="Path" fill="#333333"></path>
                    <path d="M33.4933333,16.96 C34.0266667,17.28 37.9733333,14.5066667 37.8666667,10.56 C37.6533333,8.21333333 36.2666667,6.08 34.1333333,4.90666667 C33.8133333,4.69333333 33.3866667,4.69333333 33.0666667,4.8 C32,5.12 31.04,5.97333333 30.8266667,7.04 C30.5066667,8.53333333 31.68,9.70666667 31.7866667,9.81333333 C32.64,10.6666667 33.6,11.9466667 33.8133333,13.6533333 C34.0266667,15.4666667 33.1733333,16.7466667 33.4933333,16.96 Z" id="Path" fill="#333333"></path>
                    <path d="M33.4933333,42.24 C31.8933333,44.16 30.08,45.44 28.2666667,46.4 C25.3866667,47.8933333 22.6133333,48.32 21.2266667,48.4266667 L21.12,48.4266667 L21.0133333,48.4266667 C20.8,48.4266667 20.48,48.4266667 20.2666667,48.4266667 L2.24,48.4266667 L2.24,42.7733333 C2.24,36.2666667 6.50666667,30.4 12.5866667,28.3733333 C16,27.2 20.3733333,27.0933333 23.8933333,27.84 C26.7733333,28.48 29.3333333,30.2933333 30.9333333,32.8533333 C31.04,32.96 31.04,33.0666667 31.1466667,33.1733333 C31.68,34.1333333 32,35.0933333 32.2133333,36.16 C33.8133333,32.2133333 33.28,27.6266667 30.72,24.5333333 C29.3333333,22.8266667 27.4133333,21.5466667 25.3866667,20.2666667 C24.5333333,19.7333333 23.7866667,19.2 22.9333333,18.56 C21.2266667,17.3866667 20.16,15.68 19.6266667,13.8666667 C18.7733333,10.88 19.9466667,8.21333333 20.2666667,7.46666667 C21.76,4.48 24.64,2.34666667 27.84,1.81333333 C29.44,1.6 30.72,1.81333333 31.5733333,2.02666667 C32.4266667,2.24 33.28,2.66666667 33.8133333,3.30666667 C34.3466667,3.94666667 34.6666667,4.8 34.6666667,5.76 C34.6666667,7.89333333 32.96,9.6 30.8266667,9.6 C29.6533333,9.6 28.6933333,9.06666667 27.9466667,8.32 C27.7333333,8.10666667 27.4133333,8 27.0933333,7.89333333 C25.8133333,7.89333333 24.64,8.42666667 24,9.38666667 C23.04,10.7733333 23.4666667,12.3733333 23.5733333,12.8 C23.8933333,13.76 24.4266667,14.6133333 25.3866667,15.2533333 C26.1333333,15.7866667 26.88,16.32 27.6266667,16.8533333 C29.76,18.24 32.1066667,19.7333333 33.92,21.9733333 C38.72,27.6266667 38.5066667,36.16 33.4933333,42.24 Z" id="Path" fill="#F67280"></path>
                </g>
            </g>
        </g>
    </g>
</svg>