<?xml version="1.0" encoding="UTF-8"?>
<svg width="45px" height="47px" viewBox="0 0 45 47" version="1.1" xmlns="http://www.w3.org/2000/svg" xmlns:xlink="http://www.w3.org/1999/xlink">
    <!-- Generator: Sketch 52.2 (67145) - http://www.bohemiancoding.com/sketch -->
    <title>Icon / 70 x 64 / speciman</title>
    <desc>Created with Sketch.</desc>
    <g id="WIP" stroke="none" stroke-width="1" fill="none" fill-rule="evenodd">
        <g id="Labs-&amp;-Mammo---Lab-Appointment-Type" transform="translate(-857.000000, -537.000000)">
            <g id="Icon-/-70-x-64-/-speciman" transform="translate(844.000000, 528.000000)">
                <g id="rxIcon-27" transform="translate(13.000000, 9.000000)">
                    <path d="M5,5.4 L5,4.3 C5,2.7 6.3,1.4 7.9,1.4 L36.9,1.4 C38.5,1.4 39.8,2.7 39.8,4.3 L39.8,5.4" id="Path" fill="#EBF2F3"></path>
                    <path d="M6.8,10.5 L38,10.5 C39.4,10.5 40.5,11.6 40.5,13 L40.5,42.9 C40.5,44.3 39.4,45.4 38,45.4 L6.8,45.4 C5.4,45.4 4.3,44.3 4.3,42.9 L4.3,12.9 C4.4,11.6 5.5,10.5 6.8,10.5 Z" id="Path" fill="#00BCD3"></path>
                    <path d="M4.4,20 L32.6,20 C33.9,20 35,21.1 35,22.4 L35,37.7 C35,39 34,40 32.7,40 L4.4,40 L4.4,20 Z" id="Path" fill="#FFFFFF"></path>
                    <path d="M5.2,23.4 L27.2,23.4 C27.9,23.4 28.5,24 28.5,24.7 L28.5,27.9 C28.5,28.6 27.9,29.2 27.2,29.2 L5.2,29.2" id="Path" fill="#EBF2F3"></path>
                    <path d="M4.3,5.4 L40.6,5.4 C42,5.4 43.1,6.5 43.1,7.9 L43.1,12.5 C43.1,13.9 42,15 40.6,15 L4.3,15 C2.9,15 1.8,13.9 1.8,12.5 L1.8,7.9 C1.8,6.5 2.9,5.4 4.3,5.4 Z" id="Path" fill="#FFFFFF"></path>
                    <path d="M40.9,4.4 C40.9,2.1 39.1,0.4 37,0.4 L8,0.4 C5.8,0.4 4.1,2.2 4.1,4.3 L4.1,4.4 C2.3,4.5 0.9,6 0.9,7.8 L0.9,12.5 C0.9,14.1 2,15.4 3.4,15.8 L3.4,42.9 C3.4,44.8 5,46.4 6.9,46.4 L38.1,46.4 C40,46.4 41.6,44.8 41.6,42.9 L41.6,15.8 C43.1,15.4 44.1,14 44.1,12.5 L44.1,7.8 C44.1,6 42.7,4.5 40.9,4.4 Z M6,4.3 C6,3.2 6.9,2.4 7.9,2.4 L36.9,2.4 C38,2.4 38.8,3.3 38.8,4.3 L38.8,4.4 L6,4.3 Z M39.6,42.9 C39.6,43.7 38.9,44.4 38.1,44.4 L6.8,44.4 C6,44.4 5.3,43.7 5.3,42.9 L5.3,15.9 L39.5,15.9 L39.5,42.9 L39.6,42.9 Z M42.1,12.5 C42.1,13 41.9,13.4 41.6,13.6 C41.4,13.8 41,13.9 40.7,13.9 L4.3,13.9 C3.9,13.9 3.6,13.8 3.4,13.5 C3.1,13.2 2.9,12.8 2.9,12.4 L2.9,7.7 C2.9,6.9 3.6,6.2 4.4,6.2 L7,6.2 L7,8.8 C7,9 7.1,9.2 7.2,9.3 C7.4,9.5 7.6,9.6 7.9,9.6 C8.2,9.6 8.4,9.5 8.6,9.3 C8.7,9.2 8.8,9 8.8,8.8 L8.8,6.2 L16.4,6.2 L16.4,10.3 C16.4,10.8 16.8,11.2 17.3,11.2 C17.8,11.2 18.2,10.8 18.2,10.3 L18.2,6.2 L22.7,6.2 L22.7,9 C22.7,9.2 22.8,9.4 22.9,9.5 C23,9.7 23.3,9.9 23.6,9.9 C23.9,9.9 24.2,9.8 24.3,9.5 C24.4,9.4 24.5,9.2 24.5,9 L24.5,6.4 L28.8,6.4 L28.8,9.4 C28.8,9.4 28.8,9.5 28.8,9.5 C28.8,9.9 29.2,10.3 29.7,10.3 C30.1,10.3 30.5,9.9 30.6,9.5 C30.6,9.5 30.6,9.5 30.6,9.4 L30.6,6.4 L36.5,6.4 L36.5,10.9 C36.5,11.1 36.6,11.3 36.7,11.5 C36.9,11.7 37.1,11.8 37.3,11.8 C37.6,11.8 37.8,11.7 38,11.5 C38.1,11.4 38.2,11.2 38.2,10.9 L38.2,6.4 L40.9,6.4 C41.7,6.4 42.4,7.1 42.4,7.9 L42.4,12.5 L42.1,12.5 Z" id="Shape" fill="#333333" fill-rule="nonzero"></path>
                </g>
            </g>
        </g>
    </g>
</svg>