<?xml version="1.0" encoding="UTF-8"?>
<svg width="136px" height="174px" viewBox="0 0 136 174" version="1.1" xmlns="http://www.w3.org/2000/svg" xmlns:xlink="http://www.w3.org/1999/xlink">
    <!-- Generator: sketchtool 55 (78076) - https://sketchapp.com -->
    <title>C1C96AA3-29F1-40B6-8440-15BDB5D1C12C@1x</title>
    <desc>Created with sketchtool.</desc>
    <g id="Page-1" stroke="none" stroke-width="1" fill="none" fill-rule="evenodd">
        <g id="newAppScreen2" transform="translate(-120.000000, -196.000000)">
            <g id="Logo" transform="translate(120.994493, 197.000000)">
                <g id="Group-3">
                    <path d="M0,0 L108,0 C122.359403,-2.63777963e-15 134,11.6405965 134,26 L134,108 C134,122.359403 122.359403,134 108,134 L26,134 C11.6405965,134 1.75851975e-15,122.359403 0,108 L0,0 Z" id="Rectangle" stroke="#CCCCCC" fill="#FFFFFF" stroke-linejoin="round"></path>
                    <g id="Group" transform="translate(22.139130, 23.304348)">
                        <path d="M56.7961522,32.6180172 L31.8939949,36.6622398 L37.1134177,70.4458206 L62.014801,66.4023914 L56.7961522,32.6180172 Z M54.5424512,35.7989645 L58.9136404,64.0918605 L39.3671187,67.2656667 L34.9951555,38.9727708 L54.5424512,35.7989645 L54.5424512,35.7989645 Z" id="Fill-13" fill="#8A9195"></path>
                        <path d="M42.6501542,44.8268564 L21.5023594,48.2609148 C12.4976167,49.7232461 4.04236846,43.4248275 2.61600484,34.193812 L0.0635646754,17.6678028 C-0.376804776,14.8208986 1.51778998,12.1469668 4.29467152,11.6954929 L20.4142057,9.07789615 C29.4189483,7.61635837 37.8741966,13.9147769 39.3005602,23.1457924 L42.6501542,44.8268564" id="Fill-14" fill="#1A5382"></path>
                        <path d="M70.4948152,40.3057694 L49.340055,43.7406212 L45.989687,22.0532096 C44.5633234,12.8174334 50.7091474,4.14580122 59.7177597,2.68267653 L75.8365199,0.0650798163 C78.6172711,-0.386394124 81.2285304,1.55914911 81.6688999,4.41002059 L84.2221139,20.9352363 C85.6492515,30.1702191 79.5026536,38.8426447 70.4948152,40.3057694" id="Fill-15" fill="#2E9ECD"></path>
                        <path d="M34.8341769,85.3888939 L22.097516,87.4574222 C19.6162779,87.8597021 17.2867312,86.1244235 16.8935719,83.5806178 L14.6166528,68.842255 C13.5579087,61.9923876 18.1171643,55.5598758 24.7993257,54.4736406 L43.6671058,51.4101241 L46.3960033,69.0747363 C47.5979256,76.8521485 42.4210692,84.1566636 34.8341769,85.3888939" id="Fill-16" fill="#7ABB43"></path>
                        <path d="M81.7431977,77.7828672 L69.0065368,79.8513954 C61.4165487,81.0828323 54.2893742,75.7746413 53.086678,67.9932618 L50.3577805,50.3238889 L69.2309781,47.2595789 C75.9154614,46.1733437 82.1928544,50.8499473 83.2515985,57.7029884 L85.5285175,72.4413513 C85.9216769,74.9883308 84.2275315,77.3790004 81.7431977,77.7828672" id="Fill-17" fill="#13534C"></path>
                    </g>
                </g>
                <g id="Group-8" transform="translate(4.005507, 158.000000)" fill="#666666">
                    <path d="M4.92145761,9.04158534 L9.5297619,9.04158534 L7.23591754,2.59238677 L4.92145761,9.04158534 Z M10.3429152,11.6339721 L4.12891986,11.6339721 L3.25319396,14.0576124 L-1.24344979e-14,14.0576124 L5.37993612,1.27009514e-13 L9.09189895,1.27009514e-13 L14.4510743,14.0576124 L11.2189315,14.0576124 L10.3429152,11.6339721 L10.3429152,11.6339721 Z" id="Fill-1"></path>
                    <path d="M21.7682927,7.16571097 C21.3098142,6.49145857 20.3713705,6.00649574 19.4744483,6.00649574 C17.9729965,6.00649574 16.9307491,7.20797097 16.9307491,8.97848882 C16.9307491,10.7277299 17.9729965,11.9290584 19.4744483,11.9290584 C20.3713705,11.9290584 21.3098142,11.4442423 21.7682927,10.7698432 L21.7682927,7.16571097 Z M21.7682927,12.7719106 C20.9760453,13.7626728 19.8707898,14.3104387 18.6614402,14.3104387 C16.1173055,14.3104387 14.1988966,12.3714678 14.1988966,8.97848882 C14.1988966,5.64816617 16.0965447,3.62511548 18.6614402,3.62511548 C19.8498839,3.62511548 20.9760453,4.1518981 21.7682927,5.18477355 L21.7682927,3.10862447e-14 L24.4374274,3.10862447e-14 L24.4374274,14.0576124 L21.7682927,14.0576124 L21.7682927,12.7719106 L21.7682927,12.7719106 Z" id="Fill-2"></path>
                    <polyline id="Fill-3" points="25.0810105 3.87779506 27.9171022 3.87779506 30.5445703 10.959573 33.1718931 3.87779506 36.0287456 3.87779506 31.9830139 14.0576124 29.1263066 14.0576124 25.0810105 3.87779506"></polyline>
                    <path d="M38.466899,8.00885663 L43.4297329,8.00885663 C43.3673055,7.03922445 42.6999129,5.75381617 40.9483159,5.75381617 C39.3011034,5.75381617 38.5921893,6.99696445 38.466899,8.00885663 Z M40.9483159,3.62511548 C43.9512195,3.62511548 45.9946283,5.90128595 45.9946283,9.23131513 L45.9946283,9.82134101 L38.5085656,9.82134101 C38.6753775,11.1071895 39.6971545,12.181738 41.4070848,12.181738 C42.3455285,12.181738 43.4506388,11.8024252 44.0971254,11.170286 L45.2650987,12.8985439 C44.2431765,13.8470461 42.679007,14.3104387 41.1152729,14.3104387 C38.0499419,14.3104387 35.7353368,12.223998 35.7353368,8.95735882 C35.7353368,6.00649574 37.8831301,3.62511548 40.9483159,3.62511548 L40.9483159,3.62511548 Z" id="Fill-4"></path>
                    <path d="M53.8755807,7.90350011 C53.8755807,6.49145857 53.1457607,6.00649574 52.0197445,6.00649574 C50.9769164,6.00649574 50.1637631,6.59666835 49.7259001,7.20797097 L49.7259001,14.0576124 L47.0775261,14.0576124 L47.0775261,3.87779506 L49.7259001,3.87779506 L49.7259001,5.20561008 C50.3723868,4.42600115 51.6027875,3.62511548 53.25,3.62511548 C55.4602207,3.62511548 56.5239547,4.88968724 56.5239547,6.87091814 L56.5239547,14.0576124 L53.8755807,14.0576124 L53.8755807,7.90350011" id="Fill-5"></path>
                    <path d="M58.8369628,11.5286156 L58.8369628,6.21735552 L57.1689895,6.21735552 L57.1689895,3.87779506 L58.8369628,3.87779506 L58.8369628,1.09597197 L61.5060976,1.09597197 L61.5060976,3.87779506 L63.5496516,3.87779506 L63.5496516,6.21735552 L61.5060976,6.21735552 L61.5060976,10.8118097 C61.5060976,11.4442423 61.8398664,11.9290584 62.4237805,11.9290584 C62.8199768,11.9290584 63.1952671,11.7814419 63.3410279,11.6339721 L63.904036,13.6573163 C63.5079849,14.0156458 62.7990708,14.3104387 61.6938153,14.3104387 C59.8381243,14.3104387 58.8369628,13.3409532 58.8369628,11.5286156" id="Fill-6"></path>
                    <polyline id="Fill-7" points="76.5397793 8.15647316 69.9713995 8.15647316 69.9713995 14.0576124 67.0101626 14.0576124 67.0101626 1.27009514e-13 69.9713995 1.27009514e-13 69.9713995 5.52197312 76.5397793 5.52197312 76.5397793 1.27009514e-13 79.5219222 1.27009514e-13 79.5219222 14.0576124 76.5397793 14.0576124 76.5397793 8.15647316"></polyline>
                    <path d="M83.4400407,8.00885663 L88.4028746,8.00885663 C88.3405923,7.03922445 87.6730546,5.75381617 85.9216028,5.75381617 C84.2739547,5.75381617 83.565331,6.99696445 83.4400407,8.00885663 Z M85.9216028,3.62511548 C88.9243612,3.62511548 90.9676249,5.90128595 90.9676249,9.23131513 L90.9676249,9.82134101 L83.4817073,9.82134101 C83.6485192,11.1071895 84.6705865,12.181738 86.3800813,12.181738 C87.318525,12.181738 88.4237805,11.8024252 89.0704123,11.170286 L90.2380952,12.8985439 C89.2166086,13.8470461 87.6522938,14.3104387 86.0884146,14.3104387 C83.0230836,14.3104387 80.7084785,12.223998 80.7084785,8.95735882 C80.7084785,6.00649574 82.8561266,3.62511548 85.9216028,3.62511548 L85.9216028,3.62511548 Z" id="Fill-8"></path>
                    <path d="M99.3725319,7.18669423 C98.9134727,6.51244183 97.9756098,6.02762574 97.0786876,6.02762574 C95.5772358,6.02762574 94.5344077,7.20797097 94.5344077,8.97848882 C94.5344077,10.7277299 95.5772358,11.9290584 97.0786876,11.9290584 C97.9756098,11.9290584 98.9134727,11.4442423 99.3725319,10.7698432 L99.3725319,7.18669423 Z M99.3725319,12.7719106 C98.5801394,13.7626728 97.4748839,14.3104387 96.2652439,14.3104387 C93.7212544,14.3104387 91.8028455,12.3714678 91.8028455,8.97848882 C91.8028455,5.64816617 93.7004936,3.62511548 96.2652439,3.62511548 C97.4541231,3.62511548 98.5801394,4.1518981 99.3725319,5.18477355 L99.3725319,3.87779506 L102.041667,3.87779506 L102.041667,14.0576124 L99.3725319,14.0576124 L99.3725319,12.7719106 L99.3725319,12.7719106 Z" id="Fill-9"></path>
                    <polygon id="Fill-10" points="103.833479 14.0576124 106.481852 14.0576124 106.481852 1.27009514e-13 103.833479 1.27009514e-13"></polygon>
                    <path d="M109.212398,11.5286156 L109.212398,6.21735552 L107.54457,6.21735552 L107.54457,3.87779506 L109.212398,3.87779506 L109.212398,1.09597197 L111.881533,1.09597197 L111.881533,3.87779506 L113.925232,3.87779506 L113.925232,6.21735552 L111.881533,6.21735552 L111.881533,10.8118097 C111.881533,11.4442423 112.215302,11.9290584 112.799506,11.9290584 C113.195267,11.9290584 113.570703,11.7814419 113.716754,11.6339721 L114.279762,13.6573163 C113.883566,14.0156458 113.174942,14.3104387 112.069251,14.3104387 C110.213705,14.3104387 109.212398,13.3409532 109.212398,11.5286156" id="Fill-11"></path>
                    <path d="M122.140099,7.86138685 C122.140099,6.44919857 121.410714,6.00649574 120.263502,6.00649574 C119.241725,6.00649574 118.428717,6.59666835 117.969657,7.20797097 L117.969657,14.0576124 L115.321719,14.0576124 L115.321719,1.27009514e-13 L117.969657,1.27009514e-13 L117.969657,5.20561008 C118.616289,4.42600115 119.867596,3.62511548 121.514808,3.62511548 C123.725174,3.62511548 124.788473,4.84742724 124.788473,6.82865814 L124.788473,14.0576124 L122.140099,14.0576124 L122.140099,7.86138685" id="Fill-12"></path>
                </g>
            </g>
        </g>
    </g>
</svg>