<svg xmlns="http://www.w3.org/2000/svg" viewBox="0 0 135 32.76"><title>Asset 1</title><polygon points="54.73 32.69 54.73 30.54 51.96 30.54 51.96 32.69 50.73 32.69 50.73 27.29 51.96 27.29 51.96 29.6 54.73 29.6 54.73 27.29 55.96 27.29 55.96 32.69 54.73 32.69" style="fill:#a2988a"/><polygon points="57.63 32.69 57.63 27.29 62.21 27.29 62.21 28.18 58.84 28.18 58.84 29.59 61.72 29.59 61.72 30.44 58.85 30.44 58.85 31.8 62.3 31.8 62.3 32.69 57.63 32.69" style="fill:#a2988a"/><path d="M68.39,32.69l-.54-1.2H65.23l-.56,1.2H63.51l2.61-5.42h1l2.5,5.42ZM66.56,28.6h0l-.94,2h1.86Z" style="fill:#a2988a"/><polygon points="70.88 32.69 70.87 27.29 72.09 27.29 72.09 31.75 75.64 31.75 75.64 32.69 70.88 32.69" style="fill:#a2988a"/><polygon points="78.72 28.18 78.72 32.69 77.5 32.69 77.49 28.19 75.3 28.18 75.29 27.29 80.91 27.29 80.91 28.18 78.72 28.18" style="fill:#a2988a"/><polygon points="86.1 32.69 86.1 30.54 83.33 30.54 83.33 32.69 82.11 32.69 82.11 27.29 83.34 27.29 83.33 29.6 86.1 29.6 86.1 27.29 87.33 27.29 87.33 32.69 86.1 32.69" style="fill:#a2988a"/><path d="M94.39,32.76A4.43,4.43,0,0,1,91.92,32l.37-.86a4.9,4.9,0,0,0,2,.66c.65,0,1.61-.19,1.61-.79s-.76-.61-1.68-.7c-1.11-.12-2.36-.29-2.36-1.54s1.58-1.66,2.58-1.66a4.76,4.76,0,0,1,2.46.69l-.35.78a4.62,4.62,0,0,0-2.12-.55c-1.09,0-1.44.37-1.44.69,0,.55,1.17.57,1.56.6,1.06.09,2.5.29,2.5,1.69s-1.6,1.71-2.67,1.71" style="fill:#a2988a"/><polygon points="101.53 30.65 101.53 32.69 100.31 32.69 100.31 30.6 98.13 27.29 99.41 27.29 101.02 29.75 102.55 27.29 103.73 27.29 101.53 30.65" style="fill:#a2988a"/><path d="M107.31,32.76a4.42,4.42,0,0,1-2.47-.73l.37-.86a4.89,4.89,0,0,0,2,.66c.65,0,1.61-.19,1.61-.79s-.76-.61-1.68-.7c-1.11-.12-2.36-.29-2.36-1.54s1.58-1.66,2.58-1.66a4.76,4.76,0,0,1,2.46.69l-.35.78a4.61,4.61,0,0,0-2.12-.55c-1.09,0-1.44.37-1.44.69,0,.55,1.17.57,1.56.6,1.06.09,2.5.29,2.5,1.69s-1.6,1.71-2.67,1.71" style="fill:#a2988a"/><polygon points="114.4 28.18 114.4 32.69 113.18 32.69 113.17 28.19 110.97 28.18 110.97 27.29 116.59 27.29 116.59 28.18 114.4 28.18" style="fill:#a2988a"/><polygon points="117.9 32.69 117.9 27.29 122.48 27.29 122.48 28.18 119.12 28.18 119.12 29.59 121.99 29.59 121.99 30.44 119.12 30.44 119.12 31.8 122.57 31.8 122.57 32.69 117.9 32.69" style="fill:#a2988a"/><polygon points="130.25 32.69 129.88 29.51 129.86 29.5 127.72 32.6 127.35 32.6 125.46 29.5 125.44 29.51 125.1 32.69 124.02 32.69 124.46 27.29 125.36 27.29 127.63 31.01 127.63 31.01 130.19 27.29 130.88 27.29 131.33 32.69 130.25 32.69" style="fill:#a2988a"/><path d="M41.79,22.58h2.64l-2.36-7.36H34.22l-3,7.36h3.21v.88H27.28v-.88c2.22,0,3-.39,3.42-1.59L39,0h.81l7.29,20.22c.78,2.15,1.16,2.36,3.66,2.36v.88H41.79ZM34.6,14.16h7.08L38.23,4.72Z" style="fill:#002b54"/><path d="M59.93,21.91c-.88.67-2.85,1.9-4.37,1.9a6.24,6.24,0,0,1-6.17-6.69C49.5,12.4,53,9.48,56.26,9.51a6.41,6.41,0,0,1,3.66,1.2V2.11c0-.88-.32-1.23-1-1.23H57.64V0h5.11V22.62h2.11v.85H59.93ZM56.58,10.43c-3,0-4.16,3.52-4.16,6.06,0,2.71,1.23,5.67,4.3,5.67a4.83,4.83,0,0,0,3.21-1.37v-9c-1.16-.77-1.76-1.41-3.35-1.41" style="fill:#002b54"/><path d="M71.66,24.06H71L66.2,12.19c-.46-1.13-1-1.37-2.43-1.37V10h6.9v.85H68.73L72.18,20l3.63-9.16h-2V10H78.7v.85c-1.27,0-1.9.28-2.32,1.37Z" style="fill:#002b54"/><path d="M80,15.82c-.14,2.89,1.45,6.83,4.47,6.83,1.73,0,2.82-.71,4-2.32l.63.42a6.21,6.21,0,0,1-5.11,3.06c-4.26,0-6.94-3.13-6.94-7.15,0-3.63,2.5-7,6.48-7,3.49,0,5.67,2.36,5.67,5.92H80Zm0-1.13h6.52c-.21-1.8-.81-4.16-2.93-4.16-2.61,0-3.49,1.9-3.59,4.16" style="fill:#002b54"/><path d="M97.8,22.62H99c.46,0,.7-.18.7-1v-6.8c0-2-.07-3.67-2.4-3.67-.7,0-2.19,1-3.38,2v9.48h1.48v.85H89.27v-.85h1c.74,0,.91-.28.91-.85V12.37c0-1-.17-1.55-1-1.55h-.92V10H94v2c1.2-1,3.21-2.29,4.65-2.29,3.1,0,3.95,1.87,3.95,4.9v8h1.66v.85H97.8Z" style="fill:#002b54"/><path d="M104.59,20.26V7l2.82-1V10h3.67v.85h-2.93a.87.87,0,0,0-.74.85v8.49c0,1.69.11,2.64,1.34,2.64a2.46,2.46,0,0,0,1.62-1l.6.49a3.37,3.37,0,0,1-2.75,1.41c-2.68,0-3.63-1.13-3.63-3.49" style="fill:#002b54"/><path d="M111.5,22.58h1c.53,0,.81-.21.81-1V12.37c0-.92-.14-1.55-.92-1.55H110.8V10h5.32V22.58h1.66v.88H111.5ZM113,4.69a1.62,1.62,0,0,1,1.62-1.62,1.65,1.65,0,0,1,1.66,1.62,1.65,1.65,0,0,1-1.66,1.62A1.62,1.62,0,0,1,113,4.69" style="fill:#002b54"/><path d="M118.58,22.86V19.69h.88c.11,2.32.74,3.21,3,3.21,1.51,0,2.25-.67,2.47-1.73.21-1.23-.92-2.18-1.8-2.82-.39-.28-.74-.53-1.13-.77-1.73-1.2-3.31-2.33-3.31-4A4,4,0,0,1,123,9.62a5.44,5.44,0,0,1,3.49,1.09v2.71h-.92A2.61,2.61,0,0,0,123,10.6c-1.55,0-2.36.63-2.36,1.59,0,.42.49,1,1.3,1.59s1.76,1.2,2.57,1.76c2,1.41,2.89,2.11,2.89,4.12,0,2.92-2.82,4.19-4.83,4.23a10.64,10.64,0,0,1-3.95-1" style="fill:#002b54"/><path d="M128.52,20.26V7l2.82-1V10H135v.85h-2.92a.88.88,0,0,0-.74.85v8.49c0,1.69.11,2.64,1.34,2.64a2.45,2.45,0,0,0,1.62-1l.6.49a3.38,3.38,0,0,1-2.75,1.41c-2.68,0-3.63-1.13-3.63-3.49" style="fill:#002b54"/><rect x="18.33" y="0.05" width="5.09" height="5.09" rx="0.51" ry="0.51" style="fill:#002b54"/><rect x="6.11" y="6.16" width="5.09" height="5.09" rx="0.51" ry="0.51" style="fill:#a2988a"/><rect x="12.22" y="6.16" width="5.09" height="5.09" rx="0.51" ry="0.51" style="fill:#002b54"/><rect x="18.33" y="6.16" width="5.09" height="5.09" rx="0.51" ry="0.51" style="fill:#002b54"/><rect x="24.44" y="6.16" width="5.09" height="5.09" rx="0.51" ry="0.51" style="fill:#002b54"/><rect y="12.27" width="5.09" height="5.09" rx="0.51" ry="0.51" style="fill:#a2988a"/><rect x="6.11" y="12.27" width="5.09" height="5.09" rx="0.51" ry="0.51" style="fill:#a2988a"/><rect x="12.22" y="12.27" width="5.09" height="5.09" rx="0.51" ry="0.51" style="fill:#a2988a"/><rect x="18.33" y="12.27" width="5.09" height="5.09" rx="0.51" ry="0.51" style="fill:#002b54"/><rect x="6.11" y="18.38" width="5.09" height="5.09" rx="0.51" ry="0.51" style="fill:#a2988a"/><rect x="18.33" y="18.38" width="5.09" height="5.09" rx="0.51" ry="0.51" style="fill:#002b54"/></svg>