<?xml version="1.0" encoding="utf-8"?>
<!-- Generator: Adobe Illustrator 22.1.0, SVG Export Plug-In . SVG Version: 6.00 Build 0)  -->
<svg version="1.1" xmlns="http://www.w3.org/2000/svg" xmlns:xlink="http://www.w3.org/1999/xlink" x="0px" y="0px"
	 viewBox="0 0 921.8 257.6" style="enable-background:new 0 0 921.8 257.6;" xml:space="preserve">
<style type="text/css">
	.st0{fill:#9098A1;}
	.st1{fill:#005C95;}
	.st2{fill:#1BA8E1;}
	.st3{fill:#82C342;}
	.st4{fill:#005D56;}
	.st5{fill:#FFFFFF;}
	.st6{display:none;}
	.st7{display:inline;fill:#EC008C;}
</style>
<g id="Layer_1">
</g>
<g id="Layer_3">
	<g>
		<path class="st5" d="M92.3,214.1H49.5l-6,16.5H21.1l37.1-95.8h25.6l36.9,95.8H98.3L92.3,214.1z M55,196.4h31.7l-15.8-44L55,196.4z
			"/>
		<path class="st5" d="M171,221.8c-5.5,6.8-13.1,10.5-21.4,10.5c-17.5,0-30.7-13.2-30.7-36.3c0-22.7,13.1-36.5,30.7-36.5
			c8.2,0,15.9,3.6,21.4,10.6v-35.3h18.4v95.8H171V221.8z M171,183.6c-3.2-4.6-9.6-7.9-15.8-7.9c-10.3,0-17.5,8.2-17.5,20.3
			c0,11.9,7.2,20.1,17.5,20.1c6.2,0,12.6-3.3,15.8-7.9V183.6z"/>
		<polygon class="st5" points="193.8,161.2 213.4,161.2 231.5,209.5 249.6,161.2 269.2,161.2 241.4,230.6 221.7,230.6 		"/>
		<path class="st5" d="M303.1,159.5c20.7,0,34.8,15.5,34.8,38.2v4h-51.6c1.1,8.8,8.2,16.1,20,16.1c6.5,0,14.1-2.6,18.5-6.9l8,11.8
			c-7,6.5-17.8,9.6-28.6,9.6c-21.1,0-37.1-14.2-37.1-36.5C267.2,175.7,282,159.5,303.1,159.5z M286,189.4h34.2
			c-0.4-6.6-5-15.4-17.1-15.4C291.8,174,286.9,182.5,286,189.4z"/>
		<path class="st5" d="M392.2,188.7c0-9.6-5-12.9-12.8-12.9c-7.2,0-12.8,4-15.8,8.2v46.7h-18.2v-69.4h18.2v9
			c4.5-5.3,12.9-10.8,24.3-10.8c15.2,0,22.6,8.6,22.6,22.1v49h-18.2V188.7z"/>
		<path class="st5" d="M426.3,213.4v-36.2h-11.5v-15.9h11.5v-19h18.4v19h14.1v15.9h-14.1v31.3c0,4.3,2.3,7.6,6.3,7.6
			c2.7,0,5.3-1,6.3-2l3.9,13.8c-2.7,2.4-7.6,4.5-15.2,4.5C433.2,232.3,426.3,225.7,426.3,213.4z"/>
		<polygon class="st5" points="548.3,190.4 503,190.4 503,230.6 482.6,230.6 482.6,134.8 503,134.8 503,172.4 548.3,172.4 
			548.3,134.8 568.8,134.8 568.8,230.6 548.3,230.6 		"/>
		<path class="st5" d="M612.9,159.5c20.7,0,34.8,15.5,34.8,38.2v4h-51.6c1.1,8.8,8.2,16.1,20,16.1c6.5,0,14.1-2.6,18.5-6.9l8,11.8
			c-7,6.5-17.8,9.6-28.6,9.6c-21.1,0-37.1-14.2-37.1-36.5C577,175.7,591.8,159.5,612.9,159.5z M595.8,189.4H630
			c-0.4-6.6-5-15.4-17.1-15.4C601.6,174,596.7,182.5,595.8,189.4z"/>
		<path class="st5" d="M705.6,221.8c-5.5,6.8-13.1,10.5-21.4,10.5c-17.5,0-30.7-13.2-30.7-36.3c0-22.7,13.1-36.5,30.7-36.5
			c8.2,0,15.9,3.6,21.4,10.6v-8.9h18.4v69.4h-18.4V221.8z M705.6,183.8c-3.2-4.6-9.6-7.9-15.8-7.9c-10.3,0-17.5,8-17.5,20.1
			c0,11.9,7.2,20.1,17.5,20.1c6.2,0,12.6-3.3,15.8-7.9V183.8z"/>
		<rect x="736.3" y="134.8" class="st5" width="18.2" height="95.8"/>
		<path class="st5" d="M773.3,213.4v-36.2h-11.5v-15.9h11.5v-19h18.4v19h14.1v15.9h-14.1v31.3c0,4.3,2.3,7.6,6.3,7.6
			c2.7,0,5.3-1,6.3-2l3.9,13.8c-2.7,2.4-7.6,4.5-15.2,4.5C780.2,232.3,773.3,225.7,773.3,213.4z"/>
		<path class="st5" d="M862.4,188.4c0-9.6-5-12.6-12.9-12.6c-7,0-12.6,4-15.8,8.2v46.7h-18.2v-95.8h18.2v35.5
			c4.5-5.3,13.1-10.8,24.4-10.8c15.2,0,22.5,8.3,22.5,21.8v49.3h-18.2V188.4z"/>
		<path class="st5" d="M655.4,61.4l5.6,35.7l-25.3,4l-5.6-35.7L655.4,61.4 M658.3,57.4l-32.2,5.1l6.7,42.6l32.2-5.1L658.3,57.4z"/>
		<path class="st5" d="M640.1,72.8l-27.3,4.3c-11.6,1.8-22.6-6.1-24.4-17.7L585,38.6c-0.6-3.6,1.9-7,5.5-7.5l20.8-3.3
			c11.6-1.8,22.6,6.1,24.4,17.7L640.1,72.8z"/>
		<path class="st5" d="M676,67.1l-27.3,4.3l-4.3-27.3c-1.8-11.6,6.1-22.6,17.7-24.4l20.8-3.3c3.6-0.6,7,1.9,7.5,5.5l3.3,20.8
			C695.6,54.3,687.7,65.3,676,67.1z"/>
		<path class="st5" d="M630,123.9l-16.5,2.6c-3.2,0.5-6.2-1.7-6.7-4.9l-2.9-18.6c-1.4-8.6,4.5-16.7,13.2-18.1l24.4-3.9l3.5,22.3
			C646.4,113.2,639.8,122.4,630,123.9z"/>
		<path class="st5" d="M690.6,114.4l-16.5,2.6c-9.8,1.6-19-5.1-20.6-14.9L650,79.7l24.4-3.9c8.6-1.4,16.7,4.5,18.1,13.2l2.9,18.6
			C696,110.8,693.8,113.8,690.6,114.4z"/>
	</g>
</g>
<g id="Layer_2" class="st6">
</g>
</svg>
