<?xml version="1.0" encoding="UTF-8"?>
<svg width="24px" height="24px" viewBox="0 0 24 24" version="1.1" xmlns="http://www.w3.org/2000/svg" xmlns:xlink="http://www.w3.org/1999/xlink">
    <!-- Generator: sketchtool 53.1 (72631) - https://sketchapp.com -->
    <title>C9F74899-826C-4BA3-8EB9-1A662D1FF772@1x</title>
    <desc>Created with sketchtool.</desc>
    <g id="menus" stroke="none" stroke-width="1" fill="none" fill-rule="evenodd">
        <g id="Profile-Picker-v2---main-account" transform="translate(-16.000000, -236.000000)" fill="#000000">
            <g id="Icons-/-16-/-Add" transform="translate(16.000000, 236.000000)">
                <path d="M11.25,11.25 L11.25,6.75 C11.25,6.33578644 11.5857864,6 12,6 C12.4142136,6 12.75,6.33578644 12.75,6.75 L12.75,11.25 L17.25,11.25 C17.6642136,11.25 18,11.5857864 18,12 C18,12.4142136 17.6642136,12.75 17.25,12.75 L12.75,12.75 L12.75,17.25 C12.75,17.6642136 12.4142136,18 12,18 C11.5857864,18 11.25,17.6642136 11.25,17.25 L11.25,12.75 L6.75,12.75 C6.33578644,12.75 6,12.4142136 6,12 C6,11.5857864 6.33578644,11.25 6.75,11.25 L11.25,11.25 Z M12,22.5 C17.7989899,22.5 22.5,17.7989899 22.5,12 C22.5,6.20101013 17.7989899,1.5 12,1.5 C6.20101013,1.5 1.5,6.20101013 1.5,12 C1.5,17.7989899 6.20101013,22.5 12,22.5 Z M12,24 C5.372583,24 0,18.627417 0,12 C0,5.372583 5.372583,0 12,0 C18.627417,0 24,5.372583 24,12 C24,18.627417 18.627417,24 12,24 Z" id="Combined-Shape"></path>
            </g>
        </g>
    </g>
</svg>