<?xml version="1.0" encoding="UTF-8"?>
<svg width="20px" height="22px" viewBox="0 0 20 22" version="1.1" xmlns="http://www.w3.org/2000/svg" xmlns:xlink="http://www.w3.org/1999/xlink">
    <!-- Generator: Sketch 52.5 (67469) - http://www.bohemiancoding.com/sketch -->
    <title>appointments</title>
    <desc>Created with Sketch.</desc>
    <g id="Page-1" stroke="none" stroke-width="1" fill="none" fill-rule="evenodd">
        <g id="appointments" fill="#075080" fill-rule="nonzero">
            <path d="M6.9,17.8 C6.9,17 7.3,16.3 7.8,15.8 C8.4,15.2 9.1,14.9 10,14.9 C10.8,14.9 11.6,15.2 12.2,15.8 C12.7,16.3 13.1,17.1 13.1,17.8 L6.9,17.8 Z M6.3,19 L13.7,19 C13.7,19 13.9,19 14.1,18.8 C14.3,18.6 14.3,18.4 14.3,18.4 L14.3,17.9 C14.3,15.6 12.4,13.6 10,13.6 C7.6,13.6 5.7,15.5 5.7,17.9 L5.7,18.4 C5.7,18.4 5.7,18.7 5.9,18.8 C6.1,19 6.3,19 6.3,19 Z" id="Fill-1"></path>
            <path d="M8.7,10.8 C8.7,10.1 9.3,9.5 10,9.5 C10.7,9.5 11.3,10.1 11.3,10.8 C11.3,11.5 10.7,12.1 10,12.1 C9.3,12.1 8.7,11.5 8.7,10.8 M10,13.3 C11.4,13.3 12.5,12.2 12.5,10.8 C12.5,9.4 11.4,8.2 10,8.2 C8.6,8.2 7.5,9.3 7.5,10.7 C7.5,12.1 8.6,13.3 10,13.3" id="Fill-3"></path>
            <g id="Group-7" transform="translate(0.000000, 0.073764)">
                <path d="M6.7,4.2 C7,4.2 7.3,3.9 7.3,3.6 L7.3,3.1 L12.7,3.1 L12.7,3.6 C12.7,3.9 13,4.2 13.3,4.2 C13.6,4.2 13.9,3.9 13.9,3.6 L13.9,3.1 L15.6,3.1 C16.4,3.1 17.1,3.4 17.7,3.9 C18.2,4.5 18.5,5.2 18.5,6 L1.5,6 C1.5,5.2 1.8,4.5 2.4,3.9 C2.9,3.4 3.7,3 4.5,3 L6.2,3 L6.2,3.5 C6.1,3.9 6.4,4.2 6.7,4.2 Z M18.4,7.3 L18.4,17.2 C18.4,18 18.1,18.7 17.6,19.3 C17,19.7 16.3,20 15.5,20 L4.5,20 C3.7,20 3,19.7 2.4,19.2 C1.9,18.7 1.5,17.9 1.5,17.1 L1.5,7.3 L18.4,7.3 Z M15.5,1.9 L13.8,1.9 L13.8,1.2 C13.8,0.9 13.5,0.6 13.2,0.6 C12.9,0.6 12.6,0.9 12.6,1.2 L12.6,1.9 L7.3,1.9 L7.3,1.2 C7.3,0.9 7,0.6 6.7,0.6 C6.4,0.6 6.1,0.9 6.1,1.2 L6.1,1.9 L4.5,1.9 C2.2,1.9 0.3,3.8 0.3,6 L0.3,17.1 C0.3,19.4 2.1,21.2 4.4,21.2 L15.5,21.2 C17.8,21.2 19.6,19.4 19.6,17.1 L19.6,6 C19.7,3.8 17.8,1.9 15.5,1.9 Z" id="Fill-5"></path>
            </g>
        </g>
    </g>
</svg>