<?xml version="1.0" encoding="UTF-8"?>
<svg width="18px" height="25px" viewBox="0 0 18 25" version="1.1" xmlns="http://www.w3.org/2000/svg" xmlns:xlink="http://www.w3.org/1999/xlink">
    <!-- Generator: sketchtool 53.1 (72631) - https://sketchapp.com -->
    <title>0343FE1F-6905-45C2-B0D9-FD792ED96411@1x</title>
    <desc>Created with sketchtool.</desc>
    <g id="AH-Health-Records" stroke="none" stroke-width="1" fill="none" fill-rule="evenodd">
        <g id="HW-HR-all-records--empty" transform="translate(-449.000000, -87.000000)" fill="#075080">
            <g id="nav">
                <g id="Group">
                    <g id="Icons-/-16-/-Bill-Pay" transform="translate(446.000000, 87.690476)">
                        <path d="M19.4791248,7.5 L15.7509375,7.5 C14.5082968,7.5 13.5009375,6.49264069 13.5009375,5.25 L13.5009375,1.5 L6,1.5 C5.17157288,1.5 4.5,2.17157288 4.5,3 L4.5,21 C4.5,21.8284271 5.17157288,22.5 6,22.5 L17.997911,22.5 C18.8284249,22.4988456 19.4990625,21.8263388 19.4979096,20.9979125 L19.4791248,7.5 Z M19.4770373,6 L19.4770312,5.99565231 L15.0014062,1.5 L15.0009375,5.25 C15.0009375,5.66421356 15.3367239,6 15.7509375,6 L19.4770373,6 Z M6,0 L15.0014062,0 C15.4003915,0 15.7829369,0.158956005 16.0644316,0.441710263 L20.5400566,4.93736257 C20.8194037,5.21795969 20.9764788,5.59762382 20.9770298,5.99356479 L20.9979081,20.995825 C21.0002139,22.6526776 19.6589387,23.9976913 18.0020861,23.9999971 L6,24 C4.34314575,24 3,22.6568542 3,21 L3,3 C3,1.34314575 4.34314575,0 6,0 Z M11.1607031,13.215 L13.2700781,13.8478125 C14.1419531,14.109375 14.7503906,14.945625 14.7503906,15.8817187 C14.7503906,16.6391079 14.3629574,17.302537 13.7820683,17.6756173 C13.4810703,17.8689355 13.1281299,17.9842957 12.7502344,17.994375 L12.7502344,18.75 C12.7502344,19.1642136 12.4144479,19.5 12.0002344,19.5 C11.5860208,19.5 11.2502344,19.1642136 11.2502344,18.75 L11.2502344,17.9864062 C10.7210156,17.9592187 10.2063281,17.7745312 9.77976563,17.454375 C9.59695313,17.3170312 9.58757813,17.0432812 9.75304688,16.8853125 L10.3038281,16.3598437 C10.4336719,16.2360937 10.6267969,16.2304687 10.7786719,16.325625 C10.9596094,16.4395312 11.4425354,16.5935898 11.8204422,16.6360245 C12.198349,16.6784592 12.4490552,16.6784592 12.7497656,16.571434 C13.0504761,16.4644089 13.2503906,16.2225 13.2503906,15.8817187 C13.2503906,15.6028125 13.0811719,15.3576562 12.8392969,15.285 L10.7299219,14.6521875 C9.85804688,14.390625 9.24960938,13.554375 9.24960938,12.6182812 C9.24960938,11.4689062 10.1425781,10.5351562 11.2497656,10.505625 L11.2497656,9.75 C11.2497656,9.33578644 11.5855521,9 11.9997656,9 C12.4139792,9 12.7497656,9.33578644 12.7497656,9.75 L12.7497656,10.5135937 C13.2789844,10.5407812 13.7936719,10.7254687 14.2202344,11.045625 C14.4030469,11.1829687 14.4124219,11.4567187 14.2469531,11.6146875 L13.6961719,12.1401562 C13.5663281,12.2639062 13.3732031,12.2695312 13.2213281,12.174375 C13.0403906,12.0604687 12.6936239,11.9265561 12.2893256,11.8929793 C11.8850274,11.8594025 11.5086461,11.8594025 11.2497656,11.9555183 C10.9908851,12.0516341 10.7496094,12.2775 10.7496094,12.6182812 C10.7496094,12.8971875 10.9188281,13.1423437 11.1607031,13.215 Z" id="Combined-Shape"></path>
                    </g>
                </g>
            </g>
        </g>
    </g>
</svg>