<?xml version="1.0" encoding="utf-8"?>
<!-- Generator: Adobe Illustrator 22.1.0, SVG Export Plug-In . SVG Version: 6.00 Build 0)  -->
<svg version="1.1" id="Layer_1" xmlns="http://www.w3.org/2000/svg" xmlns:xlink="http://www.w3.org/1999/xlink" x="0px" y="0px"
	 viewBox="0 0 30 30" style="enable-background:new 0 0 30 30;" xml:space="preserve">
<style type="text/css">
	.st0{fill:#0080AD;}
	.st1{filter:url(#Adobe_OpacityMaskFilter);}
	.st2{fill:#FFFFFF;}
	.st3{mask:url(#mask-2_1_);fill:#0080AD;}
</style>
<title>Group 6</title>
<desc>Created with Sketch.</desc>
<g id="Health-Records">
	<g id="HW-HR-all-records" transform="translate(-777.000000, -268.000000)">
		<g id="Group-4" transform="translate(777.000000, 267.000000)">
			<g id="Group-6">
				<path id="Fill-1" class="st0" d="M20.1,10.1c-0.3-0.3-0.7-0.3-1,0l-4.5,4.7l-2.4-3.3c-0.2-0.3-0.6-0.4-0.9-0.2
					c-0.3,0.2-0.4,0.6-0.2,0.9l2.8,4c0.1,0.2,0.3,0.3,0.5,0.3c0,0,0,0,0,0c0.2,0,0.4-0.1,0.5-0.2l5.1-5.3
					C20.3,10.8,20.3,10.4,20.1,10.1"/>
				<g id="Group-5" transform="translate(0.000000, 1.004848)">
					<g id="Clip-4">
					</g>
					<defs>
						<filter id="Adobe_OpacityMaskFilter" filterUnits="userSpaceOnUse" x="2.4" y="2.7" width="25.5" height="24.9">
							<feColorMatrix  type="matrix" values="1 0 0 0 0  0 1 0 0 0  0 0 1 0 0  0 0 0 1 0"/>
						</filter>
					</defs>
					<mask maskUnits="userSpaceOnUse" x="2.4" y="2.7" width="25.5" height="24.9" id="mask-2_1_">
						<g class="st1">
							<polygon id="path-1_1_" class="st2" points="2.4,2.7 28,2.7 28,27.6 2.4,27.6 							"/>
						</g>
					</mask>
					<path id="Fill-3" class="st3" d="M25.9,22.9l-3.1,3.2c-0.3,0.3-0.7,0.3-1,0l-3.1-3.2c-0.5-0.5-0.7-1.1-0.7-1.8
						c0-0.7,0.3-1.3,0.9-1.7c0.4-0.4,1-0.5,1.6-0.3c0.4,0.1,0.9,0.4,1.2,1.2c0.1,0.3,0.3,0.5,0.6,0.5c0.3,0,0.5-0.2,0.7-0.4
						c0.3-0.7,0.8-1.2,1.3-1.3c0.5-0.1,1,0,1.4,0.4c0.5,0.4,0.8,1.1,0.9,1.7C26.6,21.7,26.4,22.4,25.9,22.9 M14.5,25.5
						c-5.9,0-10.7-4.8-10.7-10.7c0-5.9,4.8-10.7,10.7-10.7s10.7,4.8,10.7,10.7c0,1-0.1,1.9-0.4,2.8c-0.3,0-0.6,0-0.9,0.1
						c-0.6,0.1-1.2,0.5-1.6,1c-0.4-0.5-0.9-0.8-1.5-1c-1-0.3-2.1,0-2.8,0.6c-0.8,0.7-1.3,1.6-1.3,2.7c0,1,0.3,2.1,1.1,2.8l0.8,0.8
						C17.3,25.2,15.9,25.5,14.5,25.5 M26.6,18.3c-0.1-0.1-0.3-0.2-0.4-0.3c0.3-1,0.4-2.1,0.4-3.2c0-6.7-5.4-12.1-12.1-12.1
						C7.8,2.7,2.4,8.1,2.4,14.8s5.4,12.1,12.1,12.1c1.8,0,3.5-0.4,5.1-1.1l1.2,1.3h0c0.4,0.4,0.9,0.6,1.5,0.6c0.6,0,1.1-0.2,1.5-0.6
						l3.1-3.2c0.7-0.7,1.1-1.8,1.1-2.8C27.9,19.9,27.4,19,26.6,18.3"/>
				</g>
			</g>
		</g>
	</g>
</g>
</svg>
