<?xml version="1.0" encoding="utf-8"?>
<!-- Generator: Adobe Illustrator 22.1.0, SVG Export Plug-In . SVG Version: 6.00 Build 0)  -->
<svg version="1.1" id="Layer_1" xmlns="http://www.w3.org/2000/svg" xmlns:xlink="http://www.w3.org/1999/xlink" x="0px" y="0px"
	 viewBox="0 0 30 30" style="enable-background:new 0 0 30 30;" xml:space="preserve">
<style type="text/css">
	.st0{filter:url(#Adobe_OpacityMaskFilter);}
	.st1{fill:#FFFFFF;}
	.st2{mask:url(#mask-2_1_);fill:#004343;}
	.st3{filter:url(#Adobe_OpacityMaskFilter_1_);}
	.st4{mask:url(#mask-4_1_);fill:#004343;}
	.st5{filter:url(#Adobe_OpacityMaskFilter_2_);}
	.st6{mask:url(#mask-4_2_);fill:#004343;}
	.st7{filter:url(#Adobe_OpacityMaskFilter_3_);}
	.st8{mask:url(#mask-4_3_);fill:#004343;}
	.st9{filter:url(#Adobe_OpacityMaskFilter_4_);}
	.st10{mask:url(#mask-4_4_);fill:#004343;}
	.st11{filter:url(#Adobe_OpacityMaskFilter_5_);}
	.st12{mask:url(#mask-4_5_);fill:#004343;}
</style>
<title>Group 10</title>
<desc>Created with Sketch.</desc>
<g id="Health-Records">
	<g id="HW-HR-all-records" transform="translate(-604.000000, -269.000000)">
		<g id="Group-6" transform="translate(604.000000, 266.000000)">
			<g id="Group-10" transform="translate(0.000000, 2.000000)">
				<g id="Group-3" transform="translate(0.000000, 0.665000)">
					<g id="Clip-2">
					</g>
					<defs>
						<filter id="Adobe_OpacityMaskFilter" filterUnits="userSpaceOnUse" x="4.7" y="3.3" width="20.5" height="23.7">
							<feColorMatrix  type="matrix" values="1 0 0 0 0  0 1 0 0 0  0 0 1 0 0  0 0 0 1 0"/>
						</filter>
					</defs>
					<mask maskUnits="userSpaceOnUse" x="4.7" y="3.3" width="20.5" height="23.7" id="mask-2_1_">
						<g class="st0">
							<polygon id="path-1_1_" class="st1" points="4.7,3.3 25.3,3.3 25.3,27 4.7,27 							"/>
						</g>
					</mask>
					<path id="Fill-1" class="st2" d="M22.6,3.3H7.4C5.9,3.3,4.7,4.5,4.7,6v18.4c0,1.5,1.2,2.6,2.6,2.6h15.2c1.5,0,2.6-1.2,2.6-2.6
						V6C25.3,4.5,24.1,3.3,22.6,3.3z M23.9,24.4c0,0.7-0.6,1.3-1.3,1.3H7.4c-0.7,0-1.3-0.6-1.3-1.3V11.7h17.8V24.4z M23.9,10.3H6.1
						V6c0-0.7,0.6-1.3,1.3-1.3h15.2c0.7,0,1.3,0.6,1.3,1.3V10.3z"/>
				</g>
				<g id="Clip-5">
				</g>
				<defs>
					<filter id="Adobe_OpacityMaskFilter_1_" filterUnits="userSpaceOnUse" x="8.1" y="14.7" width="4" height="4">
						<feColorMatrix  type="matrix" values="1 0 0 0 0  0 1 0 0 0  0 0 1 0 0  0 0 0 1 0"/>
					</filter>
				</defs>
				<mask maskUnits="userSpaceOnUse" x="8.1" y="14.7" width="4" height="4" id="mask-4_1_">
					<g class="st3">
						<polygon id="path-3_1_" class="st1" points="4.7,27.7 25.3,27.7 25.3,4 4.7,4 						"/>
					</g>
				</mask>
				<path id="Fill-4" class="st4" d="M11.1,14.7h-2c-0.5,0-1,0.4-1,1v2c0,0.5,0.4,1,1,1h2c0.5,0,1-0.4,1-1v-2
					C12.1,15.1,11.6,14.7,11.1,14.7z M10.8,17.4H9.3v-1.5h1.5V17.4z"/>
				<defs>
					<filter id="Adobe_OpacityMaskFilter_2_" filterUnits="userSpaceOnUse" x="13.2" y="14.7" width="4" height="4">
						<feColorMatrix  type="matrix" values="1 0 0 0 0  0 1 0 0 0  0 0 1 0 0  0 0 0 1 0"/>
					</filter>
				</defs>
				<mask maskUnits="userSpaceOnUse" x="13.2" y="14.7" width="4" height="4" id="mask-4_2_">
					<g class="st5">
						<polygon id="path-3_2_" class="st1" points="4.7,27.7 25.3,27.7 25.3,4 4.7,4 						"/>
					</g>
				</mask>
				<path id="Fill-6" class="st6" d="M16.2,14.7h-2c-0.5,0-1,0.4-1,1v2c0,0.5,0.4,1,1,1h2c0.5,0,1-0.4,1-1v-2
					C17.2,15.1,16.8,14.7,16.2,14.7z M15.9,17.4h-1.5v-1.5h1.5V17.4z"/>
				<defs>
					<filter id="Adobe_OpacityMaskFilter_3_" filterUnits="userSpaceOnUse" x="8.1" y="19.6" width="4" height="4">
						<feColorMatrix  type="matrix" values="1 0 0 0 0  0 1 0 0 0  0 0 1 0 0  0 0 0 1 0"/>
					</filter>
				</defs>
				<mask maskUnits="userSpaceOnUse" x="8.1" y="19.6" width="4" height="4" id="mask-4_3_">
					<g class="st7">
						<polygon id="path-3_3_" class="st1" points="4.7,27.7 25.3,27.7 25.3,4 4.7,4 						"/>
					</g>
				</mask>
				<path id="Fill-7" class="st8" d="M11.1,19.6h-2c-0.5,0-1,0.4-1,1v2c0,0.5,0.4,1,1,1h2c0.5,0,1-0.4,1-1v-2
					C12.1,20,11.6,19.6,11.1,19.6z M10.8,22.3H9.3v-1.5h1.5V22.3z"/>
				<defs>
					<filter id="Adobe_OpacityMaskFilter_4_" filterUnits="userSpaceOnUse" x="13.2" y="19.6" width="4" height="4">
						<feColorMatrix  type="matrix" values="1 0 0 0 0  0 1 0 0 0  0 0 1 0 0  0 0 0 1 0"/>
					</filter>
				</defs>
				<mask maskUnits="userSpaceOnUse" x="13.2" y="19.6" width="4" height="4" id="mask-4_4_">
					<g class="st9">
						<polygon id="path-3_4_" class="st1" points="4.7,27.7 25.3,27.7 25.3,4 4.7,4 						"/>
					</g>
				</mask>
				<path id="Fill-8" class="st10" d="M16.2,19.6h-2c-0.5,0-1,0.4-1,1v2c0,0.5,0.4,1,1,1h2c0.5,0,1-0.4,1-1v-2
					C17.2,20,16.8,19.6,16.2,19.6z M15.9,22.3h-1.5v-1.5h1.5V22.3z"/>
				<defs>
					<filter id="Adobe_OpacityMaskFilter_5_" filterUnits="userSpaceOnUse" x="18.4" y="14.7" width="4" height="8.9">
						<feColorMatrix  type="matrix" values="1 0 0 0 0  0 1 0 0 0  0 0 1 0 0  0 0 0 1 0"/>
					</filter>
				</defs>
				<mask maskUnits="userSpaceOnUse" x="18.4" y="14.7" width="4" height="8.9" id="mask-4_5_">
					<g class="st11">
						<polygon id="path-3_5_" class="st1" points="4.7,27.7 25.3,27.7 25.3,4 4.7,4 						"/>
					</g>
				</mask>
				<path id="Fill-9" class="st12" d="M21.4,14.7h-2c-0.5,0-1,0.4-1,1v7c0,0.5,0.4,1,1,1h2c0.5,0,1-0.4,1-1v-7
					C22.4,15.1,21.9,14.7,21.4,14.7z M21.1,22.3h-1.5v-6.4h1.5V22.3z"/>
			</g>
		</g>
	</g>
</g>
</svg>
