<?xml version="1.0" encoding="UTF-8"?>
<svg width="24px" height="18px" viewBox="0 0 24 18" version="1.1" xmlns="http://www.w3.org/2000/svg" xmlns:xlink="http://www.w3.org/1999/xlink">
    <!-- Generator: Sketch 52.5 (67469) - http://www.bohemiancoding.com/sketch -->
    <title>careers</title>
    <desc>Created with Sketch.</desc>
    <g id="Page-1" stroke="none" stroke-width="1" fill="none" fill-rule="evenodd">
        <g id="careers" fill="#075080" fill-rule="nonzero">
            <path d="M21,9.8 L13.8,9.8 L13.8,9 C13.8,8.3 13.2,7.7 12.5,7.7 L11.7,7.7 C10.8,7.7 10.3,8.2 10.3,9 L10.3,9.8 L3,9.8 C2.7,9.8 2.4,9.7 2.2,9.5 C2,9.2 1.9,8.9 1.9,8.6 L1.9,5.9 C1.9,5.3 2.1,4.7 2.6,4.3 C3,3.9 3.6,3.6 4.2,3.6 L20,3.6 C20.6,3.6 21.2,3.8 21.6,4.3 C22,4.7 22.3,5.3 22.3,5.9 L22.3,8.6 C22.3,8.9 22.2,9.2 21.9,9.4 C21.6,9.7 21.3,9.8 21,9.8 Z M11.5,11 L11.5,9 L11.7,8.8 L12.5,8.8 L12.5,9 L12.5,11 L12.3,11.2 L11.5,11.2 L11.5,11 Z M19.5,16.7 L4.5,16.7 C3.9,16.7 3.3,16.5 2.9,16 C2.5,15.6 2.2,15 2.2,14.4 L2.2,10.8 C2.5,10.9 2.8,11 3,11 L10.2,11 L10.2,11.1 C10.2,11.8 10.8,12.4 11.5,12.4 L12.3,12.4 C13,12.4 13.6,11.8 13.6,11.1 L13.6,11 L21,11 C21.3,11 21.5,10.9 21.8,10.9 L21.8,14.5 C21.8,15.1 21.6,15.7 21.1,16.1 C20.7,16.4 20.1,16.7 19.5,16.7 Z M9.3,1.8 C9.3,1.5 9.6,1.2 9.9,1.2 L14.1,1.2 C14.4,1.2 14.7,1.5 14.7,1.8 L14.7,2.5 L9.3,2.5 L9.3,1.8 Z M19.9,2.5 L15.9,2.5 L15.9,1.8 C15.9,0.8 15.1,0 14.1,0 L9.9,0 C8.9,0 8.1,0.8 8.1,1.8 L8.1,2.5 L4.1,2.5 C2.2,2.5 0.7,4 0.7,5.9 L0.7,8.6 C0.7,9.1 0.8,9.5 1.1,9.9 L1.1,14.4 C1.1,16.3 2.6,17.8 4.5,17.8 L19.5,17.8 C21.4,17.8 23,16.3 23,14.4 L23,9.9 C23.3,9.5 23.4,9.1 23.4,8.6 L23.4,5.9 C23.3,4 21.8,2.5 19.9,2.5 Z" id="Fill-1"></path>
        </g>
    </g>
</svg>