<?xml version="1.0" encoding="UTF-8"?>
<svg width="15px" height="20px" viewBox="0 0 15 20" version="1.1" xmlns="http://www.w3.org/2000/svg" xmlns:xlink="http://www.w3.org/1999/xlink">
    <!-- Generator: Sketch 52.5 (67469) - http://www.bohemiancoding.com/sketch -->
    <title>contact</title>
    <desc>Created with Sketch.</desc>
    <g id="Page-1" stroke="none" stroke-width="1" fill="none" fill-rule="evenodd">
        <g id="contact" fill="#075080" fill-rule="nonzero">
            <path d="M12.3,18.3 C11.5,18.6 10.8,18.8 10,18.8 C8.2,18.8 6.4,18 5.2,16.5 C4.2,15.3 3.5,13.9 2.8,12.5 C2.2,11.1 1.6,9.6 1.4,8 C1.4,7.7 1.3,7.4 1.3,7 C1.3,4.5 2.6,2.4 4.7,1.4 L4.8,1.3 C5,1.3 5.2,1.2 5.4,1.2 C5.5,1.2 5.7,1.2 5.8,1.3 C5.9,1.4 6,1.4 6.1,1.6 C6.2,1.8 6.4,2.1 6.5,2.4 L6.6,2.6 C6.7,3.2 7,3.9 7,4.5 C7,4.8 6.9,5.1 6.8,5.3 C6.7,5.4 6.5,5.6 6.3,5.7 C6.2,5.8 6,6 5.7,6.1 C5.6,6.2 5.4,6.2 5.3,6.3 C4.9,6.6 4.4,6.9 4.1,7.5 C4,7.8 3.9,8.2 3.9,8.7 C3.9,9 3.9,9.3 4,9.7 C4.1,10.4 4.3,11 4.6,11.6 C4.9,12.2 5.2,12.8 5.7,13.3 L5.8,13.4 C6,13.8 6.2,14 6.4,14.2 C6.7,14.5 7.1,14.7 7.5,14.8 C7.7,14.8 7.9,14.9 8.1,14.9 C8.7,14.9 9.1,14.7 9.6,14.6 L9.7,14.6 C10.1,14.4 10.5,14.3 10.8,14.3 L11,14.3 C11.2,14.3 11.4,14.4 11.6,14.5 C11.8,14.7 12.1,14.9 12.4,15.3 C12.6,15.6 12.8,15.9 12.9,16.2 L13,16.4 C13.2,16.7 13.3,17 13.4,17.2 L13.4,17.4 C13.4,17.6 13.3,17.7 13.2,17.9 C13.1,18.1 12.9,18.2 12.6,18.3 L12.3,18.3 Z M14.4,16.8 C14.3,16.4 14.1,16 13.9,15.7 L13.7,15.4 C13.5,15 13.2,14.5 12.8,14.1 C12.6,13.8 12.3,13.6 12,13.4 C11.7,13.2 11.3,13 10.9,13 L10.5,13 C9.9,13 9.5,13.2 9,13.3 L8.9,13.3 C8.5,13.5 8.1,13.6 7.8,13.6 L7.5,13.6 C7.3,13.6 7.1,13.5 6.9,13.3 C6.7,13.2 6.5,13 6.4,12.7 C6,12.2 5.7,11.7 5.5,11.2 C5.5,10.6 5.3,10 5.2,9.5 C5.1,9.2 5.1,8.9 5.1,8.7 C5.1,8.4 5.1,8.2 5.2,8 C5.3,7.8 5.4,7.7 5.6,7.6 C5.8,7.4 6,7.3 6.3,7.2 C6.4,7.1 6.5,7 6.6,7 C7,6.8 7.5,6.5 7.8,6 C8.1,5.5 8.2,5 8.2,4.5 C8.2,3.7 7.9,2.9 7.7,2.3 C7.7,2.2 7.6,2.1 7.6,2 L7.6,1.9 C7.5,1.6 7.3,1.2 7.1,0.9 C6.9,0.6 6.6,0.3 6.3,0.2 C6.1,0.1 5.8,0 5.4,0 C5.1,0 4.7,0.1 4.3,0.3 L4,0.4 C1.5,1.7 0,4.2 0,7.1 C0,7.5 0,7.8 0.1,8.2 C0.3,9.9 1,11.4 1.6,12.9 L1.7,13.1 C2.4,14.5 3.1,16 4.3,17.3 L4.8,17.9 L4.8,17.8 C6.2,19.2 8.1,20 10,20 C10.9,20 11.8,19.8 12.6,19.5 L13,19.3 C13.4,19.1 13.7,18.8 14,18.6 C14.3,18.2 14.5,17.8 14.5,17.3 C14.5,17.2 14.4,17 14.4,16.8 Z" id="Fill-1"></path>
        </g>
    </g>
</svg>