<?xml version="1.0" encoding="UTF-8"?>
<svg width="20px" height="20px" viewBox="0 0 20 20" version="1.1" xmlns="http://www.w3.org/2000/svg" xmlns:xlink="http://www.w3.org/1999/xlink">
    <!-- Generator: Sketch 52.5 (67469) - http://www.bohemiancoding.com/sketch -->
    <title>doctors</title>
    <desc>Created with Sketch.</desc>
    <g id="Page-1" stroke="none" stroke-width="1" fill="none" fill-rule="evenodd">
        <g id="doctors" fill="#075080" fill-rule="nonzero">
            <path d="M3.7,13 C3.7,13.7 3.1,14.2 2.5,14.2 C1.8,14.2 1.3,13.6 1.3,13 C1.3,12.3 1.9,11.8 2.5,11.8 C3.1,11.8 3.7,12.4 3.7,13 M12.7,11.2 C12.5,11.4 12.3,11.6 12,11.6 C11.7,11.6 11.4,11.5 11.3,11.2 C11.5,11.2 11.8,11.3 12,11.3 C12.2,11.3 12.5,11.2 12.7,11.2 M17,0.8 L16.1,0.8 L16.1,0.6 C16.1,0.3 15.8,0 15.5,0 C15.2,0 14.9,0.3 14.9,0.6 L14.9,2.1 C14.9,2.4 15.2,2.7 15.5,2.7 C15.8,2.7 16.1,2.4 16.1,2.1 L16.1,2 L17,2 C17.3,2 17.5,2.1 17.7,2.3 C17.9,2.5 18,2.8 18,3 L18,4 C18,5.6 17.4,7.1 16.2,8.3 C15,9.5 13.5,10.1 11.9,10.1 C10.3,10.1 8.8,9.5 7.6,8.3 C6.5,7.1 5.9,5.6 5.9,4 L5.9,3 C5.9,2.7 6,2.5 6.2,2.3 C6.4,2.1 6.6,2 6.9,2 L7.8,2 L7.8,2.2 C7.8,2.5 8.1,2.8 8.4,2.8 C8.7,2.7 9,2.5 9,2.1 L9,0.6 C9,0.3 8.7,0 8.4,0 C8.1,0 7.8,0.3 7.8,0.6 L7.8,0.7 L6.9,0.7 C5.6,0.7 4.6,1.7 4.6,3 L4.6,4 C4.6,7.2 6.7,10 9.8,11 C9.9,11.8 10.5,12.5 11.3,12.8 L11.3,16.9 C11.3,17.7 10.6,18.4 9.8,18.4 C9,18.4 8.3,17.7 8.3,16.9 L8.3,15.3 C8.3,13.8 7.1,12.6 5.6,12.6 L4.9,12.6 C4.6,11.5 3.6,10.7 2.5,10.7 C1.1,10.6 0,11.7 0,13 C0,14.4 1.1,15.5 2.5,15.5 C3.6,15.5 4.6,14.7 4.9,13.6 L5.6,13.6 C6.4,13.6 7.1,14.3 7.1,15.1 L7.1,16.7 C7.1,18.2 8.3,19.4 9.8,19.4 C11.3,19.4 12.5,18.2 12.5,16.7 L12.5,12.6 C13.3,12.4 13.9,11.7 14,10.8 C17.1,9.9 19.2,7 19.2,3.8 L19.2,3 C19.3,1.8 18.2,0.8 17,0.8" id="Fill-1"></path>
        </g>
    </g>
</svg>