<?xml version="1.0" encoding="UTF-8"?>
<svg width="24px" height="25px" viewBox="0 0 24 25" version="1.1" xmlns="http://www.w3.org/2000/svg" xmlns:xlink="http://www.w3.org/1999/xlink">
    <!-- Generator: sketchtool 53.1 (72631) - https://sketchapp.com -->
    <title>BD2D1E46-05C5-431C-93A2-06D779CD5798@1x</title>
    <desc>Created with sketchtool.</desc>
    <g id="AH-Health-Records" stroke="none" stroke-width="1" fill="none" fill-rule="evenodd">
        <g id="HW-HR-all-records--empty" transform="translate(-562.000000, -87.000000)" fill="#075080">
            <g id="nav">
                <g id="Group">
                    <g id="Icons-/-16-/-Doctor" transform="translate(562.000000, 87.690476)">
                        <path d="M15.7569012,14.9657488 L15.7569012,17.6226936 C15.7569012,21.1447794 12.9016865,23.9999941 9.37960072,23.9999941 C5.8575149,23.9999941 3.00230021,21.1447794 3.00230021,17.6226936 L3.00230021,16.4056496 C1.70723998,16.0734309 0.75,14.8985644 0.75,13.4998004 C0.75,11.8428041 2.09330607,10.5000059 3.75020507,10.5000059 C5.40682043,10.5000059 6.74999957,11.842931 6.74999957,13.4998004 C6.74999957,14.8969044 5.7949742,16.0707883 4.50230021,16.4045321 L4.50230021,17.6226936 C4.50230021,20.3163523 6.68594203,22.4999941 9.37960072,22.4999941 C12.0732594,22.4999941 14.2569012,20.3163523 14.2569012,17.6226936 L14.2569012,14.9669926 C10.048731,14.591318 6.75,11.0558919 6.75,6.75000586 L6.75,3.00000586 C6.75,2.17157873 7.42157288,1.50000586 8.25,1.50000586 L9.75,1.50000586 L9.75,0.750005859 C9.75,0.335792297 10.0857864,5.85904667e-06 10.5,5.85904667e-06 C10.9142136,5.85904667e-06 11.25,0.335792297 11.25,0.750005859 L11.25,3.00000586 L18.75,3.00000586 L18.75,0.750005859 C18.75,0.335792297 19.0857864,5.85904667e-06 19.5,5.85904667e-06 C19.9142136,5.85904667e-06 20.25,0.335792297 20.25,0.750005859 L20.25,1.50000586 L21.75,1.50000586 C22.5784271,1.50000586 23.25,2.17157873 23.25,3.00000586 L23.25,6.75000586 C23.25,11.0511831 19.9584799,14.5835846 15.7569012,14.9657488 L15.7569012,14.9657488 Z M11.25,3.00000586 L11.25,3.75000586 C11.25,4.16421942 10.9142136,4.50000586 10.5,4.50000586 C10.0857864,4.50000586 9.75,4.16421942 9.75,3.75000586 L9.75,3.00000586 L8.25,3.00000586 L8.25,6.75000586 C8.25,10.4779279 11.2720779,13.5000059 15,13.5000059 C18.7279221,13.5000059 21.75,10.4779279 21.75,6.75000586 L21.75,3.00000586 L20.25,3.00000586 L20.25,3.75000586 C20.25,4.16421942 19.9142136,4.50000586 19.5,4.50000586 C19.0857864,4.50000586 18.75,4.16421942 18.75,3.75000586 L18.75,3.00000586 L11.25,3.00000586 Z M5.24999957,13.4998004 C5.24999957,12.6712799 4.57831498,12.0000059 3.75020507,12.0000059 C2.92168459,12.0000059 2.25,12.6712799 2.25,13.4998004 C2.25,14.3283208 2.92168459,14.9995949 3.75020507,14.9995949 C4.57831498,14.9995949 5.24999957,14.3283208 5.24999957,13.4998004 Z" id="Shape"></path>
                    </g>
                </g>
            </g>
        </g>
    </g>
</svg>