<?xml version="1.0" encoding="UTF-8"?>
<svg width="24px" height="19px" viewBox="0 0 24 19" version="1.1" xmlns="http://www.w3.org/2000/svg" xmlns:xlink="http://www.w3.org/1999/xlink">
    <!-- Generator: sketchtool 53.1 (72631) - https://sketchapp.com -->
    <title>9576BC66-8570-4113-830A-30DCF81890F3@1x</title>
    <desc>Created with sketchtool.</desc>
    <g id="AH-Health-Records" stroke="none" stroke-width="1" fill="none" fill-rule="evenodd">
        <g id="HW-HR-all-records--empty" transform="translate(-157.000000, -90.000000)" fill="#075080">
            <g id="nav">
                <g id="Group">
                    <g id="Icons-/-16-/-Records" transform="translate(157.000000, 87.690476)">
                        <g id="Group" transform="translate(0.000000, 3.000000)">
                            <path d="M11.25,9.75 L11.25,7.5 C11.25,7.08578644 11.5857864,6.75 12,6.75 C12.4142136,6.75 12.75,7.08578644 12.75,7.5 L12.75,9.75 L15,9.75 C15.4142136,9.75 15.75,10.0857864 15.75,10.5 C15.75,10.9142136 15.4142136,11.25 15,11.25 L12.75,11.25 L12.75,13.5 C12.75,13.9142136 12.4142136,14.25 12,14.25 C11.5857864,14.25 11.25,13.9142136 11.25,13.5 L11.25,11.25 L9,11.25 C8.58578644,11.25 8.25,10.9142136 8.25,10.5 C8.25,10.0857864 8.58578644,9.75 9,9.75 L11.25,9.75 Z M3,1.5 C2.17157288,1.5 1.5,2.17157288 1.5,3 L1.5,15 C1.5,15.8284271 2.17157288,16.5 3,16.5 L21,16.5 C21.8284271,16.5 22.5,15.8284271 22.5,15 L22.5,5.99663207 C22.5,5.16820495 21.8284271,4.49663207 21,4.49663207 L12.7823247,4.49663207 C12.5232778,4.49663207 12.2825699,4.36295218 12.1456497,4.14304723 L10.7201538,1.85358484 C10.5832336,1.6336799 10.3425257,1.5 10.0834788,1.5 L3,1.5 Z M13.1988459,2.99663207 L21,2.99663207 C22.6568542,2.99663207 24,4.33977782 24,5.99663207 L24,15 C24,16.6568542 22.6568542,18 21,18 L3,18 C1.34314575,18 -4.99222885e-12,16.6568542 -4.99256192e-12,15 L-5.00754993e-12,3 C-5.007883e-12,1.34314575 1.34314575,-1.38777878e-14 3,-1.42108547e-14 L10.0834788,7.05546732e-14 C10.8606196,8.00470801e-14 11.5827432,0.401039687 11.9935037,1.06075452 L13.1988459,2.99663207 Z" id="Combined-Shape"></path>
                        </g>
                    </g>
                </g>
            </g>
        </g>
    </g>
</svg>