<?xml version="1.0" encoding="utf-8"?>
<!-- Generator: Adobe Illustrator 22.1.0, SVG Export Plug-In . SVG Version: 6.00 Build 0)  -->
<svg version="1.1" id="Layer_1" xmlns="http://www.w3.org/2000/svg" xmlns:xlink="http://www.w3.org/1999/xlink" x="0px" y="0px"
	 viewBox="0 0 30 30" style="enable-background:new 0 0 30 30;" xml:space="preserve">
<style type="text/css">
	.st0{filter:url(#Adobe_OpacityMaskFilter);}
	.st1{fill:#FFFFFF;}
	.st2{mask:url(#mask-2_1_);fill:#D82277;}
</style>
<title>Group 3</title>
<desc>Created with Sketch.</desc>
<g id="Health-Records">
	<g id="HW-HR-all-records" transform="translate(-425.000000, -269.000000)">
		<g id="Group-7" transform="translate(425.000000, 266.000000)">
			<g id="Group-3" transform="translate(0.705882, 3.000000)">
				<g id="Clip-2">
				</g>
				<defs>
					<filter id="Adobe_OpacityMaskFilter" filterUnits="userSpaceOnUse" x="1.7" y="5.5" width="25.8" height="19">
						<feColorMatrix  type="matrix" values="1 0 0 0 0  0 1 0 0 0  0 0 1 0 0  0 0 0 1 0"/>
					</filter>
				</defs>
				<mask maskUnits="userSpaceOnUse" x="1.7" y="5.5" width="25.8" height="19" id="mask-2_1_">
					<g class="st0">
						<polygon id="path-1_1_" class="st1" points="1.7,5.5 27.5,5.5 27.5,24.5 1.7,24.5 						"/>
					</g>
				</mask>
				<path id="Fill-1" class="st2" d="M26.7,15.9h-4l-2.5-5c-0.1-0.3-0.5-0.5-0.8-0.4c-0.3,0-0.6,0.2-0.7,0.6l-3,9.9L11.5,6.1
					c-0.1-0.3-0.4-0.6-0.8-0.6c-0.4,0-0.7,0.2-0.8,0.6l-2.6,9.8H2.5c-0.4,0-0.8,0.4-0.8,0.8c0,0.4,0.4,0.8,0.8,0.8H8
					c0.4,0,0.7-0.2,0.8-0.6l2-7.6L15,23.9c0.1,0.3,0.4,0.6,0.8,0.6c0.4,0,0.7-0.2,0.8-0.6l3.2-10.6l1.8,3.7c0.1,0.3,0.4,0.4,0.7,0.4
					h4.5c0.4,0,0.8-0.4,0.8-0.8C27.5,16.3,27.2,15.9,26.7,15.9"/>
			</g>
		</g>
	</g>
</g>
</svg>
