<?xml version="1.0" encoding="UTF-8"?>
<svg width="24px" height="24px" viewBox="0 0 24 24" version="1.1" xmlns="http://www.w3.org/2000/svg" xmlns:xlink="http://www.w3.org/1999/xlink">
    <!-- Generator: sketchtool 53.1 (72631) - https://sketchapp.com -->
    <title>9C30C9B7-7708-4A27-844C-E512F2EC205E@1x</title>
    <desc>Created with sketchtool.</desc>
    <g id="menus" stroke="none" stroke-width="1" fill="none" fill-rule="evenodd">
        <g id="Profile-Picker-v2---main-account" transform="translate(-16.000000, -595.000000)" fill="#000000">
            <g id="Icons-/-16-/-Help" transform="translate(16.000000, 595.000000)">
                <path d="M20.409577,18.2882566 L17.1692714,15.047951 C16.6530257,15.9216086 15.9216086,16.6530257 15.047951,17.1692714 L18.2882566,20.409577 C19.0924021,19.8073099 19.8073099,19.0924021 20.409577,18.2882566 Z M21.2379324,16.9952918 C22.0428956,15.5097874 22.5,13.8082749 22.5,12 C22.5,10.1917251 22.0428956,8.49021259 21.2379324,7.00470824 L17.7967703,10.4458704 C17.9293282,10.9415503 18,11.462522 18,12 C18,12.537478 17.9293282,13.0584497 17.7967703,13.5541296 L21.2379324,16.9952918 Z M10.0598768,7.93855648 C9.13323642,8.38200444 8.38200444,9.13323642 7.93855648,10.0598768 C7.69144421,10.5762491 7.53990806,11.1470908 7.50685475,11.7494954 C7.50230483,11.8324188 7.5,11.9159402 7.5,12 C7.5,12.0840598 7.50230483,12.1675812 7.50685475,12.2505046 C7.53990806,12.8529092 7.69144421,13.4237509 7.93855648,13.9401232 C8.38200444,14.8667636 9.13323642,15.6179956 10.0598768,16.0614435 C10.5762491,16.3085558 11.1470908,16.4600919 11.7494954,16.4931452 C11.8324188,16.4976952 11.9159402,16.5 12,16.5 C12.0840598,16.5 12.1675812,16.4976952 12.2505046,16.4931452 C12.8529092,16.4600919 13.4237509,16.3085558 13.9401232,16.0614435 C14.8667636,15.6179956 15.6179956,14.8667636 16.0614435,13.9401232 C16.3085558,13.4237509 16.4600919,12.8529092 16.4931452,12.2505046 C16.4976952,12.1675812 16.5,12.0840598 16.5,12 C16.5,11.9159402 16.4976952,11.8324188 16.4931452,11.7494954 C16.4600919,11.1470908 16.3085558,10.5762491 16.0614435,10.0598768 C15.6179956,9.13323642 14.8667636,8.38200444 13.9401232,7.93855648 C13.4237509,7.69144421 12.8529092,7.53990806 12.2505046,7.50685475 C12.1675812,7.50230483 12.0840598,7.5 12,7.5 C11.9159402,7.5 11.8324188,7.50230483 11.7494954,7.50685475 C11.1470908,7.53990806 10.5762491,7.69144421 10.0598768,7.93855648 Z M5.71174336,3.59042301 C4.90759792,4.19269009 4.19269009,4.90759792 3.59042301,5.71174336 L6.83072864,8.95204898 C7.34697426,8.07839137 8.07839137,7.34697426 8.95204898,6.83072864 L5.71174336,3.59042301 Z M7.00470824,2.76206755 L10.4458704,6.20322972 C10.9415503,6.07067176 11.462522,6 12,6 C12.537478,6 13.0584497,6.07067176 13.5541296,6.20322972 L16.9952918,2.76206755 C15.5097874,1.95710441 13.8082749,1.5 12,1.5 C10.1917251,1.5 8.49021259,1.95710441 7.00470824,2.76206755 Z M16.9952918,21.2379324 L13.5541296,17.7967703 C13.0584497,17.9293282 12.537478,18 12,18 C11.462522,18 10.9415503,17.9293282 10.4458704,17.7967703 L7.00470824,21.2379324 C8.49021259,22.0428956 10.1917251,22.5 12,22.5 C13.8082749,22.5 15.5097874,22.0428956 16.9952918,21.2379324 Z M2.76206755,7.00470824 C1.95710441,8.49021259 1.5,10.1917251 1.5,12 C1.5,13.8082749 1.95710441,15.5097874 2.76206755,16.9952918 L6.20322972,13.5541296 C6.07067176,13.0584497 6,12.537478 6,12 C6,11.462522 6.07067176,10.9415503 6.20322972,10.4458704 L2.76206755,7.00470824 Z M20.409577,5.71174336 C19.8073099,4.90759792 19.0924021,4.19269009 18.2882566,3.59042301 L15.047951,6.83072864 C15.9216086,7.34697426 16.6530257,8.07839137 17.1692714,8.95204898 L20.409577,5.71174336 Z M5.71174336,20.409577 L8.95204898,17.1692714 C8.07839137,16.6530257 7.34697426,15.9216086 6.83072864,15.047951 L3.59042301,18.2882566 C4.19269009,19.0924021 4.90759792,19.8073099 5.71174336,20.409577 Z M12,24 C5.372583,24 0,18.627417 0,12 C0,5.372583 5.372583,0 12,0 C18.627417,0 24,5.372583 24,12 C24,18.627417 18.627417,24 12,24 Z" id="Combined-Shape"></path>
            </g>
        </g>
    </g>
</svg>