<?xml version="1.0" encoding="UTF-8"?>
<svg width="24px" height="24px" viewBox="0 0 24 24" version="1.1" xmlns="http://www.w3.org/2000/svg" xmlns:xlink="http://www.w3.org/1999/xlink">
    <!-- Generator: sketchtool 53.1 (72631) - https://sketchapp.com -->
    <title>9ACD3B80-4973-4B44-AF88-2234424D38EA@1x</title>
    <desc>Created with sketchtool.</desc>
    <g id="AH-Health-Records" stroke="none" stroke-width="1" fill="none" fill-rule="evenodd">
        <g id="HW-HR-all-records--empty" transform="translate(-43.000000, -87.000000)" fill="#075080">
            <g id="nav">
                <g id="Group">
                    <g id="Icons-/-16-/-Home" transform="translate(43.000000, 87.690476)">
                        <path d="M2.15625004,11.2818481 L2.15624999,21.09375 L7.78125002,21.09375 L7.78125002,16.9068481 C7.78125002,14.5768968 9.67004872,12.6880981 12,12.6880981 L12.0617833,12.6880981 C14.3917346,12.6880981 16.2805333,14.5768968 16.2805333,16.9068481 L16.2805333,21.09375 L21.84375,21.09375 L21.84375,11.2818481 L12,1.40625 L2.15625004,11.2818481 Z M1.16027646,10.2890865 L11.0040264,0.413488358 C11.5535663,-0.137829453 12.4464337,-0.137829453 12.9959736,0.413488358 L22.8397235,10.2890865 C23.1024647,10.5526777 23.25,10.9096744 23.25,11.2818481 L23.25,21.09375 C23.25,21.8704004 22.6204004,22.5 21.84375,22.5 L16.2805333,22.5 C15.5038829,22.5 14.8742833,21.8704004 14.8742833,21.09375 L14.8742833,16.9068481 C14.8742833,15.3535472 13.6150842,14.0943481 12.0617833,14.0943481 L12,14.0943481 C10.4466991,14.0943481 9.18750001,15.3535472 9.18750001,16.9068481 L9.18750001,21.09375 C9.18750001,21.8704004 8.55790045,22.5 7.78125002,22.5 L2.15625,22.5 C1.37959957,22.5 0.749999996,21.8704004 0.75,21.09375 L0.750000044,11.2818481 C0.750000046,10.9096744 0.897535261,10.5526777 1.16027646,10.2890865 Z" id="Rectangle"></path>
                    </g>
                </g>
            </g>
        </g>
    </g>
</svg>