<?xml version="1.0" encoding="UTF-8"?>
<svg width="16px" height="20px" viewBox="0 0 16 20" version="1.1" xmlns="http://www.w3.org/2000/svg" xmlns:xlink="http://www.w3.org/1999/xlink">
    <!-- Generator: Sketch 52.5 (67469) - http://www.bohemiancoding.com/sketch -->
    <title>location</title>
    <desc>Created with Sketch.</desc>
    <g id="Page-1" stroke="none" stroke-width="1" fill="none" fill-rule="evenodd">
        <g id="location" transform="translate(0.000000, -1.000000)" fill="#075080" fill-rule="nonzero">
            <g id="Group-3" transform="translate(0.000000, 0.506423)">
                <path d="M14.3,8.2 C14.3,9.1 14.1,10 13.7,10.9 C13.6,11.1 13.5,11.3 13.3,11.6 L8.2,19 L8,19.2 L7.8,19.1 L2.6,11.6 C2.4,11.3 2.3,11.1 2.2,10.9 C1.8,10 1.7,9.1 1.7,8.2 C1.7,6.6 2.3,5 3.3,3.8 C4.4,2.5 5.9,1.8 7.5,1.7 C7.8,1.7 8.1,1.7 8.5,1.7 C10.2,1.8 11.6,2.5 12.7,3.8 C13.8,5 14.3,6.6 14.3,8.2 M8.6,0.5 C8.2,0.5 7.9,0.5 7.5,0.5 C5.5,0.6 3.7,1.5 2.4,3 C1.1,4.4 0.5,6.3 0.5,8.2 C0.5,9.3 0.7,10.3 1.2,11.3 C1.4,11.7 1.6,12 1.7,12.2 L6.9,19.7 C7.2,20.1 7.6,20.3 8,20.3 C8.4,20.3 8.9,20.1 9.1,19.7 L14.3,12.1 C14.5,11.9 14.7,11.6 14.8,11.2 C15.2,10.2 15.5,9.1 15.5,8.1 C15.5,6.2 14.8,4.4 13.6,2.9 C12.3,1.5 10.5,0.6 8.6,0.5" id="Fill-1"></path>
            </g>
            <path d="M8,11.1 C7.4,11.1 6.8,10.9 6.4,10.4 C6,10 5.7,9.5 5.7,8.9 C5.7,8.3 5.9,7.7 6.4,7.3 C6.8,6.9 7.4,6.6 8,6.6 C8.6,6.6 9.2,6.8 9.6,7.3 C10,7.7 10.3,8.3 10.3,8.9 C10.3,9.5 10.1,10.1 9.6,10.5 C9.2,10.9 8.6,11.1 8,11.1 M8,5.4 C6.1,5.4 4.6,7 4.6,8.9 C4.6,10.8 6.1,12.3 8,12.3 C9.9,12.3 11.4,10.8 11.4,8.9 C11.4,7 9.9,5.4 8,5.4" id="Fill-4"></path>
        </g>
    </g>
</svg>