<?xml version="1.0" encoding="UTF-8"?>
<svg width="24px" height="20px" viewBox="0 0 24 20" version="1.1" xmlns="http://www.w3.org/2000/svg" xmlns:xlink="http://www.w3.org/1999/xlink">
    <!-- Generator: sketchtool 53.1 (72631) - https://sketchapp.com -->
    <title>9D4ECB37-516B-41E4-A693-A9F4E5D55FFF@1x</title>
    <desc>Created with sketchtool.</desc>
    <g id="menus" stroke="none" stroke-width="1" fill="none" fill-rule="evenodd">
        <g id="Profile-Picker-v2---main-account" transform="translate(-16.000000, -644.000000)" fill="#000000">
            <g id="Icons-/-16-/-Log-Out" transform="translate(16.000000, 642.000000)">
                <path d="M2.38235294,2.47058824 L8.93382353,2.47058824 C9.26139706,2.47058824 9.52941176,2.73860294 9.52941176,3.06617647 L9.52941176,3.46323529 C9.52941176,3.79080882 9.26139706,4.05882353 8.93382353,4.05882353 L2.38235294,4.05882353 C1.94558824,4.05882353 1.58823529,4.41617647 1.58823529,4.85294118 L1.58823529,19.1470588 C1.58823529,19.5838235 1.94558824,19.9411765 2.38235294,19.9411765 L8.93382353,19.9411765 C9.26139706,19.9411765 9.52941176,20.2091912 9.52941176,20.5367647 L9.52941176,20.9338235 C9.52941176,21.2613971 9.26139706,21.5294118 8.93382353,21.5294118 L2.38235294,21.5294118 C1.06709559,21.5294118 -1.070255e-12,20.4623162 -1.070255e-12,19.1470588 L-1.070255e-12,4.85294118 C-1.070255e-12,3.53768382 1.06709559,2.47058824 2.38235294,2.47058824 Z M15.3234981,3.91521091 C15.5437793,3.6949297 15.8999787,3.6949297 16.1202599,3.91521091 L23.8347891,11.6016191 C24.0550703,11.8219003 24.0550703,12.1780997 23.8347891,12.3983809 L16.1249467,20.0847891 C15.9046655,20.3050703 15.5484661,20.3050703 15.3281849,20.0847891 L14.9954197,19.7520239 C14.7751385,19.5317427 14.7751385,19.1755432 14.9954197,18.955262 L21.1773541,12.7967618 L8.05890499,12.7967618 C7.74957392,12.7967618 7.49648487,12.5436728 7.49648487,12.2343417 L7.49648487,11.7656583 C7.49648487,11.4563272 7.74957392,11.2032382 8.05890499,11.2032382 L21.1773541,11.2032382 L14.9907329,5.04473796 C14.7704516,4.82445675 14.7704516,4.46825735 14.9907329,4.24797614 L15.3234981,3.91521091 Z" id="Shape"></path>
            </g>
        </g>
    </g>
</svg>