<?xml version="1.0" encoding="UTF-8"?>
<svg width="24px" height="19px" viewBox="0 0 24 19" version="1.1" xmlns="http://www.w3.org/2000/svg" xmlns:xlink="http://www.w3.org/1999/xlink">
    <!-- Generator: sketchtool 53.1 (72631) - https://sketchapp.com -->
    <title>9F917600-6E35-4B04-ADE8-117C4440B704@1x</title>
    <desc>Created with sketchtool.</desc>
    <g id="AH-Health-Records" stroke="none" stroke-width="1" fill="none" fill-rule="evenodd">
        <g id="HW-HR-all-records--empty" transform="translate(-303.000000, -90.000000)" fill="#075080">
            <g id="nav">
                <g id="Group">
                    <g id="Icons-/-16-/-Message" transform="translate(303.000000, 87.690476)">
                        <path d="M9,4.5 C4.85786438,4.5 1.5,7.85786438 1.5,12 C1.5,16.1421356 4.85786438,19.5 9,19.5 L22.5,19.5 L22.5,12 C22.5,7.85786438 19.1421356,4.5 15,4.5 L9,4.5 Z M9,3 L15,3 C19.9705627,3 24,7.02943725 24,12 L24,19.5 C24,20.3284271 23.3284271,21 22.5,21 L9,21 C4.02943725,21 7.99360578e-16,16.9705627 0,12 C-5.99520433e-16,7.02943725 4.02943725,3 9,3 Z M7.50234623,9.75 L16.4976538,9.75 C16.9118673,9.75 17.2476538,10.0857864 17.2476538,10.5 C17.2476538,10.9142136 16.9118673,11.25 16.4976538,11.25 L7.50234623,11.25 C7.08813267,11.25 6.75234623,10.9142136 6.75234623,10.5 C6.75234623,10.0857864 7.08813267,9.75 7.50234623,9.75 Z M7.50234623,12.75 L13.5023462,12.75 C13.9165598,12.75 14.2523462,13.0857864 14.2523462,13.5 C14.2523462,13.9142136 13.9165598,14.25 13.5023462,14.25 L7.50234623,14.25 C7.08813267,14.25 6.75234623,13.9142136 6.75234623,13.5 C6.75234623,13.0857864 7.08813267,12.75 7.50234623,12.75 Z" id="Combined-Shape"></path>
                    </g>
                </g>
            </g>
        </g>
    </g>
</svg>