<?xml version="1.0" encoding="UTF-8"?>
<svg width="24px" height="25px" viewBox="0 0 24 25" version="1.1" xmlns="http://www.w3.org/2000/svg" xmlns:xlink="http://www.w3.org/1999/xlink">
    <!-- Generator: sketchtool 53.1 (72631) - https://sketchapp.com -->
    <title>A88B13DD-1932-4B0B-B382-103BEC107763@1x</title>
    <desc>Created with sketchtool.</desc>
    <g id="menus" stroke="none" stroke-width="1" fill="none" fill-rule="evenodd">
        <g id="Profile-Picker-v1---main-account" transform="translate(-16.000000, -327.000000)" fill="#000000">
            <g id="Icons-/-16-/-Password" transform="translate(16.000000, 327.000000)">
                <path d="M8.55122318,12.277251 L1.50378633,19.3246878 L1.49682226,22.5136324 L4.50317782,22.5136324 L4.50317782,20.5 C4.50317782,19.9477152 4.95089307,19.5 5.50317782,19.5 L7.50317782,19.5 L7.50317782,17.5 C7.50317782,16.9477152 7.95089307,16.5 8.50317782,16.5 L10.4712552,16.5 L11.6559975,15.4123175 L12.8289743,14.3354366 C13.7136999,14.7613449 14.7055684,15 15.7531778,15 C19.4810999,15 22.5031778,11.9779221 22.5031778,8.25 C22.5031778,4.52207794 19.4810999,1.5 15.7531778,1.5 C12.0252558,1.5 9.00317782,4.52207794 9.00317782,8.25 C9.00317782,9.29401957 9.24020016,10.2826796 9.66336946,11.1651047 L8.55122318,12.277251 Z M7.90539051,10.8017633 C7.64429565,9.99822926 7.50317782,9.14059455 7.50317782,8.25 C7.50317782,3.69365081 11.1968286,-3.55271368e-15 15.7531778,-3.55271368e-15 C20.309527,-3.55271368e-15 24.0031778,3.69365081 24.0031778,8.25 C24.0031778,12.8063492 20.309527,16.5 15.7531778,16.5 C14.8424048,16.5 13.9661022,16.352415 13.1468804,16.0798557 L11.4856876,17.6049556 C11.2089453,17.8590259 10.8469386,18 10.4712552,18 L9.00317782,18 L9.00317782,19.5 C9.00317782,20.3284271 8.33160494,21 7.50317782,21 L6.00317782,21 L6.00317782,22.5136324 C6.00317782,23.3420596 5.33160494,24.0136324 4.50317782,24.0136324 L1.49682226,24.0136324 C0.667115599,24.0136324 -0.00498608436,23.3400614 -0.00317416151,22.5103567 L0.00378990855,19.3214121 C0.00465620414,18.9247233 0.162624149,18.5445297 0.44312616,18.2640277 L7.90539051,10.8017633 Z M16.5,9 C17.3284271,9 18,8.32842712 18,7.5 C18,6.67157288 17.3284271,6 16.5,6 C15.6715729,6 15,6.67157288 15,7.5 C15,8.32842712 15.6715729,9 16.5,9 Z M16.5,10.5 C14.8431458,10.5 13.5,9.15685425 13.5,7.5 C13.5,5.84314575 14.8431458,4.5 16.5,4.5 C18.1568542,4.5 19.5,5.84314575 19.5,7.5 C19.5,9.15685425 18.1568542,10.5 16.5,10.5 Z" id="Combined-Shape"></path>
            </g>
        </g>
    </g>
</svg>