<?xml version="1.0" encoding="UTF-8"?>
<svg width="22px" height="22px" viewBox="0 0 22 22" version="1.1" xmlns="http://www.w3.org/2000/svg" xmlns:xlink="http://www.w3.org/1999/xlink">
    <!-- Generator: Sketch 52.5 (67469) - http://www.bohemiancoding.com/sketch -->
    <title>patients</title>
    <desc>Created with Sketch.</desc>
    <g id="Page-1" stroke="none" stroke-width="1" fill="none" fill-rule="evenodd">
        <g id="patients" fill="#075080" fill-rule="nonzero">
            <g id="Group-3" transform="translate(0.000000, 12.824477)">
                <path d="M1.2,7.2 L1.2,7.1 C1.2,5.7 1.8,4.4 2.8,3.4 C3.8,2.4 5.1,1.9 6.5,1.9 C7.9,1.9 9.2,2.4 10.2,3.4 C11.2,4.4 11.8,5.7 11.8,7.1 L11.8,7.2 L1.2,7.2 Z M6.5,0.6 C2.9,0.6 0,3.5 0,7.1 L0,7.8 L0.2,8.2 L0.6,8.4 L12.5,8.4 L12.9,8.2 L13.1,7.8 L13.1,7 C13.1,3.5 10.1,0.6 6.5,0.6 Z" id="Fill-1"></path>
            </g>
            <path d="M4.1,8.9 C4.1,8.2 4.4,7.6 4.8,7.2 C5.3,6.7 5.9,6.5 6.5,6.5 C7.2,6.5 7.8,6.8 8.2,7.2 C8.7,7.6 9,8.2 9,8.9 C9,9.6 8.7,10.2 8.3,10.6 C7.8,11.1 7.2,11.3 6.6,11.3 C6,11.3 5.3,11 4.9,10.6 C4.3,10.1 4.1,9.5 4.1,8.9 M6.5,12.6 C8.5,12.6 10.2,10.9 10.2,8.9 C10.2,6.9 8.6,5.2 6.5,5.2 C4.4,5.2 2.8,6.8 2.8,8.9 C2.8,11 4.5,12.6 6.5,12.6" id="Fill-4"></path>
            <path d="M13.4,11.8 C13.4,10.9 13.8,10 14.4,9.4 C15.1,8.7 16,8.4 16.9,8.4 C17.8,8.4 18.7,8.8 19.4,9.4 C20,10 20.4,10.9 20.4,11.8 L13.4,11.8 Z M16.9,7.1 C14.3,7.1 12.1,9.3 12.1,11.9 L12.1,12.4 L12.3,12.8 L12.7,13 L21.1,13 L21.5,12.8 L21.7,12.4 L21.7,11.8 C21.7,9.3 19.6,7.1 16.9,7.1 Z" id="Fill-6"></path>
            <g id="Group-10" transform="translate(13.538462, 0.132169)">
                <path d="M1.9,3.5 C1.9,2.7 2.6,2 3.4,2 C4.3,2 5,2.7 5,3.5 C5,4.4 4.3,5.1 3.4,5.1 C2.6,5.1 1.9,4.4 1.9,3.5 M3.4,6.3 C4.9,6.3 6.2,5 6.2,3.5 C6.2,2 4.9,0.7 3.4,0.7 C1.9,0.7 0.6,2 0.6,3.5 C0.6,5.1 1.9,6.3 3.4,6.3" id="Fill-8"></path>
            </g>
        </g>
    </g>
</svg>