<?xml version="1.0" encoding="UTF-8"?>
<svg width="20px" height="24px" viewBox="0 0 20 24" version="1.1" xmlns="http://www.w3.org/2000/svg" xmlns:xlink="http://www.w3.org/1999/xlink">
    <!-- Generator: Sketch 52.5 (67469) - http://www.bohemiancoding.com/sketch -->
    <title>treatments</title>
    <desc>Created with Sketch.</desc>
    <g id="Page-1" stroke="none" stroke-width="1" fill="none" fill-rule="evenodd">
        <g id="treatments" fill="#075080" fill-rule="nonzero">
            <path d="M10.4,10.1 C10.4,10.1 10.4,10.1 10.4,10.1 C10.4,10.2 10.3,10.3 10.2,10.3 L3.2,10.3 C3,10.3 3,10.2 3,10.2 C3,10.2 3,10.1 3,10.1 L3,9.4 C3,9.3 3.1,9.2 3.2,9.2 L10.2,9.2 C10.3,9.2 10.4,9.3 10.4,9.4 L10.4,10.1 Z M1.7,21.4 L8.3,21.4 C9.5,21.4 10.4,20.4 10.4,19.2 L10.4,17.4 C10.4,16.2 9.4,15.2 8.3,15.2 L1.7,15.2 L1.8,15 C2,14.7 2.3,14.2 2.7,13.8 C2.8,13.7 2.9,13.5 3,13.4 C3.2,13.1 3.4,12.8 3.6,12.5 L3.8,12.1 C3.9,12 3.9,11.8 3.9,11.6 L3.9,11.4 L9.4,11.4 L9.4,11.6 C9.4,11.8 9.5,12 9.5,12.1 C9.6,12.4 9.8,12.7 10.1,13 C10.3,13.2 10.4,13.5 10.6,13.7 C10.8,13.9 11,14.2 11.1,14.4 C11.3,14.6 11.4,14.8 11.5,15 L11.6,15.2 L11.6,22.1 C11.6,22.2 11.5,22.4 11.4,22.5 C11.3,22.6 11.2,22.7 11,22.7 L2.2,22.7 C1.9,22.7 1.7,22.5 1.7,22.2 L1.7,21.4 Z M9.2,19.3 C9.2,19.8 8.8,20.3 8.2,20.3 L1.7,20.3 L1.7,16.5 L8.3,16.5 C8.8,16.5 9.3,16.9 9.3,17.5 L9.3,19.3 L9.2,19.3 Z M12.1,13.8 C11.9,13.5 11.7,13.3 11.5,13 C11.3,12.8 11.2,12.6 11.1,12.4 C10.9,12.2 10.8,12 10.7,11.8 L10.6,11.6 L10.6,11.4 C11.2,11.2 11.6,10.7 11.6,10.1 L11.6,9.4 C11.6,8.6 11,8 10.2,8 L3.2,8 C2.4,8 1.8,8.7 1.8,9.4 L1.8,10.1 C1.8,10.7 2.2,11.3 2.8,11.4 L2.8,11.6 L2.7,11.7 C2.6,11.9 2.4,12.1 2.2,12.4 C2.1,12.6 1.9,12.8 1.7,13 C1.5,13.3 1.3,13.5 1.1,13.8 C0.9,14 0.8,14.2 0.7,14.5 L0.6,14.8 L0.5,15.2 L0.5,22.2 C0.5,23.1 1.3,23.9 2.2,23.9 L11.1,23.9 C12,23.9 12.8,23.1 12.8,22.2 L12.8,15.2 C12.8,15 12.7,14.8 12.6,14.6 C12.5,14.4 12.3,14 12.1,13.8 Z" id="Fill-1"></path>
            <g id="Group-5" transform="translate(12.875000, 6.935920)">
                <path d="M5.6,3.7 C5.6,4 5.5,4.2 5.4,4.5 L2,2 C2.4,1.7 2.9,1.5 3.4,1.5 C3.9,1.5 4.3,1.6 4.7,1.9 C5.2,2.3 5.6,2.9 5.6,3.7 Z M4.8,5.3 C4.4,5.7 3.9,5.9 3.4,5.9 C2.9,5.9 2.5,5.8 2.1,5.5 C1.5,5 1.2,4.4 1.2,3.6 C1.2,3.3 1.3,3.1 1.4,2.8 L4.8,5.3 Z M5.3,1 C4.7,0.6 4,0.3 3.4,0.3 C2.4,0.3 1.4,0.8 0.7,1.7 C0.3,2.3 0.1,3 0.1,3.6 C0.1,4.7 0.6,5.7 1.5,6.3 C2,6.7 2.7,7 3.4,7 C4.4,7 5.4,6.4 6,5.6 C6.4,5 6.6,4.3 6.6,3.7 C6.6,2.6 6.1,1.6 5.3,1 Z" id="Fill-3"></path>
            </g>
            <path d="M13.6,3.1 L13.6,3.4 C13.6,4.3 13.1,5.1 12.2,5.4 L11.6,1.2 C12.7,1.4 13.5,2.1 13.6,3.1 Z M9.2,3.4 C9.2,2.5 9.7,1.7 10.6,1.3 L11.2,5.6 C10.2,5.5 9.4,4.7 9.3,3.7 L9.2,3.4 Z M11.4,6.7 C11.6,6.7 11.7,6.7 11.8,6.7 C12.6,6.6 13.3,6.2 13.8,5.6 C14.3,5 14.6,4.2 14.6,3.4 C14.6,3.2 14.6,3.1 14.6,2.9 C14.5,2.1 14.1,1.4 13.5,0.9 C12.9,0.4 12.1,0.1 11.4,0.1 C11.2,0.1 11.1,0.1 11,0.1 C10.2,0.2 9.5,0.6 9,1.2 C8.4,1.9 8.2,2.6 8.2,3.4 C8.2,3.6 8.2,3.7 8.2,3.9 C8.4,5.5 9.8,6.7 11.4,6.7 Z" id="Fill-6"></path>
        </g>
    </g>
</svg>