<?xml version="1.0" encoding="UTF-8"?>
<svg width="20px" height="23px" viewBox="0 0 20 23" version="1.1" xmlns="http://www.w3.org/2000/svg" xmlns:xlink="http://www.w3.org/1999/xlink">
    <!-- Generator: sketchtool 53.1 (72631) - https://sketchapp.com -->
    <title>2C7ABD44-9FA3-4FD3-8134-C8257D399D07@1x</title>
    <desc>Created with sketchtool.</desc>
    <g id="menus" stroke="none" stroke-width="1" fill="none" fill-rule="evenodd">
        <g id="Profile-Picker-v2---main-account" transform="translate(-18.000000, -284.000000)" fill="#000000">
            <g id="Icons-/-16-/-User" transform="translate(16.000000, 283.000000)">
                <path d="M9.75181699,16.5 C6.4381085,16.5 3.75181699,19.1862915 3.75181699,22.5 L20.248183,22.5 C20.248183,19.1862915 17.5618915,16.5 14.248183,16.5 L9.75181699,16.5 Z M9.75181699,15 L14.248183,15 C18.3903186,15 21.748183,18.3578644 21.748183,22.5 C21.748183,23.3284271 21.0766101,24 20.248183,24 L3.75181699,24 C2.92338987,24 2.25181699,23.3284271 2.25181699,22.5 C2.25181699,18.3578644 5.60968137,15 9.75181699,15 Z M12,10.5061108 C14.0710678,10.5061108 15.75,8.82717865 15.75,6.75611084 C15.75,4.68504303 14.0710678,3.00611084 12,3.00611084 C9.92893219,3.00611084 8.25,4.68504303 8.25,6.75611084 C8.25,8.82717865 9.92893219,10.5061108 12,10.5061108 Z M12,12.0061108 C9.10050506,12.0061108 6.75,9.65560578 6.75,6.75611084 C6.75,3.8566159 9.10050506,1.50611084 12,1.50611084 C14.8994949,1.50611084 17.25,3.8566159 17.25,6.75611084 C17.25,9.65560578 14.8994949,12.0061108 12,12.0061108 Z" id="Combined-Shape"></path>
            </g>
        </g>
    </g>
</svg>