<?xml version="1.0" encoding="utf-8"?>
<!-- Generator: Adobe Illustrator 22.1.0, SVG Export Plug-In . SVG Version: 6.00 Build 0)  -->
<svg version="1.1" id="Layer_1" xmlns="http://www.w3.org/2000/svg" xmlns:xlink="http://www.w3.org/1999/xlink" x="0px" y="0px"
	 viewBox="0 0 30 30" style="enable-background:new 0 0 30 30;" xml:space="preserve">
<style type="text/css">
	.st0{fill:#2D8000;}
</style>
<title>Group 5</title>
<desc>Created with Sketch.</desc>
<g id="Health-Records">
	<g id="HW-HR-all-records" transform="translate(-991.000000, -268.000000)">
		<g id="Group-2" transform="translate(991.000000, 266.000000)">
			<g id="Group-5" transform="translate(0.000000, 2.000000)">
				<path id="Fill-1" class="st0" d="M25.6,24.3c0,0.9-0.7,1.6-1.6,1.6H6.1c-0.9,0-1.6-0.7-1.6-1.6V8.6C4.4,7.7,5.2,7,6.1,7h1.5
					c-0.4,1-0.6,2-0.6,3.1c0,4.4,3.6,8.1,8.1,8.1c4.5,0,8.1-3.6,8.1-8.1c0-1.1-0.2-2.1-0.6-3.1h1.5c0.9,0,1.6,0.7,1.6,1.6V24.3z
					 M15,3.4c1.9,0,3.5,0.7,4.7,2c1.2,1.2,2,2.9,2,4.7c0,1.9-0.7,3.5-2,4.7c-1.2,1.2-2.9,2-4.7,2c-1.9,0-3.5-0.7-4.7-2
					c-1.2-1.2-2-2.9-2-4.7c0-1.9,0.7-3.5,2-4.7C11.5,4.1,13.1,3.4,15,3.4z M23.9,5.6h-2.2C20.3,3.5,17.8,2,15,2S9.7,3.5,8.3,5.6H6.1
					c-1.6,0-3,1.3-3,3v15.7c0,1.6,1.3,3,3,3h17.9c1.6,0,3-1.3,3-3V8.6C26.9,7,25.6,5.6,23.9,5.6z"/>
				<path id="Fill-3" class="st0" d="M14.8,10.8c0.4,0.1,0.7-0.1,0.9-0.4L17,6.5c0.1-0.4-0.1-0.7-0.4-0.9c-0.4-0.1-0.7,0.1-0.9,0.4
					l-1.3,3.8C14.2,10.3,14.4,10.7,14.8,10.8"/>
			</g>
		</g>
	</g>
</g>
</svg>
