<?xml version="1.0" encoding="utf-8"?>
<!-- Generator: Adobe Illustrator 21.1.0, SVG Export Plug-In . SVG Version: 6.00 Build 0)  -->
<svg version="1.1" id="Horiznotal_format_Corp_logo_noTag"
	 xmlns="http://www.w3.org/2000/svg" xmlns:xlink="http://www.w3.org/1999/xlink" x="0px" y="0px" viewBox="0 0 267.1 44.7"
	 style="enable-background:new 0 0 267.1 44.7;" xml:space="preserve">
<style type="text/css">
	.st0{fill:url(#SVGID_1_);}
	.st1{fill:url(#SVGID_2_);}
	.st2{fill:url(#SVGID_3_);}
	.st3{fill:url(#SVGID_4_);}
	.st4{fill:url(#SVGID_5_);}
	.st5{fill:#626366;}
</style>
<linearGradient id="SVGID_1_" gradientUnits="userSpaceOnUse" x1="12.1027" y1="26.9054" x2="162.4527" y2="26.9054" gradientTransform="matrix(0.9982 0 0 -0.9982 -0.2322 52.4702)">
	<stop  offset="0" style="stop-color:#96C93D"/>
	<stop  offset="0.51" style="stop-color:#1BCFC9"/>
	<stop  offset="1" style="stop-color:#7CA1D4"/>
</linearGradient>
<path class="st0" d="M47.3,6.5h14.3l5.3,20h0.4c0.2-1.7,0.6-3.4,1-5.1l4.3-15h14.1l6.3,38.2H79.4l-1.9-20.9h-0.2
	c-0.2,1.3-0.5,2.5-0.9,3.8l-5.5,17.1h-8.1l-5-16.2c-0.4-1.6-0.7-3.1-0.8-4.8h-0.5c-0.1,1.5-0.2,3.1-0.4,4.6l-1.6,16.3H41.1L47.3,6.5
	z"/>
<linearGradient id="SVGID_2_" gradientUnits="userSpaceOnUse" x1="12.1027" y1="26.9054" x2="162.4527" y2="26.9054" gradientTransform="matrix(0.9982 0 0 -0.9982 -0.2322 52.4702)">
	<stop  offset="0" style="stop-color:#94D500"/>
	<stop  offset="0.51" style="stop-color:#1BCFC9"/>
	<stop  offset="1" style="stop-color:#7BA3DC"/>
</linearGradient>
<rect x="95.1" y="6.5" class="st1" width="13.9" height="38.2"/>
<linearGradient id="SVGID_3_" gradientUnits="userSpaceOnUse" x1="12.1027" y1="26.9054" x2="162.4527" y2="26.9054" gradientTransform="matrix(0.9982 0 0 -0.9982 -0.2322 52.4702)">
	<stop  offset="0" style="stop-color:#94D500"/>
	<stop  offset="0.51" style="stop-color:#1BCFC9"/>
	<stop  offset="1" style="stop-color:#7BA3DC"/>
</linearGradient>
<polygon class="st2" points="110.3,6.5 139.5,6.5 139.5,18.9 131.8,18.6 131.8,44.7 118,44.7 118,18.6 110.3,18.9 "/>
<linearGradient id="SVGID_4_" gradientUnits="userSpaceOnUse" x1="12.1027" y1="26.9054" x2="162.4527" y2="26.9054" gradientTransform="matrix(0.9982 0 0 -0.9982 -0.2322 52.4702)">
	<stop  offset="0" style="stop-color:#94D500"/>
	<stop  offset="0.51" style="stop-color:#1BCFC9"/>
	<stop  offset="1" style="stop-color:#7BA3DC"/>
</linearGradient>
<path class="st3" d="M163.5,6.5h-15.3l-13.3,38.2h14.7l1.1-4.8h10.5l1.3,4.8h14.7L163.5,6.5z M153.2,30.9l2.6-11.6h0.5
	c0.2,1.6,0.5,3.3,0.9,4.9l1.6,6.7H153.2z"/>
<linearGradient id="SVGID_5_" gradientUnits="userSpaceOnUse" x1="12.1027" y1="26.9054" x2="162.4527" y2="26.9054" gradientTransform="matrix(0.9982 0 0 -0.9982 -0.2322 52.4702)">
	<stop  offset="0" style="stop-color:#94D500"/>
	<stop  offset="0.51" style="stop-color:#1BC9C9"/>
	<stop  offset="1" style="stop-color:#7BA3DC"/>
</linearGradient>
<polygon class="st4" points="28.7,6.5 13.3,6.5 0.1,44.7 14.8,44.7 15.9,39.9 19.6,39.9 20.9,39.9 19.7,27.2 19.5,25.3 12.6,23.8 
	19.5,22.3 21,12.6 21,12.7 21.1,12.6 22.6,22.3 29.4,23.8 22.6,25.3 22.4,27.2 21.2,39.9 23.9,39.9 26.3,39.9 27.6,44.7 42.3,44.7 
	"/>
<path class="st5" d="M195,44.7v-6.6h-8.4v6.6h-1.8V30.3h1.8v6.2h8.4v-6.2h1.8v14.4H195z"/>
<path class="st5" d="M199.6,44.7V30.3h9.4v1.6h-7.6v4.6h7.5v1.6h-7.5v5h7.6v1.6L199.6,44.7z"/>
<path class="st5" d="M223.2,44.7l-1.3-3.2h-7.2l-1.3,3.2h-2.1l5.8-14.4h2.2l5.8,14.4L223.2,44.7z M218.4,32.1l-3.1,7.8h6.1
	L218.4,32.1z"/>
<path class="st5" d="M227.8,44.7V30.3h1.8v12.8h6.7v1.6H227.8z"/>
<path class="st5" d="M240.3,44.7V31.9h-4.6v-1.6h10.9v1.6H242v12.8H240.3z"/>
<path class="st5" d="M259.2,44.7v-6.6h-8.4v6.6H249V30.3h1.8v6.2h8.4v-6.2h1.8v14.4H259.2z"/>
<path class="st5" d="M265.1,34.1c-1.1,0-1.9-0.9-1.9-1.9c0-1.1,0.9-1.9,1.9-1.9s1.9,0.9,1.9,1.9C267.1,33.2,266.2,34.1,265.1,34.1
	L265.1,34.1z M265.1,30.5c-0.9,0-1.6,0.7-1.6,1.6c0,0,0,0,0,0c-0.1,0.9,0.6,1.7,1.5,1.8c0.9,0.1,1.7-0.6,1.8-1.5c0-0.1,0-0.2,0-0.3
	C266.8,31.3,266.1,30.6,265.1,30.5C265.2,30.6,265.1,30.5,265.1,30.5z M265.7,33.3l-0.6-0.9h-0.4v0.9h-0.3v-2.2h0.9
	c0.4,0,0.7,0.3,0.7,0.6c0,0,0,0,0,0c0,0.3-0.2,0.6-0.6,0.6l0.6,0.9L265.7,33.3z M265.3,31.4h-0.6v0.8h0.6c0.2,0,0.4-0.2,0.4-0.4
	C265.7,31.5,265.5,31.4,265.3,31.4z"/>
</svg>
