<?xml version="1.0" encoding="UTF-8"?>
<svg width="134px" height="134px" viewBox="0 0 134 134" version="1.1" xmlns="http://www.w3.org/2000/svg" xmlns:xlink="http://www.w3.org/1999/xlink">
    <!-- Generator: sketchtool 55.2 (78181) - https://sketchapp.com -->
    <title>4C2CD72E-69E8-4610-8B18-A78D61802358@1x</title>
    <desc>Created with sketchtool.</desc>
    <defs>
        <path d="M0,0 L0,103.371 C0,120.287 13.713,134 30.629,134 L30.629,134 L103.371,134 C120.287,134 134,120.287 134,103.371 L134,103.371 L134,30.628 C134,13.712 120.287,0 103.371,0 L103.371,0 L0,0 Z" id="path-1"></path>
        <path d="M0,0 L0,48.153 C16.634,59.556 38.292,59.556 64.976,48.153 L64.976,48.153 C91.658,36.75 114.667,36.75 134,48.153 L134,48.153 L134,30.628 C134,13.712 120.287,0 103.371,0 L103.371,0 L0,0 Z" id="path-3"></path>
        <path d="M4,0 C1.791,0 0,1.79 0,4 L0,4 L0,73 L21,94 L70,94 C72.209,94 74,92.209 74,90 L74,90 L74,4 C74,1.79 72.209,0 70,0 L70,0 L4,0 Z" id="path-5"></path>
        <path d="M1.061,0 C0.475,0 0,0.447 0,1 L0,1 L0,3 C0,3.551 0.475,4 1.061,4 L1.061,4 L33.939,4 C34.525,4 35,3.551 35,3 L35,3 L35,1 C35,0.447 34.525,0 33.939,0 L33.939,0 L1.061,0 Z" id="path-7"></path>
        <path d="M1.061,0 C0.475,0 0,0.447 0,1 L0,1 L0,3 C0,3.551 0.475,4 1.061,4 L1.061,4 L33.939,4 C34.525,4 35,3.551 35,3 L35,3 L35,1 C35,0.447 34.525,0 33.939,0 L33.939,0 L1.061,0 Z" id="path-9"></path>
        <path d="M1,0 C0.447,0 0,0.447 0,1 L0,1 L0,3 C0,3.551 0.447,4 1,4 L1,4 L3,4 C3.552,4 4,3.551 4,3 L4,3 L4,1 C4,0.447 3.552,0 3,0 L3,0 L1,0 Z" id="path-11"></path>
        <path d="M1,0 C0.447,0 0,0.447 0,1 L0,1 L0,3 C0,3.551 0.447,4 1,4 L1,4 L3,4 C3.552,4 4,3.551 4,3 L4,3 L4,1 C4,0.447 3.552,0 3,0 L3,0 L1,0 Z" id="path-13"></path>
        <path d="M0,24.5 C0,38.031 10.969,49 24.5,49 L24.5,49 C38.031,49 49,38.031 49,24.5 L49,24.5 C49,10.969 38.031,0 24.5,0 L24.5,0 C10.969,0 0,10.969 0,24.5 L0,24.5 Z" id="path-15"></path>
        <path d="M3.074,1.173 C1.148,2.399 0.124,4.479 0,7.414 L0,7.414 L4.464,7.414 C4.464,6.56 4.714,5.736 5.213,4.943 L5.213,4.943 C5.713,4.15 6.56,3.753 7.754,3.753 L7.754,3.753 C8.969,3.753 9.805,4.075 10.264,4.719 L10.264,4.719 C10.723,5.362 10.952,6.075 10.952,6.859 L10.952,6.859 C10.952,7.538 10.746,8.161 10.334,8.726 L10.334,8.726 C10.108,9.057 9.809,9.361 9.437,9.639 L9.437,9.639 L8.311,10.518 C7.198,11.384 6.508,12.148 6.241,12.812 L6.241,12.812 C5.972,13.477 5.808,14.679 5.746,16.419 L5.746,16.419 L9.917,16.419 C9.927,15.596 9.994,14.988 10.117,14.597 L10.117,14.597 C10.314,13.979 10.71,13.439 11.307,12.974 L11.307,12.974 L12.404,12.125 C13.515,11.261 14.268,10.55 14.659,9.993 L14.659,9.993 C15.328,9.077 15.663,7.95 15.663,6.611 L15.663,6.611 C15.663,4.428 14.894,2.78 13.353,1.668 L13.353,1.668 C11.814,0.556 9.881,0 7.554,0 L7.554,0 C5.782,0 4.289,0.391 3.074,1.173 L3.074,1.173 Z M5.637,23 L10.241,23 L10.241,18.535 L5.637,18.535 L5.637,23 Z" id="path-17"></path>
    </defs>
    <g id="Page-1" stroke="none" stroke-width="1" fill="none" fill-rule="evenodd">
        <g id="my-bills---other-type-modal" transform="translate(-533.000000, -193.000000)">
            <g id="Group-35" transform="translate(533.000000, 193.000000)">
                <g id="Group-3">
                    <mask id="mask-2" fill="white">
                        <use xlink:href="#path-1"></use>
                    </mask>
                    <g id="Clip-2"></g>
                    <polygon id="Fill-1" fill="#49B8E6" mask="url(#mask-2)" points="-5 139 139 139 139 -5 -5 -5"></polygon>
                </g>
                <g id="Group-6">
                    <mask id="mask-4" fill="white">
                        <use xlink:href="#path-3"></use>
                    </mask>
                    <g id="Clip-5"></g>
                    <polygon id="Fill-4" fill="#74C8E9" mask="url(#mask-4)" points="-5 61.705 139 61.705 139 -5 -5 -5"></polygon>
                </g>
                <g id="Group-9" transform="translate(30.000000, 20.000000)">
                    <mask id="mask-6" fill="white">
                        <use xlink:href="#path-5"></use>
                    </mask>
                    <g id="Clip-8"></g>
                    <polygon id="Fill-7" fill="#FFFFFF" mask="url(#mask-6)" points="-5 99 79 99 79 -5 -5 -5"></polygon>
                </g>
                <g id="Group-12" transform="translate(46.000000, 85.000000)">
                    <mask id="mask-8" fill="white">
                        <use xlink:href="#path-7"></use>
                    </mask>
                    <g id="Clip-11"></g>
                    <polygon id="Fill-10" fill="#A4BDC9" mask="url(#mask-8)" points="-5 9 40 9 40 -5 -5 -5"></polygon>
                </g>
                <g id="Group-15" transform="translate(46.000000, 93.000000)">
                    <mask id="mask-10" fill="white">
                        <use xlink:href="#path-9"></use>
                    </mask>
                    <g id="Clip-14"></g>
                    <polygon id="Fill-13" fill="#A4BDC9" mask="url(#mask-10)" points="-5 9 40 9 40 -5 -5 -5"></polygon>
                </g>
                <g id="Group-18" transform="translate(85.000000, 85.000000)">
                    <mask id="mask-12" fill="white">
                        <use xlink:href="#path-11"></use>
                    </mask>
                    <g id="Clip-17"></g>
                    <polygon id="Fill-16" fill="#002E54" mask="url(#mask-12)" points="-5 9 9 9 9 -5 -5 -5"></polygon>
                </g>
                <g id="Group-21" transform="translate(85.000000, 93.000000)">
                    <mask id="mask-14" fill="white">
                        <use xlink:href="#path-13"></use>
                    </mask>
                    <g id="Clip-20"></g>
                    <polygon id="Fill-19" fill="#002E54" mask="url(#mask-14)" points="-5 9 9 9 9 -5 -5 -5"></polygon>
                </g>
                <polygon id="Fill-22" fill="#C3E7F5" points="30.0001 93.0001 51.0001 114.0001 51.0001 93.0001"></polygon>
                <g id="Group-25" transform="translate(42.000000, 28.000000)">
                    <mask id="mask-16" fill="white">
                        <use xlink:href="#path-15"></use>
                    </mask>
                    <g id="Clip-24"></g>
                    <polygon id="Fill-23" fill="#ED2D22" mask="url(#mask-16)" points="-5 54 54 54 54 -5 -5 -5"></polygon>
                </g>
                <path d="M66.499999,76.999999 L66.499999,79.999999 C74.084,80.002 80.979,76.917 85.945,71.945 C90.917,66.978 94.002,60.084 93.999999,52.499999 C94.002,44.915 90.917,38.021 85.945,33.055 C80.979,28.082 74.084,24.998 66.499999,24.999999 C58.915,24.998 52.021,28.082 47.055,33.055 C42.082,38.021 38.998,44.915 38.999999,52.499999 C38.998,60.084 42.083,66.978 47.055,71.945 C52.021,76.917 58.915,80.002 66.499999,79.999999 L66.499999,76.999999 L66.499999,73.999999 C60.553,73.998 55.197,71.598 51.297,67.702 C47.401,63.803 45.002,58.446 44.999999,52.499999 C45.002,46.553 47.401,41.197 51.297,37.297 C55.197,33.401 60.553,31.002 66.499999,30.999999 C72.446,31.002 77.803,33.401 81.703,37.297 C85.598,41.197 87.998,46.553 87.999999,52.499999 C87.998,58.446 85.599,63.803 81.703,67.702 C77.803,71.598 72.446,73.998 66.499999,73.999999 L66.499999,76.999999 Z" id="Fill-26" fill="#002E54"></path>
                <g id="Group-30" transform="translate(59.000000, 41.000000)">
                    <mask id="mask-18" fill="white">
                        <use xlink:href="#path-17"></use>
                    </mask>
                    <g id="Clip-29"></g>
                    <polygon id="Fill-28" fill="#FFFFFF" mask="url(#mask-18)" points="-5 28 20.663 28 20.663 -5 -5 -5"></polygon>
                </g>
                <polygon id="Fill-31" fill="#002E54" points="83.5294 69.4786 112.5204 98.4706 117.4714 93.5206 88.4794 64.5296"></polygon>
                <polygon id="Fill-32" fill="#002E54" points="86.4085 76.6003 115.3995 105.5923 124.5915 96.3993 95.6005 67.4083"></polygon>
                <polygon id="Fill-33" fill="#004E7F" points="111.1576 101.3485 115.3996 105.5915 124.5916 96.3995 120.3496 92.1555"></polygon>
                <polygon id="Fill-34" fill="#004E7F" points="86.4085 76.6003 90.6505 80.8433 99.8425 71.6503 95.6005 67.4083"></polygon>
            </g>
        </g>
    </g>
</svg>