<?xml version="1.0" encoding="utf-8"?>
<!-- Generator: Adobe Illustrator 22.0.1, SVG Export Plug-In . SVG Version: 6.00 Build 0)  -->
<svg version="1.1" id="Layer_1" xmlns="http://www.w3.org/2000/svg" xmlns:xlink="http://www.w3.org/1999/xlink" x="0px" y="0px"
	 viewBox="0 0 800 600" style="enable-background:new 0 0 800 600;" xml:space="preserve">
<style type="text/css">
	.st0{fill:#FFFFFF;}
	.st1{opacity:0.49;fill:#E5F8FA;}
	.st2{opacity:0.17;fill:#C0E0E5;}
	.st3{opacity:0.32;}
	.st4{opacity:0.85;fill:#59DB59;}
	.st5{fill:#E5F8FA;}
	.st6{opacity:0.6;}
	.st7{fill:#C0E0E5;}
	.st8{fill:#B8D8DB;}
	.st9{opacity:0.57;}
	.st10{fill:#8AC4D4;}
	.st11{fill:#00D0E2;}
	.st12{fill:#FF9F6B;}
	.st13{fill:#005872;}
	.st14{fill:#00BED5;}
	.st15{fill:#FDFCF0;}
	.st16{fill:#91D757;}
	.st17{fill:#BDEAA1;}
	.st18{fill:#F66E3C;}
	.st19{fill:#33899B;}
	.st20{fill:#8FBBC5;}
	.st21{fill:#FFD68E;}
	.st22{fill:#FFB926;}
	.st23{fill:#FF9900;}
	.st24{fill:#FFF4E2;}
	.st25{fill:#D1E6ED;}
	.st26{opacity:0.4;}
	.st27{fill:#8ACA4F;}
	.st28{opacity:0.37;fill:#FFF4E2;}
	.st29{fill:#D4EAEE;}
	.st30{clip-path:url(#SVGID_6_);}
	.st31{fill:none;}
	.st32{clip-path:url(#SVGID_6_);fill:#A1D669;}
	.st33{fill:#99C961;}
	.st34{fill:#FFF5E5;}
	.st35{fill:#FED89E;}
	.st36{fill:#FFF5E6;}
	.st37{fill:#4E8899;}
	.st38{fill:#FD9F28;}
	.st39{fill:#FDBC57;}
	.st40{fill:#A2D46F;}
	.st41{fill:#E47650;}
	.st42{fill:#CCE7EA;}
	.st43{clip-path:url(#SVGID_8_);}
	.st44{fill:#A1D669;}
	.st45{fill:#DFF8FA;}
	.st46{fill:none;stroke:#C0E0E5;stroke-width:1.5;stroke-linecap:round;stroke-linejoin:round;stroke-miterlimit:10;}
	.st47{fill:none;stroke:#8CA0A4;stroke-width:2.5;stroke-linecap:round;stroke-linejoin:round;stroke-miterlimit:10;}
	.st48{fill:none;stroke:#FFF4E2;stroke-width:1.5;stroke-linecap:round;stroke-linejoin:round;stroke-miterlimit:10;}
	.st49{fill:none;stroke:#005872;stroke-width:2;stroke-linecap:round;stroke-linejoin:round;stroke-miterlimit:10;}
	.st50{fill:#E6EBEE;}
	.st51{fill:none;stroke:#8CA0A4;stroke-width:3;stroke-linecap:round;stroke-linejoin:round;stroke-miterlimit:10;}
	.st52{fill:none;stroke:#8AB29D;stroke-width:3;stroke-linecap:round;stroke-linejoin:round;stroke-miterlimit:10;}
	.st53{fill:#006951;}
	.st54{fill:#8CA0A4;}
	.st55{fill:#F3FAFD;}
	.st56{opacity:0.7;}
	.st57{fill:#B5D3D8;}
	.st58{fill:#EDF1EA;}
	.st59{fill:#DFF9F7;}
	.st60{fill:#FFC7AB;}
	.st61{opacity:0.8;fill:#00D0E2;}
	.st62{fill:#008395;}
	.st63{fill:#F8E874;}
	.st64{fill:#004938;}
	.st65{fill:#DED268;}
	.st66{fill:#818D00;}
	.st67{clip-path:url(#SVGID_10_);}
	.st68{opacity:0.2;}
	.st69{clip-path:url(#SVGID_12_);}
	.st70{clip-path:url(#SVGID_14_);}
	.st71{opacity:0.3;}
	.st72{clip-path:url(#SVGID_16_);}
	.st73{fill:#3CBA3C;}
	.st74{opacity:0.6;fill:#DEF8F8;}
	.st75{fill:#59DB59;}
	.st76{fill:#C1FF85;}
	.st77{fill:none;stroke:#FFCC81;stroke-width:0.5;stroke-linecap:round;stroke-linejoin:round;stroke-miterlimit:10;}
	.st78{fill:#6CD828;}
	.st79{fill:#00C700;}
	.st80{fill:#DEF8F8;}
	.st81{fill:#FD8D63;}
	.st82{fill:#BE5114;}
	.st83{fill:#B14515;}
	.st84{fill:#00B2CE;}
	.st85{fill:#E4EBEE;}
	.st86{fill:#003C4F;}
	.st87{fill:none;stroke:#00D0E2;stroke-width:3;stroke-linecap:round;stroke-linejoin:round;stroke-miterlimit:10;}
	.st88{fill:none;stroke:#003C4F;stroke-width:2;stroke-linecap:round;stroke-linejoin:round;stroke-miterlimit:10;}
	.st89{fill:none;stroke:#003C4F;stroke-width:3;stroke-linecap:round;stroke-linejoin:round;stroke-miterlimit:10;}
	.st90{fill:none;stroke:#003C4F;stroke-linecap:round;stroke-linejoin:round;stroke-miterlimit:10;}
	.st91{fill:#00B8ED;}
	.st92{fill:none;stroke:#00B8ED;stroke-linecap:round;stroke-linejoin:round;stroke-miterlimit:10;}
	.st93{fill:none;stroke:#00B8ED;stroke-width:0.75;stroke-linecap:round;stroke-linejoin:round;stroke-miterlimit:10;}
	.st94{fill:none;stroke:#003928;stroke-width:0.5;stroke-linecap:round;stroke-miterlimit:10;}
	.st95{fill:#F9F09E;}
	.st96{fill:none;stroke:#003C4F;stroke-width:0.5;stroke-linecap:round;stroke-linejoin:round;stroke-miterlimit:10;}
	.st97{fill:#00B4E7;}
	.st98{opacity:0.14;}
	.st99{clip-path:url(#SVGID_18_);fill:#FFF7F9;}
	.st100{fill:#FFF7F9;}
	.st101{fill:#848484;}
	.st102{fill:#FFCC66;}
	.st103{fill:#FFBE38;}
	.st104{fill:#FFA71C;}
	.st105{fill:#FFE9BF;}
	.st106{fill:#47786F;}
	.st107{fill:#FFC65B;}
	.st108{fill:#FFBA32;}
	.st109{fill:#FFA519;}
	.st110{fill:#FFE0AA;}
	.st111{fill:#5B7C63;}
	.st112{fill:#ABE573;}
	.st113{fill:#87C149;}
	.st114{fill:#FFBE36;}
	.st115{fill:#FFA61A;}
	.st116{fill:#FFC85A;}
	.st117{fill:#FFB333;}
	.st118{fill:#EFE2B0;}
	.st119{fill:#FFC346;}
	.st120{fill:#FFD18A;}
	.st121{fill:#FFAD17;}
	.st122{fill:#FFB52B;}
	.st123{fill:#E7EDD5;}
	.st124{fill:#FFEAC3;}
	.st125{fill:#CFEAED;}
	.st126{fill:#D9ECEF;}
	.st127{opacity:0.21;fill:#FFE0AA;}
	.st128{fill:#F4F4F4;}
</style>
<g>
	<path class="st5" d="M331.6,39.2c-21.1,1.8-41.9,5.2-62.4,10.1C192.9,67.7,118.8,112,70.8,181.6c-25.5,36.9-40.4,85.9-29,130.6
		c6.7,26.1,21.7,48.8,39,68c47.6,52.7,115,90.5,176.6,118.8c68.8,31.6,142.4,51.6,216.8,57c11.8,0.9,23.5,1.4,35.3,1.5
		c51.6,0.5,105.4-6.9,152.2-32.4c53.8-29.3,91.7-88.7,104.1-153.2c16.1-83.9-21.6-171.4-78.5-225.8c-46.4-44.4-102.4-66-159.9-85.5
		C465.4,39.6,396,33.5,331.6,39.2z"/>
</g>
<g class="st6">
	<rect x="250.7" y="229.5" class="st42" width="16.1" height="20"/>
	<path class="st42" d="M281.4,249.5h-45.2v-4.3c0-1,0.8-1.8,1.8-1.8h41.5c1,0,1.8,0.8,1.8,1.8V249.5z"/>
	<path class="st42" d="M212.6,249.5h-6.1V246c0-1.5,1.2-2.7,2.7-2.7h0.8c1.5,0,2.7,1.2,2.7,2.7V249.5z"/>
	<path class="st7" d="M355.3,315v-59.6H162.7v60.3c0,0.5-0.4,1-1,1h-6c-0.5,0-1-0.4-1-1v-63.4c0-3.2,2.6-5.8,5.8-5.8h196.8
		c3,0,5.4,2.4,5.4,5.4l0.3,63.1c0,0.9-0.7,1.7-1.7,1.7h-4.5C356,316.6,355.3,315.9,355.3,315z"/>
	<path class="st7" d="M300.2,234.2h-82.8c-2.8,0-5-2.2-5-5V190c0-2.8,2.2-5,5-5h82.8c2.8,0,5,2.2,5,5v39.2
		C305.2,232,303,234.2,300.2,234.2z"/>
	<rect x="212.6" y="190.7" class="st42" width="92.6" height="37.8"/>
	<rect x="309.8" y="82.6" class="st42" width="46.3" height="66"/>
	<rect x="600.4" y="229.5" class="st42" width="16.1" height="20"/>
	<path class="st42" d="M631,249.5h-45.2v-4.3c0-1,0.8-1.8,1.8-1.8h41.5c1,0,1.8,0.8,1.8,1.8V249.5z"/>
	<path class="st42" d="M661,249.5h-6.1V246c0-1.5,1.2-2.7,2.7-2.7h0.8c1.5,0,2.7,1.2,2.7,2.7V249.5z"/>
	<g>
		<path class="st7" d="M777.5,318.6H25.6c-0.6,0-1.1-0.5-1.1-1.1s0.5-1.1,1.1-1.1h751.9c0.6,0,1.1,0.5,1.1,1.1
			S778.1,318.6,777.5,318.6z"/>
	</g>
	<path class="st7" d="M691.6,284.3l-1.7,33.2c0,1.4-27.3,1.4-27.3,0l-1.7-33.2c0-2.3,6.8-4.1,15.3-4.1
		C684.8,280.2,691.6,282.1,691.6,284.3z"/>
	<g>
		<path class="st7" d="M475.6,218.7l0-4.5c0-1,0.8-1.8,1.8-1.8l20.9,0c1,0,1.8,0.8,1.8,1.8l0,4.5c0,1-0.8,1.8-1.8,1.8l-20.9,0
			C476.4,220.6,475.6,219.8,475.6,218.7z"/>
	</g>
	<g>
		<path class="st7" d="M162.1,148.8l0-4.5c0-1,0.8-1.8,1.8-1.8l20.9,0c1,0,1.8,0.8,1.8,1.8l0,4.5c0,1-0.8,1.8-1.8,1.8l-20.9,0
			C162.9,150.6,162.1,149.8,162.1,148.8z"/>
	</g>
	<g>
		<path class="st7" d="M669.9,144.7l0-4.5c0-1,0.8-1.8,1.8-1.8l20.9,0c1,0,1.8,0.8,1.8,1.8l0,4.5c0,1-0.8,1.8-1.8,1.8l-20.9,0
			C670.7,146.5,669.9,145.7,669.9,144.7z"/>
	</g>
	<path class="st7" d="M463,233.9c-1-0.1-1.8-0.9-1.9-2l0-6.3c0-0.5,0.2-1,0.6-1.4c0.4-0.4,0.9-0.6,1.4-0.6l22.7,0c1.1,0,2,0.9,2,2
		l0,6.3c0,0.5-0.2,1-0.6,1.4c-0.4,0.4-0.9,0.6-1.4,0.6l-22.7,0C463.1,233.9,463,233.9,463,233.9z M463.2,231.9L463.2,231.9
		L463.2,231.9z M485.7,225.6l-22.6,0.1l0.1,6.1l22.6,0L485.7,225.6z"/>
	<g>
		<path class="st7" d="M98.5,262.1c2.3,0.3,4.7-0.8,6.1-2.6c1.7-2.2,1.9-5.3,1.1-7.9c-0.9-3-3.2-5.6-6-6.9c-2.4-1.1-5.1-1.3-7.6-0.8
			c-4,0.7-7.6,3.1-9.9,6.4c-2.9,4.3-3.8,10.8-0.7,15.3c0.2,0.3,0.5,0.6,0.8,0.8c1.7,0.8,2.9-1.7,3.5-2.9c0.5-1.2,1-2.5,2-3.4
			c1.7-1.5,4.3-1.4,6.3-0.3c1.1,0.6,2.1,1.5,3.3,2C97.6,261.9,98.1,262,98.5,262.1z"/>
	</g>
	<g>
		<path class="st7" d="M116.3,232.7c-0.9,1.5-3.6,5.7-2.2,10.9c1,3.5,3.4,7,7.2,7.8c4.7,1,9.6-2.6,13-5.5c4.5-3.8,8.6-8.4,13.9-11
			c3.3-1.6,6.5-1.7,10.1-2c0.5,0,1.1-0.1,1.4-0.6c0.4-0.6,0-1.3-0.4-1.9c-0.9-1.2-4.7-5.4-15-6.7c-3.7-0.5-7.8-1-13.1,0.2
			C127.3,224.8,120.2,226.5,116.3,232.7z"/>
	</g>
	<path class="st7" d="M129.7,286.4l0,0.2l-5,28.1c0,1.5-6.6,2.7-14.7,2.7s-14.7-1.2-14.7-2.7l-5-28.1l0-0.2c0-2,8.9-3.7,19.8-3.7
		S129.7,284.4,129.7,286.4z"/>
	<g>
		<path class="st42" d="M109.9,290.1c-0.4,0-0.8,0-1.2,0c0-2.3-0.1-4.8-0.3-7.3c-0.1-1.7-0.2-3.5-0.4-5.2c0,0,0,0,0,0
			c-0.2-2.3-0.6-4.7-1-6.9c-1-5.4-2.7-10.2-5.2-13.4c-1.2-1.6-3.5-4.5-7-4.9c-3.8-0.4-7.1,2.5-8.7,4.2c-0.4,0.5-1.1,0.5-1.6,0.1l0,0
			c-0.5-0.4-0.6-1.2-0.1-1.7c2-2.2,5.8-5.4,10.6-5c4.5,0.4,7.3,4,8.6,5.7c2,2.6,3.5,6,4.6,10c0.4,1.6,0.8,3.2,1.1,4.9
			c0.7,3.7,1.1,7.6,1.4,11.4c0,0.2,0,0.5,0,0.7c0.2,2.5,0.2,5,0.2,7.3C110.7,290.1,110.3,290.1,109.9,290.1L109.9,290.1z"/>
	</g>
	<g>
		<path class="st42" d="M144.4,229.5c0.1,0.6-0.3,1.2-0.9,1.3c-6.1,1.1-11.8,3.6-16.4,7.2c-3,2.3-7.5,6.5-12.1,16.3
			c-0.8,1.8-1.6,3.6-2.3,5.4c-0.7,1.9-1.3,3.7-1.9,5.6c-0.6,1.8-1.1,3.7-1.5,5.5c-0.5,2.3-1,4.6-1.4,6.9c0,0,0,0,0,0
			c-0.3,1.8-0.5,3.5-0.7,5.2c-0.3,2.5-0.5,4.9-0.6,7.3c-0.8,0-1.6,0-2.3-0.1c0.1-2.3,0.3-4.7,0.6-7.1c0.4-4,1.1-8.1,2-12.2
			c0.4-1.6,0.8-3.2,1.2-4.8c0.6-2.2,1.3-4.3,2.1-6.5c0.6-1.5,1.1-2.9,1.8-4.4c0.2-0.5,0.5-1.1,0.7-1.6c4.8-10.2,9.6-14.7,12.7-17.1
			c5-3.8,11-6.4,17.4-7.6C143.7,228.4,144.3,228.8,144.4,229.5L144.4,229.5z"/>
	</g>
	<path class="st7" d="M111.1,233.5c0.5-0.5,0.9-1.1,1.3-1.7c1.5-2.7,1.2-5.9,0.6-8.9c-3.1-15.4-13.1-28.4-25.9-37
		c-4.7-3.2-9.8-5.9-15.2-7.6c-1.9-0.6-6.9-2.4-8.6-0.3c-2.9,3.5,4.4,12.2,6.4,14.8c3.7,4.8,8,9.4,9.9,15.3c1.5,4.5,1.4,9.5,2.8,14
		c2.7,8.3,10.9,14.4,19.6,14.7C105.2,236.8,108.8,235.9,111.1,233.5z"/>
	<g>
		<path class="st42" d="M113,282.8c-0.2,2.5-0.4,4.9-0.7,7.3c-0.4,0-0.8,0-1.3,0c-0.4,0-0.7,0-1.1,0c0.3-2.4,0.6-4.8,0.7-7.3
			c0-0.2,0-0.5,0.1-0.7c0.4-5.4,0.4-11,0.1-16.9c-0.1-1.9-0.3-3.9-0.5-5.9c-1.3-12.1-4.4-24.9-10.4-37.8
			c-4.1-8.8-9.3-17.1-15.5-24.7c-0.4-0.5-0.3-1.2,0.2-1.6l0,0c0.5-0.4,1.2-0.3,1.6,0.2c6.3,7.8,11.6,16.2,15.8,25.2
			c5.4,11.7,8.5,23.3,10.1,34.3c0.2,1.6,0.4,3.2,0.6,4.7C113.5,267.8,113.5,275.6,113,282.8z"/>
	</g>
	<path class="st7" d="M704.9,315v-59.6H512.3v60.3c0,0.5-0.4,1-1,1h-6c-0.5,0-1-0.4-1-1v-63.4c0-3.2,2.6-5.8,5.8-5.8H707
		c3,0,5.4,2.4,5.4,5.4l0.3,63.1c0,0.9-0.7,1.7-1.7,1.7h-4.5C705.7,316.6,704.9,315.9,704.9,315z"/>
	<path class="st7" d="M649.8,234.2H567c-2.8,0-5-2.2-5-5V190c0-2.8,2.2-5,5-5h82.8c2.8,0,5,2.2,5,5v39.2
		C654.8,232,652.6,234.2,649.8,234.2z"/>
	<rect x="562.1" y="190.7" class="st42" width="92.6" height="37.8"/>
	<path class="st7" d="M361.6,76.5h-56.7c-1.2,0-2.2,1-2.2,2.2v75.7c0,1.2,1,2.2,2.2,2.2h56.7c1.2,0,2.2-1,2.2-2.2V78.7
		C363.8,77.5,362.8,76.5,361.6,76.5z M353.3,145.2c0,0.7-0.6,1.3-1.3,1.3h-37.4c-0.7,0-1.3-0.6-1.3-1.3V87.9c0-0.7,0.6-1.3,1.3-1.3
		h37.4c0.7,0,1.3,0.6,1.3,1.3V145.2z"/>
</g>
<g>
	<path class="st22" d="M533.8,504.4c-0.1,0.1-0.3,0.1-0.4,0.1h-0.2v0c-1.3,0-2.7-1.3-3.3-3.2c-0.8-2.2-0.3-4.4,1.1-4.9
		c0.2-0.1,0.4-0.1,0.7-0.1c0.1,0,0.1,0,0.2,0c1.2,0.2,2.5,1.4,3.1,3.2C535.7,501.7,535.2,503.9,533.8,504.4z"/>
	<path class="st23" d="M539.5,504.4c-0.1,0.1-0.3,0.1-0.4,0.1h-5.6c0.2,0,0.3,0,0.4-0.1c1.4-0.5,1.9-2.7,1.1-4.9
		c-0.6-1.8-1.9-3-3.1-3.2h5.3c1.3-0.1,2.7,1.2,3.5,3.2C541.3,501.7,540.8,503.9,539.5,504.4z"/>
	<path class="st22" d="M504.8,471c-0.1,0.1-0.3,0.1-0.4,0.1h-0.2v0c-1.3,0-2.7-1.3-3.3-3.2c-0.8-2.2-0.3-4.4,1.1-4.9
		c0.2-0.1,0.4-0.1,0.7-0.1c0.1,0,0.1,0,0.2,0c1.2,0.2,2.5,1.4,3.1,3.2C506.7,468.3,506.2,470.5,504.8,471z"/>
	<path class="st23" d="M510.5,471c-0.1,0.1-0.3,0.1-0.4,0.1h-5.6c0.2,0,0.3,0,0.4-0.1c1.4-0.5,1.9-2.7,1.1-4.9
		c-0.6-1.8-1.9-3-3.1-3.2h5.3c1.3-0.1,2.7,1.2,3.5,3.2C512.4,468.3,511.9,470.5,510.5,471z"/>
	<path class="st22" d="M549.4,479.7l-0.8-0.9C548.8,479,549.1,479.4,549.4,479.7z"/>
	<path class="st23" d="M551.6,486.7c0,2.1-1.7,3.7-3.7,3.7c-1.1,0-2-0.4-2.7-1.2l-0.2-0.3c-0.5-0.6-0.8-1.5-0.8-2.3
		c0-0.1,0-0.2,0-0.4c0.2-1.9,1.8-3.4,3.7-3.4c0,0,0.1,0,0.1,0c1,0,1.9,0.4,2.5,1.1l0,0C551.2,484.8,551.6,485.7,551.6,486.7z"/>
	<path class="st22" d="M550.5,484.1c-0.7-0.7-1.5-1.1-2.5-1.1c0,0-0.1,0-0.1,0c-1.9,0-3.6,1.5-3.7,3.4c0,0.1,0,0.2,0,0.4
		c0,0.9,0.3,1.7,0.8,2.3l-3.3-3.8l-0.2-0.2c-0.6-0.7-0.9-1.5-0.9-2.4c0-2.1,1.7-3.7,3.7-3.7c0.9,0,1.8,0.3,2.4,0.9l0.7,0.8l0,0
		L550.5,484.1z"/>
	<path class="st23" d="M499.7,486.7c0,2.1-1.7,3.7-3.7,3.7c-1.1,0-2-0.4-2.7-1.2l-0.2-0.3c-0.5-0.6-0.8-1.5-0.8-2.3
		c0-0.1,0-0.2,0-0.4c0.2-1.9,1.8-3.4,3.7-3.4c0,0,0.1,0,0.1,0c1,0,1.9,0.4,2.5,1.1l0,0C499.3,484.8,499.7,485.7,499.7,486.7z"/>
	<path class="st22" d="M498.6,484.1c-0.7-0.7-1.5-1.1-2.5-1.1c0,0-0.1,0-0.1,0c-1.9,0-3.6,1.5-3.7,3.4c0,0.1,0,0.2,0,0.4
		c0,0.9,0.3,1.7,0.8,2.3l-3.3-3.8l-0.2-0.2c-0.6-0.7-0.9-1.5-0.9-2.4c0-2.1,1.7-3.7,3.7-3.7c0.9,0,1.8,0.3,2.4,0.9l0.7,0.8l0,0
		L498.6,484.1z"/>
	<g>
		<path class="st22" d="M553,477.8v4.5c0,0.9-0.8,1.7-1.7,1.7H532l-3.5-3.9L553,477.8z"/>
		<path class="st22" d="M486.4,474.9v3.2c0,1.2,0.4,2.3,1.2,3.1l0.7,0.8c1.1,1.3,2.7,2,4.4,2h26.2v-3.9h-26.1
			c-1.7,0-3.4-0.7-4.5-2.1L486.4,474.9z"/>
		<path class="st35" d="M550.8,480.1h-58c-1.7,0-3.3-0.7-4.5-2l-1.4-1.5c-1.2-1.4-0.2-3.6,1.6-3.6h58c1.7,0,3.4,0.7,4.5,2.1l1.3,1.5
			C553.7,477.9,552.7,480.1,550.8,480.1z"/>
		<path class="st36" d="M518.9,480.1v3.9l12.8,14.4c1.2,1.3,2.8,2.1,4.6,2.1h2c1.4,0,2.5-1.1,2.5-2.5v-3.4l-7.2,0.7L518.9,480.1z"/>
		<path class="st36" d="M500.4,458.2v3.8c0,0.7,0.3,1.4,0.7,1.9l8,9h3.5L500.4,458.2z"/>
		<path class="st35" d="M538.7,496.5h-2.5c-1.7,0-3.4-0.7-4.5-2l-12.8-14.4l-6.4-7.2l-11.7-13.2c-1.1-1.3-0.2-3.3,1.5-3.3h2.5
			c1.7,0,3.4,0.7,4.5,2l12.8,14.4l6.4,7.2l11.7,13.2C541.3,494.5,540.4,496.5,538.7,496.5z"/>
		<path class="st23" d="M524.6,414.1v61.7l0,0c0,0.1,0,0.1,0,0.2c-0.2,1.4-2.6,2.1-5.3,1.7c-2.6-0.4-4.5-1.7-4.5-3l0,0V413
			L524.6,414.1z"/>
		<rect x="552.2" y="378.2" class="st23" width="6" height="47.5"/>
		<rect x="549.8" y="378.2" class="st22" width="6" height="47.5"/>
		<rect x="539" y="361.6" class="st23" width="6" height="47.5"/>
		<rect x="536.6" y="361.6" class="st22" width="6" height="47.5"/>
		<path class="st22" d="M560.8,426.8v5.1c0,2.5-2,4.6-4.6,4.6h-50.2c-2.3,0-4.6-0.6-6.6-1.7c-1.4-0.8-2.6-1.7-3.7-3L471,403.6
			c-1.1-1.3-1.8-2.9-1.8-4.7v-5.1l30.2,33.9l0.4,0.4L560.8,426.8z"/>
		<path class="st22" d="M567.4,364v22.3c0,1.7-1.3,3-3,3H558l2.4-28l-0.5-0.5l-30.9-35.4h5.6c1.2,0,2.4,0.5,3.2,1.4l27.5,31.5
			c0.6,0.7,1.2,1.6,1.5,2.5C567.1,361.7,567.4,362.8,567.4,364z"/>
		<path class="st36" d="M499.5,427.7v7.1c-1.4-0.8-2.6-1.7-3.7-3L471,403.6c-1.1-1.3-1.8-2.9-1.8-4.7v-5.1L499.5,427.7z"/>
		<path class="st35" d="M533.6,394.2l26.3,30c2.2,2.5,0.4,6.3-2.9,6.3h-52c-3.2,0-6.3-1.4-8.5-3.8l-26.3-30
			c-2.2-2.5-0.4-6.3,2.9-6.3h52C528.4,390.3,531.5,391.7,533.6,394.2z"/>
		<path class="st23" d="M567.4,364v22.3c0,1.7-1.3,3-3,3H558l2.4-28l-0.5-0.5h6.9C567.1,361.7,567.4,362.8,567.4,364z"/>
		<path class="st36" d="M556.4,388.3l-28.7-32.7c-1-1.1-1.5-2.6-1.5-4v-23.4c0-2.6,3.3-3.9,5-1.9l28.7,32.7c1,1.1,1.5,2.6,1.5,4
			v23.4C561.4,389,558.1,390.2,556.4,388.3z"/>
	</g>
	<g>
		<g>
			<g>
				<defs>
					<path id="SVGID_7_" d="M413.6,318.8c0,12.8,5.1,25.1,14.1,34.1c9,9,21.3,14.1,34.1,14.1c2,0,4.1-0.1,6.1-0.4h0.3l4.1,4.6l5.3,6
						l2.5-7.5l2.5-7.5c4.2-2,8.1-4.7,11.6-7.8c9.9-9.2,15.6-22.1,15.7-35.6c0-15.8-7.7-30.5-20.6-39.6c-12.9-9-29.4-11.2-44.2-5.8
						l-1.2,0.5l-0.6,0.3H443l-0.8,0.4c-11.3,5.1-20.3,14.3-25.1,25.7c-1.8,4.4-3,9-3.4,13.8C413.7,315.7,413.6,317.3,413.6,318.8z"
						/>
				</defs>
				<clipPath id="SVGID_2_">
					<use xlink:href="#SVGID_7_"  style="overflow:visible;"/>
				</clipPath>
				<g style="clip-path:url(#SVGID_2_);">
					<g>
						<rect x="-86.6" y="-294.5" class="st31" width="694.1" height="1228.5"/>
					</g>
				</g>
				<g style="clip-path:url(#SVGID_2_);">
					<circle class="st44" cx="461.6" cy="319" r="48.3"/>
				</g>
			</g>
			<g>
				<g>
					<path class="st33" d="M485.5,277.9c12.4,15.3,15.3,36.2,7.6,54.4c-7.7,18.1-24.9,30.5-44.5,32.1c4,2.5,18.8,2.9,18.8,2.9
						l9.8,10.2l5-15c0,0,8.9-4.8,9.7-5.5c12-9.5,18.6-24.2,17.9-39.5c-0.7-15.3-8.7-29.3-21.5-37.7c-1-0.7-2-1.2-3-1.8"/>
				</g>
			</g>
		</g>
		<g>
			<path class="st44" d="M437.1,316.3c2.9-0.6,5.8-1,8.7-1.3c1.1-1.1,2.2-2.3,3.2-3.4c0.4-0.6,0.7-1.2,1.1-1.9
				c-0.1-2.6-0.3-5.2-0.3-7.8c-0.4-11.5,4.3-22.3,11.3-31.2c-26.4,0.3-47.7,21.8-47.7,48.3c0,3.7,0.4,7.4,1.2,10.8
				C420.8,323.4,429.1,317.9,437.1,316.3z"/>
		</g>
		<g>
			<circle class="st34" cx="441.3" cy="304.6" r="3.8"/>
		</g>
		<g>
			<circle class="st34" cx="466.2" cy="304.6" r="3.8"/>
		</g>
		<g>
			<path class="st34" d="M463.4,316.9c0.1,0.8,0.3,4-1.9,6.9c-0.3,0.4-3,3.9-7.7,3.9c-4.5,0-7.1-3.1-7.5-3.6c-2.5-3-2.2-6.5-2.1-7.2
				C450.6,316.9,457,316.9,463.4,316.9z"/>
		</g>
	</g>
	<g>
		<g>
			<path class="st36" d="M223.6,435.5l-2.5-2.8l-4.4-5c-0.5-0.5-0.9-1.1-1.2-1.6c-1.1-1.9-1.7-4-1.7-6.2v-73.2c0-0.1,0-0.2,0-0.2
				c0.2-3.2,3.6-4.9,6.2-3.5L223.6,435.5z"/>
			<path class="st36" d="M309.7,444.2l4,93.2l-8-9.1c-2.5-2.8-3.8-6.4-3.8-10.1v-82.4L309.7,444.2z"/>
			<path class="st23" d="M378.2,440.4H234.6c-8.2,0-14.8-6.6-14.8-14.8v-82.3l157.2,4.6L378.2,440.4z"/>
			<path class="st36" d="M309.7,444.2V455l-96-108.7c0.1-2.4,2.1-3.9,4.2-4h0.1c1.1,0,2.2,0.4,3.1,1.4l83,94l1.2,1.4
				c0.1,0.1,0.1,0.1,0.2,0.2c1.2,1.5,2.3,3.1,3,4.9H309.7z"/>
			<path class="st22" d="M468.1,449v78.2c0,8.2-6.7,14.9-14.9,14.9H324.6c-8.2,0-14.9-6.7-14.9-14.9v-76.3c0-2.3-0.5-4.6-1.3-6.8
				h158.5C467.5,445.7,467.9,447.3,468.1,449z"/>
			<path class="st35" d="M466.9,444.2H308.4c-0.7-1.8-1.7-3.4-3-4.9c-0.1-0.1-0.1-0.1-0.2-0.2l-1.2-1.4h0l-83-94
				c-0.9-1-2-1.4-3.1-1.4h148.7c8.2,0,16,3.6,21.4,9.8l73.5,84.5l3,3.4C465.5,441.3,466.3,442.7,466.9,444.2z"/>
		</g>
		<polygon class="st35" points="311.3,443.6 310.1,442.2 310.1,442.2 		"/>
		<polygon class="st35" points="378.3,373.5 401.4,399.5 381.5,399.5 358.4,373.5 		"/>
		<polygon class="st36" points="302.5,396.4 284.8,376.4 284.8,358.4 302.5,378.4 		"/>
		<path class="st23" d="M398.9,395v2.4c0,0.2,0,0.4-0.1,0.6c-0.2,0.9-1.1,1.6-2,1.6h-12c-1.2-0.1-2.3-0.3-3.3-0.8v-4l14.8,0.2
			L398.9,395z"/>
		<path class="st22" d="M332.9,361.6v41.6c0,2.2-1.8,4-4,4h-6.8l2.9-50.9l0-0.6l-51.7-58.2h4.9c2,0,3.8,0.8,5.1,2.3l45.7,51.4
			c1.3,1.5,2.3,3.2,3,5C332.6,358,332.9,359.8,332.9,361.6z"/>
		<path class="st36" d="M381.5,395.1v3.6c-0.9-0.4-1.6-1-2.3-1.8l-17.4-19.5c-0.5-0.6-0.9-1.3-0.9-2.1c0,0,0,0,0,0
			c0-0.2,0-0.3,0-0.5V372l1.6,1.7L381.5,395.1z"/>
		<path class="st22" d="M379.7,372.7l18.8,21.1c1.1,1.2,0.2,3.1-1.5,3l-12-0.7c-2.2-0.1-4.3-1.1-5.8-2.8l-17.9-20.1
			c-1.1-1.2-0.2-3.1,1.5-3l13.3,0.7C377.5,371.1,378.8,371.7,379.7,372.7z"/>
		<path class="st23" d="M332.9,361.6v41.6c0,2.2-1.8,4-4,4h-6.8l2.9-50.9h7C332.6,358,332.9,359.8,332.9,361.6z"/>
		<path class="st36" d="M318.7,405.6L273,354c-2.8-3.2-4.4-7.3-4.4-11.6v-40.1c0-4.4,5.5-6.5,8.4-3.2l45.7,51.6
			c2.8,3.2,4.4,7.3,4.4,11.6v40.1C327.1,406.8,321.7,408.9,318.7,405.6z"/>
		<path class="st22" d="M302,367.1h-4.2l-14.6-16.8c0,0,0,0,0,0h3.2c0.7,0,1.4,0.3,1.8,0.8l11.6,13.1l0.9,1c0,0,0,0,0,0
			C301.4,365.8,301.7,366.4,302,367.1z"/>
		<path class="st36" d="M301.4,400.6L285,382.2c-2.3-2.6-3.6-6.1-3.6-9.6v-20.3c0-1.2,1-2,2-2c0,0,0,0,0,0c0.5,0,1.1,0.2,1.5,0.7
			l12.7,14.3c0.3,0.3,0.5,0.7,0.7,1v0c0.2,0.2,0.3,0.5,0.4,0.7c0.3,0.7,0.5,1.6,0.5,2.4v14.4L301.4,400.6z"/>
		<path class="st23" d="M317.1,403.7l-9.1,0c-0.1,0-0.2,0-0.2,0c-2-0.1-3.8-0.8-5.2-2c-0.4-0.3-0.8-0.7-1.2-1.1
			c-0.1-0.1-0.2-0.3-0.3-0.4c-1.2-1.6-2-3.6-2-5.7v-25.1c0-0.8-0.2-1.6-0.5-2.4h3.4c0.3,0.8,0.5,1.6,0.5,2.5v24.3
			c0,3.5,2.9,6.4,6.4,6.4h5L317.1,403.7z"/>
		<g>
			<path class="st23" d="M406.6,411.6v1.9c0,1-0.8,1.8-1.8,1.8h-5.4c-0.6,0-1.2-0.1-1.7-0.4v-2.1L406.6,411.6z"/>
			<path class="st36" d="M397.7,412.5v2.4c-0.4-0.2-0.8-0.5-1.1-0.8l0,0c-0.3-0.3-0.4-0.7-0.4-1.1v-2L397.7,412.5z"/>
			<path class="st22" d="M406.1,410.7L406.1,410.7c1,1.1,0.2,2.7-1.1,2.7h-5.7c-1,0-2-0.4-2.8-1.2l0,0c-0.9-1-0.2-2.6,1.2-2.6h5.7
				C404.4,409.4,405.4,409.9,406.1,410.7z"/>
			<path class="st23" d="M400.2,411.2L400.2,411.2c0.2,0.2,0,0.5-0.2,0.5h-1.1c-0.2,0-0.4-0.1-0.5-0.2l0,0c-0.2-0.2,0-0.5,0.2-0.5
				h1.1C399.9,411,400.1,411.1,400.2,411.2z"/>
		</g>
	</g>
	<ellipse transform="matrix(0.941 -0.3385 0.3385 0.941 -99.5341 121.1963)" class="st22" cx="297.7" cy="346" rx="3.2" ry="5.1"/>
</g>
</svg>
