<?xml version="1.0" encoding="UTF-8"?>
<svg width="115px" height="116px" viewBox="0 0 115 116" version="1.1" xmlns="http://www.w3.org/2000/svg" xmlns:xlink="http://www.w3.org/1999/xlink">
    <!-- Generator: sketchtool 54.1 (76490) - https://sketchapp.com -->
    <title>1D9B9B27-6528-4EC8-945B-BE8CF09501F9@1x</title>
    <desc>Created with sketchtool.</desc>
    <defs>
        <path d="M0,0 L0,88.8233481 C0,103.357719 11.7686194,115.1416 26.2860821,115.1416 L26.2860821,115.1416 L88.7139179,115.1416 C103.231381,115.1416 115,103.357719 115,88.8233481 L115,88.8233481 L115,26.3173926 C115,11.782163 103.231381,0 88.7139179,0 L88.7139179,0 L0,0 Z" id="path-1"></path>
        <path d="M0,0 L0,41.3767704 C14.2754478,51.1740444 32.8625373,51.1740444 55.7629851,41.3767704 L55.7629851,41.3767704 C78.6617164,31.5777778 98.4082463,31.5777778 115,41.3767704 L115,41.3767704 L115,26.3173926 C115,11.782163 103.231381,0 88.7139179,0 L88.7139179,0 L0,0 Z" id="path-3"></path>
        <path d="M12.8731343,0 C5.76373134,0 0,5.77078519 0,12.8897481 L0,12.8897481 L0,98.719437 C0.743208955,98.782163 1.49671642,98.8156741 2.25623134,98.8156741 L2.25623134,98.8156741 L64.6840672,98.8156741 C67.2552612,98.8156741 69.7414925,98.4444741 72.0895522,97.7562074 L72.0895522,97.7562074 L72.0895522,12.8897481 C72.0895522,5.77078519 66.3258209,0 59.2164179,0 L59.2164179,0 L12.8731343,0 Z" id="path-5"></path>
        <path d="M8.58208955,0.000859259259 C3.84220149,0.000859259259 0,3.8469037 0,8.59345185 L0,8.59345185 L0,94.5193778 L61.2512313,94.5193778 C62.6020522,94.5193778 63.9279851,94.4162667 65.2238806,94.2194963 L65.2238806,94.2194963 L65.2238806,8.59345185 C65.2238806,3.8469037 61.3816791,0.000859259259 56.641791,0.000859259259 L56.641791,0.000859259259 L8.58208955,0.000859259259 Z" id="path-7"></path>
        <path d="M17.7803731,7.39564444 C7.6569403,10.3222815 2.43130597,16.5725333 0,26.4179259 L0,26.4179259 L0,28.3564148 L61.2512313,28.3564148 C62.6020522,28.3564148 63.9279851,28.2533037 65.2238806,28.0565333 L65.2238806,28.0565333 L65.2238806,23.5230815 C62.3394403,14.8574519 56.8649254,9.38826667 47.6177239,6.94023704 L47.6177239,6.94023704 C45.3022761,3.2669037 39.555709,0.665925926 32.8325,0.665925926 L32.8325,0.665925926 C25.833806,0.665925926 19.8941418,3.48343704 17.7803731,7.39564444 L17.7803731,7.39564444 Z" id="path-9"></path>
        <path d="M6.00746269,0 C3.72033582,0 1.66406716,0.995022222 0.250597015,2.57863704 L0.250597015,2.57863704 L6.00746269,2.57863704 L6.86567164,2.57863704 L12.6233955,2.57863704 C11.208209,0.995022222 9.15365672,0 6.86567164,0 L6.86567164,0 L6.00746269,0 Z" id="path-11"></path>
        <path d="M0.14761194,4.29715556 L3.14705224,4.29715556 C3.93059701,3.36228148 5.11320896,2.76853333 6.43656716,2.76853333 L6.43656716,2.76853333 C7.75992537,2.76853333 8.94253731,3.36228148 9.72608209,4.29715556 L9.72608209,4.29715556 L12.7246642,4.29715556 C11.6733582,1.87834074 9.24977612,0.190755556 6.43656716,0.190755556 L6.43656716,0.190755556 C3.6225,0.190755556 1.19891791,1.87834074 0.14761194,4.29715556 L0.14761194,4.29715556 Z" id="path-13"></path>
        <path d="M9.29354478,0.866992593 C6.14048507,0.932296296 3.11873134,0.932296296 0.226567164,0.866992593 L0.226567164,0.866992593 L9.98268657,20.6222222 L19.738806,0.866992593 C17.8335821,0.8352 16.0107463,0.818014815 14.2694403,0.818014815 L14.2694403,0.818014815 C12.5289925,0.818014815 10.8700746,0.8352 9.29354478,0.866992593 L9.29354478,0.866992593 Z" id="path-15"></path>
        <path d="M6.00746269,17.1851852 L6.00746269,20.2836741 C5.39384328,19.9545778 4.65578358,19.762963 3.8619403,19.762963 L3.8619403,19.762963 C1.72929104,19.762963 0,21.1480889 0,22.8562963 L0,22.8562963 L0,26.9807407 C0,28.6889481 1.72929104,30.0749333 3.8619403,30.0749333 L3.8619403,30.0749333 C4.67380597,30.0749333 5.42559701,29.8730074 6.0469403,29.5318815 L6.0469403,29.5318815 C6.41940299,35.0405926 9.38537313,39.8395556 13.7313433,42.7103407 L13.7313433,42.7103407 L13.7313433,52.8444444 C13.7313433,58.3007407 18.1502612,62.7259259 23.6007463,62.7259259 L23.6007463,62.7259259 C29.0512313,62.7259259 33.4701493,58.3007407 33.4701493,52.8444444 L33.4701493,52.8444444 L33.4701493,42.104563 C37.3458209,39.1908148 39.9487687,34.6711111 40.2963433,29.5318815 L40.2963433,29.5318815 C40.9176866,29.8730074 41.6703358,30.0749333 42.4813433,30.0749333 L42.4813433,30.0749333 C44.6148507,30.0749333 46.3432836,28.6889481 46.3432836,26.9807407 L46.3432836,26.9807407 L46.3432836,22.8562963 C46.3432836,21.1480889 44.6148507,19.762963 42.4813433,19.762963 L42.4813433,19.762963 C41.6875,19.762963 40.9494403,19.9545778 40.3358209,20.2836741 L40.3358209,20.2836741 L40.3358209,17.1851852 C40.3358209,7.69380741 32.6514179,0 23.1716418,0 L23.1716418,0 C13.6918657,0 6.00746269,7.69380741 6.00746269,17.1851852 L6.00746269,17.1851852 Z" id="path-17"></path>
        <path d="M17.4516791,1.21241481 C16.8715299,0.686548148 16.1034328,0.366044444 15.2623881,0.366044444 L15.2623881,0.366044444 C13.8506343,0.366044444 12.6482836,1.26654815 12.1891418,2.52794074 L12.1891418,2.52794074 C11.6347388,2.09143704 10.9352985,1.82936296 10.1757836,1.82936296 L10.1757836,1.82936296 C8.61813433,1.82936296 7.31537313,2.92577778 6.9858209,4.39253333 L6.9858209,4.39253333 C6.95835821,4.39167407 6.93175373,4.39167407 6.90429104,4.39167407 L6.90429104,4.39167407 C5.09776119,4.39167407 3.63451493,5.86702222 3.63451493,7.68607407 L3.63451493,7.68607407 C3.63451493,7.99025185 3.67485075,8.28583704 3.75208955,8.5650963 L3.75208955,8.5650963 C2.42014925,8.9826963 1.45294776,10.2329185 1.45294776,11.7108444 L1.45294776,11.7108444 C1.45294776,12.3518519 1.63574627,12.9498963 1.94985075,13.4551407 L1.94985075,13.4551407 C0.801567164,13.9664 0,15.1238222 0,16.4694222 L0,16.4694222 C0,17.0760593 0.163059701,17.6457481 0.447985075,18.1338074 L0.447985075,18.1338074 C0.155335821,19.4897185 0,20.8963259 0,22.3407407 L0,22.3407407 L0,39.5259259 C0,50.4410963 8.83783582,59.2897481 19.738806,59.2897481 L19.738806,59.2897481 C30.6397761,59.2897481 39.4776119,50.4410963 39.4776119,39.5259259 L39.4776119,39.5259259 L39.4776119,22.3407407 C39.4776119,20.8963259 39.3231343,19.4897185 39.0287687,18.1338074 L39.0287687,18.1338074 C39.313694,17.6457481 39.4776119,17.0760593 39.4776119,16.4694222 L39.4776119,16.4694222 C39.4776119,15.1238222 38.676903,13.9664 37.5286194,13.4551407 L37.5286194,13.4551407 C37.8427239,12.9498963 38.023806,12.3518519 38.023806,11.7108444 L38.023806,11.7108444 C38.023806,10.2329185 37.0574627,8.9826963 35.7255224,8.5650963 L35.7255224,8.5650963 C35.8027612,8.28583704 35.8439552,7.99025185 35.8439552,7.68607407 L35.8439552,7.68607407 C35.8439552,5.86702222 34.3789925,4.39167407 32.5733209,4.39167407 L32.5733209,4.39167407 C32.5467164,4.39167407 32.5201119,4.39167407 32.4926493,4.39253333 L32.4926493,4.39253333 C32.1622388,2.92577778 30.8594776,1.82936296 29.3026866,1.82936296 L29.3026866,1.82936296 C28.8263806,1.82936296 28.3732463,1.93247407 27.9638806,2.11721481 L27.9638806,2.11721481 C27.4146269,1.07493333 26.3272761,0.366044444 25.0734328,0.366044444 L25.0734328,0.366044444 C24.1268284,0.366044444 23.2729104,0.771614815 22.675597,1.42035556 L22.675597,1.42035556 C22.0860075,0.561955556 21.1007836,0 19.9859701,0 L19.9859701,0 C18.9638433,0 18.050709,0.472592593 17.4516791,1.21241481 L17.4516791,1.21241481 Z M30.5024627,10.672 C34.4064552,13.8220444 36.9029851,18.649363 36.9029851,24.0592593 L36.9029851,24.0592593 L36.9029851,35.2304889 C36.9029851,41.4764444 33.5739925,46.9447704 28.5955224,49.953037 L28.5955224,49.953037 C28.8289552,49.1418963 28.9542537,48.2852148 28.9542537,47.3984593 L28.9542537,47.3984593 L28.9542537,46.1069926 C28.9542537,41.0124444 24.8279851,36.8811259 19.738806,36.8811259 L19.738806,36.8811259 C14.6496269,36.8811259 10.5250746,41.0124444 10.5250746,46.1069926 L10.5250746,46.1069926 L10.5250746,47.3984593 C10.5250746,48.2852148 10.6495149,49.1418963 10.8812313,49.953037 L10.8812313,49.953037 C5.9036194,46.9447704 2.57462687,41.4764444 2.57462687,35.2304889 L2.57462687,35.2304889 L2.57462687,24.0592593 C2.57462687,18.649363 5.07287313,13.8220444 8.97514925,10.672 L8.97514925,10.672 C11.2760075,11.4900148 15.2375,12.0304889 19.738806,12.0304889 L19.738806,12.0304889 C24.2401119,12.0304889 28.2016045,11.4900148 30.5024627,10.672 L30.5024627,10.672 Z" id="path-19"></path>
        <path d="M0.406791045,0.000859259259 L0.406791045,0.0360888889 C0.406791045,2.0837037 2.06399254,3.74379259 4.10910448,3.74379259 L4.10910448,3.74379259 L7.54451493,3.74379259 C9.58962687,3.74379259 11.2468284,2.0837037 11.2468284,0.0360888889 L11.2468284,0.0360888889 L11.2468284,0.000859259259 L0.406791045,0.000859259259 Z" id="path-21"></path>
        <path d="M4.29104478,0 C1.92067164,0 0,1.92388148 0,4.29715556 L0,4.29715556 L0,5.15641481 C0,7.52797037 1.92067164,9.45185185 4.29104478,9.45185185 L4.29104478,9.45185185 L34.1833209,9.45185185 C36.5528358,9.45185185 38.4735075,7.52797037 38.4735075,5.15641481 L38.4735075,5.15641481 L38.4735075,4.29715556 C38.4735075,1.92388148 36.5528358,0 34.1833209,0 L34.1833209,0 L4.29104478,0 Z" id="path-23"></path>
    </defs>
    <g id="Page-1" stroke="none" stroke-width="1" fill="none" fill-rule="evenodd">
        <g id="eCare-v2---landing" transform="translate(-103.000000, -106.000000)">
            <g id="Group-40" transform="translate(103.000000, 106.000000)">
                <g id="Group-39">
                    <g id="Group-3">
                        <mask id="mask-2" fill="white">
                            <use xlink:href="#path-1"></use>
                        </mask>
                        <g id="Clip-2"></g>
                        <polygon id="Fill-1" fill="#49B8E6" mask="url(#mask-2)" points="-4.29104478 119.437037 119.291045 119.437037 119.291045 -4.2962963 -4.29104478 -4.2962963"></polygon>
                    </g>
                    <g id="Group-6">
                        <mask id="mask-4" fill="white">
                            <use xlink:href="#path-3"></use>
                        </mask>
                        <g id="Clip-5"></g>
                        <polygon id="Fill-4" fill="#74C8E9" mask="url(#mask-4)" points="-4.29104478 53.0205926 119.291045 53.0205926 119.291045 -4.2962963 -4.29104478 -4.2962963"></polygon>
                    </g>
                    <g id="Group-9" transform="translate(24.029851, 16.325926)">
                        <mask id="mask-6" fill="white">
                            <use xlink:href="#path-5"></use>
                        </mask>
                        <g id="Clip-8"></g>
                        <polygon id="Fill-7" fill="#002E54" mask="url(#mask-6)" points="-4.29104478 103.111111 76.380597 103.111111 76.380597 -4.2962963 -4.29104478 -4.2962963"></polygon>
                    </g>
                    <g id="Group-12" transform="translate(27.462687, 20.622222)">
                        <mask id="mask-8" fill="white">
                            <use xlink:href="#path-7"></use>
                        </mask>
                        <g id="Clip-11"></g>
                        <polygon id="Fill-10" fill="#FFD000" mask="url(#mask-8)" points="-4.29104478 98.8148148 69.5149254 98.8148148 69.5149254 -4.2962963 -4.29104478 -4.2962963"></polygon>
                    </g>
                    <g id="Group-15" transform="translate(27.462687, 86.785185)">
                        <mask id="mask-10" fill="white">
                            <use xlink:href="#path-9"></use>
                        </mask>
                        <g id="Clip-14"></g>
                        <polygon id="Fill-13" fill="#E6F4FB" mask="url(#mask-10)" points="-4.29104478 32.6527111 69.5149254 32.6527111 69.5149254 -3.63037037 -4.29104478 -3.63037037"></polygon>
                    </g>
                    <polygon id="Fill-16" fill="#004E7F" points="74.6640075 113.422824 77.2394925 113.422824 77.2394925 93.8308533 74.6640075 92.8006015"></polygon>
                    <g id="Group-19" transform="translate(69.514925, 112.562963)">
                        <mask id="mask-12" fill="white">
                            <use xlink:href="#path-11"></use>
                        </mask>
                        <g id="Clip-18"></g>
                        <polygon id="Fill-17" fill="#004E7F" mask="url(#mask-12)" points="-4.04044776 6.87407407 16.9135821 6.87407407 16.9135821 -4.2962963 -4.04044776 -4.2962963"></polygon>
                    </g>
                    <g id="Group-22" transform="translate(37.761194, 110.844444)">
                        <mask id="mask-14" fill="white">
                            <use xlink:href="#path-13"></use>
                        </mask>
                        <g id="Clip-21"></g>
                        <polygon id="Fill-20" fill="#004E7F" mask="url(#mask-14)" points="-4.14257463 8.59259259 17.015709 8.59259259 17.015709 -4.10554074 -4.14257463 -4.10554074"></polygon>
                    </g>
                    <polygon id="Fill-23" fill="#004E7F" points="42.9103619 94.698877 42.9103619 113.422996 45.4849888 113.422996 45.4849888 93.6591733"></polygon>
                    <g id="Group-26" transform="translate(50.634328, 91.940741)">
                        <mask id="mask-16" fill="white">
                            <use xlink:href="#path-15"></use>
                        </mask>
                        <g id="Clip-25"></g>
                        <polygon id="Fill-24" fill="#004E7F" mask="url(#mask-16)" points="-4.06447761 24.9185185 24.0298507 24.9185185 24.0298507 -3.47828148 -4.06447761 -3.47828148"></polygon>
                    </g>
                    <g id="Group-29" transform="translate(36.902985, 38.666667)">
                        <mask id="mask-18" fill="white">
                            <use xlink:href="#path-17"></use>
                        </mask>
                        <g id="Clip-28"></g>
                        <polygon id="Fill-27" fill="#F9A313" mask="url(#mask-18)" points="-4.29104478 67.0222222 50.6343284 67.0222222 50.6343284 -4.2962963 -4.29104478 -4.2962963"></polygon>
                    </g>
                    <g id="Group-32" transform="translate(40.335821, 31.792593)">
                        <mask id="mask-20" fill="white">
                            <use xlink:href="#path-19"></use>
                        </mask>
                        <g id="Clip-31"></g>
                        <polygon id="Fill-30" fill="#FFFFFF" mask="url(#mask-20)" points="-4.29104478 63.5851852 43.7686567 63.5851852 43.7686567 -4.2962963 -4.29104478 -4.2962963"></polygon>
                    </g>
                    <g id="Group-35" transform="translate(54.067164, 76.474074)">
                        <mask id="mask-22" fill="white">
                            <use xlink:href="#path-21"></use>
                        </mask>
                        <g id="Clip-34"></g>
                        <polygon id="Fill-33" fill="#F9A313" mask="url(#mask-22)" points="-3.88425373 8.03922963 15.5387313 8.03922963 15.5387313 -4.2962963 -3.88425373 -4.2962963"></polygon>
                    </g>
                    <g id="Group-38" transform="translate(41.194030, 16.325926)">
                        <mask id="mask-24" fill="white">
                            <use xlink:href="#path-23"></use>
                        </mask>
                        <g id="Clip-37"></g>
                        <polygon id="Fill-36" fill="#002E54" mask="url(#mask-24)" points="-4.29104478 13.7481481 42.7645522 13.7481481 42.7645522 -4.2962963 -4.29104478 -4.2962963"></polygon>
                    </g>
                </g>
            </g>
        </g>
    </g>
</svg>