<?xml version="1.0" encoding="utf-8"?>
<!-- Generator: Adobe Illustrator 22.1.0, SVG Export Plug-In . SVG Version: 6.00 Build 0)  -->
<svg version="1.1" id="Layer_1" xmlns="http://www.w3.org/2000/svg" xmlns:xlink="http://www.w3.org/1999/xlink" x="0px" y="0px"
	 viewBox="0 0 253.3 188" style="enable-background:new 0 0 253.3 188;" xml:space="preserve">
<style type="text/css">
	.st0{fill:#FFFFFF;}
	.st1{opacity:7.000000e-02;}
	.st2{fill:#DFF8FA;}
	.st3{fill:#F3FAFD;}
	.st4{opacity:0.7;}
	.st5{opacity:0.4;}
	.st6{fill:#8FBBC5;}
	.st7{fill:#B5D3D8;}
	.st8{fill:#FF9F6B;}
	.st9{fill:#EDF1EA;}
	.st10{fill:#DFF9F7;}
	.st11{fill:#005872;}
	.st12{fill:#FFC7AB;}
	.st13{fill:#00D0E2;}
	.st14{fill:#FDFCF0;}
	.st15{fill:#FFB926;}
	.st16{fill:#33899B;}
	.st17{opacity:0.49;fill:#E5F8FA;}
	.st18{opacity:0.17;fill:#C0E0E5;}
	.st19{opacity:0.32;}
	.st20{opacity:0.85;fill:#59DB59;}
	.st21{fill:#E5F8FA;}
	.st22{opacity:0.6;}
	.st23{fill:#C0E0E5;}
	.st24{fill:#B8D8DB;}
	.st25{opacity:0.57;}
	.st26{fill:#8AC4D4;}
	.st27{fill:#00BED5;}
	.st28{fill:#91D757;}
	.st29{fill:#BDEAA1;}
	.st30{fill:#F66E3C;}
	.st31{fill:#FFD68E;}
	.st32{fill:#FF9900;}
	.st33{fill:#FFF4E2;}
	.st34{fill:#D1E6ED;}
	.st35{fill:#8ACA4F;}
	.st36{opacity:0.37;fill:#FFF4E2;}
	.st37{fill:#D4EAEE;}
	.st38{clip-path:url(#SVGID_6_);}
	.st39{fill:none;}
	.st40{clip-path:url(#SVGID_6_);fill:#A1D669;}
	.st41{fill:#99C961;}
	.st42{fill:#FFF5E5;}
	.st43{fill:#FED89E;}
	.st44{fill:#FFF5E6;}
	.st45{fill:#4E8899;}
	.st46{fill:#FD9F28;}
	.st47{fill:#FDBC57;}
	.st48{fill:#A2D46F;}
	.st49{fill:#E47650;}
	.st50{fill:#CCE7EA;}
	.st51{clip-path:url(#SVGID_8_);}
	.st52{fill:#A1D669;}
	.st53{fill:none;stroke:#C0E0E5;stroke-width:1.5;stroke-linecap:round;stroke-linejoin:round;stroke-miterlimit:10;}
	.st54{fill:none;stroke:#8CA0A4;stroke-width:2.5;stroke-linecap:round;stroke-linejoin:round;stroke-miterlimit:10;}
	.st55{fill:none;stroke:#FFF4E2;stroke-width:1.5;stroke-linecap:round;stroke-linejoin:round;stroke-miterlimit:10;}
	.st56{fill:none;stroke:#005872;stroke-width:2;stroke-linecap:round;stroke-linejoin:round;stroke-miterlimit:10;}
	.st57{fill:#E6EBEE;}
	.st58{fill:none;stroke:#8CA0A4;stroke-width:3;stroke-linecap:round;stroke-linejoin:round;stroke-miterlimit:10;}
	.st59{fill:none;stroke:#8AB29D;stroke-width:3;stroke-linecap:round;stroke-linejoin:round;stroke-miterlimit:10;}
	.st60{fill:#006951;}
	.st61{fill:#8CA0A4;}
	.st62{opacity:0.8;fill:#00D0E2;}
	.st63{fill:#008395;}
	.st64{fill:#F8E874;}
	.st65{fill:#004938;}
	.st66{fill:#DED268;}
	.st67{fill:#818D00;}
	.st68{clip-path:url(#SVGID_10_);}
	.st69{opacity:0.2;}
	.st70{clip-path:url(#SVGID_12_);}
	.st71{clip-path:url(#SVGID_14_);}
	.st72{opacity:0.3;}
	.st73{clip-path:url(#SVGID_16_);}
	.st74{fill:#3CBA3C;}
	.st75{opacity:0.6;fill:#DEF8F8;}
	.st76{fill:#59DB59;}
	.st77{fill:#C1FF85;}
	.st78{fill:none;stroke:#FFCC81;stroke-width:0.5;stroke-linecap:round;stroke-linejoin:round;stroke-miterlimit:10;}
	.st79{fill:#6CD828;}
	.st80{fill:#00C700;}
	.st81{fill:#DEF8F8;}
	.st82{fill:#FD8D63;}
	.st83{fill:#BE5114;}
	.st84{fill:#B14515;}
	.st85{fill:#00B2CE;}
	.st86{fill:#E4EBEE;}
	.st87{fill:#003C4F;}
	.st88{fill:none;stroke:#00D0E2;stroke-width:3;stroke-linecap:round;stroke-linejoin:round;stroke-miterlimit:10;}
	.st89{fill:none;stroke:#003C4F;stroke-width:2;stroke-linecap:round;stroke-linejoin:round;stroke-miterlimit:10;}
	.st90{fill:none;stroke:#003C4F;stroke-width:3;stroke-linecap:round;stroke-linejoin:round;stroke-miterlimit:10;}
	.st91{fill:none;stroke:#003C4F;stroke-linecap:round;stroke-linejoin:round;stroke-miterlimit:10;}
	.st92{fill:#00B8ED;}
	.st93{fill:none;stroke:#00B8ED;stroke-linecap:round;stroke-linejoin:round;stroke-miterlimit:10;}
	.st94{fill:none;stroke:#00B8ED;stroke-width:0.75;stroke-linecap:round;stroke-linejoin:round;stroke-miterlimit:10;}
	.st95{fill:none;stroke:#003928;stroke-width:0.5;stroke-linecap:round;stroke-miterlimit:10;}
	.st96{fill:#F9F09E;}
	.st97{fill:none;stroke:#003C4F;stroke-width:0.5;stroke-linecap:round;stroke-linejoin:round;stroke-miterlimit:10;}
	.st98{fill:#00B4E7;}
	.st99{opacity:0.14;}
	.st100{clip-path:url(#SVGID_18_);fill:#FFF7F9;}
	.st101{fill:#FFF7F9;}
	.st102{fill:#848484;}
	.st103{fill:#FFCC66;}
	.st104{fill:#FFBE38;}
	.st105{fill:#FFA71C;}
	.st106{fill:#FFE9BF;}
	.st107{fill:#47786F;}
	.st108{fill:#FFC65B;}
	.st109{fill:#FFBA32;}
	.st110{fill:#FFA519;}
	.st111{fill:#FFE0AA;}
	.st112{fill:#5B7C63;}
	.st113{fill:#ABE573;}
	.st114{fill:#87C149;}
	.st115{fill:#FFBE36;}
	.st116{fill:#FFA61A;}
	.st117{fill:#FFC85A;}
	.st118{fill:#FFB333;}
	.st119{fill:#EFE2B0;}
	.st120{fill:#FFC346;}
	.st121{fill:#FFD18A;}
	.st122{fill:#FFAD17;}
	.st123{fill:#FFB52B;}
	.st124{fill:#E7EDD5;}
	.st125{fill:#FFEAC3;}
	.st126{fill:#CFEAED;}
	.st127{fill:#D9ECEF;}
	.st128{opacity:0.21;fill:#FFE0AA;}
	.st129{fill:#F4F4F4;}
	.st130{fill:#E8F1F2;}
	.st131{clip-path:url(#SVGID_24_);fill:#D6E6E9;}
	.st132{clip-path:url(#SVGID_24_);fill:#1C6C82;}
	.st133{clip-path:url(#SVGID_24_);fill:#CEE2E5;}
	.st134{clip-path:url(#SVGID_24_);fill:#5B96A5;}
	.st135{clip-path:url(#SVGID_24_);fill:#FFC7AB;}
	.st136{clip-path:url(#SVGID_24_);fill:#00D0E2;}
	.st137{clip-path:url(#SVGID_24_);fill:#005872;}
	.st138{clip-path:url(#SVGID_24_);fill:#FDFCF0;}
	.st139{fill:#D6E6E9;}
	.st140{fill:#ECFBFC;}
	.st141{fill:#F1F7F7;}
	.st142{fill:#E6F0F2;}
	.st143{clip-path:url(#SVGID_26_);fill:#D6E6E9;}
	.st144{clip-path:url(#SVGID_26_);fill:#1C6C82;}
	.st145{clip-path:url(#SVGID_26_);fill:#CEE2E5;}
	.st146{clip-path:url(#SVGID_26_);fill:#5B96A5;}
	.st147{clip-path:url(#SVGID_26_);fill:#FFC7AB;}
	.st148{clip-path:url(#SVGID_26_);fill:#00D0E2;}
	.st149{clip-path:url(#SVGID_26_);fill:#005872;}
	.st150{clip-path:url(#SVGID_26_);fill:#FDFCF0;}
	.st151{clip-path:url(#SVGID_28_);fill:#D6E6E9;}
	.st152{clip-path:url(#SVGID_28_);fill:#1C6C82;}
	.st153{clip-path:url(#SVGID_28_);fill:#CEE2E5;}
	.st154{clip-path:url(#SVGID_28_);fill:#5B96A5;}
	.st155{clip-path:url(#SVGID_28_);fill:#FFC7AB;}
	.st156{clip-path:url(#SVGID_28_);fill:#00D0E2;}
	.st157{clip-path:url(#SVGID_28_);fill:#005872;}
	.st158{clip-path:url(#SVGID_28_);fill:#FDFCF0;}
	.st159{fill:none;stroke:#8FBBC5;stroke-width:1.5;stroke-linecap:round;stroke-linejoin:round;stroke-miterlimit:10;}
	
		.st160{fill:none;stroke:#005872;stroke-width:4;stroke-linecap:round;stroke-linejoin:round;stroke-miterlimit:10;stroke-dasharray:12,18;}
	.st161{fill:#FFCA66;}
	.st162{fill:#FCB626;}
	.st163{opacity:0.25;}
	.st164{fill:#EAF3DF;}
	.st165{fill:#F7971D;}
	.st166{fill:#015873;}
	.st167{opacity:0.34;}
	.st168{fill:#FFF4E5;}
	.st169{fill:none;stroke:#005872;stroke-width:4;stroke-linecap:round;stroke-linejoin:round;}
	.st170{fill:none;stroke:#005872;stroke-width:4;stroke-linecap:round;stroke-linejoin:round;stroke-dasharray:12.3456,18.5184;}
	.st171{fill:#FFC859;}
	.st172{fill:#FFE8BC;}
	.st173{fill:#336B63;}
	.st174{opacity:0.12;}
	.st175{fill:#95DFFC;}
	.st176{opacity:0.53;}
	.st177{fill:#CBCFDE;}
	.st178{fill:#253668;}
	.st179{fill:#FF7190;}
	.st180{fill:#E2E6EA;}
	.st181{opacity:9.000000e-02;}
	.st182{fill:#4B5D8C;}
	.st183{fill:#ED4F79;}
	.st184{fill:#E57B4C;}
	.st185{opacity:0.5;}
	.st186{clip-path:url(#SVGID_30_);fill:#D6E6E9;}
	.st187{clip-path:url(#SVGID_30_);fill:#1C6C82;}
	.st188{clip-path:url(#SVGID_30_);fill:#CEE2E5;}
	.st189{clip-path:url(#SVGID_30_);fill:#5B96A5;}
	.st190{clip-path:url(#SVGID_30_);fill:#FFC7AB;}
	.st191{clip-path:url(#SVGID_30_);fill:#00D0E2;}
	.st192{clip-path:url(#SVGID_30_);fill:#005872;}
	.st193{clip-path:url(#SVGID_30_);fill:#FDFCF0;}
</style>
<g>
	<path class="st2" d="M174.8,17.1c-49-36.6-134-7.2-161.5,53.6C0.9,97.9-5.2,142.9,17,167.1c42.4,46.2,178.8,6.7,192.7-66.5
		C215.7,69.1,198.3,34.7,174.8,17.1"/>
	<path class="st12" d="M40.5,78.3l-1.4-0.4c-3.8-1.2-5.9-5.2-4.8-9c1.2-3.8,5.2-5.9,9-4.8l1.4,0.4c3.8,1.2,5.9,5.2,4.8,9
		C48.3,77.3,44.3,79.5,40.5,78.3z"/>
	<path class="st12" d="M264.2,133.2l-6.4,48.1l-120.6-32.8c-2.5-0.7-5-0.9-7.6-0.6l-33.1,4.9v-30.1h23.9l2.8-12.4V59.4
		c0-6.8,5.5-12.3,12.3-12.3c1.5,0,2.8,0.6,3.7,1.5c1,1,1.5,2.3,1.5,3.7L140.3,84c0,1.2,0.2,2.4,0.6,3.5l4.6,14.9
		c1.1,2.9,3.7,5.1,6.7,5.8L264.2,133.2"/>
	<path class="st0" d="M78.5,26.8c0-1,0.9-1.9,1.9-1.9h11.1c1,0,1.9,0.8,1.9,1.9c0,1-0.8,1.9-1.9,1.9H80.4
		C79.3,28.7,78.5,27.8,78.5,26.8z"/>
	<polyline class="st130" points="121.6,131.3 50.2,131.3 50.2,37.6 121.6,37.6 121.6,131.3 	"/>
	<path class="st11" d="M90.2,144c0,2.4-1.9,4.3-4.3,4.3c-2.4,0-4.3-1.9-4.3-4.3s1.9-4.3,4.3-4.3C88.3,139.7,90.2,141.6,90.2,144z"/>
	<path class="st11" d="M121.6,82.6v48.7H50.2V37.6h71.4v7.4V82.6 M126.5,44.1V33.5c0-10-8.1-18-18.1-18H63.4c-10,0-18,8.1-18,18
		v106.2c0,10,8.1,18,18,18h45.1c9.9,0,18.1-8.1,18.1-18V82.6V44.1 M121.6,136.2v3.5c0,7.3-5.9,13.2-13.1,13.2H63.4
		c-7.3,0-13.2-5.9-13.2-13.2v-3.5H121.6 M50.3,32.7c0.4-6.9,6.1-12.4,13.1-12.4h45.1c7,0,12.7,5.5,13.1,12.4H50.3"/>
	<path class="st11" d="M93.3,26.8c0,1-0.8,1.9-1.9,1.9H80.4c-1,0-1.9-0.9-1.9-1.9c0-1,0.9-1.9,1.9-1.9h11.1
		C92.5,24.9,93.3,25.8,93.3,26.8z"/>
	<g>
		<defs>
			<polyline id="SVGID_29_" points="121.6,131.3 50.2,131.3 50.2,37.6 121.6,37.6 121.6,131.3 			"/>
		</defs>
		<clipPath id="SVGID_2_">
			<use xlink:href="#SVGID_29_"  style="overflow:visible;"/>
		</clipPath>
		<path style="clip-path:url(#SVGID_2_);fill:#D6E6E9;" d="M115.8,85.3l-0.1,0v0L115.8,85.3 M118,81.9l-2.5,0.1v0L118,81.9L118,81.9
			"/>
		<path style="clip-path:url(#SVGID_2_);fill:#D6E6E9;" d="M109.9,86.4l-19.7,1.1l-13.9,0.8l-19.1,1.1l-0.7,0h0l-6.2,0.4V94
			l71.4-4.1v-3.3l-10.9,0.6h0C110.2,87.1,109.9,86.8,109.9,86.4L109.9,86.4L109.9,86.4"/>
		<path style="clip-path:url(#SVGID_2_);fill:#1C6C82;" d="M50.2,89.9L50.2,89.9l0,4.1h0V89.9 M121.6,86.5L121.6,86.5l0,3.3l0,0
			V86.5"/>
		<polyline style="clip-path:url(#SVGID_2_);fill:#D6E6E9;" points="73.4,37.6 50.2,37.6 50.2,39.1 68.5,38.1 70,64.3 74.9,64 
			73.4,37.6 		"/>
		<polyline style="clip-path:url(#SVGID_2_);fill:#1C6C82;" points="50.2,37.6 50.2,37.6 50.2,39.1 50.2,39.1 50.2,37.6 		"/>
		<polyline style="clip-path:url(#SVGID_2_);fill:#D6E6E9;" points="56.3,86.6 50.2,86.9 50.2,89.9 56.4,89.5 56.4,88.6 56.3,86.6 
					"/>
		<polyline style="clip-path:url(#SVGID_2_);fill:#1C6C82;" points="50.2,86.9 50.2,86.9 50.2,89.9 50.2,89.9 50.2,86.9 		"/>
		<path style="clip-path:url(#SVGID_2_);fill:#D6E6E9;" d="M60.4,86.1l-1-17.7l10.8-0.6l4.9-0.3l9.7-0.6l1,17.8l-9.7,0.6l-4.9,0.3
			L60.4,86.1 M88.8,63.3L74.9,64L70,64.3l-15,0.9l1.2,21.4l0,0l0.1,2l0.1,0.9l0.7,0l19.1-1.1l13.9-0.8L88.8,63.3"/>
		<path style="clip-path:url(#SVGID_2_);fill:#D6E6E9;" d="M114.2,51.9c-0.6,0-1.3,0.1-1.9,0.2c-2.3,0.5-4.3,2-5.5,4
			c-1.6,2.6-1.8,6.4,0.1,8.9c0.1,0.2,0.3,0.3,0.5,0.4c0.1,0.1,0.2,0.1,0.3,0.1c0.8,0,1.3-1.2,1.6-1.9c0.3-0.7,0.5-1.5,1-2
			c0.5-0.5,1.2-0.8,2-0.8c0.6,0,1.1,0.1,1.7,0.4c0.7,0.3,1.3,0.8,2,1.1c0.2,0.1,0.5,0.1,0.7,0.2c0.1,0,0.2,0,0.3,0
			c0.8,0,1.6-0.3,2.2-0.8c-0.9-2.6-2.4-4.4-4.2-4.9c-0.3-0.1-1.1-0.3-1.9-0.3c-0.9,0-1.8,0.2-2.6,0.9c-1.4,1.1-1.5,3-1.5,3.5
			c0,0.4-0.3,0.7-0.8,0.7c-0.4,0-0.7-0.4-0.7-0.8c0-0.9,0.2-3.1,2.1-4.6c1.1-0.9,2.5-1.2,3.6-1.2c1.1,0,2,0.2,2.4,0.4
			c2,0.6,3.7,2.5,4.8,5.1c0.7-1.3,0.7-2.9,0.2-4.3c-0.6-1.7-2-3.1-3.7-3.8C116,52.1,115.1,51.9,114.2,51.9"/>
		<path style="clip-path:url(#SVGID_2_);fill:#D6E6E9;" d="M121.6,121.3l-1.9,0.1c-0.1,0-0.2,0.1-0.2,0.2l0.3,5.6
			c0,0.1,0.1,0.2,0.2,0.2c0,0,0,0,0,0l1.6-0.1V121.3"/>
		<polyline style="clip-path:url(#SVGID_2_);fill:#1C6C82;" points="121.6,121.3 121.6,121.3 121.6,127.3 121.6,127.3 121.6,121.3 
					"/>
		<path style="clip-path:url(#SVGID_2_);fill:#D6E6E9;" d="M121.6,129.9l-13.8,0.8c-0.1,0-0.2,0.1-0.2,0.2l0,0.4h13.9V129.9"/>
		<polyline style="clip-path:url(#SVGID_2_);fill:#1C6C82;" points="121.6,129.9 121.6,129.9 121.6,131.3 121.6,131.3 121.6,129.9 
					"/>
		<path style="clip-path:url(#SVGID_2_);fill:#CEE2E5;" d="M121.6,80.2l-4.8,0.3l-6.5,0.4c-0.2,0-0.4,0.1-0.5,0.3
			c-0.1,0.2-0.2,0.3-0.2,0.5l0.3,4.8l0,0v0c0,0.4,0.4,0.7,0.8,0.7h0l10.9-0.6V85l-5.8,0.3l-0.1,0h0l-4.3,0.2l0,0l0,0l-0.1-1.6
			l-0.1-1.8l4.3-0.2l0,0l2.5-0.1l0,0l3.6-0.2V80.2"/>
		<path style="clip-path:url(#SVGID_2_);fill:#5B96A5;" d="M121.6,85L121.6,85l0,1.5l0,0V85 M121.6,80.2L121.6,80.2l0,1.5l0,0V80.2"
			/>
		<polyline style="clip-path:url(#SVGID_2_);fill:#CEE2E5;" points="121.6,81.7 118,81.9 115.5,82 111.2,82.3 111.3,84 111.3,85.6 
			111.3,85.6 115.7,85.3 115.8,85.3 121.6,85 121.6,82.6 121.6,81.7 		"/>
		<polyline style="clip-path:url(#SVGID_2_);fill:#5B96A5;" points="121.6,81.7 121.6,81.7 121.6,82.6 121.6,85 121.6,85 
			121.6,81.7 		"/>
		<path style="clip-path:url(#SVGID_2_);fill:#CEE2E5;" d="M121.6,70.3l-0.5,0c0,0,0,0-0.1,0h0h0c0,0,0,0,0,0l-0.9,0.1l0.1,1.9
			c0,0.3-0.2,0.6-0.5,0.7c-1.7,0.7-2.8,2.4-2.6,4.2c0.1,1.2,0.6,2.3,1.5,3.1l3-0.2V70.3"/>
		<polyline style="clip-path:url(#SVGID_2_);fill:#5B96A5;" points="121.6,70.3 121.6,70.3 121.6,80.1 121.6,80.1 121.6,70.3 		"/>
		<path style="clip-path:url(#SVGID_2_);fill:#CEE2E5;" d="M121.6,70.1c-0.1,0.1-0.2,0.1-0.3,0.2l0,0c0,0-0.1,0-0.1,0
			c0,0-0.1,0-0.1,0l0.5,0V70.1"/>
		<polyline style="clip-path:url(#SVGID_2_);fill:#5B96A5;" points="121.6,70 121.6,70.1 121.6,70.3 121.6,70.3 121.6,70 		"/>
		<path style="clip-path:url(#SVGID_2_);fill:#CEE2E5;" d="M120.3,68.8L120.3,68.8l-1,0.1l-0.6,0c-0.4,0-0.7,0.4-0.7,0.8
			c0,0.4,0.3,0.7,0.7,0.7l0.1,0h0l1.4-0.1l0.9-0.1c-0.1,0-0.1,0-0.2,0c0,0-0.1,0-0.1,0c-0.3-0.1-0.5-0.3-0.5-0.6
			C120.3,69.4,120.3,69.1,120.3,68.8"/>
		<path style="clip-path:url(#SVGID_2_);fill:#CEE2E5;" d="M121.6,60.4c-0.3,0.7-0.5,1.4-0.6,2.1c0.3,1,0.5,2,0.6,3.1V60.4"/>
		<path style="clip-path:url(#SVGID_2_);fill:#5B96A5;" d="M121.6,60.3C121.6,60.3,121.6,60.4,121.6,60.3l0,5.3c0,0,0,0.1,0,0.1
			V60.3"/>
		<path style="clip-path:url(#SVGID_2_);fill:#CEE2E5;" d="M121.4,70.2L121.4,70.2C121.3,70.2,121.3,70.3,121.4,70.2
			C121.3,70.3,121.3,70.2,121.4,70.2L121.4,70.2 M120.3,67.6C120.3,67.6,120.3,67.6,120.3,67.6c0,0.4,0,0.8,0,1.2l0,0
			c0,0.3,0,0.5,0,0.7c0,0.3,0.2,0.5,0.5,0.6c0,0,0.1,0,0.1,0c0,0-0.1,0-0.1,0c-0.3-0.1-0.5-0.4-0.4-0.7c0-0.2,0-0.5,0-0.7
			C120.3,68.4,120.3,68,120.3,67.6"/>
		<path style="clip-path:url(#SVGID_2_);fill:#CEE2E5;" d="M113.1,55.1c-1.1,0-2.5,0.3-3.6,1.2c-1.8,1.5-2,3.7-2.1,4.6
			c0,0.4,0.3,0.8,0.7,0.8c0.4,0,0.8-0.3,0.8-0.7c0-0.5,0.1-2.4,1.5-3.5c0.8-0.7,1.8-0.9,2.6-0.9c0.9,0,1.6,0.2,1.9,0.3
			c1.8,0.6,3.2,2.4,4.2,4.9c0.6,1.7,1,3.6,1.1,5.8c0,0,0,0,0,0c0,0.4,0,0.8,0,1.2c0,0.2,0,0.5,0,0.7c0,0.3,0.2,0.6,0.4,0.7
			c0,0,0.1,0,0.1,0c0.1,0,0.1,0,0.2,0l0,0c0,0,0,0,0,0h0h0c0,0,0.1,0,0.1,0l0,0c0,0,0.1,0,0.1,0c0,0,0.1,0,0.1,0l0,0
			c0.1,0,0.2-0.1,0.3-0.2v-4.5c-0.1-1.1-0.4-2.1-0.6-3.1l0,0c-0.2-0.7-0.4-1.4-0.7-2c-1.1-2.6-2.8-4.4-4.8-5.1
			C115.1,55.3,114.2,55.1,113.1,55.1"/>
		<path style="clip-path:url(#SVGID_2_);fill:#5B96A5;" d="M121.6,65.6v4.5c0,0,0,0,0,0L121.6,65.6
			C121.6,65.7,121.6,65.6,121.6,65.6"/>
		<path style="clip-path:url(#SVGID_2_);fill:#FFC7AB;" d="M105.7,98.1c-0.4,0-0.8,0-1.2,0.1c-2.7,0.1-5.3,0-8-0.3
			c-1-0.1-2-0.3-3.1-0.4c-0.9-0.1-1.8-0.3-2.8-0.5c-0.8-0.1-1.5-0.3-2.3-0.4c-0.7-0.1-1.4-0.3-2.1-0.4c-0.3-0.1-0.6-0.1-0.8-0.2
			c-3.1-0.7-6.7-0.8-11.1-0.3c-0.4,0-0.9,0.1-1.3,0.1c-1.1,0.1-2,0.3-3,0.5c-0.7,0.1-1.4,0.3-2,0.4c-0.6,0.1-1.2,0.3-1.7,0.5
			c-0.7,0.2-1.3,0.4-2,0.6c-0.1,0-0.2,0.1-0.3,0.1c-4.7,1.4-8.4,2.6-11.5,3.7c-1.3,0.5-2.5,0.9-3.6,1.3v10.9c2-1,4-1.7,6.1-2.2
			c0.1,0,0.2,0,0.3-0.1c2.2-0.5,6.9-1.6,8.7,0.2c0.4,0.4,0.6,0.9,0.7,1.5c0.2,1.2-0.1,2.8-0.6,4.6c-0.3,1.3-0.7,2.6-1,4.1
			c-0.7,3-1.6,6.9-1.7,10.6h36c-0.4-3.5-1.8-7.4-2.8-10c0,0-0.9-2.5-1-6.3c0-0.2,0-0.4,0-0.7v0c0-1,0.1-2.2,0.6-3
			c0.1-0.1,0.1-0.2,0.2-0.2c1-1.2,3.1-1.1,4.6-1.2c2-0.2,4-0.5,6-1c5.3-1.3,10.5-3.5,14.9-6.3c0.7-0.5,1.5-1,2.2-1.5v-9.7
			C117.5,95.9,111.4,97.7,105.7,98.1z"/>
		<path style="clip-path:url(#SVGID_2_);fill:#00D0E2;" d="M97.7,132.5c-0.4-3.5-1.8-7.4-2.8-10c0,0-0.9-2.5-1-6.3
			c0-0.2,0-0.4,0-0.7v0c0-1,0.1-2.2,0.6-3c0.1-1.7,0.3-4,0.8-7.3c0.4-2.9,0.9-5.4,1.3-7.4c-1-0.1-2-0.3-3.1-0.4
			c-0.9-0.1-1.8-0.3-2.8-0.5c-0.8-0.1-1.5-0.3-2.3-0.4c0.5,3.8,0.3,10.3-4.7,13c-2.8,1.5-6.1,0.8-8.3-0.5c-2.6-1.6-3.6-4.1-4.3-6
			c-1-2.6-1.1-4.9-1-6.7c-0.7,0.1-1.4,0.3-2,0.4c-0.6,0.1-1.2,0.3-1.7,0.5c-0.7,0.2-1.3,0.4-2,0.6c0.4,2.1,0.6,3.9,0.8,5.3
			c0.3,2.9,0.5,4.4,0.3,6.4c-0.1,1.4-0.3,2.6-0.6,3.7c0.2,1.2-0.1,2.8-0.6,4.6c-0.3,1.3-0.7,2.6-1,4.1c-0.7,3-1.6,6.9-1.7,10.6H97.7
			z"/>
		<path style="clip-path:url(#SVGID_2_);fill:#00D0E2;" d="M105.3,110c-2,0.5-4,0.8-6,1c-1.5,0.1-3.5,0-4.6,1.2
			c-0.1,0.1-0.1,0.2-0.2,0.2c-0.6,0.8-0.7,2-0.6,3v0c-1.8,0.5-3.7,1.1-5.5,1.6c1.7-6.6,3.4-13.1,5.2-19.7c1,0.2,2,0.3,3.1,0.4
			c2.7,0.3,5.3,0.4,8,0.3c-0.5,1.4-1.1,3.7-0.9,6.4C103.9,106.8,104.6,108.7,105.3,110z"/>
		<path style="clip-path:url(#SVGID_2_);fill:#00D0E2;" d="M68.2,102.6c-0.1,5.4-0.1,10.8-0.2,16.3c-1.2-0.4-2.4-0.7-3.6-1.1
			c0.5-1.8,0.8-3.4,0.6-4.6c-0.1-0.6-0.3-1.1-0.7-1.5c-1.8-1.8-6.5-0.7-8.7-0.2c-0.1,0-0.2,0-0.3,0.1c0-1.5-0.2-3.2-0.6-5.1
			c-0.5-2-1.2-3.7-1.9-5c3-1.1,6.8-2.2,11.5-3.7c0.1,0,0.2-0.1,0.3-0.1c0.6-0.2,1.3-0.4,2-0.6C67,99,67.6,100.8,68.2,102.6z"/>
		<path style="clip-path:url(#SVGID_2_);fill:#00D0E2;" d="M90.7,96.9v16.5H68.2V96.6c0.6-0.2,1.3-0.3,2-0.4c0.9-0.2,1.9-0.3,3-0.5
			c0.4-0.1,0.9-0.1,1.3-0.1c4.5-0.5,8.1-0.4,11.1,0.3c0.3,0.1,0.6,0.1,0.8,0.2c0.7,0.1,1.4,0.3,2.1,0.4C89.2,96.6,90,96.8,90.7,96.9
			z"/>
		<path style="clip-path:url(#SVGID_2_);fill:#005872;" d="M72.6,111.8c-0.7-5.2-3.5-16,4.3-17.4c2.5-0.4,7.2-0.5,9.2,1.3
			c2.3,2.1,1.8,7,1.9,9.8c0,0.8,1.3,0.8,1.3,0c0-3.2,0.4-8.3-2.2-10.7c-2.3-2.2-7.3-2.1-10.2-1.7c-8.8,1.4-6.2,13.1-5.3,19
			C71.5,112.9,72.7,112.6,72.6,111.8z"/>
		<path style="clip-path:url(#SVGID_2_);fill:#005872;" d="M72.6,116.4c-0.2,0-0.3,0-0.5,0c-0.8-0.1-1.5-0.6-1.8-1.3
			c-0.3-0.7-0.4-1.5,0-2.2c0.3-0.7,1-1.3,1.7-1.4c1-0.2,1.9,0.3,2.4,0.9c0.8,1.1,0.7,2.6-0.2,3.5C73.7,116.2,73.1,116.4,72.6,116.4z
			 M72.4,112.6c-0.1,0-0.1,0-0.2,0c-0.3,0.1-0.6,0.4-0.8,0.7c-0.2,0.4-0.2,0.8,0,1.1c0.2,0.3,0.5,0.5,0.9,0.6c0.4,0.1,0.7,0,1-0.2
			c0.5-0.4,0.4-1.2,0.1-1.7C73.1,112.9,72.7,112.6,72.4,112.6z"/>
		<circle style="clip-path:url(#SVGID_2_);fill:#FDFCF0;" cx="72.4" cy="113.9" r="1.2"/>
		<path style="clip-path:url(#SVGID_2_);fill:#FFC7AB;" d="M74.5,87.3c0.3,1.3-0.1,5.8-0.2,9.2c-0.1,1.3,0.3,2.5,0.5,3.6
			c0.5,1.1,1.3,2.4,2.4,3.8c0.5,0.6,0.9,1.1,1.4,1.5c0.7,0.7,1.7,0.7,2.4,0c0.8-0.8,1.6-1.7,2.4-2.7c1-1.3,1.7-2.5,2.3-3.6
			c0.8-3,0.8-7.3,1.2-11.8c0.1-1-0.8-1.8-1-2.7L74.5,87.3z"/>
		<path style="clip-path:url(#SVGID_2_);fill:#FFC7AB;" d="M64.3,79.4c-0.1-0.1-0.1-0.1-0.2-0.1c-0.2-0.1-0.4,0-0.6,0.1
			c-2,0.8-4,2.5-4.2,4.7c-0.1,0.8,0,1.6,0.5,2.2c0.8,1.1,2.5,1.2,3.8,0.8c1.8-0.5,3.5-1.8,4.5-3.4c-1.2-1.3-2.3-2.7-3.5-4
			C64.4,79.5,64.3,79.4,64.3,79.4z"/>
		<path style="clip-path:url(#SVGID_2_);fill:#FFC7AB;" d="M95.7,79.9c2.3-0.2,4.4,1,4.9,2.7c0.5,1.6-0.4,3.1-0.6,3.4
			c-0.1,0.1-1.3,2-3.4,2.2c-2.1,0.2-4.2-1.4-5-3.8C93,82.9,94.4,81.4,95.7,79.9z"/>
		<path style="clip-path:url(#SVGID_2_);fill:#FFC7AB;" d="M61.1,78.8c1.3,5,4.3,8.3,5.8,9.8c1.3,1.3,6.1,5.7,13.4,6
			c1.8,0.1,6.7,0.2,11.1-3.1c1-0.8,4.2-3.2,5.3-7.6c1.2-4.5-0.6-8.3-1.8-11c-1.6-3.5-6.5-13.8-16.3-14.3
			c-9.4-0.5-17.7,8.2-18.1,15.3C60.3,75.8,60.9,77.9,61.1,78.8z"/>
		<path style="clip-path:url(#SVGID_2_);fill:#005872;" d="M100.2,37.3c-0.4,1.5-0.7,3-1.5,4.3c-1.5,2.4-4.3,3.8-7,4.7
			c-4.7,1.5-9.6,2.2-14.4,3.5c-3.3,0.9-8.6,2.5-12.9,6.9c-4.3,4.4-7.3,11.3-5.8,17.8c0.6,2.8,2.3,6.6,4.1,6.6
			c2.7-0.1,2.6-9.2,7.5-10.7c2.7-0.9,3.7,1.5,9.1,1.8c5,0.2,5.7-1.7,8.6-0.9c5.4,1.5,5.7,9,8.9,9c3.4-0.1,6.2-8.3,6.7-9.8
			c1.6-4.6,0.8-6.3,2.7-8c2-1.8,4.7-0.8,7.1-1.4c2.6-0.7,4.9-2.4,6.5-4.5c1.3-1.7,2.1-3.8,2.5-5.9V37.3H100.2z"/>
		<path style="clip-path:url(#SVGID_2_);fill:#FDFCF0;" d="M68.1,82.4c0.6,1.8,2.7,3.9,3.5,4.5c2.1,1.8,4.8,2.9,7.5,3.1
			c2.6,0.2,5.2-0.5,7.4-1.8c2.2-1.3,4.7-4.2,4-5.5c-0.8-1.5-4.6,1-11,0.1c-5.9-0.8-9.9-3.8-11.2-2.3C67.9,81,67.9,81.8,68.1,82.4z"
			/>
		<path style="clip-path:url(#SVGID_2_);fill:#005872;" d="M90.6,121.1c0,0-0.1,0-0.1,0l-0.9-0.2c-0.3-0.1-0.6-0.4-0.5-0.8
			c0.1-0.3,0.4-0.6,0.8-0.5l0.3,0.1c0.5-2,2-8.8,0.1-11.8c-0.5-0.7-1.1-1.2-2-1.3c-0.9-0.1-1.6,0.1-2.3,0.6c-2.7,2.2-3.1,9-3.2,10.9
			l0.4,0.1c0.3,0.1,0.6,0.4,0.5,0.8c-0.1,0.3-0.4,0.6-0.8,0.5l-0.9-0.2c-0.3-0.1-0.5-0.3-0.5-0.6c0-0.4,0.2-9.4,3.7-12.4
			c1-0.8,2.1-1.1,3.3-0.9c1.2,0.2,2.2,0.8,2.8,1.9c2.6,4,0.1,13-0.1,13.4C91.2,120.9,90.9,121.1,90.6,121.1z"/>
	</g>
	<path class="st12" d="M45,97.9l-7.7-1.7c-3.9-0.8-6.5-4.5-5.7-8.5c0.8-3.9,4.5-6.5,8.5-5.7l7.7,1.7c3.9,0.8,6.5,4.5,5.7,8.5
		C52.8,96,49,98.6,45,97.9z"/>
	<path class="st12" d="M45,118.7l-11.1-2.2c-3.9-0.8-6.5-4.5-5.7-8.5c0.8-3.9,4.5-6.5,8.5-5.7l11.1,2.2c3.9,0.8,6.5,4.5,5.7,8.5
		C52.8,116.9,49,119.5,45,118.7z"/>
	<path class="st12" d="M47.2,136.7l-5.2,2.1c-3.7,1.5-7.9-0.3-9.4-4c-1.5-3.7,0.3-7.9,4-9.4l5.2-2.1c3.7-1.5,7.9,0.3,9.4,4
		C52.7,131,50.9,135.2,47.2,136.7z"/>
	<path class="st0" d="M50.2,136.2v3.5c0,7.3,5.9,13.2,13.2,13.2h45.1c7.3,0,13.1-5.9,13.1-13.2v-3.5H50.2z M85.9,148.2
		c-2.4,0-4.3-1.9-4.3-4.3s1.9-4.3,4.3-4.3c2.3,0,4.3,1.9,4.3,4.3S88.3,148.2,85.9,148.2z"/>
	<path class="st0" d="M108.5,20.3H63.4c-7,0-12.7,5.5-13.1,12.4h71.3C121.2,25.8,115.5,20.3,108.5,20.3z M91.5,28.7H80.4
		c-1,0-1.9-0.9-1.9-1.9c0-1,0.9-1.9,1.9-1.9h11.1c1,0,1.9,0.8,1.9,1.9C93.3,27.8,92.5,28.7,91.5,28.7z"/>
</g>
</svg>
