<?xml version="1.0" encoding="utf-8"?>
<!-- Generator: Adobe Illustrator 22.1.0, SVG Export Plug-In . SVG Version: 6.00 Build 0)  -->
<svg version="1.1" id="Layer_1" xmlns="http://www.w3.org/2000/svg" xmlns:xlink="http://www.w3.org/1999/xlink" x="0px" y="0px"
	 viewBox="0 0 269.6 215" style="enable-background:new 0 0 269.6 215;" xml:space="preserve">
<style type="text/css">
	.st0{fill:#FFFFFF;}
	.st1{opacity:7.000000e-02;}
	.st2{fill:#DFF8FA;}
	.st3{fill:#F3FAFD;}
	.st4{opacity:0.7;}
	.st5{opacity:0.4;}
	.st6{fill:#8FBBC5;}
	.st7{fill:#B5D3D8;}
	.st8{fill:#FF9F6B;}
	.st9{fill:#EDF1EA;}
	.st10{fill:#DFF9F7;}
	.st11{fill:#005872;}
	.st12{fill:#FFC7AB;}
	.st13{fill:#00D0E2;}
	.st14{fill:#FDFCF0;}
	.st15{fill:#FFB926;}
	.st16{fill:#33899B;}
	.st17{opacity:0.49;fill:#E5F8FA;}
	.st18{opacity:0.17;fill:#C0E0E5;}
	.st19{opacity:0.32;}
	.st20{opacity:0.85;fill:#59DB59;}
	.st21{fill:#E5F8FA;}
	.st22{opacity:0.6;}
	.st23{fill:#C0E0E5;}
	.st24{fill:#B8D8DB;}
	.st25{opacity:0.57;}
	.st26{fill:#8AC4D4;}
	.st27{fill:#00BED5;}
	.st28{fill:#91D757;}
	.st29{fill:#BDEAA1;}
	.st30{fill:#F66E3C;}
	.st31{fill:#FFD68E;}
	.st32{fill:#FF9900;}
	.st33{fill:#FFF4E2;}
	.st34{fill:#D1E6ED;}
	.st35{fill:#8ACA4F;}
	.st36{opacity:0.37;fill:#FFF4E2;}
	.st37{fill:#D4EAEE;}
	.st38{clip-path:url(#SVGID_6_);}
	.st39{fill:none;}
	.st40{clip-path:url(#SVGID_6_);fill:#A1D669;}
	.st41{fill:#99C961;}
	.st42{fill:#FFF5E5;}
	.st43{fill:#FED89E;}
	.st44{fill:#FFF5E6;}
	.st45{fill:#4E8899;}
	.st46{fill:#FD9F28;}
	.st47{fill:#FDBC57;}
	.st48{fill:#A2D46F;}
	.st49{fill:#E47650;}
	.st50{fill:#CCE7EA;}
	.st51{clip-path:url(#SVGID_8_);}
	.st52{fill:#A1D669;}
	.st53{fill:none;stroke:#C0E0E5;stroke-width:1.5;stroke-linecap:round;stroke-linejoin:round;stroke-miterlimit:10;}
	.st54{fill:none;stroke:#8CA0A4;stroke-width:2.5;stroke-linecap:round;stroke-linejoin:round;stroke-miterlimit:10;}
	.st55{fill:none;stroke:#FFF4E2;stroke-width:1.5;stroke-linecap:round;stroke-linejoin:round;stroke-miterlimit:10;}
	.st56{fill:none;stroke:#005872;stroke-width:2;stroke-linecap:round;stroke-linejoin:round;stroke-miterlimit:10;}
	.st57{fill:#E6EBEE;}
	.st58{fill:none;stroke:#8CA0A4;stroke-width:3;stroke-linecap:round;stroke-linejoin:round;stroke-miterlimit:10;}
	.st59{fill:none;stroke:#8AB29D;stroke-width:3;stroke-linecap:round;stroke-linejoin:round;stroke-miterlimit:10;}
	.st60{fill:#006951;}
	.st61{fill:#8CA0A4;}
	.st62{opacity:0.8;fill:#00D0E2;}
	.st63{fill:#008395;}
	.st64{fill:#F8E874;}
	.st65{fill:#004938;}
	.st66{fill:#DED268;}
	.st67{fill:#818D00;}
	.st68{clip-path:url(#SVGID_10_);}
	.st69{opacity:0.2;}
	.st70{clip-path:url(#SVGID_12_);}
	.st71{clip-path:url(#SVGID_14_);}
	.st72{opacity:0.3;}
	.st73{clip-path:url(#SVGID_16_);}
	.st74{fill:#3CBA3C;}
	.st75{opacity:0.6;fill:#DEF8F8;}
	.st76{fill:#59DB59;}
	.st77{fill:#C1FF85;}
	.st78{fill:none;stroke:#FFCC81;stroke-width:0.5;stroke-linecap:round;stroke-linejoin:round;stroke-miterlimit:10;}
	.st79{fill:#6CD828;}
	.st80{fill:#00C700;}
	.st81{fill:#DEF8F8;}
	.st82{fill:#FD8D63;}
	.st83{fill:#BE5114;}
	.st84{fill:#B14515;}
	.st85{fill:#00B2CE;}
	.st86{fill:#E4EBEE;}
	.st87{fill:#003C4F;}
	.st88{fill:none;stroke:#00D0E2;stroke-width:3;stroke-linecap:round;stroke-linejoin:round;stroke-miterlimit:10;}
	.st89{fill:none;stroke:#003C4F;stroke-width:2;stroke-linecap:round;stroke-linejoin:round;stroke-miterlimit:10;}
	.st90{fill:none;stroke:#003C4F;stroke-width:3;stroke-linecap:round;stroke-linejoin:round;stroke-miterlimit:10;}
	.st91{fill:none;stroke:#003C4F;stroke-linecap:round;stroke-linejoin:round;stroke-miterlimit:10;}
	.st92{fill:#00B8ED;}
	.st93{fill:none;stroke:#00B8ED;stroke-linecap:round;stroke-linejoin:round;stroke-miterlimit:10;}
	.st94{fill:none;stroke:#00B8ED;stroke-width:0.75;stroke-linecap:round;stroke-linejoin:round;stroke-miterlimit:10;}
	.st95{fill:none;stroke:#003928;stroke-width:0.5;stroke-linecap:round;stroke-miterlimit:10;}
	.st96{fill:#F9F09E;}
	.st97{fill:none;stroke:#003C4F;stroke-width:0.5;stroke-linecap:round;stroke-linejoin:round;stroke-miterlimit:10;}
	.st98{fill:#00B4E7;}
	.st99{fill:#00566F;}
	.st100{opacity:0.14;}
	.st101{clip-path:url(#SVGID_18_);fill:#FFF7F9;}
	.st102{fill:#FFF7F9;}
	.st103{fill:#848484;}
	.st104{fill:#FFCC66;}
	.st105{fill:#FFBE38;}
	.st106{fill:#FFA71C;}
	.st107{fill:#FFE9BF;}
	.st108{fill:#47786F;}
	.st109{fill:#FFC65B;}
	.st110{fill:#FFBA32;}
	.st111{fill:#FFA519;}
	.st112{fill:#FFE0AA;}
	.st113{fill:#5B7C63;}
	.st114{fill:#ABE573;}
	.st115{fill:#87C149;}
	.st116{fill:#FFBE36;}
	.st117{fill:#FFA61A;}
	.st118{fill:#FFC85A;}
	.st119{fill:#FFB333;}
	.st120{fill:#EFE2B0;}
	.st121{fill:#FFC346;}
	.st122{fill:#FFD18A;}
	.st123{fill:#FFAD17;}
	.st124{fill:#FFB52B;}
	.st125{fill:#E7EDD5;}
	.st126{fill:#FFEAC3;}
	.st127{fill:#CFEAED;}
	.st128{fill:#D9ECEF;}
	.st129{opacity:0.21;fill:#FFE0AA;}
	.st130{fill:#F4F4F4;}
	.st131{fill:#E8F1F2;}
	.st132{clip-path:url(#SVGID_24_);fill:#D6E6E9;}
	.st133{clip-path:url(#SVGID_24_);fill:#1C6C82;}
	.st134{clip-path:url(#SVGID_24_);fill:#CEE2E5;}
	.st135{clip-path:url(#SVGID_24_);fill:#5B96A5;}
	.st136{clip-path:url(#SVGID_24_);fill:#FFC7AB;}
	.st137{clip-path:url(#SVGID_24_);fill:#00D0E2;}
	.st138{clip-path:url(#SVGID_24_);fill:#005872;}
	.st139{clip-path:url(#SVGID_24_);fill:#FDFCF0;}
	.st140{fill:#D6E6E9;}
	.st141{fill:#ECFBFC;}
	.st142{fill:#F1F7F7;}
	.st143{fill:#E6F0F2;}
	.st144{clip-path:url(#SVGID_26_);fill:#D6E6E9;}
	.st145{clip-path:url(#SVGID_26_);fill:#1C6C82;}
	.st146{clip-path:url(#SVGID_26_);fill:#CEE2E5;}
	.st147{clip-path:url(#SVGID_26_);fill:#5B96A5;}
	.st148{clip-path:url(#SVGID_26_);fill:#FFC7AB;}
	.st149{clip-path:url(#SVGID_26_);fill:#00D0E2;}
	.st150{clip-path:url(#SVGID_26_);fill:#005872;}
	.st151{clip-path:url(#SVGID_26_);fill:#FDFCF0;}
	.st152{clip-path:url(#SVGID_28_);fill:#D6E6E9;}
	.st153{clip-path:url(#SVGID_28_);fill:#1C6C82;}
	.st154{clip-path:url(#SVGID_28_);fill:#CEE2E5;}
	.st155{clip-path:url(#SVGID_28_);fill:#5B96A5;}
	.st156{clip-path:url(#SVGID_28_);fill:#FFC7AB;}
	.st157{clip-path:url(#SVGID_28_);fill:#00D0E2;}
	.st158{clip-path:url(#SVGID_28_);fill:#005872;}
	.st159{clip-path:url(#SVGID_28_);fill:#FDFCF0;}
	.st160{fill:none;stroke:#8FBBC5;stroke-width:1.5;stroke-linecap:round;stroke-linejoin:round;stroke-miterlimit:10;}
	
		.st161{fill:none;stroke:#005872;stroke-width:4;stroke-linecap:round;stroke-linejoin:round;stroke-miterlimit:10;stroke-dasharray:12,18;}
	.st162{fill:#FFCA66;}
	.st163{fill:#FCB626;}
	.st164{opacity:0.25;}
	.st165{fill:#EAF3DF;}
	.st166{fill:#F7971D;}
	.st167{fill:#015873;}
	.st168{opacity:0.34;}
	.st169{fill:#FFF4E5;}
	.st170{fill:none;stroke:#005872;stroke-width:4;stroke-linecap:round;stroke-linejoin:round;}
	.st171{fill:none;stroke:#005872;stroke-width:4;stroke-linecap:round;stroke-linejoin:round;stroke-dasharray:12.3456,18.5184;}
	.st172{fill:#FFC859;}
	.st173{fill:#FFE8BC;}
	.st174{fill:#336B63;}
	.st175{opacity:0.12;}
	.st176{fill:#95DFFC;}
	.st177{opacity:0.53;}
	.st178{fill:#CBCFDE;}
	.st179{fill:#253668;}
	.st180{fill:#FF7190;}
	.st181{fill:#E2E6EA;}
	.st182{opacity:9.000000e-02;}
	.st183{fill:#4B5D8C;}
	.st184{fill:#ED4F79;}
	.st185{fill:#E57B4C;}
	.st186{opacity:0.5;}
</style>
<g>
	<path class="st2" d="M44.1,181.2c51.2,46.2,149.2,22.9,191.6-36.4c16.3-22.8,37.4-69.2,18.2-99.6C217.7-11.8,46.8-0.8,15.9,77.8
		C2.2,112.4,17.1,156.9,44.1,181.2"/>
	<path class="st131" d="M241.6,59.7l-0.1,100.8c0,1.5-1.4,2.8-3.1,2.8l-188.1-0.2c-1.7,0-3.1-1.2-3.1-2.8l0.1-100.8
		c0-1.5,1.4-2.8,3.1-2.8L238.5,57C240.2,57,241.6,58.2,241.6,59.7"/>
	<path class="st140" d="M179.6,71.4v15.8h-4.2V74.5c0-0.2-0.2-0.4-0.4-0.4h-23c-0.2,0-0.4,0.2-0.4,0.4v33.3H170v4.1h-22.8V71.4
		c0-0.8,0.6-1.4,1.4-1.4h29.5C178.9,70.1,179.6,70.7,179.6,71.4z"/>
	<path class="st140" d="M170,88.9v22.9h19V88.6c0-0.8-0.6-1.4-1.4-1.4h-15.9C170.8,87.2,170,88,170,88.9z M185.5,108.1h-11.8V91.4
		c0-0.2,0.2-0.5,0.5-0.5H185c0.2,0,0.5,0.2,0.5,0.5V108.1z"/>
	<path class="st140" d="M96.9,124.4H83.1c-0.3,0-0.6-0.3-0.6-0.6v-4.2c0-0.3,0.3-0.6,0.6-0.6h13.8c0.3,0,0.6,0.3,0.6,0.6v4.2
		C97.5,124.1,97.3,124.4,96.9,124.4"/>
	<path class="st140" d="M105.1,131.1H91.3c-0.3,0-0.6-0.3-0.6-0.6v-4.2c0-0.3,0.3-0.6,0.6-0.6h13.8c0.3,0,0.6,0.3,0.6,0.6v4.2
		C105.7,130.8,105.4,131.1,105.1,131.1"/>
	<path class="st140" d="M227.9,141.2H214c-0.3,0-0.6-0.3-0.6-0.6v-4.2c0-0.3,0.3-0.6,0.6-0.6h13.8c0.3,0,0.6,0.3,0.6,0.6v4.2
		C228.5,140.9,228.2,141.2,227.9,141.2z"/>
	<path class="st140" d="M236.1,148h-13.8c-0.3,0-0.6-0.3-0.6-0.6v-4.2c0-0.3,0.3-0.6,0.6-0.6h13.8c0.3,0,0.6,0.3,0.6,0.6v4.2
		C236.7,147.7,236.4,148,236.1,148z"/>
	<path class="st140" d="M88.4,131.1H74.6c-0.3,0-0.6-0.3-0.6-0.6v-4.2c0-0.3,0.3-0.6,0.6-0.6h13.8c0.3,0,0.6,0.3,0.6,0.6v4.2
		C89,130.8,88.8,131.1,88.4,131.1"/>
	<polygon class="st140" points="134.4,115.8 125.4,115.8 125.4,111.9 197.1,111.9 197.1,115.8 140.5,115.8 	"/>
	<path class="st140" d="M129.7,108.3c0-1.5,0.7-2.7,1.8-3.6l5.4,0c1.1,0.8,1.8,2.1,1.8,3.6c0,2.5-2,4.5-4.5,4.5
		C131.7,112.8,129.7,110.8,129.7,108.3z"/>
	<path class="st2" d="M242.4,49l-0.1,123.7c0,1.5-1.2,2.7-2.7,2.7l-188.2-0.2c-1.5,0-2.7-1.2-2.7-2.7l0-0.4l187.9,0.2
		c1.5,0,2.7-1.2,2.7-2.7l0.1-123.3l0.4,0C241.2,46.3,242.4,47.5,242.4,49z"/>
	<path class="st141" d="M47.8,162.1l0,2.5l8.1,0l1-1.5l-6.7,0C49.3,163.1,48.4,162.7,47.8,162.1 M112.7,50.8l-4,6.1l19,0l4-6.1
		L112.7,50.8"/>
	<path class="st142" d="M108.6,56.8l-1,1.5l-46.5,69.9l-13.2,19.8l0,14c0.6,0.6,1.4,1,2.4,1l6.7,0l4.1-6.2l17.2-25.8h-3.7
		c-0.3,0-0.6-0.3-0.6-0.6v-4.2c0-0.3,0.3-0.6,0.6-0.6h7.2l0.9-1.4c-0.2-0.1-0.3-0.3-0.3-0.5v-4.2c0-0.3,0.3-0.6,0.6-0.6h3.2
		l40.4-60.7l1-1.5L108.6,56.8"/>
	<path class="st143" d="M86.3,119h-3.2c-0.3,0-0.6,0.3-0.6,0.6v4.2c0,0.2,0.1,0.4,0.3,0.5L86.3,119"/>
	<path class="st143" d="M81.8,125.7h-7.2c-0.3,0-0.6,0.3-0.6,0.6v4.2c0,0.3,0.3,0.6,0.6,0.6h3.7L81.8,125.7"/>
	<path class="st141" d="M62.9,163.2l-2.6,3.8l8.7,0l2.5-3.8L62.9,163.2 M144.8,53.1l-8.7,0l-2.5,3.7l8.7,0L144.8,53.1"/>
	<path class="st142" d="M133.6,56.9L92.3,119h4.7c0.3,0,0.6,0.3,0.6,0.6v4.2c0,0.3-0.3,0.6-0.6,0.6h-8.3l-0.9,1.3h0.6
		c0.3,0,0.6,0.3,0.6,0.6v4.2c0,0.3-0.3,0.6-0.6,0.6h-4.2l-21.3,32.1l8.7,0l21.4-32.1h-1.7c-0.3,0-0.6-0.3-0.6-0.6v-4.2
		c0-0.3,0.3-0.6,0.6-0.6h5.3l45.8-68.8L133.6,56.9"/>
	<path class="st143" d="M96.9,119h-4.7l-3.6,5.4h8.3c0.3,0,0.6-0.3,0.6-0.6v-4.2C97.5,119.3,97.3,119,96.9,119"/>
	<path class="st143" d="M96.5,125.7h-5.3c-0.3,0-0.6,0.3-0.6,0.6v4.2c0,0.3,0.3,0.6,0.6,0.6h1.7L96.5,125.7"/>
	<path class="st143" d="M88.4,125.7h-0.6l-3.6,5.4h4.2c0.3,0,0.6-0.3,0.6-0.6v-4.2C89,126,88.8,125.7,88.4,125.7"/>
	<path class="st0" d="M241.5,47.9c0-1.5-1.2-2.7-2.7-2.7L50.6,45.1c-1.5,0-2.7,1.2-2.7,2.7l-0.1,100.4l0,16.5l0,6.8
		c0,1.5,1.2,2.7,2.7,2.7l188.2,0.2c1.5,0,2.7-1.2,2.7-2.7L241.5,47.9z M47,163.2l0.1-106.4L242,57l-0.1,106.4L47,163.2z"/>
	<path class="st12" d="M197.2,123c-2.6,3.1-5.7,5.8-9.1,8c-4.8,3.2-10.6,5.6-16.4,7c-2.3,0.6-4.6,0.9-6.8,1.2
		c-1.6,0.2-3.9,0-5.1,1.3c0,0-0.1,0.1-0.1,0.1c0,0-0.1,0.1-0.1,0.1c-0.7,0.9-0.7,2.2-0.7,3.4c0,0.2,0,0.5,0,0.7c0.1,4.2,1.2,7,1.2,7
		c1.1,3,2.7,7.4,3.1,11.3h-40c0.1-4.2,1.1-8.6,1.9-12c0.4-1.6,0.8-3.1,1.1-4.4c0.5-2.1,0.9-3.9,0.7-5.3c0-0.1,0-0.2-0.1-0.3
		c-0.1-0.6-0.4-1-0.8-1.4c-1.2-1.2-3.7-1.2-5.9-0.9c-0.1,0-0.3,0-0.4,0.1c-0.1,0-0.3,0-0.4,0.1c-0.3,0-0.5,0.1-0.8,0.1
		c-0.8,0.2-1.5,0.3-2.1,0.4c-0.1,0-0.2,0-0.3,0.1c-2,0.4-6.1,2.1-6.1,2.1c-0.2,0.1-0.3,0.1-0.5,0.2c-0.2,0.1-0.3,0.1-0.3,0.1
		c-7.2,3-13.6,8.3-15.7,16c-0.7,2.6-0.5,5.8-1.6,8.3c-0.7,1.6-2,1.2-2.8-0.1c-4.2-6.7-0.2-14.7,3.4-20.7c1.9-3.2,4.3-6.1,7.1-8.7
		c2.5-2.3,5.5-4.4,8.6-6.2c0.3-0.2,2.9-1.2,4.9-2c0.6-0.2,1.2-0.4,1.6-0.6c3.1-1,6.8-2.2,11.3-3.6c0.1,0,0.2-0.1,0.3-0.1
		c0,0,0.1,0,0.1,0c0.7-0.2,1.4-0.4,2.1-0.6c0.6-0.2,1.3-0.3,1.9-0.5c0.7-0.2,1.5-0.3,2.2-0.5l0.1,0c0.6-0.1,1.2-0.2,1.8-0.3
		c0.5-0.1,1-0.1,1.5-0.2c0.2,0,0.5-0.1,0.7-0.1c0.2,0,0.3,0,0.5-0.1c5.1-0.5,9.1-0.4,12.6,0.3c0.2,0,0.4,0.1,0.7,0.1l0.4,0.1
		c0.6,0.1,1.2,0.3,1.9,0.4c0.1,0,0.2,0,0.3,0.1l0,0c0.8,0.2,1.7,0.3,2.5,0.5c1,0.2,2,0.4,3.1,0.5c1.1,0.2,2.2,0.3,3.3,0.4l0.1,0
		c3,0.3,5.9,0.5,8.9,0.4c0.4,0,0.8,0,1.2-0.1c10.2-0.7,21.6-5.4,26.1-15.3c1.2-2.7,1.5-6.1,3.2-8.5c1-1.6,2.3-1,3,0.6
		C207.6,109.4,202,117.3,197.2,123z"/>
	<path class="st13" d="M163.2,163.2H123c0.1-4.2,1.1-8.5,1.9-11.9c0.4-1.6,0.8-3.2,1.2-4.5c0.5-2.1,0.9-3.8,0.7-5.2
		c0-0.1,0-0.2,0.1-0.3c0.3-1.2,0.5-2.4,0.6-3.8c0.2-2.2,0-3.9-0.4-7.2c-0.2-1.6-0.4-3.6-0.8-5.9c0,0,0-0.1,0-0.1
		c0.7-0.2,1.4-0.4,2.2-0.6c0.6-0.2,1.3-0.3,2-0.5c0.7-0.2,1.5-0.3,2.2-0.5l0,0.1c-0.1,1.3,0,2.9,0.3,4.7c0.2,0.9,0.4,1.8,0.8,2.7
		c0.1,0.4,0.3,0.8,0.5,1.2c0.8,1.9,1.9,4,4.3,5.5c2.2,1.3,5.4,2.1,8.3,1c0.3-0.1,0.7-0.3,1-0.4c0.4-0.2,0.7-0.4,1.1-0.7
		c0.9-0.7,1.6-1.4,2.2-2.3c0.4-0.5,0.7-1.1,0.9-1.7c0.2-0.4,0.3-0.7,0.4-1.1c0.8-2.5,1-5.3,0.8-7.5c0-0.4-0.1-0.8-0.1-1.2l0-0.1
		c0.8,0.2,1.7,0.3,2.5,0.5c1,0.2,2.1,0.4,3.1,0.5c1.1,0.2,2.3,0.3,3.4,0.5l0,0.1c-0.5,2.2-1,5-1.4,8.2c-0.5,3.5-0.8,6-0.8,8
		c0,0,0,0.1,0,0.1c-0.6,0.9-0.7,2.2-0.7,3.4v0c0,0.3,0,0.5,0,0.7c0.1,4.3,1.2,7.1,1.2,7.1C161.2,155,162.8,159.4,163.2,163.2z"/>
	<path class="st13" d="M171.7,138.1c-2.3,0.5-4.5,0.9-6.7,1.1c-1.6,0.2-3.9,0-5.1,1.3c-0.1,0.1-0.1,0.2-0.2,0.3
		c-0.6,0.9-0.7,2.2-0.7,3.4v0c-2.1,0.6-4.1,1.2-6.2,1.8c1.9-7.3,3.8-14.7,5.8-22c1.1,0.2,2.3,0.3,3.4,0.5c3,0.3,5.9,0.5,8.9,0.4
		c-0.6,1.6-1.2,4.1-1,7.1C170.2,134.5,170.9,136.6,171.7,138.1z"/>
	<path class="st13" d="M130.3,129.8c-0.1,6.1-0.2,12.1-0.2,18.2c-1.3-0.4-2.7-0.8-4-1.2c0.5-2.1,0.9-3.8,0.7-5.2
		c-0.1-0.7-0.4-1.2-0.8-1.7c-2-2-7.3-0.8-9.7-0.2c-0.1,0-0.2,0-0.3,0.1c0-1.7-0.2-3.6-0.7-5.7c-0.6-2.2-1.4-4.1-2.2-5.6
		c3.4-1.2,7.6-2.5,12.8-4.1c0.1,0,0.3-0.1,0.4-0.1c0.7-0.2,1.4-0.4,2.2-0.6C129,125.7,129.6,127.8,130.3,129.8z"/>
	<path class="st13" d="M155.5,123.4v18.4h-25.2v-18.8c0.7-0.2,1.5-0.3,2.2-0.5c1-0.2,2.1-0.4,3.3-0.5c0.5-0.1,1-0.1,1.5-0.2
		c5-0.5,9-0.4,12.5,0.3c0.3,0.1,0.6,0.1,0.9,0.2c0.8,0.2,1.5,0.3,2.3,0.5C153.8,123.1,154.6,123.3,155.5,123.4z"/>
	<path class="st11" d="M135.2,140c-0.8-5.8-3.9-17.9,4.8-19.4c2.8-0.5,8-0.6,10.2,1.4c2.6,2.4,2.1,7.8,2.1,10.9c0,0.9,1.4,0.9,1.4,0
		c0-3.6,0.4-9.2-2.5-12c-2.6-2.4-8.2-2.4-11.4-1.9c-9.8,1.6-6.9,14.6-6,21.3C134,141.3,135.3,140.9,135.2,140z"/>
	<path class="st11" d="M137.7,141.9c-0.1-0.4-0.3-0.8-0.5-1.2c-0.4-0.6-1.2-1.1-2-1.1c-0.2,0-0.5,0-0.7,0.1
		c-0.2,0.1-0.5,0.1-0.7,0.3c-0.5,0.3-0.9,0.8-1.2,1.3c-0.1,0.2-0.2,0.4-0.2,0.7c-0.1,0.6,0,1.3,0.2,1.8c0.4,0.7,1.1,1.3,2,1.4
		c0.2,0,0.4,0.1,0.6,0.1c0.7,0,1.3-0.2,1.7-0.6C137.6,143.9,137.9,142.9,137.7,141.9z M136,143.5c-0.2,0.2-0.6,0.3-1,0.3l-0.1,0
		c-0.4-0.1-0.8-0.3-1-0.7c-0.2-0.3-0.2-0.7,0-1.1l0-0.1c0.1-0.3,0.4-0.6,0.6-0.7l0,0c0.1,0,0.2-0.1,0.2-0.1c0.1,0,0.1,0,0.2,0
		c0.1,0,0.1,0,0.2,0c0.3,0.1,0.7,0.3,0.9,0.5c0.1,0.1,0.1,0.2,0.2,0.3c0.1,0.3,0.2,0.7,0.1,1C136.2,143.1,136.1,143.3,136,143.5z"/>
	<circle class="st14" cx="135" cy="142.4" r="1.4"/>
	<path class="st12" d="M137.3,112.7c0.3,1.5-0.1,6.5-0.3,10.3c-0.1,1.4,0.3,2.8,0.5,4.1c0.6,1.2,1.5,2.7,2.7,4.2
		c0.5,0.6,1,1.2,1.5,1.7c0.7,0.8,1.9,0.8,2.7,0c0.9-0.8,1.8-1.9,2.7-3c1.1-1.4,1.9-2.8,2.6-4c0.9-3.4,0.9-8.2,1.4-13.1
		c0.1-1.2-0.9-2-1.1-3L137.3,112.7z"/>
	<path class="st12" d="M125.9,103.8c-0.1-0.1-0.1-0.1-0.2-0.1c-0.2-0.1-0.4,0-0.6,0.1c-2.2,0.9-4.4,2.7-4.7,5.2
		c-0.1,0.8,0,1.7,0.5,2.4c0.9,1.2,2.7,1.3,4.2,0.9c2-0.6,3.9-2,5-3.8c-1.3-1.5-2.6-3-3.9-4.5C126,104,126,103.9,125.9,103.8z"/>
	<path class="st12" d="M161,104.5c2.6-0.2,4.9,1.1,5.5,3c0.6,1.8-0.4,3.5-0.6,3.7c-0.1,0.1-1.4,2.2-3.8,2.4
		c-2.3,0.2-4.7-1.5-5.6-4.2C158.1,107.8,159.5,106.1,161,104.5z"/>
	<path class="st12" d="M122.4,103.2c1.5,5.6,4.8,9.3,6.5,10.9c1.5,1.4,6.8,6.3,15,6.7c2,0.1,7.5,0.3,12.4-3.5
		c1.1-0.8,4.7-3.6,5.9-8.5c1.3-5-0.6-9.3-2-12.3c-1.8-3.9-7.3-15.5-18.2-16c-10.5-0.5-19.8,9.2-20.2,17.1
		C121.5,99.9,122.1,102.2,122.4,103.2z"/>
	<path class="st11" d="M166,56.8c-0.4,1.7-0.8,3.4-1.7,4.8c-1.7,2.7-4.8,4.2-7.8,5.2c-5.2,1.7-10.7,2.5-16,3.9
		c-3.7,1-9.6,2.8-14.4,7.7c-4.8,4.9-8.1,12.6-6.5,19.8c0.7,3.1,2.6,7.4,4.6,7.3c3.1-0.1,2.9-10.2,8.4-12c3-1,4.1,1.7,10.2,2
		c5.5,0.2,6.4-2,9.6-1c6,1.7,6.4,10.1,10,10c3.7-0.1,6.9-9.3,7.5-11c1.8-5.2,0.9-7.1,3-8.9c2.3-2,5.3-0.9,8-1.6
		c2.9-0.8,5.5-2.6,7.3-5.1c0.2-0.3,0.5-0.7,0.7-1c1.4-2.3,2.1-5.1,2.1-7.8V56.8H166z"/>
	<path class="st14" d="M130.1,107.2c0.7,2,3.1,4.3,3.9,5.1c2.4,2,5.3,3.2,8.4,3.5c2.9,0.2,5.8-0.5,8.2-2c2.5-1.5,5.3-4.7,4.5-6.2
		c-0.9-1.6-5.1,1.1-12.2,0.2c-6.6-0.9-11-4.3-12.5-2.6C130,105.7,129.9,106.5,130.1,107.2z"/>
	<path class="st11" d="M155.3,150.5c0,0-0.1,0-0.1,0l-1-0.2c-0.4-0.1-0.6-0.5-0.6-0.8c0.1-0.4,0.5-0.6,0.8-0.6l0.3,0.1
		c0.6-2.3,2.2-9.8,0.1-13.2c-0.5-0.8-1.2-1.3-2.2-1.4c-1-0.2-1.8,0.1-2.6,0.7c-3,2.5-3.5,10.1-3.6,12.2l0.5,0.1
		c0.4,0.1,0.6,0.5,0.5,0.9c-0.1,0.4-0.5,0.6-0.9,0.5l-1.1-0.3c-0.3-0.1-0.5-0.4-0.5-0.7c0-0.4,0.2-10.5,4.1-13.8
		c1.1-0.9,2.3-1.3,3.7-1c1.4,0.2,2.4,0.9,3.2,2.1c2.9,4.5,0.1,14.5-0.1,15C155.9,150.2,155.7,150.5,155.3,150.5z"/>
	<circle class="st11" cx="147.6" cy="51.3" r="1.5"/>
	<path class="st12" d="M108.5,142c0.1,0,0.3-0.1,0.5-0.2C108.8,141.9,108.6,142,108.5,142z"/>
	<path class="st11" d="M240.9,47.9h1.9l0,0l-1.6,0h1.6l0,0l-1.6,0h1.6c0-1.3-0.5-2.4-1.3-3.2c-0.8-0.8-2-1.3-3.2-1.3L50,43.2l0,1.9
		l0-1.9l-0.1,0c-1.3,0-2.4,0.5-3.2,1.3c-0.8,0.8-1.3,2-1.3,3.2l-0.1,100.4l0,16.5v0l0,6.8l1.9,0l-1.9-0.1c0,0,0,0,0,0.1
		c0,1.3,0.5,2.4,1.3,3.2c0.8,0.8,2,1.3,3.2,1.3h0l188.2,0.2h0l0,0l0-1.3l0,1.3h0l0-1.3l0,1.3c1.2,0,2.4-0.5,3.2-1.3
		c0.8-0.8,1.3-2,1.3-3.2h-1.9l1.9,0.3c0-0.1,0-0.2,0-0.3h-1.9l1.9,0.3l-1.8-0.3l1.8,0.5c0,0,0-0.1,0-0.2l-1.8-0.3l1.8,0.5l0.1-0.3
		l0.1-123.9v0H240.9l-1.9,0l-0.1,123.7l1.9,0l-1.8-0.5c0,0,0,0.1,0,0.2c0,0.1,0,0.2,0,0.3c0,0.2-0.1,0.4-0.2,0.5
		c-0.1,0.1-0.3,0.2-0.5,0.2l0,0l0,1.3v-1.3h0l0,1.3v-1.3h0l-188.2-0.2h0c-0.2,0-0.4-0.1-0.5-0.2c-0.1-0.1-0.2-0.3-0.2-0.5h-1.7
		l1.7,0.1l0-0.1h-1.7l1.7,0.1l-1.2,0l1.2,0l0,0l-1.2,0l1.2,0l0,0l0-6.8v0l0-16.5l0.1-100.4v0c0-0.2,0.1-0.4,0.2-0.6
		c0.1-0.1,0.3-0.2,0.5-0.2v-1.5l0,1.5l0,0v-1.5l0,1.5l0-1l0,1l0,0l0-1l0,1h0l0,0l188.3,0.2h0c0.2,0,0.4,0.1,0.6,0.2
		c0.1,0.1,0.2,0.3,0.2,0.5l0,0l1.6,0l-1.6,0l0,0l1.6,0l-1.6,0v0L240.9,47.9z M47.5,163.2l1.9,0l0.1-104.5L239,58.8l-0.1,102.6
		l-191.4-0.2L47.5,163.2l1.9,0L47.5,163.2l0,1.9l195.2,0.2l0.1-110.1L45.7,54.9L45.6,165l1.9,0L47.5,163.2z"/>
	<path class="st11" d="M247.2,171.5l-0.8,4.4c0,1.3-1.1,2.4-2.4,2.4H44.2c-1.3,0-2.4-1.1-2.4-2.4l-0.8-4.4c0-1.3,1.1-2.4,2.4-2.4
		h79.4c0.6,0,1.1,0.4,1.2,1l0.4,1.5c0.1,0.5,0.6,0.9,1.1,0.9h37.3c0.5,0,1-0.4,1.1-0.9l0.4-1.5c0.1-0.6,0.6-1,1.2-1h79.4
		C246.1,169.1,247.2,170.2,247.2,171.5z"/>
	<path class="st0" d="M41.2,106.3c0-0.7,0.6-1.3,1.3-1.3H50c0.7,0,1.3,0.6,1.3,1.3c0,0.7-0.6,1.3-1.3,1.3h-7.5
		C41.8,107.5,41.2,106.9,41.2,106.3z"/>
	<polyline class="st131" points="70.3,176.6 22.2,176.6 22.2,113.5 70.3,113.5 70.3,176.6 	"/>
	<path class="st11" d="M49.1,185.1c0,1.6-1.3,2.9-2.9,2.9c-1.6,0-2.9-1.3-2.9-2.9c0-1.6,1.3-2.9,2.9-2.9
		C47.8,182.3,49.1,183.5,49.1,185.1z"/>
	<path class="st11" d="M70.3,143.8v32.8H22.2v-63.1h48.1v5V143.8 M73.6,117.9v-7.2c0-6.7-5.5-12.1-12.2-12.1H31
		c-6.7,0-12.1,5.4-12.1,12.1v71.5c0,6.7,5.4,12.1,12.1,12.1h30.4c6.7,0,12.2-5.4,12.2-12.1v-38.4V117.9 M70.3,179.9v2.3
		c0,4.9-4,8.9-8.8,8.9H31c-4.9,0-8.9-4-8.9-8.9v-2.3H70.3 M22.2,110.3c0.2-4.7,4.1-8.4,8.8-8.4h30.4c4.7,0,8.6,3.7,8.8,8.4H22.2"/>
	<path class="st11" d="M51.2,106.3c0,0.7-0.6,1.3-1.3,1.3h-7.5c-0.7,0-1.3-0.6-1.3-1.3c0-0.7,0.6-1.3,1.3-1.3H50
		C50.7,105,51.2,105.6,51.2,106.3z"/>
	<g>
		<defs>
			<polyline id="SVGID_25_" points="70.3,176.6 22.2,176.6 22.2,113.5 70.3,113.5 70.3,176.6 			"/>
		</defs>
		<clipPath id="SVGID_2_">
			<use xlink:href="#SVGID_25_"  style="overflow:visible;"/>
		</clipPath>
		<path style="clip-path:url(#SVGID_2_);fill:#D6E6E9;" d="M66.3,145.7L66.3,145.7L66.3,145.7L66.3,145.7 M67.8,143.3l-1.7,0.1v0
			L67.8,143.3L67.8,143.3"/>
		<path style="clip-path:url(#SVGID_2_);fill:#D6E6E9;" d="M62.4,146.4l-13.3,0.8l-9.4,0.5l-12.9,0.7l-0.5,0h0l-4.2,0.2v2.8
			l48.1-2.8v-2.2l-7.4,0.4h0C62.6,146.9,62.4,146.7,62.4,146.4L62.4,146.4L62.4,146.4"/>
		<path style="clip-path:url(#SVGID_2_);fill:#1C6C82;" d="M22.2,148.7L22.2,148.7l0,2.8h0V148.7 M70.3,146.5L70.3,146.5l0,2.2l0,0
			V146.5"/>
		<polyline style="clip-path:url(#SVGID_2_);fill:#D6E6E9;" points="37.8,113.5 22.2,113.5 22.2,114.6 34.5,113.9 35.5,131.5 
			38.8,131.3 37.8,113.5 		"/>
		<polyline style="clip-path:url(#SVGID_2_);fill:#1C6C82;" points="22.2,113.5 22.2,113.5 22.2,114.6 22.2,114.6 22.2,113.5 		"/>
		<polyline style="clip-path:url(#SVGID_2_);fill:#D6E6E9;" points="26.2,146.5 22.2,146.7 22.2,148.7 26.4,148.5 26.3,147.9 
			26.2,146.5 		"/>
		<polyline style="clip-path:url(#SVGID_2_);fill:#1C6C82;" points="22.2,146.7 22.2,146.7 22.2,148.7 22.2,148.7 22.2,146.7 		"/>
		<path style="clip-path:url(#SVGID_2_);fill:#D6E6E9;" d="M29,146.2l-0.7-11.9l7.3-0.4l3.3-0.2l6.6-0.4l0.7,12l-6.6,0.4l-3.3,0.2
			L29,146.2 M48.2,130.8l-9.4,0.5l-3.3,0.2l-10.1,0.6l0.8,14.4l0,0l0.1,1.4l0,0.6l0.5,0l12.9-0.7l9.4-0.5L48.2,130.8"/>
		<path style="clip-path:url(#SVGID_2_);fill:#D6E6E9;" d="M65.3,123.2c-0.4,0-0.9,0.1-1.3,0.2c-1.5,0.4-2.9,1.4-3.7,2.7
			c-1,1.7-1.2,4.3,0.1,6c0.1,0.1,0.2,0.2,0.3,0.3c0.1,0,0.2,0,0.2,0c0.5,0,0.9-0.8,1.1-1.3c0.2-0.5,0.3-1,0.7-1.4
			c0.3-0.4,0.8-0.5,1.3-0.5c0.4,0,0.8,0.1,1.1,0.3c0.5,0.2,0.8,0.5,1.3,0.7c0.2,0.1,0.3,0.1,0.5,0.1c0.1,0,0.1,0,0.2,0
			c0.5,0,1.1-0.2,1.5-0.5c-0.6-1.7-1.6-2.9-2.8-3.3c-0.2-0.1-0.7-0.2-1.3-0.2c-0.6,0-1.2,0.1-1.8,0.6c-0.9,0.8-1,2-1,2.4
			c0,0.3-0.2,0.5-0.5,0.5c-0.3,0-0.5-0.2-0.5-0.5c0-0.6,0.2-2.1,1.4-3.1c0.8-0.6,1.7-0.8,2.4-0.8c0.7,0,1.3,0.2,1.6,0.2
			c1.4,0.4,2.5,1.7,3.3,3.4c0.5-0.9,0.5-2,0.1-2.9c-0.4-1.2-1.4-2.1-2.5-2.6C66.4,123.3,65.9,123.2,65.3,123.2"/>
		<path style="clip-path:url(#SVGID_2_);fill:#D6E6E9;" d="M70.3,169.9L69,170c-0.1,0-0.1,0.1-0.1,0.1l0.2,3.7
			c0,0.1,0.1,0.1,0.1,0.1h0l1.1-0.1V169.9"/>
		<polyline style="clip-path:url(#SVGID_2_);fill:#1C6C82;" points="70.3,169.9 70.3,169.9 70.3,173.9 70.3,173.9 70.3,169.9 		"/>
		<path style="clip-path:url(#SVGID_2_);fill:#D6E6E9;" d="M70.3,175.7l-9.3,0.5c-0.1,0-0.1,0.1-0.1,0.1l0,0.3h9.4V175.7"/>
		<polyline style="clip-path:url(#SVGID_2_);fill:#1C6C82;" points="70.3,175.7 70.3,175.7 70.3,176.6 70.3,176.6 70.3,175.7 		"/>
		<path style="clip-path:url(#SVGID_2_);fill:#CEE2E5;" d="M70.3,142.2l-3.3,0.2l-4.3,0.2c-0.1,0-0.3,0.1-0.3,0.2
			c-0.1,0.1-0.1,0.2-0.1,0.4l0.2,3.2v0v0c0,0.3,0.2,0.5,0.5,0.5h0l7.4-0.4v-1l-3.9,0.2l-0.1,0l-2.9,0.2l0,0h0l-0.1-1l-0.1-1.2
			l2.9-0.2l0,0l1.7-0.1l0,0l2.4-0.1V142.2"/>
		<path style="clip-path:url(#SVGID_2_);fill:#5B96A5;" d="M70.3,145.4L70.3,145.4l0,1l0,0V145.4 M70.3,142.2L70.3,142.2l0,1l0,0
			V142.2"/>
		<polyline style="clip-path:url(#SVGID_2_);fill:#CEE2E5;" points="70.3,143.2 67.8,143.3 66.1,143.4 63.2,143.6 63.3,144.8 
			63.3,145.8 63.3,145.8 66.3,145.7 66.3,145.7 70.3,145.4 70.3,143.8 70.3,143.2 		"/>
		<polyline style="clip-path:url(#SVGID_2_);fill:#5B96A5;" points="70.3,143.2 70.3,143.2 70.3,143.8 70.3,145.4 70.3,145.4 
			70.3,143.2 		"/>
		<path style="clip-path:url(#SVGID_2_);fill:#CEE2E5;" d="M70.3,135.5l-0.3,0l-0.1,0h0h0h0l-0.6,0l0.1,1.3c0,0.2-0.1,0.4-0.3,0.5
			c-1.1,0.5-1.9,1.6-1.8,2.8c0,0.8,0.4,1.5,1,2.1l2-0.1V135.5"/>
		<polyline style="clip-path:url(#SVGID_2_);fill:#5B96A5;" points="70.3,135.5 70.3,135.5 70.3,142.1 70.3,142.1 70.3,135.5 		"/>
		<path style="clip-path:url(#SVGID_2_);fill:#CEE2E5;" d="M70.3,135.4c0,0.1-0.1,0.1-0.2,0.1l-0.1,0l-0.1,0l0.3,0V135.4"/>
		<polyline style="clip-path:url(#SVGID_2_);fill:#5B96A5;" points="70.3,135.4 70.3,135.4 70.3,135.5 70.3,135.5 70.3,135.4 		"/>
		<path style="clip-path:url(#SVGID_2_);fill:#CEE2E5;" d="M69.4,134.6L69.4,134.6l-0.7,0l-0.4,0c-0.3,0-0.5,0.3-0.5,0.5
			c0,0.3,0.2,0.4,0.4,0.5l0.1,0h0l0.9-0.1l0.6,0c0,0-0.1,0-0.1,0l-0.1,0c-0.2-0.1-0.3-0.2-0.3-0.4C69.4,134.9,69.4,134.7,69.4,134.6
			"/>
		<path style="clip-path:url(#SVGID_2_);fill:#CEE2E5;" d="M70.3,128.9c-0.2,0.5-0.3,1-0.4,1.4c0.2,0.7,0.3,1.4,0.4,2.1V128.9"/>
		<polyline style="clip-path:url(#SVGID_2_);fill:#5B96A5;" points="70.3,128.8 70.3,128.9 70.3,132.4 70.3,132.4 70.3,128.8 		"/>
		<path style="clip-path:url(#SVGID_2_);fill:#CEE2E5;" d="M70.1,135.5L70.1,135.5L70.1,135.5L70.1,135.5 M69.4,133.7L69.4,133.7
			c0,0.3,0,0.6,0,0.8c0,0.2,0,0.3,0,0.5c0,0.2,0.1,0.4,0.3,0.4l0.1,0l-0.1,0c-0.2-0.1-0.3-0.3-0.3-0.5c0-0.2,0-0.3,0-0.5
			C69.4,134.3,69.4,134,69.4,133.7"/>
		<path style="clip-path:url(#SVGID_2_);fill:#CEE2E5;" d="M64.5,125.3c-0.8,0-1.7,0.2-2.4,0.8c-1.2,1-1.4,2.5-1.4,3.1
			c0,0.3,0.2,0.5,0.5,0.5c0.3,0,0.5-0.2,0.5-0.5c0-0.4,0.1-1.6,1-2.4c0.5-0.5,1.2-0.6,1.8-0.6c0.6,0,1.1,0.1,1.3,0.2
			c1.2,0.4,2.2,1.6,2.8,3.3c0.4,1.1,0.7,2.5,0.7,3.9v0c0,0.3,0,0.5,0,0.8c0,0.2,0,0.3,0,0.5c0,0.2,0.1,0.4,0.3,0.5l0.1,0
			c0,0,0.1,0,0.1,0h0h0h0l0.1,0l0.1,0l0.1,0c0.1,0,0.1-0.1,0.2-0.1v-3c-0.1-0.7-0.2-1.4-0.4-2.1c-0.1-0.5-0.3-0.9-0.5-1.3
			c-0.7-1.8-1.9-3-3.3-3.4C65.8,125.4,65.2,125.3,64.5,125.3"/>
		<polyline style="clip-path:url(#SVGID_2_);fill:#5B96A5;" points="70.3,132.4 70.3,135.4 70.3,135.4 70.3,132.4 70.3,132.4 		"/>
		<path style="clip-path:url(#SVGID_2_);fill:#FFC7AB;" d="M59.6,154.2c-0.3,0-0.5,0-0.8,0c-1.8,0.1-3.6,0-5.4-0.2
			c-0.7-0.1-1.4-0.2-2.1-0.3c-0.6-0.1-1.2-0.2-1.9-0.3c-0.5-0.1-1-0.2-1.5-0.3c-0.5-0.1-0.9-0.2-1.4-0.3c-0.2,0-0.4-0.1-0.6-0.1
			c-2.1-0.4-4.5-0.5-7.5-0.2c-0.3,0-0.6,0.1-0.9,0.1c-0.7,0.1-1.4,0.2-2,0.3c-0.5,0.1-0.9,0.2-1.3,0.3c-0.4,0.1-0.8,0.2-1.2,0.3
			c-0.4,0.1-0.9,0.2-1.3,0.4c-0.1,0-0.2,0-0.2,0.1c-3.2,1-5.7,1.7-7.7,2.5c-0.9,0.3-1.7,0.6-2.4,0.9v7.4c1.3-0.7,2.7-1.2,4.1-1.5
			c0.1,0,0.1,0,0.2,0c1.5-0.3,4.6-1.1,5.9,0.1c0.3,0.3,0.4,0.6,0.5,1c0.1,0.8-0.1,1.9-0.4,3.1c-0.2,0.8-0.5,1.8-0.7,2.7
			c-0.5,2-1.1,4.7-1.1,7.2h24.3c-0.2-2.3-1.2-5-1.9-6.8c0,0-0.6-1.7-0.7-4.3c0-0.1,0-0.3,0-0.4v0c0-0.7,0-1.5,0.4-2
			c0-0.1,0.1-0.1,0.1-0.2c0.7-0.8,2.1-0.7,3.1-0.8c1.3-0.1,2.7-0.4,4.1-0.7c3.6-0.9,7.1-2.3,10-4.3c0.5-0.3,1-0.7,1.5-1v-6.5
			C67.5,152.8,63.4,154,59.6,154.2z"/>
		<path style="clip-path:url(#SVGID_2_);fill:#00D0E2;" d="M54.1,177.4c-0.2-2.3-1.2-5-1.9-6.8c0,0-0.6-1.7-0.7-4.3
			c0-0.1,0-0.3,0-0.4v0c0-0.7,0-1.5,0.4-2c0-1.2,0.2-2.7,0.5-4.9c0.2-2,0.6-3.6,0.9-5c-0.7-0.1-1.4-0.2-2.1-0.3
			c-0.6-0.1-1.2-0.2-1.9-0.3c-0.5-0.1-1-0.2-1.5-0.3c0.3,2.6,0.2,6.9-3.2,8.7c-1.9,1-4.1,0.5-5.6-0.4c-1.8-1.1-2.4-2.8-2.9-4.1
			c-0.6-1.7-0.7-3.3-0.7-4.5c-0.5,0.1-0.9,0.2-1.3,0.3c-0.4,0.1-0.8,0.2-1.2,0.3c-0.4,0.1-0.9,0.2-1.3,0.4c0.2,1.4,0.4,2.6,0.5,3.6
			c0.2,2,0.3,3,0.2,4.3c-0.1,0.9-0.2,1.8-0.4,2.5c0.1,0.8-0.1,1.9-0.4,3.1c-0.2,0.8-0.5,1.8-0.7,2.7c-0.5,2-1.1,4.7-1.1,7.2H54.1z"
			/>
		<path style="clip-path:url(#SVGID_2_);fill:#00D0E2;" d="M59.2,162.3c-1.4,0.3-2.7,0.6-4.1,0.7c-1,0.1-2.4,0-3.1,0.8
			c0,0-0.1,0.1-0.1,0.2c-0.4,0.6-0.4,1.3-0.4,2v0c-1.2,0.4-2.5,0.7-3.7,1.1c1.2-4.4,2.3-8.8,3.5-13.3c0.7,0.1,1.4,0.2,2.1,0.3
			c1.8,0.2,3.6,0.3,5.4,0.2c-0.4,1-0.7,2.5-0.6,4.3C58.3,160.1,58.8,161.4,59.2,162.3z"/>
		<path style="clip-path:url(#SVGID_2_);fill:#00D0E2;" d="M34.3,157.3c0,3.7-0.1,7.3-0.1,11c-0.8-0.2-1.6-0.5-2.4-0.7
			c0.3-1.2,0.5-2.3,0.4-3.1c-0.1-0.4-0.2-0.8-0.5-1c-1.2-1.2-4.4-0.5-5.9-0.1c-0.1,0-0.1,0-0.2,0c0-1-0.1-2.2-0.4-3.4
			c-0.3-1.3-0.8-2.5-1.3-3.3c2-0.7,4.6-1.5,7.7-2.5c0.1,0,0.2,0,0.2-0.1c0.4-0.1,0.9-0.3,1.3-0.4C33.5,154.8,33.9,156.1,34.3,157.3z
			"/>
		<path style="clip-path:url(#SVGID_2_);fill:#00D0E2;" d="M49.5,153.5v11.1H34.3v-11.3c0.4-0.1,0.9-0.2,1.3-0.3
			c0.6-0.1,1.3-0.2,2-0.3c0.3,0,0.6-0.1,0.9-0.1c3-0.3,5.4-0.2,7.5,0.2c0.2,0,0.4,0.1,0.6,0.1c0.5,0.1,0.9,0.2,1.4,0.3
			C48.5,153.3,49,153.4,49.5,153.5z"/>
		<path style="clip-path:url(#SVGID_2_);fill:#005872;" d="M37.2,163.5c-0.5-3.5-2.3-10.8,2.9-11.7c1.7-0.3,4.8-0.4,6.2,0.9
			c1.5,1.4,1.2,4.7,1.2,6.6c0,0.6,0.9,0.6,0.9,0c0-2.2,0.3-5.6-1.5-7.2c-1.6-1.5-4.9-1.4-6.9-1.1c-5.9,1-4.1,8.8-3.6,12.8
			C36.5,164.2,37.3,164,37.2,163.5z"/>
		<path style="clip-path:url(#SVGID_2_);fill:#005872;" d="M37.2,166.6c-0.1,0-0.2,0-0.3,0c-0.5-0.1-1-0.4-1.2-0.9
			c-0.2-0.4-0.2-1,0-1.5c0.2-0.5,0.6-0.9,1.1-1c0.7-0.2,1.3,0.2,1.6,0.6c0.5,0.7,0.5,1.8-0.2,2.3C38,166.4,37.6,166.6,37.2,166.6z
			 M37.1,164c0,0-0.1,0-0.1,0c-0.2,0-0.4,0.2-0.5,0.5c-0.1,0.3-0.1,0.5,0,0.7c0.1,0.2,0.3,0.4,0.6,0.4c0.3,0,0.5,0,0.7-0.1
			c0.3-0.3,0.3-0.8,0-1.1C37.6,164.2,37.3,164,37.1,164z"/>
		<circle style="clip-path:url(#SVGID_2_);fill:#FDFCF0;" cx="37.1" cy="164.9" r="0.8"/>
		<path style="clip-path:url(#SVGID_2_);fill:#FFC7AB;" d="M38.5,147c0.2,0.9-0.1,3.9-0.2,6.2c0,0.9,0.2,1.7,0.3,2.4
			c0.4,0.7,0.9,1.6,1.6,2.6c0.3,0.4,0.6,0.7,0.9,1c0.4,0.5,1.2,0.5,1.6,0c0.5-0.5,1.1-1.1,1.7-1.8c0.7-0.9,1.2-1.7,1.5-2.4
			c0.5-2,0.5-4.9,0.8-7.9c0.1-0.7-0.5-1.2-0.7-1.8L38.5,147z"/>
		<path style="clip-path:url(#SVGID_2_);fill:#FFC7AB;" d="M31.6,141.6c0,0-0.1-0.1-0.1-0.1c-0.1,0-0.3,0-0.4,0
			c-1.3,0.5-2.7,1.7-2.8,3.1c-0.1,0.5,0,1,0.3,1.5c0.5,0.7,1.7,0.8,2.5,0.5c1.2-0.4,2.3-1.2,3-2.3c-0.8-0.9-1.6-1.8-2.4-2.7
			C31.7,141.7,31.7,141.7,31.6,141.6z"/>
		<path style="clip-path:url(#SVGID_2_);fill:#FFC7AB;" d="M52.8,142c1.6-0.1,2.9,0.7,3.3,1.8c0.4,1.1-0.3,2.1-0.4,2.3
			c0,0.1-0.8,1.3-2.3,1.4c-1.4,0.1-2.8-0.9-3.3-2.6C51,144,51.9,143,52.8,142z"/>
		<path style="clip-path:url(#SVGID_2_);fill:#FFC7AB;" d="M29.5,141.3c0.9,3.4,2.9,5.6,3.9,6.6c0.9,0.9,4.1,3.8,9,4
			c1.2,0.1,4.5,0.2,7.4-2.1c0.7-0.5,2.8-2.2,3.6-5.1c0.8-3-0.4-5.6-1.2-7.4c-1.1-2.3-4.4-9.3-11-9.6c-6.3-0.3-11.9,5.5-12.2,10.3
			C29,139.3,29.4,140.6,29.5,141.3z"/>
		<path style="clip-path:url(#SVGID_2_);fill:#005872;" d="M55.8,113.3c-0.3,1-0.5,2-1,2.9c-1,1.6-2.9,2.5-4.7,3.1
			c-3.2,1-6.5,1.5-9.7,2.3c-2.2,0.6-5.8,1.7-8.7,4.6c-2.9,3-4.9,7.6-3.9,12c0.4,1.9,1.6,4.5,2.8,4.4c1.8-0.1,1.7-6.2,5-7.2
			c1.8-0.6,2.5,1,6.1,1.2c3.3,0.1,3.9-1.2,5.8-0.6c3.6,1,3.8,6.1,6,6c2.3,0,4.2-5.6,4.5-6.6c1.1-3.1,0.6-4.3,1.8-5.4
			c1.4-1.2,3.2-0.5,4.8-0.9c1.8-0.5,3.3-1.6,4.4-3.1c0.8-1.2,1.4-2.5,1.7-4v-8.8H55.8z"/>
		<path style="clip-path:url(#SVGID_2_);fill:#FDFCF0;" d="M34.2,143.7c0.4,1.2,1.8,2.6,2.4,3.1c1.4,1.2,3.2,1.9,5.1,2.1
			c1.7,0.1,3.5-0.3,5-1.2c1.5-0.9,3.2-2.9,2.7-3.7c-0.5-1-3.1,0.7-7.4,0.1c-4-0.5-6.6-2.6-7.5-1.6C34.1,142.8,34.1,143.3,34.2,143.7
			z"/>
		<path style="clip-path:url(#SVGID_2_);fill:#005872;" d="M49.4,169.7L49.4,169.7l-0.7-0.1c-0.2,0-0.4-0.3-0.3-0.5
			c0-0.2,0.3-0.4,0.5-0.3l0.2,0c0.3-1.4,1.3-5.9,0-7.9c-0.3-0.5-0.8-0.8-1.3-0.9c-0.6-0.1-1.1,0.1-1.5,0.4c-1.8,1.5-2.1,6.1-2.2,7.3
			l0.3,0.1c0.2,0.1,0.4,0.3,0.3,0.5c-0.1,0.2-0.3,0.4-0.5,0.3l-0.6-0.2c-0.2,0-0.3-0.2-0.3-0.4c0-0.3,0.1-6.3,2.5-8.3
			c0.6-0.5,1.4-0.8,2.2-0.6c0.8,0.1,1.5,0.6,1.9,1.3c1.7,2.7,0,8.8,0,9C49.7,169.6,49.6,169.7,49.4,169.7z"/>
	</g>
	<path class="st0" d="M22.2,179.9v2.3c0,4.9,4,8.9,8.9,8.9h30.4c4.9,0,8.8-4,8.8-8.9v-2.3H22.2z M46.2,188c-1.6,0-2.9-1.3-2.9-2.9
		c0-1.6,1.3-2.9,2.9-2.9c1.6,0,2.9,1.3,2.9,2.9C49.1,186.7,47.8,188,46.2,188z"/>
	<path class="st0" d="M61.4,101.9H31c-4.7,0-8.6,3.7-8.8,8.4h48C70,105.6,66.1,101.9,61.4,101.9z M50,107.5h-7.5
		c-0.7,0-1.3-0.6-1.3-1.3c0-0.7,0.6-1.3,1.3-1.3H50c0.7,0,1.3,0.6,1.3,1.3C51.2,106.9,50.7,107.5,50,107.5z"/>
</g>
</svg>
