<?xml version="1.0" encoding="UTF-8"?>
<svg width="670px" height="120px" viewBox="0 0 670 120" version="1.1" xmlns="http://www.w3.org/2000/svg" xmlns:xlink="http://www.w3.org/1999/xlink">
    <!-- Generator: Sketch 53.2 (72643) - https://sketchapp.com -->
    <title>Group 19</title>
    <desc>Created with Sketch.</desc>
    <g id="Beta-April-1-2019" stroke="none" stroke-width="1" fill="none" fill-rule="evenodd">
        <g id="Pop-up" transform="translate(-265.000000, -81.000000)">
            <g id="Group-19" transform="translate(265.000000, 81.000000)">
                <rect id="Rectangle" fill="#E5F5FC" x="0" y="0" width="670" height="120"></rect>
                <rect id="Mask" stroke="#CCCCCC" fill="#FFFFFF" x="34.5" y="22.5" width="601" height="77" rx="4"></rect>
                <path d="M508.182,66.1 L508.182,78 L506.958,78 L506.958,67.188 L504.153,67.188 L504.153,66.1 L508.182,66.1 Z M515.764,78.102 C514.845995,78.102 514.02717,77.8583358 513.3075,77.371 C512.58783,76.8836642 512.026835,76.1838379 511.6245,75.2715 C511.222165,74.3591621 511.021,73.2853395 511.021,72.05 C511.021,70.8146605 511.222165,69.7408379 511.6245,68.8285 C512.026835,67.9161621 512.58783,67.2163358 513.3075,66.729 C514.02717,66.2416642 514.845995,65.998 515.764,65.998 C516.682005,65.998 517.50083,66.2416642 518.2205,66.729 C518.94017,67.2163358 519.503998,67.9161621 519.912,68.8285 C520.320002,69.7408379 520.524,70.8146605 520.524,72.05 C520.524,73.2853395 520.320002,74.3591621 519.912,75.2715 C519.503998,76.1838379 518.94017,76.8836642 518.2205,77.371 C517.50083,77.8583358 516.682005,78.102 515.764,78.102 Z M515.764,76.98 C516.455337,76.98 517.064497,76.7873353 517.5915,76.402 C518.118503,76.0166647 518.529332,75.4556704 518.824,74.719 C519.118668,73.9823296 519.266,73.0926719 519.266,72.05 C519.266,71.0073281 519.118668,70.1176703 518.824,69.381 C518.529332,68.6443297 518.118503,68.0833353 517.5915,67.698 C517.064497,67.3126647 516.455337,67.12 515.764,67.12 C515.072663,67.12 514.463503,67.3126647 513.9365,67.698 C513.409497,68.0833353 512.998668,68.6443297 512.704,69.381 C512.409332,70.1176703 512.262,71.0073281 512.262,72.05 C512.262,73.0926719 512.409332,73.9823296 512.704,74.719 C512.998668,75.4556704 513.409497,76.0166647 513.9365,76.402 C514.463503,76.7873353 515.072663,76.98 515.764,76.98 Z M527.018,78.102 C526.099995,78.102 525.28117,77.8583358 524.5615,77.371 C523.84183,76.8836642 523.280835,76.1838379 522.8785,75.2715 C522.476165,74.3591621 522.275,73.2853395 522.275,72.05 C522.275,70.8146605 522.476165,69.7408379 522.8785,68.8285 C523.280835,67.9161621 523.84183,67.2163358 524.5615,66.729 C525.28117,66.2416642 526.099995,65.998 527.018,65.998 C527.936005,65.998 528.75483,66.2416642 529.4745,66.729 C530.19417,67.2163358 530.757998,67.9161621 531.166,68.8285 C531.574002,69.7408379 531.778,70.8146605 531.778,72.05 C531.778,73.2853395 531.574002,74.3591621 531.166,75.2715 C530.757998,76.1838379 530.19417,76.8836642 529.4745,77.371 C528.75483,77.8583358 527.936005,78.102 527.018,78.102 Z M527.018,76.98 C527.709337,76.98 528.318497,76.7873353 528.8455,76.402 C529.372503,76.0166647 529.783332,75.4556704 530.078,74.719 C530.372668,73.9823296 530.52,73.0926719 530.52,72.05 C530.52,71.0073281 530.372668,70.1176703 530.078,69.381 C529.783332,68.6443297 529.372503,68.0833353 528.8455,67.698 C528.318497,67.3126647 527.709337,67.12 527.018,67.12 C526.326663,67.12 525.717503,67.3126647 525.1905,67.698 C524.663497,68.0833353 524.252668,68.6443297 523.958,69.381 C523.663332,70.1176703 523.516,71.0073281 523.516,72.05 C523.516,73.0926719 523.663332,73.9823296 523.958,74.719 C524.252668,75.4556704 524.663497,76.0166647 525.1905,76.402 C525.717503,76.7873353 526.326663,76.98 527.018,76.98 Z M533.801,72.866 L538.255,72.866 L538.255,73.92 L533.801,73.92 L533.801,72.866 Z M543.168,66.1 L543.168,78 L541.944,78 L541.944,67.188 L539.139,67.188 L539.139,66.1 L543.168,66.1 Z M554.133,76.912 L554.133,78 L545.786,78 L545.786,77.133 L550.733,72.288 C551.356336,71.6759969 551.778499,71.1461689 551.9995,70.6985 C552.220501,70.2508311 552.331,69.8003356 552.331,69.347 C552.331,68.6443298 552.090169,68.097502 551.6085,67.7065 C551.126831,67.315498 550.438338,67.12 549.543,67.12 C548.148993,67.12 547.066671,67.5619956 546.296,68.446 L545.429,67.698 C545.893669,67.1539973 546.48583,66.7346681 547.2055,66.44 C547.92517,66.1453319 548.738329,65.998 549.645,65.998 C550.857673,65.998 551.818163,66.2841638 552.5265,66.8565 C553.234837,67.4288362 553.589,68.2136617 553.589,69.211 C553.589,69.8230031 553.453001,70.4123305 553.181,70.979 C552.908999,71.5456695 552.393337,72.1973297 551.634,72.934 L547.588,76.912 L554.133,76.912 Z M559.369,65.998 C560.944341,65.998 562.151329,66.5164948 562.99,67.5535 C563.828671,68.5905052 564.248,70.0553239 564.248,71.948 C564.248,73.2740066 564.021336,74.3959954 563.568,75.314 C563.114664,76.2320046 562.480004,76.9261643 561.664,77.3965 C560.847996,77.8668357 559.896005,78.102 558.808,78.102 C557.629327,78.102 556.68867,77.8866688 555.986,77.456 L556.479,76.47 C557.04567,76.8440019 557.816328,77.031 558.791,77.031 C560.105673,77.031 561.136996,76.6145042 561.885,75.7815 C562.633004,74.9484958 563.007,73.7386746 563.007,72.152 C563.007,71.8573319 562.99,71.5343351 562.956,71.183 C562.661332,71.8290032 562.191003,72.3304982 561.545,72.6875 C560.898997,73.0445018 560.156671,73.223 559.318,73.223 C558.535996,73.223 557.841836,73.0756681 557.2355,72.781 C556.629164,72.4863319 556.156002,72.069836 555.816,71.5315 C555.475998,70.993164 555.306,70.3670036 555.306,69.653 C555.306,68.927663 555.481665,68.2873361 555.833,67.732 C556.184335,67.1766639 556.66883,66.7488348 557.2865,66.4485 C557.90417,66.1481652 558.598329,65.998 559.369,65.998 Z M559.505,72.186 C560.10567,72.186 560.635498,72.0726678 561.0945,71.846 C561.553502,71.6193322 561.913332,71.3076686 562.174,70.911 C562.434668,70.5143313 562.565,70.0723358 562.565,69.585 C562.565,69.1316644 562.443168,68.7123353 562.1995,68.327 C561.955832,67.9416647 561.596002,67.6300012 561.12,67.392 C560.643998,67.1539988 560.077337,67.035 559.42,67.035 C558.558662,67.035 557.858836,67.2701643 557.3205,67.7405 C556.782164,68.2108357 556.513,68.8369961 556.513,69.619 C556.513,70.4010039 556.782164,71.024331 557.3205,71.489 C557.858836,71.953669 558.586995,72.186 559.505,72.186 Z" id="100-129" fill="#666666" fill-rule="nonzero"></path>
                <path d="M511.449,54 L509.486,51.205 C509.243332,51.2223334 509.052667,51.231 508.914,51.231 L506.665,51.231 L506.665,54 L505.365,54 L505.365,44.9 L508.914,44.9 C510.092673,44.9 511.019997,45.1816638 511.696,45.745 C512.372003,46.3083362 512.71,47.0839951 512.71,48.072 C512.71,48.7740035 512.536668,49.3719975 512.19,49.866 C511.843332,50.3600025 511.349337,50.7196655 510.708,50.945 L512.866,54 L511.449,54 Z M508.875,50.126 C509.698337,50.126 510.326664,49.9483351 510.76,49.593 C511.193335,49.2376649 511.41,48.73067 511.41,48.072 C511.41,47.41333 511.193335,46.9085018 510.76,46.5575 C510.326664,46.2064982 509.698337,46.031 508.875,46.031 L506.665,46.031 L506.665,50.126 L508.875,50.126 Z M520.861,50.594 C520.861,50.6893338 520.852333,50.8149992 520.835,50.971 L515.245,50.971 C515.323,51.5776697 515.589498,52.0651648 516.0445,52.4335 C516.499502,52.8018352 517.064997,52.986 517.741,52.986 C518.564337,52.986 519.227331,52.7086694 519.73,52.154 L520.419,52.96 C520.106998,53.3240018 519.719169,53.6013324 519.2555,53.792 C518.791831,53.9826676 518.274003,54.078 517.702,54.078 C516.973996,54.078 516.328336,53.9285015 515.765,53.6295 C515.201664,53.3304985 514.766168,52.912336 514.4585,52.375 C514.150832,51.837664 513.997,51.2310034 513.997,50.555 C513.997,49.8876633 514.146499,49.285336 514.4455,48.748 C514.744501,48.210664 515.156164,47.7925015 515.6805,47.4935 C516.204836,47.1944985 516.79633,47.045 517.455,47.045 C518.11367,47.045 518.700831,47.1944985 519.2165,47.4935 C519.732169,47.7925015 520.135165,48.210664 520.4255,48.748 C520.715835,49.285336 520.861,49.9006632 520.861,50.594 Z M517.455,48.098 C516.856997,48.098 516.356502,48.2799982 515.9535,48.644 C515.550498,49.0080018 515.314334,49.4846637 515.245,50.074 L519.665,50.074 C519.595666,49.4933304 519.359502,49.0188352 518.9565,48.6505 C518.553498,48.2821648 518.053003,48.098 517.455,48.098 Z M525.112,45.303 C524.366663,45.303 523.994,45.705996 523.994,46.512 L523.994,47.11 L525.996,47.11 L525.996,48.137 L524.02,48.137 L524.02,54 L522.772,54 L522.772,48.137 L521.602,48.137 L521.602,47.11 L522.772,47.11 L522.772,46.499 C522.772,45.8143299 522.971331,45.2726687 523.37,44.874 C523.768669,44.4753313 524.327663,44.276 525.047,44.276 C525.324335,44.276 525.584332,44.3106663 525.827,44.38 C526.069668,44.4493337 526.277666,44.5489994 526.451,44.679 L526.074,45.628 C525.787999,45.4113323 525.467335,45.303 525.112,45.303 Z M533.302,50.594 C533.302,50.6893338 533.293333,50.8149992 533.276,50.971 L527.686,50.971 C527.764,51.5776697 528.030498,52.0651648 528.4855,52.4335 C528.940502,52.8018352 529.505997,52.986 530.182,52.986 C531.005337,52.986 531.668331,52.7086694 532.171,52.154 L532.86,52.96 C532.547998,53.3240018 532.160169,53.6013324 531.6965,53.792 C531.232831,53.9826676 530.715003,54.078 530.143,54.078 C529.414996,54.078 528.769336,53.9285015 528.206,53.6295 C527.642664,53.3304985 527.207168,52.912336 526.8995,52.375 C526.591832,51.837664 526.438,51.2310034 526.438,50.555 C526.438,49.8876633 526.587499,49.285336 526.8865,48.748 C527.185501,48.210664 527.597164,47.7925015 528.1215,47.4935 C528.645836,47.1944985 529.23733,47.045 529.896,47.045 C530.55467,47.045 531.141831,47.1944985 531.6575,47.4935 C532.173169,47.7925015 532.576165,48.210664 532.8665,48.748 C533.156835,49.285336 533.302,49.9006632 533.302,50.594 Z M529.896,48.098 C529.297997,48.098 528.797502,48.2799982 528.3945,48.644 C527.991498,49.0080018 527.755334,49.4846637 527.686,50.074 L532.106,50.074 C532.036666,49.4933304 531.800502,49.0188352 531.3975,48.6505 C530.994498,48.2821648 530.494003,48.098 529.896,48.098 Z M536.227,48.267 C536.443668,47.8683313 536.764331,47.565001 537.189,47.357 C537.613669,47.148999 538.12933,47.045 538.736,47.045 L538.736,48.254 C538.666666,48.2453333 538.571334,48.241 538.45,48.241 C537.773997,48.241 537.243169,48.442498 536.8575,48.8455 C536.471831,49.248502 536.279,49.8226629 536.279,50.568 L536.279,54 L535.031,54 L535.031,47.11 L536.227,47.11 L536.227,48.267 Z M546.432,50.594 C546.432,50.6893338 546.423333,50.8149992 546.406,50.971 L540.816,50.971 C540.894,51.5776697 541.160498,52.0651648 541.6155,52.4335 C542.070502,52.8018352 542.635997,52.986 543.312,52.986 C544.135337,52.986 544.798331,52.7086694 545.301,52.154 L545.99,52.96 C545.677998,53.3240018 545.290169,53.6013324 544.8265,53.792 C544.362831,53.9826676 543.845003,54.078 543.273,54.078 C542.544996,54.078 541.899336,53.9285015 541.336,53.6295 C540.772664,53.3304985 540.337168,52.912336 540.0295,52.375 C539.721832,51.837664 539.568,51.2310034 539.568,50.555 C539.568,49.8876633 539.717499,49.285336 540.0165,48.748 C540.315501,48.210664 540.727164,47.7925015 541.2515,47.4935 C541.775836,47.1944985 542.36733,47.045 543.026,47.045 C543.68467,47.045 544.271831,47.1944985 544.7875,47.4935 C545.303169,47.7925015 545.706165,48.210664 545.9965,48.748 C546.286835,49.285336 546.432,49.9006632 546.432,50.594 Z M543.026,48.098 C542.427997,48.098 541.927502,48.2799982 541.5245,48.644 C541.121498,49.0080018 540.885334,49.4846637 540.816,50.074 L545.236,50.074 C545.166666,49.4933304 544.930502,49.0188352 544.5275,48.6505 C544.124498,48.2821648 543.624003,48.098 543.026,48.098 Z M551.84,47.045 C552.715338,47.045 553.410831,47.2984975 553.9265,47.8055 C554.442169,48.3125025 554.7,49.0556618 554.7,50.035 L554.7,54 L553.452,54 L553.452,50.178 C553.452,49.5106633 553.291668,49.0080017 552.971,48.67 C552.650332,48.3319983 552.191003,48.163 551.593,48.163 C550.916997,48.163 550.384002,48.3601647 549.994,48.7545 C549.603998,49.1488353 549.409,49.7143296 549.409,50.451 L549.409,54 L548.161,54 L548.161,47.11 L549.357,47.11 L549.357,48.15 C549.608335,47.7946649 549.948498,47.5216676 550.3775,47.331 C550.806502,47.1403324 551.293997,47.045 551.84,47.045 Z M560.056,54.078 C559.353996,54.078 558.727836,53.9263349 558.1775,53.623 C557.627164,53.3196651 557.196002,52.9015027 556.884,52.3685 C556.571998,51.8354973 556.416,51.2310034 556.416,50.555 C556.416,49.8789966 556.571998,49.2745027 556.884,48.7415 C557.196002,48.2084973 557.627164,47.7925015 558.1775,47.4935 C558.727836,47.1944985 559.353996,47.045 560.056,47.045 C560.680003,47.045 561.236831,47.1706654 561.7265,47.422 C562.216169,47.6733346 562.595332,48.0373309 562.864,48.514 L561.915,49.125 C561.698332,48.795665 561.429668,48.5486675 561.109,48.384 C560.788332,48.2193325 560.433002,48.137 560.043,48.137 C559.592331,48.137 559.187168,48.2366657 558.8275,48.436 C558.467832,48.6353343 558.186168,48.9191648 557.9825,49.2875 C557.778832,49.6558352 557.677,50.078331 557.677,50.555 C557.677,51.0403358 557.778832,51.4671648 557.9825,51.8355 C558.186168,52.2038352 558.467832,52.4876657 558.8275,52.687 C559.187168,52.8863343 559.592331,52.986 560.043,52.986 C560.433002,52.986 560.788332,52.9036675 561.109,52.739 C561.429668,52.5743325 561.698332,52.327335 561.915,51.998 L562.864,52.596 C562.595332,53.0726691 562.216169,53.4388321 561.7265,53.6945 C561.236831,53.9501679 560.680003,54.078 560.056,54.078 Z M570.599,50.594 C570.599,50.6893338 570.590333,50.8149992 570.573,50.971 L564.983,50.971 C565.061,51.5776697 565.327498,52.0651648 565.7825,52.4335 C566.237502,52.8018352 566.802997,52.986 567.479,52.986 C568.302337,52.986 568.965331,52.7086694 569.468,52.154 L570.157,52.96 C569.844998,53.3240018 569.457169,53.6013324 568.9935,53.792 C568.529831,53.9826676 568.012003,54.078 567.44,54.078 C566.711996,54.078 566.066336,53.9285015 565.503,53.6295 C564.939664,53.3304985 564.504168,52.912336 564.1965,52.375 C563.888832,51.837664 563.735,51.2310034 563.735,50.555 C563.735,49.8876633 563.884499,49.285336 564.1835,48.748 C564.482501,48.210664 564.894164,47.7925015 565.4185,47.4935 C565.942836,47.1944985 566.53433,47.045 567.193,47.045 C567.85167,47.045 568.438831,47.1944985 568.9545,47.4935 C569.470169,47.7925015 569.873165,48.210664 570.1635,48.748 C570.453835,49.285336 570.599,49.9006632 570.599,50.594 Z M567.193,48.098 C566.594997,48.098 566.094502,48.2799982 565.6915,48.644 C565.288498,49.0080018 565.052334,49.4846637 564.983,50.074 L569.403,50.074 C569.333666,49.4933304 569.097502,49.0188352 568.6945,48.6505 C568.291498,48.2821648 567.791003,48.098 567.193,48.098 Z M582.091,54 L580.128,51.205 C579.885332,51.2223334 579.694667,51.231 579.556,51.231 L577.307,51.231 L577.307,54 L576.007,54 L576.007,44.9 L579.556,44.9 C580.734673,44.9 581.661997,45.1816638 582.338,45.745 C583.014003,46.3083362 583.352,47.0839951 583.352,48.072 C583.352,48.7740035 583.178668,49.3719975 582.832,49.866 C582.485332,50.3600025 581.991337,50.7196655 581.35,50.945 L583.508,54 L582.091,54 Z M579.517,50.126 C580.340337,50.126 580.968665,49.9483351 581.402,49.593 C581.835336,49.2376649 582.052,48.73067 582.052,48.072 C582.052,47.41333 581.835336,46.9085018 581.402,46.5575 C580.968665,46.2064982 580.340337,46.031 579.517,46.031 L577.307,46.031 L577.307,50.126 L579.517,50.126 Z M587.72,47.045 C588.673338,47.045 589.403497,47.2789977 589.9105,47.747 C590.417503,48.2150023 590.671,48.912662 590.671,49.84 L590.671,54 L589.488,54 L589.488,53.09 C589.279999,53.4106683 588.983169,53.6554992 588.5975,53.8245 C588.211831,53.9935008 587.754669,54.078 587.226,54.078 C586.454663,54.078 585.837169,53.8916685 585.3735,53.519 C584.909831,53.1463315 584.678,52.6566697 584.678,52.05 C584.678,51.4433303 584.898998,50.9558352 585.341,50.5875 C585.783002,50.2191648 586.484995,50.035 587.447,50.035 L589.423,50.035 L589.423,49.788 C589.423,49.250664 589.267002,48.8390014 588.955,48.553 C588.642998,48.2669986 588.18367,48.124 587.577,48.124 C587.169665,48.124 586.771002,48.191166 586.381,48.3255 C585.990998,48.459834 585.661668,48.6396655 585.393,48.865 L584.873,47.929 C585.228335,47.6429986 585.652998,47.4241674 586.147,47.2725 C586.641002,47.1208326 587.165331,47.045 587.72,47.045 Z M587.434,53.116 C587.910669,53.116 588.322332,53.0098344 588.669,52.7975 C589.015668,52.5851656 589.266999,52.284002 589.423,51.894 L589.423,50.932 L587.499,50.932 C586.441661,50.932 585.913,51.2873298 585.913,51.998 C585.913,52.3446684 586.047332,52.6176657 586.316,52.817 C586.584668,53.0163343 586.957331,53.116 587.434,53.116 Z M596.664,47.045 C597.539338,47.045 598.234831,47.2984975 598.7505,47.8055 C599.266169,48.3125025 599.524,49.0556618 599.524,50.035 L599.524,54 L598.276,54 L598.276,50.178 C598.276,49.5106633 598.115668,49.0080017 597.795,48.67 C597.474332,48.3319983 597.015003,48.163 596.417,48.163 C595.740997,48.163 595.208002,48.3601647 594.818,48.7545 C594.427998,49.1488353 594.233,49.7143296 594.233,50.451 L594.233,54 L592.985,54 L592.985,47.11 L594.181,47.11 L594.181,48.15 C594.432335,47.7946649 594.772498,47.5216676 595.2015,47.331 C595.630502,47.1403324 596.117997,47.045 596.664,47.045 Z M608.468,47.11 L608.468,53.064 C608.468,54.2686727 608.169003,55.1591638 607.571,55.7355 C606.972997,56.3118362 606.080339,56.6 604.893,56.6 C604.242997,56.6 603.623336,56.5111676 603.034,56.3335 C602.444664,56.1558324 601.968002,55.902335 601.604,55.573 L602.202,54.611 C602.522668,54.8883347 602.919164,55.1071659 603.3915,55.2675 C603.863836,55.4278341 604.351331,55.508 604.854,55.508 C605.660004,55.508 606.255831,55.3173352 606.6415,54.936 C607.027169,54.5546648 607.22,53.9740039 607.22,53.194 L607.22,52.648 C606.925332,53.0033351 606.563502,53.2698324 606.1345,53.4475 C605.705498,53.6251676 605.239669,53.714 604.737,53.714 C604.07833,53.714 603.482503,53.5731681 602.9495,53.2915 C602.416497,53.0098319 601.998335,52.6155025 601.695,52.1085 C601.391665,51.6014975 601.24,51.0230033 601.24,50.373 C601.24,49.7229968 601.391665,49.1445025 601.695,48.6375 C601.998335,48.1304975 602.416497,47.7383347 602.9495,47.461 C603.482503,47.1836653 604.07833,47.045 604.737,47.045 C605.257003,47.045 605.740164,47.1403324 606.1865,47.331 C606.632836,47.5216676 606.998999,47.8033315 607.285,48.176 L607.285,47.11 L608.468,47.11 Z M604.88,52.622 C605.330669,52.622 605.735832,52.5266676 606.0955,52.336 C606.455168,52.1453324 606.736832,51.878835 606.9405,51.5365 C607.144168,51.194165 607.246,50.8063355 607.246,50.373 C607.246,49.7056633 607.025002,49.1661687 606.583,48.7545 C606.140998,48.3428313 605.573337,48.137 604.88,48.137 C604.177996,48.137 603.606002,48.3428313 603.164,48.7545 C602.721998,49.1661687 602.501,49.7056633 602.501,50.373 C602.501,50.8063355 602.602832,51.194165 602.8065,51.5365 C603.010168,51.878835 603.291832,52.1453324 603.6515,52.336 C604.011168,52.5266676 604.420664,52.622 604.88,52.622 Z M617.074,50.594 C617.074,50.6893338 617.065333,50.8149992 617.048,50.971 L611.458,50.971 C611.536,51.5776697 611.802498,52.0651648 612.2575,52.4335 C612.712502,52.8018352 613.277997,52.986 613.954,52.986 C614.777337,52.986 615.440331,52.7086694 615.943,52.154 L616.632,52.96 C616.319998,53.3240018 615.932169,53.6013324 615.4685,53.792 C615.004831,53.9826676 614.487003,54.078 613.915,54.078 C613.186996,54.078 612.541336,53.9285015 611.978,53.6295 C611.414664,53.3304985 610.979168,52.912336 610.6715,52.375 C610.363832,51.837664 610.21,51.2310034 610.21,50.555 C610.21,49.8876633 610.359499,49.285336 610.6585,48.748 C610.957501,48.210664 611.369164,47.7925015 611.8935,47.4935 C612.417836,47.1944985 613.00933,47.045 613.668,47.045 C614.32667,47.045 614.913831,47.1944985 615.4295,47.4935 C615.945169,47.7925015 616.348165,48.210664 616.6385,48.748 C616.928835,49.285336 617.074,49.9006632 617.074,50.594 Z M613.668,48.098 C613.069997,48.098 612.569502,48.2799982 612.1665,48.644 C611.763498,49.0080018 611.527334,49.4846637 611.458,50.074 L615.878,50.074 C615.808666,49.4933304 615.572502,49.0188352 615.1695,48.6505 C614.766498,48.2821648 614.266003,48.098 613.668,48.098 Z" id="ReferenceRange" fill="#666666" fill-rule="nonzero"></path>
                <g id="Group-5" transform="translate(243.000000, 35.000000)" fill-rule="nonzero">
                    <path d="M127.72,4 L127.72,18 L125.12,18 L125.12,6.18 L122.16,6.18 L122.16,4 L127.72,4 Z M135.34,4 L135.34,18 L132.74,18 L132.74,6.18 L129.78,6.18 L129.78,4 L135.34,4 Z M143.96,18.2 C142.839994,18.2 141.840004,17.9166695 140.96,17.35 C140.079996,16.7833305 139.386669,15.9566721 138.88,14.87 C138.373331,13.7833279 138.12,12.4933408 138.12,11 C138.12,9.5066592 138.373331,8.2166721 138.88,7.13 C139.386669,6.0433279 140.079996,5.2166695 140.96,4.65 C141.840004,4.0833305 142.839994,3.8 143.96,3.8 C145.080006,3.8 146.083329,4.0833305 146.97,4.65 C147.856671,5.2166695 148.553331,6.0433279 149.06,7.13 C149.566669,8.2166721 149.82,9.5066592 149.82,11 C149.82,12.4933408 149.566669,13.7833279 149.06,14.87 C148.553331,15.9566721 147.856671,16.7833305 146.97,17.35 C146.083329,17.9166695 145.080006,18.2 143.96,18.2 Z M143.96,15.94 C144.960005,15.94 145.749997,15.5266708 146.33,14.7 C146.910003,13.8733292 147.2,12.6400082 147.2,11 C147.2,9.3599918 146.910003,8.1266708 146.33,7.3 C145.749997,6.4733292 144.960005,6.06 143.96,6.06 C142.973328,6.06 142.190003,6.4733292 141.61,7.3 C141.029997,8.1266708 140.74,9.3599918 140.74,11 C140.74,12.6400082 141.029997,13.8733292 141.61,14.7 C142.190003,15.5266708 142.973328,15.94 143.96,15.94 Z" id="110" fill="#3F7E02"></path>
                    <g id="Group-2" transform="translate(0.000000, 28.000000)">
                        <rect id="Rectangle-4" stroke="#D6D9DA" fill="#FFFFFF" x="0.5" y="0.5" width="247" height="12" rx="6"></rect>
                        <rect id="Rectangle-4" fill="#F0F0F0" x="78" y="1" width="115" height="11" rx="5.5"></rect>
                        <circle id="Oval" fill="#3F7E02" cx="136.5" cy="6.5" r="5.5"></circle>
                    </g>
                    <path d="M71.198,45.9 L71.198,55 L70.262,55 L70.262,46.732 L68.117,46.732 L68.117,45.9 L71.198,45.9 Z M77.296,55.078 C76.5939965,55.078 75.9678361,54.8916685 75.4175,54.519 C74.8671639,54.1463315 74.4381682,53.6111702 74.1305,52.9135 C73.8228318,52.2158298 73.669,51.3946714 73.669,50.45 C73.669,49.5053286 73.8228318,48.6841702 74.1305,47.9865 C74.4381682,47.2888298 74.8671639,46.7536685 75.4175,46.381 C75.9678361,46.0083315 76.5939965,45.822 77.296,45.822 C77.9980035,45.822 78.6241639,46.0083315 79.1745,46.381 C79.7248361,46.7536685 80.1559984,47.2888298 80.468,47.9865 C80.7800016,48.6841702 80.936,49.5053286 80.936,50.45 C80.936,51.3946714 80.7800016,52.2158298 80.468,52.9135 C80.1559984,53.6111702 79.7248361,54.1463315 79.1745,54.519 C78.6241639,54.8916685 77.9980035,55.078 77.296,55.078 Z M77.296,54.22 C77.8246693,54.22 78.290498,54.0726681 78.6935,53.778 C79.096502,53.4833319 79.4106655,53.0543361 79.636,52.491 C79.8613345,51.9276639 79.974,51.2473373 79.974,50.45 C79.974,49.6526627 79.8613345,48.9723362 79.636,48.409 C79.4106655,47.8456639 79.096502,47.4166681 78.6935,47.122 C78.290498,46.8273319 77.8246693,46.68 77.296,46.68 C76.7673307,46.68 76.301502,46.8273319 75.8985,47.122 C75.495498,47.4166681 75.1813345,47.8456639 74.956,48.409 C74.7306655,48.9723362 74.618,49.6526627 74.618,50.45 C74.618,51.2473373 74.7306655,51.9276639 74.956,52.491 C75.1813345,53.0543361 75.495498,53.4833319 75.8985,53.778 C76.301502,54.0726681 76.7673307,54.22 77.296,54.22 Z M86.202,55.078 C85.4999965,55.078 84.8738361,54.8916685 84.3235,54.519 C83.7731639,54.1463315 83.3441682,53.6111702 83.0365,52.9135 C82.7288318,52.2158298 82.575,51.3946714 82.575,50.45 C82.575,49.5053286 82.7288318,48.6841702 83.0365,47.9865 C83.3441682,47.2888298 83.7731639,46.7536685 84.3235,46.381 C84.8738361,46.0083315 85.4999965,45.822 86.202,45.822 C86.9040035,45.822 87.5301639,46.0083315 88.0805,46.381 C88.6308361,46.7536685 89.0619984,47.2888298 89.374,47.9865 C89.6860016,48.6841702 89.842,49.5053286 89.842,50.45 C89.842,51.3946714 89.6860016,52.2158298 89.374,52.9135 C89.0619984,53.6111702 88.6308361,54.1463315 88.0805,54.519 C87.5301639,54.8916685 86.9040035,55.078 86.202,55.078 Z M86.202,54.22 C86.7306693,54.22 87.196498,54.0726681 87.5995,53.778 C88.002502,53.4833319 88.3166655,53.0543361 88.542,52.491 C88.7673345,51.9276639 88.88,51.2473373 88.88,50.45 C88.88,49.6526627 88.7673345,48.9723362 88.542,48.409 C88.3166655,47.8456639 88.002502,47.4166681 87.5995,47.122 C87.196498,46.8273319 86.7306693,46.68 86.202,46.68 C85.6733307,46.68 85.207502,46.8273319 84.8045,47.122 C84.401498,47.4166681 84.0873345,47.8456639 83.862,48.409 C83.6366655,48.9723362 83.524,49.6526627 83.524,50.45 C83.524,51.2473373 83.6366655,51.9276639 83.862,52.491 C84.0873345,53.0543361 84.401498,53.4833319 84.8045,53.778 C85.207502,54.0726681 85.6733307,54.22 86.202,54.22 Z" id="100" fill="#666666"></path>
                    <path d="M185.198,45.9 L185.198,55 L184.262,55 L184.262,46.732 L182.117,46.732 L182.117,45.9 L185.198,45.9 Z M193.883,54.168 L193.883,55 L187.5,55 L187.5,54.337 L191.283,50.632 C191.759669,50.1639977 192.082499,49.758835 192.2515,49.4165 C192.420501,49.074165 192.505,48.7296684 192.505,48.383 C192.505,47.845664 192.320835,47.4275015 191.9525,47.1285 C191.584165,46.8294985 191.05767,46.68 190.373,46.68 C189.306995,46.68 188.479336,47.0179966 187.89,47.694 L187.227,47.122 C187.582335,46.7059979 188.035164,46.3853345 188.5855,46.16 C189.135836,45.9346655 189.757663,45.822 190.451,45.822 C191.378338,45.822 192.112831,46.0408311 192.6545,46.4785 C193.196169,46.9161689 193.467,47.5163295 193.467,48.279 C193.467,48.7470023 193.363001,49.1976645 193.155,49.631 C192.946999,50.0643355 192.55267,50.5626638 191.972,51.126 L188.878,54.168 L193.883,54.168 Z M198.187,45.822 C199.391673,45.822 200.314663,46.218496 200.956,47.0115 C201.597337,47.804504 201.918,48.9246594 201.918,50.372 C201.918,51.3860051 201.744668,52.2439965 201.398,52.946 C201.051332,53.6480035 200.566003,54.1788315 199.942,54.5385 C199.317997,54.8981685 198.590004,55.078 197.758,55.078 C196.856662,55.078 196.137336,54.913335 195.6,54.584 L195.977,53.83 C196.410336,54.1160014 196.999663,54.259 197.745,54.259 C198.750338,54.259 199.538997,53.9405032 200.111,53.3035 C200.683003,52.6664968 200.969,51.7413394 200.969,50.528 C200.969,50.3026655 200.956,50.055668 200.93,49.787 C200.704666,50.2810025 200.345002,50.6644986 199.851,50.9375 C199.356998,51.2105014 198.789337,51.347 198.148,51.347 C197.549997,51.347 197.019169,51.2343345 196.5555,51.009 C196.091831,50.7836655 195.730001,50.4651687 195.47,50.0535 C195.209999,49.6418313 195.08,49.1630027 195.08,48.617 C195.08,48.0623306 195.214332,47.5726688 195.483,47.148 C195.751668,46.7233312 196.122164,46.3961678 196.5945,46.1665 C197.066836,45.9368322 197.597664,45.822 198.187,45.822 Z M198.291,50.554 C198.750336,50.554 199.155498,50.4673342 199.5065,50.294 C199.857502,50.1206658 200.132666,49.8823348 200.332,49.579 C200.531334,49.2756652 200.631,48.9376685 200.631,48.565 C200.631,48.2183316 200.537834,47.8976681 200.3515,47.603 C200.165166,47.3083319 199.890002,47.0700009 199.526,46.888 C199.161998,46.7059991 198.728669,46.615 198.226,46.615 C197.56733,46.615 197.032169,46.7948315 196.6205,47.1545 C196.208831,47.5141685 196.003,47.992997 196.003,48.591 C196.003,49.189003 196.208831,49.6656649 196.6205,50.021 C197.032169,50.3763351 197.588996,50.554 198.291,50.554 Z" id="129" fill="#666666"></path>
                    <path d="M164.57,9.58 C165.494005,9.58 166.219664,9.84599734 166.747,10.378 C167.274336,10.9100027 167.538,11.6939948 167.538,12.73 L167.538,17 L166.544,17 L166.544,12.828 C166.544,12.0626628 166.359669,11.4793353 165.991,11.078 C165.622331,10.6766647 165.102003,10.476 164.43,10.476 C163.664663,10.476 163.062669,10.7116643 162.624,11.183 C162.185331,11.6543357 161.966,12.3053292 161.966,13.136 L161.966,17 L160.972,17 L160.972,12.828 C160.972,12.0626628 160.787669,11.4793353 160.419,11.078 C160.050331,10.6766647 159.525337,10.476 158.844,10.476 C158.087996,10.476 157.488336,10.7116643 157.045,11.183 C156.601664,11.6543357 156.38,12.3053292 156.38,13.136 L156.38,17 L155.386,17 L155.386,9.636 L156.338,9.636 L156.338,10.98 C156.599335,10.5319978 156.963331,10.1866679 157.43,9.944 C157.896669,9.70133212 158.43333,9.58 159.04,9.58 C159.656003,9.58 160.190331,9.71066536 160.643,9.972 C161.095669,10.2333346 161.433999,10.6206641 161.658,11.134 C161.928668,10.6486642 162.318331,10.2683347 162.827,9.993 C163.335669,9.71766529 163.916663,9.58 164.57,9.58 Z M177.409077,9.636 L177.409077,16.104 C177.409077,17.3546729 177.103413,18.280997 176.492077,18.883 C175.880741,19.485003 174.959083,19.786 173.727077,19.786 C173.04574,19.786 172.399413,19.6856677 171.788077,19.485 C171.176741,19.2843323 170.679746,19.0066684 170.297077,18.652 L170.801077,17.896 C171.155745,18.2133349 171.587408,18.4606658 172.096077,18.638 C172.604746,18.8153342 173.139074,18.904 173.699077,18.904 C174.632415,18.904 175.318408,18.6870022 175.757077,18.253 C176.195746,17.8189978 176.415077,17.1446712 176.415077,16.23 L176.415077,15.292 C176.107075,15.758669 175.703413,16.1133321 175.204077,16.356 C174.704741,16.5986679 174.151747,16.72 173.545077,16.72 C172.854407,16.72 172.226746,16.5683348 171.662077,16.265 C171.097408,15.9616651 170.654079,15.5370027 170.332077,14.991 C170.010075,14.4449973 169.849077,13.8266701 169.849077,13.136 C169.849077,12.4453299 170.010075,11.829336 170.332077,11.288 C170.654079,10.746664 171.095074,10.3266682 171.655077,10.028 C172.21508,9.72933184 172.845074,9.58 173.545077,9.58 C174.170413,9.58 174.735074,9.70599874 175.239077,9.958 C175.74308,10.2100013 176.149075,10.5739976 176.457077,11.05 L176.457077,9.636 L177.409077,9.636 Z M173.643077,15.838 C174.17508,15.838 174.655742,15.7236678 175.085077,15.495 C175.514412,15.2663322 175.848076,14.9466687 176.086077,14.536 C176.324078,14.1253313 176.443077,13.6586693 176.443077,13.136 C176.443077,12.6133307 176.324078,12.149002 176.086077,11.743 C175.848076,11.336998 175.516746,11.0196678 175.092077,10.791 C174.667408,10.5623322 174.184413,10.448 173.643077,10.448 C173.111074,10.448 172.632746,10.5599989 172.208077,10.784 C171.783408,11.0080011 171.452078,11.3253313 171.214077,11.736 C170.976076,12.1466687 170.857077,12.6133307 170.857077,13.136 C170.857077,13.6586693 170.976076,14.1253313 171.214077,14.536 C171.452078,14.9466687 171.783408,15.2663322 172.208077,15.495 C172.632746,15.7236678 173.111074,15.838 173.643077,15.838 Z M183.402154,5.212 L184.312154,5.212 L179.692154,18.4 L178.782154,18.4 L183.402154,5.212 Z M191.299231,6.612 L191.299231,17 L190.347231,17 L190.347231,15.544 C190.048563,16.0386691 189.654233,16.4166654 189.164231,16.678 C188.674229,16.9393346 188.121234,17.07 187.505231,17.07 C186.814561,17.07 186.189234,16.9113349 185.629231,16.594 C185.069228,16.2766651 184.630566,15.8333362 184.313231,15.264 C183.995896,14.6946638 183.837231,14.0460036 183.837231,13.318 C183.837231,12.5899964 183.995896,11.9413362 184.313231,11.372 C184.630566,10.8026638 185.069228,10.3616682 185.629231,10.049 C186.189234,9.73633177 186.814561,9.58 187.505231,9.58 C188.102567,9.58 188.641562,9.70366543 189.122231,9.951 C189.6029,10.1983346 189.997229,10.5599976 190.305231,11.036 L190.305231,6.612 L191.299231,6.612 Z M187.589231,16.188 C188.102567,16.188 188.566896,16.0690012 188.982231,15.831 C189.397566,15.5929988 189.72423,15.2546689 189.962231,14.816 C190.200232,14.3773311 190.319231,13.8780028 190.319231,13.318 C190.319231,12.7579972 190.200232,12.2586689 189.962231,11.82 C189.72423,11.3813311 189.397566,11.0430012 188.982231,10.805 C188.566896,10.5669988 188.102567,10.448 187.589231,10.448 C187.066562,10.448 186.597566,10.5669988 186.182231,10.805 C185.766896,11.0430012 185.440232,11.3813311 185.202231,11.82 C184.96423,12.2586689 184.845231,12.7579972 184.845231,13.318 C184.845231,13.8780028 184.96423,14.3773311 185.202231,14.816 C185.440232,15.2546689 185.766896,15.5929988 186.182231,15.831 C186.597566,16.0690012 187.066562,16.188 187.589231,16.188 Z M194.604308,7.2 L195.640308,7.2 L195.640308,16.104 L201.128308,16.104 L201.128308,17 L194.604308,17 L194.604308,7.2 Z" id="mg/dL" fill="#666666"></path>
                </g>
                <rect id="Rectangle" fill="#F0F0F0" x="50" y="72" width="152" height="10" rx="2"></rect>
                <rect id="Rectangle" fill="#F0F0F0" x="49" y="46" width="120" height="14" rx="2"></rect>
            </g>
        </g>
    </g>
</svg>